<?xml version="1.0" encoding="UTF-8" standalone="no"?>
<!DOCTYPE svg PUBLIC "-//W3C//DTD SVG 1.1//EN"
 "http://www.w3.org/Graphics/SVG/1.1/DTD/svg11.dtd">
<!-- Generated by graphviz version 2.49.0 (20210828.1703)
 -->
<!-- Title: sgl::Scenes::Zone Pages: 1 -->
<svg width="367pt" height="162pt"
 viewBox="0.00 0.00 367.00 162.00" xmlns="http://www.w3.org/2000/svg" xmlns:xlink="http://www.w3.org/1999/xlink">
<g id="graph0" class="graph" transform="scale(1 1) rotate(0) translate(4 158)">
<title>sgl::Scenes::Zone</title>
<polygon fill="white" stroke="transparent" points="-4,4 -4,-158 363,-158 363,4 -4,4"/>
<!-- Node1 -->
<g id="node1" class="node">
<title>Node1</title>
<g id="a_node1"><a xlink:title="A scene handling zones and transitions on a tilemap.">
<polygon fill="#bfbfbf" stroke="black" points="178,-0.5 178,-19.5 273,-19.5 273,-0.5 178,-0.5"/>
<text text-anchor="middle" x="225.5" y="-7.5" font-family="Helvetica,sans-Serif" font-size="10.00">sgl::Scenes::Zone</text>
</a>
</g>
</g>
<!-- Node2 -->
<g id="node2" class="node">
<title>Node2</title>
<g id="a_node2"><a xlink:href="../../d8/dcf/classsgl_1_1Scene.html" target="_top" xlink:title="Base class which every user scene must derive from.">
<polygon fill="white" stroke="black" points="140,-67.5 140,-86.5 203,-86.5 203,-67.5 140,-67.5"/>
<text text-anchor="middle" x="171.5" y="-74.5" font-family="Helvetica,sans-Serif" font-size="10.00">sgl::Scene</text>
</a>
</g>
</g>
<!-- Node2&#45;&gt;Node1 -->
<g id="edge1" class="edge">
<title>Node2&#45;&gt;Node1</title>
<path fill="none" stroke="midnightblue" d="M185.4,-59.27C195.93,-46.6 209.96,-29.7 218.33,-19.63"/>
<polygon fill="midnightblue" stroke="midnightblue" points="182.48,-57.31 178.78,-67.23 187.87,-61.78 182.48,-57.31"/>
</g>
<!-- Node3 -->
<g id="node3" class="node">
<title>Node3</title>
<g id="a_node3"><a xlink:href="../../dc/dee/classsgl_1_1Graphics_1_1Node.html" target="_top" xlink:title="Abstract base class for a scene graph node.">
<polygon fill="white" stroke="black" points="0,-134.5 0,-153.5 103,-153.5 103,-134.5 0,-134.5"/>
<text text-anchor="middle" x="51.5" y="-141.5" font-family="Helvetica,sans-Serif" font-size="10.00">sgl::Graphics::Node</text>
</a>
</g>
</g>
<!-- Node3&#45;&gt;Node2 -->
<g id="edge2" class="edge">
<title>Node3&#45;&gt;Node2</title>
<path fill="none" stroke="midnightblue" d="M76.5,-129.46C100.29,-116.57 135.37,-97.57 155.57,-86.63"/>
<polygon fill="midnightblue" stroke="midnightblue" points="74.81,-126.39 67.68,-134.23 78.14,-132.55 74.81,-126.39"/>
</g>
<!-- Node4 -->
<g id="node4" class="node">
<title>Node4</title>
<g id="a_node4"><a xlink:href="../../de/dd2/classsgl_1_1SceneManager.html" target="_top" xlink:title="Scene manager, in charge of creating, handling and destroying scenes.">
<polygon fill="white" stroke="black" points="121,-134.5 121,-153.5 222,-153.5 222,-134.5 121,-134.5"/>
<text text-anchor="middle" x="171.5" y="-141.5" font-family="Helvetica,sans-Serif" font-size="10.00">sgl::SceneManager</text>
</a>
</g>
</g>
<!-- Node4&#45;&gt;Node2 -->
<g id="edge3" class="edge">
<title>Node4&#45;&gt;Node2</title>
<path fill="none" stroke="#9a32cd" stroke-dasharray="5,2" d="M171.5,-124.04C171.5,-111.67 171.5,-96.12 171.5,-86.63"/>
<polygon fill="#9a32cd" stroke="#9a32cd" points="168,-124.23 171.5,-134.23 175,-124.23 168,-124.23"/>
<text text-anchor="middle" x="212" y="-108" font-family="Helvetica,sans-Serif" font-size="10.00"> m_sceneManager</text>
</g>
<!-- Node5 -->
<g id="node5" class="node">
<title>Node5</title>
<g id="a_node5"><a xlink:href="../../df/d2e/classsgl_1_1RessourceManager.html" target="_top" xlink:title="Holds and loads ressources automatically.">
<polygon fill="white" stroke="black" points="240,-134.5 240,-153.5 359,-153.5 359,-134.5 240,-134.5"/>
<text text-anchor="middle" x="299.5" y="-141.5" font-family="Helvetica,sans-Serif" font-size="10.00">sgl::RessourceManager</text>
</a>
</g>
</g>
<!-- Node5&#45;&gt;Node2 -->
<g id="edge4" class="edge">
<title>Node5&#45;&gt;Node2</title>
<path fill="none" stroke="#9a32cd" stroke-dasharray="5,2" d="M284.3,-126.74C276.58,-119.25 266.68,-110.77 256.5,-105 239.93,-95.61 219.66,-89.01 203.07,-84.69"/>
<polygon fill="#9a32cd" stroke="#9a32cd" points="282.23,-129.62 291.74,-134.29 287.22,-124.71 282.23,-129.62"/>
<text text-anchor="middle" x="304" y="-108" font-family="Helvetica,sans-Serif" font-size="10.00"> m_ressources</text>
</g>
<!-- Node6 -->
<g id="node6" class="node">
<title>Node6</title>
<g id="a_node6"><a xlink:href="../../d2/d2a/classsgl_1_1Graphics_1_1TileView.html" target="_top" xlink:title="Wrapper around sf::View to manipule views using tiles coordinates.">
<polygon fill="white" stroke="black" points="221.5,-67.5 221.5,-86.5 337.5,-86.5 337.5,-67.5 221.5,-67.5"/>
<text text-anchor="middle" x="279.5" y="-74.5" font-family="Helvetica,sans-Serif" font-size="10.00">sgl::Graphics::TileView</text>
</a>
</g>
</g>
<!-- Node6&#45;&gt;Node1 -->
<g id="edge5" class="edge">
<title>Node6&#45;&gt;Node1</title>
<path fill="none" stroke="#9a32cd" stroke-dasharray="5,2" d="M265.6,-59.27C255.07,-46.6 241.04,-29.7 232.67,-19.63"/>
<polygon fill="#9a32cd" stroke="#9a32cd" points="263.13,-61.78 272.22,-67.23 268.52,-57.31 263.13,-61.78"/>
<text text-anchor="middle" x="273" y="-41" font-family="Helvetica,sans-Serif" font-size="10.00"> m_view</text>
</g>
</g>
</svg>
