<?xml version="1.0" encoding="UTF-8" standalone="no"?>
<!DOCTYPE svg PUBLIC "-//W3C//DTD SVG 1.1//EN"
 "http://www.w3.org/Graphics/SVG/1.1/DTD/svg11.dtd">
<!-- Generated by graphviz version 2.38.0 (20140413.2041)
 -->
<!-- Title: C:/Users/Folaefolc/Documents/Code/Big&#45;Projects/ScriptWizards/SmallGameLibrary/include/Small/Scripting/Config.hpp Pages: 1 -->
<svg width="590pt" height="572pt"
 viewBox="0.00 0.00 589.50 572.00" xmlns="http://www.w3.org/2000/svg" xmlns:xlink="http://www.w3.org/1999/xlink">
<g id="graph0" class="graph" transform="scale(1 1) rotate(0) translate(4 568)">
<title>C:/Users/Folaefolc/Documents/Code/Big&#45;Projects/ScriptWizards/SmallGameLibrary/include/Small/Scripting/Config.hpp</title>
<polygon fill="white" stroke="none" points="-4,4 -4,-568 585.5,-568 585.5,4 -4,4"/>
<!-- Node1 -->
<g id="node1" class="node"><title>Node1</title>
<polygon fill="#bfbfbf" stroke="black" points="175.5,-500.5 175.5,-563.5 309.5,-563.5 309.5,-500.5 175.5,-500.5"/>
<text text-anchor="start" x="183.5" y="-551.5" font-family="Helvetica,sans-Serif" font-size="10.00">C:/Users/Folaefolc</text>
<text text-anchor="start" x="183.5" y="-540.5" font-family="Helvetica,sans-Serif" font-size="10.00">/Documents/Code/Big</text>
<text text-anchor="start" x="183.5" y="-529.5" font-family="Helvetica,sans-Serif" font-size="10.00">&#45;Projects/ScriptWizards</text>
<text text-anchor="start" x="183.5" y="-518.5" font-family="Helvetica,sans-Serif" font-size="10.00">/SmallGameLibrary/include</text>
<text text-anchor="middle" x="242.5" y="-507.5" font-family="Helvetica,sans-Serif" font-size="10.00">/Small/Scripting/Config.hpp</text>
</g>
<!-- Node2 -->
<g id="node2" class="node"><title>Node2</title>
<g id="a_node2"><a xlink:href="../../df/d3c/Application_8hpp.html" target="_top" xlink:title="Define the application hosting the scenes for the game. ">
<polygon fill="white" stroke="black" points="0,-200.5 0,-263.5 137,-263.5 137,-200.5 0,-200.5"/>
<text text-anchor="start" x="8" y="-251.5" font-family="Helvetica,sans-Serif" font-size="10.00">C:/Users/Folaefolc</text>
<text text-anchor="start" x="8" y="-240.5" font-family="Helvetica,sans-Serif" font-size="10.00">/Documents/Code/Big</text>
<text text-anchor="start" x="8" y="-229.5" font-family="Helvetica,sans-Serif" font-size="10.00">&#45;Projects/ScriptWizards</text>
<text text-anchor="start" x="8" y="-218.5" font-family="Helvetica,sans-Serif" font-size="10.00">/SmallGameLibrary/include</text>
<text text-anchor="middle" x="68.5" y="-207.5" font-family="Helvetica,sans-Serif" font-size="10.00">/Small/Core/Application.hpp</text>
</a>
</g>
</g>
<!-- Node1&#45;&gt;Node2 -->
<g id="edge1" class="edge"><title>Node1&#45;&gt;Node2</title>
<path fill="none" stroke="midnightblue" d="M166.143,-500.969C110.613,-474.376 40.1804,-429.517 10.5,-364 -1.23764,-338.09 0.566031,-326.653 10.5,-300 15.4969,-286.593 24.5177,-274.085 33.9793,-263.592"/>
<polygon fill="midnightblue" stroke="midnightblue" points="164.728,-504.171 175.269,-505.241 167.696,-497.831 164.728,-504.171"/>
</g>
<!-- Node5 -->
<g id="node5" class="node"><title>Node5</title>
<g id="a_node5"><a xlink:href="../../db/de8/Scene_8hpp.html" target="_top" xlink:title="The base scene class and the scene states are defined here. ">
<polygon fill="white" stroke="black" points="175.5,-400.5 175.5,-463.5 309.5,-463.5 309.5,-400.5 175.5,-400.5"/>
<text text-anchor="start" x="183.5" y="-451.5" font-family="Helvetica,sans-Serif" font-size="10.00">C:/Users/Folaefolc</text>
<text text-anchor="start" x="183.5" y="-440.5" font-family="Helvetica,sans-Serif" font-size="10.00">/Documents/Code/Big</text>
<text text-anchor="start" x="183.5" y="-429.5" font-family="Helvetica,sans-Serif" font-size="10.00">&#45;Projects/ScriptWizards</text>
<text text-anchor="start" x="183.5" y="-418.5" font-family="Helvetica,sans-Serif" font-size="10.00">/SmallGameLibrary/include</text>
<text text-anchor="middle" x="242.5" y="-407.5" font-family="Helvetica,sans-Serif" font-size="10.00">/Small/Core/Scene.hpp</text>
</a>
</g>
</g>
<!-- Node1&#45;&gt;Node5 -->
<g id="edge4" class="edge"><title>Node1&#45;&gt;Node5</title>
<path fill="none" stroke="midnightblue" d="M242.5,-490.099C242.5,-481.238 242.5,-472.015 242.5,-463.63"/>
<polygon fill="midnightblue" stroke="midnightblue" points="239,-490.261 242.5,-500.261 246,-490.261 239,-490.261"/>
</g>
<!-- Node6 -->
<g id="node6" class="node"><title>Node6</title>
<g id="a_node6"><a xlink:href="../../df/d74/SceneManager_8hpp.html" target="_top" xlink:title="Define the scene manager (creating, handling and destroying them) ">
<polygon fill="white" stroke="black" points="20,-300.5 20,-363.5 175,-363.5 175,-300.5 20,-300.5"/>
<text text-anchor="start" x="28" y="-351.5" font-family="Helvetica,sans-Serif" font-size="10.00">C:/Users/Folaefolc</text>
<text text-anchor="start" x="28" y="-340.5" font-family="Helvetica,sans-Serif" font-size="10.00">/Documents/Code/Big</text>
<text text-anchor="start" x="28" y="-329.5" font-family="Helvetica,sans-Serif" font-size="10.00">&#45;Projects/ScriptWizards</text>
<text text-anchor="start" x="28" y="-318.5" font-family="Helvetica,sans-Serif" font-size="10.00">/SmallGameLibrary/include</text>
<text text-anchor="middle" x="97.5" y="-307.5" font-family="Helvetica,sans-Serif" font-size="10.00">/Small/Core/SceneManager.hpp</text>
</a>
</g>
</g>
<!-- Node1&#45;&gt;Node6 -->
<g id="edge14" class="edge"><title>Node1&#45;&gt;Node6</title>
<path fill="none" stroke="midnightblue" d="M194.758,-493.686C184.742,-484.601 174.733,-474.466 166.5,-464 141.946,-432.786 121.898,-391.534 109.86,-363.729"/>
<polygon fill="midnightblue" stroke="midnightblue" points="192.574,-496.426 202.389,-500.416 197.204,-491.176 192.574,-496.426"/>
</g>
<!-- Node7 -->
<g id="node7" class="node"><title>Node7</title>
<g id="a_node7"><a xlink:href="../../de/de7/ArkScene_8hpp.html" target="_top" xlink:title="Define a scene scriptable through ArkScript. ">
<polygon fill="white" stroke="black" points="384,-300.5 384,-363.5 529,-363.5 529,-300.5 384,-300.5"/>
<text text-anchor="start" x="392" y="-351.5" font-family="Helvetica,sans-Serif" font-size="10.00">C:/Users/Folaefolc</text>
<text text-anchor="start" x="392" y="-340.5" font-family="Helvetica,sans-Serif" font-size="10.00">/Documents/Code/Big</text>
<text text-anchor="start" x="392" y="-329.5" font-family="Helvetica,sans-Serif" font-size="10.00">&#45;Projects/ScriptWizards</text>
<text text-anchor="start" x="392" y="-318.5" font-family="Helvetica,sans-Serif" font-size="10.00">/SmallGameLibrary/include</text>
<text text-anchor="middle" x="456.5" y="-307.5" font-family="Helvetica,sans-Serif" font-size="10.00">/Small/Scenes/ArkScene.hpp</text>
</a>
</g>
</g>
<!-- Node1&#45;&gt;Node7 -->
<g id="edge15" class="edge"><title>Node1&#45;&gt;Node7</title>
<path fill="none" stroke="midnightblue" d="M285.643,-493.457C296.442,-483.925 307.952,-473.65 318.5,-464 355.547,-430.107 397.251,-390.279 425.022,-363.513"/>
<polygon fill="midnightblue" stroke="midnightblue" points="283.124,-491.011 277.93,-500.246 287.748,-496.266 283.124,-491.011"/>
</g>
<!-- Node10 -->
<g id="node10" class="node"><title>Node10</title>
<g id="a_node10"><a xlink:href="../../d3/dc8/Scripting_8hpp.html" target="_top" xlink:title="Include all the files from the Scripting folder. ">
<polygon fill="white" stroke="black" points="447.5,-100.5 447.5,-163.5 581.5,-163.5 581.5,-100.5 447.5,-100.5"/>
<text text-anchor="start" x="455.5" y="-151.5" font-family="Helvetica,sans-Serif" font-size="10.00">C:/Users/Folaefolc</text>
<text text-anchor="start" x="455.5" y="-140.5" font-family="Helvetica,sans-Serif" font-size="10.00">/Documents/Code/Big</text>
<text text-anchor="start" x="455.5" y="-129.5" font-family="Helvetica,sans-Serif" font-size="10.00">&#45;Projects/ScriptWizards</text>
<text text-anchor="start" x="455.5" y="-118.5" font-family="Helvetica,sans-Serif" font-size="10.00">/SmallGameLibrary/include</text>
<text text-anchor="middle" x="514.5" y="-107.5" font-family="Helvetica,sans-Serif" font-size="10.00">/Small/Scripting.hpp</text>
</a>
</g>
</g>
<!-- Node1&#45;&gt;Node10 -->
<g id="edge16" class="edge"><title>Node1&#45;&gt;Node10</title>
<path fill="none" stroke="midnightblue" d="M319.354,-511.628C390.312,-489.179 491.455,-444.507 537.5,-364 573.917,-300.328 546.929,-210.435 528.283,-163.786"/>
<polygon fill="midnightblue" stroke="midnightblue" points="318.076,-508.36 309.551,-514.65 320.138,-515.049 318.076,-508.36"/>
</g>
<!-- Node3 -->
<g id="node3" class="node"><title>Node3</title>
<g id="a_node3"><a xlink:href="../../d7/d38/Core_8hpp.html" target="_top" xlink:title="Include all the files from the Core folder. ">
<polygon fill="white" stroke="black" points="117.5,-100.5 117.5,-163.5 251.5,-163.5 251.5,-100.5 117.5,-100.5"/>
<text text-anchor="start" x="125.5" y="-151.5" font-family="Helvetica,sans-Serif" font-size="10.00">C:/Users/Folaefolc</text>
<text text-anchor="start" x="125.5" y="-140.5" font-family="Helvetica,sans-Serif" font-size="10.00">/Documents/Code/Big</text>
<text text-anchor="start" x="125.5" y="-129.5" font-family="Helvetica,sans-Serif" font-size="10.00">&#45;Projects/ScriptWizards</text>
<text text-anchor="start" x="125.5" y="-118.5" font-family="Helvetica,sans-Serif" font-size="10.00">/SmallGameLibrary/include</text>
<text text-anchor="middle" x="184.5" y="-107.5" font-family="Helvetica,sans-Serif" font-size="10.00">/Small/Core.hpp</text>
</a>
</g>
</g>
<!-- Node2&#45;&gt;Node3 -->
<g id="edge2" class="edge"><title>Node2&#45;&gt;Node3</title>
<path fill="none" stroke="midnightblue" d="M112.835,-193.545C124.537,-183.659 137.025,-173.108 148.244,-163.63"/>
<polygon fill="midnightblue" stroke="midnightblue" points="110.265,-191.134 104.885,-200.261 114.782,-196.481 110.265,-191.134"/>
</g>
<!-- Node4 -->
<g id="node4" class="node"><title>Node4</title>
<g id="a_node4"><a xlink:href="../../da/d41/All_8hpp.html" target="_top" xlink:title="Include the needed files to start a project using the library. ">
<polygon fill="white" stroke="black" points="310.5,-0.5 310.5,-63.5 444.5,-63.5 444.5,-0.5 310.5,-0.5"/>
<text text-anchor="start" x="318.5" y="-51.5" font-family="Helvetica,sans-Serif" font-size="10.00">C:/Users/Folaefolc</text>
<text text-anchor="start" x="318.5" y="-40.5" font-family="Helvetica,sans-Serif" font-size="10.00">/Documents/Code/Big</text>
<text text-anchor="start" x="318.5" y="-29.5" font-family="Helvetica,sans-Serif" font-size="10.00">&#45;Projects/ScriptWizards</text>
<text text-anchor="start" x="318.5" y="-18.5" font-family="Helvetica,sans-Serif" font-size="10.00">/SmallGameLibrary/include</text>
<text text-anchor="middle" x="377.5" y="-7.5" font-family="Helvetica,sans-Serif" font-size="10.00">/Small/All.hpp</text>
</a>
</g>
</g>
<!-- Node3&#45;&gt;Node4 -->
<g id="edge3" class="edge"><title>Node3&#45;&gt;Node4</title>
<path fill="none" stroke="midnightblue" d="M253.86,-95.7811C274.63,-85.2343 297.227,-73.7604 317.353,-63.541"/>
<polygon fill="midnightblue" stroke="midnightblue" points="252.104,-92.747 244.773,-100.395 255.274,-98.9885 252.104,-92.747"/>
</g>
<!-- Node5&#45;&gt;Node3 -->
<g id="edge8" class="edge"><title>Node5&#45;&gt;Node3</title>
<path fill="none" stroke="midnightblue" d="M229.543,-390.611C226.998,-381.89 224.501,-372.68 222.5,-364 206.112,-292.91 194.023,-207.943 188.262,-163.511"/>
<polygon fill="midnightblue" stroke="midnightblue" points="226.191,-391.62 232.412,-400.197 232.897,-389.613 226.191,-391.62"/>
</g>
<!-- Node5&#45;&gt;Node6 -->
<g id="edge5" class="edge"><title>Node5&#45;&gt;Node6</title>
<path fill="none" stroke="midnightblue" d="M188.345,-394.398C173.356,-384.268 157.248,-373.382 142.82,-363.63"/>
<polygon fill="midnightblue" stroke="midnightblue" points="186.774,-397.561 197.019,-400.261 190.694,-391.762 186.774,-397.561"/>
</g>
<!-- Node5&#45;&gt;Node7 -->
<g id="edge9" class="edge"><title>Node5&#45;&gt;Node7</title>
<path fill="none" stroke="midnightblue" d="M318.478,-396.206C341.763,-385.543 367.192,-373.898 389.808,-363.541"/>
<polygon fill="midnightblue" stroke="midnightblue" points="316.965,-393.049 309.331,-400.395 319.88,-399.414 316.965,-393.049"/>
</g>
<!-- Node9 -->
<g id="node9" class="node"><title>Node9</title>
<g id="a_node9"><a xlink:href="../../d2/d50/Zone_8hpp.html" target="_top" xlink:title="A specialized scene to handle zones and transitions on a tilemap. ">
<polygon fill="white" stroke="black" points="231.5,-300.5 231.5,-363.5 365.5,-363.5 365.5,-300.5 231.5,-300.5"/>
<text text-anchor="start" x="239.5" y="-351.5" font-family="Helvetica,sans-Serif" font-size="10.00">C:/Users/Folaefolc</text>
<text text-anchor="start" x="239.5" y="-340.5" font-family="Helvetica,sans-Serif" font-size="10.00">/Documents/Code/Big</text>
<text text-anchor="start" x="239.5" y="-329.5" font-family="Helvetica,sans-Serif" font-size="10.00">&#45;Projects/ScriptWizards</text>
<text text-anchor="start" x="239.5" y="-318.5" font-family="Helvetica,sans-Serif" font-size="10.00">/SmallGameLibrary/include</text>
<text text-anchor="middle" x="298.5" y="-307.5" font-family="Helvetica,sans-Serif" font-size="10.00">/Small/Scenes/Zone.hpp</text>
</a>
</g>
</g>
<!-- Node5&#45;&gt;Node9 -->
<g id="edge12" class="edge"><title>Node5&#45;&gt;Node9</title>
<path fill="none" stroke="midnightblue" d="M265.049,-391.54C270.361,-382.243 275.946,-372.47 280.997,-363.63"/>
<polygon fill="midnightblue" stroke="midnightblue" points="261.988,-389.842 260.065,-400.261 268.065,-393.315 261.988,-389.842"/>
</g>
<!-- Node6&#45;&gt;Node2 -->
<g id="edge6" class="edge"><title>Node6&#45;&gt;Node2</title>
<path fill="none" stroke="midnightblue" d="M85.482,-290.387C82.834,-281.439 80.0721,-272.106 77.5639,-263.63"/>
<polygon fill="midnightblue" stroke="midnightblue" points="82.21,-291.665 88.4038,-300.261 88.9223,-289.679 82.21,-291.665"/>
</g>
<!-- Node6&#45;&gt;Node3 -->
<g id="edge7" class="edge"><title>Node6&#45;&gt;Node3</title>
<path fill="none" stroke="midnightblue" d="M128.657,-292.072C134.823,-283.188 140.825,-273.543 145.5,-264 161.472,-231.396 172.283,-190.971 178.397,-163.721"/>
<polygon fill="midnightblue" stroke="midnightblue" points="125.719,-290.164 122.733,-300.329 131.407,-294.244 125.719,-290.164"/>
</g>
<!-- Node8 -->
<g id="node8" class="node"><title>Node8</title>
<g id="a_node8"><a xlink:href="../../d0/d00/Scenes_8hpp.html" target="_top" xlink:title="Include all the files from the Scenes folder. ">
<polygon fill="white" stroke="black" points="310.5,-200.5 310.5,-263.5 444.5,-263.5 444.5,-200.5 310.5,-200.5"/>
<text text-anchor="start" x="318.5" y="-251.5" font-family="Helvetica,sans-Serif" font-size="10.00">C:/Users/Folaefolc</text>
<text text-anchor="start" x="318.5" y="-240.5" font-family="Helvetica,sans-Serif" font-size="10.00">/Documents/Code/Big</text>
<text text-anchor="start" x="318.5" y="-229.5" font-family="Helvetica,sans-Serif" font-size="10.00">&#45;Projects/ScriptWizards</text>
<text text-anchor="start" x="318.5" y="-218.5" font-family="Helvetica,sans-Serif" font-size="10.00">/SmallGameLibrary/include</text>
<text text-anchor="middle" x="377.5" y="-207.5" font-family="Helvetica,sans-Serif" font-size="10.00">/Small/Scenes.hpp</text>
</a>
</g>
</g>
<!-- Node7&#45;&gt;Node8 -->
<g id="edge10" class="edge"><title>Node7&#45;&gt;Node8</title>
<path fill="none" stroke="midnightblue" d="M425.385,-292.401C417.684,-282.849 409.538,-272.744 402.191,-263.63"/>
<polygon fill="midnightblue" stroke="midnightblue" points="422.72,-294.672 431.721,-300.261 428.17,-290.279 422.72,-294.672"/>
</g>
<!-- Node8&#45;&gt;Node4 -->
<g id="edge11" class="edge"><title>Node8&#45;&gt;Node4</title>
<path fill="none" stroke="midnightblue" d="M377.5,-190.375C377.5,-152.729 377.5,-97.5629 377.5,-63.5382"/>
<polygon fill="midnightblue" stroke="midnightblue" points="374,-190.496 377.5,-200.496 381,-190.496 374,-190.496"/>
</g>
<!-- Node9&#45;&gt;Node8 -->
<g id="edge13" class="edge"><title>Node9&#45;&gt;Node8</title>
<path fill="none" stroke="midnightblue" d="M329.615,-292.401C337.316,-282.849 345.462,-272.744 352.809,-263.63"/>
<polygon fill="midnightblue" stroke="midnightblue" points="326.83,-290.279 323.279,-300.261 332.28,-294.672 326.83,-290.279"/>
</g>
<!-- Node10&#45;&gt;Node4 -->
<g id="edge17" class="edge"><title>Node10&#45;&gt;Node4</title>
<path fill="none" stroke="midnightblue" d="M463.332,-94.3984C449.171,-84.2683 433.952,-73.3816 420.319,-63.6299"/>
<polygon fill="midnightblue" stroke="midnightblue" points="461.359,-97.2897 471.528,-100.261 465.431,-91.5964 461.359,-97.2897"/>
</g>
</g>
</svg>
