<?xml version="1.0" encoding="UTF-8" standalone="no"?>
<!DOCTYPE svg PUBLIC "-//W3C//DTD SVG 1.1//EN"
 "http://www.w3.org/Graphics/SVG/1.1/DTD/svg11.dtd">
<!-- Generated by graphviz version 2.38.0 (20140413.2041)
 -->
<!-- Title: C:/Users/Folaefolc/Documents/Code/Big&#45;Projects/ScriptWizards/SmallGameLibrary/include/Small/Widgets/TextBox.hpp Pages: 1 -->
<svg width="739pt" height="240pt"
 viewBox="0.00 0.00 738.50 240.00" xmlns="http://www.w3.org/2000/svg" xmlns:xlink="http://www.w3.org/1999/xlink">
<g id="graph0" class="graph" transform="scale(1 1) rotate(0) translate(4 236)">
<title>C:/Users/Folaefolc/Documents/Code/Big&#45;Projects/ScriptWizards/SmallGameLibrary/include/Small/Widgets/TextBox.hpp</title>
<polygon fill="white" stroke="none" points="-4,4 -4,-236 734.5,-236 734.5,4 -4,4"/>
<!-- Node1 -->
<g id="node1" class="node"><title>Node1</title>
<polygon fill="#bfbfbf" stroke="black" points="186,-168.5 186,-231.5 327,-231.5 327,-168.5 186,-168.5"/>
<text text-anchor="start" x="194" y="-219.5" font-family="Helvetica,sans-Serif" font-size="10.00">C:/Users/Folaefolc</text>
<text text-anchor="start" x="194" y="-208.5" font-family="Helvetica,sans-Serif" font-size="10.00">/Documents/Code/Big</text>
<text text-anchor="start" x="194" y="-197.5" font-family="Helvetica,sans-Serif" font-size="10.00">&#45;Projects/ScriptWizards</text>
<text text-anchor="start" x="194" y="-186.5" font-family="Helvetica,sans-Serif" font-size="10.00">/SmallGameLibrary/include</text>
<text text-anchor="middle" x="256.5" y="-175.5" font-family="Helvetica,sans-Serif" font-size="10.00">/Small/Widgets/TextBox.hpp</text>
</g>
<!-- Node2 -->
<g id="node2" class="node"><title>Node2</title>
<g id="a_node2"><a xlink:href="../../d3/db2/Base_8hpp.html" target="_top" xlink:title="Contain base classes to create interoperable SFML widgets. ">
<polygon fill="white" stroke="black" points="194,-112.5 194,-131.5 319,-131.5 319,-112.5 194,-112.5"/>
<text text-anchor="middle" x="256.5" y="-119.5" font-family="Helvetica,sans-Serif" font-size="10.00">Small/Widgets/Base.hpp</text>
</a>
</g>
</g>
<!-- Node1&#45;&gt;Node2 -->
<g id="edge1" class="edge"><title>Node1&#45;&gt;Node2</title>
<path fill="none" stroke="midnightblue" d="M256.5,-168.088C256.5,-159.15 256.5,-149.669 256.5,-141.719"/>
<polygon fill="midnightblue" stroke="midnightblue" points="260,-141.718 256.5,-131.718 253,-141.718 260,-141.718"/>
</g>
<!-- Node3 -->
<g id="node3" class="node"><title>Node3</title>
<polygon fill="white" stroke="#bfbfbf" points="0,-56.5 0,-75.5 139,-75.5 139,-56.5 0,-56.5"/>
<text text-anchor="middle" x="69.5" y="-63.5" font-family="Helvetica,sans-Serif" font-size="10.00">SFML/Graphics/Texture.hpp</text>
</g>
<!-- Node2&#45;&gt;Node3 -->
<g id="edge2" class="edge"><title>Node2&#45;&gt;Node3</title>
<path fill="none" stroke="midnightblue" d="M226.869,-112.444C195,-103.241 144.167,-88.5617 108.936,-78.3879"/>
<polygon fill="midnightblue" stroke="midnightblue" points="109.571,-74.9282 98.9921,-75.5164 107.628,-81.6534 109.571,-74.9282"/>
</g>
<!-- Node4 -->
<g id="node4" class="node"><title>Node4</title>
<polygon fill="white" stroke="#bfbfbf" points="105.5,-0.5 105.5,-19.5 269.5,-19.5 269.5,-0.5 105.5,-0.5"/>
<text text-anchor="middle" x="187.5" y="-7.5" font-family="Helvetica,sans-Serif" font-size="10.00">SFML/Graphics/RenderTarget.hpp</text>
</g>
<!-- Node2&#45;&gt;Node4 -->
<g id="edge3" class="edge"><title>Node2&#45;&gt;Node4</title>
<path fill="none" stroke="midnightblue" d="M232.031,-112.438C215.933,-105.378 196.123,-93.626 186.5,-76 178.81,-61.915 179.971,-43.4243 182.523,-29.7669"/>
<polygon fill="midnightblue" stroke="midnightblue" points="186.023,-30.1619 184.83,-19.6344 179.197,-28.6078 186.023,-30.1619"/>
</g>
<!-- Node5 -->
<g id="node5" class="node"><title>Node5</title>
<polygon fill="white" stroke="#bfbfbf" points="195.5,-56.5 195.5,-75.5 317.5,-75.5 317.5,-56.5 195.5,-56.5"/>
<text text-anchor="middle" x="256.5" y="-63.5" font-family="Helvetica,sans-Serif" font-size="10.00">SFML/System/Time.hpp</text>
</g>
<!-- Node2&#45;&gt;Node5 -->
<g id="edge4" class="edge"><title>Node2&#45;&gt;Node5</title>
<path fill="none" stroke="midnightblue" d="M256.5,-112.083C256.5,-105.006 256.5,-94.8611 256.5,-85.9865"/>
<polygon fill="midnightblue" stroke="midnightblue" points="260,-85.751 256.5,-75.7511 253,-85.7511 260,-85.751"/>
</g>
<!-- Node6 -->
<g id="node6" class="node"><title>Node6</title>
<polygon fill="white" stroke="#bfbfbf" points="335.5,-56.5 335.5,-75.5 461.5,-75.5 461.5,-56.5 335.5,-56.5"/>
<text text-anchor="middle" x="398.5" y="-63.5" font-family="Helvetica,sans-Serif" font-size="10.00">SFML/Window/Event.hpp</text>
</g>
<!-- Node2&#45;&gt;Node6 -->
<g id="edge5" class="edge"><title>Node2&#45;&gt;Node6</title>
<path fill="none" stroke="midnightblue" d="M279,-112.444C302.577,-103.478 339.822,-89.314 366.464,-79.1827"/>
<polygon fill="midnightblue" stroke="midnightblue" points="368.002,-82.3424 376.105,-75.5164 365.514,-75.7995 368.002,-82.3424"/>
</g>
<!-- Node7 -->
<g id="node7" class="node"><title>Node7</title>
<g id="a_node7"><a xlink:href="../../d7/dc6/Node_8hpp.html" target="_top" xlink:title="A scene graph node. ">
<polygon fill="white" stroke="black" points="479.5,-56.5 479.5,-75.5 607.5,-75.5 607.5,-56.5 479.5,-56.5"/>
<text text-anchor="middle" x="543.5" y="-63.5" font-family="Helvetica,sans-Serif" font-size="10.00">Small/Graphics/Node.hpp</text>
</a>
</g>
</g>
<!-- Node2&#45;&gt;Node7 -->
<g id="edge6" class="edge"><title>Node2&#45;&gt;Node7</title>
<path fill="none" stroke="midnightblue" d="M301.976,-112.444C352.462,-102.944 433.956,-87.611 488.12,-77.4198"/>
<polygon fill="midnightblue" stroke="midnightblue" points="489.056,-80.8052 498.237,-75.5164 487.762,-73.9259 489.056,-80.8052"/>
</g>
<!-- Node7&#45;&gt;Node4 -->
<g id="edge7" class="edge"><title>Node7&#45;&gt;Node4</title>
<path fill="none" stroke="midnightblue" d="M487.091,-56.4435C423.685,-46.8259 320.852,-31.2275 253.696,-21.0409"/>
<polygon fill="midnightblue" stroke="midnightblue" points="254.057,-17.5558 243.645,-19.5164 253.007,-24.4766 254.057,-17.5558"/>
</g>
<!-- Node8 -->
<g id="node8" class="node"><title>Node8</title>
<polygon fill="white" stroke="#bfbfbf" points="298,-0.5 298,-19.5 447,-19.5 447,-0.5 298,-0.5"/>
<text text-anchor="middle" x="372.5" y="-7.5" font-family="Helvetica,sans-Serif" font-size="10.00">SFML/Graphics/Transform.hpp</text>
</g>
<!-- Node7&#45;&gt;Node8 -->
<g id="edge8" class="edge"><title>Node7&#45;&gt;Node8</title>
<path fill="none" stroke="midnightblue" d="M516.405,-56.4435C487.512,-47.3196 441.575,-32.8133 409.395,-22.6509"/>
<polygon fill="midnightblue" stroke="midnightblue" points="410.059,-19.1903 399.469,-19.5164 407.951,-25.8654 410.059,-19.1903"/>
</g>
<!-- Node9 -->
<g id="node9" class="node"><title>Node9</title>
<polygon fill="white" stroke="#bfbfbf" points="465,-0.5 465,-19.5 600,-19.5 600,-0.5 465,-0.5"/>
<text text-anchor="middle" x="532.5" y="-7.5" font-family="Helvetica,sans-Serif" font-size="10.00">SFML/System/Vector2.hpp</text>
</g>
<!-- Node7&#45;&gt;Node9 -->
<g id="edge9" class="edge"><title>Node7&#45;&gt;Node9</title>
<path fill="none" stroke="midnightblue" d="M541.684,-56.083C540.226,-48.9272 538.129,-38.6353 536.307,-29.6911"/>
<polygon fill="midnightblue" stroke="midnightblue" points="539.708,-28.8512 534.283,-19.7511 532.849,-30.2485 539.708,-28.8512"/>
</g>
<!-- Node10 -->
<g id="node10" class="node"><title>Node10</title>
<polygon fill="white" stroke="#bfbfbf" points="618.5,-0.5 618.5,-19.5 660.5,-19.5 660.5,-0.5 618.5,-0.5"/>
<text text-anchor="middle" x="639.5" y="-7.5" font-family="Helvetica,sans-Serif" font-size="10.00">vector</text>
</g>
<!-- Node7&#45;&gt;Node10 -->
<g id="edge10" class="edge"><title>Node7&#45;&gt;Node10</title>
<path fill="none" stroke="midnightblue" d="M558.924,-56.324C574.04,-47.8215 597.315,-34.7288 614.971,-24.7975"/>
<polygon fill="midnightblue" stroke="midnightblue" points="617.114,-27.6077 624.114,-19.6545 613.683,-21.5066 617.114,-27.6077"/>
</g>
<!-- Node11 -->
<g id="node11" class="node"><title>Node11</title>
<polygon fill="white" stroke="#bfbfbf" points="678.5,-0.5 678.5,-19.5 730.5,-19.5 730.5,-0.5 678.5,-0.5"/>
<text text-anchor="middle" x="704.5" y="-7.5" font-family="Helvetica,sans-Serif" font-size="10.00">memory</text>
</g>
<!-- Node7&#45;&gt;Node11 -->
<g id="edge11" class="edge"><title>Node7&#45;&gt;Node11</title>
<path fill="none" stroke="midnightblue" d="M569.011,-56.4435C596.096,-47.3591 639.09,-32.9388 669.369,-22.7831"/>
<polygon fill="midnightblue" stroke="midnightblue" points="670.74,-26.0148 679.108,-19.5164 668.514,-19.3781 670.74,-26.0148"/>
</g>
</g>
</svg>
