<?xml version="1.0" encoding="UTF-8" standalone="no"?>
<!DOCTYPE svg PUBLIC "-//W3C//DTD SVG 1.1//EN"
 "http://www.w3.org/Graphics/SVG/1.1/DTD/svg11.dtd">
<!-- Generated by graphviz version 2.38.0 (20140413.2041)
 -->
<!-- Title: include/Small/GameObjects/Manager.hpp Pages: 1 -->
<svg width="322pt" height="162pt"
 viewBox="0.00 0.00 321.50 162.00" xmlns="http://www.w3.org/2000/svg" xmlns:xlink="http://www.w3.org/1999/xlink">
<g id="graph0" class="graph" transform="scale(1 1) rotate(0) translate(4 158)">
<title>include/Small/GameObjects/Manager.hpp</title>
<polygon fill="white" stroke="none" points="-4,4 -4,-158 317.5,-158 317.5,4 -4,4"/>
<!-- Node1 -->
<g id="node1" class="node"><title>Node1</title>
<polygon fill="#bfbfbf" stroke="black" points="83,-123.5 83,-153.5 221,-153.5 221,-123.5 83,-123.5"/>
<text text-anchor="start" x="91" y="-141.5" font-family="Helvetica,sans-Serif" font-size="10.00">include/Small/GameObjects</text>
<text text-anchor="middle" x="152" y="-130.5" font-family="Helvetica,sans-Serif" font-size="10.00">/Manager.hpp</text>
</g>
<!-- Node2 -->
<g id="node2" class="node"><title>Node2</title>
<g id="a_node2"><a xlink:href="../../de/d53/Triggers_2Manager_8hpp.html" target="_top" xlink:title="include/Small/GameObjects\l/Triggers/Manager.hpp">
<polygon fill="white" stroke="black" points="0,-56.5 0,-86.5 138,-86.5 138,-56.5 0,-56.5"/>
<text text-anchor="start" x="8" y="-74.5" font-family="Helvetica,sans-Serif" font-size="10.00">include/Small/GameObjects</text>
<text text-anchor="middle" x="69" y="-63.5" font-family="Helvetica,sans-Serif" font-size="10.00">/Triggers/Manager.hpp</text>
</a>
</g>
</g>
<!-- Node1&#45;&gt;Node2 -->
<g id="edge1" class="edge"><title>Node1&#45;&gt;Node2</title>
<path fill="none" stroke="midnightblue" d="M126.037,-117.168C113.345,-107.228 98.3876,-95.5144 86.9746,-86.5765"/>
<polygon fill="midnightblue" stroke="midnightblue" points="123.959,-119.986 133.99,-123.396 128.275,-114.475 123.959,-119.986"/>
</g>
<!-- Node3 -->
<g id="node3" class="node"><title>Node3</title>
<g id="a_node3"><a xlink:href="../../d2/da1/GameObjects_8hpp.html" target="_top" xlink:title="Include all the files from the GameObjects folder. ">
<polygon fill="white" stroke="black" points="156.5,-62 156.5,-81 313.5,-81 313.5,-62 156.5,-62"/>
<text text-anchor="middle" x="235" y="-69" font-family="Helvetica,sans-Serif" font-size="10.00">include/Small/GameObjects.hpp</text>
</a>
</g>
</g>
<!-- Node1&#45;&gt;Node3 -->
<g id="edge2" class="edge"><title>Node1&#45;&gt;Node3</title>
<path fill="none" stroke="midnightblue" d="M178.167,-117.008C193.575,-104.941 212.265,-90.3046 223.898,-81.1945"/>
<polygon fill="midnightblue" stroke="midnightblue" points="175.725,-114.475 170.01,-123.396 180.041,-119.986 175.725,-114.475"/>
</g>
<!-- Node4 -->
<g id="node4" class="node"><title>Node4</title>
<g id="a_node4"><a xlink:href="../../da/d41/All_8hpp.html" target="_top" xlink:title="Include the needed files to start a project using the library. ">
<polygon fill="white" stroke="black" points="181,-0.5 181,-19.5 289,-19.5 289,-0.5 181,-0.5"/>
<text text-anchor="middle" x="235" y="-7.5" font-family="Helvetica,sans-Serif" font-size="10.00">include/Small/All.hpp</text>
</a>
</g>
</g>
<!-- Node3&#45;&gt;Node4 -->
<g id="edge3" class="edge"><title>Node3&#45;&gt;Node4</title>
<path fill="none" stroke="midnightblue" d="M235,-51.8165C235,-40.9962 235,-27.898 235,-19.5091"/>
<polygon fill="midnightblue" stroke="midnightblue" points="231.5,-51.9751 235,-61.9751 238.5,-51.9751 231.5,-51.9751"/>
</g>
</g>
</svg>
