<?xml version="1.0" encoding="UTF-8" standalone="no"?>
<!DOCTYPE svg PUBLIC "-//W3C//DTD SVG 1.1//EN"
 "http://www.w3.org/Graphics/SVG/1.1/DTD/svg11.dtd">
<!-- Generated by graphviz version 2.49.0 (20210828.1703)
 -->
<!-- Title: C:/Users/folae/Documents/Code/Big&#45;Projects/ScriptWizards/SmallGameLibrary/include/Small/Scenes/ArkScene.hpp Pages: 1 -->
<svg width="373pt" height="228pt"
 viewBox="0.00 0.00 373.00 228.00" xmlns="http://www.w3.org/2000/svg" xmlns:xlink="http://www.w3.org/1999/xlink">
<g id="graph0" class="graph" transform="scale(1 1) rotate(0) translate(4 224)">
<title>C:/Users/folae/Documents/Code/Big&#45;Projects/ScriptWizards/SmallGameLibrary/include/Small/Scenes/ArkScene.hpp</title>
<polygon fill="white" stroke="transparent" points="-4,4 -4,-224 369,-224 369,4 -4,4"/>
<!-- Node1 -->
<g id="node1" class="node">
<title>Node1</title>
<g id="a_node1"><a xlink:title="Define a scene scriptable through ArkScript.">
<polygon fill="#bfbfbf" stroke="black" points="107.5,-167.5 107.5,-219.5 270.5,-219.5 270.5,-167.5 107.5,-167.5"/>
<text text-anchor="start" x="115.5" y="-207.5" font-family="Helvetica,sans-Serif" font-size="10.00">C:/Users/folae/Documents</text>
<text text-anchor="start" x="115.5" y="-196.5" font-family="Helvetica,sans-Serif" font-size="10.00">/Code/Big&#45;Projects/ScriptWizards</text>
<text text-anchor="start" x="115.5" y="-185.5" font-family="Helvetica,sans-Serif" font-size="10.00">/SmallGameLibrary/include/Small</text>
<text text-anchor="middle" x="189" y="-174.5" font-family="Helvetica,sans-Serif" font-size="10.00">/Scenes/ArkScene.hpp</text>
</a>
</g>
</g>
<!-- Node2 -->
<g id="node2" class="node">
<title>Node2</title>
<g id="a_node2"><a xlink:href="../../d0/d00/Scenes_8hpp.html" target="_top" xlink:title="Include all the files from the Scenes folder.">
<polygon fill="white" stroke="black" points="15.5,-78.5 15.5,-130.5 178.5,-130.5 178.5,-78.5 15.5,-78.5"/>
<text text-anchor="start" x="23.5" y="-118.5" font-family="Helvetica,sans-Serif" font-size="10.00">C:/Users/folae/Documents</text>
<text text-anchor="start" x="23.5" y="-107.5" font-family="Helvetica,sans-Serif" font-size="10.00">/Code/Big&#45;Projects/ScriptWizards</text>
<text text-anchor="start" x="23.5" y="-96.5" font-family="Helvetica,sans-Serif" font-size="10.00">/SmallGameLibrary/include/Small</text>
<text text-anchor="middle" x="97" y="-85.5" font-family="Helvetica,sans-Serif" font-size="10.00">/Scenes.hpp</text>
</a>
</g>
</g>
<!-- Node1&#45;&gt;Node2 -->
<g id="edge1" class="edge">
<title>Node1&#45;&gt;Node2</title>
<path fill="none" stroke="midnightblue" d="M155.02,-160.36C144.63,-150.54 133.37,-139.89 123.55,-130.61"/>
<polygon fill="midnightblue" stroke="midnightblue" points="152.72,-163.01 162.39,-167.34 157.53,-157.92 152.72,-163.01"/>
</g>
<!-- Node4 -->
<g id="node4" class="node">
<title>Node4</title>
<g id="a_node4"><a xlink:href="../../d4/dff/ArkScene_8cpp.html" target="_top" xlink:title=" ">
<polygon fill="white" stroke="black" points="197,-78.5 197,-130.5 365,-130.5 365,-78.5 197,-78.5"/>
<text text-anchor="start" x="205" y="-118.5" font-family="Helvetica,sans-Serif" font-size="10.00">C:/Users/folae/Documents</text>
<text text-anchor="start" x="205" y="-107.5" font-family="Helvetica,sans-Serif" font-size="10.00">/Code/Big&#45;Projects/ScriptWizards</text>
<text text-anchor="start" x="205" y="-96.5" font-family="Helvetica,sans-Serif" font-size="10.00">/SmallGameLibrary/source/Scenes</text>
<text text-anchor="middle" x="281" y="-85.5" font-family="Helvetica,sans-Serif" font-size="10.00">/ArkScene.cpp</text>
</a>
</g>
</g>
<!-- Node1&#45;&gt;Node4 -->
<g id="edge3" class="edge">
<title>Node1&#45;&gt;Node4</title>
<path fill="none" stroke="midnightblue" d="M222.98,-160.36C233.37,-150.54 244.63,-139.89 254.45,-130.61"/>
<polygon fill="midnightblue" stroke="midnightblue" points="220.47,-157.92 215.61,-167.34 225.28,-163.01 220.47,-157.92"/>
</g>
<!-- Node3 -->
<g id="node3" class="node">
<title>Node3</title>
<g id="a_node3"><a xlink:href="../../da/d41/All_8hpp.html" target="_top" xlink:title="Include the needed files to start a project using the library.">
<polygon fill="white" stroke="black" points="0,-0.5 0,-41.5 194,-41.5 194,-0.5 0,-0.5"/>
<text text-anchor="start" x="8" y="-29.5" font-family="Helvetica,sans-Serif" font-size="10.00">C:/Users/folae/Documents</text>
<text text-anchor="start" x="8" y="-18.5" font-family="Helvetica,sans-Serif" font-size="10.00">/Code/Big&#45;Projects/ScriptWizards</text>
<text text-anchor="middle" x="97" y="-7.5" font-family="Helvetica,sans-Serif" font-size="10.00">/SmallGameLibrary/include/Small/All.hpp</text>
</a>
</g>
</g>
<!-- Node2&#45;&gt;Node3 -->
<g id="edge2" class="edge">
<title>Node2&#45;&gt;Node3</title>
<path fill="none" stroke="midnightblue" d="M97,-68.15C97,-59.05 97,-49.6 97,-41.63"/>
<polygon fill="midnightblue" stroke="midnightblue" points="93.5,-68.16 97,-78.16 100.5,-68.16 93.5,-68.16"/>
</g>
</g>
</svg>
