<?xml version="1.0" encoding="UTF-8" standalone="no"?>
<!DOCTYPE svg PUBLIC "-//W3C//DTD SVG 1.1//EN"
 "http://www.w3.org/Graphics/SVG/1.1/DTD/svg11.dtd">
<!-- Generated by graphviz version 2.38.0 (20140413.2041)
 -->
<!-- Title: include/Small/System.hpp Pages: 1 -->
<svg width="447pt" height="140pt"
 viewBox="0.00 0.00 446.50 140.00" xmlns="http://www.w3.org/2000/svg" xmlns:xlink="http://www.w3.org/1999/xlink">
<g id="graph0" class="graph" transform="scale(1 1) rotate(0) translate(4 136)">
<title>include/Small/System.hpp</title>
<polygon fill="white" stroke="none" points="-4,4 -4,-136 442.5,-136 442.5,4 -4,4"/>
<!-- Node1 -->
<g id="node1" class="node"><title>Node1</title>
<polygon fill="#bfbfbf" stroke="black" points="125.5,-112.5 125.5,-131.5 256.5,-131.5 256.5,-112.5 125.5,-112.5"/>
<text text-anchor="middle" x="191" y="-119.5" font-family="Helvetica,sans-Serif" font-size="10.00">include/Small/System.hpp</text>
</g>
<!-- Node2 -->
<g id="node2" class="node"><title>Node2</title>
<g id="a_node2"><a xlink:href="../../d5/d40/Platform_8hpp.html" target="_top" xlink:title="Defines to identify the running operating system. ">
<polygon fill="white" stroke="black" points="0,-0.5 0,-19.5 136,-19.5 136,-0.5 0,-0.5"/>
<text text-anchor="middle" x="68" y="-7.5" font-family="Helvetica,sans-Serif" font-size="10.00">Small/System/Platform.hpp</text>
</a>
</g>
</g>
<!-- Node1&#45;&gt;Node2 -->
<g id="edge1" class="edge"><title>Node1&#45;&gt;Node2</title>
<path fill="none" stroke="midnightblue" d="M164.185,-112.448C144.973,-105.222 119.505,-93.2646 102,-76 88.7053,-62.8876 79.4862,-43.4725 74.0353,-29.276"/>
<polygon fill="midnightblue" stroke="midnightblue" points="77.2508,-27.8723 70.5965,-19.6278 70.6571,-30.2225 77.2508,-27.8723"/>
</g>
<!-- Node3 -->
<g id="node3" class="node"><title>Node3</title>
<g id="a_node3"><a xlink:href="../../d4/da5/SharedLibrary_8hpp.html" target="_top" xlink:title="Utility to easily load shared libraries and retrieve their functions. ">
<polygon fill="white" stroke="black" points="111,-56.5 111,-75.5 271,-75.5 271,-56.5 111,-56.5"/>
<text text-anchor="middle" x="191" y="-63.5" font-family="Helvetica,sans-Serif" font-size="10.00">Small/System/SharedLibrary.hpp</text>
</a>
</g>
</g>
<!-- Node1&#45;&gt;Node3 -->
<g id="edge2" class="edge"><title>Node1&#45;&gt;Node3</title>
<path fill="none" stroke="midnightblue" d="M191,-112.083C191,-105.006 191,-94.8611 191,-85.9865"/>
<polygon fill="midnightblue" stroke="midnightblue" points="194.5,-85.751 191,-75.7511 187.5,-85.7511 194.5,-85.751"/>
</g>
<!-- Node7 -->
<g id="node7" class="node"><title>Node7</title>
<g id="a_node7"><a xlink:href="../../d2/dbb/FileSystem_8hpp.html" target="_top" xlink:title="Useful functionalities related to the filesystem. ">
<polygon fill="white" stroke="black" points="289.5,-56.5 289.5,-75.5 438.5,-75.5 438.5,-56.5 289.5,-56.5"/>
<text text-anchor="middle" x="364" y="-63.5" font-family="Helvetica,sans-Serif" font-size="10.00">Small/System/FileSystem.hpp</text>
</a>
</g>
</g>
<!-- Node1&#45;&gt;Node7 -->
<g id="edge7" class="edge"><title>Node1&#45;&gt;Node7</title>
<path fill="none" stroke="midnightblue" d="M218.412,-112.444C247.769,-103.28 294.519,-88.6876 327.096,-78.5192"/>
<polygon fill="midnightblue" stroke="midnightblue" points="328.213,-81.8371 336.716,-75.5164 326.127,-75.1551 328.213,-81.8371"/>
</g>
<!-- Node3&#45;&gt;Node2 -->
<g id="edge3" class="edge"><title>Node3&#45;&gt;Node2</title>
<path fill="none" stroke="midnightblue" d="M171.51,-56.4435C151.358,-47.5961 119.677,-33.6875 96.6692,-23.5865"/>
<polygon fill="midnightblue" stroke="midnightblue" points="97.962,-20.3316 87.3985,-19.5164 95.148,-26.7411 97.962,-20.3316"/>
</g>
<!-- Node4 -->
<g id="node4" class="node"><title>Node4</title>
<polygon fill="white" stroke="#bfbfbf" points="323.5,-0.5 323.5,-19.5 364.5,-19.5 364.5,-0.5 323.5,-0.5"/>
<text text-anchor="middle" x="344" y="-7.5" font-family="Helvetica,sans-Serif" font-size="10.00">string</text>
</g>
<!-- Node3&#45;&gt;Node4 -->
<g id="edge4" class="edge"><title>Node3&#45;&gt;Node4</title>
<path fill="none" stroke="midnightblue" d="M215.243,-56.4435C241.926,-47.0262 284.855,-31.8746 313.728,-21.6842"/>
<polygon fill="midnightblue" stroke="midnightblue" points="315.04,-24.9329 323.305,-18.3042 312.71,-18.332 315.04,-24.9329"/>
</g>
<!-- Node5 -->
<g id="node5" class="node"><title>Node5</title>
<polygon fill="white" stroke="#bfbfbf" points="154,-0.5 154,-19.5 228,-19.5 228,-0.5 154,-0.5"/>
<text text-anchor="middle" x="191" y="-7.5" font-family="Helvetica,sans-Serif" font-size="10.00">system_error</text>
</g>
<!-- Node3&#45;&gt;Node5 -->
<g id="edge5" class="edge"><title>Node3&#45;&gt;Node5</title>
<path fill="none" stroke="midnightblue" d="M191,-56.083C191,-49.0059 191,-38.8611 191,-29.9865"/>
<polygon fill="midnightblue" stroke="midnightblue" points="194.5,-29.751 191,-19.7511 187.5,-29.7511 194.5,-29.751"/>
</g>
<!-- Node6 -->
<g id="node6" class="node"><title>Node6</title>
<polygon fill="white" stroke="#bfbfbf" points="246.5,-0.5 246.5,-19.5 305.5,-19.5 305.5,-0.5 246.5,-0.5"/>
<text text-anchor="middle" x="276" y="-7.5" font-family="Helvetica,sans-Serif" font-size="10.00">exception</text>
</g>
<!-- Node3&#45;&gt;Node6 -->
<g id="edge6" class="edge"><title>Node3&#45;&gt;Node6</title>
<path fill="none" stroke="midnightblue" d="M204.657,-56.324C217.916,-47.9002 238.268,-34.9709 253.846,-25.0741"/>
<polygon fill="midnightblue" stroke="midnightblue" points="255.813,-27.9711 262.377,-19.6545 252.06,-22.0626 255.813,-27.9711"/>
</g>
<!-- Node7&#45;&gt;Node4 -->
<g id="edge8" class="edge"><title>Node7&#45;&gt;Node4</title>
<path fill="none" stroke="midnightblue" d="M360.697,-56.083C358.018,-48.8486 354.151,-38.4087 350.814,-29.3968"/>
<polygon fill="midnightblue" stroke="midnightblue" points="353.996,-27.9129 347.241,-19.7511 347.432,-30.3442 353.996,-27.9129"/>
</g>
<!-- Node8 -->
<g id="node8" class="node"><title>Node8</title>
<polygon fill="white" stroke="#bfbfbf" points="383,-0.5 383,-19.5 425,-19.5 425,-0.5 383,-0.5"/>
<text text-anchor="middle" x="404" y="-7.5" font-family="Helvetica,sans-Serif" font-size="10.00">vector</text>
</g>
<!-- Node7&#45;&gt;Node8 -->
<g id="edge9" class="edge"><title>Node7&#45;&gt;Node8</title>
<path fill="none" stroke="midnightblue" d="M370.605,-56.083C376.255,-48.4554 384.545,-37.2645 391.451,-27.9408"/>
<polygon fill="midnightblue" stroke="midnightblue" points="394.378,-29.87 397.518,-19.7511 388.753,-25.7034 394.378,-29.87"/>
</g>
</g>
</svg>
