<?xml version="1.0" encoding="UTF-8" standalone="no"?>
<!DOCTYPE svg PUBLIC "-//W3C//DTD SVG 1.1//EN"
 "http://www.w3.org/Graphics/SVG/1.1/DTD/svg11.dtd">
<!-- Generated by graphviz version 2.49.0 (20210828.1703)
 -->
<!-- Title: sgl::Scene Pages: 1 -->
<svg width="238pt" height="140pt"
 viewBox="0.00 0.00 238.00 140.00" xmlns="http://www.w3.org/2000/svg" xmlns:xlink="http://www.w3.org/1999/xlink">
<g id="graph0" class="graph" transform="scale(1 1) rotate(0) translate(4 136)">
<title>sgl::Scene</title>
<polygon fill="white" stroke="transparent" points="-4,4 -4,-136 234,-136 234,4 -4,4"/>
<!-- Node1 -->
<g id="node1" class="node">
<title>Node1</title>
<g id="a_node1"><a xlink:title="Base class which every user scene must derive from.">
<polygon fill="#bfbfbf" stroke="black" points="89,-56.5 89,-75.5 152,-75.5 152,-56.5 89,-56.5"/>
<text text-anchor="middle" x="120.5" y="-63.5" font-family="Helvetica,sans-Serif" font-size="10.00">sgl::Scene</text>
</a>
</g>
</g>
<!-- Node3 -->
<g id="node3" class="node">
<title>Node3</title>
<g id="a_node3"><a xlink:href="../../dc/d24/classsgl_1_1Scenes_1_1ArkScene.html" target="_top" xlink:title="Define a scene scriptable through ArkScript.">
<polygon fill="white" stroke="black" points="0,-0.5 0,-19.5 117,-19.5 117,-0.5 0,-0.5"/>
<text text-anchor="middle" x="58.5" y="-7.5" font-family="Helvetica,sans-Serif" font-size="10.00">sgl::Scenes::ArkScene</text>
</a>
</g>
</g>
<!-- Node1&#45;&gt;Node3 -->
<g id="edge2" class="edge">
<title>Node1&#45;&gt;Node3</title>
<path fill="none" stroke="midnightblue" d="M102.75,-49.54C91.69,-39.91 77.87,-27.87 68.64,-19.83"/>
<polygon fill="midnightblue" stroke="midnightblue" points="100.7,-52.4 110.54,-56.32 105.3,-47.12 100.7,-52.4"/>
</g>
<!-- Node4 -->
<g id="node4" class="node">
<title>Node4</title>
<g id="a_node4"><a xlink:href="../../d7/d29/classsgl_1_1Scenes_1_1Zone.html" target="_top" xlink:title="A scene handling zones and transitions on a tilemap.">
<polygon fill="white" stroke="black" points="135,-0.5 135,-19.5 230,-19.5 230,-0.5 135,-0.5"/>
<text text-anchor="middle" x="182.5" y="-7.5" font-family="Helvetica,sans-Serif" font-size="10.00">sgl::Scenes::Zone</text>
</a>
</g>
</g>
<!-- Node1&#45;&gt;Node4 -->
<g id="edge3" class="edge">
<title>Node1&#45;&gt;Node4</title>
<path fill="none" stroke="midnightblue" d="M138.25,-49.54C149.31,-39.91 163.13,-27.87 172.36,-19.83"/>
<polygon fill="midnightblue" stroke="midnightblue" points="135.7,-47.12 130.46,-56.32 140.3,-52.4 135.7,-47.12"/>
</g>
<!-- Node2 -->
<g id="node2" class="node">
<title>Node2</title>
<g id="a_node2"><a xlink:href="../../dc/dee/classsgl_1_1Graphics_1_1Node.html" target="_top" xlink:title="Abstract base class for a scene graph node.">
<polygon fill="white" stroke="black" points="69,-112.5 69,-131.5 172,-131.5 172,-112.5 69,-112.5"/>
<text text-anchor="middle" x="120.5" y="-119.5" font-family="Helvetica,sans-Serif" font-size="10.00">sgl::Graphics::Node</text>
</a>
</g>
</g>
<!-- Node2&#45;&gt;Node1 -->
<g id="edge1" class="edge">
<title>Node2&#45;&gt;Node1</title>
<path fill="none" stroke="midnightblue" d="M120.5,-101.8C120.5,-92.91 120.5,-82.78 120.5,-75.75"/>
<polygon fill="midnightblue" stroke="midnightblue" points="117,-102.08 120.5,-112.08 124,-102.08 117,-102.08"/>
</g>
</g>
</svg>
