<?xml version="1.0" encoding="UTF-8" standalone="no"?>
<!DOCTYPE svg PUBLIC "-//W3C//DTD SVG 1.1//EN"
 "http://www.w3.org/Graphics/SVG/1.1/DTD/svg11.dtd">
<!-- Generated by graphviz version 2.38.0 (20140413.2041)
 -->
<!-- Title: include/Small/Core.hpp Pages: 1 -->
<!--zoomable 308 -->
<svg id="main" version="1.1" xmlns="http://www.w3.org/2000/svg" xmlns:xlink="http://www.w3.org/1999/xlink" xml:space="preserve" onload="init(evt)">
<style type="text/css"><![CDATA[
.edge:hover path { stroke: red; }
.edge:hover polygon { stroke: red; fill: red; }
]]></style>
<script type="text/javascript"><![CDATA[
var edges = document.getElementsByTagName('g');
if (edges && edges.length) {
  for (var i=0;i<edges.length;i++) {
    if (edges[i].id.substr(0,4)=='edge') {
      edges[i].setAttribute('class','edge');
    }
  }
}
]]></script>
        <defs>
                <circle id="rim" cx="0" cy="0" r="7"/>
                <circle id="rim2" cx="0" cy="0" r="3.5"/>
                <g id="zoomPlus">
                        <use xlink:href="#rim" fill="#404040">
                                <set attributeName="fill" to="#808080" begin="zoomplus.mouseover" end="zoomplus.mouseout"/>
                        </use>
                        <path d="M-4,0h8M0,-4v8" fill="none" stroke="white" stroke-width="1.5" pointer-events="none"/>
                </g>
                <g id="zoomMin">
                        <use xlink:href="#rim" fill="#404040">
                                <set attributeName="fill" to="#808080" begin="zoomminus.mouseover" end="zoomminus.mouseout"/>
                        </use>
                        <path d="M-4,0h8" fill="none" stroke="white" stroke-width="1.5" pointer-events="none"/>
                </g>
                <g id="dirArrow">
                        <path fill="none" stroke="white" stroke-width="1.5" d="M0,-3.0v7 M-2.5,-0.5L0,-3.0L2.5,-0.5"/>
                </g>
               <g id="resetDef">
                       <use xlink:href="#rim2" fill="#404040">
                               <set attributeName="fill" to="#808080" begin="reset.mouseover" end="reset.mouseout"/>
                       </use>
               </g>
        </defs>

<script type="text/javascript">
var viewWidth = 1636;
var viewHeight = 308;
var sectionId = 'dynsection-0';
</script>
<script xlink:href="../../svgpan.js"/>
<svg id="graph" class="graph">
<g id="viewport">
<title>include/Small/Core.hpp</title>
<polygon fill="white" stroke="none" points="-4,4 -4,-304 1631.5,-304 1631.5,4 -4,4"/>
<!-- Node1 -->
<g id="node1" class="node"><title>Node1</title>
<polygon fill="#bfbfbf" stroke="black" points="1123.5,-280.5 1123.5,-299.5 1240.5,-299.5 1240.5,-280.5 1123.5,-280.5"/>
<text text-anchor="middle" x="1182" y="-287.5" font-family="Helvetica,sans-Serif" font-size="10.00">include/Small/Core.hpp</text>
</g>
<!-- Node2 -->
<g id="node2" class="node"><title>Node2</title>
<g id="a_node2"><a xlink:href="../../df/d3c/Application_8hpp.html" target="_top" xlink:title="Define the application hosting the scenes for the game. ">
<polygon fill="white" stroke="black" points="774,-224.5 774,-243.5 908,-243.5 908,-224.5 774,-224.5"/>
<text text-anchor="middle" x="841" y="-231.5" font-family="Helvetica,sans-Serif" font-size="10.00">Small/Core/Application.hpp</text>
</a>
</g>
</g>
<!-- Node1&#45;&gt;Node2 -->
<g id="edge1" class="edge"><title>Node1&#45;&gt;Node2</title>
<path fill="none" stroke="midnightblue" d="M1127.97,-280.444C1067.36,-270.846 969.138,-255.292 904.803,-245.104"/>
<polygon fill="midnightblue" stroke="midnightblue" points="905.204,-241.624 894.78,-243.516 904.109,-248.538 905.204,-241.624"/>
</g>
<!-- Node10 -->
<g id="node10" class="node"><title>Node10</title>
<g id="a_node10"><a xlink:href="../../df/d74/SceneManager_8hpp.html" target="_top" xlink:title="Define the scene manager (creating, handling and destroying them) ">
<polygon fill="white" stroke="black" points="1210,-168.5 1210,-187.5 1362,-187.5 1362,-168.5 1210,-168.5"/>
<text text-anchor="middle" x="1286" y="-175.5" font-family="Helvetica,sans-Serif" font-size="10.00">Small/Core/SceneManager.hpp</text>
</a>
</g>
</g>
<!-- Node1&#45;&gt;Node10 -->
<g id="edge44" class="edge"><title>Node1&#45;&gt;Node10</title>
<path fill="none" stroke="midnightblue" d="M1190.16,-280.368C1207.55,-261.974 1248.49,-218.671 1270.82,-195.052"/>
<polygon fill="midnightblue" stroke="midnightblue" points="1273.55,-197.262 1277.88,-187.591 1268.46,-192.453 1273.55,-197.262"/>
</g>
<!-- Node13 -->
<g id="node13" class="node"><title>Node13</title>
<g id="a_node13"><a xlink:href="../../db/de8/Scene_8hpp.html" target="_top" xlink:title="The base scene class and the scene states are defined here. ">
<polygon fill="white" stroke="black" points="964,-112.5 964,-131.5 1078,-131.5 1078,-112.5 964,-112.5"/>
<text text-anchor="middle" x="1021" y="-119.5" font-family="Helvetica,sans-Serif" font-size="10.00">Small/Core/Scene.hpp</text>
</a>
</g>
</g>
<!-- Node1&#45;&gt;Node13 -->
<g id="edge45" class="edge"><title>Node1&#45;&gt;Node13</title>
<path fill="none" stroke="midnightblue" d="M1173.34,-280.075C1147.34,-253.267 1069.68,-173.19 1036.41,-138.885"/>
<polygon fill="midnightblue" stroke="midnightblue" points="1038.78,-136.31 1029.31,-131.568 1033.76,-141.183 1038.78,-136.31"/>
</g>
<!-- Node3 -->
<g id="node3" class="node"><title>Node3</title>
<polygon fill="white" stroke="#bfbfbf" points="1209,-56.5 1209,-75.5 1313,-75.5 1313,-56.5 1209,-56.5"/>
<text text-anchor="middle" x="1261" y="-63.5" font-family="Helvetica,sans-Serif" font-size="10.00">SFML/Graphics.hpp</text>
</g>
<!-- Node2&#45;&gt;Node3 -->
<g id="edge2" class="edge"><title>Node2&#45;&gt;Node3</title>
<path fill="none" stroke="midnightblue" d="M908.125,-226.147C948.305,-220.075 999.466,-208.787 1041,-188 1087.51,-164.72 1084.83,-137.792 1130,-112 1156.46,-96.8939 1188.81,-85.7188 1214.74,-78.2833"/>
<polygon fill="midnightblue" stroke="midnightblue" points="1216,-81.5661 1224.7,-75.5195 1214.13,-74.821 1216,-81.5661"/>
</g>
<!-- Node4 -->
<g id="node4" class="node"><title>Node4</title>
<polygon fill="white" stroke="#bfbfbf" points="655,-56.5 655,-75.5 781,-75.5 781,-56.5 655,-56.5"/>
<text text-anchor="middle" x="718" y="-63.5" font-family="Helvetica,sans-Serif" font-size="10.00">SFML/Window/Event.hpp</text>
</g>
<!-- Node2&#45;&gt;Node4 -->
<g id="edge3" class="edge"><title>Node2&#45;&gt;Node4</title>
<path fill="none" stroke="midnightblue" d="M836.527,-224.299C829.839,-211.551 816.562,-187.227 803,-168 780.676,-136.351 750.786,-102.474 733.046,-83.1026"/>
<polygon fill="midnightblue" stroke="midnightblue" points="735.389,-80.4809 726.033,-75.5097 730.247,-85.2305 735.389,-80.4809"/>
</g>
<!-- Node5 -->
<g id="node5" class="node"><title>Node5</title>
<polygon fill="white" stroke="#bfbfbf" points="1331,-56.5 1331,-75.5 1457,-75.5 1457,-56.5 1331,-56.5"/>
<text text-anchor="middle" x="1394" y="-63.5" font-family="Helvetica,sans-Serif" font-size="10.00">SFML/System/Clock.hpp</text>
</g>
<!-- Node2&#45;&gt;Node5 -->
<g id="edge4" class="edge"><title>Node2&#45;&gt;Node5</title>
<path fill="none" stroke="midnightblue" d="M899.323,-224.465C945.807,-216.954 1012.28,-204.619 1069,-188 1157.47,-162.08 1175.46,-143.771 1262,-112 1294.25,-100.162 1331.29,-87.6239 1357.92,-78.7978"/>
<polygon fill="midnightblue" stroke="midnightblue" points="1359.18,-82.0664 1367.58,-75.606 1356.98,-75.4197 1359.18,-82.0664"/>
</g>
<!-- Node6 -->
<g id="node6" class="node"><title>Node6</title>
<polygon fill="white" stroke="#bfbfbf" points="844.5,-0.5 844.5,-19.5 885.5,-19.5 885.5,-0.5 844.5,-0.5"/>
<text text-anchor="middle" x="865" y="-7.5" font-family="Helvetica,sans-Serif" font-size="10.00">string</text>
</g>
<!-- Node2&#45;&gt;Node6 -->
<g id="edge5" class="edge"><title>Node2&#45;&gt;Node6</title>
<path fill="none" stroke="midnightblue" d="M787.938,-224.428C761.591,-217.992 730.64,-206.905 708,-188 658.249,-146.456 605.04,-106.233 646,-56 669.399,-27.3045 779.551,-16.3869 834.157,-12.6865"/>
<polygon fill="midnightblue" stroke="midnightblue" points="834.539,-16.1694 844.295,-12.0395 834.093,-9.18358 834.539,-16.1694"/>
</g>
<!-- Node7 -->
<g id="node7" class="node"><title>Node7</title>
<polygon fill="white" stroke="#bfbfbf" points="888,-168.5 888,-187.5 936,-187.5 936,-168.5 888,-168.5"/>
<text text-anchor="middle" x="912" y="-175.5" font-family="Helvetica,sans-Serif" font-size="10.00">imgui.h</text>
</g>
<!-- Node2&#45;&gt;Node7 -->
<g id="edge6" class="edge"><title>Node2&#45;&gt;Node7</title>
<path fill="none" stroke="midnightblue" d="M852.407,-224.324C863.109,-216.185 879.341,-203.839 892.163,-194.087"/>
<polygon fill="midnightblue" stroke="midnightblue" points="894.544,-196.673 900.385,-187.834 890.307,-191.102 894.544,-196.673"/>
</g>
<!-- Node8 -->
<g id="node8" class="node"><title>Node8</title>
<polygon fill="white" stroke="#bfbfbf" points="954.5,-168.5 954.5,-187.5 1031.5,-187.5 1031.5,-168.5 954.5,-168.5"/>
<text text-anchor="middle" x="993" y="-175.5" font-family="Helvetica,sans-Serif" font-size="10.00">imgui&#45;SFML.h</text>
</g>
<!-- Node2&#45;&gt;Node8 -->
<g id="edge7" class="edge"><title>Node2&#45;&gt;Node8</title>
<path fill="none" stroke="midnightblue" d="M865.085,-224.444C890.545,-215.399 930.894,-201.064 959.459,-190.916"/>
<polygon fill="midnightblue" stroke="midnightblue" points="960.777,-194.162 969.028,-187.516 958.433,-187.566 960.777,-194.162"/>
</g>
<!-- Node9 -->
<g id="node9" class="node"><title>Node9</title>
<polygon fill="white" stroke="#bfbfbf" points="10.5,-168.5 10.5,-187.5 111.5,-187.5 111.5,-168.5 10.5,-168.5"/>
<text text-anchor="middle" x="61" y="-175.5" font-family="Helvetica,sans-Serif" font-size="10.00">SFML/OpenGL.hpp</text>
</g>
<!-- Node2&#45;&gt;Node9 -->
<g id="edge8" class="edge"><title>Node2&#45;&gt;Node9</title>
<path fill="none" stroke="midnightblue" d="M773.835,-230.742C648.051,-226.09 368.226,-213.736 121.922,-187.998"/>
<polygon fill="midnightblue" stroke="midnightblue" points="122.011,-184.488 111.699,-186.92 121.277,-191.449 122.011,-184.488"/>
</g>
<!-- Node2&#45;&gt;Node10 -->
<g id="edge9" class="edge"><title>Node2&#45;&gt;Node10</title>
<path fill="none" stroke="midnightblue" d="M908.103,-224.857C987.781,-215.188 1120.56,-199.076 1205.64,-188.751"/>
<polygon fill="midnightblue" stroke="midnightblue" points="1206.27,-192.201 1215.78,-187.522 1205.43,-185.252 1206.27,-192.201"/>
</g>
<!-- Node14 -->
<g id="node14" class="node"><title>Node14</title>
<g id="a_node14"><a xlink:href="../../df/db4/Config_8hpp.html" target="_top" xlink:title="Small/Scripting/Config.hpp">
<polygon fill="white" stroke="black" points="799.5,-56.5 799.5,-75.5 930.5,-75.5 930.5,-56.5 799.5,-56.5"/>
<text text-anchor="middle" x="865" y="-63.5" font-family="Helvetica,sans-Serif" font-size="10.00">Small/Scripting/Config.hpp</text>
</a>
</g>
</g>
<!-- Node2&#45;&gt;Node14 -->
<g id="edge37" class="edge"><title>Node2&#45;&gt;Node14</title>
<path fill="none" stroke="midnightblue" d="M842.29,-224.075C846.068,-197.945 857.162,-121.211 862.314,-85.577"/>
<polygon fill="midnightblue" stroke="midnightblue" points="865.794,-85.9661 863.761,-75.5681 858.866,-84.9644 865.794,-85.9661"/>
</g>
<!-- Node21 -->
<g id="node21" class="node"><title>Node21</title>
<g id="a_node21"><a xlink:href="../../dc/dbc/Profiler_8hpp.html" target="_top" xlink:title="Profiler from https://github.com/bwrsandman/imgui&#45;flame&#45;graph/ (example/main.cpp), updated for the project needs. ">
<polygon fill="white" stroke="black" points="130,-168.5 130,-187.5 254,-187.5 254,-168.5 130,-168.5"/>
<text text-anchor="middle" x="192" y="-175.5" font-family="Helvetica,sans-Serif" font-size="10.00">Small/Debug/Profiler.hpp</text>
</a>
</g>
</g>
<!-- Node2&#45;&gt;Node21 -->
<g id="edge32" class="edge"><title>Node2&#45;&gt;Node21</title>
<path fill="none" stroke="midnightblue" d="M773.99,-227.424C651.171,-217.205 391.005,-195.558 264.334,-185.019"/>
<polygon fill="midnightblue" stroke="midnightblue" points="264.597,-181.528 254.342,-184.187 264.017,-188.504 264.597,-181.528"/>
</g>
<!-- Node25 -->
<g id="node25" class="node"><title>Node25</title>
<polygon fill="white" stroke="#bfbfbf" points="282,-112.5 282,-131.5 350,-131.5 350,-112.5 282,-112.5"/>
<text text-anchor="middle" x="316" y="-119.5" font-family="Helvetica,sans-Serif" font-size="10.00">Ark/Ark.hpp</text>
</g>
<!-- Node2&#45;&gt;Node25 -->
<g id="edge36" class="edge"><title>Node2&#45;&gt;Node25</title>
<path fill="none" stroke="midnightblue" d="M773.884,-230.093C699.71,-225.652 577.212,-214.666 475,-188 426.309,-175.297 372.727,-151.1 341.856,-136.08"/>
<polygon fill="midnightblue" stroke="midnightblue" points="343.183,-132.833 332.666,-131.553 340.089,-139.112 343.183,-132.833"/>
</g>
<!-- Node26 -->
<g id="node26" class="node"><title>Node26</title>
<g id="a_node26"><a xlink:href="../../d8/d82/SFMLtoArk_8hpp.html" target="_top" xlink:title="Convert SFML values to ArkScript values. ">
<polygon fill="white" stroke="black" points="484,-168.5 484,-187.5 638,-187.5 638,-168.5 484,-168.5"/>
<text text-anchor="middle" x="561" y="-175.5" font-family="Helvetica,sans-Serif" font-size="10.00">Small/Scripting/SFMLtoArk.hpp</text>
</a>
</g>
</g>
<!-- Node2&#45;&gt;Node26 -->
<g id="edge38" class="edge"><title>Node2&#45;&gt;Node26</title>
<path fill="none" stroke="midnightblue" d="M796.633,-224.444C747.378,-214.944 667.872,-199.611 615.029,-189.42"/>
<polygon fill="midnightblue" stroke="midnightblue" points="615.641,-185.974 605.159,-187.516 614.316,-192.847 615.641,-185.974"/>
</g>
<!-- Node29 -->
<g id="node29" class="node"><title>Node29</title>
<polygon fill="white" stroke="#bfbfbf" points="716.5,-168.5 716.5,-187.5 793.5,-187.5 793.5,-168.5 716.5,-168.5"/>
<text text-anchor="middle" x="755" y="-175.5" font-family="Helvetica,sans-Serif" font-size="10.00">Application.inl</text>
</g>
<!-- Node2&#45;&gt;Node29 -->
<g id="edge43" class="edge"><title>Node2&#45;&gt;Node29</title>
<path fill="none" stroke="midnightblue" d="M827.183,-224.324C813.767,-215.9 793.176,-202.971 777.414,-193.074"/>
<polygon fill="midnightblue" stroke="midnightblue" points="779.113,-190.008 768.783,-187.655 775.391,-195.936 779.113,-190.008"/>
</g>
<!-- Node10&#45;&gt;Node3 -->
<g id="edge12" class="edge"><title>Node10&#45;&gt;Node3</title>
<path fill="none" stroke="midnightblue" d="M1279.68,-168.22C1273.82,-159.512 1265.5,-145.545 1262,-132 1258.07,-116.787 1258.12,-98.8966 1258.98,-85.7406"/>
<polygon fill="midnightblue" stroke="midnightblue" points="1262.49,-85.8507 1259.87,-75.584 1255.51,-85.2416 1262.49,-85.8507"/>
</g>
<!-- Node10&#45;&gt;Node4 -->
<g id="edge14" class="edge"><title>Node10&#45;&gt;Node4</title>
<path fill="none" stroke="midnightblue" d="M1209.79,-172.119C1134.46,-166.269 1016.27,-154.329 916,-132 855.541,-118.536 787.394,-94.0104 748.882,-79.2394"/>
<polygon fill="midnightblue" stroke="midnightblue" points="749.883,-75.8739 739.293,-75.528 747.356,-82.4019 749.883,-75.8739"/>
</g>
<!-- Node10&#45;&gt;Node5 -->
<g id="edge13" class="edge"><title>Node10&#45;&gt;Node5</title>
<path fill="none" stroke="midnightblue" d="M1316.84,-168.391C1336.13,-161.506 1360.06,-149.975 1375,-132 1385.91,-118.874 1390.56,-99.7291 1392.54,-85.6148"/>
<polygon fill="midnightblue" stroke="midnightblue" points="1396.02,-85.9029 1393.62,-75.585 1389.07,-85.1515 1396.02,-85.9029"/>
</g>
<!-- Node11 -->
<g id="node11" class="node"><title>Node11</title>
<polygon fill="white" stroke="#bfbfbf" points="1326,-0.5 1326,-19.5 1368,-19.5 1368,-0.5 1326,-0.5"/>
<text text-anchor="middle" x="1347" y="-7.5" font-family="Helvetica,sans-Serif" font-size="10.00">vector</text>
</g>
<!-- Node10&#45;&gt;Node11 -->
<g id="edge10" class="edge"><title>Node10&#45;&gt;Node11</title>
<path fill="none" stroke="midnightblue" d="M1326.21,-168.465C1370.71,-156.518 1439.63,-129.918 1466,-76 1469.91,-68.015 1471.05,-63.313 1466,-56 1455.69,-41.0787 1409.64,-26.7826 1377.94,-18.4503"/>
<polygon fill="midnightblue" stroke="midnightblue" points="1378.77,-15.0507 1368.22,-15.9613 1377.04,-21.832 1378.77,-15.0507"/>
</g>
<!-- Node12 -->
<g id="node12" class="node"><title>Node12</title>
<polygon fill="white" stroke="#bfbfbf" points="1401,-0.5 1401,-19.5 1453,-19.5 1453,-0.5 1401,-0.5"/>
<text text-anchor="middle" x="1427" y="-7.5" font-family="Helvetica,sans-Serif" font-size="10.00">memory</text>
</g>
<!-- Node10&#45;&gt;Node12 -->
<g id="edge11" class="edge"><title>Node10&#45;&gt;Node12</title>
<path fill="none" stroke="midnightblue" d="M1347.79,-168.482C1377.68,-162.093 1412.86,-151.031 1440,-132 1471.42,-109.965 1497.28,-90.7561 1481,-56 1474.96,-43.0941 1463.19,-32.5985 1452.18,-24.9999"/>
<polygon fill="midnightblue" stroke="midnightblue" points="1453.94,-21.9748 1443.63,-19.5364 1450.17,-27.8723 1453.94,-21.9748"/>
</g>
<!-- Node10&#45;&gt;Node13 -->
<g id="edge15" class="edge"><title>Node10&#45;&gt;Node13</title>
<path fill="none" stroke="midnightblue" d="M1244.01,-168.444C1197.59,-158.984 1122.77,-143.738 1072.76,-133.547"/>
<polygon fill="midnightblue" stroke="midnightblue" points="1073.29,-130.084 1062.79,-131.516 1071.89,-136.943 1073.29,-130.084"/>
</g>
<!-- Node10&#45;&gt;Node14 -->
<g id="edge29" class="edge"><title>Node10&#45;&gt;Node14</title>
<path fill="none" stroke="midnightblue" d="M1209.73,-177.05C1140.87,-174.703 1037.93,-165.152 955,-132 926.393,-120.564 898.422,-98.0679 881.446,-82.7819"/>
<polygon fill="midnightblue" stroke="midnightblue" points="883.76,-80.1546 874.041,-75.9371 879.008,-85.2951 883.76,-80.1546"/>
</g>
<!-- Node17 -->
<g id="node17" class="node"><title>Node17</title>
<polygon fill="white" stroke="#bfbfbf" points="1478.5,-0.5 1478.5,-19.5 1627.5,-19.5 1627.5,-0.5 1478.5,-0.5"/>
<text text-anchor="middle" x="1553" y="-7.5" font-family="Helvetica,sans-Serif" font-size="10.00">SFML/Graphics/Transform.hpp</text>
</g>
<!-- Node10&#45;&gt;Node17 -->
<g id="edge30" class="edge"><title>Node10&#45;&gt;Node17</title>
<path fill="none" stroke="midnightblue" d="M1362.21,-169.935C1396.25,-163.896 1435.48,-152.71 1466,-132 1504.94,-105.58 1532.46,-55.6338 1545.13,-28.9201"/>
<polygon fill="midnightblue" stroke="midnightblue" points="1548.41,-30.169 1549.39,-19.6194 1542.04,-27.2569 1548.41,-30.169"/>
</g>
<!-- Node20 -->
<g id="node20" class="node"><title>Node20</title>
<polygon fill="white" stroke="#bfbfbf" points="1270.5,-112.5 1270.5,-131.5 1365.5,-131.5 1365.5,-112.5 1270.5,-112.5"/>
<text text-anchor="middle" x="1318" y="-119.5" font-family="Helvetica,sans-Serif" font-size="10.00">SceneManager.inl</text>
</g>
<!-- Node10&#45;&gt;Node20 -->
<g id="edge31" class="edge"><title>Node10&#45;&gt;Node20</title>
<path fill="none" stroke="midnightblue" d="M1291.28,-168.083C1295.71,-160.613 1302.16,-149.724 1307.62,-140.52"/>
<polygon fill="midnightblue" stroke="midnightblue" points="1310.73,-142.138 1312.81,-131.751 1304.71,-138.57 1310.73,-142.138"/>
</g>
<!-- Node13&#45;&gt;Node3 -->
<g id="edge16" class="edge"><title>Node13&#45;&gt;Node3</title>
<path fill="none" stroke="midnightblue" d="M1059.03,-112.444C1100.81,-103.043 1167.98,-87.9291 1213.27,-77.7393"/>
<polygon fill="midnightblue" stroke="midnightblue" points="1214.16,-81.1263 1223.15,-75.5164 1212.62,-74.297 1214.16,-81.1263"/>
</g>
<!-- Node13&#45;&gt;Node4 -->
<g id="edge18" class="edge"><title>Node13&#45;&gt;Node4</title>
<path fill="none" stroke="midnightblue" d="M972.989,-112.444C919.466,-102.905 832.935,-87.4834 775.755,-77.293"/>
<polygon fill="midnightblue" stroke="midnightblue" points="776.246,-73.8253 765.787,-75.5164 775.017,-80.7168 776.246,-73.8253"/>
</g>
<!-- Node13&#45;&gt;Node5 -->
<g id="edge17" class="edge"><title>Node13&#45;&gt;Node5</title>
<path fill="none" stroke="midnightblue" d="M1078.06,-112.74C1144.39,-103.137 1253.82,-87.2944 1324.9,-77.0034"/>
<polygon fill="midnightblue" stroke="midnightblue" points="1325.71,-80.4235 1335.1,-75.5268 1324.7,-73.4958 1325.71,-80.4235"/>
</g>
<!-- Node13&#45;&gt;Node6 -->
<g id="edge19" class="edge"><title>Node13&#45;&gt;Node6</title>
<path fill="none" stroke="midnightblue" d="M1010.86,-112.119C995.858,-99.1479 966.633,-74.548 940,-56 923.748,-44.6812 904.588,-33.2149 889.701,-24.6896"/>
<polygon fill="midnightblue" stroke="midnightblue" points="891.037,-21.4235 880.61,-19.543 887.588,-27.5151 891.037,-21.4235"/>
</g>
<!-- Node13&#45;&gt;Node14 -->
<g id="edge20" class="edge"><title>Node13&#45;&gt;Node14</title>
<path fill="none" stroke="midnightblue" d="M996.281,-112.444C970.152,-103.399 928.741,-89.064 899.424,-78.9158"/>
<polygon fill="midnightblue" stroke="midnightblue" points="900.198,-75.4801 889.603,-75.5164 897.908,-82.0951 900.198,-75.4801"/>
</g>
<!-- Node15 -->
<g id="node15" class="node"><title>Node15</title>
<g id="a_node15"><a xlink:href="../../d7/dc6/Node_8hpp.html" target="_top" xlink:title="A scene graph node. ">
<polygon fill="white" stroke="black" points="1063,-56.5 1063,-75.5 1191,-75.5 1191,-56.5 1063,-56.5"/>
<text text-anchor="middle" x="1127" y="-63.5" font-family="Helvetica,sans-Serif" font-size="10.00">Small/Graphics/Node.hpp</text>
</a>
</g>
</g>
<!-- Node13&#45;&gt;Node15 -->
<g id="edge22" class="edge"><title>Node13&#45;&gt;Node15</title>
<path fill="none" stroke="midnightblue" d="M1038.03,-112.324C1055.03,-103.664 1081.38,-90.2424 1100.99,-80.249"/>
<polygon fill="midnightblue" stroke="midnightblue" points="1102.69,-83.3125 1110.01,-75.6545 1099.51,-77.0752 1102.69,-83.3125"/>
</g>
<!-- Node19 -->
<g id="node19" class="node"><title>Node19</title>
<polygon fill="white" stroke="#bfbfbf" points="987.5,-56.5 987.5,-75.5 1044.5,-75.5 1044.5,-56.5 987.5,-56.5"/>
<text text-anchor="middle" x="1016" y="-63.5" font-family="Helvetica,sans-Serif" font-size="10.00">Scene.inl</text>
</g>
<!-- Node13&#45;&gt;Node19 -->
<g id="edge28" class="edge"><title>Node13&#45;&gt;Node19</title>
<path fill="none" stroke="midnightblue" d="M1020.17,-112.083C1019.52,-105.006 1018.58,-94.8611 1017.76,-85.9865"/>
<polygon fill="midnightblue" stroke="midnightblue" points="1021.22,-85.3858 1016.81,-75.7511 1014.25,-86.0312 1021.22,-85.3858"/>
</g>
<!-- Node14&#45;&gt;Node6 -->
<g id="edge21" class="edge"><title>Node14&#45;&gt;Node6</title>
<path fill="none" stroke="midnightblue" d="M865,-56.083C865,-49.0059 865,-38.8611 865,-29.9865"/>
<polygon fill="midnightblue" stroke="midnightblue" points="868.5,-29.751 865,-19.7511 861.5,-29.7511 868.5,-29.751"/>
</g>
<!-- Node15&#45;&gt;Node11 -->
<g id="edge26" class="edge"><title>Node15&#45;&gt;Node11</title>
<path fill="none" stroke="midnightblue" d="M1161.86,-56.4435C1204.33,-46.0202 1275.41,-28.5722 1316.03,-18.6014"/>
<polygon fill="midnightblue" stroke="midnightblue" points="1317.03,-21.9601 1325.91,-16.1772 1315.36,-15.1619 1317.03,-21.9601"/>
</g>
<!-- Node15&#45;&gt;Node12 -->
<g id="edge27" class="edge"><title>Node15&#45;&gt;Node12</title>
<path fill="none" stroke="midnightblue" d="M1174.54,-56.4435C1234.6,-45.6313 1336.67,-27.2603 1390.79,-17.5173"/>
<polygon fill="midnightblue" stroke="midnightblue" points="1391.42,-20.9616 1400.64,-15.7454 1390.17,-14.0723 1391.42,-20.9616"/>
</g>
<!-- Node16 -->
<g id="node16" class="node"><title>Node16</title>
<polygon fill="white" stroke="#bfbfbf" points="1115,-0.5 1115,-19.5 1279,-19.5 1279,-0.5 1115,-0.5"/>
<text text-anchor="middle" x="1197" y="-7.5" font-family="Helvetica,sans-Serif" font-size="10.00">SFML/Graphics/RenderTarget.hpp</text>
</g>
<!-- Node15&#45;&gt;Node16 -->
<g id="edge23" class="edge"><title>Node15&#45;&gt;Node16</title>
<path fill="none" stroke="midnightblue" d="M1138.25,-56.324C1148.8,-48.1849 1164.8,-35.8395 1177.44,-26.0874"/>
<polygon fill="midnightblue" stroke="midnightblue" points="1179.77,-28.7132 1185.55,-19.8339 1175.49,-23.1707 1179.77,-28.7132"/>
</g>
<!-- Node15&#45;&gt;Node17 -->
<g id="edge24" class="edge"><title>Node15&#45;&gt;Node17</title>
<path fill="none" stroke="midnightblue" d="M1191.24,-56.8572C1267.36,-47.208 1394.11,-31.1411 1475.58,-20.8142"/>
<polygon fill="midnightblue" stroke="midnightblue" points="1476.29,-24.2514 1485.77,-19.5216 1475.41,-17.307 1476.29,-24.2514"/>
</g>
<!-- Node18 -->
<g id="node18" class="node"><title>Node18</title>
<polygon fill="white" stroke="#bfbfbf" points="961.5,-0.5 961.5,-19.5 1096.5,-19.5 1096.5,-0.5 961.5,-0.5"/>
<text text-anchor="middle" x="1029" y="-7.5" font-family="Helvetica,sans-Serif" font-size="10.00">SFML/System/Vector2.hpp</text>
</g>
<!-- Node15&#45;&gt;Node18 -->
<g id="edge25" class="edge"><title>Node15&#45;&gt;Node18</title>
<path fill="none" stroke="midnightblue" d="M1111.25,-56.324C1095.68,-47.7428 1071.62,-34.486 1053.54,-24.5224"/>
<polygon fill="midnightblue" stroke="midnightblue" points="1055.15,-21.4152 1044.71,-19.6545 1051.78,-27.546 1055.15,-21.4152"/>
</g>
<!-- Node22 -->
<g id="node22" class="node"><title>Node22</title>
<polygon fill="white" stroke="#bfbfbf" points="0,-112.5 0,-131.5 38,-131.5 38,-112.5 0,-112.5"/>
<text text-anchor="middle" x="19" y="-119.5" font-family="Helvetica,sans-Serif" font-size="10.00">array</text>
</g>
<!-- Node21&#45;&gt;Node22 -->
<g id="edge33" class="edge"><title>Node21&#45;&gt;Node22</title>
<path fill="none" stroke="midnightblue" d="M164.177,-168.456C136.907,-160.063 93.9128,-146.776 48.0883,-132.323"/>
<polygon fill="midnightblue" stroke="midnightblue" points="48.8614,-128.897 38.2715,-129.223 46.7531,-135.572 48.8614,-128.897"/>
</g>
<!-- Node23 -->
<g id="node23" class="node"><title>Node23</title>
<polygon fill="white" stroke="#bfbfbf" points="56,-112.5 56,-131.5 102,-131.5 102,-112.5 56,-112.5"/>
<text text-anchor="middle" x="79" y="-119.5" font-family="Helvetica,sans-Serif" font-size="10.00">chrono</text>
</g>
<!-- Node21&#45;&gt;Node23 -->
<g id="edge34" class="edge"><title>Node21&#45;&gt;Node23</title>
<path fill="none" stroke="midnightblue" d="M174.095,-168.444C155.746,-159.675 126.995,-145.935 105.906,-135.858"/>
<polygon fill="midnightblue" stroke="midnightblue" points="107.353,-132.67 96.8214,-131.516 104.335,-138.986 107.353,-132.67"/>
</g>
<!-- Node24 -->
<g id="node24" class="node"><title>Node24</title>
<polygon fill="white" stroke="#bfbfbf" points="120,-112.5 120,-131.5 264,-131.5 264,-112.5 120,-112.5"/>
<text text-anchor="middle" x="192" y="-119.5" font-family="Helvetica,sans-Serif" font-size="10.00">imgui_widget_flamegraph.hpp</text>
</g>
<!-- Node21&#45;&gt;Node24 -->
<g id="edge35" class="edge"><title>Node21&#45;&gt;Node24</title>
<path fill="none" stroke="midnightblue" d="M192,-168.083C192,-161.006 192,-150.861 192,-141.986"/>
<polygon fill="midnightblue" stroke="midnightblue" points="195.5,-141.751 192,-131.751 188.5,-141.751 195.5,-141.751"/>
</g>
<!-- Node26&#45;&gt;Node4 -->
<g id="edge40" class="edge"><title>Node26&#45;&gt;Node4</title>
<path fill="none" stroke="midnightblue" d="M574.869,-168.486C589.129,-159.639 611.888,-145.258 631,-132 654.746,-115.527 681.246,-95.4778 698.689,-82.0404"/>
<polygon fill="midnightblue" stroke="midnightblue" points="701.155,-84.5577 706.922,-75.6701 696.871,-79.0212 701.155,-84.5577"/>
</g>
<!-- Node26&#45;&gt;Node25 -->
<g id="edge39" class="edge"><title>Node26&#45;&gt;Node25</title>
<path fill="none" stroke="midnightblue" d="M522.179,-168.444C478.149,-158.739 406.492,-142.945 360.309,-132.766"/>
<polygon fill="midnightblue" stroke="midnightblue" points="360.81,-129.293 350.291,-130.558 359.303,-136.128 360.81,-129.293"/>
</g>
<!-- Node27 -->
<g id="node27" class="node"><title>Node27</title>
<polygon fill="white" stroke="#bfbfbf" points="500,-112.5 500,-131.5 622,-131.5 622,-112.5 500,-112.5"/>
<text text-anchor="middle" x="561" y="-119.5" font-family="Helvetica,sans-Serif" font-size="10.00">SFML/System/Time.hpp</text>
</g>
<!-- Node26&#45;&gt;Node27 -->
<g id="edge41" class="edge"><title>Node26&#45;&gt;Node27</title>
<path fill="none" stroke="midnightblue" d="M561,-168.083C561,-161.006 561,-150.861 561,-141.986"/>
<polygon fill="midnightblue" stroke="midnightblue" points="564.5,-141.751 561,-131.751 557.5,-141.751 564.5,-141.751"/>
</g>
<!-- Node28 -->
<g id="node28" class="node"><title>Node28</title>
<polygon fill="white" stroke="#bfbfbf" points="368.5,-112.5 368.5,-131.5 481.5,-131.5 481.5,-112.5 368.5,-112.5"/>
<text text-anchor="middle" x="425" y="-119.5" font-family="Helvetica,sans-Serif" font-size="10.00">SFML/System/Utf.hpp</text>
</g>
<!-- Node26&#45;&gt;Node28 -->
<g id="edge42" class="edge"><title>Node26&#45;&gt;Node28</title>
<path fill="none" stroke="midnightblue" d="M539.45,-168.444C516.969,-159.517 481.512,-145.439 456.02,-135.317"/>
<polygon fill="midnightblue" stroke="midnightblue" points="457.035,-131.954 446.449,-131.516 454.451,-138.46 457.035,-131.954"/>
</g>
</g>
</svg>
        <g id="navigator" transform="translate(0 0)" fill="#404254">
                <rect fill="#f2f5e9" fill-opacity="0.5" stroke="#606060" stroke-width=".5" x="0" y="0" width="60" height="60"/>
                <use id="zoomplus" xlink:href="#zoomPlus" x="17" y="9" onmousedown="handleZoom(evt,'in')"/>
                <use id="zoomminus" xlink:href="#zoomMin" x="42" y="9" onmousedown="handleZoom(evt,'out')"/>
                <use id="reset" xlink:href="#resetDef" x="30" y="36" onmousedown="handleReset()"/>
                <g id="arrowUp" xlink:href="#dirArrow" transform="translate(30 24)" onmousedown="handlePan(0,-1)">
                  <use xlink:href="#rim" fill="#404040">
                        <set attributeName="fill" to="#808080" begin="arrowUp.mouseover" end="arrowUp.mouseout"/>
                  </use>
                  <path fill="none" stroke="white" stroke-width="1.5" d="M0,-3.0v7 M-2.5,-0.5L0,-3.0L2.5,-0.5"/>
                </g>
                <g id="arrowRight" xlink:href="#dirArrow" transform="rotate(90) translate(36 -43)" onmousedown="handlePan(1,0)">
                  <use xlink:href="#rim" fill="#404040">
                        <set attributeName="fill" to="#808080" begin="arrowRight.mouseover" end="arrowRight.mouseout"/>
                  </use>
                  <path fill="none" stroke="white" stroke-width="1.5" d="M0,-3.0v7 M-2.5,-0.5L0,-3.0L2.5,-0.5"/>
                </g>
                <g id="arrowDown" xlink:href="#dirArrow" transform="rotate(180) translate(-30 -48)" onmousedown="handlePan(0,1)">
                  <use xlink:href="#rim" fill="#404040">
                        <set attributeName="fill" to="#808080" begin="arrowDown.mouseover" end="arrowDown.mouseout"/>
                  </use>
                  <path fill="none" stroke="white" stroke-width="1.5" d="M0,-3.0v7 M-2.5,-0.5L0,-3.0L2.5,-0.5"/>
                </g>
                <g id="arrowLeft" xlink:href="#dirArrow" transform="rotate(270) translate(-36 17)" onmousedown="handlePan(-1,0)">
                  <use xlink:href="#rim" fill="#404040">
                        <set attributeName="fill" to="#808080" begin="arrowLeft.mouseover" end="arrowLeft.mouseout"/>
                  </use>
                  <path fill="none" stroke="white" stroke-width="1.5" d="M0,-3.0v7 M-2.5,-0.5L0,-3.0L2.5,-0.5"/>
                </g>
        </g>
        <svg viewBox="0 0 15 15" width="100%" height="30px" preserveAspectRatio="xMaxYMin meet">
         <g id="arrow_out" transform="scale(0.3 0.3)">
          <a xlink:href="Core_8hpp__incl_org.svg" target="_base">
           <rect id="button" ry="5" rx="5" y="6" x="6" height="38" width="38"
                fill="#f2f5e9" fill-opacity="0.5" stroke="#606060" stroke-width="1.0"/>
           <path id="arrow"
             d="M 11.500037,31.436501 C 11.940474,20.09759 22.043105,11.32322 32.158766,21.979434 L 37.068811,17.246167 C 37.068811,17.246167 37.088388,32 37.088388,32 L 22.160133,31.978069 C 22.160133,31.978069 26.997745,27.140456 26.997745,27.140456 C 18.528582,18.264221 13.291696,25.230495 11.500037,31.436501 z"
             style="fill:#404040;"/>
          </a>
         </g>
        </svg>
</svg>
