<?xml version="1.0" encoding="UTF-8" standalone="no"?>
<!DOCTYPE svg PUBLIC "-//W3C//DTD SVG 1.1//EN"
 "http://www.w3.org/Graphics/SVG/1.1/DTD/svg11.dtd">
<!-- Generated by graphviz version 2.38.0 (20140413.2041)
 -->
<!-- Title: C:/Users/Folaefolc/Documents/Code/Big&#45;Projects/ScriptWizards/SmallGameLibrary/include/Small/Debug/Profiler.hpp Pages: 1 -->
<svg width="272pt" height="128pt"
 viewBox="0.00 0.00 272.00 128.00" xmlns="http://www.w3.org/2000/svg" xmlns:xlink="http://www.w3.org/1999/xlink">
<g id="graph0" class="graph" transform="scale(1 1) rotate(0) translate(4 124)">
<title>C:/Users/Folaefolc/Documents/Code/Big&#45;Projects/ScriptWizards/SmallGameLibrary/include/Small/Debug/Profiler.hpp</title>
<polygon fill="white" stroke="none" points="-4,4 -4,-124 268,-124 268,4 -4,4"/>
<!-- Node1 -->
<g id="node1" class="node"><title>Node1</title>
<polygon fill="#bfbfbf" stroke="black" points="12,-56.5 12,-119.5 146,-119.5 146,-56.5 12,-56.5"/>
<text text-anchor="start" x="20" y="-107.5" font-family="Helvetica,sans-Serif" font-size="10.00">C:/Users/Folaefolc</text>
<text text-anchor="start" x="20" y="-96.5" font-family="Helvetica,sans-Serif" font-size="10.00">/Documents/Code/Big</text>
<text text-anchor="start" x="20" y="-85.5" font-family="Helvetica,sans-Serif" font-size="10.00">&#45;Projects/ScriptWizards</text>
<text text-anchor="start" x="20" y="-74.5" font-family="Helvetica,sans-Serif" font-size="10.00">/SmallGameLibrary/include</text>
<text text-anchor="middle" x="79" y="-63.5" font-family="Helvetica,sans-Serif" font-size="10.00">/Small/Debug/Profiler.hpp</text>
</g>
<!-- Node2 -->
<g id="node2" class="node"><title>Node2</title>
<polygon fill="white" stroke="#bfbfbf" points="0,-0.5 0,-19.5 38,-19.5 38,-0.5 0,-0.5"/>
<text text-anchor="middle" x="19" y="-7.5" font-family="Helvetica,sans-Serif" font-size="10.00">array</text>
</g>
<!-- Node1&#45;&gt;Node2 -->
<g id="edge1" class="edge"><title>Node1&#45;&gt;Node2</title>
<path fill="none" stroke="midnightblue" d="M54.5957,-56.0879C46.8903,-46.3277 38.6742,-35.9206 32.0792,-27.567"/>
<polygon fill="midnightblue" stroke="midnightblue" points="34.8263,-25.3982 25.8828,-19.7182 29.3321,-29.7358 34.8263,-25.3982"/>
</g>
<!-- Node3 -->
<g id="node3" class="node"><title>Node3</title>
<polygon fill="white" stroke="#bfbfbf" points="56,-0.5 56,-19.5 102,-19.5 102,-0.5 56,-0.5"/>
<text text-anchor="middle" x="79" y="-7.5" font-family="Helvetica,sans-Serif" font-size="10.00">chrono</text>
</g>
<!-- Node1&#45;&gt;Node3 -->
<g id="edge2" class="edge"><title>Node1&#45;&gt;Node3</title>
<path fill="none" stroke="midnightblue" d="M79,-56.0879C79,-47.1496 79,-37.6688 79,-29.7195"/>
<polygon fill="midnightblue" stroke="midnightblue" points="82.5001,-29.7181 79,-19.7182 75.5001,-29.7182 82.5001,-29.7181"/>
</g>
<!-- Node4 -->
<g id="node4" class="node"><title>Node4</title>
<polygon fill="white" stroke="#bfbfbf" points="120,-0.5 120,-19.5 264,-19.5 264,-0.5 120,-0.5"/>
<text text-anchor="middle" x="192" y="-7.5" font-family="Helvetica,sans-Serif" font-size="10.00">imgui_widget_flamegraph.hpp</text>
</g>
<!-- Node1&#45;&gt;Node4 -->
<g id="edge3" class="edge"><title>Node1&#45;&gt;Node4</title>
<path fill="none" stroke="midnightblue" d="M124.636,-56.307C140.408,-45.6988 157.355,-34.3011 170.305,-25.5912"/>
<polygon fill="midnightblue" stroke="midnightblue" points="172.61,-28.259 178.955,-19.7738 168.704,-22.4505 172.61,-28.259"/>
</g>
</g>
</svg>
