<?xml version="1.0" encoding="UTF-8" standalone="no"?>
<!DOCTYPE svg PUBLIC "-//W3C//DTD SVG 1.1//EN"
 "http://www.w3.org/Graphics/SVG/1.1/DTD/svg11.dtd">
<!-- Generated by graphviz version 2.38.0 (20140413.2041)
 -->
<!-- Title: C:/Users/Folaefolc/Documents/Code/Big&#45;Projects/ScriptWizards/SmallGameLibrary/include/Small/GameObjects.hpp Pages: 1 -->
<!--zoomable 240 -->
<svg id="main" version="1.1" xmlns="http://www.w3.org/2000/svg" xmlns:xlink="http://www.w3.org/1999/xlink" xml:space="preserve" onload="init(evt)">
<style type="text/css"><![CDATA[
.edge:hover path { stroke: red; }
.edge:hover polygon { stroke: red; fill: red; }
]]></style>
<script type="text/javascript"><![CDATA[
var edges = document.getElementsByTagName('g');
if (edges && edges.length) {
  for (var i=0;i<edges.length;i++) {
    if (edges[i].id.substr(0,4)=='edge') {
      edges[i].setAttribute('class','edge');
    }
  }
}
]]></script>
        <defs>
                <circle id="rim" cx="0" cy="0" r="7"/>
                <circle id="rim2" cx="0" cy="0" r="3.5"/>
                <g id="zoomPlus">
                        <use xlink:href="#rim" fill="#404040">
                                <set attributeName="fill" to="#808080" begin="zoomplus.mouseover" end="zoomplus.mouseout"/>
                        </use>
                        <path d="M-4,0h8M0,-4v8" fill="none" stroke="white" stroke-width="1.5" pointer-events="none"/>
                </g>
                <g id="zoomMin">
                        <use xlink:href="#rim" fill="#404040">
                                <set attributeName="fill" to="#808080" begin="zoomminus.mouseover" end="zoomminus.mouseout"/>
                        </use>
                        <path d="M-4,0h8" fill="none" stroke="white" stroke-width="1.5" pointer-events="none"/>
                </g>
                <g id="dirArrow">
                        <path fill="none" stroke="white" stroke-width="1.5" d="M0,-3.0v7 M-2.5,-0.5L0,-3.0L2.5,-0.5"/>
                </g>
               <g id="resetDef">
                       <use xlink:href="#rim2" fill="#404040">
                               <set attributeName="fill" to="#808080" begin="reset.mouseover" end="reset.mouseout"/>
                       </use>
               </g>
        </defs>

<script type="text/javascript">
var viewWidth = 1796;
var viewHeight = 240;
var sectionId = 'dynsection-0';
</script>
<script xlink:href="../../svgpan.js"/>
<svg id="graph" class="graph">
<g id="viewport">
<title>C:/Users/Folaefolc/Documents/Code/Big&#45;Projects/ScriptWizards/SmallGameLibrary/include/Small/GameObjects.hpp</title>
<polygon fill="white" stroke="none" points="-4,4 -4,-236 1791.5,-236 1791.5,4 -4,4"/>
<!-- Node1 -->
<g id="node1" class="node"><title>Node1</title>
<polygon fill="#bfbfbf" stroke="black" points="691,-168.5 691,-231.5 825,-231.5 825,-168.5 691,-168.5"/>
<text text-anchor="start" x="699" y="-219.5" font-family="Helvetica,sans-Serif" font-size="10.00">C:/Users/Folaefolc</text>
<text text-anchor="start" x="699" y="-208.5" font-family="Helvetica,sans-Serif" font-size="10.00">/Documents/Code/Big</text>
<text text-anchor="start" x="699" y="-197.5" font-family="Helvetica,sans-Serif" font-size="10.00">&#45;Projects/ScriptWizards</text>
<text text-anchor="start" x="699" y="-186.5" font-family="Helvetica,sans-Serif" font-size="10.00">/SmallGameLibrary/include</text>
<text text-anchor="middle" x="758" y="-175.5" font-family="Helvetica,sans-Serif" font-size="10.00">/Small/GameObjects.hpp</text>
</g>
<!-- Node2 -->
<g id="node2" class="node"><title>Node2</title>
<g id="a_node2"><a xlink:href="../../d3/d1b/Actor_8hpp.html" target="_top" xlink:title="Defines an actor class for your game, to represent a player or NPC for example. ">
<polygon fill="white" stroke="black" points="238.5,-112.5 238.5,-131.5 387.5,-131.5 387.5,-112.5 238.5,-112.5"/>
<text text-anchor="middle" x="313" y="-119.5" font-family="Helvetica,sans-Serif" font-size="10.00">Small/GameObjects/Actor.hpp</text>
</a>
</g>
</g>
<!-- Node1&#45;&gt;Node2 -->
<g id="edge1" class="edge"><title>Node1&#45;&gt;Node2</title>
<path fill="none" stroke="midnightblue" d="M690.897,-187.54C604.541,-172.791 455.806,-147.389 373.028,-133.252"/>
<polygon fill="midnightblue" stroke="midnightblue" points="373.47,-129.777 363.024,-131.543 372.292,-136.677 373.47,-129.777"/>
</g>
<!-- Node11 -->
<g id="node11" class="node"><title>Node11</title>
<g id="a_node11"><a xlink:href="../../d9/d54/Manager_8hpp.html" target="_top" xlink:title="Small/GameObjects/Manager.hpp">
<polygon fill="white" stroke="black" points="1102,-112.5 1102,-131.5 1266,-131.5 1266,-112.5 1102,-112.5"/>
<text text-anchor="middle" x="1184" y="-119.5" font-family="Helvetica,sans-Serif" font-size="10.00">Small/GameObjects/Manager.hpp</text>
</a>
</g>
</g>
<!-- Node1&#45;&gt;Node11 -->
<g id="edge12" class="edge"><title>Node1&#45;&gt;Node11</title>
<path fill="none" stroke="midnightblue" d="M825.031,-187.041C907.889,-172.259 1047.53,-147.347 1125.99,-133.349"/>
<polygon fill="midnightblue" stroke="midnightblue" points="1126.95,-136.734 1136.18,-131.532 1125.72,-129.842 1126.95,-136.734"/>
</g>
<!-- Node3 -->
<g id="node3" class="node"><title>Node3</title>
<polygon fill="white" stroke="#bfbfbf" points="0,-56.5 0,-75.5 122,-75.5 122,-56.5 0,-56.5"/>
<text text-anchor="middle" x="61" y="-63.5" font-family="Helvetica,sans-Serif" font-size="10.00">SFML/System/Time.hpp</text>
</g>
<!-- Node2&#45;&gt;Node3 -->
<g id="edge2" class="edge"><title>Node2&#45;&gt;Node3</title>
<path fill="none" stroke="midnightblue" d="M273.07,-112.444C229.109,-103.023 158.373,-87.8656 110.817,-77.6752"/>
<polygon fill="midnightblue" stroke="midnightblue" points="111.255,-74.1895 100.743,-75.5164 109.788,-81.0341 111.255,-74.1895"/>
</g>
<!-- Node4 -->
<g id="node4" class="node"><title>Node4</title>
<polygon fill="white" stroke="#bfbfbf" points="140,-56.5 140,-75.5 266,-75.5 266,-56.5 140,-56.5"/>
<text text-anchor="middle" x="203" y="-63.5" font-family="Helvetica,sans-Serif" font-size="10.00">SFML/Window/Event.hpp</text>
</g>
<!-- Node2&#45;&gt;Node4 -->
<g id="edge3" class="edge"><title>Node2&#45;&gt;Node4</title>
<path fill="none" stroke="midnightblue" d="M295.327,-112.324C277.606,-103.625 250.097,-90.1202 229.712,-80.113"/>
<polygon fill="midnightblue" stroke="midnightblue" points="231.149,-76.9195 220.63,-75.6545 228.064,-83.2031 231.149,-76.9195"/>
</g>
<!-- Node5 -->
<g id="node5" class="node"><title>Node5</title>
<polygon fill="white" stroke="#bfbfbf" points="82.5,-0.5 82.5,-19.5 231.5,-19.5 231.5,-0.5 82.5,-0.5"/>
<text text-anchor="middle" x="157" y="-7.5" font-family="Helvetica,sans-Serif" font-size="10.00">SFML/Graphics/Transform.hpp</text>
</g>
<!-- Node2&#45;&gt;Node5 -->
<g id="edge4" class="edge"><title>Node2&#45;&gt;Node5</title>
<path fill="none" stroke="midnightblue" d="M310.027,-112.158C304.952,-98.3263 293.349,-71.5506 275,-56 255.986,-39.8854 230.591,-29.209 208.231,-22.3187"/>
<polygon fill="midnightblue" stroke="midnightblue" points="209.114,-18.9305 198.534,-19.5031 207.162,-25.6528 209.114,-18.9305"/>
</g>
<!-- Node6 -->
<g id="node6" class="node"><title>Node6</title>
<polygon fill="white" stroke="#bfbfbf" points="250,-0.5 250,-19.5 414,-19.5 414,-0.5 250,-0.5"/>
<text text-anchor="middle" x="332" y="-7.5" font-family="Helvetica,sans-Serif" font-size="10.00">SFML/Graphics/RenderTarget.hpp</text>
</g>
<!-- Node2&#45;&gt;Node6 -->
<g id="edge5" class="edge"><title>Node2&#45;&gt;Node6</title>
<path fill="none" stroke="midnightblue" d="M314.491,-112.368C317.557,-94.617 324.63,-53.6664 328.788,-29.5974"/>
<polygon fill="midnightblue" stroke="midnightblue" points="332.263,-30.0413 330.516,-19.5914 325.365,-28.8498 332.263,-30.0413"/>
</g>
<!-- Node7 -->
<g id="node7" class="node"><title>Node7</title>
<g id="a_node7"><a xlink:href="../../d7/dc6/Node_8hpp.html" target="_top" xlink:title="A scene graph node. ">
<polygon fill="white" stroke="black" points="360,-56.5 360,-75.5 488,-75.5 488,-56.5 360,-56.5"/>
<text text-anchor="middle" x="424" y="-63.5" font-family="Helvetica,sans-Serif" font-size="10.00">Small/Graphics/Node.hpp</text>
</a>
</g>
</g>
<!-- Node2&#45;&gt;Node7 -->
<g id="edge6" class="edge"><title>Node2&#45;&gt;Node7</title>
<path fill="none" stroke="midnightblue" d="M330.834,-112.324C348.716,-103.625 376.475,-90.1202 397.046,-80.113"/>
<polygon fill="midnightblue" stroke="midnightblue" points="398.749,-83.1765 406.21,-75.6545 395.687,-76.8819 398.749,-83.1765"/>
</g>
<!-- Node7&#45;&gt;Node5 -->
<g id="edge8" class="edge"><title>Node7&#45;&gt;Node5</title>
<path fill="none" stroke="midnightblue" d="M381.693,-56.4435C334.92,-46.9839 259.54,-31.7384 209.15,-21.5472"/>
<polygon fill="midnightblue" stroke="midnightblue" points="209.604,-18.0683 199.109,-19.5164 208.217,-24.9294 209.604,-18.0683"/>
</g>
<!-- Node7&#45;&gt;Node6 -->
<g id="edge7" class="edge"><title>Node7&#45;&gt;Node6</title>
<path fill="none" stroke="midnightblue" d="M409.219,-56.324C394.733,-47.8215 372.427,-34.7288 355.507,-24.7975"/>
<polygon fill="midnightblue" stroke="midnightblue" points="357.141,-21.6981 346.745,-19.6545 353.597,-27.735 357.141,-21.6981"/>
</g>
<!-- Node8 -->
<g id="node8" class="node"><title>Node8</title>
<polygon fill="white" stroke="#bfbfbf" points="432.5,-0.5 432.5,-19.5 567.5,-19.5 567.5,-0.5 432.5,-0.5"/>
<text text-anchor="middle" x="500" y="-7.5" font-family="Helvetica,sans-Serif" font-size="10.00">SFML/System/Vector2.hpp</text>
</g>
<!-- Node7&#45;&gt;Node8 -->
<g id="edge9" class="edge"><title>Node7&#45;&gt;Node8</title>
<path fill="none" stroke="midnightblue" d="M436.211,-56.324C447.776,-48.1066 465.375,-35.6017 479.161,-25.8069"/>
<polygon fill="midnightblue" stroke="midnightblue" points="481.443,-28.4791 487.567,-19.8339 477.388,-22.7729 481.443,-28.4791"/>
</g>
<!-- Node9 -->
<g id="node9" class="node"><title>Node9</title>
<polygon fill="white" stroke="#bfbfbf" points="586,-0.5 586,-19.5 628,-19.5 628,-0.5 586,-0.5"/>
<text text-anchor="middle" x="607" y="-7.5" font-family="Helvetica,sans-Serif" font-size="10.00">vector</text>
</g>
<!-- Node7&#45;&gt;Node9 -->
<g id="edge10" class="edge"><title>Node7&#45;&gt;Node9</title>
<path fill="none" stroke="midnightblue" d="M452.997,-56.4435C486.517,-46.5524 541.474,-30.3357 575.872,-20.1854"/>
<polygon fill="midnightblue" stroke="midnightblue" points="577.24,-23.4309 585.841,-17.2437 575.259,-16.7171 577.24,-23.4309"/>
</g>
<!-- Node10 -->
<g id="node10" class="node"><title>Node10</title>
<polygon fill="white" stroke="#bfbfbf" points="646,-0.5 646,-19.5 698,-19.5 698,-0.5 646,-0.5"/>
<text text-anchor="middle" x="672" y="-7.5" font-family="Helvetica,sans-Serif" font-size="10.00">memory</text>
</g>
<!-- Node7&#45;&gt;Node10 -->
<g id="edge11" class="edge"><title>Node7&#45;&gt;Node10</title>
<path fill="none" stroke="midnightblue" d="M466.959,-56.4952C507.959,-48.2505 571.699,-35.103 635.787,-20.2114"/>
<polygon fill="midnightblue" stroke="midnightblue" points="636.716,-23.5888 645.657,-17.9047 635.123,-16.7725 636.716,-23.5888"/>
</g>
<!-- Node12 -->
<g id="node12" class="node"><title>Node12</title>
<polygon fill="white" stroke="#bfbfbf" points="1264.5,-56.5 1264.5,-75.5 1305.5,-75.5 1305.5,-56.5 1264.5,-56.5"/>
<text text-anchor="middle" x="1285" y="-63.5" font-family="Helvetica,sans-Serif" font-size="10.00">string</text>
</g>
<!-- Node11&#45;&gt;Node12 -->
<g id="edge13" class="edge"><title>Node11&#45;&gt;Node12</title>
<path fill="none" stroke="midnightblue" d="M1200.23,-112.324C1216.35,-103.703 1241.3,-90.3643 1259.96,-80.3855"/>
<polygon fill="midnightblue" stroke="midnightblue" points="1261.64,-83.456 1268.81,-75.6545 1258.34,-77.283 1261.64,-83.456"/>
</g>
<!-- Node13 -->
<g id="node13" class="node"><title>Node13</title>
<polygon fill="white" stroke="#bfbfbf" points="1323.5,-56.5 1323.5,-75.5 1406.5,-75.5 1406.5,-56.5 1323.5,-56.5"/>
<text text-anchor="middle" x="1365" y="-63.5" font-family="Helvetica,sans-Serif" font-size="10.00">unordered_map</text>
</g>
<!-- Node11&#45;&gt;Node13 -->
<g id="edge14" class="edge"><title>Node11&#45;&gt;Node13</title>
<path fill="none" stroke="midnightblue" d="M1212.68,-112.444C1243.53,-103.241 1292.73,-88.5617 1326.83,-78.3879"/>
<polygon fill="midnightblue" stroke="midnightblue" points="1327.87,-81.7293 1336.45,-75.5164 1325.87,-75.0215 1327.87,-81.7293"/>
</g>
<!-- Node14 -->
<g id="node14" class="node"><title>Node14</title>
<polygon fill="white" stroke="#bfbfbf" points="1424.5,-56.5 1424.5,-75.5 1491.5,-75.5 1491.5,-56.5 1424.5,-56.5"/>
<text text-anchor="middle" x="1458" y="-63.5" font-family="Helvetica,sans-Serif" font-size="10.00">Manager.inl</text>
</g>
<!-- Node11&#45;&gt;Node14 -->
<g id="edge15" class="edge"><title>Node11&#45;&gt;Node14</title>
<path fill="none" stroke="midnightblue" d="M1229.4,-112.466C1274.1,-104.001 1344.59,-90.4919 1414.26,-76.329"/>
<polygon fill="midnightblue" stroke="midnightblue" points="1414.99,-79.7536 1424.09,-74.3266 1413.59,-72.8946 1414.99,-79.7536"/>
</g>
<!-- Node15 -->
<g id="node15" class="node"><title>Node15</title>
<polygon fill="white" stroke="#bfbfbf" points="1510,-56.5 1510,-75.5 1636,-75.5 1636,-56.5 1510,-56.5"/>
<text text-anchor="middle" x="1573" y="-63.5" font-family="Helvetica,sans-Serif" font-size="10.00">SFML/Graphics/Font.hpp</text>
</g>
<!-- Node11&#45;&gt;Node15 -->
<g id="edge16" class="edge"><title>Node11&#45;&gt;Node15</title>
<path fill="none" stroke="midnightblue" d="M1245.64,-112.444C1315.21,-102.786 1428.21,-87.0993 1501.57,-76.9157"/>
<polygon fill="midnightblue" stroke="midnightblue" points="1502.23,-80.3583 1511.65,-75.5164 1501.26,-73.4247 1502.23,-80.3583"/>
</g>
<!-- Node16 -->
<g id="node16" class="node"><title>Node16</title>
<polygon fill="white" stroke="#bfbfbf" points="1654.5,-56.5 1654.5,-75.5 1787.5,-75.5 1787.5,-56.5 1654.5,-56.5"/>
<text text-anchor="middle" x="1721" y="-63.5" font-family="Helvetica,sans-Serif" font-size="10.00">SFML/Graphics/Image.hpp</text>
</g>
<!-- Node11&#45;&gt;Node16 -->
<g id="edge17" class="edge"><title>Node11&#45;&gt;Node16</title>
<path fill="none" stroke="midnightblue" d="M1266.08,-113.502C1356.15,-105.156 1505.29,-90.9957 1644.29,-76.0565"/>
<polygon fill="midnightblue" stroke="midnightblue" points="1644.71,-79.5313 1654.28,-74.9796 1643.96,-72.5717 1644.71,-79.5313"/>
</g>
<!-- Node17 -->
<g id="node17" class="node"><title>Node17</title>
<polygon fill="white" stroke="#bfbfbf" points="506.5,-56.5 506.5,-75.5 643.5,-75.5 643.5,-56.5 506.5,-56.5"/>
<text text-anchor="middle" x="575" y="-63.5" font-family="Helvetica,sans-Serif" font-size="10.00">SFML/Graphics/Shader.hpp</text>
</g>
<!-- Node11&#45;&gt;Node17 -->
<g id="edge18" class="edge"><title>Node11&#45;&gt;Node17</title>
<path fill="none" stroke="midnightblue" d="M1101.61,-114.796C999.294,-106.917 819.148,-92.4715 654.229,-76.0949"/>
<polygon fill="midnightblue" stroke="midnightblue" points="654.189,-72.5736 643.891,-75.0638 653.494,-79.5391 654.189,-72.5736"/>
</g>
<!-- Node18 -->
<g id="node18" class="node"><title>Node18</title>
<polygon fill="white" stroke="#bfbfbf" points="662,-56.5 662,-75.5 796,-75.5 796,-56.5 662,-56.5"/>
<text text-anchor="middle" x="729" y="-63.5" font-family="Helvetica,sans-Serif" font-size="10.00">SFML/Graphics/Shape.hpp</text>
</g>
<!-- Node11&#45;&gt;Node18 -->
<g id="edge19" class="edge"><title>Node11&#45;&gt;Node18</title>
<path fill="none" stroke="midnightblue" d="M1112.15,-112.473C1028.77,-102.577 891.798,-86.3211 806.199,-76.1621"/>
<polygon fill="midnightblue" stroke="midnightblue" points="806.365,-72.6573 796.022,-74.9543 805.54,-79.6085 806.365,-72.6573"/>
</g>
<!-- Node19 -->
<g id="node19" class="node"><title>Node19</title>
<polygon fill="white" stroke="#bfbfbf" points="814,-56.5 814,-75.5 946,-75.5 946,-56.5 814,-56.5"/>
<text text-anchor="middle" x="880" y="-63.5" font-family="Helvetica,sans-Serif" font-size="10.00">SFML/Graphics/Sprite.hpp</text>
</g>
<!-- Node11&#45;&gt;Node19 -->
<g id="edge20" class="edge"><title>Node11&#45;&gt;Node19</title>
<path fill="none" stroke="midnightblue" d="M1135.83,-112.444C1082.13,-102.905 995.314,-87.4834 937.946,-77.293"/>
<polygon fill="midnightblue" stroke="midnightblue" points="938.402,-73.8194 927.944,-75.5164 937.178,-80.7115 938.402,-73.8194"/>
</g>
<!-- Node20 -->
<g id="node20" class="node"><title>Node20</title>
<polygon fill="white" stroke="#bfbfbf" points="964.5,-56.5 964.5,-75.5 1103.5,-75.5 1103.5,-56.5 964.5,-56.5"/>
<text text-anchor="middle" x="1034" y="-63.5" font-family="Helvetica,sans-Serif" font-size="10.00">SFML/Graphics/Texture.hpp</text>
</g>
<!-- Node11&#45;&gt;Node20 -->
<g id="edge21" class="edge"><title>Node11&#45;&gt;Node20</title>
<path fill="none" stroke="midnightblue" d="M1160.23,-112.444C1135.11,-103.399 1095.29,-89.064 1067.1,-78.9158"/>
<polygon fill="midnightblue" stroke="midnightblue" points="1068.25,-75.6106 1057.66,-75.5164 1065.88,-82.1968 1068.25,-75.6106"/>
</g>
<!-- Node21 -->
<g id="node21" class="node"><title>Node21</title>
<polygon fill="white" stroke="#bfbfbf" points="1121.5,-56.5 1121.5,-75.5 1246.5,-75.5 1246.5,-56.5 1121.5,-56.5"/>
<text text-anchor="middle" x="1184" y="-63.5" font-family="Helvetica,sans-Serif" font-size="10.00">SFML/Graphics/Text.hpp</text>
</g>
<!-- Node11&#45;&gt;Node21 -->
<g id="edge22" class="edge"><title>Node11&#45;&gt;Node21</title>
<path fill="none" stroke="midnightblue" d="M1184,-112.083C1184,-105.006 1184,-94.8611 1184,-85.9865"/>
<polygon fill="midnightblue" stroke="midnightblue" points="1187.5,-85.751 1184,-75.7511 1180.5,-85.7511 1187.5,-85.751"/>
</g>
</g>
</svg>
        <g id="navigator" transform="translate(0 0)" fill="#404254">
                <rect fill="#f2f5e9" fill-opacity="0.5" stroke="#606060" stroke-width=".5" x="0" y="0" width="60" height="60"/>
                <use id="zoomplus" xlink:href="#zoomPlus" x="17" y="9" onmousedown="handleZoom(evt,'in')"/>
                <use id="zoomminus" xlink:href="#zoomMin" x="42" y="9" onmousedown="handleZoom(evt,'out')"/>
                <use id="reset" xlink:href="#resetDef" x="30" y="36" onmousedown="handleReset()"/>
                <g id="arrowUp" xlink:href="#dirArrow" transform="translate(30 24)" onmousedown="handlePan(0,-1)">
                  <use xlink:href="#rim" fill="#404040">
                        <set attributeName="fill" to="#808080" begin="arrowUp.mouseover" end="arrowUp.mouseout"/>
                  </use>
                  <path fill="none" stroke="white" stroke-width="1.5" d="M0,-3.0v7 M-2.5,-0.5L0,-3.0L2.5,-0.5"/>
                </g>
                <g id="arrowRight" xlink:href="#dirArrow" transform="rotate(90) translate(36 -43)" onmousedown="handlePan(1,0)">
                  <use xlink:href="#rim" fill="#404040">
                        <set attributeName="fill" to="#808080" begin="arrowRight.mouseover" end="arrowRight.mouseout"/>
                  </use>
                  <path fill="none" stroke="white" stroke-width="1.5" d="M0,-3.0v7 M-2.5,-0.5L0,-3.0L2.5,-0.5"/>
                </g>
                <g id="arrowDown" xlink:href="#dirArrow" transform="rotate(180) translate(-30 -48)" onmousedown="handlePan(0,1)">
                  <use xlink:href="#rim" fill="#404040">
                        <set attributeName="fill" to="#808080" begin="arrowDown.mouseover" end="arrowDown.mouseout"/>
                  </use>
                  <path fill="none" stroke="white" stroke-width="1.5" d="M0,-3.0v7 M-2.5,-0.5L0,-3.0L2.5,-0.5"/>
                </g>
                <g id="arrowLeft" xlink:href="#dirArrow" transform="rotate(270) translate(-36 17)" onmousedown="handlePan(-1,0)">
                  <use xlink:href="#rim" fill="#404040">
                        <set attributeName="fill" to="#808080" begin="arrowLeft.mouseover" end="arrowLeft.mouseout"/>
                  </use>
                  <path fill="none" stroke="white" stroke-width="1.5" d="M0,-3.0v7 M-2.5,-0.5L0,-3.0L2.5,-0.5"/>
                </g>
        </g>
        <svg viewBox="0 0 15 15" width="100%" height="30px" preserveAspectRatio="xMaxYMin meet">
         <g id="arrow_out" transform="scale(0.3 0.3)">
          <a xlink:href="GameObjects_8hpp__incl_org.svg" target="_base">
           <rect id="button" ry="5" rx="5" y="6" x="6" height="38" width="38"
                fill="#f2f5e9" fill-opacity="0.5" stroke="#606060" stroke-width="1.0"/>
           <path id="arrow"
             d="M 11.500037,31.436501 C 11.940474,20.09759 22.043105,11.32322 32.158766,21.979434 L 37.068811,17.246167 C 37.068811,17.246167 37.088388,32 37.088388,32 L 22.160133,31.978069 C 22.160133,31.978069 26.997745,27.140456 26.997745,27.140456 C 18.528582,18.264221 13.291696,25.230495 11.500037,31.436501 z"
             style="fill:#404040;"/>
          </a>
         </g>
        </svg>
</svg>
