<?xml version="1.0" encoding="UTF-8" standalone="no"?>
<!DOCTYPE svg PUBLIC "-//W3C//DTD SVG 1.1//EN"
 "http://www.w3.org/Graphics/SVG/1.1/DTD/svg11.dtd">
<!-- Generated by graphviz version 2.38.0 (20140413.2041)
 -->
<!-- Title: include/Small/Graphics/Node.hpp Pages: 1 -->
<svg width="1354pt" height="352pt"
 viewBox="0.00 0.00 1354.00 352.00" xmlns="http://www.w3.org/2000/svg" xmlns:xlink="http://www.w3.org/1999/xlink">
<g id="graph0" class="graph" transform="scale(1 1) rotate(0) translate(4 348)">
<title>include/Small/Graphics/Node.hpp</title>
<polygon fill="white" stroke="none" points="-4,4 -4,-348 1350,-348 1350,4 -4,4"/>
<!-- Node1 -->
<g id="node1" class="node"><title>Node1</title>
<polygon fill="#bfbfbf" stroke="black" points="426.5,-313.5 426.5,-343.5 543.5,-343.5 543.5,-313.5 426.5,-313.5"/>
<text text-anchor="start" x="434.5" y="-331.5" font-family="Helvetica,sans-Serif" font-size="10.00">include/Small/Graphics</text>
<text text-anchor="middle" x="485" y="-320.5" font-family="Helvetica,sans-Serif" font-size="10.00">/Node.hpp</text>
</g>
<!-- Node2 -->
<g id="node2" class="node"><title>Node2</title>
<g id="a_node2"><a xlink:href="../../db/de8/Scene_8hpp.html" target="_top" xlink:title="The base scene class and the scene states are defined here. ">
<polygon fill="white" stroke="black" points="199,-246.5 199,-276.5 297,-276.5 297,-246.5 199,-246.5"/>
<text text-anchor="start" x="207" y="-264.5" font-family="Helvetica,sans-Serif" font-size="10.00">include/Small/Core</text>
<text text-anchor="middle" x="248" y="-253.5" font-family="Helvetica,sans-Serif" font-size="10.00">/Scene.hpp</text>
</a>
</g>
</g>
<!-- Node1&#45;&gt;Node2 -->
<g id="edge1" class="edge"><title>Node1&#45;&gt;Node2</title>
<path fill="none" stroke="midnightblue" d="M424.089,-310.794C384.616,-299.969 333.88,-286.054 297.016,-275.943"/>
<polygon fill="midnightblue" stroke="midnightblue" points="423.297,-314.206 433.866,-313.476 425.148,-307.456 423.297,-314.206"/>
</g>
<!-- Node10 -->
<g id="node10" class="node"><title>Node10</title>
<g id="a_node10"><a xlink:href="../../d3/d1b/Actor_8hpp.html" target="_top" xlink:title="Defines an actor class for your game, to represent a player or NPC for example. ">
<polygon fill="white" stroke="black" points="340,-112.5 340,-142.5 478,-142.5 478,-112.5 340,-112.5"/>
<text text-anchor="start" x="348" y="-130.5" font-family="Helvetica,sans-Serif" font-size="10.00">include/Small/GameObjects</text>
<text text-anchor="middle" x="409" y="-119.5" font-family="Helvetica,sans-Serif" font-size="10.00">/Actor.hpp</text>
</a>
</g>
</g>
<!-- Node1&#45;&gt;Node10 -->
<g id="edge13" class="edge"><title>Node1&#45;&gt;Node10</title>
<path fill="none" stroke="midnightblue" d="M479.959,-303.103C473.262,-273.058 460.019,-220.863 441,-179 435.161,-166.148 426.495,-152.699 419.653,-142.914"/>
<polygon fill="midnightblue" stroke="midnightblue" points="476.589,-304.079 482.129,-313.11 483.43,-302.595 476.589,-304.079"/>
</g>
<!-- Node12 -->
<g id="node12" class="node"><title>Node12</title>
<g id="a_node12"><a xlink:href="../../dc/da8/Graphics_8hpp.html" target="_top" xlink:title="Include all the files from the Graphics folder. ">
<polygon fill="white" stroke="black" points="461,-56.5 461,-75.5 597,-75.5 597,-56.5 461,-56.5"/>
<text text-anchor="middle" x="529" y="-63.5" font-family="Helvetica,sans-Serif" font-size="10.00">include/Small/Graphics.hpp</text>
</a>
</g>
</g>
<!-- Node1&#45;&gt;Node12 -->
<g id="edge16" class="edge"><title>Node1&#45;&gt;Node12</title>
<path fill="none" stroke="midnightblue" d="M489.061,-303.456C498.492,-247.623 521.527,-111.245 527.543,-75.6255"/>
<polygon fill="midnightblue" stroke="midnightblue" points="485.58,-303.051 487.366,-313.494 492.482,-304.217 485.58,-303.051"/>
</g>
<!-- Node13 -->
<g id="node13" class="node"><title>Node13</title>
<g id="a_node13"><a xlink:href="../../d3/db2/Base_8hpp.html" target="_top" xlink:title="Contain base classes to create interoperable SFML widgets. ">
<polygon fill="white" stroke="black" points="770,-246.5 770,-276.5 884,-276.5 884,-246.5 770,-246.5"/>
<text text-anchor="start" x="778" y="-264.5" font-family="Helvetica,sans-Serif" font-size="10.00">include/Small/Widgets</text>
<text text-anchor="middle" x="827" y="-253.5" font-family="Helvetica,sans-Serif" font-size="10.00">/Base.hpp</text>
</a>
</g>
</g>
<!-- Node1&#45;&gt;Node13 -->
<g id="edge18" class="edge"><title>Node1&#45;&gt;Node13</title>
<path fill="none" stroke="midnightblue" d="M553.711,-314.441C617.167,-302.38 710.336,-284.673 769.828,-273.366"/>
<polygon fill="midnightblue" stroke="midnightblue" points="552.963,-311.02 543.792,-316.326 554.27,-317.897 552.963,-311.02"/>
</g>
<!-- Node3 -->
<g id="node3" class="node"><title>Node3</title>
<g id="a_node3"><a xlink:href="../../df/d74/SceneManager_8hpp.html" target="_top" xlink:title="Define the scene manager (creating, handling and destroying them) ">
<polygon fill="white" stroke="black" points="32,-179.5 32,-209.5 136,-209.5 136,-179.5 32,-179.5"/>
<text text-anchor="start" x="40" y="-197.5" font-family="Helvetica,sans-Serif" font-size="10.00">include/Small/Core</text>
<text text-anchor="middle" x="84" y="-186.5" font-family="Helvetica,sans-Serif" font-size="10.00">/SceneManager.hpp</text>
</a>
</g>
</g>
<!-- Node2&#45;&gt;Node3 -->
<g id="edge2" class="edge"><title>Node2&#45;&gt;Node3</title>
<path fill="none" stroke="midnightblue" d="M203.043,-242.682C176.74,-232.257 144,-219.281 119.516,-209.577"/>
<polygon fill="midnightblue" stroke="midnightblue" points="201.828,-245.965 212.414,-246.396 204.408,-239.458 201.828,-245.965"/>
</g>
<!-- Node5 -->
<g id="node5" class="node"><title>Node5</title>
<g id="a_node5"><a xlink:href="../../d7/d38/Core_8hpp.html" target="_top" xlink:title="Include all the files from the Core folder. ">
<polygon fill="white" stroke="black" points="86.5,-56.5 86.5,-75.5 203.5,-75.5 203.5,-56.5 86.5,-56.5"/>
<text text-anchor="middle" x="145" y="-63.5" font-family="Helvetica,sans-Serif" font-size="10.00">include/Small/Core.hpp</text>
</a>
</g>
</g>
<!-- Node2&#45;&gt;Node5 -->
<g id="edge7" class="edge"><title>Node2&#45;&gt;Node5</title>
<path fill="none" stroke="midnightblue" d="M214.203,-240.662C202.816,-232.474 190.986,-222.057 183,-210 153.637,-165.668 146.914,-99.5325 145.416,-75.839"/>
<polygon fill="midnightblue" stroke="midnightblue" points="212.517,-243.748 222.753,-246.48 216.455,-237.961 212.517,-243.748"/>
</g>
<!-- Node7 -->
<g id="node7" class="node"><title>Node7</title>
<g id="a_node7"><a xlink:href="../../de/de7/ArkScene_8hpp.html" target="_top" xlink:title="Define a scene scriptable through ArkScript. ">
<polygon fill="white" stroke="black" points="192.5,-179.5 192.5,-209.5 303.5,-209.5 303.5,-179.5 192.5,-179.5"/>
<text text-anchor="start" x="200.5" y="-197.5" font-family="Helvetica,sans-Serif" font-size="10.00">include/Small/Scenes</text>
<text text-anchor="middle" x="248" y="-186.5" font-family="Helvetica,sans-Serif" font-size="10.00">/ArkScene.hpp</text>
</a>
</g>
</g>
<!-- Node2&#45;&gt;Node7 -->
<g id="edge8" class="edge"><title>Node2&#45;&gt;Node7</title>
<path fill="none" stroke="midnightblue" d="M248,-236.108C248,-227.154 248,-217.323 248,-209.577"/>
<polygon fill="midnightblue" stroke="midnightblue" points="244.5,-236.396 248,-246.396 251.5,-236.396 244.5,-236.396"/>
</g>
<!-- Node9 -->
<g id="node9" class="node"><title>Node9</title>
<g id="a_node9"><a xlink:href="../../d2/d50/Zone_8hpp.html" target="_top" xlink:title="A specialized scene to handle zones and transitions on a tilemap. ">
<polygon fill="white" stroke="black" points="321.5,-179.5 321.5,-209.5 432.5,-209.5 432.5,-179.5 321.5,-179.5"/>
<text text-anchor="start" x="329.5" y="-197.5" font-family="Helvetica,sans-Serif" font-size="10.00">include/Small/Scenes</text>
<text text-anchor="middle" x="377" y="-186.5" font-family="Helvetica,sans-Serif" font-size="10.00">/Zone.hpp</text>
</a>
</g>
</g>
<!-- Node2&#45;&gt;Node9 -->
<g id="edge11" class="edge"><title>Node2&#45;&gt;Node9</title>
<path fill="none" stroke="midnightblue" d="M285.007,-241.853C305.403,-231.576 330.312,-219.025 349.064,-209.577"/>
<polygon fill="midnightblue" stroke="midnightblue" points="283.347,-238.77 275.991,-246.396 286.496,-245.022 283.347,-238.77"/>
</g>
<!-- Node4 -->
<g id="node4" class="node"><title>Node4</title>
<g id="a_node4"><a xlink:href="../../df/d3c/Application_8hpp.html" target="_top" xlink:title="Define the application hosting the scenes for the game. ">
<polygon fill="white" stroke="black" points="0,-112.5 0,-142.5 98,-142.5 98,-112.5 0,-112.5"/>
<text text-anchor="start" x="8" y="-130.5" font-family="Helvetica,sans-Serif" font-size="10.00">include/Small/Core</text>
<text text-anchor="middle" x="49" y="-119.5" font-family="Helvetica,sans-Serif" font-size="10.00">/Application.hpp</text>
</a>
</g>
</g>
<!-- Node3&#45;&gt;Node4 -->
<g id="edge3" class="edge"><title>Node3&#45;&gt;Node4</title>
<path fill="none" stroke="midnightblue" d="M71.6561,-170.576C66.6296,-161.241 60.9799,-150.748 56.5797,-142.577"/>
<polygon fill="midnightblue" stroke="midnightblue" points="68.5828,-172.251 76.4055,-179.396 74.7461,-168.932 68.5828,-172.251"/>
</g>
<!-- Node3&#45;&gt;Node5 -->
<g id="edge6" class="edge"><title>Node3&#45;&gt;Node5</title>
<path fill="none" stroke="midnightblue" d="M95.2057,-170.262C108.914,-141.835 131.444,-95.113 140.762,-75.7885"/>
<polygon fill="midnightblue" stroke="midnightblue" points="91.9521,-168.951 90.7611,-179.479 98.2573,-171.992 91.9521,-168.951"/>
</g>
<!-- Node4&#45;&gt;Node5 -->
<g id="edge4" class="edge"><title>Node4&#45;&gt;Node5</title>
<path fill="none" stroke="midnightblue" d="M80.3512,-107.069C97.4641,-96.4624 117.8,-83.8586 131.031,-75.6578"/>
<polygon fill="midnightblue" stroke="midnightblue" points="78.4066,-104.156 71.7507,-112.399 82.0944,-110.106 78.4066,-104.156"/>
</g>
<!-- Node6 -->
<g id="node6" class="node"><title>Node6</title>
<g id="a_node6"><a xlink:href="../../da/d41/All_8hpp.html" target="_top" xlink:title="Include the needed files to start a project using the library. ">
<polygon fill="white" stroke="black" points="310,-0.5 310,-19.5 418,-19.5 418,-0.5 310,-0.5"/>
<text text-anchor="middle" x="364" y="-7.5" font-family="Helvetica,sans-Serif" font-size="10.00">include/Small/All.hpp</text>
</a>
</g>
</g>
<!-- Node5&#45;&gt;Node6 -->
<g id="edge5" class="edge"><title>Node5&#45;&gt;Node6</title>
<path fill="none" stroke="midnightblue" d="M189.515,-54.0237C230.884,-43.8232 291.643,-28.8414 329.461,-19.5164"/>
<polygon fill="midnightblue" stroke="midnightblue" points="188.572,-50.6512 179.701,-56.4435 190.248,-57.4476 188.572,-50.6512"/>
</g>
<!-- Node8 -->
<g id="node8" class="node"><title>Node8</title>
<g id="a_node8"><a xlink:href="../../d0/d00/Scenes_8hpp.html" target="_top" xlink:title="Include all the files from the Scenes folder. ">
<polygon fill="white" stroke="black" points="192,-118 192,-137 322,-137 322,-118 192,-118"/>
<text text-anchor="middle" x="257" y="-125" font-family="Helvetica,sans-Serif" font-size="10.00">include/Small/Scenes.hpp</text>
</a>
</g>
</g>
<!-- Node7&#45;&gt;Node8 -->
<g id="edge9" class="edge"><title>Node7&#45;&gt;Node8</title>
<path fill="none" stroke="midnightblue" d="M251.358,-169.25C252.913,-158.017 254.663,-145.377 255.796,-137.195"/>
<polygon fill="midnightblue" stroke="midnightblue" points="247.858,-169.01 249.953,-179.396 254.791,-169.971 247.858,-169.01"/>
</g>
<!-- Node8&#45;&gt;Node6 -->
<g id="edge10" class="edge"><title>Node8&#45;&gt;Node6</title>
<path fill="none" stroke="midnightblue" d="M257.98,-107.297C259.675,-91.9279 264.176,-70.6016 276,-56 290.578,-37.9972 314.253,-26.4676 333.376,-19.5904"/>
<polygon fill="midnightblue" stroke="midnightblue" points="254.458,-107.434 257.157,-117.679 261.436,-107.987 254.458,-107.434"/>
</g>
<!-- Node9&#45;&gt;Node8 -->
<g id="edge12" class="edge"><title>Node9&#45;&gt;Node8</title>
<path fill="none" stroke="midnightblue" d="M341.873,-174.473C318.965,-162.064 290.178,-146.472 272.705,-137.007"/>
<polygon fill="midnightblue" stroke="midnightblue" points="340.502,-177.711 350.962,-179.396 343.836,-171.556 340.502,-177.711"/>
</g>
<!-- Node11 -->
<g id="node11" class="node"><title>Node11</title>
<g id="a_node11"><a xlink:href="../../d2/da1/GameObjects_8hpp.html" target="_top" xlink:title="Include all the files from the GameObjects folder. ">
<polygon fill="white" stroke="black" points="285.5,-56.5 285.5,-75.5 442.5,-75.5 442.5,-56.5 285.5,-56.5"/>
<text text-anchor="middle" x="364" y="-63.5" font-family="Helvetica,sans-Serif" font-size="10.00">include/Small/GameObjects.hpp</text>
</a>
</g>
</g>
<!-- Node10&#45;&gt;Node11 -->
<g id="edge14" class="edge"><title>Node10&#45;&gt;Node11</title>
<path fill="none" stroke="midnightblue" d="M392.289,-104.404C384.731,-94.411 376.238,-83.1815 370.548,-75.6578"/>
<polygon fill="midnightblue" stroke="midnightblue" points="389.512,-106.535 398.336,-112.399 395.095,-102.312 389.512,-106.535"/>
</g>
<!-- Node11&#45;&gt;Node6 -->
<g id="edge15" class="edge"><title>Node11&#45;&gt;Node6</title>
<path fill="none" stroke="midnightblue" d="M364,-45.8045C364,-36.9102 364,-26.7798 364,-19.7511"/>
<polygon fill="midnightblue" stroke="midnightblue" points="360.5,-46.083 364,-56.083 367.5,-46.083 360.5,-46.083"/>
</g>
<!-- Node12&#45;&gt;Node6 -->
<g id="edge17" class="edge"><title>Node12&#45;&gt;Node6</title>
<path fill="none" stroke="midnightblue" d="M493.264,-53.3044C462.173,-43.1294 417.853,-28.6246 390.022,-19.5164"/>
<polygon fill="midnightblue" stroke="midnightblue" points="492.263,-56.6595 502.855,-56.4435 494.44,-50.0067 492.263,-56.6595"/>
</g>
<!-- Node14 -->
<g id="node14" class="node"><title>Node14</title>
<g id="a_node14"><a xlink:href="../../d4/db3/Button_8hpp.html" target="_top" xlink:title="Basic button widget. ">
<polygon fill="white" stroke="black" points="534,-179.5 534,-209.5 648,-209.5 648,-179.5 534,-179.5"/>
<text text-anchor="start" x="542" y="-197.5" font-family="Helvetica,sans-Serif" font-size="10.00">include/Small/Widgets</text>
<text text-anchor="middle" x="591" y="-186.5" font-family="Helvetica,sans-Serif" font-size="10.00">/Button.hpp</text>
</a>
</g>
</g>
<!-- Node13&#45;&gt;Node14 -->
<g id="edge19" class="edge"><title>Node13&#45;&gt;Node14</title>
<path fill="none" stroke="midnightblue" d="M766.057,-243.715C727.652,-233.137 678.628,-219.635 642.233,-209.611"/>
<polygon fill="midnightblue" stroke="midnightblue" points="765.512,-247.195 776.082,-246.476 767.37,-240.446 765.512,-247.195"/>
</g>
<!-- Node15 -->
<g id="node15" class="node"><title>Node15</title>
<g id="a_node15"><a xlink:href="../../d0/d27/Widgets_8hpp.html" target="_top" xlink:title="Include all the files from the Widgets folder. ">
<polygon fill="white" stroke="black" points="760.5,-118 760.5,-137 893.5,-137 893.5,-118 760.5,-118"/>
<text text-anchor="middle" x="827" y="-125" font-family="Helvetica,sans-Serif" font-size="10.00">include/Small/Widgets.hpp</text>
</a>
</g>
</g>
<!-- Node13&#45;&gt;Node15 -->
<g id="edge32" class="edge"><title>Node13&#45;&gt;Node15</title>
<path fill="none" stroke="midnightblue" d="M760.209,-251.124C735.509,-244.059 709.919,-231.681 695,-210 668.969,-172.17 736.164,-148.579 783.952,-137.041"/>
<polygon fill="midnightblue" stroke="midnightblue" points="759.412,-254.533 769.971,-253.666 761.176,-247.759 759.412,-254.533"/>
</g>
<!-- Node16 -->
<g id="node16" class="node"><title>Node16</title>
<g id="a_node16"><a xlink:href="../../d5/d28/CheckBox_8hpp.html" target="_top" xlink:title="Basic checkbox widget. ">
<polygon fill="white" stroke="black" points="704,-179.5 704,-209.5 818,-209.5 818,-179.5 704,-179.5"/>
<text text-anchor="start" x="712" y="-197.5" font-family="Helvetica,sans-Serif" font-size="10.00">include/Small/Widgets</text>
<text text-anchor="middle" x="761" y="-186.5" font-family="Helvetica,sans-Serif" font-size="10.00">/CheckBox.hpp</text>
</a>
</g>
</g>
<!-- Node13&#45;&gt;Node16 -->
<g id="edge22" class="edge"><title>Node13&#45;&gt;Node16</title>
<path fill="none" stroke="midnightblue" d="M805.485,-239.311C795.585,-229.561 784.109,-218.259 775.293,-209.577"/>
<polygon fill="midnightblue" stroke="midnightblue" points="803.098,-241.873 812.679,-246.396 808.01,-236.885 803.098,-241.873"/>
</g>
<!-- Node17 -->
<g id="node17" class="node"><title>Node17</title>
<g id="a_node17"><a xlink:href="../../d8/dde/Image_8hpp.html" target="_top" xlink:title="Basic image widget. ">
<polygon fill="white" stroke="black" points="836,-179.5 836,-209.5 950,-209.5 950,-179.5 836,-179.5"/>
<text text-anchor="start" x="844" y="-197.5" font-family="Helvetica,sans-Serif" font-size="10.00">include/Small/Widgets</text>
<text text-anchor="middle" x="893" y="-186.5" font-family="Helvetica,sans-Serif" font-size="10.00">/Image.hpp</text>
</a>
</g>
</g>
<!-- Node13&#45;&gt;Node17 -->
<g id="edge24" class="edge"><title>Node13&#45;&gt;Node17</title>
<path fill="none" stroke="midnightblue" d="M848.515,-239.311C858.415,-229.561 869.891,-218.259 878.707,-209.577"/>
<polygon fill="midnightblue" stroke="midnightblue" points="845.99,-236.885 841.321,-246.396 850.902,-241.873 845.99,-236.885"/>
</g>
<!-- Node18 -->
<g id="node18" class="node"><title>Node18</title>
<g id="a_node18"><a xlink:href="../../da/d44/Label_8hpp.html" target="_top" xlink:title="Basic label widget. ">
<polygon fill="white" stroke="black" points="968,-179.5 968,-209.5 1082,-209.5 1082,-179.5 968,-179.5"/>
<text text-anchor="start" x="976" y="-197.5" font-family="Helvetica,sans-Serif" font-size="10.00">include/Small/Widgets</text>
<text text-anchor="middle" x="1025" y="-186.5" font-family="Helvetica,sans-Serif" font-size="10.00">/Label.hpp</text>
</a>
</g>
</g>
<!-- Node13&#45;&gt;Node18 -->
<g id="edge26" class="edge"><title>Node13&#45;&gt;Node18</title>
<path fill="none" stroke="midnightblue" d="M879.614,-243.228C911.643,-232.713 952.042,-219.451 982.121,-209.577"/>
<polygon fill="midnightblue" stroke="midnightblue" points="878.372,-239.951 869.963,-246.396 880.556,-246.602 878.372,-239.951"/>
</g>
<!-- Node19 -->
<g id="node19" class="node"><title>Node19</title>
<g id="a_node19"><a xlink:href="../../d4/df9/Layout_8hpp.html" target="_top" xlink:title="A widget acting as a collection of widgets. ">
<polygon fill="white" stroke="black" points="1100,-179.5 1100,-209.5 1214,-209.5 1214,-179.5 1100,-179.5"/>
<text text-anchor="start" x="1108" y="-197.5" font-family="Helvetica,sans-Serif" font-size="10.00">include/Small/Widgets</text>
<text text-anchor="middle" x="1157" y="-186.5" font-family="Helvetica,sans-Serif" font-size="10.00">/Layout.hpp</text>
</a>
</g>
</g>
<!-- Node13&#45;&gt;Node19 -->
<g id="edge28" class="edge"><title>Node13&#45;&gt;Node19</title>
<path fill="none" stroke="midnightblue" d="M894.282,-248.153C947.692,-238.225 1024.23,-223.719 1091,-210 1093.87,-209.41 1096.81,-208.797 1099.78,-208.17"/>
<polygon fill="midnightblue" stroke="midnightblue" points="893.446,-244.748 884.252,-250.014 894.723,-251.631 893.446,-244.748"/>
</g>
<!-- Node20 -->
<g id="node20" class="node"><title>Node20</title>
<g id="a_node20"><a xlink:href="../../d6/dc2/TextBox_8hpp.html" target="_top" xlink:title="Basic textbox widget. ">
<polygon fill="white" stroke="black" points="1232,-179.5 1232,-209.5 1346,-209.5 1346,-179.5 1232,-179.5"/>
<text text-anchor="start" x="1240" y="-197.5" font-family="Helvetica,sans-Serif" font-size="10.00">include/Small/Widgets</text>
<text text-anchor="middle" x="1289" y="-186.5" font-family="Helvetica,sans-Serif" font-size="10.00">/TextBox.hpp</text>
</a>
</g>
</g>
<!-- Node13&#45;&gt;Node20 -->
<g id="edge30" class="edge"><title>Node13&#45;&gt;Node20</title>
<path fill="none" stroke="midnightblue" d="M894.597,-253.741C973.649,-245.406 1108.3,-229.872 1223,-210 1225.89,-209.499 1228.84,-208.958 1231.82,-208.389"/>
<polygon fill="midnightblue" stroke="midnightblue" points="893.874,-250.297 884.292,-254.82 894.603,-257.259 893.874,-250.297"/>
</g>
<!-- Node14&#45;&gt;Node15 -->
<g id="edge20" class="edge"><title>Node14&#45;&gt;Node15</title>
<path fill="none" stroke="midnightblue" d="M651.813,-176.751C697.97,-164.038 759.522,-147.085 796.034,-137.029"/>
<polygon fill="midnightblue" stroke="midnightblue" points="650.63,-173.446 641.918,-179.476 652.488,-180.195 650.63,-173.446"/>
</g>
<!-- Node15&#45;&gt;Node6 -->
<g id="edge21" class="edge"><title>Node15&#45;&gt;Node6</title>
<path fill="none" stroke="midnightblue" d="M793.769,-114.463C750.849,-99.249 673.617,-73.0009 606,-56 542.176,-39.9527 467.566,-26.9278 418.243,-19.0962"/>
<polygon fill="midnightblue" stroke="midnightblue" points="792.813,-117.837 803.407,-117.898 795.163,-111.244 792.813,-117.837"/>
</g>
<!-- Node16&#45;&gt;Node15 -->
<g id="edge23" class="edge"><title>Node16&#45;&gt;Node15</title>
<path fill="none" stroke="midnightblue" d="M782.491,-172.335C794.608,-160.401 809.093,-146.136 818.172,-137.195"/>
<polygon fill="midnightblue" stroke="midnightblue" points="779.99,-169.885 775.321,-179.396 784.902,-174.873 779.99,-169.885"/>
</g>
<!-- Node17&#45;&gt;Node15 -->
<g id="edge25" class="edge"><title>Node17&#45;&gt;Node15</title>
<path fill="none" stroke="midnightblue" d="M871.509,-172.335C859.392,-160.401 844.907,-146.136 835.828,-137.195"/>
<polygon fill="midnightblue" stroke="midnightblue" points="869.098,-174.873 878.679,-179.396 874.01,-169.885 869.098,-174.873"/>
</g>
<!-- Node18&#45;&gt;Node15 -->
<g id="edge27" class="edge"><title>Node18&#45;&gt;Node15</title>
<path fill="none" stroke="midnightblue" d="M972.511,-176.269C933.93,-163.603 883.154,-146.934 852.914,-137.007"/>
<polygon fill="midnightblue" stroke="midnightblue" points="971.444,-179.602 982.037,-179.396 973.628,-172.951 971.444,-179.602"/>
</g>
<!-- Node19&#45;&gt;Node15 -->
<g id="edge29" class="edge"><title>Node19&#45;&gt;Node15</title>
<path fill="none" stroke="midnightblue" d="M1089.85,-178.792C1008.26,-162.124 924.58,-146.424 873.811,-137.056"/>
<polygon fill="midnightblue" stroke="midnightblue" points="1089.28,-182.25 1099.78,-180.83 1090.69,-175.392 1089.28,-182.25"/>
</g>
<!-- Node20&#45;&gt;Node15 -->
<g id="edge31" class="edge"><title>Node20&#45;&gt;Node15</title>
<path fill="none" stroke="midnightblue" d="M1221.64,-178.857C1100.58,-158.218 970.622,-143.266 893.835,-135.179"/>
<polygon fill="midnightblue" stroke="midnightblue" points="1221.38,-182.363 1231.82,-180.611 1222.56,-175.465 1221.38,-182.363"/>
</g>
</g>
</svg>
