<?xml version="1.0" encoding="UTF-8" standalone="no"?>
<!DOCTYPE svg PUBLIC "-//W3C//DTD SVG 1.1//EN"
 "http://www.w3.org/Graphics/SVG/1.1/DTD/svg11.dtd">
<!-- Generated by graphviz version 2.38.0 (20140413.2041)
 -->
<!-- Title: sgl::Graphics::AnimationLoader Pages: 1 -->
<svg width="346pt" height="429pt"
 viewBox="0.00 0.00 345.50 429.00" xmlns="http://www.w3.org/2000/svg" xmlns:xlink="http://www.w3.org/1999/xlink">
<g id="graph0" class="graph" transform="scale(1 1) rotate(0) translate(4 425)">
<title>sgl::Graphics::AnimationLoader</title>
<polygon fill="white" stroke="none" points="-4,4 -4,-425 341.5,-425 341.5,4 -4,4"/>
<!-- Node1 -->
<g id="node1" class="node"><title>Node1</title>
<polygon fill="#bfbfbf" stroke="black" points="159,-0.5 159,-30.5 283,-30.5 283,-0.5 159,-0.5"/>
<text text-anchor="start" x="167" y="-18.5" font-family="Helvetica,sans-Serif" font-size="10.00">sgl::Graphics::Animation</text>
<text text-anchor="middle" x="221" y="-7.5" font-family="Helvetica,sans-Serif" font-size="10.00">Loader</text>
</g>
<!-- Node2 -->
<g id="node2" class="node"><title>Node2</title>
<g id="a_node2"><a xlink:title="STL class. ">
<polygon fill="white" stroke="#bfbfbf" points="234,-167.5 234,-186.5 294,-186.5 294,-167.5 234,-167.5"/>
<text text-anchor="middle" x="264" y="-174.5" font-family="Helvetica,sans-Serif" font-size="10.00">std::string</text>
</a>
</g>
</g>
<!-- Node2&#45;&gt;Node1 -->
<g id="edge1" class="edge"><title>Node2&#45;&gt;Node1</title>
<path fill="none" stroke="#9a32cd" stroke-dasharray="5,2" d="M265.407,-157.009C266.549,-131.336 265.893,-84.6687 250,-49 246.984,-42.2308 242.027,-35.8815 237.057,-30.6227"/>
<polygon fill="#9a32cd" stroke="#9a32cd" points="261.9,-157.024 264.805,-167.212 268.888,-157.436 261.9,-157.024"/>
<text text-anchor="middle" x="294" y="-96.5" font-family="Helvetica,sans-Serif" font-size="10.00"> m_textureID</text>
</g>
<!-- Node4 -->
<g id="node4" class="node"><title>Node4</title>
<polygon fill="white" stroke="#bfbfbf" points="114,-78.5 114,-119.5 228,-119.5 228,-78.5 114,-78.5"/>
<text text-anchor="start" x="122" y="-107.5" font-family="Helvetica,sans-Serif" font-size="10.00">std::unordered_map</text>
<text text-anchor="start" x="122" y="-96.5" font-family="Helvetica,sans-Serif" font-size="10.00">&lt; std::string, sgl::</text>
<text text-anchor="middle" x="171" y="-85.5" font-family="Helvetica,sans-Serif" font-size="10.00">Graphics::Animation &gt;</text>
</g>
<!-- Node2&#45;&gt;Node4 -->
<g id="edge8" class="edge"><title>Node2&#45;&gt;Node4</title>
<path fill="none" stroke="#9a32cd" stroke-dasharray="5,2" d="M242.177,-161.64C236.478,-157.688 230.417,-153.302 225,-149 213.402,-139.788 201.126,-128.762 191.214,-119.503"/>
<polygon fill="#9a32cd" stroke="#9a32cd" points="240.451,-164.698 250.691,-167.417 244.381,-158.906 240.451,-164.698"/>
<text text-anchor="middle" x="237.5" y="-141" font-family="Helvetica,sans-Serif" font-size="10.00"> keys</text>
</g>
<!-- Node3 -->
<g id="node3" class="node"><title>Node3</title>
<g id="a_node3"><a xlink:title="STL class. ">
<polygon fill="white" stroke="#bfbfbf" points="242.5,-245.5 242.5,-275.5 337.5,-275.5 337.5,-245.5 242.5,-245.5"/>
<text text-anchor="start" x="250.5" y="-263.5" font-family="Helvetica,sans-Serif" font-size="10.00">std::basic_string&lt;</text>
<text text-anchor="middle" x="290" y="-252.5" font-family="Helvetica,sans-Serif" font-size="10.00"> char &gt;</text>
</a>
</g>
</g>
<!-- Node3&#45;&gt;Node2 -->
<g id="edge2" class="edge"><title>Node3&#45;&gt;Node2</title>
<path fill="none" stroke="midnightblue" d="M284.723,-235.388C282.392,-225.821 279.405,-214.787 276,-205 273.842,-198.799 270.842,-192.049 268.382,-186.849"/>
<polygon fill="midnightblue" stroke="midnightblue" points="281.383,-236.478 287.063,-245.421 288.2,-234.888 281.383,-236.478"/>
</g>
<!-- Node4&#45;&gt;Node1 -->
<g id="edge3" class="edge"><title>Node4&#45;&gt;Node1</title>
<path fill="none" stroke="#9a32cd" stroke-dasharray="5,2" d="M177.221,-68.7323C179.391,-61.9514 182.255,-54.977 186,-49 190.227,-42.2544 196.205,-35.9977 202.027,-30.8118"/>
<polygon fill="#9a32cd" stroke="#9a32cd" points="173.843,-67.8166 174.518,-78.3899 180.584,-69.7036 173.843,-67.8166"/>
<text text-anchor="middle" x="218" y="-52" font-family="Helvetica,sans-Serif" font-size="10.00"> m_animations</text>
</g>
<!-- Node5 -->
<g id="node5" class="node"><title>Node5</title>
<g id="a_node5"><a xlink:href="../../d0/db1/classsgl_1_1Graphics_1_1Animation.html" target="_top" xlink:title="Handling animated sprites. ">
<polygon fill="white" stroke="black" points="16,-167.5 16,-186.5 140,-186.5 140,-167.5 16,-167.5"/>
<text text-anchor="middle" x="78" y="-174.5" font-family="Helvetica,sans-Serif" font-size="10.00">sgl::Graphics::Animation</text>
</a>
</g>
</g>
<!-- Node5&#45;&gt;Node4 -->
<g id="edge4" class="edge"><title>Node5&#45;&gt;Node4</title>
<path fill="none" stroke="#9a32cd" stroke-dasharray="5,2" d="M91.948,-159.705C98.3356,-152.67 106.208,-144.566 114,-138 121.64,-131.562 130.403,-125.258 138.73,-119.693"/>
<polygon fill="#9a32cd" stroke="#9a32cd" points="89.2219,-157.505 85.2253,-167.317 94.4685,-162.138 89.2219,-157.505"/>
<text text-anchor="middle" x="135.5" y="-141" font-family="Helvetica,sans-Serif" font-size="10.00"> elements</text>
</g>
<!-- Node6 -->
<g id="node6" class="node"><title>Node6</title>
<polygon fill="white" stroke="#bfbfbf" points="0,-251 0,-270 124,-270 124,-251 0,-251"/>
<text text-anchor="middle" x="62" y="-258" font-family="Helvetica,sans-Serif" font-size="10.00">std::vector&lt; sf::IntRect &gt;</text>
</g>
<!-- Node6&#45;&gt;Node5 -->
<g id="edge5" class="edge"><title>Node6&#45;&gt;Node5</title>
<path fill="none" stroke="#9a32cd" stroke-dasharray="5,2" d="M65.6586,-240.864C68.9966,-223.861 73.7812,-199.49 76.3,-186.659"/>
<polygon fill="#9a32cd" stroke="#9a32cd" points="62.2043,-240.291 63.7123,-250.778 69.0732,-241.64 62.2043,-240.291"/>
<text text-anchor="middle" x="96" y="-213.5" font-family="Helvetica,sans-Serif" font-size="10.00"> m_frames</text>
</g>
<!-- Node7 -->
<g id="node7" class="node"><title>Node7</title>
<g id="a_node7"><a xlink:title="STL class. ">
<polygon fill="white" stroke="#bfbfbf" points="17.5,-329 17.5,-348 102.5,-348 102.5,-329 17.5,-329"/>
<text text-anchor="middle" x="60" y="-336" font-family="Helvetica,sans-Serif" font-size="10.00">std::vector&lt; T &gt;</text>
</a>
</g>
</g>
<!-- Node7&#45;&gt;Node6 -->
<g id="edge6" class="edge"><title>Node7&#45;&gt;Node6</title>
<path fill="none" stroke="orange" stroke-dasharray="5,2" d="M60.4941,-318.724C60.9027,-303.197 61.4643,-281.858 61.7733,-270.116"/>
<polygon fill="orange" stroke="orange" points="56.9938,-318.693 60.2294,-328.782 63.9914,-318.877 56.9938,-318.693"/>
<text text-anchor="middle" x="95" y="-297" font-family="Helvetica,sans-Serif" font-size="10.00"> &lt; sf::IntRect &gt;</text>
</g>
<!-- Node8 -->
<g id="node8" class="node"><title>Node8</title>
<polygon fill="white" stroke="#bfbfbf" points="78.5,-401.5 78.5,-420.5 107.5,-420.5 107.5,-401.5 78.5,-401.5"/>
<text text-anchor="middle" x="93" y="-408.5" font-family="Helvetica,sans-Serif" font-size="10.00">T</text>
</g>
<!-- Node8&#45;&gt;Node7 -->
<g id="edge7" class="edge"><title>Node8&#45;&gt;Node7</title>
<path fill="none" stroke="#9a32cd" stroke-dasharray="5,2" d="M70.3587,-395.23C66.5911,-391.695 63.1989,-387.594 61,-383 55.7161,-371.962 56.7192,-357.474 58.1682,-348.323"/>
<polygon fill="#9a32cd" stroke="#9a32cd" points="68.3721,-398.124 78.3574,-401.666 72.7602,-392.67 68.3721,-398.124"/>
<text text-anchor="middle" x="82.5" y="-375" font-family="Helvetica,sans-Serif" font-size="10.00"> elements</text>
</g>
<!-- Node9 -->
<g id="node9" class="node"><title>Node9</title>
<g id="a_node9"><a xlink:title="STL class. ">
<polygon fill="white" stroke="#bfbfbf" points="120.5,-323.5 120.5,-353.5 223.5,-353.5 223.5,-323.5 120.5,-323.5"/>
<text text-anchor="start" x="128.5" y="-341.5" font-family="Helvetica,sans-Serif" font-size="10.00">std::unordered_map</text>
<text text-anchor="middle" x="172" y="-330.5" font-family="Helvetica,sans-Serif" font-size="10.00">&lt; K, T &gt;</text>
</a>
</g>
</g>
<!-- Node8&#45;&gt;Node9 -->
<g id="edge11" class="edge"><title>Node8&#45;&gt;Node9</title>
<path fill="none" stroke="#9a32cd" stroke-dasharray="5,2" d="M110.19,-394.343C117.773,-387.463 126.807,-379.304 135,-372 141.765,-365.969 149.271,-359.361 155.745,-353.687"/>
<polygon fill="#9a32cd" stroke="#9a32cd" points="107.686,-391.89 102.639,-401.206 112.394,-397.07 107.686,-391.89"/>
<text text-anchor="middle" x="156.5" y="-375" font-family="Helvetica,sans-Serif" font-size="10.00"> elements</text>
</g>
<!-- Node9&#45;&gt;Node4 -->
<g id="edge9" class="edge"><title>Node9&#45;&gt;Node4</title>
<path fill="none" stroke="orange" stroke-dasharray="5,2" d="M170.603,-312.902C169.246,-286.303 167.462,-242.653 168,-205 168.425,-175.277 169.525,-140.837 170.268,-119.736"/>
<polygon fill="orange" stroke="orange" points="167.124,-313.39 171.151,-323.19 174.114,-313.018 167.124,-313.39"/>
<text text-anchor="start" x="168" y="-219" font-family="Helvetica,sans-Serif" font-size="10.00"> &lt; std::string, sgl</text>
<text text-anchor="middle" x="220" y="-208" font-family="Helvetica,sans-Serif" font-size="10.00">::Graphics::Animation &gt;</text>
</g>
<!-- Node10 -->
<g id="node10" class="node"><title>Node10</title>
<polygon fill="white" stroke="#bfbfbf" points="177.5,-401.5 177.5,-420.5 206.5,-420.5 206.5,-401.5 177.5,-401.5"/>
<text text-anchor="middle" x="192" y="-408.5" font-family="Helvetica,sans-Serif" font-size="10.00">K</text>
</g>
<!-- Node10&#45;&gt;Node9 -->
<g id="edge10" class="edge"><title>Node10&#45;&gt;Node9</title>
<path fill="none" stroke="#9a32cd" stroke-dasharray="5,2" d="M186.78,-391.601C183.409,-379.718 179.091,-364.494 175.993,-353.576"/>
<polygon fill="#9a32cd" stroke="#9a32cd" points="183.451,-392.69 189.548,-401.355 190.185,-390.78 183.451,-392.69"/>
<text text-anchor="middle" x="196.5" y="-375" font-family="Helvetica,sans-Serif" font-size="10.00"> keys</text>
</g>
</g>
</svg>
