<?xml version="1.0" encoding="UTF-8" standalone="no"?>
<!DOCTYPE svg PUBLIC "-//W3C//DTD SVG 1.1//EN"
 "http://www.w3.org/Graphics/SVG/1.1/DTD/svg11.dtd">
<!-- Generated by graphviz version 2.49.0 (20210828.1703)
 -->
<!-- Title: sgl::Scenes::ArkScene Pages: 1 -->
<svg width="527pt" height="154pt"
 viewBox="0.00 0.00 527.00 153.50" xmlns="http://www.w3.org/2000/svg" xmlns:xlink="http://www.w3.org/1999/xlink">
<g id="graph0" class="graph" transform="scale(1 1) rotate(0) translate(4 149.5)">
<title>sgl::Scenes::ArkScene</title>
<polygon fill="white" stroke="transparent" points="-4,4 -4,-149.5 523,-149.5 523,4 -4,4"/>
<!-- Node1 -->
<g id="node1" class="node">
<title>Node1</title>
<g id="a_node1"><a xlink:title="Define a scene scriptable through ArkScript.">
<polygon fill="#bfbfbf" stroke="black" points="402,-47 402,-66 519,-66 519,-47 402,-47"/>
<text text-anchor="middle" x="460.5" y="-54" font-family="Helvetica,sans-Serif" font-size="10.00">sgl::Scenes::ArkScene</text>
</a>
</g>
</g>
<!-- Node2 -->
<g id="node2" class="node">
<title>Node2</title>
<g id="a_node2"><a xlink:href="../../d8/dcf/classsgl_1_1Scene.html" target="_top" xlink:title="Base class which every user scene must derive from.">
<polygon fill="white" stroke="black" points="236,-69 236,-88 299,-88 299,-69 236,-69"/>
<text text-anchor="middle" x="267.5" y="-76" font-family="Helvetica,sans-Serif" font-size="10.00">sgl::Scene</text>
</a>
</g>
</g>
<!-- Node2&#45;&gt;Node1 -->
<g id="edge1" class="edge">
<title>Node2&#45;&gt;Node1</title>
<path fill="none" stroke="midnightblue" d="M309.43,-73.79C336.4,-70.68 372.11,-66.57 401.92,-63.13"/>
<polygon fill="midnightblue" stroke="midnightblue" points="308.72,-70.34 299.19,-74.97 309.52,-77.3 308.72,-70.34"/>
</g>
<!-- Node3 -->
<g id="node3" class="node">
<title>Node3</title>
<g id="a_node3"><a xlink:href="../../dc/dee/classsgl_1_1Graphics_1_1Node.html" target="_top" xlink:title="Abstract base class for a scene graph node.">
<polygon fill="white" stroke="black" points="8,-126 8,-145 111,-145 111,-126 8,-126"/>
<text text-anchor="middle" x="59.5" y="-133" font-family="Helvetica,sans-Serif" font-size="10.00">sgl::Graphics::Node</text>
</a>
</g>
</g>
<!-- Node3&#45;&gt;Node2 -->
<g id="edge2" class="edge">
<title>Node3&#45;&gt;Node2</title>
<path fill="none" stroke="midnightblue" d="M121.41,-127.84C151.1,-123.03 187.01,-115.57 218,-104.5 229.7,-100.32 242.02,-93.68 251.32,-88.16"/>
<polygon fill="midnightblue" stroke="midnightblue" points="120.52,-124.44 111.18,-129.44 121.6,-131.36 120.52,-124.44"/>
</g>
<!-- Node4 -->
<g id="node4" class="node">
<title>Node4</title>
<g id="a_node4"><a xlink:href="../../de/dd2/classsgl_1_1SceneManager.html" target="_top" xlink:title="Scene manager, in charge of creating, handling and destroying scenes.">
<polygon fill="white" stroke="black" points="9,-88 9,-107 110,-107 110,-88 9,-88"/>
<text text-anchor="middle" x="59.5" y="-95" font-family="Helvetica,sans-Serif" font-size="10.00">sgl::SceneManager</text>
</a>
</g>
</g>
<!-- Node4&#45;&gt;Node2 -->
<g id="edge3" class="edge">
<title>Node4&#45;&gt;Node2</title>
<path fill="none" stroke="#9a32cd" stroke-dasharray="5,2" d="M120.5,-91.97C158.3,-88.48 205.53,-84.12 235.85,-81.33"/>
<polygon fill="#9a32cd" stroke="#9a32cd" points="119.74,-88.52 110.1,-92.92 120.38,-95.49 119.74,-88.52"/>
<text text-anchor="middle" x="177.5" y="-92.5" font-family="Helvetica,sans-Serif" font-size="10.00"> m_sceneManager</text>
</g>
<!-- Node5 -->
<g id="node5" class="node">
<title>Node5</title>
<g id="a_node5"><a xlink:href="../../df/d2e/classsgl_1_1RessourceManager.html" target="_top" xlink:title="Holds and loads ressources automatically.">
<polygon fill="white" stroke="black" points="0,-50 0,-69 119,-69 119,-50 0,-50"/>
<text text-anchor="middle" x="59.5" y="-57" font-family="Helvetica,sans-Serif" font-size="10.00">sgl::RessourceManager</text>
</a>
</g>
</g>
<!-- Node5&#45;&gt;Node2 -->
<g id="edge4" class="edge">
<title>Node5&#45;&gt;Node2</title>
<path fill="none" stroke="#9a32cd" stroke-dasharray="5,2" d="M129.42,-60.43C157.06,-61.47 189.14,-63.52 218,-67.5 223.82,-68.3 229.96,-69.45 235.86,-70.71"/>
<polygon fill="#9a32cd" stroke="#9a32cd" points="129.18,-56.92 119.07,-60.08 128.94,-63.92 129.18,-56.92"/>
<text text-anchor="middle" x="177.5" y="-70.5" font-family="Helvetica,sans-Serif" font-size="10.00"> m_ressources</text>
</g>
<!-- Node6 -->
<g id="node6" class="node">
<title>Node6</title>
<g id="a_node6"><a xlink:title=" ">
<polygon fill="white" stroke="#bfbfbf" points="237.5,-28 237.5,-47 297.5,-47 297.5,-28 237.5,-28"/>
<text text-anchor="middle" x="267.5" y="-35" font-family="Helvetica,sans-Serif" font-size="10.00">std::string</text>
</a>
</g>
</g>
<!-- Node6&#45;&gt;Node1 -->
<g id="edge5" class="edge">
<title>Node6&#45;&gt;Node1</title>
<path fill="none" stroke="#9a32cd" stroke-dasharray="5,2" d="M308.07,-40.61C330.38,-42.44 358.77,-44.9 384,-47.5 389.78,-48.09 395.8,-48.75 401.81,-49.43"/>
<polygon fill="#9a32cd" stroke="#9a32cd" points="308.21,-37.11 297.96,-39.79 307.64,-44.09 308.21,-37.11"/>
<text text-anchor="middle" x="350.5" y="-50.5" font-family="Helvetica,sans-Serif" font-size="10.00"> m_scriptName</text>
</g>
<!-- Node7 -->
<g id="node7" class="node">
<title>Node7</title>
<g id="a_node7"><a xlink:title=" ">
<polygon fill="white" stroke="#bfbfbf" points="12,-0.5 12,-30.5 107,-30.5 107,-0.5 12,-0.5"/>
<text text-anchor="start" x="20" y="-18.5" font-family="Helvetica,sans-Serif" font-size="10.00">std::basic_string&lt;</text>
<text text-anchor="middle" x="59.5" y="-7.5" font-family="Helvetica,sans-Serif" font-size="10.00"> Char &gt;</text>
</a>
</g>
</g>
<!-- Node7&#45;&gt;Node6 -->
<g id="edge6" class="edge">
<title>Node7&#45;&gt;Node6</title>
<path fill="none" stroke="midnightblue" d="M117.4,-21.58C156.34,-25.74 206.36,-31.08 237.42,-34.39"/>
<polygon fill="midnightblue" stroke="midnightblue" points="117.56,-18.07 107.24,-20.49 116.82,-25.03 117.56,-18.07"/>
</g>
</g>
</svg>
