<?xml version="1.0" encoding="UTF-8" standalone="no"?>
<!DOCTYPE svg PUBLIC "-//W3C//DTD SVG 1.1//EN"
 "http://www.w3.org/Graphics/SVG/1.1/DTD/svg11.dtd">
<!-- Generated by graphviz version 2.38.0 (20140413.2041)
 -->
<!-- Title: C:/Users/Folaefolc/Documents/Code/Big&#45;Projects/ScriptWizards/SmallGameLibrary/include/Small/Core Pages: 1 -->
<svg width="210pt" height="151pt"
 viewBox="0.00 0.00 209.50 151.00" xmlns="http://www.w3.org/2000/svg" xmlns:xlink="http://www.w3.org/1999/xlink">
<g id="graph0" class="graph" transform="scale(1 1) rotate(0) translate(4 147)">
<title>C:/Users/Folaefolc/Documents/Code/Big&#45;Projects/ScriptWizards/SmallGameLibrary/include/Small/Core</title>
<polygon fill="white" stroke="none" points="-4,4 -4,-147 205.5,-147 205.5,4 -4,4"/>
<g id="clust1" class="cluster"><title>clusterdir_290c9472403cc5ed1c12e7f70d4d05fb</title>
<g id="a_clust1"><a xlink:href="dir_290c9472403cc5ed1c12e7f70d4d05fb.html" target="_top" xlink:title="Small">
<polygon fill="#ddddee" stroke="black" points="66,-64 66,-135 136,-135 136,-64 66,-64"/>
<text text-anchor="middle" x="101" y="-123" font-family="Helvetica,sans-Serif" font-size="10.00">Small</text>
</a>
</g>
</g>
<!-- dir_53f09675a63f23c477f13832a6d20a2f -->
<g id="node1" class="node"><title>dir_53f09675a63f23c477f13832a6d20a2f</title>
<g id="a_node1"><a xlink:href="dir_53f09675a63f23c477f13832a6d20a2f.html" target="_top" xlink:title="Core">
<polygon fill="#eeeeff" stroke="black" points="128,-108 74,-108 74,-72 128,-72 128,-108"/>
<text text-anchor="middle" x="101" y="-87.5" font-family="Helvetica,sans-Serif" font-size="10.00">Core</text>
</a>
</g>
</g>
<!-- dir_818e4b2f1e99744b77701f4af6c4f9dd -->
<g id="node2" class="node"><title>dir_818e4b2f1e99744b77701f4af6c4f9dd</title>
<g id="a_node2"><a xlink:href="dir_818e4b2f1e99744b77701f4af6c4f9dd.html" target="_top" xlink:title="Graphics">
<polygon fill="none" stroke="black" points="56,-36 3.55271e-015,-36 3.55271e-015,-0 56,-0 56,-36"/>
<text text-anchor="middle" x="28" y="-15.5" font-family="Helvetica,sans-Serif" font-size="10.00">Graphics</text>
</a>
</g>
</g>
<!-- dir_53f09675a63f23c477f13832a6d20a2f&#45;&gt;dir_818e4b2f1e99744b77701f4af6c4f9dd -->
<g id="edge1" class="edge"><title>dir_53f09675a63f23c477f13832a6d20a2f&#45;&gt;dir_818e4b2f1e99744b77701f4af6c4f9dd</title>
<path fill="none" stroke="black" d="M82.9551,-71.6966C73.9381,-63.0503 62.8821,-52.4486 53.0568,-43.027"/>
<polygon fill="black" stroke="black" points="55.4777,-40.4993 45.8374,-36.1043 50.6328,-45.5518 55.4777,-40.4993"/>
<g id="a_edge1&#45;headlabel"><a xlink:href="dir_000002_000006.html" target="_top" xlink:title="1">
<text text-anchor="middle" x="60.0373" y="-38.4379" font-family="Helvetica,sans-Serif" font-size="10.00">1</text>
</a>
</g>
</g>
<!-- dir_6603688a4754880974aacb970dcbaae0 -->
<g id="node3" class="node"><title>dir_6603688a4754880974aacb970dcbaae0</title>
<g id="a_node3"><a xlink:href="dir_6603688a4754880974aacb970dcbaae0.html" target="_top" xlink:title="Debug">
<polygon fill="none" stroke="black" points="128,-36 74,-36 74,-0 128,-0 128,-36"/>
<text text-anchor="middle" x="101" y="-15.5" font-family="Helvetica,sans-Serif" font-size="10.00">Debug</text>
</a>
</g>
</g>
<!-- dir_53f09675a63f23c477f13832a6d20a2f&#45;&gt;dir_6603688a4754880974aacb970dcbaae0 -->
<g id="edge2" class="edge"><title>dir_53f09675a63f23c477f13832a6d20a2f&#45;&gt;dir_6603688a4754880974aacb970dcbaae0</title>
<path fill="none" stroke="black" d="M101,-71.6966C101,-63.9827 101,-54.7125 101,-46.1124"/>
<polygon fill="black" stroke="black" points="104.5,-46.1043 101,-36.1043 97.5001,-46.1044 104.5,-46.1043"/>
<g id="a_edge2&#45;headlabel"><a xlink:href="dir_000002_000003.html" target="_top" xlink:title="1">
<text text-anchor="middle" x="107.339" y="-47.199" font-family="Helvetica,sans-Serif" font-size="10.00">1</text>
</a>
</g>
</g>
<!-- dir_cd0fd4b73ca72f7d7c09733d8ad1472d -->
<g id="node4" class="node"><title>dir_cd0fd4b73ca72f7d7c09733d8ad1472d</title>
<g id="a_node4"><a xlink:href="dir_cd0fd4b73ca72f7d7c09733d8ad1472d.html" target="_top" xlink:title="Scripting">
<polygon fill="none" stroke="black" points="201.5,-36 146.5,-36 146.5,-0 201.5,-0 201.5,-36"/>
<text text-anchor="middle" x="174" y="-15.5" font-family="Helvetica,sans-Serif" font-size="10.00">Scripting</text>
</a>
</g>
</g>
<!-- dir_53f09675a63f23c477f13832a6d20a2f&#45;&gt;dir_cd0fd4b73ca72f7d7c09733d8ad1472d -->
<g id="edge3" class="edge"><title>dir_53f09675a63f23c477f13832a6d20a2f&#45;&gt;dir_cd0fd4b73ca72f7d7c09733d8ad1472d</title>
<path fill="none" stroke="black" d="M119.045,-71.6966C128.062,-63.0503 139.118,-52.4486 148.943,-43.027"/>
<polygon fill="black" stroke="black" points="151.367,-45.5518 156.163,-36.1043 146.522,-40.4993 151.367,-45.5518"/>
<g id="a_edge3&#45;headlabel"><a xlink:href="dir_000002_000008.html" target="_top" xlink:title="4">
<text text-anchor="middle" x="150.738" y="-47.589" font-family="Helvetica,sans-Serif" font-size="10.00">4</text>
</a>
</g>
</g>
</g>
</svg>
