<?xml version="1.0" encoding="UTF-8" standalone="no"?>
<!DOCTYPE svg PUBLIC "-//W3C//DTD SVG 1.1//EN"
 "http://www.w3.org/Graphics/SVG/1.1/DTD/svg11.dtd">
<!-- Generated by graphviz version 2.49.0 (20210828.1703)
 -->
<!-- Title: C:/Users/folae/Documents/Code/Big&#45;Projects/ScriptWizards/SmallGameLibrary/include/Small/Scenes Pages: 1 -->
<svg width="136pt" height="311pt"
 viewBox="0.00 0.00 136.00 311.00" xmlns="http://www.w3.org/2000/svg" xmlns:xlink="http://www.w3.org/1999/xlink">
<g id="graph0" class="graph" transform="scale(1 1) rotate(0) translate(4 307)">
<title>C:/Users/folae/Documents/Code/Big&#45;Projects/ScriptWizards/SmallGameLibrary/include/Small/Scenes</title>
<polygon fill="white" stroke="transparent" points="-4,4 -4,-307 132,-307 132,4 -4,4"/>
<g id="clust1" class="cluster">
<title>clusterdir_517f7d009caed18d50502f12c0d97ec3</title>
<g id="a_clust1"><a xlink:href="dir_517f7d009caed18d50502f12c0d97ec3.html" target="_top" xlink:title="Small">
<polygon fill="#ddddee" stroke="black" points="8,-8 8,-295 120,-295 120,-8 8,-8"/>
<text text-anchor="middle" x="64" y="-283" font-family="Helvetica,sans-Serif" font-size="10.00">Small</text>
</a>
</g>
</g>
<!-- dir_230ebb31a7b473b673878f5d3da6d001 -->
<g id="node1" class="node">
<title>dir_230ebb31a7b473b673878f5d3da6d001</title>
<g id="a_node1"><a xlink:href="dir_230ebb31a7b473b673878f5d3da6d001.html" target="_top" xlink:title="Graphics">
<polygon fill="none" stroke="black" points="72,-196 16,-196 16,-160 72,-160 72,-196"/>
<text text-anchor="middle" x="44" y="-175.5" font-family="Helvetica,sans-Serif" font-size="10.00">Graphics</text>
</a>
</g>
</g>
<!-- dir_3c803fb2e31f05de510171dcaff9bfbd -->
<g id="node2" class="node">
<title>dir_3c803fb2e31f05de510171dcaff9bfbd</title>
<g id="a_node2"><a xlink:href="dir_3c803fb2e31f05de510171dcaff9bfbd.html" target="_top" xlink:title="Core">
<polygon fill="none" stroke="black" points="81,-124 27,-124 27,-88 81,-88 81,-124"/>
<text text-anchor="middle" x="54" y="-103.5" font-family="Helvetica,sans-Serif" font-size="10.00">Core</text>
</a>
</g>
</g>
<!-- dir_230ebb31a7b473b673878f5d3da6d001&#45;&gt;dir_3c803fb2e31f05de510171dcaff9bfbd -->
<g id="edge4" class="edge">
<title>dir_230ebb31a7b473b673878f5d3da6d001&#45;&gt;dir_3c803fb2e31f05de510171dcaff9bfbd</title>
<path fill="none" stroke="black" d="M40.56,-159.7C40.86,-151.98 41.96,-142.71 43.53,-134.11"/>
<polygon fill="black" stroke="black" points="47,-134.61 45.66,-124.1 40.16,-133.16 47,-134.61"/>
<g id="a_edge4&#45;headlabel"><a xlink:href="dir_000006_000003.html" target="_top" xlink:title="1">
<text text-anchor="middle" x="49.03" y="-136.22" font-family="Helvetica,sans-Serif" font-size="10.00">1</text>
</a>
</g>
</g>
<!-- dir_3c803fb2e31f05de510171dcaff9bfbd&#45;&gt;dir_230ebb31a7b473b673878f5d3da6d001 -->
<g id="edge5" class="edge">
<title>dir_3c803fb2e31f05de510171dcaff9bfbd&#45;&gt;dir_230ebb31a7b473b673878f5d3da6d001</title>
<path fill="none" stroke="black" d="M57.45,-124.1C57.16,-131.79 56.07,-141.05 54.51,-149.67"/>
<polygon fill="black" stroke="black" points="51.03,-149.19 52.39,-159.7 57.88,-150.64 51.03,-149.19"/>
<g id="a_edge5&#45;headlabel"><a xlink:href="dir_000003_000006.html" target="_top" xlink:title="1">
<text text-anchor="middle" x="49" y="-142.58" font-family="Helvetica,sans-Serif" font-size="10.00">1</text>
</a>
</g>
</g>
<!-- dir_8fb71a89305e8bb79c0790ded867372f -->
<g id="node3" class="node">
<title>dir_8fb71a89305e8bb79c0790ded867372f</title>
<g id="a_node3"><a xlink:href="dir_8fb71a89305e8bb79c0790ded867372f.html" target="_top" xlink:title="Scripting">
<polygon fill="none" stroke="black" points="101.5,-52 46.5,-52 46.5,-16 101.5,-16 101.5,-52"/>
<text text-anchor="middle" x="74" y="-31.5" font-family="Helvetica,sans-Serif" font-size="10.00">Scripting</text>
</a>
</g>
</g>
<!-- dir_3c803fb2e31f05de510171dcaff9bfbd&#45;&gt;dir_8fb71a89305e8bb79c0790ded867372f -->
<g id="edge6" class="edge">
<title>dir_3c803fb2e31f05de510171dcaff9bfbd&#45;&gt;dir_8fb71a89305e8bb79c0790ded867372f</title>
<path fill="none" stroke="black" d="M58.94,-87.7C61.17,-79.9 63.85,-70.51 66.33,-61.83"/>
<polygon fill="black" stroke="black" points="69.73,-62.68 69.11,-52.1 63,-60.76 69.73,-62.68"/>
<g id="a_edge6&#45;headlabel"><a xlink:href="dir_000003_000008.html" target="_top" xlink:title="4">
<text text-anchor="middle" x="71.47" y="-64.42" font-family="Helvetica,sans-Serif" font-size="10.00">4</text>
</a>
</g>
</g>
<!-- dir_02a5b303ce584cd5b4aacdcd59538bcd -->
<g id="node4" class="node">
<title>dir_02a5b303ce584cd5b4aacdcd59538bcd</title>
<g id="a_node4"><a xlink:href="dir_02a5b303ce584cd5b4aacdcd59538bcd.html" target="_top" xlink:title="Scenes">
<polygon fill="#eeeeff" stroke="black" points="112,-268 58,-268 58,-232 112,-232 112,-268"/>
<text text-anchor="middle" x="85" y="-247.5" font-family="Helvetica,sans-Serif" font-size="10.00">Scenes</text>
</a>
</g>
</g>
<!-- dir_02a5b303ce584cd5b4aacdcd59538bcd&#45;&gt;dir_230ebb31a7b473b673878f5d3da6d001 -->
<g id="edge1" class="edge">
<title>dir_02a5b303ce584cd5b4aacdcd59538bcd&#45;&gt;dir_230ebb31a7b473b673878f5d3da6d001</title>
<path fill="none" stroke="black" d="M74.87,-231.7C70.15,-223.64 64.44,-213.89 59.22,-204.98"/>
<polygon fill="black" stroke="black" points="62.09,-202.96 54.02,-196.1 56.05,-206.5 62.09,-202.96"/>
<g id="a_edge1&#45;headlabel"><a xlink:href="dir_000007_000006.html" target="_top" xlink:title="1">
<text text-anchor="middle" x="66.36" y="-202.13" font-family="Helvetica,sans-Serif" font-size="10.00">1</text>
</a>
</g>
</g>
<!-- dir_02a5b303ce584cd5b4aacdcd59538bcd&#45;&gt;dir_3c803fb2e31f05de510171dcaff9bfbd -->
<g id="edge2" class="edge">
<title>dir_02a5b303ce584cd5b4aacdcd59538bcd&#45;&gt;dir_3c803fb2e31f05de510171dcaff9bfbd</title>
<path fill="none" stroke="black" d="M86.35,-231.95C87.3,-213.79 87.43,-184.38 81,-160 78.59,-150.86 74.45,-141.48 70.12,-133.2"/>
<polygon fill="black" stroke="black" points="73.15,-131.44 65.25,-124.39 67.03,-134.83 73.15,-131.44"/>
<g id="a_edge2&#45;headlabel"><a xlink:href="dir_000007_000003.html" target="_top" xlink:title="2">
<text text-anchor="middle" x="77.38" y="-130.71" font-family="Helvetica,sans-Serif" font-size="10.00">2</text>
</a>
</g>
</g>
<!-- dir_02a5b303ce584cd5b4aacdcd59538bcd&#45;&gt;dir_8fb71a89305e8bb79c0790ded867372f -->
<g id="edge3" class="edge">
<title>dir_02a5b303ce584cd5b4aacdcd59538bcd&#45;&gt;dir_8fb71a89305e8bb79c0790ded867372f</title>
<path fill="none" stroke="black" d="M87.5,-231.96C91.38,-202.46 97.68,-140.01 90,-88 88.72,-79.35 86.33,-70.15 83.78,-61.89"/>
<polygon fill="black" stroke="black" points="87.1,-60.78 80.65,-52.37 80.45,-62.96 87.1,-60.78"/>
<g id="a_edge3&#45;headlabel"><a xlink:href="dir_000007_000008.html" target="_top" xlink:title="1">
<text text-anchor="middle" x="90.92" y="-60.81" font-family="Helvetica,sans-Serif" font-size="10.00">1</text>
</a>
</g>
</g>
</g>
</svg>
