<?xml version="1.0" encoding="UTF-8" standalone="no"?>
<!DOCTYPE svg PUBLIC "-//W3C//DTD SVG 1.1//EN"
 "http://www.w3.org/Graphics/SVG/1.1/DTD/svg11.dtd">
<!-- Generated by graphviz version 2.49.0 (20210828.1703)
 -->
<!-- Title: C:/Users/folae/Documents/Code/Big&#45;Projects/ScriptWizards/SmallGameLibrary/include/Small Pages: 1 -->
<svg width="350pt" height="399pt"
 viewBox="0.00 0.00 350.00 399.00" xmlns="http://www.w3.org/2000/svg" xmlns:xlink="http://www.w3.org/1999/xlink">
<g id="graph0" class="graph" transform="scale(1 1) rotate(0) translate(4 395)">
<title>C:/Users/folae/Documents/Code/Big&#45;Projects/ScriptWizards/SmallGameLibrary/include/Small</title>
<polygon fill="white" stroke="transparent" points="-4,4 -4,-395 346,-395 346,4 -4,4"/>
<g id="clust1" class="cluster">
<title>clusterdir_d44c64559bbebec7f509842c48db8b23</title>
<g id="a_clust1"><a xlink:href="dir_d44c64559bbebec7f509842c48db8b23.html" target="_top" xlink:title="include">
<polygon fill="#ddddee" stroke="black" points="8,-8 8,-383 334,-383 334,-8 8,-8"/>
<text text-anchor="middle" x="171" y="-371" font-family="Helvetica,sans-Serif" font-size="10.00">include</text>
</a>
</g>
</g>
<g id="clust2" class="cluster">
<title>clusterdir_517f7d009caed18d50502f12c0d97ec3</title>
<g id="a_clust2"><a xlink:href="dir_517f7d009caed18d50502f12c0d97ec3.html" target="_top">
<polygon fill="#eeeeff" stroke="black" points="16,-16 16,-356 326,-356 326,-16 16,-16"/>
</a>
</g>
</g>
<!-- dir_517f7d009caed18d50502f12c0d97ec3 -->
<g id="node1" class="node">
<title>dir_517f7d009caed18d50502f12c0d97ec3</title>
<text text-anchor="middle" x="177" y="-327.5" font-family="Helvetica,sans-Serif" font-size="10.00">Small</text>
</g>
<!-- dir_a8ded999eb2997d5041bf5add73626b0 -->
<g id="node4" class="node">
<title>dir_a8ded999eb2997d5041bf5add73626b0</title>
<g id="a_node4"><a xlink:href="dir_a8ded999eb2997d5041bf5add73626b0.html" target="_top" xlink:title="GameObjects">
<polygon fill="white" stroke="black" points="173.5,-276 96.5,-276 96.5,-240 173.5,-240 173.5,-276"/>
<text text-anchor="middle" x="135" y="-255.5" font-family="Helvetica,sans-Serif" font-size="10.00">GameObjects</text>
</a>
</g>
</g>
<!-- dir_517f7d009caed18d50502f12c0d97ec3&#45;&gt;dir_a8ded999eb2997d5041bf5add73626b0 -->
<g id="edge10" class="edge">
<title>dir_517f7d009caed18d50502f12c0d97ec3&#45;&gt;dir_a8ded999eb2997d5041bf5add73626b0</title>
<path fill="none" stroke="black" d="M166.62,-311.7C161.74,-303.56 155.81,-293.69 150.42,-284.7"/>
<polygon fill="black" stroke="black" points="153.41,-282.88 145.26,-276.1 147.41,-286.48 153.41,-282.88"/>
<g id="a_edge10&#45;headlabel"><a xlink:href="dir_000002_000005.html" target="_top" xlink:title="1">
<text text-anchor="middle" x="157.69" y="-282" font-family="Helvetica,sans-Serif" font-size="10.00">1</text>
</a>
</g>
</g>
<!-- dir_02a5b303ce584cd5b4aacdcd59538bcd -->
<g id="node6" class="node">
<title>dir_02a5b303ce584cd5b4aacdcd59538bcd</title>
<g id="a_node6"><a xlink:href="dir_02a5b303ce584cd5b4aacdcd59538bcd.html" target="_top" xlink:title="Scenes">
<polygon fill="white" stroke="black" points="78,-276 24,-276 24,-240 78,-240 78,-276"/>
<text text-anchor="middle" x="51" y="-255.5" font-family="Helvetica,sans-Serif" font-size="10.00">Scenes</text>
</a>
</g>
</g>
<!-- dir_517f7d009caed18d50502f12c0d97ec3&#45;&gt;dir_02a5b303ce584cd5b4aacdcd59538bcd -->
<g id="edge8" class="edge">
<title>dir_517f7d009caed18d50502f12c0d97ec3&#45;&gt;dir_02a5b303ce584cd5b4aacdcd59538bcd</title>
<path fill="none" stroke="black" d="M149.97,-313.98C131.66,-303.81 107.25,-290.25 87.26,-279.14"/>
<polygon fill="black" stroke="black" points="88.86,-276.03 78.42,-274.23 85.46,-282.15 88.86,-276.03"/>
<g id="a_edge8&#45;headlabel"><a xlink:href="dir_000002_000007.html" target="_top" xlink:title="2">
<text text-anchor="middle" x="93.38" y="-272.79" font-family="Helvetica,sans-Serif" font-size="10.00">2</text>
</a>
</g>
</g>
<!-- dir_803490036721b53e51a4a42fdaf2d24d -->
<g id="node8" class="node">
<title>dir_803490036721b53e51a4a42fdaf2d24d</title>
<g id="a_node8"><a xlink:href="dir_803490036721b53e51a4a42fdaf2d24d.html" target="_top" xlink:title="System">
<polygon fill="white" stroke="black" points="246,-276 192,-276 192,-240 246,-240 246,-276"/>
<text text-anchor="middle" x="219" y="-255.5" font-family="Helvetica,sans-Serif" font-size="10.00">System</text>
</a>
</g>
</g>
<!-- dir_517f7d009caed18d50502f12c0d97ec3&#45;&gt;dir_803490036721b53e51a4a42fdaf2d24d -->
<g id="edge9" class="edge">
<title>dir_517f7d009caed18d50502f12c0d97ec3&#45;&gt;dir_803490036721b53e51a4a42fdaf2d24d</title>
<path fill="none" stroke="black" d="M187.38,-311.7C192.26,-303.56 198.19,-293.69 203.58,-284.7"/>
<polygon fill="black" stroke="black" points="206.59,-286.48 208.74,-276.1 200.59,-282.88 206.59,-286.48"/>
<g id="a_edge9&#45;headlabel"><a xlink:href="dir_000002_000009.html" target="_top" xlink:title="3">
<text text-anchor="middle" x="207.18" y="-288.52" font-family="Helvetica,sans-Serif" font-size="10.00">3</text>
</a>
</g>
</g>
<!-- dir_eb1ad7c5cdd5fd5975031a9e1391d8c9 -->
<g id="node9" class="node">
<title>dir_eb1ad7c5cdd5fd5975031a9e1391d8c9</title>
<g id="a_node9"><a xlink:href="dir_eb1ad7c5cdd5fd5975031a9e1391d8c9.html" target="_top" xlink:title="Widgets">
<polygon fill="white" stroke="black" points="318,-276 264,-276 264,-240 318,-240 318,-276"/>
<text text-anchor="middle" x="291" y="-255.5" font-family="Helvetica,sans-Serif" font-size="10.00">Widgets</text>
</a>
</g>
</g>
<!-- dir_517f7d009caed18d50502f12c0d97ec3&#45;&gt;dir_eb1ad7c5cdd5fd5975031a9e1391d8c9 -->
<g id="edge11" class="edge">
<title>dir_517f7d009caed18d50502f12c0d97ec3&#45;&gt;dir_eb1ad7c5cdd5fd5975031a9e1391d8c9</title>
<path fill="none" stroke="black" d="M204.02,-312.41C219.24,-303.06 238.45,-291.27 254.94,-281.14"/>
<polygon fill="black" stroke="black" points="257.09,-283.93 263.78,-275.71 253.43,-277.96 257.09,-283.93"/>
<g id="a_edge11&#45;headlabel"><a xlink:href="dir_000002_000010.html" target="_top" xlink:title="7">
<text text-anchor="middle" x="255.51" y="-285.73" font-family="Helvetica,sans-Serif" font-size="10.00">7</text>
</a>
</g>
</g>
<!-- dir_3c803fb2e31f05de510171dcaff9bfbd -->
<g id="node2" class="node">
<title>dir_3c803fb2e31f05de510171dcaff9bfbd</title>
<g id="a_node2"><a xlink:href="dir_3c803fb2e31f05de510171dcaff9bfbd.html" target="_top" xlink:title="Core">
<polygon fill="white" stroke="black" points="150,-132 96,-132 96,-96 150,-96 150,-132"/>
<text text-anchor="middle" x="123" y="-111.5" font-family="Helvetica,sans-Serif" font-size="10.00">Core</text>
</a>
</g>
</g>
<!-- dir_ea5275f19dd98e4e16b487795f40b2ea -->
<g id="node3" class="node">
<title>dir_ea5275f19dd98e4e16b487795f40b2ea</title>
<g id="a_node3"><a xlink:href="dir_ea5275f19dd98e4e16b487795f40b2ea.html" target="_top" xlink:title="Debug">
<polygon fill="white" stroke="black" points="152,-60 98,-60 98,-24 152,-24 152,-60"/>
<text text-anchor="middle" x="125" y="-39.5" font-family="Helvetica,sans-Serif" font-size="10.00">Debug</text>
</a>
</g>
</g>
<!-- dir_3c803fb2e31f05de510171dcaff9bfbd&#45;&gt;dir_ea5275f19dd98e4e16b487795f40b2ea -->
<g id="edge7" class="edge">
<title>dir_3c803fb2e31f05de510171dcaff9bfbd&#45;&gt;dir_ea5275f19dd98e4e16b487795f40b2ea</title>
<path fill="none" stroke="black" d="M123.49,-95.7C123.71,-87.98 123.98,-78.71 124.23,-70.11"/>
<polygon fill="black" stroke="black" points="127.72,-70.2 124.51,-60.1 120.73,-70 127.72,-70.2"/>
<g id="a_edge7&#45;headlabel"><a xlink:href="dir_000003_000004.html" target="_top" xlink:title="1">
<text text-anchor="middle" x="130.46" y="-71.37" font-family="Helvetica,sans-Serif" font-size="10.00">1</text>
</a>
</g>
</g>
<!-- dir_230ebb31a7b473b673878f5d3da6d001 -->
<g id="node5" class="node">
<title>dir_230ebb31a7b473b673878f5d3da6d001</title>
<g id="a_node5"><a xlink:href="dir_230ebb31a7b473b673878f5d3da6d001.html" target="_top" xlink:title="Graphics">
<polygon fill="white" stroke="black" points="151,-204 95,-204 95,-168 151,-168 151,-204"/>
<text text-anchor="middle" x="123" y="-183.5" font-family="Helvetica,sans-Serif" font-size="10.00">Graphics</text>
</a>
</g>
</g>
<!-- dir_3c803fb2e31f05de510171dcaff9bfbd&#45;&gt;dir_230ebb31a7b473b673878f5d3da6d001 -->
<g id="edge5" class="edge">
<title>dir_3c803fb2e31f05de510171dcaff9bfbd&#45;&gt;dir_230ebb31a7b473b673878f5d3da6d001</title>
<path fill="none" stroke="black" d="M128.9,-132.1C129.7,-139.79 129.94,-149.05 129.6,-157.67"/>
<polygon fill="black" stroke="black" points="126.11,-157.48 128.92,-167.7 133.09,-157.96 126.11,-157.48"/>
<g id="a_edge5&#45;headlabel"><a xlink:href="dir_000003_000006.html" target="_top" xlink:title="1">
<text text-anchor="middle" x="123.52" y="-151.2" font-family="Helvetica,sans-Serif" font-size="10.00">1</text>
</a>
</g>
</g>
<!-- dir_8fb71a89305e8bb79c0790ded867372f -->
<g id="node7" class="node">
<title>dir_8fb71a89305e8bb79c0790ded867372f</title>
<g id="a_node7"><a xlink:href="dir_8fb71a89305e8bb79c0790ded867372f.html" target="_top" xlink:title="Scripting">
<polygon fill="white" stroke="black" points="79.5,-60 24.5,-60 24.5,-24 79.5,-24 79.5,-60"/>
<text text-anchor="middle" x="52" y="-39.5" font-family="Helvetica,sans-Serif" font-size="10.00">Scripting</text>
</a>
</g>
</g>
<!-- dir_3c803fb2e31f05de510171dcaff9bfbd&#45;&gt;dir_8fb71a89305e8bb79c0790ded867372f -->
<g id="edge6" class="edge">
<title>dir_3c803fb2e31f05de510171dcaff9bfbd&#45;&gt;dir_8fb71a89305e8bb79c0790ded867372f</title>
<path fill="none" stroke="black" d="M105.45,-95.7C96.77,-87.14 86.14,-76.66 76.65,-67.3"/>
<polygon fill="black" stroke="black" points="78.93,-64.63 69.35,-60.1 74.01,-69.62 78.93,-64.63"/>
<g id="a_edge6&#45;headlabel"><a xlink:href="dir_000003_000008.html" target="_top" xlink:title="4">
<text text-anchor="middle" x="83.48" y="-62.63" font-family="Helvetica,sans-Serif" font-size="10.00">4</text>
</a>
</g>
</g>
<!-- dir_a8ded999eb2997d5041bf5add73626b0&#45;&gt;dir_230ebb31a7b473b673878f5d3da6d001 -->
<g id="edge12" class="edge">
<title>dir_a8ded999eb2997d5041bf5add73626b0&#45;&gt;dir_230ebb31a7b473b673878f5d3da6d001</title>
<path fill="none" stroke="black" d="M132.03,-239.7C130.71,-231.98 129.12,-222.71 127.65,-214.11"/>
<polygon fill="black" stroke="black" points="131.07,-213.37 125.93,-204.1 124.17,-214.55 131.07,-213.37"/>
<g id="a_edge12&#45;headlabel"><a xlink:href="dir_000005_000006.html" target="_top" xlink:title="1">
<text text-anchor="middle" x="134.48" y="-213.93" font-family="Helvetica,sans-Serif" font-size="10.00">1</text>
</a>
</g>
</g>
<!-- dir_230ebb31a7b473b673878f5d3da6d001&#45;&gt;dir_3c803fb2e31f05de510171dcaff9bfbd -->
<g id="edge4" class="edge">
<title>dir_230ebb31a7b473b673878f5d3da6d001&#45;&gt;dir_3c803fb2e31f05de510171dcaff9bfbd</title>
<path fill="none" stroke="black" d="M117.08,-167.7C116.29,-159.98 116.06,-150.71 116.4,-142.11"/>
<polygon fill="black" stroke="black" points="119.9,-142.32 117.1,-132.1 112.92,-141.84 119.9,-142.32"/>
<g id="a_edge4&#45;headlabel"><a xlink:href="dir_000006_000003.html" target="_top" xlink:title="1">
<text text-anchor="middle" x="122.48" y="-143.61" font-family="Helvetica,sans-Serif" font-size="10.00">1</text>
</a>
</g>
</g>
<!-- dir_02a5b303ce584cd5b4aacdcd59538bcd&#45;&gt;dir_3c803fb2e31f05de510171dcaff9bfbd -->
<g id="edge2" class="edge">
<title>dir_02a5b303ce584cd5b4aacdcd59538bcd&#45;&gt;dir_3c803fb2e31f05de510171dcaff9bfbd</title>
<path fill="none" stroke="black" d="M56.44,-239.74C62.52,-221.41 73.21,-191.85 86,-168 91.09,-158.51 97.57,-148.68 103.67,-140.1"/>
<polygon fill="black" stroke="black" points="106.52,-142.14 109.59,-132.01 100.86,-138.01 106.52,-142.14"/>
<g id="a_edge2&#45;headlabel"><a xlink:href="dir_000007_000003.html" target="_top" xlink:title="2">
<text text-anchor="middle" x="106.69" y="-144.22" font-family="Helvetica,sans-Serif" font-size="10.00">2</text>
</a>
</g>
</g>
<!-- dir_02a5b303ce584cd5b4aacdcd59538bcd&#45;&gt;dir_230ebb31a7b473b673878f5d3da6d001 -->
<g id="edge1" class="edge">
<title>dir_02a5b303ce584cd5b4aacdcd59538bcd&#45;&gt;dir_230ebb31a7b473b673878f5d3da6d001</title>
<path fill="none" stroke="black" d="M68.8,-239.7C77.6,-231.14 88.38,-220.66 98,-211.3"/>
<polygon fill="black" stroke="black" points="100.68,-213.58 105.41,-204.1 95.8,-208.57 100.68,-213.58"/>
<g id="a_edge1&#45;headlabel"><a xlink:href="dir_000007_000006.html" target="_top" xlink:title="1">
<text text-anchor="middle" x="100.08" y="-215.63" font-family="Helvetica,sans-Serif" font-size="10.00">1</text>
</a>
</g>
</g>
<!-- dir_02a5b303ce584cd5b4aacdcd59538bcd&#45;&gt;dir_8fb71a89305e8bb79c0790ded867372f -->
<g id="edge3" class="edge">
<title>dir_02a5b303ce584cd5b4aacdcd59538bcd&#45;&gt;dir_8fb71a89305e8bb79c0790ded867372f</title>
<path fill="none" stroke="black" d="M51.08,-239.85C51.25,-202.83 51.66,-115.18 51.87,-70.39"/>
<polygon fill="black" stroke="black" points="55.37,-70.25 51.92,-60.23 48.37,-70.22 55.37,-70.25"/>
<g id="a_edge3&#45;headlabel"><a xlink:href="dir_000007_000008.html" target="_top" xlink:title="1">
<text text-anchor="middle" x="58.2" y="-71.36" font-family="Helvetica,sans-Serif" font-size="10.00">1</text>
</a>
</g>
</g>
<!-- dir_eb1ad7c5cdd5fd5975031a9e1391d8c9&#45;&gt;dir_230ebb31a7b473b673878f5d3da6d001 -->
<g id="edge13" class="edge">
<title>dir_eb1ad7c5cdd5fd5975031a9e1391d8c9&#45;&gt;dir_230ebb31a7b473b673878f5d3da6d001</title>
<path fill="none" stroke="black" d="M263.95,-244.02C260.94,-242.64 257.91,-241.27 255,-240 223.49,-226.25 187.22,-211.78 160.68,-201.44"/>
<polygon fill="black" stroke="black" points="161.6,-198.05 151.01,-197.69 159.07,-204.57 161.6,-198.05"/>
<g id="a_edge13&#45;headlabel"><a xlink:href="dir_000010_000006.html" target="_top" xlink:title="1">
<text text-anchor="middle" x="165.98" y="-194.2" font-family="Helvetica,sans-Serif" font-size="10.00">1</text>
</a>
</g>
</g>
</g>
</svg>
