<?xml version="1.0" encoding="UTF-8" standalone="no"?>
<!DOCTYPE svg PUBLIC "-//W3C//DTD SVG 1.1//EN"
 "http://www.w3.org/Graphics/SVG/1.1/DTD/svg11.dtd">
<!-- Generated by graphviz version 2.49.0 (20210828.1703)
 -->
<!-- Title: C:/Users/folae/Documents/Code/Big&#45;Projects/ScriptWizards/SmallGameLibrary/include/Small/Core Pages: 1 -->
<svg width="168pt" height="239pt"
 viewBox="0.00 0.00 168.00 239.00" xmlns="http://www.w3.org/2000/svg" xmlns:xlink="http://www.w3.org/1999/xlink">
<g id="graph0" class="graph" transform="scale(1 1) rotate(0) translate(4 235)">
<title>C:/Users/folae/Documents/Code/Big&#45;Projects/ScriptWizards/SmallGameLibrary/include/Small/Core</title>
<polygon fill="white" stroke="transparent" points="-4,4 -4,-235 164,-235 164,4 -4,4"/>
<g id="clust1" class="cluster">
<title>clusterdir_517f7d009caed18d50502f12c0d97ec3</title>
<g id="a_clust1"><a xlink:href="dir_517f7d009caed18d50502f12c0d97ec3.html" target="_top" xlink:title="Small">
<polygon fill="#ddddee" stroke="black" points="8,-8 8,-223 152,-223 152,-8 8,-8"/>
<text text-anchor="middle" x="80" y="-211" font-family="Helvetica,sans-Serif" font-size="10.00">Small</text>
</a>
</g>
</g>
<!-- dir_230ebb31a7b473b673878f5d3da6d001 -->
<g id="node1" class="node">
<title>dir_230ebb31a7b473b673878f5d3da6d001</title>
<g id="a_node1"><a xlink:href="dir_230ebb31a7b473b673878f5d3da6d001.html" target="_top" xlink:title="Graphics">
<polygon fill="none" stroke="black" points="108,-196 52,-196 52,-160 108,-160 108,-196"/>
<text text-anchor="middle" x="80" y="-175.5" font-family="Helvetica,sans-Serif" font-size="10.00">Graphics</text>
</a>
</g>
</g>
<!-- dir_3c803fb2e31f05de510171dcaff9bfbd -->
<g id="node4" class="node">
<title>dir_3c803fb2e31f05de510171dcaff9bfbd</title>
<g id="a_node4"><a xlink:href="dir_3c803fb2e31f05de510171dcaff9bfbd.html" target="_top" xlink:title="Core">
<polygon fill="#eeeeff" stroke="black" points="107,-124 53,-124 53,-88 107,-88 107,-124"/>
<text text-anchor="middle" x="80" y="-103.5" font-family="Helvetica,sans-Serif" font-size="10.00">Core</text>
</a>
</g>
</g>
<!-- dir_230ebb31a7b473b673878f5d3da6d001&#45;&gt;dir_3c803fb2e31f05de510171dcaff9bfbd -->
<g id="edge1" class="edge">
<title>dir_230ebb31a7b473b673878f5d3da6d001&#45;&gt;dir_3c803fb2e31f05de510171dcaff9bfbd</title>
<path fill="none" stroke="black" d="M74.08,-159.7C73.29,-151.98 73.06,-142.71 73.4,-134.11"/>
<polygon fill="black" stroke="black" points="76.9,-134.32 74.1,-124.1 69.92,-133.84 76.9,-134.32"/>
<g id="a_edge1&#45;headlabel"><a xlink:href="dir_000006_000003.html" target="_top" xlink:title="1">
<text text-anchor="middle" x="79.48" y="-135.61" font-family="Helvetica,sans-Serif" font-size="10.00">1</text>
</a>
</g>
</g>
<!-- dir_8fb71a89305e8bb79c0790ded867372f -->
<g id="node2" class="node">
<title>dir_8fb71a89305e8bb79c0790ded867372f</title>
<g id="a_node2"><a xlink:href="dir_8fb71a89305e8bb79c0790ded867372f.html" target="_top" xlink:title="Scripting">
<polygon fill="none" stroke="black" points="71.5,-52 16.5,-52 16.5,-16 71.5,-16 71.5,-52"/>
<text text-anchor="middle" x="44" y="-31.5" font-family="Helvetica,sans-Serif" font-size="10.00">Scripting</text>
</a>
</g>
</g>
<!-- dir_ea5275f19dd98e4e16b487795f40b2ea -->
<g id="node3" class="node">
<title>dir_ea5275f19dd98e4e16b487795f40b2ea</title>
<g id="a_node3"><a xlink:href="dir_ea5275f19dd98e4e16b487795f40b2ea.html" target="_top" xlink:title="Debug">
<polygon fill="none" stroke="black" points="144,-52 90,-52 90,-16 144,-16 144,-52"/>
<text text-anchor="middle" x="117" y="-31.5" font-family="Helvetica,sans-Serif" font-size="10.00">Debug</text>
</a>
</g>
</g>
<!-- dir_3c803fb2e31f05de510171dcaff9bfbd&#45;&gt;dir_230ebb31a7b473b673878f5d3da6d001 -->
<g id="edge2" class="edge">
<title>dir_3c803fb2e31f05de510171dcaff9bfbd&#45;&gt;dir_230ebb31a7b473b673878f5d3da6d001</title>
<path fill="none" stroke="black" d="M85.9,-124.1C86.7,-131.79 86.94,-141.05 86.6,-149.67"/>
<polygon fill="black" stroke="black" points="83.11,-149.48 85.92,-159.7 90.09,-149.96 83.11,-149.48"/>
<g id="a_edge2&#45;headlabel"><a xlink:href="dir_000003_000006.html" target="_top" xlink:title="1">
<text text-anchor="middle" x="80.52" y="-143.2" font-family="Helvetica,sans-Serif" font-size="10.00">1</text>
</a>
</g>
</g>
<!-- dir_3c803fb2e31f05de510171dcaff9bfbd&#45;&gt;dir_8fb71a89305e8bb79c0790ded867372f -->
<g id="edge3" class="edge">
<title>dir_3c803fb2e31f05de510171dcaff9bfbd&#45;&gt;dir_8fb71a89305e8bb79c0790ded867372f</title>
<path fill="none" stroke="black" d="M71.1,-87.7C67,-79.73 62.05,-70.1 57.51,-61.26"/>
<polygon fill="black" stroke="black" points="60.48,-59.4 52.8,-52.1 54.26,-62.6 60.48,-59.4"/>
<g id="a_edge3&#45;headlabel"><a xlink:href="dir_000003_000008.html" target="_top" xlink:title="4">
<text text-anchor="middle" x="64.65" y="-58.79" font-family="Helvetica,sans-Serif" font-size="10.00">4</text>
</a>
</g>
</g>
<!-- dir_3c803fb2e31f05de510171dcaff9bfbd&#45;&gt;dir_ea5275f19dd98e4e16b487795f40b2ea -->
<g id="edge4" class="edge">
<title>dir_3c803fb2e31f05de510171dcaff9bfbd&#45;&gt;dir_ea5275f19dd98e4e16b487795f40b2ea</title>
<path fill="none" stroke="black" d="M89.15,-87.7C93.4,-79.64 98.56,-69.89 103.27,-60.98"/>
<polygon fill="black" stroke="black" points="106.38,-62.58 107.96,-52.1 100.19,-59.31 106.38,-62.58"/>
<g id="a_edge4&#45;headlabel"><a xlink:href="dir_000003_000004.html" target="_top" xlink:title="1">
<text text-anchor="middle" x="107.21" y="-64.59" font-family="Helvetica,sans-Serif" font-size="10.00">1</text>
</a>
</g>
</g>
</g>
</svg>
