<?xml version="1.0" encoding="UTF-8" standalone="no"?>
<!DOCTYPE svg PUBLIC "-//W3C//DTD SVG 1.1//EN"
 "http://www.w3.org/Graphics/SVG/1.1/DTD/svg11.dtd">
<!-- Generated by graphviz version 2.49.0 (20210828.1703)
 -->
<!-- Title: C:/Users/folae/Documents/Code/Big&#45;Projects/ScriptWizards/SmallGameLibrary/source Pages: 1 -->
<svg width="626pt" height="132pt"
 viewBox="0.00 0.00 626.00 132.00" xmlns="http://www.w3.org/2000/svg" xmlns:xlink="http://www.w3.org/1999/xlink">
<g id="graph0" class="graph" transform="scale(1 1) rotate(0) translate(4 128)">
<title>C:/Users/folae/Documents/Code/Big&#45;Projects/ScriptWizards/SmallGameLibrary/source</title>
<polygon fill="white" stroke="transparent" points="-4,4 -4,-128 622,-128 622,4 -4,4"/>
<g id="clust1" class="cluster">
<title>clusterdir_b2f33c71d4aa5e7af42a1ca61ff5af1b</title>
<g id="a_clust1"><a xlink:href="dir_b2f33c71d4aa5e7af42a1ca61ff5af1b.html" target="_top">
<polygon fill="#eeeeff" stroke="black" points="8,-64 8,-116 610,-116 610,-64 8,-64"/>
</a>
</g>
</g>
<!-- dir_b2f33c71d4aa5e7af42a1ca61ff5af1b -->
<g id="node1" class="node">
<title>dir_b2f33c71d4aa5e7af42a1ca61ff5af1b</title>
<text text-anchor="middle" x="575" y="-87.5" font-family="Helvetica,sans-Serif" font-size="10.00">source</text>
</g>
<!-- dir_1f10682fec53f0772108851bfcef2e4d -->
<g id="node2" class="node">
<title>dir_1f10682fec53f0772108851bfcef2e4d</title>
<g id="a_node2"><a xlink:href="dir_1f10682fec53f0772108851bfcef2e4d.html" target="_top" xlink:title="Core">
<polygon fill="white" stroke="black" points="530,-108 476,-108 476,-72 530,-72 530,-108"/>
<text text-anchor="middle" x="503" y="-87.5" font-family="Helvetica,sans-Serif" font-size="10.00">Core</text>
</a>
</g>
</g>
<!-- dir_d44c64559bbebec7f509842c48db8b23 -->
<g id="node9" class="node">
<title>dir_d44c64559bbebec7f509842c48db8b23</title>
<g id="a_node9"><a xlink:href="dir_d44c64559bbebec7f509842c48db8b23.html" target="_top" xlink:title="include">
<polygon fill="white" stroke="red" points="288,-36 234,-36 234,0 288,0 288,-36"/>
<text text-anchor="middle" x="261" y="-15.5" font-family="Helvetica,sans-Serif" font-size="10.00">include</text>
</a>
</g>
</g>
<!-- dir_1f10682fec53f0772108851bfcef2e4d&#45;&gt;dir_d44c64559bbebec7f509842c48db8b23 -->
<g id="edge4" class="edge">
<title>dir_1f10682fec53f0772108851bfcef2e4d&#45;&gt;dir_d44c64559bbebec7f509842c48db8b23</title>
<path fill="none" stroke="black" d="M481.34,-71.96C476.79,-68.96 471.88,-66.13 467,-64 411,-39.59 340.49,-27.89 298.17,-22.69"/>
<polygon fill="black" stroke="black" points="298.38,-19.19 288.04,-21.51 297.57,-26.15 298.38,-19.19"/>
<g id="a_edge4&#45;headlabel"><a xlink:href="dir_000012_000001.html" target="_top" xlink:title="9">
<text text-anchor="middle" x="302.28" y="-14.29" font-family="Helvetica,sans-Serif" font-size="10.00">9</text>
</a>
</g>
</g>
<!-- dir_c1636cf3a5cdf19b8523f29150fc01fd -->
<g id="node3" class="node">
<title>dir_c1636cf3a5cdf19b8523f29150fc01fd</title>
<g id="a_node3"><a xlink:href="dir_c1636cf3a5cdf19b8523f29150fc01fd.html" target="_top" xlink:title="GameObjects">
<polygon fill="white" stroke="black" points="457.5,-108 380.5,-108 380.5,-72 457.5,-72 457.5,-108"/>
<text text-anchor="middle" x="419" y="-87.5" font-family="Helvetica,sans-Serif" font-size="10.00">GameObjects</text>
</a>
</g>
</g>
<!-- dir_c1636cf3a5cdf19b8523f29150fc01fd&#45;&gt;dir_d44c64559bbebec7f509842c48db8b23 -->
<g id="edge6" class="edge">
<title>dir_c1636cf3a5cdf19b8523f29150fc01fd&#45;&gt;dir_d44c64559bbebec7f509842c48db8b23</title>
<path fill="none" stroke="black" d="M387.19,-71.91C381.83,-69.18 376.28,-66.45 371,-64 346.98,-52.86 319.39,-41.58 297.86,-33.1"/>
<polygon fill="black" stroke="black" points="299.01,-29.79 288.42,-29.41 296.46,-36.31 299.01,-29.79"/>
<g id="a_edge6&#45;headlabel"><a xlink:href="dir_000013_000001.html" target="_top" xlink:title="1">
<text text-anchor="middle" x="303.39" y="-25.96" font-family="Helvetica,sans-Serif" font-size="10.00">1</text>
</a>
</g>
</g>
<!-- dir_0c38eae9d0bfbbcaabb93b75be68a08d -->
<g id="node4" class="node">
<title>dir_0c38eae9d0bfbbcaabb93b75be68a08d</title>
<g id="a_node4"><a xlink:href="dir_0c38eae9d0bfbbcaabb93b75be68a08d.html" target="_top" xlink:title="Graphics">
<polygon fill="white" stroke="black" points="362,-108 306,-108 306,-72 362,-72 362,-108"/>
<text text-anchor="middle" x="334" y="-87.5" font-family="Helvetica,sans-Serif" font-size="10.00">Graphics</text>
</a>
</g>
</g>
<!-- dir_0c38eae9d0bfbbcaabb93b75be68a08d&#45;&gt;dir_d44c64559bbebec7f509842c48db8b23 -->
<g id="edge2" class="edge">
<title>dir_0c38eae9d0bfbbcaabb93b75be68a08d&#45;&gt;dir_d44c64559bbebec7f509842c48db8b23</title>
<path fill="none" stroke="black" d="M315.96,-71.7C306.94,-63.05 295.88,-52.45 286.06,-43.03"/>
<polygon fill="black" stroke="black" points="288.48,-40.5 278.84,-36.1 283.63,-45.55 288.48,-40.5"/>
<g id="a_edge2&#45;headlabel"><a xlink:href="dir_000014_000001.html" target="_top" xlink:title="5">
<text text-anchor="middle" x="293.04" y="-38.44" font-family="Helvetica,sans-Serif" font-size="10.00">5</text>
</a>
</g>
</g>
<!-- dir_fb865effb56a20df3ba614bd2f26a7a0 -->
<g id="node5" class="node">
<title>dir_fb865effb56a20df3ba614bd2f26a7a0</title>
<g id="a_node5"><a xlink:href="dir_fb865effb56a20df3ba614bd2f26a7a0.html" target="_top" xlink:title="Scenes">
<polygon fill="white" stroke="black" points="288,-108 234,-108 234,-72 288,-72 288,-108"/>
<text text-anchor="middle" x="261" y="-87.5" font-family="Helvetica,sans-Serif" font-size="10.00">Scenes</text>
</a>
</g>
</g>
<!-- dir_fb865effb56a20df3ba614bd2f26a7a0&#45;&gt;dir_d44c64559bbebec7f509842c48db8b23 -->
<g id="edge7" class="edge">
<title>dir_fb865effb56a20df3ba614bd2f26a7a0&#45;&gt;dir_d44c64559bbebec7f509842c48db8b23</title>
<path fill="none" stroke="black" d="M261,-71.7C261,-63.98 261,-54.71 261,-46.11"/>
<polygon fill="black" stroke="black" points="264.5,-46.1 261,-36.1 257.5,-46.1 264.5,-46.1"/>
<g id="a_edge7&#45;headlabel"><a xlink:href="dir_000015_000001.html" target="_top" xlink:title="4">
<text text-anchor="middle" x="267.34" y="-47.2" font-family="Helvetica,sans-Serif" font-size="10.00">4</text>
</a>
</g>
</g>
<!-- dir_026e206e8da2982416d6f86d6ddf0934 -->
<g id="node6" class="node">
<title>dir_026e206e8da2982416d6f86d6ddf0934</title>
<g id="a_node6"><a xlink:href="dir_026e206e8da2982416d6f86d6ddf0934.html" target="_top" xlink:title="Scripting">
<polygon fill="white" stroke="black" points="215.5,-108 160.5,-108 160.5,-72 215.5,-72 215.5,-108"/>
<text text-anchor="middle" x="188" y="-87.5" font-family="Helvetica,sans-Serif" font-size="10.00">Scripting</text>
</a>
</g>
</g>
<!-- dir_026e206e8da2982416d6f86d6ddf0934&#45;&gt;dir_d44c64559bbebec7f509842c48db8b23 -->
<g id="edge1" class="edge">
<title>dir_026e206e8da2982416d6f86d6ddf0934&#45;&gt;dir_d44c64559bbebec7f509842c48db8b23</title>
<path fill="none" stroke="black" d="M206.04,-71.7C215.06,-63.05 226.12,-52.45 235.94,-43.03"/>
<polygon fill="black" stroke="black" points="238.37,-45.55 243.16,-36.1 233.52,-40.5 238.37,-45.55"/>
<g id="a_edge1&#45;headlabel"><a xlink:href="dir_000016_000001.html" target="_top" xlink:title="5">
<text text-anchor="middle" x="237.74" y="-47.59" font-family="Helvetica,sans-Serif" font-size="10.00">5</text>
</a>
</g>
</g>
<!-- dir_60fd6fe4baace88c2d6f0c7f797e0799 -->
<g id="node7" class="node">
<title>dir_60fd6fe4baace88c2d6f0c7f797e0799</title>
<g id="a_node7"><a xlink:href="dir_60fd6fe4baace88c2d6f0c7f797e0799.html" target="_top" xlink:title="System">
<polygon fill="white" stroke="black" points="142,-108 88,-108 88,-72 142,-72 142,-108"/>
<text text-anchor="middle" x="115" y="-87.5" font-family="Helvetica,sans-Serif" font-size="10.00">System</text>
</a>
</g>
</g>
<!-- dir_60fd6fe4baace88c2d6f0c7f797e0799&#45;&gt;dir_d44c64559bbebec7f509842c48db8b23 -->
<g id="edge5" class="edge">
<title>dir_60fd6fe4baace88c2d6f0c7f797e0799&#45;&gt;dir_d44c64559bbebec7f509842c48db8b23</title>
<path fill="none" stroke="black" d="M138.84,-71.87C143.13,-69.08 147.63,-66.35 152,-64 175.3,-51.48 202.85,-40.14 224.42,-31.97"/>
<polygon fill="black" stroke="black" points="225.73,-35.22 233.88,-28.45 223.28,-28.66 225.73,-35.22"/>
<g id="a_edge5&#45;headlabel"><a xlink:href="dir_000017_000001.html" target="_top" xlink:title="2">
<text text-anchor="middle" x="223.35" y="-36.63" font-family="Helvetica,sans-Serif" font-size="10.00">2</text>
</a>
</g>
</g>
<!-- dir_0d1264aa250640d99a57ae752fd71494 -->
<g id="node8" class="node">
<title>dir_0d1264aa250640d99a57ae752fd71494</title>
<g id="a_node8"><a xlink:href="dir_0d1264aa250640d99a57ae752fd71494.html" target="_top" xlink:title="Widgets">
<polygon fill="white" stroke="black" points="70,-108 16,-108 16,-72 70,-72 70,-108"/>
<text text-anchor="middle" x="43" y="-87.5" font-family="Helvetica,sans-Serif" font-size="10.00">Widgets</text>
</a>
</g>
</g>
<!-- dir_0d1264aa250640d99a57ae752fd71494&#45;&gt;dir_d44c64559bbebec7f509842c48db8b23 -->
<g id="edge3" class="edge">
<title>dir_0d1264aa250640d99a57ae752fd71494&#45;&gt;dir_d44c64559bbebec7f509842c48db8b23</title>
<path fill="none" stroke="black" d="M65.1,-71.8C69.54,-68.9 74.29,-66.13 79,-64 126.58,-42.49 185.99,-30.26 223.73,-24.14"/>
<polygon fill="black" stroke="black" points="224.43,-27.57 233.77,-22.57 223.35,-20.65 224.43,-27.57"/>
<g id="a_edge3&#45;headlabel"><a xlink:href="dir_000018_000001.html" target="_top" xlink:title="5">
<text text-anchor="middle" x="221.32" y="-28.43" font-family="Helvetica,sans-Serif" font-size="10.00">5</text>
</a>
</g>
</g>
</g>
</svg>
