<?xml version="1.0" encoding="UTF-8" standalone="no"?>
<!DOCTYPE svg PUBLIC "-//W3C//DTD SVG 1.1//EN"
 "http://www.w3.org/Graphics/SVG/1.1/DTD/svg11.dtd">
<!-- Generated by graphviz version 2.38.0 (20140413.2041)
 -->
<!-- Title: C:/Users/Folaefolc/Documents/Code/Big&#45;Projects/ScriptWizards/SmallGameLibrary/include/Small/GameObjects Pages: 1 -->
<svg width="206pt" height="159pt"
 viewBox="0.00 0.00 206.00 159.00" xmlns="http://www.w3.org/2000/svg" xmlns:xlink="http://www.w3.org/1999/xlink">
<g id="graph0" class="graph" transform="scale(1 1) rotate(0) translate(4 155)">
<title>C:/Users/Folaefolc/Documents/Code/Big&#45;Projects/ScriptWizards/SmallGameLibrary/include/Small/GameObjects</title>
<polygon fill="white" stroke="none" points="-4,4 -4,-155 202,-155 202,4 -4,4"/>
<g id="clust1" class="cluster"><title>clusterdir_290c9472403cc5ed1c12e7f70d4d05fb</title>
<g id="a_clust1"><a xlink:href="dir_290c9472403cc5ed1c12e7f70d4d05fb.html" target="_top" xlink:title="Small">
<polygon fill="#ddddee" stroke="black" points="8,-56 8,-143 190,-143 190,-56 8,-56"/>
<text text-anchor="middle" x="99" y="-131" font-family="Helvetica,sans-Serif" font-size="10.00">Small</text>
</a>
</g>
</g>
<g id="clust2" class="cluster"><title>clusterdir_219003d5951e0b906e7de8511e0a45e1</title>
<g id="a_clust2"><a xlink:href="dir_219003d5951e0b906e7de8511e0a45e1.html" target="_top">
<polygon fill="#eeeeff" stroke="black" points="16,-64 16,-116 182,-116 182,-64 16,-64"/>
</a>
</g>
</g>
<!-- dir_219003d5951e0b906e7de8511e0a45e1 -->
<g id="node1" class="node"><title>dir_219003d5951e0b906e7de8511e0a45e1</title>
<text text-anchor="middle" x="135" y="-87.5" font-family="Helvetica,sans-Serif" font-size="10.00">GameObjects</text>
</g>
<!-- dir_818e4b2f1e99744b77701f4af6c4f9dd -->
<g id="node3" class="node"><title>dir_818e4b2f1e99744b77701f4af6c4f9dd</title>
<g id="a_node3"><a xlink:href="dir_818e4b2f1e99744b77701f4af6c4f9dd.html" target="_top" xlink:title="Graphics">
<polygon fill="none" stroke="black" points="163,-36 107,-36 107,-0 163,-0 163,-36"/>
<text text-anchor="middle" x="135" y="-15.5" font-family="Helvetica,sans-Serif" font-size="10.00">Graphics</text>
</a>
</g>
</g>
<!-- dir_219003d5951e0b906e7de8511e0a45e1&#45;&gt;dir_818e4b2f1e99744b77701f4af6c4f9dd -->
<g id="edge1" class="edge"><title>dir_219003d5951e0b906e7de8511e0a45e1&#45;&gt;dir_818e4b2f1e99744b77701f4af6c4f9dd</title>
<path fill="none" stroke="black" d="M135,-71.6966C135,-63.9827 135,-54.7125 135,-46.1124"/>
<polygon fill="black" stroke="black" points="138.5,-46.1043 135,-36.1043 131.5,-46.1044 138.5,-46.1043"/>
<g id="a_edge1&#45;headlabel"><a xlink:href="dir_000004_000006.html" target="_top" xlink:title="1">
<text text-anchor="middle" x="141.339" y="-47.199" font-family="Helvetica,sans-Serif" font-size="10.00">1</text>
</a>
</g>
</g>
<!-- dir_1a563be2a4c640b8adbaae37eb8849a9 -->
<g id="node2" class="node"><title>dir_1a563be2a4c640b8adbaae37eb8849a9</title>
<g id="a_node2"><a xlink:href="dir_1a563be2a4c640b8adbaae37eb8849a9.html" target="_top" xlink:title="Triggers">
<polygon fill="white" stroke="black" points="78,-108 24,-108 24,-72 78,-72 78,-108"/>
<text text-anchor="middle" x="51" y="-87.5" font-family="Helvetica,sans-Serif" font-size="10.00">Triggers</text>
</a>
</g>
</g>
</g>
</svg>
