<?xml version="1.0" encoding="UTF-8" standalone="no"?>
<!DOCTYPE svg PUBLIC "-//W3C//DTD SVG 1.1//EN"
 "http://www.w3.org/Graphics/SVG/1.1/DTD/svg11.dtd">
<!-- Generated by graphviz version 2.49.0 (20210828.1703)
 -->
<!-- Title: C:/Users/folae/Documents/Code/Big&#45;Projects/ScriptWizards/SmallGameLibrary/include/Small/Widgets Pages: 1 -->
<svg width="96pt" height="167pt"
 viewBox="0.00 0.00 96.00 167.00" xmlns="http://www.w3.org/2000/svg" xmlns:xlink="http://www.w3.org/1999/xlink">
<g id="graph0" class="graph" transform="scale(1 1) rotate(0) translate(4 163)">
<title>C:/Users/folae/Documents/Code/Big&#45;Projects/ScriptWizards/SmallGameLibrary/include/Small/Widgets</title>
<polygon fill="white" stroke="transparent" points="-4,4 -4,-163 92,-163 92,4 -4,4"/>
<g id="clust1" class="cluster">
<title>clusterdir_517f7d009caed18d50502f12c0d97ec3</title>
<g id="a_clust1"><a xlink:href="dir_517f7d009caed18d50502f12c0d97ec3.html" target="_top" xlink:title="Small">
<polygon fill="#ddddee" stroke="black" points="8,-8 8,-151 80,-151 80,-8 8,-8"/>
<text text-anchor="middle" x="44" y="-139" font-family="Helvetica,sans-Serif" font-size="10.00">Small</text>
</a>
</g>
</g>
<!-- dir_230ebb31a7b473b673878f5d3da6d001 -->
<g id="node1" class="node">
<title>dir_230ebb31a7b473b673878f5d3da6d001</title>
<g id="a_node1"><a xlink:href="dir_230ebb31a7b473b673878f5d3da6d001.html" target="_top" xlink:title="Graphics">
<polygon fill="none" stroke="black" points="72,-52 16,-52 16,-16 72,-16 72,-52"/>
<text text-anchor="middle" x="44" y="-31.5" font-family="Helvetica,sans-Serif" font-size="10.00">Graphics</text>
</a>
</g>
</g>
<!-- dir_eb1ad7c5cdd5fd5975031a9e1391d8c9 -->
<g id="node2" class="node">
<title>dir_eb1ad7c5cdd5fd5975031a9e1391d8c9</title>
<g id="a_node2"><a xlink:href="dir_eb1ad7c5cdd5fd5975031a9e1391d8c9.html" target="_top" xlink:title="Widgets">
<polygon fill="#eeeeff" stroke="black" points="71,-124 17,-124 17,-88 71,-88 71,-124"/>
<text text-anchor="middle" x="44" y="-103.5" font-family="Helvetica,sans-Serif" font-size="10.00">Widgets</text>
</a>
</g>
</g>
<!-- dir_eb1ad7c5cdd5fd5975031a9e1391d8c9&#45;&gt;dir_230ebb31a7b473b673878f5d3da6d001 -->
<g id="edge1" class="edge">
<title>dir_eb1ad7c5cdd5fd5975031a9e1391d8c9&#45;&gt;dir_230ebb31a7b473b673878f5d3da6d001</title>
<path fill="none" stroke="black" d="M44,-87.7C44,-79.98 44,-70.71 44,-62.11"/>
<polygon fill="black" stroke="black" points="47.5,-62.1 44,-52.1 40.5,-62.1 47.5,-62.1"/>
<g id="a_edge1&#45;headlabel"><a xlink:href="dir_000010_000006.html" target="_top" xlink:title="1">
<text text-anchor="middle" x="50.34" y="-63.2" font-family="Helvetica,sans-Serif" font-size="10.00">1</text>
</a>
</g>
</g>
</g>
</svg>
