<?xml version="1.0" encoding="UTF-8" standalone="no"?>
<!DOCTYPE svg PUBLIC "-//W3C//DTD SVG 1.1//EN"
 "http://www.w3.org/Graphics/SVG/1.1/DTD/svg11.dtd">
<!-- Generated by graphviz version 2.49.0 (20210828.1703)
 -->
<!-- Title: C:/Users/folae/Documents/Code/Big&#45;Projects/ScriptWizards/SmallGameLibrary/include/Small/GameObjects Pages: 1 -->
<svg width="118pt" height="167pt"
 viewBox="0.00 0.00 118.00 167.00" xmlns="http://www.w3.org/2000/svg" xmlns:xlink="http://www.w3.org/1999/xlink">
<g id="graph0" class="graph" transform="scale(1 1) rotate(0) translate(4 163)">
<title>C:/Users/folae/Documents/Code/Big&#45;Projects/ScriptWizards/SmallGameLibrary/include/Small/GameObjects</title>
<polygon fill="white" stroke="transparent" points="-4,4 -4,-163 114,-163 114,4 -4,4"/>
<g id="clust1" class="cluster">
<title>clusterdir_517f7d009caed18d50502f12c0d97ec3</title>
<g id="a_clust1"><a xlink:href="dir_517f7d009caed18d50502f12c0d97ec3.html" target="_top" xlink:title="Small">
<polygon fill="#ddddee" stroke="black" points="8,-8 8,-151 102,-151 102,-8 8,-8"/>
<text text-anchor="middle" x="55" y="-139" font-family="Helvetica,sans-Serif" font-size="10.00">Small</text>
</a>
</g>
</g>
<!-- dir_230ebb31a7b473b673878f5d3da6d001 -->
<g id="node1" class="node">
<title>dir_230ebb31a7b473b673878f5d3da6d001</title>
<g id="a_node1"><a xlink:href="dir_230ebb31a7b473b673878f5d3da6d001.html" target="_top" xlink:title="Graphics">
<polygon fill="none" stroke="black" points="83,-52 27,-52 27,-16 83,-16 83,-52"/>
<text text-anchor="middle" x="55" y="-31.5" font-family="Helvetica,sans-Serif" font-size="10.00">Graphics</text>
</a>
</g>
</g>
<!-- dir_a8ded999eb2997d5041bf5add73626b0 -->
<g id="node2" class="node">
<title>dir_a8ded999eb2997d5041bf5add73626b0</title>
<g id="a_node2"><a xlink:href="dir_a8ded999eb2997d5041bf5add73626b0.html" target="_top" xlink:title="GameObjects">
<polygon fill="#eeeeff" stroke="black" points="93.5,-124 16.5,-124 16.5,-88 93.5,-88 93.5,-124"/>
<text text-anchor="middle" x="55" y="-103.5" font-family="Helvetica,sans-Serif" font-size="10.00">GameObjects</text>
</a>
</g>
</g>
<!-- dir_a8ded999eb2997d5041bf5add73626b0&#45;&gt;dir_230ebb31a7b473b673878f5d3da6d001 -->
<g id="edge1" class="edge">
<title>dir_a8ded999eb2997d5041bf5add73626b0&#45;&gt;dir_230ebb31a7b473b673878f5d3da6d001</title>
<path fill="none" stroke="black" d="M55,-87.7C55,-79.98 55,-70.71 55,-62.11"/>
<polygon fill="black" stroke="black" points="58.5,-62.1 55,-52.1 51.5,-62.1 58.5,-62.1"/>
<g id="a_edge1&#45;headlabel"><a xlink:href="dir_000005_000006.html" target="_top" xlink:title="1">
<text text-anchor="middle" x="61.34" y="-63.2" font-family="Helvetica,sans-Serif" font-size="10.00">1</text>
</a>
</g>
</g>
</g>
</svg>
