<?xml version="1.0" encoding="UTF-8" standalone="no"?>
<!DOCTYPE svg PUBLIC "-//W3C//DTD SVG 1.1//EN"
 "http://www.w3.org/Graphics/SVG/1.1/DTD/svg11.dtd">
<!-- Generated by graphviz version 2.38.0 (20140413.2041)
 -->
<!-- Title: C:/Users/Folaefolc/Documents/Code/Big&#45;Projects/ScriptWizards/SmallGameLibrary/include/Small/Scenes Pages: 1 -->
<svg width="147pt" height="223pt"
 viewBox="0.00 0.00 146.50 223.00" xmlns="http://www.w3.org/2000/svg" xmlns:xlink="http://www.w3.org/1999/xlink">
<g id="graph0" class="graph" transform="scale(1 1) rotate(0) translate(4 219)">
<title>C:/Users/Folaefolc/Documents/Code/Big&#45;Projects/ScriptWizards/SmallGameLibrary/include/Small/Scenes</title>
<polygon fill="white" stroke="none" points="-4,4 -4,-219 142.5,-219 142.5,4 -4,4"/>
<g id="clust1" class="cluster"><title>clusterdir_290c9472403cc5ed1c12e7f70d4d05fb</title>
<g id="a_clust1"><a xlink:href="dir_290c9472403cc5ed1c12e7f70d4d05fb.html" target="_top" xlink:title="Small">
<polygon fill="#ddddee" stroke="black" points="30,-136 30,-207 100,-207 100,-136 30,-136"/>
<text text-anchor="middle" x="65" y="-195" font-family="Helvetica,sans-Serif" font-size="10.00">Small</text>
</a>
</g>
</g>
<!-- dir_bcdf9cebc25561e4c1b7192e0fcc172f -->
<g id="node1" class="node"><title>dir_bcdf9cebc25561e4c1b7192e0fcc172f</title>
<g id="a_node1"><a xlink:href="dir_bcdf9cebc25561e4c1b7192e0fcc172f.html" target="_top" xlink:title="Scenes">
<polygon fill="#eeeeff" stroke="black" points="92,-180 38,-180 38,-144 92,-144 92,-180"/>
<text text-anchor="middle" x="65" y="-159.5" font-family="Helvetica,sans-Serif" font-size="10.00">Scenes</text>
</a>
</g>
</g>
<!-- dir_818e4b2f1e99744b77701f4af6c4f9dd -->
<g id="node2" class="node"><title>dir_818e4b2f1e99744b77701f4af6c4f9dd</title>
<g id="a_node2"><a xlink:href="dir_818e4b2f1e99744b77701f4af6c4f9dd.html" target="_top" xlink:title="Graphics">
<polygon fill="none" stroke="black" points="56,-36 3.55271e-015,-36 3.55271e-015,-0 56,-0 56,-36"/>
<text text-anchor="middle" x="28" y="-15.5" font-family="Helvetica,sans-Serif" font-size="10.00">Graphics</text>
</a>
</g>
</g>
<!-- dir_bcdf9cebc25561e4c1b7192e0fcc172f&#45;&gt;dir_818e4b2f1e99744b77701f4af6c4f9dd -->
<g id="edge3" class="edge"><title>dir_bcdf9cebc25561e4c1b7192e0fcc172f&#45;&gt;dir_818e4b2f1e99744b77701f4af6c4f9dd</title>
<path fill="none" stroke="black" d="M49.4491,-143.755C41.7034,-134.007 33.1281,-121.161 29,-108 22.7279,-88.0039 22.8207,-64.2161 24.2948,-46.266"/>
<polygon fill="black" stroke="black" points="27.79,-46.4897 25.3155,-36.1879 20.8256,-45.7843 27.79,-46.4897"/>
<g id="a_edge3&#45;headlabel"><a xlink:href="dir_000007_000006.html" target="_top" xlink:title="1">
<text text-anchor="middle" x="30.2527" y="-47.852" font-family="Helvetica,sans-Serif" font-size="10.00">1</text>
</a>
</g>
</g>
<!-- dir_cd0fd4b73ca72f7d7c09733d8ad1472d -->
<g id="node3" class="node"><title>dir_cd0fd4b73ca72f7d7c09733d8ad1472d</title>
<g id="a_node3"><a xlink:href="dir_cd0fd4b73ca72f7d7c09733d8ad1472d.html" target="_top" xlink:title="Scripting">
<polygon fill="none" stroke="black" points="138.5,-36 83.5,-36 83.5,-0 138.5,-0 138.5,-36"/>
<text text-anchor="middle" x="111" y="-15.5" font-family="Helvetica,sans-Serif" font-size="10.00">Scripting</text>
</a>
</g>
</g>
<!-- dir_bcdf9cebc25561e4c1b7192e0fcc172f&#45;&gt;dir_cd0fd4b73ca72f7d7c09733d8ad1472d -->
<g id="edge4" class="edge"><title>dir_bcdf9cebc25561e4c1b7192e0fcc172f&#45;&gt;dir_cd0fd4b73ca72f7d7c09733d8ad1472d</title>
<path fill="none" stroke="black" d="M80.027,-143.576C87.6193,-133.775 96.2151,-120.936 101,-108 108.315,-88.2223 110.686,-64.4215 111.299,-46.4109"/>
<polygon fill="black" stroke="black" points="114.8,-46.3532 111.481,-36.2918 107.801,-46.2272 114.8,-46.3532"/>
<g id="a_edge4&#45;headlabel"><a xlink:href="dir_000007_000008.html" target="_top" xlink:title="1">
<text text-anchor="middle" x="117.574" y="-47.4982" font-family="Helvetica,sans-Serif" font-size="10.00">1</text>
</a>
</g>
</g>
<!-- dir_53f09675a63f23c477f13832a6d20a2f -->
<g id="node4" class="node"><title>dir_53f09675a63f23c477f13832a6d20a2f</title>
<g id="a_node4"><a xlink:href="dir_53f09675a63f23c477f13832a6d20a2f.html" target="_top" xlink:title="Core">
<polygon fill="none" stroke="black" points="92,-108 38,-108 38,-72 92,-72 92,-108"/>
<text text-anchor="middle" x="65" y="-87.5" font-family="Helvetica,sans-Serif" font-size="10.00">Core</text>
</a>
</g>
</g>
<!-- dir_bcdf9cebc25561e4c1b7192e0fcc172f&#45;&gt;dir_53f09675a63f23c477f13832a6d20a2f -->
<g id="edge5" class="edge"><title>dir_bcdf9cebc25561e4c1b7192e0fcc172f&#45;&gt;dir_53f09675a63f23c477f13832a6d20a2f</title>
<path fill="none" stroke="black" d="M65,-143.697C65,-135.983 65,-126.712 65,-118.112"/>
<polygon fill="black" stroke="black" points="68.5001,-118.104 65,-108.104 61.5001,-118.104 68.5001,-118.104"/>
<g id="a_edge5&#45;headlabel"><a xlink:href="dir_000007_000002.html" target="_top" xlink:title="2">
<text text-anchor="middle" x="71.3393" y="-119.199" font-family="Helvetica,sans-Serif" font-size="10.00">2</text>
</a>
</g>
</g>
<!-- dir_53f09675a63f23c477f13832a6d20a2f&#45;&gt;dir_818e4b2f1e99744b77701f4af6c4f9dd -->
<g id="edge1" class="edge"><title>dir_53f09675a63f23c477f13832a6d20a2f&#45;&gt;dir_818e4b2f1e99744b77701f4af6c4f9dd</title>
<path fill="none" stroke="black" d="M55.8539,-71.6966C51.5974,-63.6436 46.4442,-53.8945 41.7336,-44.9824"/>
<polygon fill="black" stroke="black" points="44.8083,-43.3097 37.0409,-36.1043 38.6197,-46.5809 44.8083,-43.3097"/>
<g id="a_edge1&#45;headlabel"><a xlink:href="dir_000002_000006.html" target="_top" xlink:title="1">
<text text-anchor="middle" x="48.9982" y="-42.6609" font-family="Helvetica,sans-Serif" font-size="10.00">1</text>
</a>
</g>
</g>
<!-- dir_53f09675a63f23c477f13832a6d20a2f&#45;&gt;dir_cd0fd4b73ca72f7d7c09733d8ad1472d -->
<g id="edge2" class="edge"><title>dir_53f09675a63f23c477f13832a6d20a2f&#45;&gt;dir_cd0fd4b73ca72f7d7c09733d8ad1472d</title>
<path fill="none" stroke="black" d="M76.3708,-71.6966C81.7185,-63.5589 88.2043,-53.689 94.1106,-44.7013"/>
<polygon fill="black" stroke="black" points="97.1932,-46.3835 99.76,-36.1043 91.3432,-42.5393 97.1932,-46.3835"/>
<g id="a_edge2&#45;headlabel"><a xlink:href="dir_000002_000008.html" target="_top" xlink:title="4">
<text text-anchor="middle" x="97.5919" y="-48.4468" font-family="Helvetica,sans-Serif" font-size="10.00">4</text>
</a>
</g>
</g>
</g>
</svg>
