<?xml version="1.0" encoding="UTF-8" standalone="no"?>
<!DOCTYPE svg PUBLIC "-//W3C//DTD SVG 1.1//EN"
 "http://www.w3.org/Graphics/SVG/1.1/DTD/svg11.dtd">
<!-- Generated by graphviz version 2.49.0 (20210828.1703)
 -->
<!-- Title: C:/Users/folae/Documents/Code/Big&#45;Projects/ScriptWizards/SmallGameLibrary/include/Small/Graphics Pages: 1 -->
<svg width="96pt" height="167pt"
 viewBox="0.00 0.00 96.00 167.00" xmlns="http://www.w3.org/2000/svg" xmlns:xlink="http://www.w3.org/1999/xlink">
<g id="graph0" class="graph" transform="scale(1 1) rotate(0) translate(4 163)">
<title>C:/Users/folae/Documents/Code/Big&#45;Projects/ScriptWizards/SmallGameLibrary/include/Small/Graphics</title>
<polygon fill="white" stroke="transparent" points="-4,4 -4,-163 92,-163 92,4 -4,4"/>
<g id="clust1" class="cluster">
<title>clusterdir_517f7d009caed18d50502f12c0d97ec3</title>
<g id="a_clust1"><a xlink:href="dir_517f7d009caed18d50502f12c0d97ec3.html" target="_top" xlink:title="Small">
<polygon fill="#ddddee" stroke="black" points="8,-8 8,-151 80,-151 80,-8 8,-8"/>
<text text-anchor="middle" x="44" y="-139" font-family="Helvetica,sans-Serif" font-size="10.00">Small</text>
</a>
</g>
</g>
<!-- dir_3c803fb2e31f05de510171dcaff9bfbd -->
<g id="node1" class="node">
<title>dir_3c803fb2e31f05de510171dcaff9bfbd</title>
<g id="a_node1"><a xlink:href="dir_3c803fb2e31f05de510171dcaff9bfbd.html" target="_top" xlink:title="Core">
<polygon fill="none" stroke="black" points="71,-124 17,-124 17,-88 71,-88 71,-124"/>
<text text-anchor="middle" x="44" y="-103.5" font-family="Helvetica,sans-Serif" font-size="10.00">Core</text>
</a>
</g>
</g>
<!-- dir_230ebb31a7b473b673878f5d3da6d001 -->
<g id="node2" class="node">
<title>dir_230ebb31a7b473b673878f5d3da6d001</title>
<g id="a_node2"><a xlink:href="dir_230ebb31a7b473b673878f5d3da6d001.html" target="_top" xlink:title="Graphics">
<polygon fill="#eeeeff" stroke="black" points="72,-52 16,-52 16,-16 72,-16 72,-52"/>
<text text-anchor="middle" x="44" y="-31.5" font-family="Helvetica,sans-Serif" font-size="10.00">Graphics</text>
</a>
</g>
</g>
<!-- dir_3c803fb2e31f05de510171dcaff9bfbd&#45;&gt;dir_230ebb31a7b473b673878f5d3da6d001 -->
<g id="edge2" class="edge">
<title>dir_3c803fb2e31f05de510171dcaff9bfbd&#45;&gt;dir_230ebb31a7b473b673878f5d3da6d001</title>
<path fill="none" stroke="black" d="M38.08,-87.7C37.29,-79.98 37.06,-70.71 37.4,-62.11"/>
<polygon fill="black" stroke="black" points="40.9,-62.32 38.1,-52.1 33.92,-61.84 40.9,-62.32"/>
<g id="a_edge2&#45;headlabel"><a xlink:href="dir_000003_000006.html" target="_top" xlink:title="1">
<text text-anchor="middle" x="43.48" y="-63.61" font-family="Helvetica,sans-Serif" font-size="10.00">1</text>
</a>
</g>
</g>
<!-- dir_230ebb31a7b473b673878f5d3da6d001&#45;&gt;dir_3c803fb2e31f05de510171dcaff9bfbd -->
<g id="edge1" class="edge">
<title>dir_230ebb31a7b473b673878f5d3da6d001&#45;&gt;dir_3c803fb2e31f05de510171dcaff9bfbd</title>
<path fill="none" stroke="black" d="M49.9,-52.1C50.7,-59.79 50.94,-69.05 50.6,-77.67"/>
<polygon fill="black" stroke="black" points="47.11,-77.48 49.92,-87.7 54.09,-77.96 47.11,-77.48"/>
<g id="a_edge1&#45;headlabel"><a xlink:href="dir_000006_000003.html" target="_top" xlink:title="1">
<text text-anchor="middle" x="44.52" y="-71.2" font-family="Helvetica,sans-Serif" font-size="10.00">1</text>
</a>
</g>
</g>
</g>
</svg>
