<?xml version="1.0" encoding="UTF-8" standalone="no"?>
<!DOCTYPE svg PUBLIC "-//W3C//DTD SVG 1.1//EN"
 "http://www.w3.org/Graphics/SVG/1.1/DTD/svg11.dtd">
<!-- Generated by graphviz version 2.49.0 (20210828.1703)
 -->
<!-- Title: Graphical Class Hierarchy Pages: 1 -->
<svg width="282pt" height="66pt"
 viewBox="0.00 0.00 282.00 66.00" xmlns="http://www.w3.org/2000/svg" xmlns:xlink="http://www.w3.org/1999/xlink">
<g id="graph0" class="graph" transform="scale(1 1) rotate(0) translate(4 62)">
<title>Graphical Class Hierarchy</title>
<polygon fill="white" stroke="transparent" points="-4,4 -4,-62 278,-62 278,4 -4,4"/>
<!-- Node5 -->
<g id="node1" class="node">
<title>Node5</title>
<g id="a_node1"><a xlink:title=" ">
<polygon fill="white" stroke="#bfbfbf" points="10.5,-38.5 10.5,-57.5 80.5,-57.5 80.5,-38.5 10.5,-38.5"/>
<text text-anchor="middle" x="45.5" y="-45.5" font-family="Helvetica,sans-Serif" font-size="10.00">sf::Drawable</text>
</a>
</g>
</g>
<!-- Node0 -->
<g id="node2" class="node">
<title>Node0</title>
<g id="a_node2"><a xlink:href="d4/db6/classsgl_1_1Graphics_1_1AnimatedSprite.html" target="_top" xlink:title="Animated sprite based on the animation class.">
<polygon fill="white" stroke="black" points="127,-38.5 127,-57.5 274,-57.5 274,-38.5 127,-38.5"/>
<text text-anchor="middle" x="200.5" y="-45.5" font-family="Helvetica,sans-Serif" font-size="10.00">sgl::Graphics::AnimatedSprite</text>
</a>
</g>
</g>
<!-- Node5&#45;&gt;Node0 -->
<g id="edge1" class="edge">
<title>Node5&#45;&gt;Node0</title>
<path fill="none" stroke="midnightblue" d="M91.18,-48C102.36,-48 114.64,-48 126.8,-48"/>
<polygon fill="midnightblue" stroke="midnightblue" points="90.84,-44.5 80.84,-48 90.84,-51.5 90.84,-44.5"/>
</g>
<!-- Node7 -->
<g id="node3" class="node">
<title>Node7</title>
<g id="a_node3"><a xlink:href="dc/d99/classsgl_1_1Graphics_1_1Tilemap.html" target="_top" xlink:title="A tilemap wrapper.">
<polygon fill="white" stroke="black" points="143.5,-0.5 143.5,-19.5 257.5,-19.5 257.5,-0.5 143.5,-0.5"/>
<text text-anchor="middle" x="200.5" y="-7.5" font-family="Helvetica,sans-Serif" font-size="10.00">sgl::Graphics::Tilemap</text>
</a>
</g>
</g>
<!-- Node5&#45;&gt;Node7 -->
<g id="edge2" class="edge">
<title>Node5&#45;&gt;Node7</title>
<path fill="none" stroke="midnightblue" d="M90.74,-37.01C113.05,-31.47 139.84,-24.82 161.25,-19.5"/>
<polygon fill="midnightblue" stroke="midnightblue" points="89.7,-33.66 80.84,-39.47 91.39,-40.46 89.7,-33.66"/>
</g>
<!-- Node31 -->
<g id="node4" class="node">
<title>Node31</title>
<g id="a_node4"><a xlink:title=" ">
<polygon fill="white" stroke="#bfbfbf" points="0,-0.5 0,-19.5 91,-19.5 91,-0.5 0,-0.5"/>
<text text-anchor="middle" x="45.5" y="-7.5" font-family="Helvetica,sans-Serif" font-size="10.00">sf::Transformable</text>
</a>
</g>
</g>
<!-- Node31&#45;&gt;Node0 -->
<g id="edge3" class="edge">
<title>Node31&#45;&gt;Node0</title>
<path fill="none" stroke="midnightblue" d="M94.98,-22.04C116.35,-27.35 141.11,-33.5 161.17,-38.48"/>
<polygon fill="midnightblue" stroke="midnightblue" points="95.66,-18.6 85.11,-19.59 93.97,-25.4 95.66,-18.6"/>
</g>
<!-- Node31&#45;&gt;Node7 -->
<g id="edge4" class="edge">
<title>Node31&#45;&gt;Node7</title>
<path fill="none" stroke="midnightblue" d="M101.37,-10C115.01,-10 129.64,-10 143.34,-10"/>
<polygon fill="midnightblue" stroke="midnightblue" points="101.17,-6.5 91.17,-10 101.17,-13.5 101.17,-6.5"/>
</g>
</g>
</svg>
