<?xml version="1.0" encoding="UTF-8" standalone="no"?>
<!DOCTYPE svg PUBLIC "-//W3C//DTD SVG 1.1//EN"
 "http://www.w3.org/Graphics/SVG/1.1/DTD/svg11.dtd">
<!-- Generated by graphviz version 2.38.0 (20140413.2041)
 -->
<!-- Title: include/Small/Scripting/SFMLtoArk.hpp Pages: 1 -->
<svg width="125pt" height="218pt"
 viewBox="0.00 0.00 125.00 218.00" xmlns="http://www.w3.org/2000/svg" xmlns:xlink="http://www.w3.org/1999/xlink">
<g id="graph0" class="graph" transform="scale(1 1) rotate(0) translate(4 214)">
<title>include/Small/Scripting/SFMLtoArk.hpp</title>
<polygon fill="white" stroke="none" points="-4,4 -4,-214 121,-214 121,4 -4,4"/>
<!-- Node1 -->
<g id="node1" class="node"><title>Node1</title>
<polygon fill="#bfbfbf" stroke="black" points="0.5,-179.5 0.5,-209.5 116.5,-209.5 116.5,-179.5 0.5,-179.5"/>
<text text-anchor="start" x="8.5" y="-197.5" font-family="Helvetica,sans-Serif" font-size="10.00">include/Small/Scripting</text>
<text text-anchor="middle" x="58.5" y="-186.5" font-family="Helvetica,sans-Serif" font-size="10.00">/SFMLtoArk.hpp</text>
</g>
<!-- Node2 -->
<g id="node2" class="node"><title>Node2</title>
<g id="a_node2"><a xlink:href="../../df/d3c/Application_8hpp.html" target="_top" xlink:title="Define the application hosting the scenes for the game. ">
<polygon fill="white" stroke="black" points="9.5,-112.5 9.5,-142.5 107.5,-142.5 107.5,-112.5 9.5,-112.5"/>
<text text-anchor="start" x="17.5" y="-130.5" font-family="Helvetica,sans-Serif" font-size="10.00">include/Small/Core</text>
<text text-anchor="middle" x="58.5" y="-119.5" font-family="Helvetica,sans-Serif" font-size="10.00">/Application.hpp</text>
</a>
</g>
</g>
<!-- Node1&#45;&gt;Node2 -->
<g id="edge1" class="edge"><title>Node1&#45;&gt;Node2</title>
<path fill="none" stroke="midnightblue" d="M58.5,-169.108C58.5,-160.154 58.5,-150.323 58.5,-142.577"/>
<polygon fill="midnightblue" stroke="midnightblue" points="55.0001,-169.396 58.5,-179.396 62.0001,-169.396 55.0001,-169.396"/>
</g>
<!-- Node3 -->
<g id="node3" class="node"><title>Node3</title>
<g id="a_node3"><a xlink:href="../../d7/d38/Core_8hpp.html" target="_top" xlink:title="Include all the files from the Core folder. ">
<polygon fill="white" stroke="black" points="0,-56.5 0,-75.5 117,-75.5 117,-56.5 0,-56.5"/>
<text text-anchor="middle" x="58.5" y="-63.5" font-family="Helvetica,sans-Serif" font-size="10.00">include/Small/Core.hpp</text>
</a>
</g>
</g>
<!-- Node2&#45;&gt;Node3 -->
<g id="edge2" class="edge"><title>Node2&#45;&gt;Node3</title>
<path fill="none" stroke="midnightblue" d="M58.5,-102.289C58.5,-92.857 58.5,-82.6548 58.5,-75.6578"/>
<polygon fill="midnightblue" stroke="midnightblue" points="55.0001,-102.399 58.5,-112.399 62.0001,-102.399 55.0001,-102.399"/>
</g>
<!-- Node4 -->
<g id="node4" class="node"><title>Node4</title>
<g id="a_node4"><a xlink:href="../../da/d41/All_8hpp.html" target="_top" xlink:title="Include the needed files to start a project using the library. ">
<polygon fill="white" stroke="black" points="4.5,-0.5 4.5,-19.5 112.5,-19.5 112.5,-0.5 4.5,-0.5"/>
<text text-anchor="middle" x="58.5" y="-7.5" font-family="Helvetica,sans-Serif" font-size="10.00">include/Small/All.hpp</text>
</a>
</g>
</g>
<!-- Node3&#45;&gt;Node4 -->
<g id="edge3" class="edge"><title>Node3&#45;&gt;Node4</title>
<path fill="none" stroke="midnightblue" d="M58.5,-45.8045C58.5,-36.9102 58.5,-26.7798 58.5,-19.7511"/>
<polygon fill="midnightblue" stroke="midnightblue" points="55.0001,-46.083 58.5,-56.083 62.0001,-46.083 55.0001,-46.083"/>
</g>
</g>
</svg>
