<?xml version="1.0" encoding="UTF-8" standalone="no"?>
<!DOCTYPE svg PUBLIC "-//W3C//DTD SVG 1.1//EN"
 "http://www.w3.org/Graphics/SVG/1.1/DTD/svg11.dtd">
<!-- Generated by graphviz version 2.38.0 (20140413.2041)
 -->
<!-- Title: C:/Users/Folaefolc/Documents/Code/Big&#45;Projects/ScriptWizards/SmallGameLibrary/include/Small/Graphics/Node.hpp Pages: 1 -->
<svg width="1587pt" height="572pt"
 viewBox="0.00 0.00 1587.00 572.00" xmlns="http://www.w3.org/2000/svg" xmlns:xlink="http://www.w3.org/1999/xlink">
<g id="graph0" class="graph" transform="scale(1 1) rotate(0) translate(4 568)">
<title>C:/Users/Folaefolc/Documents/Code/Big&#45;Projects/ScriptWizards/SmallGameLibrary/include/Small/Graphics/Node.hpp</title>
<polygon fill="white" stroke="none" points="-4,4 -4,-568 1583,-568 1583,4 -4,4"/>
<!-- Node1 -->
<g id="node1" class="node"><title>Node1</title>
<polygon fill="#bfbfbf" stroke="black" points="509.5,-500.5 509.5,-563.5 643.5,-563.5 643.5,-500.5 509.5,-500.5"/>
<text text-anchor="start" x="517.5" y="-551.5" font-family="Helvetica,sans-Serif" font-size="10.00">C:/Users/Folaefolc</text>
<text text-anchor="start" x="517.5" y="-540.5" font-family="Helvetica,sans-Serif" font-size="10.00">/Documents/Code/Big</text>
<text text-anchor="start" x="517.5" y="-529.5" font-family="Helvetica,sans-Serif" font-size="10.00">&#45;Projects/ScriptWizards</text>
<text text-anchor="start" x="517.5" y="-518.5" font-family="Helvetica,sans-Serif" font-size="10.00">/SmallGameLibrary/include</text>
<text text-anchor="middle" x="576.5" y="-507.5" font-family="Helvetica,sans-Serif" font-size="10.00">/Small/Graphics/Node.hpp</text>
</g>
<!-- Node2 -->
<g id="node2" class="node"><title>Node2</title>
<g id="a_node2"><a xlink:href="../../db/de8/Scene_8hpp.html" target="_top" xlink:title="The base scene class and the scene states are defined here. ">
<polygon fill="white" stroke="black" points="237.5,-400.5 237.5,-463.5 371.5,-463.5 371.5,-400.5 237.5,-400.5"/>
<text text-anchor="start" x="245.5" y="-451.5" font-family="Helvetica,sans-Serif" font-size="10.00">C:/Users/Folaefolc</text>
<text text-anchor="start" x="245.5" y="-440.5" font-family="Helvetica,sans-Serif" font-size="10.00">/Documents/Code/Big</text>
<text text-anchor="start" x="245.5" y="-429.5" font-family="Helvetica,sans-Serif" font-size="10.00">&#45;Projects/ScriptWizards</text>
<text text-anchor="start" x="245.5" y="-418.5" font-family="Helvetica,sans-Serif" font-size="10.00">/SmallGameLibrary/include</text>
<text text-anchor="middle" x="304.5" y="-407.5" font-family="Helvetica,sans-Serif" font-size="10.00">/Small/Core/Scene.hpp</text>
</a>
</g>
</g>
<!-- Node1&#45;&gt;Node2 -->
<g id="edge1" class="edge"><title>Node1&#45;&gt;Node2</title>
<path fill="none" stroke="midnightblue" d="M499.761,-503.352C459.521,-488.853 410.675,-471.254 371.905,-457.286"/>
<polygon fill="midnightblue" stroke="midnightblue" points="498.67,-506.678 509.264,-506.775 501.042,-500.093 498.67,-506.678"/>
</g>
<!-- Node10 -->
<g id="node10" class="node"><title>Node10</title>
<g id="a_node10"><a xlink:href="../../d3/d1b/Actor_8hpp.html" target="_top" xlink:title="Defines an actor class for your game, to represent a player or NPC for example. ">
<polygon fill="white" stroke="black" points="415.5,-200.5 415.5,-263.5 567.5,-263.5 567.5,-200.5 415.5,-200.5"/>
<text text-anchor="start" x="423.5" y="-251.5" font-family="Helvetica,sans-Serif" font-size="10.00">C:/Users/Folaefolc</text>
<text text-anchor="start" x="423.5" y="-240.5" font-family="Helvetica,sans-Serif" font-size="10.00">/Documents/Code/Big</text>
<text text-anchor="start" x="423.5" y="-229.5" font-family="Helvetica,sans-Serif" font-size="10.00">&#45;Projects/ScriptWizards</text>
<text text-anchor="start" x="423.5" y="-218.5" font-family="Helvetica,sans-Serif" font-size="10.00">/SmallGameLibrary/include</text>
<text text-anchor="middle" x="491.5" y="-207.5" font-family="Helvetica,sans-Serif" font-size="10.00">/Small/GameObjects/Actor.hpp</text>
</a>
</g>
</g>
<!-- Node1&#45;&gt;Node10 -->
<g id="edge13" class="edge"><title>Node1&#45;&gt;Node10</title>
<path fill="none" stroke="midnightblue" d="M575.251,-490.128C572.58,-442.766 564.265,-363.149 538.5,-300 533.293,-287.239 525.285,-274.529 517.345,-263.664"/>
<polygon fill="midnightblue" stroke="midnightblue" points="571.765,-490.488 575.765,-500.299 578.756,-490.135 571.765,-490.488"/>
</g>
<!-- Node12 -->
<g id="node12" class="node"><title>Node12</title>
<g id="a_node12"><a xlink:href="../../dc/da8/Graphics_8hpp.html" target="_top" xlink:title="Include all the files from the Graphics folder. ">
<polygon fill="white" stroke="black" points="528.5,-100.5 528.5,-163.5 662.5,-163.5 662.5,-100.5 528.5,-100.5"/>
<text text-anchor="start" x="536.5" y="-151.5" font-family="Helvetica,sans-Serif" font-size="10.00">C:/Users/Folaefolc</text>
<text text-anchor="start" x="536.5" y="-140.5" font-family="Helvetica,sans-Serif" font-size="10.00">/Documents/Code/Big</text>
<text text-anchor="start" x="536.5" y="-129.5" font-family="Helvetica,sans-Serif" font-size="10.00">&#45;Projects/ScriptWizards</text>
<text text-anchor="start" x="536.5" y="-118.5" font-family="Helvetica,sans-Serif" font-size="10.00">/SmallGameLibrary/include</text>
<text text-anchor="middle" x="595.5" y="-107.5" font-family="Helvetica,sans-Serif" font-size="10.00">/Small/Graphics.hpp</text>
</a>
</g>
</g>
<!-- Node1&#45;&gt;Node12 -->
<g id="edge16" class="edge"><title>Node1&#45;&gt;Node12</title>
<path fill="none" stroke="midnightblue" d="M579.763,-490.096C580.391,-481.48 581.006,-472.444 581.5,-464 587.96,-353.469 592.621,-222.008 594.536,-163.591"/>
<polygon fill="midnightblue" stroke="midnightblue" points="576.254,-490.094 578.998,-500.328 583.234,-490.617 576.254,-490.094"/>
</g>
<!-- Node13 -->
<g id="node13" class="node"><title>Node13</title>
<g id="a_node13"><a xlink:href="../../d3/db2/Base_8hpp.html" target="_top" xlink:title="Contain base classes to create interoperable SFML widgets. ">
<polygon fill="white" stroke="black" points="901.5,-400.5 901.5,-463.5 1035.5,-463.5 1035.5,-400.5 901.5,-400.5"/>
<text text-anchor="start" x="909.5" y="-451.5" font-family="Helvetica,sans-Serif" font-size="10.00">C:/Users/Folaefolc</text>
<text text-anchor="start" x="909.5" y="-440.5" font-family="Helvetica,sans-Serif" font-size="10.00">/Documents/Code/Big</text>
<text text-anchor="start" x="909.5" y="-429.5" font-family="Helvetica,sans-Serif" font-size="10.00">&#45;Projects/ScriptWizards</text>
<text text-anchor="start" x="909.5" y="-418.5" font-family="Helvetica,sans-Serif" font-size="10.00">/SmallGameLibrary/include</text>
<text text-anchor="middle" x="968.5" y="-407.5" font-family="Helvetica,sans-Serif" font-size="10.00">/Small/Widgets/Base.hpp</text>
</a>
</g>
</g>
<!-- Node1&#45;&gt;Node13 -->
<g id="edge18" class="edge"><title>Node1&#45;&gt;Node13</title>
<path fill="none" stroke="midnightblue" d="M653.837,-511.666C726.02,-493.62 832.636,-466.966 901.337,-449.791"/>
<polygon fill="midnightblue" stroke="midnightblue" points="652.74,-508.332 643.887,-514.153 654.438,-515.123 652.74,-508.332"/>
</g>
<!-- Node3 -->
<g id="node3" class="node"><title>Node3</title>
<g id="a_node3"><a xlink:href="../../df/d74/SceneManager_8hpp.html" target="_top" xlink:title="Define the scene manager (creating, handling and destroying them) ">
<polygon fill="white" stroke="black" points="20,-300.5 20,-363.5 175,-363.5 175,-300.5 20,-300.5"/>
<text text-anchor="start" x="28" y="-351.5" font-family="Helvetica,sans-Serif" font-size="10.00">C:/Users/Folaefolc</text>
<text text-anchor="start" x="28" y="-340.5" font-family="Helvetica,sans-Serif" font-size="10.00">/Documents/Code/Big</text>
<text text-anchor="start" x="28" y="-329.5" font-family="Helvetica,sans-Serif" font-size="10.00">&#45;Projects/ScriptWizards</text>
<text text-anchor="start" x="28" y="-318.5" font-family="Helvetica,sans-Serif" font-size="10.00">/SmallGameLibrary/include</text>
<text text-anchor="middle" x="97.5" y="-307.5" font-family="Helvetica,sans-Serif" font-size="10.00">/Small/Core/SceneManager.hpp</text>
</a>
</g>
</g>
<!-- Node2&#45;&gt;Node3 -->
<g id="edge2" class="edge"><title>Node2&#45;&gt;Node3</title>
<path fill="none" stroke="midnightblue" d="M230.708,-396.065C208.267,-385.44 183.79,-373.852 162.01,-363.541"/>
<polygon fill="midnightblue" stroke="midnightblue" points="229.319,-399.28 239.855,-400.395 232.315,-392.953 229.319,-399.28"/>
</g>
<!-- Node5 -->
<g id="node5" class="node"><title>Node5</title>
<g id="a_node5"><a xlink:href="../../d7/d38/Core_8hpp.html" target="_top" xlink:title="Include all the files from the Core folder. ">
<polygon fill="white" stroke="black" points="117.5,-100.5 117.5,-163.5 251.5,-163.5 251.5,-100.5 117.5,-100.5"/>
<text text-anchor="start" x="125.5" y="-151.5" font-family="Helvetica,sans-Serif" font-size="10.00">C:/Users/Folaefolc</text>
<text text-anchor="start" x="125.5" y="-140.5" font-family="Helvetica,sans-Serif" font-size="10.00">/Documents/Code/Big</text>
<text text-anchor="start" x="125.5" y="-129.5" font-family="Helvetica,sans-Serif" font-size="10.00">&#45;Projects/ScriptWizards</text>
<text text-anchor="start" x="125.5" y="-118.5" font-family="Helvetica,sans-Serif" font-size="10.00">/SmallGameLibrary/include</text>
<text text-anchor="middle" x="184.5" y="-107.5" font-family="Helvetica,sans-Serif" font-size="10.00">/Small/Core.hpp</text>
</a>
</g>
</g>
<!-- Node2&#45;&gt;Node5 -->
<g id="edge7" class="edge"><title>Node2&#45;&gt;Node5</title>
<path fill="none" stroke="midnightblue" d="M247.509,-393.72C237.848,-385.035 228.891,-375.05 222.5,-364 185.464,-299.969 181.882,-210.227 182.906,-163.695"/>
<polygon fill="midnightblue" stroke="midnightblue" points="245.485,-396.593 255.372,-400.401 250.018,-391.259 245.485,-396.593"/>
</g>
<!-- Node7 -->
<g id="node7" class="node"><title>Node7</title>
<g id="a_node7"><a xlink:href="../../de/de7/ArkScene_8hpp.html" target="_top" xlink:title="Define a scene scriptable through ArkScript. ">
<polygon fill="white" stroke="black" points="232,-300.5 232,-363.5 377,-363.5 377,-300.5 232,-300.5"/>
<text text-anchor="start" x="240" y="-351.5" font-family="Helvetica,sans-Serif" font-size="10.00">C:/Users/Folaefolc</text>
<text text-anchor="start" x="240" y="-340.5" font-family="Helvetica,sans-Serif" font-size="10.00">/Documents/Code/Big</text>
<text text-anchor="start" x="240" y="-329.5" font-family="Helvetica,sans-Serif" font-size="10.00">&#45;Projects/ScriptWizards</text>
<text text-anchor="start" x="240" y="-318.5" font-family="Helvetica,sans-Serif" font-size="10.00">/SmallGameLibrary/include</text>
<text text-anchor="middle" x="304.5" y="-307.5" font-family="Helvetica,sans-Serif" font-size="10.00">/Small/Scenes/ArkScene.hpp</text>
</a>
</g>
</g>
<!-- Node2&#45;&gt;Node7 -->
<g id="edge8" class="edge"><title>Node2&#45;&gt;Node7</title>
<path fill="none" stroke="midnightblue" d="M304.5,-390.099C304.5,-381.238 304.5,-372.015 304.5,-363.63"/>
<polygon fill="midnightblue" stroke="midnightblue" points="301,-390.261 304.5,-400.261 308,-390.261 301,-390.261"/>
</g>
<!-- Node9 -->
<g id="node9" class="node"><title>Node9</title>
<g id="a_node9"><a xlink:href="../../d2/d50/Zone_8hpp.html" target="_top" xlink:title="A specialized scene to handle zones and transitions on a tilemap. ">
<polygon fill="white" stroke="black" points="395.5,-300.5 395.5,-363.5 529.5,-363.5 529.5,-300.5 395.5,-300.5"/>
<text text-anchor="start" x="403.5" y="-351.5" font-family="Helvetica,sans-Serif" font-size="10.00">C:/Users/Folaefolc</text>
<text text-anchor="start" x="403.5" y="-340.5" font-family="Helvetica,sans-Serif" font-size="10.00">/Documents/Code/Big</text>
<text text-anchor="start" x="403.5" y="-329.5" font-family="Helvetica,sans-Serif" font-size="10.00">&#45;Projects/ScriptWizards</text>
<text text-anchor="start" x="403.5" y="-318.5" font-family="Helvetica,sans-Serif" font-size="10.00">/SmallGameLibrary/include</text>
<text text-anchor="middle" x="462.5" y="-307.5" font-family="Helvetica,sans-Serif" font-size="10.00">/Small/Scenes/Zone.hpp</text>
</a>
</g>
</g>
<!-- Node2&#45;&gt;Node9 -->
<g id="edge11" class="edge"><title>Node2&#45;&gt;Node9</title>
<path fill="none" stroke="midnightblue" d="M362.596,-394.966C379.186,-384.676 397.101,-373.564 413.117,-363.63"/>
<polygon fill="midnightblue" stroke="midnightblue" points="360.712,-392.016 354.059,-400.261 364.402,-397.964 360.712,-392.016"/>
</g>
<!-- Node4 -->
<g id="node4" class="node"><title>Node4</title>
<g id="a_node4"><a xlink:href="../../df/d3c/Application_8hpp.html" target="_top" xlink:title="Define the application hosting the scenes for the game. ">
<polygon fill="white" stroke="black" points="0,-200.5 0,-263.5 137,-263.5 137,-200.5 0,-200.5"/>
<text text-anchor="start" x="8" y="-251.5" font-family="Helvetica,sans-Serif" font-size="10.00">C:/Users/Folaefolc</text>
<text text-anchor="start" x="8" y="-240.5" font-family="Helvetica,sans-Serif" font-size="10.00">/Documents/Code/Big</text>
<text text-anchor="start" x="8" y="-229.5" font-family="Helvetica,sans-Serif" font-size="10.00">&#45;Projects/ScriptWizards</text>
<text text-anchor="start" x="8" y="-218.5" font-family="Helvetica,sans-Serif" font-size="10.00">/SmallGameLibrary/include</text>
<text text-anchor="middle" x="68.5" y="-207.5" font-family="Helvetica,sans-Serif" font-size="10.00">/Small/Core/Application.hpp</text>
</a>
</g>
</g>
<!-- Node3&#45;&gt;Node4 -->
<g id="edge3" class="edge"><title>Node3&#45;&gt;Node4</title>
<path fill="none" stroke="midnightblue" d="M85.482,-290.387C82.834,-281.439 80.0721,-272.106 77.5639,-263.63"/>
<polygon fill="midnightblue" stroke="midnightblue" points="82.21,-291.665 88.4038,-300.261 88.9223,-289.679 82.21,-291.665"/>
</g>
<!-- Node3&#45;&gt;Node5 -->
<g id="edge6" class="edge"><title>Node3&#45;&gt;Node5</title>
<path fill="none" stroke="midnightblue" d="M128.657,-292.072C134.823,-283.188 140.825,-273.543 145.5,-264 161.472,-231.396 172.283,-190.971 178.397,-163.721"/>
<polygon fill="midnightblue" stroke="midnightblue" points="125.719,-290.164 122.733,-300.329 131.407,-294.244 125.719,-290.164"/>
</g>
<!-- Node4&#45;&gt;Node5 -->
<g id="edge4" class="edge"><title>Node4&#45;&gt;Node5</title>
<path fill="none" stroke="midnightblue" d="M112.835,-193.545C124.537,-183.659 137.025,-173.108 148.244,-163.63"/>
<polygon fill="midnightblue" stroke="midnightblue" points="110.265,-191.134 104.885,-200.261 114.782,-196.481 110.265,-191.134"/>
</g>
<!-- Node6 -->
<g id="node6" class="node"><title>Node6</title>
<g id="a_node6"><a xlink:href="../../da/d41/All_8hpp.html" target="_top" xlink:title="Include the needed files to start a project using the library. ">
<polygon fill="white" stroke="black" points="376.5,-0.5 376.5,-63.5 510.5,-63.5 510.5,-0.5 376.5,-0.5"/>
<text text-anchor="start" x="384.5" y="-51.5" font-family="Helvetica,sans-Serif" font-size="10.00">C:/Users/Folaefolc</text>
<text text-anchor="start" x="384.5" y="-40.5" font-family="Helvetica,sans-Serif" font-size="10.00">/Documents/Code/Big</text>
<text text-anchor="start" x="384.5" y="-29.5" font-family="Helvetica,sans-Serif" font-size="10.00">&#45;Projects/ScriptWizards</text>
<text text-anchor="start" x="384.5" y="-18.5" font-family="Helvetica,sans-Serif" font-size="10.00">/SmallGameLibrary/include</text>
<text text-anchor="middle" x="443.5" y="-7.5" font-family="Helvetica,sans-Serif" font-size="10.00">/Small/All.hpp</text>
</a>
</g>
</g>
<!-- Node5&#45;&gt;Node6 -->
<g id="edge5" class="edge"><title>Node5&#45;&gt;Node6</title>
<path fill="none" stroke="midnightblue" d="M261.162,-101.993C297.715,-88.1619 341.047,-71.766 376.296,-58.4287"/>
<polygon fill="midnightblue" stroke="midnightblue" points="259.65,-98.8226 251.536,-105.635 262.127,-105.37 259.65,-98.8226"/>
</g>
<!-- Node8 -->
<g id="node8" class="node"><title>Node8</title>
<g id="a_node8"><a xlink:href="../../d0/d00/Scenes_8hpp.html" target="_top" xlink:title="Include all the files from the Scenes folder. ">
<polygon fill="white" stroke="black" points="263.5,-200.5 263.5,-263.5 397.5,-263.5 397.5,-200.5 263.5,-200.5"/>
<text text-anchor="start" x="271.5" y="-251.5" font-family="Helvetica,sans-Serif" font-size="10.00">C:/Users/Folaefolc</text>
<text text-anchor="start" x="271.5" y="-240.5" font-family="Helvetica,sans-Serif" font-size="10.00">/Documents/Code/Big</text>
<text text-anchor="start" x="271.5" y="-229.5" font-family="Helvetica,sans-Serif" font-size="10.00">&#45;Projects/ScriptWizards</text>
<text text-anchor="start" x="271.5" y="-218.5" font-family="Helvetica,sans-Serif" font-size="10.00">/SmallGameLibrary/include</text>
<text text-anchor="middle" x="330.5" y="-207.5" font-family="Helvetica,sans-Serif" font-size="10.00">/Small/Scenes.hpp</text>
</a>
</g>
</g>
<!-- Node7&#45;&gt;Node8 -->
<g id="edge9" class="edge"><title>Node7&#45;&gt;Node8</title>
<path fill="none" stroke="midnightblue" d="M315.275,-290.387C317.649,-281.439 320.125,-272.106 322.374,-263.63"/>
<polygon fill="midnightblue" stroke="midnightblue" points="311.837,-289.698 312.655,-300.261 318.603,-291.493 311.837,-289.698"/>
</g>
<!-- Node8&#45;&gt;Node6 -->
<g id="edge10" class="edge"><title>Node8&#45;&gt;Node6</title>
<path fill="none" stroke="midnightblue" d="M335.824,-190.422C340.809,-163.221 350.198,-127.489 367.5,-100 376.026,-86.4534 388.094,-74.0715 400.108,-63.7382"/>
<polygon fill="midnightblue" stroke="midnightblue" points="332.354,-189.947 334.122,-200.394 339.255,-191.125 332.354,-189.947"/>
</g>
<!-- Node9&#45;&gt;Node8 -->
<g id="edge12" class="edge"><title>Node9&#45;&gt;Node8</title>
<path fill="none" stroke="midnightblue" d="M412.817,-294.114C399.281,-284.065 384.769,-273.29 371.757,-263.63"/>
<polygon fill="midnightblue" stroke="midnightblue" points="410.981,-297.11 421.097,-300.261 415.154,-291.49 410.981,-297.11"/>
</g>
<!-- Node11 -->
<g id="node11" class="node"><title>Node11</title>
<g id="a_node11"><a xlink:href="../../d2/da1/GameObjects_8hpp.html" target="_top" xlink:title="Include all the files from the GameObjects folder. ">
<polygon fill="white" stroke="black" points="376.5,-100.5 376.5,-163.5 510.5,-163.5 510.5,-100.5 376.5,-100.5"/>
<text text-anchor="start" x="384.5" y="-151.5" font-family="Helvetica,sans-Serif" font-size="10.00">C:/Users/Folaefolc</text>
<text text-anchor="start" x="384.5" y="-140.5" font-family="Helvetica,sans-Serif" font-size="10.00">/Documents/Code/Big</text>
<text text-anchor="start" x="384.5" y="-129.5" font-family="Helvetica,sans-Serif" font-size="10.00">&#45;Projects/ScriptWizards</text>
<text text-anchor="start" x="384.5" y="-118.5" font-family="Helvetica,sans-Serif" font-size="10.00">/SmallGameLibrary/include</text>
<text text-anchor="middle" x="443.5" y="-107.5" font-family="Helvetica,sans-Serif" font-size="10.00">/Small/GameObjects.hpp</text>
</a>
</g>
</g>
<!-- Node10&#45;&gt;Node11 -->
<g id="edge14" class="edge"><title>Node10&#45;&gt;Node11</title>
<path fill="none" stroke="midnightblue" d="M472.032,-191.252C467.521,-182.042 462.788,-172.379 458.502,-163.63"/>
<polygon fill="midnightblue" stroke="midnightblue" points="468.902,-192.82 476.444,-200.261 475.189,-189.741 468.902,-192.82"/>
</g>
<!-- Node11&#45;&gt;Node6 -->
<g id="edge15" class="edge"><title>Node11&#45;&gt;Node6</title>
<path fill="none" stroke="midnightblue" d="M443.5,-90.0987C443.5,-81.2383 443.5,-72.0145 443.5,-63.6299"/>
<polygon fill="midnightblue" stroke="midnightblue" points="440,-90.261 443.5,-100.261 447,-90.2611 440,-90.261"/>
</g>
<!-- Node12&#45;&gt;Node6 -->
<g id="edge17" class="edge"><title>Node12&#45;&gt;Node6</title>
<path fill="none" stroke="midnightblue" d="M539.17,-94.6822C523.334,-84.4719 506.274,-73.4727 491.008,-63.6299"/>
<polygon fill="midnightblue" stroke="midnightblue" points="537.522,-97.7839 547.823,-100.261 541.315,-91.9007 537.522,-97.7839"/>
</g>
<!-- Node14 -->
<g id="node14" class="node"><title>Node14</title>
<g id="a_node14"><a xlink:href="../../d4/db3/Button_8hpp.html" target="_top" xlink:title="Basic button widget. ">
<polygon fill="white" stroke="black" points="623.5,-300.5 623.5,-363.5 757.5,-363.5 757.5,-300.5 623.5,-300.5"/>
<text text-anchor="start" x="631.5" y="-351.5" font-family="Helvetica,sans-Serif" font-size="10.00">C:/Users/Folaefolc</text>
<text text-anchor="start" x="631.5" y="-340.5" font-family="Helvetica,sans-Serif" font-size="10.00">/Documents/Code/Big</text>
<text text-anchor="start" x="631.5" y="-329.5" font-family="Helvetica,sans-Serif" font-size="10.00">&#45;Projects/ScriptWizards</text>
<text text-anchor="start" x="631.5" y="-318.5" font-family="Helvetica,sans-Serif" font-size="10.00">/SmallGameLibrary/include</text>
<text text-anchor="middle" x="690.5" y="-307.5" font-family="Helvetica,sans-Serif" font-size="10.00">/Small/Widgets/Button.hpp</text>
</a>
</g>
</g>
<!-- Node13&#45;&gt;Node14 -->
<g id="edge19" class="edge"><title>Node13&#45;&gt;Node14</title>
<path fill="none" stroke="midnightblue" d="M891.667,-405.617C855.149,-393.362 810.954,-378.253 771.5,-364 766.968,-362.363 762.304,-360.651 757.611,-358.908"/>
<polygon fill="midnightblue" stroke="midnightblue" points="890.67,-408.974 901.263,-408.831 892.893,-402.336 890.67,-408.974"/>
</g>
<!-- Node15 -->
<g id="node15" class="node"><title>Node15</title>
<g id="a_node15"><a xlink:href="../../d0/d27/Widgets_8hpp.html" target="_top" xlink:title="Include all the files from the Widgets folder. ">
<polygon fill="white" stroke="black" points="901.5,-200.5 901.5,-263.5 1035.5,-263.5 1035.5,-200.5 901.5,-200.5"/>
<text text-anchor="start" x="909.5" y="-251.5" font-family="Helvetica,sans-Serif" font-size="10.00">C:/Users/Folaefolc</text>
<text text-anchor="start" x="909.5" y="-240.5" font-family="Helvetica,sans-Serif" font-size="10.00">/Documents/Code/Big</text>
<text text-anchor="start" x="909.5" y="-229.5" font-family="Helvetica,sans-Serif" font-size="10.00">&#45;Projects/ScriptWizards</text>
<text text-anchor="start" x="909.5" y="-218.5" font-family="Helvetica,sans-Serif" font-size="10.00">/SmallGameLibrary/include</text>
<text text-anchor="middle" x="968.5" y="-207.5" font-family="Helvetica,sans-Serif" font-size="10.00">/Small/Widgets.hpp</text>
</a>
</g>
</g>
<!-- Node13&#45;&gt;Node15 -->
<g id="edge32" class="edge"><title>Node13&#45;&gt;Node15</title>
<path fill="none" stroke="midnightblue" d="M891.306,-418.938C858.825,-409.63 824.083,-393.154 804.5,-364 788.64,-340.388 788.64,-323.612 804.5,-300 826.108,-267.83 866.175,-251.097 901.295,-242.398"/>
<polygon fill="midnightblue" stroke="midnightblue" points="890.731,-422.406 901.295,-421.602 892.535,-415.643 890.731,-422.406"/>
</g>
<!-- Node16 -->
<g id="node16" class="node"><title>Node16</title>
<g id="a_node16"><a xlink:href="../../d5/d28/CheckBox_8hpp.html" target="_top" xlink:title="Basic checkbox widget. ">
<polygon fill="white" stroke="black" points="813.5,-300.5 813.5,-363.5 963.5,-363.5 963.5,-300.5 813.5,-300.5"/>
<text text-anchor="start" x="821.5" y="-351.5" font-family="Helvetica,sans-Serif" font-size="10.00">C:/Users/Folaefolc</text>
<text text-anchor="start" x="821.5" y="-340.5" font-family="Helvetica,sans-Serif" font-size="10.00">/Documents/Code/Big</text>
<text text-anchor="start" x="821.5" y="-329.5" font-family="Helvetica,sans-Serif" font-size="10.00">&#45;Projects/ScriptWizards</text>
<text text-anchor="start" x="821.5" y="-318.5" font-family="Helvetica,sans-Serif" font-size="10.00">/SmallGameLibrary/include</text>
<text text-anchor="middle" x="888.5" y="-307.5" font-family="Helvetica,sans-Serif" font-size="10.00">/Small/Widgets/CheckBox.hpp</text>
</a>
</g>
</g>
<!-- Node13&#45;&gt;Node16 -->
<g id="edge22" class="edge"><title>Node13&#45;&gt;Node16</title>
<path fill="none" stroke="midnightblue" d="M936.991,-392.401C929.193,-382.849 920.944,-372.744 913.504,-363.63"/>
<polygon fill="midnightblue" stroke="midnightblue" points="934.372,-394.728 943.407,-400.261 939.795,-390.301 934.372,-394.728"/>
</g>
<!-- Node17 -->
<g id="node17" class="node"><title>Node17</title>
<g id="a_node17"><a xlink:href="../../d8/dde/Image_8hpp.html" target="_top" xlink:title="Basic image widget. ">
<polygon fill="white" stroke="black" points="981.5,-300.5 981.5,-363.5 1115.5,-363.5 1115.5,-300.5 981.5,-300.5"/>
<text text-anchor="start" x="989.5" y="-351.5" font-family="Helvetica,sans-Serif" font-size="10.00">C:/Users/Folaefolc</text>
<text text-anchor="start" x="989.5" y="-340.5" font-family="Helvetica,sans-Serif" font-size="10.00">/Documents/Code/Big</text>
<text text-anchor="start" x="989.5" y="-329.5" font-family="Helvetica,sans-Serif" font-size="10.00">&#45;Projects/ScriptWizards</text>
<text text-anchor="start" x="989.5" y="-318.5" font-family="Helvetica,sans-Serif" font-size="10.00">/SmallGameLibrary/include</text>
<text text-anchor="middle" x="1048.5" y="-307.5" font-family="Helvetica,sans-Serif" font-size="10.00">/Small/Widgets/Image.hpp</text>
</a>
</g>
</g>
<!-- Node13&#45;&gt;Node17 -->
<g id="edge24" class="edge"><title>Node13&#45;&gt;Node17</title>
<path fill="none" stroke="midnightblue" d="M1000.01,-392.401C1007.81,-382.849 1016.06,-372.744 1023.5,-363.63"/>
<polygon fill="midnightblue" stroke="midnightblue" points="997.205,-390.301 993.593,-400.261 1002.63,-394.728 997.205,-390.301"/>
</g>
<!-- Node18 -->
<g id="node18" class="node"><title>Node18</title>
<g id="a_node18"><a xlink:href="../../da/d44/Label_8hpp.html" target="_top" xlink:title="Basic label widget. ">
<polygon fill="white" stroke="black" points="1133.5,-300.5 1133.5,-363.5 1267.5,-363.5 1267.5,-300.5 1133.5,-300.5"/>
<text text-anchor="start" x="1141.5" y="-351.5" font-family="Helvetica,sans-Serif" font-size="10.00">C:/Users/Folaefolc</text>
<text text-anchor="start" x="1141.5" y="-340.5" font-family="Helvetica,sans-Serif" font-size="10.00">/Documents/Code/Big</text>
<text text-anchor="start" x="1141.5" y="-329.5" font-family="Helvetica,sans-Serif" font-size="10.00">&#45;Projects/ScriptWizards</text>
<text text-anchor="start" x="1141.5" y="-318.5" font-family="Helvetica,sans-Serif" font-size="10.00">/SmallGameLibrary/include</text>
<text text-anchor="middle" x="1200.5" y="-307.5" font-family="Helvetica,sans-Serif" font-size="10.00">/Small/Widgets/Label.hpp</text>
</a>
</g>
</g>
<!-- Node13&#45;&gt;Node18 -->
<g id="edge26" class="edge"><title>Node13&#45;&gt;Node18</title>
<path fill="none" stroke="midnightblue" d="M1045.1,-398.642C1073.55,-386.626 1105.58,-373.094 1133.15,-361.452"/>
<polygon fill="midnightblue" stroke="midnightblue" points="1043.45,-395.539 1035.6,-402.654 1046.18,-401.987 1043.45,-395.539"/>
</g>
<!-- Node19 -->
<g id="node19" class="node"><title>Node19</title>
<g id="a_node19"><a xlink:href="../../d4/df9/Layout_8hpp.html" target="_top" xlink:title="A widget acting as a collection of widgets. ">
<polygon fill="white" stroke="black" points="1285.5,-300.5 1285.5,-363.5 1419.5,-363.5 1419.5,-300.5 1285.5,-300.5"/>
<text text-anchor="start" x="1293.5" y="-351.5" font-family="Helvetica,sans-Serif" font-size="10.00">C:/Users/Folaefolc</text>
<text text-anchor="start" x="1293.5" y="-340.5" font-family="Helvetica,sans-Serif" font-size="10.00">/Documents/Code/Big</text>
<text text-anchor="start" x="1293.5" y="-329.5" font-family="Helvetica,sans-Serif" font-size="10.00">&#45;Projects/ScriptWizards</text>
<text text-anchor="start" x="1293.5" y="-318.5" font-family="Helvetica,sans-Serif" font-size="10.00">/SmallGameLibrary/include</text>
<text text-anchor="middle" x="1352.5" y="-307.5" font-family="Helvetica,sans-Serif" font-size="10.00">/Small/Widgets/Layout.hpp</text>
</a>
</g>
</g>
<!-- Node13&#45;&gt;Node19 -->
<g id="edge28" class="edge"><title>Node13&#45;&gt;Node19</title>
<path fill="none" stroke="midnightblue" d="M1045.6,-418.061C1108.49,-406.596 1199.23,-387.966 1276.5,-364 1279.36,-363.114 1282.26,-362.164 1285.18,-361.167"/>
<polygon fill="midnightblue" stroke="midnightblue" points="1044.97,-414.617 1035.75,-419.839 1046.22,-421.506 1044.97,-414.617"/>
</g>
<!-- Node20 -->
<g id="node20" class="node"><title>Node20</title>
<g id="a_node20"><a xlink:href="../../d6/dc2/TextBox_8hpp.html" target="_top" xlink:title="Basic textbox widget. ">
<polygon fill="white" stroke="black" points="1438,-300.5 1438,-363.5 1579,-363.5 1579,-300.5 1438,-300.5"/>
<text text-anchor="start" x="1446" y="-351.5" font-family="Helvetica,sans-Serif" font-size="10.00">C:/Users/Folaefolc</text>
<text text-anchor="start" x="1446" y="-340.5" font-family="Helvetica,sans-Serif" font-size="10.00">/Documents/Code/Big</text>
<text text-anchor="start" x="1446" y="-329.5" font-family="Helvetica,sans-Serif" font-size="10.00">&#45;Projects/ScriptWizards</text>
<text text-anchor="start" x="1446" y="-318.5" font-family="Helvetica,sans-Serif" font-size="10.00">/SmallGameLibrary/include</text>
<text text-anchor="middle" x="1508.5" y="-307.5" font-family="Helvetica,sans-Serif" font-size="10.00">/Small/Widgets/TextBox.hpp</text>
</a>
</g>
</g>
<!-- Node13&#45;&gt;Node20 -->
<g id="edge30" class="edge"><title>Node13&#45;&gt;Node20</title>
<path fill="none" stroke="midnightblue" d="M1045.81,-425.087C1138.08,-416.81 1296.47,-398.721 1428.5,-364 1431.53,-363.204 1434.59,-362.331 1437.67,-361.397"/>
<polygon fill="midnightblue" stroke="midnightblue" points="1045.37,-421.613 1035.72,-425.977 1045.98,-428.585 1045.37,-421.613"/>
</g>
<!-- Node14&#45;&gt;Node15 -->
<g id="edge20" class="edge"><title>Node14&#45;&gt;Node15</title>
<path fill="none" stroke="midnightblue" d="M767.216,-301.555C768.655,-301.031 770.084,-300.512 771.5,-300 814.48,-284.473 863.086,-267.931 901.263,-255.169"/>
<polygon fill="midnightblue" stroke="midnightblue" points="765.785,-298.352 757.611,-305.092 768.204,-304.921 765.785,-298.352"/>
</g>
<!-- Node15&#45;&gt;Node6 -->
<g id="edge21" class="edge"><title>Node15&#45;&gt;Node6</title>
<path fill="none" stroke="midnightblue" d="M896.44,-196.067C836.95,-167.997 749.873,-128.663 671.5,-100 618.223,-80.5154 556.402,-62.6329 510.585,-50.2526"/>
<polygon fill="midnightblue" stroke="midnightblue" points="895.209,-199.357 905.745,-200.472 898.204,-193.03 895.209,-199.357"/>
</g>
<!-- Node16&#45;&gt;Node15 -->
<g id="edge23" class="edge"><title>Node16&#45;&gt;Node15</title>
<path fill="none" stroke="midnightblue" d="M920.009,-292.401C927.807,-282.849 936.056,-272.744 943.496,-263.63"/>
<polygon fill="midnightblue" stroke="midnightblue" points="917.205,-290.301 913.593,-300.261 922.628,-294.728 917.205,-290.301"/>
</g>
<!-- Node17&#45;&gt;Node15 -->
<g id="edge25" class="edge"><title>Node17&#45;&gt;Node15</title>
<path fill="none" stroke="midnightblue" d="M1016.99,-292.401C1009.19,-282.849 1000.94,-272.744 993.504,-263.63"/>
<polygon fill="midnightblue" stroke="midnightblue" points="1014.37,-294.728 1023.41,-300.261 1019.79,-290.301 1014.37,-294.728"/>
</g>
<!-- Node18&#45;&gt;Node15 -->
<g id="edge27" class="edge"><title>Node18&#45;&gt;Node15</title>
<path fill="none" stroke="midnightblue" d="M1123.9,-298.642C1095.45,-286.626 1063.42,-273.094 1035.85,-261.452"/>
<polygon fill="midnightblue" stroke="midnightblue" points="1122.82,-301.987 1133.4,-302.654 1125.55,-295.539 1122.82,-301.987"/>
</g>
<!-- Node19&#45;&gt;Node15 -->
<g id="edge29" class="edge"><title>Node19&#45;&gt;Node15</title>
<path fill="none" stroke="midnightblue" d="M1275.39,-299.823C1188.18,-273.366 1096.46,-255.019 1035.75,-244.161"/>
<polygon fill="midnightblue" stroke="midnightblue" points="1274.59,-303.239 1285.18,-302.833 1276.65,-296.548 1274.59,-303.239"/>
</g>
<!-- Node20&#45;&gt;Node15 -->
<g id="edge31" class="edge"><title>Node20&#45;&gt;Node15</title>
<path fill="none" stroke="midnightblue" d="M1427.8,-300.031C1284.13,-263.168 1124.13,-245.681 1035.72,-238.023"/>
<polygon fill="midnightblue" stroke="midnightblue" points="1427.11,-303.47 1437.67,-302.603 1428.88,-296.696 1427.11,-303.47"/>
</g>
</g>
</svg>
