<?xml version="1.0" encoding="UTF-8" standalone="no"?>
<!DOCTYPE svg PUBLIC "-//W3C//DTD SVG 1.1//EN"
 "http://www.w3.org/Graphics/SVG/1.1/DTD/svg11.dtd">
<!-- Generated by graphviz version 2.49.0 (20210828.1703)
 -->
<!-- Title: C:/Users/folae/Documents/Code/Big&#45;Projects/ScriptWizards/SmallGameLibrary/include/Small/Graphics/Node.hpp Pages: 1 -->
<svg width="2978pt" height="495pt"
 viewBox="0.00 0.00 2978.00 495.00" xmlns="http://www.w3.org/2000/svg" xmlns:xlink="http://www.w3.org/1999/xlink">
<g id="graph0" class="graph" transform="scale(1 1) rotate(0) translate(4 491)">
<title>C:/Users/folae/Documents/Code/Big&#45;Projects/ScriptWizards/SmallGameLibrary/include/Small/Graphics/Node.hpp</title>
<polygon fill="white" stroke="transparent" points="-4,4 -4,-491 2974,-491 2974,4 -4,4"/>
<!-- Node1 -->
<g id="node1" class="node">
<title>Node1</title>
<g id="a_node1"><a xlink:title="A scene graph node.">
<polygon fill="#bfbfbf" stroke="black" points="1928,-434.5 1928,-486.5 2091,-486.5 2091,-434.5 1928,-434.5"/>
<text text-anchor="start" x="1936" y="-474.5" font-family="Helvetica,sans-Serif" font-size="10.00">C:/Users/folae/Documents</text>
<text text-anchor="start" x="1936" y="-463.5" font-family="Helvetica,sans-Serif" font-size="10.00">/Code/Big&#45;Projects/ScriptWizards</text>
<text text-anchor="start" x="1936" y="-452.5" font-family="Helvetica,sans-Serif" font-size="10.00">/SmallGameLibrary/include/Small</text>
<text text-anchor="middle" x="2009.5" y="-441.5" font-family="Helvetica,sans-Serif" font-size="10.00">/Graphics/Node.hpp</text>
</a>
</g>
</g>
<!-- Node2 -->
<g id="node2" class="node">
<title>Node2</title>
<g id="a_node2"><a xlink:href="../../db/de8/Scene_8hpp.html" target="_top" xlink:title="The base scene class and the scene states are defined here.">
<polygon fill="white" stroke="black" points="851,-345.5 851,-397.5 1014,-397.5 1014,-345.5 851,-345.5"/>
<text text-anchor="start" x="859" y="-385.5" font-family="Helvetica,sans-Serif" font-size="10.00">C:/Users/folae/Documents</text>
<text text-anchor="start" x="859" y="-374.5" font-family="Helvetica,sans-Serif" font-size="10.00">/Code/Big&#45;Projects/ScriptWizards</text>
<text text-anchor="start" x="859" y="-363.5" font-family="Helvetica,sans-Serif" font-size="10.00">/SmallGameLibrary/include/Small</text>
<text text-anchor="middle" x="932.5" y="-352.5" font-family="Helvetica,sans-Serif" font-size="10.00">/Core/Scene.hpp</text>
</a>
</g>
</g>
<!-- Node1&#45;&gt;Node2 -->
<g id="edge1" class="edge">
<title>Node1&#45;&gt;Node2</title>
<path fill="none" stroke="midnightblue" d="M1917.44,-452.06C1710.44,-435.34 1211.04,-395 1014.21,-379.1"/>
<polygon fill="midnightblue" stroke="midnightblue" points="1917.42,-455.57 1927.67,-452.89 1917.98,-448.6 1917.42,-455.57"/>
</g>
<!-- Node16 -->
<g id="node16" class="node">
<title>Node16</title>
<g id="a_node16"><a xlink:href="../../d3/d1b/Actor_8hpp.html" target="_top" xlink:title="Defines an actor class for your game, to represent a player or NPC for example.">
<polygon fill="white" stroke="black" points="142,-345.5 142,-397.5 305,-397.5 305,-345.5 142,-345.5"/>
<text text-anchor="start" x="150" y="-385.5" font-family="Helvetica,sans-Serif" font-size="10.00">C:/Users/folae/Documents</text>
<text text-anchor="start" x="150" y="-374.5" font-family="Helvetica,sans-Serif" font-size="10.00">/Code/Big&#45;Projects/ScriptWizards</text>
<text text-anchor="start" x="150" y="-363.5" font-family="Helvetica,sans-Serif" font-size="10.00">/SmallGameLibrary/include/Small</text>
<text text-anchor="middle" x="223.5" y="-352.5" font-family="Helvetica,sans-Serif" font-size="10.00">/GameObjects/Actor.hpp</text>
</a>
</g>
</g>
<!-- Node1&#45;&gt;Node16 -->
<g id="edge20" class="edge">
<title>Node1&#45;&gt;Node16</title>
<path fill="none" stroke="midnightblue" d="M1917.51,-455.02C1606.84,-439.89 599.54,-390.82 305.06,-376.47"/>
<polygon fill="midnightblue" stroke="midnightblue" points="1917.67,-458.53 1927.82,-455.52 1918.01,-451.54 1917.67,-458.53"/>
</g>
<!-- Node19 -->
<g id="node19" class="node">
<title>Node19</title>
<g id="a_node19"><a xlink:href="../../dc/da8/Graphics_8hpp.html" target="_top" xlink:title="Include all the files from the Graphics folder.">
<polygon fill="white" stroke="black" points="2807,-256.5 2807,-308.5 2970,-308.5 2970,-256.5 2807,-256.5"/>
<text text-anchor="start" x="2815" y="-296.5" font-family="Helvetica,sans-Serif" font-size="10.00">C:/Users/folae/Documents</text>
<text text-anchor="start" x="2815" y="-285.5" font-family="Helvetica,sans-Serif" font-size="10.00">/Code/Big&#45;Projects/ScriptWizards</text>
<text text-anchor="start" x="2815" y="-274.5" font-family="Helvetica,sans-Serif" font-size="10.00">/SmallGameLibrary/include/Small</text>
<text text-anchor="middle" x="2888.5" y="-263.5" font-family="Helvetica,sans-Serif" font-size="10.00">/Graphics.hpp</text>
</a>
</g>
</g>
<!-- Node1&#45;&gt;Node19 -->
<g id="edge24" class="edge">
<title>Node1&#45;&gt;Node19</title>
<path fill="none" stroke="midnightblue" d="M2101.01,-456.45C2222.02,-450.97 2427.46,-436.2 2491.5,-398 2516.39,-383.15 2504.66,-359.93 2529.5,-345 2632.51,-283.09 2679.8,-333.27 2797.5,-309 2800.55,-308.37 2803.65,-307.69 2806.78,-306.98"/>
<polygon fill="midnightblue" stroke="midnightblue" points="2100.84,-452.95 2091.01,-456.89 2101.15,-459.95 2100.84,-452.95"/>
</g>
<!-- Node20 -->
<g id="node20" class="node">
<title>Node20</title>
<g id="a_node20"><a xlink:href="../../da/da5/Sprite_8hpp.html" target="_top" xlink:title=" ">
<polygon fill="white" stroke="black" points="2319,-345.5 2319,-397.5 2482,-397.5 2482,-345.5 2319,-345.5"/>
<text text-anchor="start" x="2327" y="-385.5" font-family="Helvetica,sans-Serif" font-size="10.00">C:/Users/folae/Documents</text>
<text text-anchor="start" x="2327" y="-374.5" font-family="Helvetica,sans-Serif" font-size="10.00">/Code/Big&#45;Projects/ScriptWizards</text>
<text text-anchor="start" x="2327" y="-363.5" font-family="Helvetica,sans-Serif" font-size="10.00">/SmallGameLibrary/include/Small</text>
<text text-anchor="middle" x="2400.5" y="-352.5" font-family="Helvetica,sans-Serif" font-size="10.00">/Graphics/Sprite.hpp</text>
</a>
</g>
</g>
<!-- Node1&#45;&gt;Node20 -->
<g id="edge26" class="edge">
<title>Node1&#45;&gt;Node20</title>
<path fill="none" stroke="midnightblue" d="M2101.45,-439.04C2167.42,-424.36 2255.51,-404.76 2318.98,-390.64"/>
<polygon fill="midnightblue" stroke="midnightblue" points="2100.47,-435.67 2091.47,-441.26 2101.99,-442.51 2100.47,-435.67"/>
</g>
<!-- Node22 -->
<g id="node22" class="node">
<title>Node22</title>
<g id="a_node22"><a xlink:href="../../d3/db2/Base_8hpp.html" target="_top" xlink:title="Contain base classes to create interoperable SFML widgets.">
<polygon fill="white" stroke="black" points="1838,-345.5 1838,-397.5 2001,-397.5 2001,-345.5 1838,-345.5"/>
<text text-anchor="start" x="1846" y="-385.5" font-family="Helvetica,sans-Serif" font-size="10.00">C:/Users/folae/Documents</text>
<text text-anchor="start" x="1846" y="-374.5" font-family="Helvetica,sans-Serif" font-size="10.00">/Code/Big&#45;Projects/ScriptWizards</text>
<text text-anchor="start" x="1846" y="-363.5" font-family="Helvetica,sans-Serif" font-size="10.00">/SmallGameLibrary/include/Small</text>
<text text-anchor="middle" x="1919.5" y="-352.5" font-family="Helvetica,sans-Serif" font-size="10.00">/Widgets/Base.hpp</text>
</a>
</g>
</g>
<!-- Node1&#45;&gt;Node22 -->
<g id="edge29" class="edge">
<title>Node1&#45;&gt;Node22</title>
<path fill="none" stroke="midnightblue" d="M1976.25,-427.36C1966.1,-417.54 1955.08,-406.89 1945.47,-397.61"/>
<polygon fill="midnightblue" stroke="midnightblue" points="1973.85,-429.9 1983.47,-434.34 1978.71,-424.87 1973.85,-429.9"/>
</g>
<!-- Node35 -->
<g id="node35" class="node">
<title>Node35</title>
<g id="a_node35"><a xlink:href="../../dc/d73/Node_8cpp.html" target="_top" xlink:title=" ">
<polygon fill="white" stroke="black" points="2538.5,-351 2538.5,-392 2756.5,-392 2756.5,-351 2538.5,-351"/>
<text text-anchor="start" x="2546.5" y="-380" font-family="Helvetica,sans-Serif" font-size="10.00">C:/Users/folae/Documents</text>
<text text-anchor="start" x="2546.5" y="-369" font-family="Helvetica,sans-Serif" font-size="10.00">/Code/Big&#45;Projects/ScriptWizards</text>
<text text-anchor="middle" x="2647.5" y="-358" font-family="Helvetica,sans-Serif" font-size="10.00">/SmallGameLibrary/source/Graphics/Node.cpp</text>
</a>
</g>
</g>
<!-- Node1&#45;&gt;Node35 -->
<g id="edge49" class="edge">
<title>Node1&#45;&gt;Node35</title>
<path fill="none" stroke="midnightblue" d="M2101.5,-450.91C2204.79,-440.71 2377.21,-422.02 2524.5,-398 2535.26,-396.25 2546.51,-394.2 2557.65,-392.05"/>
<polygon fill="midnightblue" stroke="midnightblue" points="2101.03,-447.44 2091.42,-451.9 2101.71,-454.41 2101.03,-447.44"/>
</g>
<!-- Node3 -->
<g id="node3" class="node">
<title>Node3</title>
<g id="a_node3"><a xlink:href="../../d7/d38/Core_8hpp.html" target="_top" xlink:title="Include all the files from the Core folder.">
<polygon fill="white" stroke="black" points="757,-84 757,-125 960,-125 960,-84 757,-84"/>
<text text-anchor="start" x="765" y="-113" font-family="Helvetica,sans-Serif" font-size="10.00">C:/Users/folae/Documents</text>
<text text-anchor="start" x="765" y="-102" font-family="Helvetica,sans-Serif" font-size="10.00">/Code/Big&#45;Projects/ScriptWizards</text>
<text text-anchor="middle" x="858.5" y="-91" font-family="Helvetica,sans-Serif" font-size="10.00">/SmallGameLibrary/include/Small/Core.hpp</text>
</a>
</g>
</g>
<!-- Node2&#45;&gt;Node3 -->
<g id="edge2" class="edge">
<title>Node2&#45;&gt;Node3</title>
<path fill="none" stroke="midnightblue" d="M918.1,-335.73C906.07,-305.56 889.22,-260.51 878.5,-220 869.83,-187.23 863.92,-148.16 860.89,-125.17"/>
<polygon fill="midnightblue" stroke="midnightblue" points="914.99,-337.39 921.97,-345.36 921.49,-334.77 914.99,-337.39"/>
</g>
<!-- Node5 -->
<g id="node5" class="node">
<title>Node5</title>
<g id="a_node5"><a xlink:href="../../df/d74/SceneManager_8hpp.html" target="_top" xlink:title="Define the scene manager (creating, handling and destroying them)">
<polygon fill="white" stroke="black" points="925,-256.5 925,-308.5 1088,-308.5 1088,-256.5 925,-256.5"/>
<text text-anchor="start" x="933" y="-296.5" font-family="Helvetica,sans-Serif" font-size="10.00">C:/Users/folae/Documents</text>
<text text-anchor="start" x="933" y="-285.5" font-family="Helvetica,sans-Serif" font-size="10.00">/Code/Big&#45;Projects/ScriptWizards</text>
<text text-anchor="start" x="933" y="-274.5" font-family="Helvetica,sans-Serif" font-size="10.00">/SmallGameLibrary/include/Small</text>
<text text-anchor="middle" x="1006.5" y="-263.5" font-family="Helvetica,sans-Serif" font-size="10.00">/Core/SceneManager.hpp</text>
</a>
</g>
</g>
<!-- Node2&#45;&gt;Node5 -->
<g id="edge4" class="edge">
<title>Node2&#45;&gt;Node5</title>
<path fill="none" stroke="midnightblue" d="M960.57,-337.5C968.72,-327.92 977.48,-317.62 985.14,-308.61"/>
<polygon fill="midnightblue" stroke="midnightblue" points="957.72,-335.45 953.9,-345.34 963.05,-339.99 957.72,-335.45"/>
</g>
<!-- Node9 -->
<g id="node9" class="node">
<title>Node9</title>
<g id="a_node9"><a xlink:href="../../de/d15/Scene_8cpp.html" target="_top" xlink:title=" ">
<polygon fill="white" stroke="black" points="1287,-167.5 1287,-219.5 1450,-219.5 1450,-167.5 1287,-167.5"/>
<text text-anchor="start" x="1295" y="-207.5" font-family="Helvetica,sans-Serif" font-size="10.00">C:/Users/folae/Documents</text>
<text text-anchor="start" x="1295" y="-196.5" font-family="Helvetica,sans-Serif" font-size="10.00">/Code/Big&#45;Projects/ScriptWizards</text>
<text text-anchor="start" x="1295" y="-185.5" font-family="Helvetica,sans-Serif" font-size="10.00">/SmallGameLibrary/source/Core</text>
<text text-anchor="middle" x="1368.5" y="-174.5" font-family="Helvetica,sans-Serif" font-size="10.00">/Scene.cpp</text>
</a>
</g>
</g>
<!-- Node2&#45;&gt;Node9 -->
<g id="edge19" class="edge">
<title>Node2&#45;&gt;Node9</title>
<path fill="none" stroke="midnightblue" d="M1011.32,-341.9C1038.7,-331.76 1069.55,-320.11 1097.5,-309 1171.78,-279.48 1256.52,-243.26 1311.17,-219.57"/>
<polygon fill="midnightblue" stroke="midnightblue" points="1009.96,-338.68 1001.79,-345.42 1012.39,-345.24 1009.96,-338.68"/>
</g>
<!-- Node11 -->
<g id="node11" class="node">
<title>Node11</title>
<g id="a_node11"><a xlink:href="../../de/de7/ArkScene_8hpp.html" target="_top" xlink:title="Define a scene scriptable through ArkScript.">
<polygon fill="white" stroke="black" points="438,-256.5 438,-308.5 601,-308.5 601,-256.5 438,-256.5"/>
<text text-anchor="start" x="446" y="-296.5" font-family="Helvetica,sans-Serif" font-size="10.00">C:/Users/folae/Documents</text>
<text text-anchor="start" x="446" y="-285.5" font-family="Helvetica,sans-Serif" font-size="10.00">/Code/Big&#45;Projects/ScriptWizards</text>
<text text-anchor="start" x="446" y="-274.5" font-family="Helvetica,sans-Serif" font-size="10.00">/SmallGameLibrary/include/Small</text>
<text text-anchor="middle" x="519.5" y="-263.5" font-family="Helvetica,sans-Serif" font-size="10.00">/Scenes/ArkScene.hpp</text>
</a>
</g>
</g>
<!-- Node2&#45;&gt;Node11 -->
<g id="edge12" class="edge">
<title>Node2&#45;&gt;Node11</title>
<path fill="none" stroke="midnightblue" d="M840.81,-352.07C781.6,-340.06 702.93,-323.9 633.5,-309 622.99,-306.74 611.95,-304.33 601.04,-301.92"/>
<polygon fill="midnightblue" stroke="midnightblue" points="840.39,-355.55 850.88,-354.11 841.78,-348.69 840.39,-355.55"/>
</g>
<!-- Node14 -->
<g id="node14" class="node">
<title>Node14</title>
<g id="a_node14"><a xlink:href="../../d2/d50/Zone_8hpp.html" target="_top" xlink:title="A specialized scene to handle zones and transitions on a tilemap.">
<polygon fill="white" stroke="black" points="643,-256.5 643,-308.5 806,-308.5 806,-256.5 643,-256.5"/>
<text text-anchor="start" x="651" y="-296.5" font-family="Helvetica,sans-Serif" font-size="10.00">C:/Users/folae/Documents</text>
<text text-anchor="start" x="651" y="-285.5" font-family="Helvetica,sans-Serif" font-size="10.00">/Code/Big&#45;Projects/ScriptWizards</text>
<text text-anchor="start" x="651" y="-274.5" font-family="Helvetica,sans-Serif" font-size="10.00">/SmallGameLibrary/include/Small</text>
<text text-anchor="middle" x="724.5" y="-263.5" font-family="Helvetica,sans-Serif" font-size="10.00">/Scenes/Zone.hpp</text>
</a>
</g>
</g>
<!-- Node2&#45;&gt;Node14 -->
<g id="edge16" class="edge">
<title>Node2&#45;&gt;Node14</title>
<path fill="none" stroke="midnightblue" d="M863.35,-341.58C837.77,-330.88 809,-318.85 784.32,-308.52"/>
<polygon fill="midnightblue" stroke="midnightblue" points="862.04,-344.82 872.62,-345.45 864.74,-338.36 862.04,-344.82"/>
</g>
<!-- Node4 -->
<g id="node4" class="node">
<title>Node4</title>
<g id="a_node4"><a xlink:href="../../da/d41/All_8hpp.html" target="_top" xlink:title="Include the needed files to start a project using the library.">
<polygon fill="white" stroke="black" points="761.5,-0.5 761.5,-41.5 955.5,-41.5 955.5,-0.5 761.5,-0.5"/>
<text text-anchor="start" x="769.5" y="-29.5" font-family="Helvetica,sans-Serif" font-size="10.00">C:/Users/folae/Documents</text>
<text text-anchor="start" x="769.5" y="-18.5" font-family="Helvetica,sans-Serif" font-size="10.00">/Code/Big&#45;Projects/ScriptWizards</text>
<text text-anchor="middle" x="858.5" y="-7.5" font-family="Helvetica,sans-Serif" font-size="10.00">/SmallGameLibrary/include/Small/All.hpp</text>
</a>
</g>
</g>
<!-- Node3&#45;&gt;Node4 -->
<g id="edge3" class="edge">
<title>Node3&#45;&gt;Node4</title>
<path fill="none" stroke="midnightblue" d="M858.5,-73.56C858.5,-62.88 858.5,-51.13 858.5,-41.55"/>
<polygon fill="midnightblue" stroke="midnightblue" points="855,-73.77 858.5,-83.77 862,-73.77 855,-73.77"/>
</g>
<!-- Node5&#45;&gt;Node3 -->
<g id="edge5" class="edge">
<title>Node5&#45;&gt;Node3</title>
<path fill="none" stroke="midnightblue" d="M950.68,-250.41C938.09,-241.69 925.5,-231.42 915.5,-220 890.34,-191.27 873.26,-149.46 864.76,-125.11"/>
<polygon fill="midnightblue" stroke="midnightblue" points="949.1,-253.57 959.36,-256.2 952.98,-247.75 949.1,-253.57"/>
</g>
<!-- Node6 -->
<g id="node6" class="node">
<title>Node6</title>
<g id="a_node6"><a xlink:href="../../df/d3c/Application_8hpp.html" target="_top" xlink:title="Define the application hosting the scenes for the game.">
<polygon fill="white" stroke="black" points="925,-167.5 925,-219.5 1088,-219.5 1088,-167.5 925,-167.5"/>
<text text-anchor="start" x="933" y="-207.5" font-family="Helvetica,sans-Serif" font-size="10.00">C:/Users/folae/Documents</text>
<text text-anchor="start" x="933" y="-196.5" font-family="Helvetica,sans-Serif" font-size="10.00">/Code/Big&#45;Projects/ScriptWizards</text>
<text text-anchor="start" x="933" y="-185.5" font-family="Helvetica,sans-Serif" font-size="10.00">/SmallGameLibrary/include/Small</text>
<text text-anchor="middle" x="1006.5" y="-174.5" font-family="Helvetica,sans-Serif" font-size="10.00">/Core/Application.hpp</text>
</a>
</g>
</g>
<!-- Node5&#45;&gt;Node6 -->
<g id="edge6" class="edge">
<title>Node5&#45;&gt;Node6</title>
<path fill="none" stroke="midnightblue" d="M1006.5,-246.19C1006.5,-237.28 1006.5,-227.9 1006.5,-219.61"/>
<polygon fill="midnightblue" stroke="midnightblue" points="1003,-246.34 1006.5,-256.34 1010,-246.34 1003,-246.34"/>
</g>
<!-- Node5&#45;&gt;Node9 -->
<g id="edge10" class="edge">
<title>Node5&#45;&gt;Node9</title>
<path fill="none" stroke="midnightblue" d="M1098.04,-262.09C1150.94,-250.55 1218.66,-235.23 1278.5,-220 1281.18,-219.32 1283.89,-218.62 1286.63,-217.9"/>
<polygon fill="midnightblue" stroke="midnightblue" points="1097.03,-258.72 1088,-264.27 1098.52,-265.56 1097.03,-258.72"/>
</g>
<!-- Node10 -->
<g id="node10" class="node">
<title>Node10</title>
<g id="a_node10"><a xlink:href="../../da/d2c/SceneManager_8cpp.html" target="_top" xlink:title=" ">
<polygon fill="white" stroke="black" points="1106,-167.5 1106,-219.5 1269,-219.5 1269,-167.5 1106,-167.5"/>
<text text-anchor="start" x="1114" y="-207.5" font-family="Helvetica,sans-Serif" font-size="10.00">C:/Users/folae/Documents</text>
<text text-anchor="start" x="1114" y="-196.5" font-family="Helvetica,sans-Serif" font-size="10.00">/Code/Big&#45;Projects/ScriptWizards</text>
<text text-anchor="start" x="1114" y="-185.5" font-family="Helvetica,sans-Serif" font-size="10.00">/SmallGameLibrary/source/Core</text>
<text text-anchor="middle" x="1187.5" y="-174.5" font-family="Helvetica,sans-Serif" font-size="10.00">/SceneManager.cpp</text>
</a>
</g>
</g>
<!-- Node5&#45;&gt;Node10 -->
<g id="edge11" class="edge">
<title>Node5&#45;&gt;Node10</title>
<path fill="none" stroke="midnightblue" d="M1068.05,-251.92C1089.9,-241.41 1114.27,-229.7 1135.26,-219.61"/>
<polygon fill="midnightblue" stroke="midnightblue" points="1066.35,-248.85 1058.85,-256.34 1069.38,-255.16 1066.35,-248.85"/>
</g>
<!-- Node6&#45;&gt;Node3 -->
<g id="edge7" class="edge">
<title>Node6&#45;&gt;Node3</title>
<path fill="none" stroke="midnightblue" d="M954.91,-162.17C933.98,-149.87 910.41,-136.01 891.81,-125.08"/>
<polygon fill="midnightblue" stroke="midnightblue" points="953.3,-165.29 963.69,-167.34 956.85,-159.25 953.3,-165.29"/>
</g>
<!-- Node7 -->
<g id="node7" class="node">
<title>Node7</title>
<g id="a_node7"><a xlink:href="../../d2/db6/Application_8cpp.html" target="_top" xlink:title=" ">
<polygon fill="white" stroke="black" points="978,-78.5 978,-130.5 1141,-130.5 1141,-78.5 978,-78.5"/>
<text text-anchor="start" x="986" y="-118.5" font-family="Helvetica,sans-Serif" font-size="10.00">C:/Users/folae/Documents</text>
<text text-anchor="start" x="986" y="-107.5" font-family="Helvetica,sans-Serif" font-size="10.00">/Code/Big&#45;Projects/ScriptWizards</text>
<text text-anchor="start" x="986" y="-96.5" font-family="Helvetica,sans-Serif" font-size="10.00">/SmallGameLibrary/source/Core</text>
<text text-anchor="middle" x="1059.5" y="-85.5" font-family="Helvetica,sans-Serif" font-size="10.00">/Application.cpp</text>
</a>
</g>
</g>
<!-- Node6&#45;&gt;Node7 -->
<g id="edge8" class="edge">
<title>Node6&#45;&gt;Node7</title>
<path fill="none" stroke="midnightblue" d="M1027.13,-158.64C1032.81,-149.31 1038.88,-139.35 1044.2,-130.61"/>
<polygon fill="midnightblue" stroke="midnightblue" points="1024.04,-156.97 1021.83,-167.34 1030.02,-160.62 1024.04,-156.97"/>
</g>
<!-- Node8 -->
<g id="node8" class="node">
<title>Node8</title>
<g id="a_node8"><a xlink:href="../../db/da3/Bindings_8cpp.html" target="_top" xlink:title=" ">
<polygon fill="white" stroke="black" points="1159,-78.5 1159,-130.5 1332,-130.5 1332,-78.5 1159,-78.5"/>
<text text-anchor="start" x="1167" y="-118.5" font-family="Helvetica,sans-Serif" font-size="10.00">C:/Users/folae/Documents</text>
<text text-anchor="start" x="1167" y="-107.5" font-family="Helvetica,sans-Serif" font-size="10.00">/Code/Big&#45;Projects/ScriptWizards</text>
<text text-anchor="start" x="1167" y="-96.5" font-family="Helvetica,sans-Serif" font-size="10.00">/SmallGameLibrary/source/Scripting</text>
<text text-anchor="middle" x="1245.5" y="-85.5" font-family="Helvetica,sans-Serif" font-size="10.00">/Bindings.cpp</text>
</a>
</g>
</g>
<!-- Node6&#45;&gt;Node8 -->
<g id="edge9" class="edge">
<title>Node6&#45;&gt;Node8</title>
<path fill="none" stroke="midnightblue" d="M1084.8,-164C1114.48,-153.19 1148.03,-140.98 1176.76,-130.52"/>
<polygon fill="midnightblue" stroke="midnightblue" points="1083.51,-160.74 1075.31,-167.45 1085.9,-167.32 1083.51,-160.74"/>
</g>
<!-- Node12 -->
<g id="node12" class="node">
<title>Node12</title>
<g id="a_node12"><a xlink:href="../../d0/d00/Scenes_8hpp.html" target="_top" xlink:title="Include all the files from the Scenes folder.">
<polygon fill="white" stroke="black" points="438,-167.5 438,-219.5 601,-219.5 601,-167.5 438,-167.5"/>
<text text-anchor="start" x="446" y="-207.5" font-family="Helvetica,sans-Serif" font-size="10.00">C:/Users/folae/Documents</text>
<text text-anchor="start" x="446" y="-196.5" font-family="Helvetica,sans-Serif" font-size="10.00">/Code/Big&#45;Projects/ScriptWizards</text>
<text text-anchor="start" x="446" y="-185.5" font-family="Helvetica,sans-Serif" font-size="10.00">/SmallGameLibrary/include/Small</text>
<text text-anchor="middle" x="519.5" y="-174.5" font-family="Helvetica,sans-Serif" font-size="10.00">/Scenes.hpp</text>
</a>
</g>
</g>
<!-- Node11&#45;&gt;Node12 -->
<g id="edge13" class="edge">
<title>Node11&#45;&gt;Node12</title>
<path fill="none" stroke="midnightblue" d="M519.5,-246.19C519.5,-237.28 519.5,-227.9 519.5,-219.61"/>
<polygon fill="midnightblue" stroke="midnightblue" points="516,-246.34 519.5,-256.34 523,-246.34 516,-246.34"/>
</g>
<!-- Node13 -->
<g id="node13" class="node">
<title>Node13</title>
<g id="a_node13"><a xlink:href="../../d4/dff/ArkScene_8cpp.html" target="_top" xlink:title=" ">
<polygon fill="white" stroke="black" points="251.5,-167.5 251.5,-219.5 419.5,-219.5 419.5,-167.5 251.5,-167.5"/>
<text text-anchor="start" x="259.5" y="-207.5" font-family="Helvetica,sans-Serif" font-size="10.00">C:/Users/folae/Documents</text>
<text text-anchor="start" x="259.5" y="-196.5" font-family="Helvetica,sans-Serif" font-size="10.00">/Code/Big&#45;Projects/ScriptWizards</text>
<text text-anchor="start" x="259.5" y="-185.5" font-family="Helvetica,sans-Serif" font-size="10.00">/SmallGameLibrary/source/Scenes</text>
<text text-anchor="middle" x="335.5" y="-174.5" font-family="Helvetica,sans-Serif" font-size="10.00">/ArkScene.cpp</text>
</a>
</g>
</g>
<!-- Node11&#45;&gt;Node13 -->
<g id="edge15" class="edge">
<title>Node11&#45;&gt;Node13</title>
<path fill="none" stroke="midnightblue" d="M457.23,-252.06C434.94,-241.52 410.04,-229.75 388.6,-219.61"/>
<polygon fill="midnightblue" stroke="midnightblue" points="455.74,-255.23 466.28,-256.34 458.74,-248.9 455.74,-255.23"/>
</g>
<!-- Node12&#45;&gt;Node4 -->
<g id="edge14" class="edge">
<title>Node12&#45;&gt;Node4</title>
<path fill="none" stroke="midnightblue" d="M578.57,-162.79C647.81,-127.97 760.56,-71.26 819.62,-41.55"/>
<polygon fill="midnightblue" stroke="midnightblue" points="576.88,-159.72 569.52,-167.34 580.03,-165.98 576.88,-159.72"/>
</g>
<!-- Node14&#45;&gt;Node12 -->
<g id="edge17" class="edge">
<title>Node14&#45;&gt;Node12</title>
<path fill="none" stroke="midnightblue" d="M656.01,-252.44C630.89,-241.77 602.68,-229.8 578.46,-219.52"/>
<polygon fill="midnightblue" stroke="midnightblue" points="654.91,-255.77 665.48,-256.45 657.64,-249.32 654.91,-255.77"/>
</g>
<!-- Node15 -->
<g id="node15" class="node">
<title>Node15</title>
<g id="a_node15"><a xlink:href="../../db/d53/Zone_8cpp.html" target="_top" xlink:title=" ">
<polygon fill="white" stroke="black" points="619,-173 619,-214 830,-214 830,-173 619,-173"/>
<text text-anchor="start" x="627" y="-202" font-family="Helvetica,sans-Serif" font-size="10.00">C:/Users/folae/Documents</text>
<text text-anchor="start" x="627" y="-191" font-family="Helvetica,sans-Serif" font-size="10.00">/Code/Big&#45;Projects/ScriptWizards</text>
<text text-anchor="middle" x="724.5" y="-180" font-family="Helvetica,sans-Serif" font-size="10.00">/SmallGameLibrary/source/Scenes/Zone.cpp</text>
</a>
</g>
</g>
<!-- Node14&#45;&gt;Node15 -->
<g id="edge18" class="edge">
<title>Node14&#45;&gt;Node15</title>
<path fill="none" stroke="midnightblue" d="M724.5,-246.16C724.5,-235.21 724.5,-223.55 724.5,-214.08"/>
<polygon fill="midnightblue" stroke="midnightblue" points="721,-246.34 724.5,-256.34 728,-246.34 721,-246.34"/>
</g>
<!-- Node17 -->
<g id="node17" class="node">
<title>Node17</title>
<g id="a_node17"><a xlink:href="../../d2/da1/GameObjects_8hpp.html" target="_top" xlink:title="Include all the files from the GameObjects folder.">
<polygon fill="white" stroke="black" points="241,-78.5 241,-130.5 404,-130.5 404,-78.5 241,-78.5"/>
<text text-anchor="start" x="249" y="-118.5" font-family="Helvetica,sans-Serif" font-size="10.00">C:/Users/folae/Documents</text>
<text text-anchor="start" x="249" y="-107.5" font-family="Helvetica,sans-Serif" font-size="10.00">/Code/Big&#45;Projects/ScriptWizards</text>
<text text-anchor="start" x="249" y="-96.5" font-family="Helvetica,sans-Serif" font-size="10.00">/SmallGameLibrary/include/Small</text>
<text text-anchor="middle" x="322.5" y="-85.5" font-family="Helvetica,sans-Serif" font-size="10.00">/GameObjects.hpp</text>
</a>
</g>
</g>
<!-- Node16&#45;&gt;Node17 -->
<g id="edge21" class="edge">
<title>Node16&#45;&gt;Node17</title>
<path fill="none" stroke="midnightblue" d="M218.66,-335.32C214.55,-292.69 213.26,-219.98 242.5,-167 250.54,-152.43 263.63,-140.2 276.92,-130.59"/>
<polygon fill="midnightblue" stroke="midnightblue" points="215.21,-335.92 219.75,-345.49 222.17,-335.17 215.21,-335.92"/>
</g>
<!-- Node18 -->
<g id="node18" class="node">
<title>Node18</title>
<g id="a_node18"><a xlink:href="../../d4/d34/Actor_8cpp.html" target="_top" xlink:title=" ">
<polygon fill="white" stroke="black" points="0,-256.5 0,-308.5 195,-308.5 195,-256.5 0,-256.5"/>
<text text-anchor="start" x="8" y="-296.5" font-family="Helvetica,sans-Serif" font-size="10.00">C:/Users/folae/Documents</text>
<text text-anchor="start" x="8" y="-285.5" font-family="Helvetica,sans-Serif" font-size="10.00">/Code/Big&#45;Projects/ScriptWizards</text>
<text text-anchor="start" x="8" y="-274.5" font-family="Helvetica,sans-Serif" font-size="10.00">/SmallGameLibrary/source/GameObjects</text>
<text text-anchor="middle" x="97.5" y="-263.5" font-family="Helvetica,sans-Serif" font-size="10.00">/Actor.cpp</text>
</a>
</g>
</g>
<!-- Node16&#45;&gt;Node18 -->
<g id="edge23" class="edge">
<title>Node16&#45;&gt;Node18</title>
<path fill="none" stroke="midnightblue" d="M178.61,-339.5C163.93,-329.37 147.83,-318.25 133.86,-308.61"/>
<polygon fill="midnightblue" stroke="midnightblue" points="176.84,-342.53 187.06,-345.34 180.82,-336.77 176.84,-342.53"/>
</g>
<!-- Node17&#45;&gt;Node4 -->
<g id="edge22" class="edge">
<title>Node17&#45;&gt;Node4</title>
<path fill="none" stroke="midnightblue" d="M414.26,-89.55C510.98,-74.84 662.74,-51.77 761.43,-36.76"/>
<polygon fill="midnightblue" stroke="midnightblue" points="413.56,-86.11 404.2,-91.08 414.61,-93.03 413.56,-86.11"/>
</g>
<!-- Node19&#45;&gt;Node4 -->
<g id="edge25" class="edge">
<title>Node19&#45;&gt;Node4</title>
<path fill="none" stroke="midnightblue" d="M2830.87,-251.71C2775.64,-224.66 2689.14,-186.15 2609.5,-167 2291.14,-90.43 1275.29,-40.31 955.71,-26.13"/>
<polygon fill="midnightblue" stroke="midnightblue" points="2829.62,-255 2840.14,-256.29 2832.72,-248.72 2829.62,-255"/>
</g>
<!-- Node20&#45;&gt;Node19 -->
<g id="edge27" class="edge">
<title>Node20&#45;&gt;Node19</title>
<path fill="none" stroke="midnightblue" d="M2492.02,-345.88C2493.53,-345.58 2495.02,-345.28 2496.5,-345 2628.82,-319.64 2665.35,-335.25 2797.5,-309 2800.56,-308.39 2803.66,-307.73 2806.79,-307.04"/>
<polygon fill="midnightblue" stroke="midnightblue" points="2491.07,-342.51 2482.02,-348.01 2492.53,-349.35 2491.07,-342.51"/>
</g>
<!-- Node21 -->
<g id="node21" class="node">
<title>Node21</title>
<g id="a_node21"><a xlink:href="../../d0/dff/Sprite_8cpp.html" target="_top" xlink:title=" ">
<polygon fill="white" stroke="black" points="2614.5,-256.5 2614.5,-308.5 2788.5,-308.5 2788.5,-256.5 2614.5,-256.5"/>
<text text-anchor="start" x="2622.5" y="-296.5" font-family="Helvetica,sans-Serif" font-size="10.00">C:/Users/folae/Documents</text>
<text text-anchor="start" x="2622.5" y="-285.5" font-family="Helvetica,sans-Serif" font-size="10.00">/Code/Big&#45;Projects/ScriptWizards</text>
<text text-anchor="start" x="2622.5" y="-274.5" font-family="Helvetica,sans-Serif" font-size="10.00">/SmallGameLibrary/source/Graphics</text>
<text text-anchor="middle" x="2701.5" y="-263.5" font-family="Helvetica,sans-Serif" font-size="10.00">/Sprite.cpp</text>
</a>
</g>
</g>
<!-- Node20&#45;&gt;Node21 -->
<g id="edge28" class="edge">
<title>Node20&#45;&gt;Node21</title>
<path fill="none" stroke="midnightblue" d="M2492.13,-344.01C2531.16,-332.73 2576.47,-319.64 2614.93,-308.52"/>
<polygon fill="midnightblue" stroke="midnightblue" points="2490.99,-340.7 2482.35,-346.84 2492.93,-347.43 2490.99,-340.7"/>
</g>
<!-- Node23 -->
<g id="node23" class="node">
<title>Node23</title>
<g id="a_node23"><a xlink:href="../../d0/d27/Widgets_8hpp.html" target="_top" xlink:title="Include all the files from the Widgets folder.">
<polygon fill="white" stroke="black" points="1657,-167.5 1657,-219.5 1820,-219.5 1820,-167.5 1657,-167.5"/>
<text text-anchor="start" x="1665" y="-207.5" font-family="Helvetica,sans-Serif" font-size="10.00">C:/Users/folae/Documents</text>
<text text-anchor="start" x="1665" y="-196.5" font-family="Helvetica,sans-Serif" font-size="10.00">/Code/Big&#45;Projects/ScriptWizards</text>
<text text-anchor="start" x="1665" y="-185.5" font-family="Helvetica,sans-Serif" font-size="10.00">/SmallGameLibrary/include/Small</text>
<text text-anchor="middle" x="1738.5" y="-174.5" font-family="Helvetica,sans-Serif" font-size="10.00">/Widgets.hpp</text>
</a>
</g>
</g>
<!-- Node22&#45;&gt;Node23 -->
<g id="edge30" class="edge">
<title>Node22&#45;&gt;Node23</title>
<path fill="none" stroke="midnightblue" d="M1827.81,-364.4C1702.57,-355.13 1490.81,-335.7 1467.5,-309 1452.01,-291.26 1452.56,-274.21 1467.5,-256 1519.53,-192.6 1568.76,-239.19 1648.5,-220 1651.18,-219.35 1653.91,-218.68 1656.66,-217.99"/>
<polygon fill="midnightblue" stroke="midnightblue" points="1827.55,-367.9 1837.78,-365.14 1828.07,-360.91 1827.55,-367.9"/>
</g>
<!-- Node24 -->
<g id="node24" class="node">
<title>Node24</title>
<g id="a_node24"><a xlink:href="../../d4/db3/Button_8hpp.html" target="_top" xlink:title="Basic button widget.">
<polygon fill="white" stroke="black" points="2019,-256.5 2019,-308.5 2182,-308.5 2182,-256.5 2019,-256.5"/>
<text text-anchor="start" x="2027" y="-296.5" font-family="Helvetica,sans-Serif" font-size="10.00">C:/Users/folae/Documents</text>
<text text-anchor="start" x="2027" y="-285.5" font-family="Helvetica,sans-Serif" font-size="10.00">/Code/Big&#45;Projects/ScriptWizards</text>
<text text-anchor="start" x="2027" y="-274.5" font-family="Helvetica,sans-Serif" font-size="10.00">/SmallGameLibrary/include/Small</text>
<text text-anchor="middle" x="2100.5" y="-263.5" font-family="Helvetica,sans-Serif" font-size="10.00">/Widgets/Button.hpp</text>
</a>
</g>
</g>
<!-- Node22&#45;&gt;Node24 -->
<g id="edge32" class="edge">
<title>Node22&#45;&gt;Node24</title>
<path fill="none" stroke="midnightblue" d="M1981.05,-340.92C2002.9,-330.41 2027.27,-318.7 2048.26,-308.61"/>
<polygon fill="midnightblue" stroke="midnightblue" points="1979.35,-337.85 1971.85,-345.34 1982.38,-344.16 1979.35,-337.85"/>
</g>
<!-- Node26 -->
<g id="node26" class="node">
<title>Node26</title>
<g id="a_node26"><a xlink:href="../../d5/d28/CheckBox_8hpp.html" target="_top" xlink:title="Basic checkbox widget.">
<polygon fill="white" stroke="black" points="1476,-256.5 1476,-308.5 1639,-308.5 1639,-256.5 1476,-256.5"/>
<text text-anchor="start" x="1484" y="-296.5" font-family="Helvetica,sans-Serif" font-size="10.00">C:/Users/folae/Documents</text>
<text text-anchor="start" x="1484" y="-285.5" font-family="Helvetica,sans-Serif" font-size="10.00">/Code/Big&#45;Projects/ScriptWizards</text>
<text text-anchor="start" x="1484" y="-274.5" font-family="Helvetica,sans-Serif" font-size="10.00">/SmallGameLibrary/include/Small</text>
<text text-anchor="middle" x="1557.5" y="-263.5" font-family="Helvetica,sans-Serif" font-size="10.00">/Widgets/CheckBox.hpp</text>
</a>
</g>
</g>
<!-- Node22&#45;&gt;Node26 -->
<g id="edge35" class="edge">
<title>Node22&#45;&gt;Node26</title>
<path fill="none" stroke="midnightblue" d="M1827.73,-350.87C1775.12,-339.32 1707.92,-324.06 1648.5,-309 1645.48,-308.23 1642.4,-307.44 1639.3,-306.63"/>
<polygon fill="midnightblue" stroke="midnightblue" points="1827.2,-354.34 1837.72,-353.06 1828.7,-347.5 1827.2,-354.34"/>
</g>
<!-- Node27 -->
<g id="node27" class="node">
<title>Node27</title>
<g id="a_node27"><a xlink:href="../../d8/dde/Image_8hpp.html" target="_top" xlink:title="Basic image widget.">
<polygon fill="white" stroke="black" points="2433,-256.5 2433,-308.5 2596,-308.5 2596,-256.5 2433,-256.5"/>
<text text-anchor="start" x="2441" y="-296.5" font-family="Helvetica,sans-Serif" font-size="10.00">C:/Users/folae/Documents</text>
<text text-anchor="start" x="2441" y="-285.5" font-family="Helvetica,sans-Serif" font-size="10.00">/Code/Big&#45;Projects/ScriptWizards</text>
<text text-anchor="start" x="2441" y="-274.5" font-family="Helvetica,sans-Serif" font-size="10.00">/SmallGameLibrary/include/Small</text>
<text text-anchor="middle" x="2514.5" y="-263.5" font-family="Helvetica,sans-Serif" font-size="10.00">/Widgets/Image.hpp</text>
</a>
</g>
</g>
<!-- Node22&#45;&gt;Node27 -->
<g id="edge37" class="edge">
<title>Node22&#45;&gt;Node27</title>
<path fill="none" stroke="midnightblue" d="M2011.26,-363.63C2112.98,-355.01 2281.57,-337.77 2424.5,-309 2427.21,-308.46 2429.95,-307.87 2432.71,-307.25"/>
<polygon fill="midnightblue" stroke="midnightblue" points="2010.7,-360.16 2001.02,-364.48 2011.28,-367.14 2010.7,-360.16"/>
</g>
<!-- Node29 -->
<g id="node29" class="node">
<title>Node29</title>
<g id="a_node29"><a xlink:href="../../da/d44/Label_8hpp.html" target="_top" xlink:title="Basic label widget.">
<polygon fill="white" stroke="black" points="1256,-256.5 1256,-308.5 1419,-308.5 1419,-256.5 1256,-256.5"/>
<text text-anchor="start" x="1264" y="-296.5" font-family="Helvetica,sans-Serif" font-size="10.00">C:/Users/folae/Documents</text>
<text text-anchor="start" x="1264" y="-285.5" font-family="Helvetica,sans-Serif" font-size="10.00">/Code/Big&#45;Projects/ScriptWizards</text>
<text text-anchor="start" x="1264" y="-274.5" font-family="Helvetica,sans-Serif" font-size="10.00">/SmallGameLibrary/include/Small</text>
<text text-anchor="middle" x="1337.5" y="-263.5" font-family="Helvetica,sans-Serif" font-size="10.00">/Widgets/Label.hpp</text>
</a>
</g>
</g>
<!-- Node22&#45;&gt;Node29 -->
<g id="edge40" class="edge">
<title>Node22&#45;&gt;Node29</title>
<path fill="none" stroke="midnightblue" d="M1827.52,-362.56C1729.35,-353.22 1569.55,-335.55 1433.5,-309 1428.76,-308.08 1423.91,-307.05 1419.03,-305.95"/>
<polygon fill="midnightblue" stroke="midnightblue" points="1827.42,-366.07 1837.71,-363.52 1828.08,-359.1 1827.42,-366.07"/>
</g>
<!-- Node31 -->
<g id="node31" class="node">
<title>Node31</title>
<g id="a_node31"><a xlink:href="../../d4/df9/Layout_8hpp.html" target="_top" xlink:title="A widget acting as a collection of widgets.">
<polygon fill="white" stroke="black" points="1838,-256.5 1838,-308.5 2001,-308.5 2001,-256.5 1838,-256.5"/>
<text text-anchor="start" x="1846" y="-296.5" font-family="Helvetica,sans-Serif" font-size="10.00">C:/Users/folae/Documents</text>
<text text-anchor="start" x="1846" y="-285.5" font-family="Helvetica,sans-Serif" font-size="10.00">/Code/Big&#45;Projects/ScriptWizards</text>
<text text-anchor="start" x="1846" y="-274.5" font-family="Helvetica,sans-Serif" font-size="10.00">/SmallGameLibrary/include/Small</text>
<text text-anchor="middle" x="1919.5" y="-263.5" font-family="Helvetica,sans-Serif" font-size="10.00">/Widgets/Layout.hpp</text>
</a>
</g>
</g>
<!-- Node22&#45;&gt;Node31 -->
<g id="edge43" class="edge">
<title>Node22&#45;&gt;Node31</title>
<path fill="none" stroke="midnightblue" d="M1919.5,-335.19C1919.5,-326.28 1919.5,-316.9 1919.5,-308.61"/>
<polygon fill="midnightblue" stroke="midnightblue" points="1916,-335.34 1919.5,-345.34 1923,-335.34 1916,-335.34"/>
</g>
<!-- Node33 -->
<g id="node33" class="node">
<title>Node33</title>
<g id="a_node33"><a xlink:href="../../d6/dc2/TextBox_8hpp.html" target="_top" xlink:title="Basic textbox widget.">
<polygon fill="white" stroke="black" points="1657,-256.5 1657,-308.5 1820,-308.5 1820,-256.5 1657,-256.5"/>
<text text-anchor="start" x="1665" y="-296.5" font-family="Helvetica,sans-Serif" font-size="10.00">C:/Users/folae/Documents</text>
<text text-anchor="start" x="1665" y="-285.5" font-family="Helvetica,sans-Serif" font-size="10.00">/Code/Big&#45;Projects/ScriptWizards</text>
<text text-anchor="start" x="1665" y="-274.5" font-family="Helvetica,sans-Serif" font-size="10.00">/SmallGameLibrary/include/Small</text>
<text text-anchor="middle" x="1738.5" y="-263.5" font-family="Helvetica,sans-Serif" font-size="10.00">/Widgets/TextBox.hpp</text>
</a>
</g>
</g>
<!-- Node22&#45;&gt;Node33 -->
<g id="edge46" class="edge">
<title>Node22&#45;&gt;Node33</title>
<path fill="none" stroke="midnightblue" d="M1857.95,-340.92C1836.1,-330.41 1811.73,-318.7 1790.74,-308.61"/>
<polygon fill="midnightblue" stroke="midnightblue" points="1856.62,-344.16 1867.15,-345.34 1859.65,-337.85 1856.62,-344.16"/>
</g>
<!-- Node34 -->
<g id="node34" class="node">
<title>Node34</title>
<g id="a_node34"><a xlink:href="../../d8/db0/Base_8cpp.html" target="_top" xlink:title=" ">
<polygon fill="white" stroke="black" points="2200,-262 2200,-303 2415,-303 2415,-262 2200,-262"/>
<text text-anchor="start" x="2208" y="-291" font-family="Helvetica,sans-Serif" font-size="10.00">C:/Users/folae/Documents</text>
<text text-anchor="start" x="2208" y="-280" font-family="Helvetica,sans-Serif" font-size="10.00">/Code/Big&#45;Projects/ScriptWizards</text>
<text text-anchor="middle" x="2307.5" y="-269" font-family="Helvetica,sans-Serif" font-size="10.00">/SmallGameLibrary/source/Widgets/Base.cpp</text>
</a>
</g>
</g>
<!-- Node22&#45;&gt;Node34 -->
<g id="edge48" class="edge">
<title>Node22&#45;&gt;Node34</title>
<path fill="none" stroke="midnightblue" d="M2011.29,-349.92C2074.57,-335.73 2158.17,-316.98 2220.41,-303.03"/>
<polygon fill="midnightblue" stroke="midnightblue" points="2010.3,-346.55 2001.31,-352.16 2011.83,-353.38 2010.3,-346.55"/>
</g>
<!-- Node23&#45;&gt;Node4 -->
<g id="edge31" class="edge">
<title>Node23&#45;&gt;Node4</title>
<path fill="none" stroke="midnightblue" d="M1655.53,-164.21C1575.89,-138.11 1451.77,-100.14 1341.5,-78 1209.28,-51.46 1054,-36.24 955.92,-28.54"/>
<polygon fill="midnightblue" stroke="midnightblue" points="1654.91,-167.69 1665.5,-167.5 1657.1,-161.05 1654.91,-167.69"/>
</g>
<!-- Node24&#45;&gt;Node23 -->
<g id="edge33" class="edge">
<title>Node24&#45;&gt;Node23</title>
<path fill="none" stroke="midnightblue" d="M2008.65,-255.63C1928.99,-236.95 1906.15,-238.33 1829.5,-220 1826.47,-219.27 1823.39,-218.52 1820.28,-217.73"/>
<polygon fill="midnightblue" stroke="midnightblue" points="2008.12,-259.1 2018.66,-258.01 2009.74,-252.29 2008.12,-259.1"/>
</g>
<!-- Node25 -->
<g id="node25" class="node">
<title>Node25</title>
<g id="a_node25"><a xlink:href="../../de/dd1/Button_8cpp.html" target="_top" xlink:title=" ">
<polygon fill="white" stroke="black" points="2027,-167.5 2027,-219.5 2198,-219.5 2198,-167.5 2027,-167.5"/>
<text text-anchor="start" x="2035" y="-207.5" font-family="Helvetica,sans-Serif" font-size="10.00">C:/Users/folae/Documents</text>
<text text-anchor="start" x="2035" y="-196.5" font-family="Helvetica,sans-Serif" font-size="10.00">/Code/Big&#45;Projects/ScriptWizards</text>
<text text-anchor="start" x="2035" y="-185.5" font-family="Helvetica,sans-Serif" font-size="10.00">/SmallGameLibrary/source/Widgets</text>
<text text-anchor="middle" x="2112.5" y="-174.5" font-family="Helvetica,sans-Serif" font-size="10.00">/Button.cpp</text>
</a>
</g>
</g>
<!-- Node24&#45;&gt;Node25 -->
<g id="edge34" class="edge">
<title>Node24&#45;&gt;Node25</title>
<path fill="none" stroke="midnightblue" d="M2105.37,-246.19C2106.6,-237.28 2107.89,-227.9 2109.04,-219.61"/>
<polygon fill="midnightblue" stroke="midnightblue" points="2101.87,-245.95 2103.97,-256.34 2108.8,-246.91 2101.87,-245.95"/>
</g>
<!-- Node26&#45;&gt;Node23 -->
<g id="edge36" class="edge">
<title>Node26&#45;&gt;Node23</title>
<path fill="none" stroke="midnightblue" d="M1619.05,-251.92C1640.9,-241.41 1665.27,-229.7 1686.26,-219.61"/>
<polygon fill="midnightblue" stroke="midnightblue" points="1617.35,-248.85 1609.85,-256.34 1620.38,-255.16 1617.35,-248.85"/>
</g>
<!-- Node27&#45;&gt;Node23 -->
<g id="edge38" class="edge">
<title>Node27&#45;&gt;Node23</title>
<path fill="none" stroke="midnightblue" d="M2422.59,-255.83C2161.44,-212.95 2087.43,-263.43 1829.5,-220 1826.43,-219.48 1823.31,-218.9 1820.17,-218.27"/>
<polygon fill="midnightblue" stroke="midnightblue" points="2422.31,-259.33 2432.75,-257.53 2423.47,-252.43 2422.31,-259.33"/>
</g>
<!-- Node28 -->
<g id="node28" class="node">
<title>Node28</title>
<g id="a_node28"><a xlink:href="../../d0/d4e/Image_8cpp.html" target="_top" xlink:title=" ">
<polygon fill="white" stroke="black" points="2429,-167.5 2429,-219.5 2600,-219.5 2600,-167.5 2429,-167.5"/>
<text text-anchor="start" x="2437" y="-207.5" font-family="Helvetica,sans-Serif" font-size="10.00">C:/Users/folae/Documents</text>
<text text-anchor="start" x="2437" y="-196.5" font-family="Helvetica,sans-Serif" font-size="10.00">/Code/Big&#45;Projects/ScriptWizards</text>
<text text-anchor="start" x="2437" y="-185.5" font-family="Helvetica,sans-Serif" font-size="10.00">/SmallGameLibrary/source/Widgets</text>
<text text-anchor="middle" x="2514.5" y="-174.5" font-family="Helvetica,sans-Serif" font-size="10.00">/Image.cpp</text>
</a>
</g>
</g>
<!-- Node27&#45;&gt;Node28 -->
<g id="edge39" class="edge">
<title>Node27&#45;&gt;Node28</title>
<path fill="none" stroke="midnightblue" d="M2514.5,-246.19C2514.5,-237.28 2514.5,-227.9 2514.5,-219.61"/>
<polygon fill="midnightblue" stroke="midnightblue" points="2511,-246.34 2514.5,-256.34 2518,-246.34 2511,-246.34"/>
</g>
<!-- Node29&#45;&gt;Node23 -->
<g id="edge41" class="edge">
<title>Node29&#45;&gt;Node23</title>
<path fill="none" stroke="midnightblue" d="M1429.04,-256.98C1430.54,-256.65 1432.03,-256.32 1433.5,-256 1528.2,-235.54 1553.97,-241.24 1648.5,-220 1651.19,-219.39 1653.93,-218.76 1656.68,-218.1"/>
<polygon fill="midnightblue" stroke="midnightblue" points="1428.03,-253.62 1419.07,-259.27 1429.61,-260.44 1428.03,-253.62"/>
</g>
<!-- Node30 -->
<g id="node30" class="node">
<title>Node30</title>
<g id="a_node30"><a xlink:href="../../db/d8a/Label_8cpp.html" target="_top" xlink:title=" ">
<polygon fill="white" stroke="black" points="1468,-167.5 1468,-219.5 1639,-219.5 1639,-167.5 1468,-167.5"/>
<text text-anchor="start" x="1476" y="-207.5" font-family="Helvetica,sans-Serif" font-size="10.00">C:/Users/folae/Documents</text>
<text text-anchor="start" x="1476" y="-196.5" font-family="Helvetica,sans-Serif" font-size="10.00">/Code/Big&#45;Projects/ScriptWizards</text>
<text text-anchor="start" x="1476" y="-185.5" font-family="Helvetica,sans-Serif" font-size="10.00">/SmallGameLibrary/source/Widgets</text>
<text text-anchor="middle" x="1553.5" y="-174.5" font-family="Helvetica,sans-Serif" font-size="10.00">/Label.cpp</text>
</a>
</g>
</g>
<!-- Node29&#45;&gt;Node30 -->
<g id="edge42" class="edge">
<title>Node29&#45;&gt;Node30</title>
<path fill="none" stroke="midnightblue" d="M1409.31,-252.58C1435.88,-241.88 1465.75,-229.85 1491.38,-219.52"/>
<polygon fill="midnightblue" stroke="midnightblue" points="1407.65,-249.47 1399.69,-256.45 1410.27,-255.96 1407.65,-249.47"/>
</g>
<!-- Node31&#45;&gt;Node23 -->
<g id="edge44" class="edge">
<title>Node31&#45;&gt;Node23</title>
<path fill="none" stroke="midnightblue" d="M1857.95,-251.92C1836.1,-241.41 1811.73,-229.7 1790.74,-219.61"/>
<polygon fill="midnightblue" stroke="midnightblue" points="1856.62,-255.16 1867.15,-256.34 1859.65,-248.85 1856.62,-255.16"/>
</g>
<!-- Node32 -->
<g id="node32" class="node">
<title>Node32</title>
<g id="a_node32"><a xlink:href="../../d5/d08/Layout_8cpp.html" target="_top" xlink:title=" ">
<polygon fill="white" stroke="black" points="1838,-167.5 1838,-219.5 2009,-219.5 2009,-167.5 1838,-167.5"/>
<text text-anchor="start" x="1846" y="-207.5" font-family="Helvetica,sans-Serif" font-size="10.00">C:/Users/folae/Documents</text>
<text text-anchor="start" x="1846" y="-196.5" font-family="Helvetica,sans-Serif" font-size="10.00">/Code/Big&#45;Projects/ScriptWizards</text>
<text text-anchor="start" x="1846" y="-185.5" font-family="Helvetica,sans-Serif" font-size="10.00">/SmallGameLibrary/source/Widgets</text>
<text text-anchor="middle" x="1923.5" y="-174.5" font-family="Helvetica,sans-Serif" font-size="10.00">/Layout.cpp</text>
</a>
</g>
</g>
<!-- Node31&#45;&gt;Node32 -->
<g id="edge45" class="edge">
<title>Node31&#45;&gt;Node32</title>
<path fill="none" stroke="midnightblue" d="M1921.12,-246.19C1921.53,-237.28 1921.96,-227.9 1922.35,-219.61"/>
<polygon fill="midnightblue" stroke="midnightblue" points="1917.62,-246.19 1920.66,-256.34 1924.61,-246.51 1917.62,-246.19"/>
</g>
<!-- Node33&#45;&gt;Node23 -->
<g id="edge47" class="edge">
<title>Node33&#45;&gt;Node23</title>
<path fill="none" stroke="midnightblue" d="M1738.5,-246.19C1738.5,-237.28 1738.5,-227.9 1738.5,-219.61"/>
<polygon fill="midnightblue" stroke="midnightblue" points="1735,-246.34 1738.5,-256.34 1742,-246.34 1735,-246.34"/>
</g>
</g>
</svg>
