<?xml version="1.0" encoding="UTF-8" standalone="no"?>
<!DOCTYPE svg PUBLIC "-//W3C//DTD SVG 1.1//EN"
 "http://www.w3.org/Graphics/SVG/1.1/DTD/svg11.dtd">
<!-- Generated by graphviz version 2.38.0 (20140413.2041)
 -->
<!-- Title: sgl::Scene Pages: 1 -->
<svg width="1439pt" height="127pt"
 viewBox="0.00 0.00 1439.00 127.00" xmlns="http://www.w3.org/2000/svg" xmlns:xlink="http://www.w3.org/1999/xlink">
<g id="graph0" class="graph" transform="scale(1 1) rotate(0) translate(4 123)">
<title>sgl::Scene</title>
<polygon fill="white" stroke="none" points="-4,4 -4,-123 1435,-123 1435,4 -4,4"/>
<!-- Node1 -->
<g id="node1" class="node"><title>Node1</title>
<polygon fill="#bfbfbf" stroke="black" points="792,-94 792,-113 855,-113 855,-94 792,-94"/>
<text text-anchor="middle" x="823.5" y="-101" font-family="Helvetica,sans-Serif" font-size="10.00">sgl::Scene</text>
</g>
<!-- Node8 -->
<g id="node8" class="node"><title>Node8</title>
<polygon fill="white" stroke="#bfbfbf" points="906,-0.5 906,-30.5 1009,-30.5 1009,-0.5 906,-0.5"/>
<text text-anchor="start" x="914" y="-18.5" font-family="Helvetica,sans-Serif" font-size="10.00">std::unique_ptr&lt; sgl</text>
<text text-anchor="middle" x="957.5" y="-7.5" font-family="Helvetica,sans-Serif" font-size="10.00">::Scene &gt;</text>
</g>
<!-- Node1&#45;&gt;Node8 -->
<g id="edge8" class="edge"><title>Node1&#45;&gt;Node8</title>
<path fill="none" stroke="#9a32cd" stroke-dasharray="5,2" d="M847.431,-88.2124C871.655,-72.0632 909.619,-46.754 933.767,-30.6551"/>
<polygon fill="#9a32cd" stroke="#9a32cd" points="845.257,-85.4557 838.878,-93.9149 849.14,-91.2801 845.257,-85.4557"/>
<text text-anchor="middle" x="880.5" y="-73.5" font-family="Helvetica,sans-Serif" font-size="10.00"> ptr</text>
</g>
<!-- Node2 -->
<g id="node2" class="node"><title>Node2</title>
<g id="a_node2"><a xlink:href="../../dc/dee/classsgl_1_1Graphics_1_1Node.html" target="_top" xlink:title="Abstract base class for a scene graph node. ">
<polygon fill="white" stroke="black" points="570,-94 570,-113 673,-113 673,-94 570,-94"/>
<text text-anchor="middle" x="621.5" y="-101" font-family="Helvetica,sans-Serif" font-size="10.00">sgl::Graphics::Node</text>
</a>
</g>
</g>
<!-- Node2&#45;&gt;Node1 -->
<g id="edge1" class="edge"><title>Node2&#45;&gt;Node1</title>
<path fill="none" stroke="midnightblue" d="M683.577,-103.5C719.378,-103.5 763.066,-103.5 791.776,-103.5"/>
<polygon fill="midnightblue" stroke="midnightblue" points="683.227,-100 673.227,-103.5 683.227,-107 683.227,-100"/>
</g>
<!-- Node3 -->
<g id="node3" class="node"><title>Node3</title>
<polygon fill="white" stroke="#bfbfbf" points="337,-88.5 337,-118.5 483,-118.5 483,-88.5 337,-88.5"/>
<text text-anchor="start" x="345" y="-106.5" font-family="Helvetica,sans-Serif" font-size="10.00">std::vector&lt; std::shared</text>
<text text-anchor="middle" x="410" y="-95.5" font-family="Helvetica,sans-Serif" font-size="10.00">_ptr&lt; sgl::Graphics::Node &gt; &gt;</text>
</g>
<!-- Node3&#45;&gt;Node2 -->
<g id="edge2" class="edge"><title>Node3&#45;&gt;Node2</title>
<path fill="none" stroke="#9a32cd" stroke-dasharray="5,2" d="M493.259,-103.5C519.066,-103.5 546.785,-103.5 569.742,-103.5"/>
<polygon fill="#9a32cd" stroke="#9a32cd" points="493.098,-100 483.098,-103.5 493.098,-107 493.098,-100"/>
<text text-anchor="middle" x="526.5" y="-106.5" font-family="Helvetica,sans-Serif" font-size="10.00"> m_children</text>
</g>
<!-- Node4 -->
<g id="node4" class="node"><title>Node4</title>
<g id="a_node4"><a xlink:title="STL class. ">
<polygon fill="white" stroke="#bfbfbf" points="108,-50 108,-69 193,-69 193,-50 108,-50"/>
<text text-anchor="middle" x="150.5" y="-57" font-family="Helvetica,sans-Serif" font-size="10.00">std::vector&lt; T &gt;</text>
</a>
</g>
</g>
<!-- Node4&#45;&gt;Node3 -->
<g id="edge3" class="edge"><title>Node4&#45;&gt;Node3</title>
<path fill="none" stroke="orange" stroke-dasharray="5,2" d="M199.966,-71.2448C203.692,-72.0433 207.402,-72.8053 211,-73.5 252.476,-81.5082 299.183,-88.6724 336.812,-93.99"/>
<polygon fill="orange" stroke="orange" points="200.65,-67.8116 190.13,-69.0669 199.137,-74.6461 200.65,-67.8116"/>
<text text-anchor="start" x="211" y="-105.5" font-family="Helvetica,sans-Serif" font-size="10.00"> &lt; std::shared_ptr&lt;</text>
<text text-anchor="middle" x="265" y="-94.5" font-family="Helvetica,sans-Serif" font-size="10.00"> sgl::Graphics::Node &gt; &gt;</text>
</g>
<!-- Node7 -->
<g id="node7" class="node"><title>Node7</title>
<polygon fill="white" stroke="#bfbfbf" points="1126,-44.5 1126,-74.5 1245,-74.5 1245,-44.5 1126,-44.5"/>
<text text-anchor="start" x="1134" y="-62.5" font-family="Helvetica,sans-Serif" font-size="10.00">std::vector&lt; std::unique</text>
<text text-anchor="middle" x="1185.5" y="-51.5" font-family="Helvetica,sans-Serif" font-size="10.00">_ptr&lt; sgl::Scene &gt; &gt;</text>
</g>
<!-- Node4&#45;&gt;Node7 -->
<g id="edge11" class="edge"><title>Node4&#45;&gt;Node7</title>
<path fill="none" stroke="orange" stroke-dasharray="5,2" d="M203.735,-59.5C255.757,-59.5 337.9,-59.5 409,-59.5 409,-59.5 409,-59.5 958.5,-59.5 1015.39,-59.5 1080.34,-59.5 1125.97,-59.5"/>
<polygon fill="orange" stroke="orange" points="203.425,-56.0001 193.425,-59.5 203.425,-63.0001 203.425,-56.0001"/>
<text text-anchor="start" x="691" y="-73.5" font-family="Helvetica,sans-Serif" font-size="10.00"> &lt; std::unique_ptr&lt;</text>
<text text-anchor="middle" x="732.5" y="-62.5" font-family="Helvetica,sans-Serif" font-size="10.00"> sgl::Scene &gt; &gt;</text>
</g>
<!-- Node5 -->
<g id="node5" class="node"><title>Node5</title>
<polygon fill="white" stroke="#bfbfbf" points="0,-29 0,-48 29,-48 29,-29 0,-29"/>
<text text-anchor="middle" x="14.5" y="-36" font-family="Helvetica,sans-Serif" font-size="10.00">T</text>
</g>
<!-- Node5&#45;&gt;Node4 -->
<g id="edge4" class="edge"><title>Node5&#45;&gt;Node4</title>
<path fill="none" stroke="#9a32cd" stroke-dasharray="5,2" d="M39.2308,-42.219C58.2268,-45.196 85.332,-49.4438 107.915,-52.9829"/>
<polygon fill="#9a32cd" stroke="#9a32cd" points="39.757,-38.7588 29.3356,-40.6683 38.6731,-45.6744 39.757,-38.7588"/>
<text text-anchor="middle" x="68.5" y="-53.5" font-family="Helvetica,sans-Serif" font-size="10.00"> elements</text>
</g>
<!-- Node9 -->
<g id="node9" class="node"><title>Node9</title>
<g id="a_node9"><a xlink:title="STL class. ">
<polygon fill="white" stroke="#bfbfbf" points="213,-10 213,-29 317,-29 317,-10 213,-10"/>
<text text-anchor="middle" x="265" y="-17" font-family="Helvetica,sans-Serif" font-size="10.00">std::unique_ptr&lt; T &gt;</text>
</a>
</g>
</g>
<!-- Node5&#45;&gt;Node9 -->
<g id="edge10" class="edge"><title>Node5&#45;&gt;Node9</title>
<path fill="none" stroke="#9a32cd" stroke-dasharray="5,2" d="M39.0373,-31.1357C41.7034,-30.4928 44.397,-29.9259 47,-29.5 103.2,-20.305 168.599,-18.478 212.793,-18.5263"/>
<polygon fill="#9a32cd" stroke="#9a32cd" points="37.8582,-27.8299 29.1425,-33.8539 39.7125,-34.5799 37.8582,-27.8299"/>
<text text-anchor="middle" x="68.5" y="-32.5" font-family="Helvetica,sans-Serif" font-size="10.00"> ptr</text>
</g>
<!-- Node6 -->
<g id="node6" class="node"><title>Node6</title>
<g id="a_node6"><a xlink:href="../../de/dd2/classsgl_1_1SceneManager.html" target="_top" xlink:title="Scene manager, in charge of creating, handling and destroying scenes. ">
<polygon fill="white" stroke="black" points="1330,-88 1330,-107 1431,-107 1431,-88 1330,-88"/>
<text text-anchor="middle" x="1380.5" y="-95" font-family="Helvetica,sans-Serif" font-size="10.00">sgl::SceneManager</text>
</a>
</g>
</g>
<!-- Node6&#45;&gt;Node1 -->
<g id="edge5" class="edge"><title>Node6&#45;&gt;Node1</title>
<path fill="none" stroke="#9a32cd" stroke-dasharray="5,2" d="M1319.67,-99.3406C1317.08,-99.3989 1314.51,-99.4525 1312,-99.5 1139.16,-102.769 931.794,-103.368 855.02,-103.477"/>
<polygon fill="#9a32cd" stroke="#9a32cd" points="1319.83,-102.838 1329.74,-99.0951 1319.66,-95.84 1319.83,-102.838"/>
<text text-anchor="middle" x="1067.5" y="-105.5" font-family="Helvetica,sans-Serif" font-size="10.00"> m_sceneManager</text>
</g>
<!-- Node7&#45;&gt;Node6 -->
<g id="edge6" class="edge"><title>Node7&#45;&gt;Node6</title>
<path fill="none" stroke="#9a32cd" stroke-dasharray="5,2" d="M1255.04,-72.9958C1280.2,-77.948 1308.12,-83.4462 1331.14,-87.9777"/>
<polygon fill="#9a32cd" stroke="#9a32cd" points="1255.68,-69.5539 1245.19,-71.056 1254.33,-76.422 1255.68,-69.5539"/>
<text text-anchor="middle" x="1287.5" y="-87.5" font-family="Helvetica,sans-Serif" font-size="10.00"> m_scenes</text>
</g>
<!-- Node8&#45;&gt;Node7 -->
<g id="edge7" class="edge"><title>Node8&#45;&gt;Node7</title>
<path fill="none" stroke="#9a32cd" stroke-dasharray="5,2" d="M1019.29,-20.5876C1046.61,-23.549 1079.14,-28.0121 1108,-34.5 1119.59,-37.105 1131.91,-40.7362 1143.21,-44.425"/>
<polygon fill="#9a32cd" stroke="#9a32cd" points="1019.4,-17.0801 1009.09,-19.5251 1018.67,-24.0425 1019.4,-17.0801"/>
<text text-anchor="middle" x="1067.5" y="-37.5" font-family="Helvetica,sans-Serif" font-size="10.00"> elements</text>
</g>
<!-- Node9&#45;&gt;Node8 -->
<g id="edge9" class="edge"><title>Node9&#45;&gt;Node8</title>
<path fill="none" stroke="orange" stroke-dasharray="5,2" d="M327.377,-19.1303C379.96,-18.8455 457.71,-18.5 525.5,-18.5 525.5,-18.5 525.5,-18.5 824.5,-18.5 851.319,-18.5 881.196,-17.8734 905.733,-17.1929"/>
<polygon fill="orange" stroke="orange" points="327.187,-15.6312 317.207,-19.1863 327.226,-22.6311 327.187,-15.6312"/>
<text text-anchor="middle" x="621.5" y="-21.5" font-family="Helvetica,sans-Serif" font-size="10.00"> &lt; sgl::Scene &gt;</text>
</g>
</g>
</svg>
