<?xml version="1.0" encoding="UTF-8" standalone="no"?>
<!DOCTYPE svg PUBLIC "-//W3C//DTD SVG 1.1//EN"
 "http://www.w3.org/Graphics/SVG/1.1/DTD/svg11.dtd">
<!-- Generated by graphviz version 2.49.0 (20210828.1703)
 -->
<!-- Title: sgl::Widgets::Button Pages: 1 -->
<svg width="173pt" height="142pt"
 viewBox="0.00 0.00 173.00 142.00" xmlns="http://www.w3.org/2000/svg" xmlns:xlink="http://www.w3.org/1999/xlink">
<g id="graph0" class="graph" transform="scale(1 1) rotate(0) translate(4 138)">
<title>sgl::Widgets::Button</title>
<polygon fill="white" stroke="transparent" points="-4,4 -4,-138 169,-138 169,4 -4,4"/>
<!-- Node1 -->
<g id="node1" class="node">
<title>Node1</title>
<g id="a_node1"><a xlink:title="Basic button widget.">
<polygon fill="#bfbfbf" stroke="black" points="0,-0.5 0,-19.5 106,-19.5 106,-0.5 0,-0.5"/>
<text text-anchor="middle" x="53" y="-7.5" font-family="Helvetica,sans-Serif" font-size="10.00">sgl::Widgets::Button</text>
</a>
</g>
</g>
<!-- Node2 -->
<g id="node2" class="node">
<title>Node2</title>
<g id="a_node2"><a xlink:href="../../d3/dd0/classsgl_1_1Widgets_1_1Base.html" target="_top" xlink:title="Base class for all widgets.">
<polygon fill="white" stroke="black" points="3,-57.5 3,-76.5 103,-76.5 103,-57.5 3,-57.5"/>
<text text-anchor="middle" x="53" y="-64.5" font-family="Helvetica,sans-Serif" font-size="10.00">sgl::Widgets::Base</text>
</a>
</g>
</g>
<!-- Node2&#45;&gt;Node1 -->
<g id="edge1" class="edge">
<title>Node2&#45;&gt;Node1</title>
<path fill="none" stroke="midnightblue" d="M53,-47.12C53,-37.82 53,-27.06 53,-19.71"/>
<polygon fill="midnightblue" stroke="midnightblue" points="49.5,-47.41 53,-57.41 56.5,-47.41 49.5,-47.41"/>
</g>
<!-- Node2&#45;&gt;Node2 -->
<g id="edge3" class="edge">
<title>Node2&#45;&gt;Node2</title>
<path fill="none" stroke="#9a32cd" stroke-dasharray="5,2" d="M113.35,-70.98C118.08,-70.1 121,-68.78 121,-67 121,-64.16 113.52,-62.47 103.11,-61.93"/>
<polygon fill="#9a32cd" stroke="#9a32cd" points="112.69,-67.53 103.11,-72.07 113.43,-74.49 112.69,-67.53"/>
<text text-anchor="middle" x="143" y="-64.5" font-family="Helvetica,sans-Serif" font-size="10.00"> m_parent</text>
</g>
<!-- Node3 -->
<g id="node3" class="node">
<title>Node3</title>
<g id="a_node3"><a xlink:href="../../dc/dee/classsgl_1_1Graphics_1_1Node.html" target="_top" xlink:title="Abstract base class for a scene graph node.">
<polygon fill="white" stroke="black" points="1.5,-114.5 1.5,-133.5 104.5,-133.5 104.5,-114.5 1.5,-114.5"/>
<text text-anchor="middle" x="53" y="-121.5" font-family="Helvetica,sans-Serif" font-size="10.00">sgl::Graphics::Node</text>
</a>
</g>
</g>
<!-- Node3&#45;&gt;Node2 -->
<g id="edge2" class="edge">
<title>Node3&#45;&gt;Node2</title>
<path fill="none" stroke="midnightblue" d="M53,-104.12C53,-94.82 53,-84.06 53,-76.71"/>
<polygon fill="midnightblue" stroke="midnightblue" points="49.5,-104.41 53,-114.41 56.5,-104.41 49.5,-104.41"/>
</g>
</g>
</svg>
