<?xml version="1.0" encoding="UTF-8" standalone="no"?>
<!DOCTYPE svg PUBLIC "-//W3C//DTD SVG 1.1//EN"
 "http://www.w3.org/Graphics/SVG/1.1/DTD/svg11.dtd">
<!-- Generated by graphviz version 2.49.0 (20210828.1703)
 -->
<!-- Title: C:/Users/folae/Documents/Code/Big&#45;Projects/ScriptWizards/SmallGameLibrary/include/Small/Core/Scene.hpp Pages: 1 -->
<svg width="1279pt" height="406pt"
 viewBox="0.00 0.00 1279.00 406.00" xmlns="http://www.w3.org/2000/svg" xmlns:xlink="http://www.w3.org/1999/xlink">
<g id="graph0" class="graph" transform="scale(1 1) rotate(0) translate(4 402)">
<title>C:/Users/folae/Documents/Code/Big&#45;Projects/ScriptWizards/SmallGameLibrary/include/Small/Core/Scene.hpp</title>
<polygon fill="white" stroke="transparent" points="-4,4 -4,-402 1275,-402 1275,4 -4,4"/>
<!-- Node1 -->
<g id="node1" class="node">
<title>Node1</title>
<g id="a_node1"><a xlink:title="The base scene class and the scene states are defined here.">
<polygon fill="#bfbfbf" stroke="black" points="511,-345.5 511,-397.5 674,-397.5 674,-345.5 511,-345.5"/>
<text text-anchor="start" x="519" y="-385.5" font-family="Helvetica,sans-Serif" font-size="10.00">C:/Users/folae/Documents</text>
<text text-anchor="start" x="519" y="-374.5" font-family="Helvetica,sans-Serif" font-size="10.00">/Code/Big&#45;Projects/ScriptWizards</text>
<text text-anchor="start" x="519" y="-363.5" font-family="Helvetica,sans-Serif" font-size="10.00">/SmallGameLibrary/include/Small</text>
<text text-anchor="middle" x="592.5" y="-352.5" font-family="Helvetica,sans-Serif" font-size="10.00">/Core/Scene.hpp</text>
</a>
</g>
</g>
<!-- Node2 -->
<g id="node2" class="node">
<title>Node2</title>
<g id="a_node2"><a xlink:href="../../d7/d38/Core_8hpp.html" target="_top" xlink:title="Include all the files from the Core folder.">
<polygon fill="white" stroke="black" points="0,-84 0,-125 203,-125 203,-84 0,-84"/>
<text text-anchor="start" x="8" y="-113" font-family="Helvetica,sans-Serif" font-size="10.00">C:/Users/folae/Documents</text>
<text text-anchor="start" x="8" y="-102" font-family="Helvetica,sans-Serif" font-size="10.00">/Code/Big&#45;Projects/ScriptWizards</text>
<text text-anchor="middle" x="101.5" y="-91" font-family="Helvetica,sans-Serif" font-size="10.00">/SmallGameLibrary/include/Small/Core.hpp</text>
</a>
</g>
</g>
<!-- Node1&#45;&gt;Node2 -->
<g id="edge1" class="edge">
<title>Node1&#45;&gt;Node2</title>
<path fill="none" stroke="midnightblue" d="M500.7,-355.67C372.92,-332.89 151.96,-285.02 106.5,-220 86.89,-191.95 91.37,-149.91 96.43,-125.33"/>
<polygon fill="midnightblue" stroke="midnightblue" points="500.41,-359.17 510.87,-357.47 501.63,-352.28 500.41,-359.17"/>
</g>
<!-- Node4 -->
<g id="node4" class="node">
<title>Node4</title>
<g id="a_node4"><a xlink:href="../../df/d74/SceneManager_8hpp.html" target="_top" xlink:title="Define the scene manager (creating, handling and destroying them)">
<polygon fill="white" stroke="black" points="330,-256.5 330,-308.5 493,-308.5 493,-256.5 330,-256.5"/>
<text text-anchor="start" x="338" y="-296.5" font-family="Helvetica,sans-Serif" font-size="10.00">C:/Users/folae/Documents</text>
<text text-anchor="start" x="338" y="-285.5" font-family="Helvetica,sans-Serif" font-size="10.00">/Code/Big&#45;Projects/ScriptWizards</text>
<text text-anchor="start" x="338" y="-274.5" font-family="Helvetica,sans-Serif" font-size="10.00">/SmallGameLibrary/include/Small</text>
<text text-anchor="middle" x="411.5" y="-263.5" font-family="Helvetica,sans-Serif" font-size="10.00">/Core/SceneManager.hpp</text>
</a>
</g>
</g>
<!-- Node1&#45;&gt;Node4 -->
<g id="edge3" class="edge">
<title>Node1&#45;&gt;Node4</title>
<path fill="none" stroke="midnightblue" d="M530.95,-340.92C509.1,-330.41 484.73,-318.7 463.74,-308.61"/>
<polygon fill="midnightblue" stroke="midnightblue" points="529.62,-344.16 540.15,-345.34 532.65,-337.85 529.62,-344.16"/>
</g>
<!-- Node8 -->
<g id="node8" class="node">
<title>Node8</title>
<g id="a_node8"><a xlink:href="../../de/d15/Scene_8cpp.html" target="_top" xlink:title=" ">
<polygon fill="white" stroke="black" points="511,-167.5 511,-219.5 674,-219.5 674,-167.5 511,-167.5"/>
<text text-anchor="start" x="519" y="-207.5" font-family="Helvetica,sans-Serif" font-size="10.00">C:/Users/folae/Documents</text>
<text text-anchor="start" x="519" y="-196.5" font-family="Helvetica,sans-Serif" font-size="10.00">/Code/Big&#45;Projects/ScriptWizards</text>
<text text-anchor="start" x="519" y="-185.5" font-family="Helvetica,sans-Serif" font-size="10.00">/SmallGameLibrary/source/Core</text>
<text text-anchor="middle" x="592.5" y="-174.5" font-family="Helvetica,sans-Serif" font-size="10.00">/Scene.cpp</text>
</a>
</g>
</g>
<!-- Node1&#45;&gt;Node8 -->
<g id="edge18" class="edge">
<title>Node1&#45;&gt;Node8</title>
<path fill="none" stroke="midnightblue" d="M592.5,-335.25C592.5,-301.04 592.5,-249.97 592.5,-219.67"/>
<polygon fill="midnightblue" stroke="midnightblue" points="589,-335.28 592.5,-345.28 596,-335.28 589,-335.28"/>
</g>
<!-- Node10 -->
<g id="node10" class="node">
<title>Node10</title>
<g id="a_node10"><a xlink:href="../../de/de7/ArkScene_8hpp.html" target="_top" xlink:title="Define a scene scriptable through ArkScript.">
<polygon fill="white" stroke="black" points="695,-256.5 695,-308.5 858,-308.5 858,-256.5 695,-256.5"/>
<text text-anchor="start" x="703" y="-296.5" font-family="Helvetica,sans-Serif" font-size="10.00">C:/Users/folae/Documents</text>
<text text-anchor="start" x="703" y="-285.5" font-family="Helvetica,sans-Serif" font-size="10.00">/Code/Big&#45;Projects/ScriptWizards</text>
<text text-anchor="start" x="703" y="-274.5" font-family="Helvetica,sans-Serif" font-size="10.00">/SmallGameLibrary/include/Small</text>
<text text-anchor="middle" x="776.5" y="-263.5" font-family="Helvetica,sans-Serif" font-size="10.00">/Scenes/ArkScene.hpp</text>
</a>
</g>
</g>
<!-- Node1&#45;&gt;Node10 -->
<g id="edge11" class="edge">
<title>Node1&#45;&gt;Node10</title>
<path fill="none" stroke="midnightblue" d="M654.77,-341.06C677.06,-330.52 701.96,-318.75 723.4,-308.61"/>
<polygon fill="midnightblue" stroke="midnightblue" points="653.26,-337.9 645.72,-345.34 656.26,-344.23 653.26,-337.9"/>
</g>
<!-- Node13 -->
<g id="node13" class="node">
<title>Node13</title>
<g id="a_node13"><a xlink:href="../../d2/d50/Zone_8hpp.html" target="_top" xlink:title="A specialized scene to handle zones and transitions on a tilemap.">
<polygon fill="white" stroke="black" points="879,-256.5 879,-308.5 1042,-308.5 1042,-256.5 879,-256.5"/>
<text text-anchor="start" x="887" y="-296.5" font-family="Helvetica,sans-Serif" font-size="10.00">C:/Users/folae/Documents</text>
<text text-anchor="start" x="887" y="-285.5" font-family="Helvetica,sans-Serif" font-size="10.00">/Code/Big&#45;Projects/ScriptWizards</text>
<text text-anchor="start" x="887" y="-274.5" font-family="Helvetica,sans-Serif" font-size="10.00">/SmallGameLibrary/include/Small</text>
<text text-anchor="middle" x="960.5" y="-263.5" font-family="Helvetica,sans-Serif" font-size="10.00">/Scenes/Zone.hpp</text>
</a>
</g>
</g>
<!-- Node1&#45;&gt;Node13 -->
<g id="edge15" class="edge">
<title>Node1&#45;&gt;Node13</title>
<path fill="none" stroke="midnightblue" d="M684.09,-351.16C737.7,-339.56 806.6,-324.15 867.5,-309 871.24,-308.07 875.05,-307.1 878.9,-306.11"/>
<polygon fill="midnightblue" stroke="midnightblue" points="683.3,-347.75 674.26,-353.28 684.78,-354.59 683.3,-347.75"/>
</g>
<!-- Node3 -->
<g id="node3" class="node">
<title>Node3</title>
<g id="a_node3"><a xlink:href="../../da/d41/All_8hpp.html" target="_top" xlink:title="Include the needed files to start a project using the library.">
<polygon fill="white" stroke="black" points="255.5,-0.5 255.5,-41.5 449.5,-41.5 449.5,-0.5 255.5,-0.5"/>
<text text-anchor="start" x="263.5" y="-29.5" font-family="Helvetica,sans-Serif" font-size="10.00">C:/Users/folae/Documents</text>
<text text-anchor="start" x="263.5" y="-18.5" font-family="Helvetica,sans-Serif" font-size="10.00">/Code/Big&#45;Projects/ScriptWizards</text>
<text text-anchor="middle" x="352.5" y="-7.5" font-family="Helvetica,sans-Serif" font-size="10.00">/SmallGameLibrary/include/Small/All.hpp</text>
</a>
</g>
</g>
<!-- Node2&#45;&gt;Node3 -->
<g id="edge2" class="edge">
<title>Node2&#45;&gt;Node3</title>
<path fill="none" stroke="midnightblue" d="M171.59,-80.74C209.61,-68.4 256.1,-53.3 292.44,-41.5"/>
<polygon fill="midnightblue" stroke="midnightblue" points="170.05,-77.56 161.62,-83.98 172.21,-84.22 170.05,-77.56"/>
</g>
<!-- Node4&#45;&gt;Node2 -->
<g id="edge4" class="edge">
<title>Node4&#45;&gt;Node2</title>
<path fill="none" stroke="midnightblue" d="M319.93,-270.55C251.66,-260.63 165.87,-243.9 139.5,-220 112.34,-195.38 104.56,-150.92 102.35,-125.24"/>
<polygon fill="midnightblue" stroke="midnightblue" points="319.47,-274.02 329.86,-271.96 320.45,-267.09 319.47,-274.02"/>
</g>
<!-- Node5 -->
<g id="node5" class="node">
<title>Node5</title>
<g id="a_node5"><a xlink:href="../../df/d3c/Application_8hpp.html" target="_top" xlink:title="Define the application hosting the scenes for the game.">
<polygon fill="white" stroke="black" points="149,-167.5 149,-219.5 312,-219.5 312,-167.5 149,-167.5"/>
<text text-anchor="start" x="157" y="-207.5" font-family="Helvetica,sans-Serif" font-size="10.00">C:/Users/folae/Documents</text>
<text text-anchor="start" x="157" y="-196.5" font-family="Helvetica,sans-Serif" font-size="10.00">/Code/Big&#45;Projects/ScriptWizards</text>
<text text-anchor="start" x="157" y="-185.5" font-family="Helvetica,sans-Serif" font-size="10.00">/SmallGameLibrary/include/Small</text>
<text text-anchor="middle" x="230.5" y="-174.5" font-family="Helvetica,sans-Serif" font-size="10.00">/Core/Application.hpp</text>
</a>
</g>
</g>
<!-- Node4&#45;&gt;Node5 -->
<g id="edge5" class="edge">
<title>Node4&#45;&gt;Node5</title>
<path fill="none" stroke="midnightblue" d="M349.95,-251.92C328.1,-241.41 303.73,-229.7 282.74,-219.61"/>
<polygon fill="midnightblue" stroke="midnightblue" points="348.62,-255.16 359.15,-256.34 351.65,-248.85 348.62,-255.16"/>
</g>
<!-- Node4&#45;&gt;Node8 -->
<g id="edge9" class="edge">
<title>Node4&#45;&gt;Node8</title>
<path fill="none" stroke="midnightblue" d="M473.05,-251.92C494.9,-241.41 519.27,-229.7 540.26,-219.61"/>
<polygon fill="midnightblue" stroke="midnightblue" points="471.35,-248.85 463.85,-256.34 474.38,-255.16 471.35,-248.85"/>
</g>
<!-- Node9 -->
<g id="node9" class="node">
<title>Node9</title>
<g id="a_node9"><a xlink:href="../../da/d2c/SceneManager_8cpp.html" target="_top" xlink:title=" ">
<polygon fill="white" stroke="black" points="330,-167.5 330,-219.5 493,-219.5 493,-167.5 330,-167.5"/>
<text text-anchor="start" x="338" y="-207.5" font-family="Helvetica,sans-Serif" font-size="10.00">C:/Users/folae/Documents</text>
<text text-anchor="start" x="338" y="-196.5" font-family="Helvetica,sans-Serif" font-size="10.00">/Code/Big&#45;Projects/ScriptWizards</text>
<text text-anchor="start" x="338" y="-185.5" font-family="Helvetica,sans-Serif" font-size="10.00">/SmallGameLibrary/source/Core</text>
<text text-anchor="middle" x="411.5" y="-174.5" font-family="Helvetica,sans-Serif" font-size="10.00">/SceneManager.cpp</text>
</a>
</g>
</g>
<!-- Node4&#45;&gt;Node9 -->
<g id="edge10" class="edge">
<title>Node4&#45;&gt;Node9</title>
<path fill="none" stroke="midnightblue" d="M411.5,-246.19C411.5,-237.28 411.5,-227.9 411.5,-219.61"/>
<polygon fill="midnightblue" stroke="midnightblue" points="408,-246.34 411.5,-256.34 415,-246.34 408,-246.34"/>
</g>
<!-- Node5&#45;&gt;Node2 -->
<g id="edge6" class="edge">
<title>Node5&#45;&gt;Node2</title>
<path fill="none" stroke="midnightblue" d="M184.55,-161.51C166.56,-149.37 146.45,-135.82 130.54,-125.08"/>
<polygon fill="midnightblue" stroke="midnightblue" points="182.94,-164.65 193.19,-167.34 186.85,-158.84 182.94,-164.65"/>
</g>
<!-- Node6 -->
<g id="node6" class="node">
<title>Node6</title>
<g id="a_node6"><a xlink:href="../../d2/db6/Application_8cpp.html" target="_top" xlink:title=" ">
<polygon fill="white" stroke="black" points="221,-78.5 221,-130.5 384,-130.5 384,-78.5 221,-78.5"/>
<text text-anchor="start" x="229" y="-118.5" font-family="Helvetica,sans-Serif" font-size="10.00">C:/Users/folae/Documents</text>
<text text-anchor="start" x="229" y="-107.5" font-family="Helvetica,sans-Serif" font-size="10.00">/Code/Big&#45;Projects/ScriptWizards</text>
<text text-anchor="start" x="229" y="-96.5" font-family="Helvetica,sans-Serif" font-size="10.00">/SmallGameLibrary/source/Core</text>
<text text-anchor="middle" x="302.5" y="-85.5" font-family="Helvetica,sans-Serif" font-size="10.00">/Application.cpp</text>
</a>
</g>
</g>
<!-- Node5&#45;&gt;Node6 -->
<g id="edge7" class="edge">
<title>Node5&#45;&gt;Node6</title>
<path fill="none" stroke="midnightblue" d="M257.81,-159.5C265.74,-149.92 274.26,-139.62 281.72,-130.61"/>
<polygon fill="midnightblue" stroke="midnightblue" points="255,-157.4 251.33,-167.34 260.4,-161.86 255,-157.4"/>
</g>
<!-- Node7 -->
<g id="node7" class="node">
<title>Node7</title>
<g id="a_node7"><a xlink:href="../../db/da3/Bindings_8cpp.html" target="_top" xlink:title=" ">
<polygon fill="white" stroke="black" points="402,-78.5 402,-130.5 575,-130.5 575,-78.5 402,-78.5"/>
<text text-anchor="start" x="410" y="-118.5" font-family="Helvetica,sans-Serif" font-size="10.00">C:/Users/folae/Documents</text>
<text text-anchor="start" x="410" y="-107.5" font-family="Helvetica,sans-Serif" font-size="10.00">/Code/Big&#45;Projects/ScriptWizards</text>
<text text-anchor="start" x="410" y="-96.5" font-family="Helvetica,sans-Serif" font-size="10.00">/SmallGameLibrary/source/Scripting</text>
<text text-anchor="middle" x="488.5" y="-85.5" font-family="Helvetica,sans-Serif" font-size="10.00">/Bindings.cpp</text>
</a>
</g>
</g>
<!-- Node5&#45;&gt;Node7 -->
<g id="edge8" class="edge">
<title>Node5&#45;&gt;Node7</title>
<path fill="none" stroke="midnightblue" d="M314.61,-164.14C346.75,-153.3 383.14,-141.03 414.3,-130.52"/>
<polygon fill="midnightblue" stroke="midnightblue" points="313.14,-160.94 304.78,-167.45 315.37,-167.57 313.14,-160.94"/>
</g>
<!-- Node11 -->
<g id="node11" class="node">
<title>Node11</title>
<g id="a_node11"><a xlink:href="../../d0/d00/Scenes_8hpp.html" target="_top" xlink:title="Include all the files from the Scenes folder.">
<polygon fill="white" stroke="black" points="879,-167.5 879,-219.5 1042,-219.5 1042,-167.5 879,-167.5"/>
<text text-anchor="start" x="887" y="-207.5" font-family="Helvetica,sans-Serif" font-size="10.00">C:/Users/folae/Documents</text>
<text text-anchor="start" x="887" y="-196.5" font-family="Helvetica,sans-Serif" font-size="10.00">/Code/Big&#45;Projects/ScriptWizards</text>
<text text-anchor="start" x="887" y="-185.5" font-family="Helvetica,sans-Serif" font-size="10.00">/SmallGameLibrary/include/Small</text>
<text text-anchor="middle" x="960.5" y="-174.5" font-family="Helvetica,sans-Serif" font-size="10.00">/Scenes.hpp</text>
</a>
</g>
</g>
<!-- Node10&#45;&gt;Node11 -->
<g id="edge12" class="edge">
<title>Node10&#45;&gt;Node11</title>
<path fill="none" stroke="midnightblue" d="M838.77,-252.06C861.06,-241.52 885.96,-229.75 907.4,-219.61"/>
<polygon fill="midnightblue" stroke="midnightblue" points="837.26,-248.9 829.72,-256.34 840.26,-255.23 837.26,-248.9"/>
</g>
<!-- Node12 -->
<g id="node12" class="node">
<title>Node12</title>
<g id="a_node12"><a xlink:href="../../d4/dff/ArkScene_8cpp.html" target="_top" xlink:title=" ">
<polygon fill="white" stroke="black" points="692.5,-167.5 692.5,-219.5 860.5,-219.5 860.5,-167.5 692.5,-167.5"/>
<text text-anchor="start" x="700.5" y="-207.5" font-family="Helvetica,sans-Serif" font-size="10.00">C:/Users/folae/Documents</text>
<text text-anchor="start" x="700.5" y="-196.5" font-family="Helvetica,sans-Serif" font-size="10.00">/Code/Big&#45;Projects/ScriptWizards</text>
<text text-anchor="start" x="700.5" y="-185.5" font-family="Helvetica,sans-Serif" font-size="10.00">/SmallGameLibrary/source/Scenes</text>
<text text-anchor="middle" x="776.5" y="-174.5" font-family="Helvetica,sans-Serif" font-size="10.00">/ArkScene.cpp</text>
</a>
</g>
</g>
<!-- Node10&#45;&gt;Node12 -->
<g id="edge14" class="edge">
<title>Node10&#45;&gt;Node12</title>
<path fill="none" stroke="midnightblue" d="M776.5,-246.19C776.5,-237.28 776.5,-227.9 776.5,-219.61"/>
<polygon fill="midnightblue" stroke="midnightblue" points="773,-246.34 776.5,-256.34 780,-246.34 773,-246.34"/>
</g>
<!-- Node11&#45;&gt;Node3 -->
<g id="edge13" class="edge">
<title>Node11&#45;&gt;Node3</title>
<path fill="none" stroke="midnightblue" d="M873.58,-164.44C797.64,-140.31 684.25,-105.2 584.5,-78 536.53,-64.92 482.56,-51.8 438.75,-41.55"/>
<polygon fill="midnightblue" stroke="midnightblue" points="872.52,-167.78 883.11,-167.48 874.65,-161.11 872.52,-167.78"/>
</g>
<!-- Node13&#45;&gt;Node11 -->
<g id="edge16" class="edge">
<title>Node13&#45;&gt;Node11</title>
<path fill="none" stroke="midnightblue" d="M960.5,-246.19C960.5,-237.28 960.5,-227.9 960.5,-219.61"/>
<polygon fill="midnightblue" stroke="midnightblue" points="957,-246.34 960.5,-256.34 964,-246.34 957,-246.34"/>
</g>
<!-- Node14 -->
<g id="node14" class="node">
<title>Node14</title>
<g id="a_node14"><a xlink:href="../../db/d53/Zone_8cpp.html" target="_top" xlink:title=" ">
<polygon fill="white" stroke="black" points="1060,-173 1060,-214 1271,-214 1271,-173 1060,-173"/>
<text text-anchor="start" x="1068" y="-202" font-family="Helvetica,sans-Serif" font-size="10.00">C:/Users/folae/Documents</text>
<text text-anchor="start" x="1068" y="-191" font-family="Helvetica,sans-Serif" font-size="10.00">/Code/Big&#45;Projects/ScriptWizards</text>
<text text-anchor="middle" x="1165.5" y="-180" font-family="Helvetica,sans-Serif" font-size="10.00">/SmallGameLibrary/source/Scenes/Zone.cpp</text>
</a>
</g>
</g>
<!-- Node13&#45;&gt;Node14 -->
<g id="edge17" class="edge">
<title>Node13&#45;&gt;Node14</title>
<path fill="none" stroke="midnightblue" d="M1028.99,-252.43C1058.66,-239.84 1092.61,-225.43 1119.24,-214.13"/>
<polygon fill="midnightblue" stroke="midnightblue" points="1027.36,-249.32 1019.52,-256.45 1030.09,-255.77 1027.36,-249.32"/>
</g>
</g>
</svg>
