<?xml version="1.0" encoding="UTF-8" standalone="no"?>
<!DOCTYPE svg PUBLIC "-//W3C//DTD SVG 1.1//EN"
 "http://www.w3.org/Graphics/SVG/1.1/DTD/svg11.dtd">
<!-- Generated by graphviz version 2.38.0 (20140413.2041)
 -->
<!-- Title: include/Small/Core/Scene.hpp Pages: 1 -->
<svg width="441pt" height="285pt"
 viewBox="0.00 0.00 440.50 285.00" xmlns="http://www.w3.org/2000/svg" xmlns:xlink="http://www.w3.org/1999/xlink">
<g id="graph0" class="graph" transform="scale(1 1) rotate(0) translate(4 281)">
<title>include/Small/Core/Scene.hpp</title>
<polygon fill="white" stroke="none" points="-4,4 -4,-281 436.5,-281 436.5,4 -4,4"/>
<!-- Node1 -->
<g id="node1" class="node"><title>Node1</title>
<polygon fill="#bfbfbf" stroke="black" points="157,-246.5 157,-276.5 255,-276.5 255,-246.5 157,-246.5"/>
<text text-anchor="start" x="165" y="-264.5" font-family="Helvetica,sans-Serif" font-size="10.00">include/Small/Core</text>
<text text-anchor="middle" x="206" y="-253.5" font-family="Helvetica,sans-Serif" font-size="10.00">/Scene.hpp</text>
</g>
<!-- Node2 -->
<g id="node2" class="node"><title>Node2</title>
<g id="a_node2"><a xlink:href="../../df/d74/SceneManager_8hpp.html" target="_top" xlink:title="Define the scene manager (creating, handling and destroying them) ">
<polygon fill="white" stroke="black" points="32,-179.5 32,-209.5 136,-209.5 136,-179.5 32,-179.5"/>
<text text-anchor="start" x="40" y="-197.5" font-family="Helvetica,sans-Serif" font-size="10.00">include/Small/Core</text>
<text text-anchor="middle" x="84" y="-186.5" font-family="Helvetica,sans-Serif" font-size="10.00">/SceneManager.hpp</text>
</a>
</g>
</g>
<!-- Node1&#45;&gt;Node2 -->
<g id="edge1" class="edge"><title>Node1&#45;&gt;Node2</title>
<path fill="none" stroke="midnightblue" d="M170.479,-241.575C151.288,-231.35 127.995,-218.94 110.421,-209.577"/>
<polygon fill="midnightblue" stroke="midnightblue" points="169.057,-244.783 179.528,-246.396 172.348,-238.605 169.057,-244.783"/>
</g>
<!-- Node4 -->
<g id="node4" class="node"><title>Node4</title>
<g id="a_node4"><a xlink:href="../../d7/d38/Core_8hpp.html" target="_top" xlink:title="Include all the files from the Core folder. ">
<polygon fill="white" stroke="black" points="86.5,-56.5 86.5,-75.5 203.5,-75.5 203.5,-56.5 86.5,-56.5"/>
<text text-anchor="middle" x="145" y="-63.5" font-family="Helvetica,sans-Serif" font-size="10.00">include/Small/Core.hpp</text>
</a>
</g>
</g>
<!-- Node1&#45;&gt;Node4 -->
<g id="edge6" class="edge"><title>Node1&#45;&gt;Node4</title>
<path fill="none" stroke="midnightblue" d="M194.306,-236.996C190.396,-228.603 186.219,-218.997 183,-210 165.176,-160.175 151.432,-97.9415 146.743,-75.5322"/>
<polygon fill="midnightblue" stroke="midnightblue" points="191.227,-238.671 198.699,-246.182 197.542,-235.65 191.227,-238.671"/>
</g>
<!-- Node6 -->
<g id="node6" class="node"><title>Node6</title>
<g id="a_node6"><a xlink:href="../../de/de7/ArkScene_8hpp.html" target="_top" xlink:title="Define a scene scriptable through ArkScript. ">
<polygon fill="white" stroke="black" points="192.5,-179.5 192.5,-209.5 303.5,-209.5 303.5,-179.5 192.5,-179.5"/>
<text text-anchor="start" x="200.5" y="-197.5" font-family="Helvetica,sans-Serif" font-size="10.00">include/Small/Scenes</text>
<text text-anchor="middle" x="248" y="-186.5" font-family="Helvetica,sans-Serif" font-size="10.00">/ArkScene.hpp</text>
</a>
</g>
</g>
<!-- Node1&#45;&gt;Node6 -->
<g id="edge7" class="edge"><title>Node1&#45;&gt;Node6</title>
<path fill="none" stroke="midnightblue" d="M220.624,-237.867C226.703,-228.459 233.569,-217.833 238.904,-209.577"/>
<polygon fill="midnightblue" stroke="midnightblue" points="217.601,-236.097 215.113,-246.396 223.48,-239.896 217.601,-236.097"/>
</g>
<!-- Node8 -->
<g id="node8" class="node"><title>Node8</title>
<g id="a_node8"><a xlink:href="../../d2/d50/Zone_8hpp.html" target="_top" xlink:title="A specialized scene to handle zones and transitions on a tilemap. ">
<polygon fill="white" stroke="black" points="321.5,-179.5 321.5,-209.5 432.5,-209.5 432.5,-179.5 321.5,-179.5"/>
<text text-anchor="start" x="329.5" y="-197.5" font-family="Helvetica,sans-Serif" font-size="10.00">include/Small/Scenes</text>
<text text-anchor="middle" x="377" y="-186.5" font-family="Helvetica,sans-Serif" font-size="10.00">/Zone.hpp</text>
</a>
</g>
</g>
<!-- Node1&#45;&gt;Node8 -->
<g id="edge10" class="edge"><title>Node1&#45;&gt;Node8</title>
<path fill="none" stroke="midnightblue" d="M252.516,-242.819C280.002,-232.371 314.327,-219.323 339.968,-209.577"/>
<polygon fill="midnightblue" stroke="midnightblue" points="251.208,-239.571 243.104,-246.396 253.696,-246.114 251.208,-239.571"/>
</g>
<!-- Node3 -->
<g id="node3" class="node"><title>Node3</title>
<g id="a_node3"><a xlink:href="../../df/d3c/Application_8hpp.html" target="_top" xlink:title="Define the application hosting the scenes for the game. ">
<polygon fill="white" stroke="black" points="0,-112.5 0,-142.5 98,-142.5 98,-112.5 0,-112.5"/>
<text text-anchor="start" x="8" y="-130.5" font-family="Helvetica,sans-Serif" font-size="10.00">include/Small/Core</text>
<text text-anchor="middle" x="49" y="-119.5" font-family="Helvetica,sans-Serif" font-size="10.00">/Application.hpp</text>
</a>
</g>
</g>
<!-- Node2&#45;&gt;Node3 -->
<g id="edge2" class="edge"><title>Node2&#45;&gt;Node3</title>
<path fill="none" stroke="midnightblue" d="M71.6561,-170.576C66.6296,-161.241 60.9799,-150.748 56.5797,-142.577"/>
<polygon fill="midnightblue" stroke="midnightblue" points="68.5828,-172.251 76.4055,-179.396 74.7461,-168.932 68.5828,-172.251"/>
</g>
<!-- Node2&#45;&gt;Node4 -->
<g id="edge5" class="edge"><title>Node2&#45;&gt;Node4</title>
<path fill="none" stroke="midnightblue" d="M95.2057,-170.262C108.914,-141.835 131.444,-95.113 140.762,-75.7885"/>
<polygon fill="midnightblue" stroke="midnightblue" points="91.9521,-168.951 90.7611,-179.479 98.2573,-171.992 91.9521,-168.951"/>
</g>
<!-- Node3&#45;&gt;Node4 -->
<g id="edge3" class="edge"><title>Node3&#45;&gt;Node4</title>
<path fill="none" stroke="midnightblue" d="M80.3512,-107.069C97.4641,-96.4624 117.8,-83.8586 131.031,-75.6578"/>
<polygon fill="midnightblue" stroke="midnightblue" points="78.4066,-104.156 71.7507,-112.399 82.0944,-110.106 78.4066,-104.156"/>
</g>
<!-- Node5 -->
<g id="node5" class="node"><title>Node5</title>
<g id="a_node5"><a xlink:href="../../da/d41/All_8hpp.html" target="_top" xlink:title="Include the needed files to start a project using the library. ">
<polygon fill="white" stroke="black" points="140,-0.5 140,-19.5 248,-19.5 248,-0.5 140,-0.5"/>
<text text-anchor="middle" x="194" y="-7.5" font-family="Helvetica,sans-Serif" font-size="10.00">include/Small/All.hpp</text>
</a>
</g>
</g>
<!-- Node4&#45;&gt;Node5 -->
<g id="edge4" class="edge"><title>Node4&#45;&gt;Node5</title>
<path fill="none" stroke="midnightblue" d="M160.034,-48.4314C168.622,-38.9673 179.043,-27.4827 186.059,-19.7511"/>
<polygon fill="midnightblue" stroke="midnightblue" points="157.219,-46.3254 153.091,-56.083 162.403,-51.0293 157.219,-46.3254"/>
</g>
<!-- Node7 -->
<g id="node7" class="node"><title>Node7</title>
<g id="a_node7"><a xlink:href="../../d0/d00/Scenes_8hpp.html" target="_top" xlink:title="Include all the files from the Scenes folder. ">
<polygon fill="white" stroke="black" points="192,-118 192,-137 322,-137 322,-118 192,-118"/>
<text text-anchor="middle" x="257" y="-125" font-family="Helvetica,sans-Serif" font-size="10.00">include/Small/Scenes.hpp</text>
</a>
</g>
</g>
<!-- Node6&#45;&gt;Node7 -->
<g id="edge8" class="edge"><title>Node6&#45;&gt;Node7</title>
<path fill="none" stroke="midnightblue" d="M251.358,-169.25C252.913,-158.017 254.663,-145.377 255.796,-137.195"/>
<polygon fill="midnightblue" stroke="midnightblue" points="247.858,-169.01 249.953,-179.396 254.791,-169.971 247.858,-169.01"/>
</g>
<!-- Node7&#45;&gt;Node5 -->
<g id="edge9" class="edge"><title>Node7&#45;&gt;Node5</title>
<path fill="none" stroke="midnightblue" d="M247.462,-109.013C233.794,-83.9564 209.148,-38.7714 198.79,-19.782"/>
<polygon fill="midnightblue" stroke="midnightblue" points="244.404,-110.716 252.265,-117.819 250.549,-107.364 244.404,-110.716"/>
</g>
<!-- Node8&#45;&gt;Node7 -->
<g id="edge11" class="edge"><title>Node8&#45;&gt;Node7</title>
<path fill="none" stroke="midnightblue" d="M341.873,-174.473C318.965,-162.064 290.178,-146.472 272.705,-137.007"/>
<polygon fill="midnightblue" stroke="midnightblue" points="340.502,-177.711 350.962,-179.396 343.836,-171.556 340.502,-177.711"/>
</g>
</g>
</svg>
