<?xml version="1.0" encoding="UTF-8" standalone="no"?>
<!DOCTYPE svg PUBLIC "-//W3C//DTD SVG 1.1//EN"
 "http://www.w3.org/Graphics/SVG/1.1/DTD/svg11.dtd">
<!-- Generated by graphviz version 2.38.0 (20140413.2041)
 -->
<!-- Title: C:/Users/Folaefolc/Documents/Code/Big&#45;Projects/ScriptWizards/SmallGameLibrary/include/Small/Core/Scene.hpp Pages: 1 -->
<svg width="538pt" height="472pt"
 viewBox="0.00 0.00 537.50 472.00" xmlns="http://www.w3.org/2000/svg" xmlns:xlink="http://www.w3.org/1999/xlink">
<g id="graph0" class="graph" transform="scale(1 1) rotate(0) translate(4 468)">
<title>C:/Users/Folaefolc/Documents/Code/Big&#45;Projects/ScriptWizards/SmallGameLibrary/include/Small/Core/Scene.hpp</title>
<polygon fill="white" stroke="none" points="-4,4 -4,-468 533.5,-468 533.5,4 -4,4"/>
<!-- Node1 -->
<g id="node1" class="node"><title>Node1</title>
<polygon fill="#bfbfbf" stroke="black" points="186.5,-400.5 186.5,-463.5 320.5,-463.5 320.5,-400.5 186.5,-400.5"/>
<text text-anchor="start" x="194.5" y="-451.5" font-family="Helvetica,sans-Serif" font-size="10.00">C:/Users/Folaefolc</text>
<text text-anchor="start" x="194.5" y="-440.5" font-family="Helvetica,sans-Serif" font-size="10.00">/Documents/Code/Big</text>
<text text-anchor="start" x="194.5" y="-429.5" font-family="Helvetica,sans-Serif" font-size="10.00">&#45;Projects/ScriptWizards</text>
<text text-anchor="start" x="194.5" y="-418.5" font-family="Helvetica,sans-Serif" font-size="10.00">/SmallGameLibrary/include</text>
<text text-anchor="middle" x="253.5" y="-407.5" font-family="Helvetica,sans-Serif" font-size="10.00">/Small/Core/Scene.hpp</text>
</g>
<!-- Node2 -->
<g id="node2" class="node"><title>Node2</title>
<g id="a_node2"><a xlink:href="../../df/d74/SceneManager_8hpp.html" target="_top" xlink:title="Define the scene manager (creating, handling and destroying them) ">
<polygon fill="white" stroke="black" points="20,-300.5 20,-363.5 175,-363.5 175,-300.5 20,-300.5"/>
<text text-anchor="start" x="28" y="-351.5" font-family="Helvetica,sans-Serif" font-size="10.00">C:/Users/Folaefolc</text>
<text text-anchor="start" x="28" y="-340.5" font-family="Helvetica,sans-Serif" font-size="10.00">/Documents/Code/Big</text>
<text text-anchor="start" x="28" y="-329.5" font-family="Helvetica,sans-Serif" font-size="10.00">&#45;Projects/ScriptWizards</text>
<text text-anchor="start" x="28" y="-318.5" font-family="Helvetica,sans-Serif" font-size="10.00">/SmallGameLibrary/include</text>
<text text-anchor="middle" x="97.5" y="-307.5" font-family="Helvetica,sans-Serif" font-size="10.00">/Small/Core/SceneManager.hpp</text>
</a>
</g>
</g>
<!-- Node1&#45;&gt;Node2 -->
<g id="edge1" class="edge"><title>Node1&#45;&gt;Node2</title>
<path fill="none" stroke="midnightblue" d="M195.688,-394.682C179.435,-384.472 161.926,-373.473 146.258,-363.63"/>
<polygon fill="midnightblue" stroke="midnightblue" points="194.239,-397.905 204.569,-400.261 197.963,-391.978 194.239,-397.905"/>
</g>
<!-- Node4 -->
<g id="node4" class="node"><title>Node4</title>
<g id="a_node4"><a xlink:href="../../d7/d38/Core_8hpp.html" target="_top" xlink:title="Include all the files from the Core folder. ">
<polygon fill="white" stroke="black" points="117.5,-100.5 117.5,-163.5 251.5,-163.5 251.5,-100.5 117.5,-100.5"/>
<text text-anchor="start" x="125.5" y="-151.5" font-family="Helvetica,sans-Serif" font-size="10.00">C:/Users/Folaefolc</text>
<text text-anchor="start" x="125.5" y="-140.5" font-family="Helvetica,sans-Serif" font-size="10.00">/Documents/Code/Big</text>
<text text-anchor="start" x="125.5" y="-129.5" font-family="Helvetica,sans-Serif" font-size="10.00">&#45;Projects/ScriptWizards</text>
<text text-anchor="start" x="125.5" y="-118.5" font-family="Helvetica,sans-Serif" font-size="10.00">/SmallGameLibrary/include</text>
<text text-anchor="middle" x="184.5" y="-107.5" font-family="Helvetica,sans-Serif" font-size="10.00">/Small/Core.hpp</text>
</a>
</g>
</g>
<!-- Node1&#45;&gt;Node4 -->
<g id="edge6" class="edge"><title>Node1&#45;&gt;Node4</title>
<path fill="none" stroke="midnightblue" d="M232.908,-391.104C228.995,-382.346 225.265,-372.997 222.5,-364 201.066,-294.265 191.008,-208.753 186.91,-163.874"/>
<polygon fill="midnightblue" stroke="midnightblue" points="229.806,-392.733 237.19,-400.331 236.156,-389.787 229.806,-392.733"/>
</g>
<!-- Node6 -->
<g id="node6" class="node"><title>Node6</title>
<g id="a_node6"><a xlink:href="../../de/de7/ArkScene_8hpp.html" target="_top" xlink:title="Define a scene scriptable through ArkScript. ">
<polygon fill="white" stroke="black" points="232,-300.5 232,-363.5 377,-363.5 377,-300.5 232,-300.5"/>
<text text-anchor="start" x="240" y="-351.5" font-family="Helvetica,sans-Serif" font-size="10.00">C:/Users/Folaefolc</text>
<text text-anchor="start" x="240" y="-340.5" font-family="Helvetica,sans-Serif" font-size="10.00">/Documents/Code/Big</text>
<text text-anchor="start" x="240" y="-329.5" font-family="Helvetica,sans-Serif" font-size="10.00">&#45;Projects/ScriptWizards</text>
<text text-anchor="start" x="240" y="-318.5" font-family="Helvetica,sans-Serif" font-size="10.00">/SmallGameLibrary/include</text>
<text text-anchor="middle" x="304.5" y="-307.5" font-family="Helvetica,sans-Serif" font-size="10.00">/Small/Scenes/ArkScene.hpp</text>
</a>
</g>
</g>
<!-- Node1&#45;&gt;Node6 -->
<g id="edge7" class="edge"><title>Node1&#45;&gt;Node6</title>
<path fill="none" stroke="midnightblue" d="M274.185,-391.252C278.978,-382.042 284.007,-372.379 288.56,-363.63"/>
<polygon fill="midnightblue" stroke="midnightblue" points="271.008,-389.775 269.497,-400.261 277.218,-393.006 271.008,-389.775"/>
</g>
<!-- Node8 -->
<g id="node8" class="node"><title>Node8</title>
<g id="a_node8"><a xlink:href="../../d2/d50/Zone_8hpp.html" target="_top" xlink:title="A specialized scene to handle zones and transitions on a tilemap. ">
<polygon fill="white" stroke="black" points="395.5,-300.5 395.5,-363.5 529.5,-363.5 529.5,-300.5 395.5,-300.5"/>
<text text-anchor="start" x="403.5" y="-351.5" font-family="Helvetica,sans-Serif" font-size="10.00">C:/Users/Folaefolc</text>
<text text-anchor="start" x="403.5" y="-340.5" font-family="Helvetica,sans-Serif" font-size="10.00">/Documents/Code/Big</text>
<text text-anchor="start" x="403.5" y="-329.5" font-family="Helvetica,sans-Serif" font-size="10.00">&#45;Projects/ScriptWizards</text>
<text text-anchor="start" x="403.5" y="-318.5" font-family="Helvetica,sans-Serif" font-size="10.00">/SmallGameLibrary/include</text>
<text text-anchor="middle" x="462.5" y="-307.5" font-family="Helvetica,sans-Serif" font-size="10.00">/Small/Scenes/Zone.hpp</text>
</a>
</g>
</g>
<!-- Node1&#45;&gt;Node8 -->
<g id="edge10" class="edge"><title>Node1&#45;&gt;Node8</title>
<path fill="none" stroke="midnightblue" d="M328.005,-396.065C350.663,-385.44 375.377,-373.852 397.367,-363.541"/>
<polygon fill="midnightblue" stroke="midnightblue" points="326.337,-392.981 318.769,-400.395 329.309,-399.319 326.337,-392.981"/>
</g>
<!-- Node3 -->
<g id="node3" class="node"><title>Node3</title>
<g id="a_node3"><a xlink:href="../../df/d3c/Application_8hpp.html" target="_top" xlink:title="Define the application hosting the scenes for the game. ">
<polygon fill="white" stroke="black" points="0,-200.5 0,-263.5 137,-263.5 137,-200.5 0,-200.5"/>
<text text-anchor="start" x="8" y="-251.5" font-family="Helvetica,sans-Serif" font-size="10.00">C:/Users/Folaefolc</text>
<text text-anchor="start" x="8" y="-240.5" font-family="Helvetica,sans-Serif" font-size="10.00">/Documents/Code/Big</text>
<text text-anchor="start" x="8" y="-229.5" font-family="Helvetica,sans-Serif" font-size="10.00">&#45;Projects/ScriptWizards</text>
<text text-anchor="start" x="8" y="-218.5" font-family="Helvetica,sans-Serif" font-size="10.00">/SmallGameLibrary/include</text>
<text text-anchor="middle" x="68.5" y="-207.5" font-family="Helvetica,sans-Serif" font-size="10.00">/Small/Core/Application.hpp</text>
</a>
</g>
</g>
<!-- Node2&#45;&gt;Node3 -->
<g id="edge2" class="edge"><title>Node2&#45;&gt;Node3</title>
<path fill="none" stroke="midnightblue" d="M85.482,-290.387C82.834,-281.439 80.0721,-272.106 77.5639,-263.63"/>
<polygon fill="midnightblue" stroke="midnightblue" points="82.21,-291.665 88.4038,-300.261 88.9223,-289.679 82.21,-291.665"/>
</g>
<!-- Node2&#45;&gt;Node4 -->
<g id="edge5" class="edge"><title>Node2&#45;&gt;Node4</title>
<path fill="none" stroke="midnightblue" d="M128.657,-292.072C134.823,-283.188 140.825,-273.543 145.5,-264 161.472,-231.396 172.283,-190.971 178.397,-163.721"/>
<polygon fill="midnightblue" stroke="midnightblue" points="125.719,-290.164 122.733,-300.329 131.407,-294.244 125.719,-290.164"/>
</g>
<!-- Node3&#45;&gt;Node4 -->
<g id="edge3" class="edge"><title>Node3&#45;&gt;Node4</title>
<path fill="none" stroke="midnightblue" d="M112.835,-193.545C124.537,-183.659 137.025,-173.108 148.244,-163.63"/>
<polygon fill="midnightblue" stroke="midnightblue" points="110.265,-191.134 104.885,-200.261 114.782,-196.481 110.265,-191.134"/>
</g>
<!-- Node5 -->
<g id="node5" class="node"><title>Node5</title>
<g id="a_node5"><a xlink:href="../../da/d41/All_8hpp.html" target="_top" xlink:title="Include the needed files to start a project using the library. ">
<polygon fill="white" stroke="black" points="170.5,-0.5 170.5,-63.5 304.5,-63.5 304.5,-0.5 170.5,-0.5"/>
<text text-anchor="start" x="178.5" y="-51.5" font-family="Helvetica,sans-Serif" font-size="10.00">C:/Users/Folaefolc</text>
<text text-anchor="start" x="178.5" y="-40.5" font-family="Helvetica,sans-Serif" font-size="10.00">/Documents/Code/Big</text>
<text text-anchor="start" x="178.5" y="-29.5" font-family="Helvetica,sans-Serif" font-size="10.00">&#45;Projects/ScriptWizards</text>
<text text-anchor="start" x="178.5" y="-18.5" font-family="Helvetica,sans-Serif" font-size="10.00">/SmallGameLibrary/include</text>
<text text-anchor="middle" x="237.5" y="-7.5" font-family="Helvetica,sans-Serif" font-size="10.00">/Small/All.hpp</text>
</a>
</g>
</g>
<!-- Node4&#45;&gt;Node5 -->
<g id="edge4" class="edge"><title>Node4&#45;&gt;Node5</title>
<path fill="none" stroke="midnightblue" d="M205.996,-91.2522C210.977,-82.0419 216.203,-72.3791 220.935,-63.6299"/>
<polygon fill="midnightblue" stroke="midnightblue" points="202.803,-89.8 201.124,-100.261 208.96,-93.13 202.803,-89.8"/>
</g>
<!-- Node7 -->
<g id="node7" class="node"><title>Node7</title>
<g id="a_node7"><a xlink:href="../../d0/d00/Scenes_8hpp.html" target="_top" xlink:title="Include all the files from the Scenes folder. ">
<polygon fill="white" stroke="black" points="237.5,-200.5 237.5,-263.5 371.5,-263.5 371.5,-200.5 237.5,-200.5"/>
<text text-anchor="start" x="245.5" y="-251.5" font-family="Helvetica,sans-Serif" font-size="10.00">C:/Users/Folaefolc</text>
<text text-anchor="start" x="245.5" y="-240.5" font-family="Helvetica,sans-Serif" font-size="10.00">/Documents/Code/Big</text>
<text text-anchor="start" x="245.5" y="-229.5" font-family="Helvetica,sans-Serif" font-size="10.00">&#45;Projects/ScriptWizards</text>
<text text-anchor="start" x="245.5" y="-218.5" font-family="Helvetica,sans-Serif" font-size="10.00">/SmallGameLibrary/include</text>
<text text-anchor="middle" x="304.5" y="-207.5" font-family="Helvetica,sans-Serif" font-size="10.00">/Small/Scenes.hpp</text>
</a>
</g>
</g>
<!-- Node6&#45;&gt;Node7 -->
<g id="edge8" class="edge"><title>Node6&#45;&gt;Node7</title>
<path fill="none" stroke="midnightblue" d="M304.5,-290.099C304.5,-281.238 304.5,-272.015 304.5,-263.63"/>
<polygon fill="midnightblue" stroke="midnightblue" points="301,-290.261 304.5,-300.261 308,-290.261 301,-290.261"/>
</g>
<!-- Node7&#45;&gt;Node5 -->
<g id="edge9" class="edge"><title>Node7&#45;&gt;Node5</title>
<path fill="none" stroke="midnightblue" d="M291.068,-190.782C282.39,-164.853 270.829,-130.418 260.5,-100 256.466,-88.122 251.996,-75.0728 248.077,-63.6715"/>
<polygon fill="midnightblue" stroke="midnightblue" points="287.753,-191.904 294.245,-200.277 294.391,-189.683 287.753,-191.904"/>
</g>
<!-- Node8&#45;&gt;Node7 -->
<g id="edge11" class="edge"><title>Node8&#45;&gt;Node7</title>
<path fill="none" stroke="midnightblue" d="M404.404,-294.966C387.814,-284.676 369.899,-273.564 353.883,-263.63"/>
<polygon fill="midnightblue" stroke="midnightblue" points="402.598,-297.964 412.941,-300.261 406.288,-292.016 402.598,-297.964"/>
</g>
</g>
</svg>
