<?xml version="1.0" encoding="UTF-8" standalone="no"?>
<!DOCTYPE svg PUBLIC "-//W3C//DTD SVG 1.1//EN"
 "http://www.w3.org/Graphics/SVG/1.1/DTD/svg11.dtd">
<!-- Generated by graphviz version 2.38.0 (20140413.2041)
 -->
<!-- Title: include/Small/System/Platform.hpp Pages: 1 -->
<svg width="172pt" height="218pt"
 viewBox="0.00 0.00 171.50 218.00" xmlns="http://www.w3.org/2000/svg" xmlns:xlink="http://www.w3.org/1999/xlink">
<g id="graph0" class="graph" transform="scale(1 1) rotate(0) translate(4 214)">
<title>include/Small/System/Platform.hpp</title>
<polygon fill="white" stroke="none" points="-4,4 -4,-214 167.5,-214 167.5,4 -4,4"/>
<!-- Node1 -->
<g id="node1" class="node"><title>Node1</title>
<polygon fill="#bfbfbf" stroke="black" points="42,-179.5 42,-209.5 154,-209.5 154,-179.5 42,-179.5"/>
<text text-anchor="start" x="50" y="-197.5" font-family="Helvetica,sans-Serif" font-size="10.00">include/Small/System</text>
<text text-anchor="middle" x="98" y="-186.5" font-family="Helvetica,sans-Serif" font-size="10.00">/Platform.hpp</text>
</g>
<!-- Node2 -->
<g id="node2" class="node"><title>Node2</title>
<g id="a_node2"><a xlink:href="../../d4/da5/SharedLibrary_8hpp.html" target="_top" xlink:title="Utility to easily load shared libraries and retrieve their functions. ">
<polygon fill="white" stroke="black" points="0,-112.5 0,-142.5 112,-142.5 112,-112.5 0,-112.5"/>
<text text-anchor="start" x="8" y="-130.5" font-family="Helvetica,sans-Serif" font-size="10.00">include/Small/System</text>
<text text-anchor="middle" x="56" y="-119.5" font-family="Helvetica,sans-Serif" font-size="10.00">/SharedLibrary.hpp</text>
</a>
</g>
</g>
<!-- Node1&#45;&gt;Node2 -->
<g id="edge1" class="edge"><title>Node1&#45;&gt;Node2</title>
<path fill="none" stroke="midnightblue" d="M83.3755,-170.867C77.2969,-161.459 70.4308,-150.833 65.0956,-142.577"/>
<polygon fill="midnightblue" stroke="midnightblue" points="80.5197,-172.896 88.8866,-179.396 86.3991,-169.097 80.5197,-172.896"/>
</g>
<!-- Node3 -->
<g id="node3" class="node"><title>Node3</title>
<g id="a_node3"><a xlink:href="../../d4/d25/System_8hpp.html" target="_top" xlink:title="Include all the files from the System folder. ">
<polygon fill="white" stroke="black" points="32.5,-56.5 32.5,-75.5 163.5,-75.5 163.5,-56.5 32.5,-56.5"/>
<text text-anchor="middle" x="98" y="-63.5" font-family="Helvetica,sans-Serif" font-size="10.00">include/Small/System.hpp</text>
</a>
</g>
</g>
<!-- Node1&#45;&gt;Node3 -->
<g id="edge4" class="edge"><title>Node1&#45;&gt;Node3</title>
<path fill="none" stroke="midnightblue" d="M111.036,-170.38C115.065,-162.021 118.974,-152.338 121,-143 123.922,-129.536 124.225,-125.395 121,-112 117.755,-98.5225 109.755,-84.5398 104.105,-75.8095"/>
<polygon fill="midnightblue" stroke="midnightblue" points="107.816,-168.99 106.358,-179.484 114.042,-172.189 107.816,-168.99"/>
</g>
<!-- Node2&#45;&gt;Node3 -->
<g id="edge2" class="edge"><title>Node2&#45;&gt;Node3</title>
<path fill="none" stroke="midnightblue" d="M71.8089,-104.104C78.8093,-94.1868 86.6309,-83.1062 91.8886,-75.6578"/>
<polygon fill="midnightblue" stroke="midnightblue" points="68.8609,-102.211 65.9534,-112.399 74.5797,-106.248 68.8609,-102.211"/>
</g>
<!-- Node4 -->
<g id="node4" class="node"><title>Node4</title>
<g id="a_node4"><a xlink:href="../../da/d41/All_8hpp.html" target="_top" xlink:title="Include the needed files to start a project using the library. ">
<polygon fill="white" stroke="black" points="44,-0.5 44,-19.5 152,-19.5 152,-0.5 44,-0.5"/>
<text text-anchor="middle" x="98" y="-7.5" font-family="Helvetica,sans-Serif" font-size="10.00">include/Small/All.hpp</text>
</a>
</g>
</g>
<!-- Node3&#45;&gt;Node4 -->
<g id="edge3" class="edge"><title>Node3&#45;&gt;Node4</title>
<path fill="none" stroke="midnightblue" d="M98,-45.8045C98,-36.9102 98,-26.7798 98,-19.7511"/>
<polygon fill="midnightblue" stroke="midnightblue" points="94.5001,-46.083 98,-56.083 101.5,-46.083 94.5001,-46.083"/>
</g>
</g>
</svg>
