<?xml version="1.0" encoding="UTF-8" standalone="no"?>
<!DOCTYPE svg PUBLIC "-//W3C//DTD SVG 1.1//EN"
 "http://www.w3.org/Graphics/SVG/1.1/DTD/svg11.dtd">
<!-- Generated by graphviz version 2.49.0 (20210828.1703)
 -->
<!-- Title: C:/Users/folae/Documents/Code/Big&#45;Projects/ScriptWizards/SmallGameLibrary/include/Small/System/Platform.hpp Pages: 1 -->
<svg width="374pt" height="317pt"
 viewBox="0.00 0.00 373.50 317.00" xmlns="http://www.w3.org/2000/svg" xmlns:xlink="http://www.w3.org/1999/xlink">
<g id="graph0" class="graph" transform="scale(1 1) rotate(0) translate(4 313)">
<title>C:/Users/folae/Documents/Code/Big&#45;Projects/ScriptWizards/SmallGameLibrary/include/Small/System/Platform.hpp</title>
<polygon fill="white" stroke="transparent" points="-4,4 -4,-313 369.5,-313 369.5,4 -4,4"/>
<!-- Node1 -->
<g id="node1" class="node">
<title>Node1</title>
<g id="a_node1"><a xlink:title="Defines to identify the running operating system.">
<polygon fill="#bfbfbf" stroke="black" points="70.5,-256.5 70.5,-308.5 233.5,-308.5 233.5,-256.5 70.5,-256.5"/>
<text text-anchor="start" x="78.5" y="-296.5" font-family="Helvetica,sans-Serif" font-size="10.00">C:/Users/folae/Documents</text>
<text text-anchor="start" x="78.5" y="-285.5" font-family="Helvetica,sans-Serif" font-size="10.00">/Code/Big&#45;Projects/ScriptWizards</text>
<text text-anchor="start" x="78.5" y="-274.5" font-family="Helvetica,sans-Serif" font-size="10.00">/SmallGameLibrary/include/Small</text>
<text text-anchor="middle" x="152" y="-263.5" font-family="Helvetica,sans-Serif" font-size="10.00">/System/Platform.hpp</text>
</a>
</g>
</g>
<!-- Node2 -->
<g id="node2" class="node">
<title>Node2</title>
<g id="a_node2"><a xlink:href="../../d4/d25/System_8hpp.html" target="_top" xlink:title="Include all the files from the System folder.">
<polygon fill="white" stroke="black" points="15.5,-78.5 15.5,-130.5 178.5,-130.5 178.5,-78.5 15.5,-78.5"/>
<text text-anchor="start" x="23.5" y="-118.5" font-family="Helvetica,sans-Serif" font-size="10.00">C:/Users/folae/Documents</text>
<text text-anchor="start" x="23.5" y="-107.5" font-family="Helvetica,sans-Serif" font-size="10.00">/Code/Big&#45;Projects/ScriptWizards</text>
<text text-anchor="start" x="23.5" y="-96.5" font-family="Helvetica,sans-Serif" font-size="10.00">/SmallGameLibrary/include/Small</text>
<text text-anchor="middle" x="97" y="-85.5" font-family="Helvetica,sans-Serif" font-size="10.00">/System.hpp</text>
</a>
</g>
</g>
<!-- Node1&#45;&gt;Node2 -->
<g id="edge1" class="edge">
<title>Node1&#45;&gt;Node2</title>
<path fill="none" stroke="midnightblue" d="M130,-247.67C125.1,-238.94 120.36,-229.35 117,-220 106.35,-190.38 101.25,-154.34 98.9,-130.7"/>
<polygon fill="midnightblue" stroke="midnightblue" points="127.04,-249.55 135.11,-256.42 133.09,-246.02 127.04,-249.55"/>
</g>
<!-- Node4 -->
<g id="node4" class="node">
<title>Node4</title>
<g id="a_node4"><a xlink:href="../../d4/da5/SharedLibrary_8hpp.html" target="_top" xlink:title="Utility to easily load shared libraries and retrieve their functions.">
<polygon fill="white" stroke="black" points="125.5,-167.5 125.5,-219.5 288.5,-219.5 288.5,-167.5 125.5,-167.5"/>
<text text-anchor="start" x="133.5" y="-207.5" font-family="Helvetica,sans-Serif" font-size="10.00">C:/Users/folae/Documents</text>
<text text-anchor="start" x="133.5" y="-196.5" font-family="Helvetica,sans-Serif" font-size="10.00">/Code/Big&#45;Projects/ScriptWizards</text>
<text text-anchor="start" x="133.5" y="-185.5" font-family="Helvetica,sans-Serif" font-size="10.00">/SmallGameLibrary/include/Small</text>
<text text-anchor="middle" x="207" y="-174.5" font-family="Helvetica,sans-Serif" font-size="10.00">/System/SharedLibrary.hpp</text>
</a>
</g>
</g>
<!-- Node1&#45;&gt;Node4 -->
<g id="edge3" class="edge">
<title>Node1&#45;&gt;Node4</title>
<path fill="none" stroke="midnightblue" d="M173.41,-247.64C179.31,-238.31 185.6,-228.35 191.13,-219.61"/>
<polygon fill="midnightblue" stroke="midnightblue" points="170.29,-246.01 167.91,-256.34 176.21,-249.75 170.29,-246.01"/>
</g>
<!-- Node3 -->
<g id="node3" class="node">
<title>Node3</title>
<g id="a_node3"><a xlink:href="../../da/d41/All_8hpp.html" target="_top" xlink:title="Include the needed files to start a project using the library.">
<polygon fill="white" stroke="black" points="0,-0.5 0,-41.5 194,-41.5 194,-0.5 0,-0.5"/>
<text text-anchor="start" x="8" y="-29.5" font-family="Helvetica,sans-Serif" font-size="10.00">C:/Users/folae/Documents</text>
<text text-anchor="start" x="8" y="-18.5" font-family="Helvetica,sans-Serif" font-size="10.00">/Code/Big&#45;Projects/ScriptWizards</text>
<text text-anchor="middle" x="97" y="-7.5" font-family="Helvetica,sans-Serif" font-size="10.00">/SmallGameLibrary/include/Small/All.hpp</text>
</a>
</g>
</g>
<!-- Node2&#45;&gt;Node3 -->
<g id="edge2" class="edge">
<title>Node2&#45;&gt;Node3</title>
<path fill="none" stroke="midnightblue" d="M97,-68.15C97,-59.05 97,-49.6 97,-41.63"/>
<polygon fill="midnightblue" stroke="midnightblue" points="93.5,-68.16 97,-78.16 100.5,-68.16 93.5,-68.16"/>
</g>
<!-- Node4&#45;&gt;Node2 -->
<g id="edge4" class="edge">
<title>Node4&#45;&gt;Node2</title>
<path fill="none" stroke="midnightblue" d="M167.09,-160.93C154.47,-150.96 140.71,-140.07 128.75,-130.61"/>
<polygon fill="midnightblue" stroke="midnightblue" points="165.17,-163.88 175.18,-167.34 169.51,-158.39 165.17,-163.88"/>
</g>
<!-- Node5 -->
<g id="node5" class="node">
<title>Node5</title>
<g id="a_node5"><a xlink:href="../../da/d0b/SharedLibrary_8cpp.html" target="_top" xlink:title=" ">
<polygon fill="white" stroke="black" points="196.5,-78.5 196.5,-130.5 365.5,-130.5 365.5,-78.5 196.5,-78.5"/>
<text text-anchor="start" x="204.5" y="-118.5" font-family="Helvetica,sans-Serif" font-size="10.00">C:/Users/folae/Documents</text>
<text text-anchor="start" x="204.5" y="-107.5" font-family="Helvetica,sans-Serif" font-size="10.00">/Code/Big&#45;Projects/ScriptWizards</text>
<text text-anchor="start" x="204.5" y="-96.5" font-family="Helvetica,sans-Serif" font-size="10.00">/SmallGameLibrary/source/System</text>
<text text-anchor="middle" x="281" y="-85.5" font-family="Helvetica,sans-Serif" font-size="10.00">/SharedLibrary.cpp</text>
</a>
</g>
</g>
<!-- Node4&#45;&gt;Node5 -->
<g id="edge5" class="edge">
<title>Node4&#45;&gt;Node5</title>
<path fill="none" stroke="midnightblue" d="M235.07,-159.5C243.22,-149.92 251.98,-139.62 259.64,-130.61"/>
<polygon fill="midnightblue" stroke="midnightblue" points="232.22,-157.45 228.4,-167.34 237.55,-161.99 232.22,-157.45"/>
</g>
</g>
</svg>
