<?xml version="1.0" encoding="UTF-8" standalone="no"?>
<!DOCTYPE svg PUBLIC "-//W3C//DTD SVG 1.1//EN"
 "http://www.w3.org/Graphics/SVG/1.1/DTD/svg11.dtd">
<!-- Generated by graphviz version 2.49.0 (20210828.1703)
 -->
<!-- Title: sgl::Widgets::Base Pages: 1 -->
<svg width="481pt" height="140pt"
 viewBox="0.00 0.00 480.50 140.00" xmlns="http://www.w3.org/2000/svg" xmlns:xlink="http://www.w3.org/1999/xlink">
<g id="graph0" class="graph" transform="scale(1 1) rotate(0) translate(4 136)">
<title>sgl::Widgets::Base</title>
<polygon fill="white" stroke="transparent" points="-4,4 -4,-136 476.5,-136 476.5,4 -4,4"/>
<!-- Node1 -->
<g id="node1" class="node">
<title>Node1</title>
<g id="a_node1"><a xlink:title="Base class for all widgets.">
<polygon fill="#bfbfbf" stroke="black" points="186,-56.5 186,-75.5 286,-75.5 286,-56.5 186,-56.5"/>
<text text-anchor="middle" x="236" y="-63.5" font-family="Helvetica,sans-Serif" font-size="10.00">sgl::Widgets::Base</text>
</a>
</g>
</g>
<!-- Node3 -->
<g id="node3" class="node">
<title>Node3</title>
<g id="a_node3"><a xlink:href="../../dd/dcd/classsgl_1_1Widgets_1_1Button.html" target="_top" xlink:title="Basic button widget.">
<polygon fill="white" stroke="black" points="0,-0.5 0,-19.5 106,-19.5 106,-0.5 0,-0.5"/>
<text text-anchor="middle" x="53" y="-7.5" font-family="Helvetica,sans-Serif" font-size="10.00">sgl::Widgets::Button</text>
</a>
</g>
</g>
<!-- Node1&#45;&gt;Node3 -->
<g id="edge2" class="edge">
<title>Node1&#45;&gt;Node3</title>
<path fill="none" stroke="midnightblue" d="M197.26,-53.57C162.74,-43.38 112.99,-28.7 81.86,-19.52"/>
<polygon fill="midnightblue" stroke="midnightblue" points="196.42,-56.97 207,-56.44 198.4,-50.26 196.42,-56.97"/>
</g>
<!-- Node4 -->
<g id="node4" class="node">
<title>Node4</title>
<g id="a_node4"><a xlink:href="../../d5/dd4/classsgl_1_1Widgets_1_1Image.html" target="_top" xlink:title="Basic image widget.">
<polygon fill="white" stroke="black" points="124,-0.5 124,-19.5 228,-19.5 228,-0.5 124,-0.5"/>
<text text-anchor="middle" x="176" y="-7.5" font-family="Helvetica,sans-Serif" font-size="10.00">sgl::Widgets::Image</text>
</a>
</g>
</g>
<!-- Node1&#45;&gt;Node4 -->
<g id="edge3" class="edge">
<title>Node1&#45;&gt;Node4</title>
<path fill="none" stroke="midnightblue" d="M218.82,-49.54C208.12,-39.91 194.74,-27.87 185.82,-19.83"/>
<polygon fill="midnightblue" stroke="midnightblue" points="216.59,-52.24 226.36,-56.32 221.27,-47.03 216.59,-52.24"/>
</g>
<!-- Node5 -->
<g id="node5" class="node">
<title>Node5</title>
<g id="a_node5"><a xlink:href="../../d0/d0f/classsgl_1_1Widgets_1_1Label.html" target="_top" xlink:title="Basic label widget, doesn&#39;t listen to events by default.">
<polygon fill="white" stroke="black" points="246.5,-0.5 246.5,-19.5 347.5,-19.5 347.5,-0.5 246.5,-0.5"/>
<text text-anchor="middle" x="297" y="-7.5" font-family="Helvetica,sans-Serif" font-size="10.00">sgl::Widgets::Label</text>
</a>
</g>
</g>
<!-- Node1&#45;&gt;Node5 -->
<g id="edge4" class="edge">
<title>Node1&#45;&gt;Node5</title>
<path fill="none" stroke="midnightblue" d="M253.47,-49.54C264.34,-39.91 277.94,-27.87 287.02,-19.83"/>
<polygon fill="midnightblue" stroke="midnightblue" points="250.97,-47.07 245.8,-56.32 255.61,-52.32 250.97,-47.07"/>
</g>
<!-- Node6 -->
<g id="node6" class="node">
<title>Node6</title>
<g id="a_node6"><a xlink:href="../../df/de0/classsgl_1_1Widgets_1_1Layout.html" target="_top" xlink:title="A collection of widgets working together, graphically united.">
<polygon fill="white" stroke="black" points="365.5,-0.5 365.5,-19.5 472.5,-19.5 472.5,-0.5 365.5,-0.5"/>
<text text-anchor="middle" x="419" y="-7.5" font-family="Helvetica,sans-Serif" font-size="10.00">sgl::Widgets::Layout</text>
</a>
</g>
</g>
<!-- Node1&#45;&gt;Node6 -->
<g id="edge5" class="edge">
<title>Node1&#45;&gt;Node6</title>
<path fill="none" stroke="midnightblue" d="M274.74,-53.57C309.26,-43.38 359.01,-28.7 390.14,-19.52"/>
<polygon fill="midnightblue" stroke="midnightblue" points="273.6,-50.26 265,-56.44 275.58,-56.97 273.6,-50.26"/>
</g>
<!-- Node2 -->
<g id="node2" class="node">
<title>Node2</title>
<g id="a_node2"><a xlink:href="../../dc/dee/classsgl_1_1Graphics_1_1Node.html" target="_top" xlink:title="Abstract base class for a scene graph node.">
<polygon fill="white" stroke="black" points="184.5,-112.5 184.5,-131.5 287.5,-131.5 287.5,-112.5 184.5,-112.5"/>
<text text-anchor="middle" x="236" y="-119.5" font-family="Helvetica,sans-Serif" font-size="10.00">sgl::Graphics::Node</text>
</a>
</g>
</g>
<!-- Node2&#45;&gt;Node1 -->
<g id="edge1" class="edge">
<title>Node2&#45;&gt;Node1</title>
<path fill="none" stroke="midnightblue" d="M236,-101.8C236,-92.91 236,-82.78 236,-75.75"/>
<polygon fill="midnightblue" stroke="midnightblue" points="232.5,-102.08 236,-112.08 239.5,-102.08 232.5,-102.08"/>
</g>
</g>
</svg>
