<?xml version="1.0" encoding="UTF-8" standalone="no"?>
<!DOCTYPE svg PUBLIC "-//W3C//DTD SVG 1.1//EN"
 "http://www.w3.org/Graphics/SVG/1.1/DTD/svg11.dtd">
<!-- Generated by graphviz version 2.38.0 (20140413.2041)
 -->
<!-- Title: sgl::Widgets::Base Pages: 1 -->
<svg width="481pt" height="140pt"
 viewBox="0.00 0.00 480.50 140.00" xmlns="http://www.w3.org/2000/svg" xmlns:xlink="http://www.w3.org/1999/xlink">
<g id="graph0" class="graph" transform="scale(1 1) rotate(0) translate(4 136)">
<title>sgl::Widgets::Base</title>
<polygon fill="white" stroke="none" points="-4,4 -4,-136 476.5,-136 476.5,4 -4,4"/>
<!-- Node1 -->
<g id="node1" class="node"><title>Node1</title>
<polygon fill="#bfbfbf" stroke="black" points="186,-56.5 186,-75.5 286,-75.5 286,-56.5 186,-56.5"/>
<text text-anchor="middle" x="236" y="-63.5" font-family="Helvetica,sans-Serif" font-size="10.00">sgl::Widgets::Base</text>
</g>
<!-- Node3 -->
<g id="node3" class="node"><title>Node3</title>
<g id="a_node3"><a xlink:href="../../dd/dcd/classsgl_1_1Widgets_1_1Button.html" target="_top" xlink:title="Basic button widget. ">
<polygon fill="white" stroke="black" points="0,-0.5 0,-19.5 106,-19.5 106,-0.5 0,-0.5"/>
<text text-anchor="middle" x="53" y="-7.5" font-family="Helvetica,sans-Serif" font-size="10.00">sgl::Widgets::Button</text>
</a>
</g>
</g>
<!-- Node1&#45;&gt;Node3 -->
<g id="edge2" class="edge"><title>Node1&#45;&gt;Node3</title>
<path fill="none" stroke="midnightblue" d="M197.257,-53.5677C162.735,-43.381 112.995,-28.7034 81.8612,-19.5164"/>
<polygon fill="midnightblue" stroke="midnightblue" points="196.421,-56.9702 207.003,-56.4435 198.403,-50.2564 196.421,-56.9702"/>
</g>
<!-- Node4 -->
<g id="node4" class="node"><title>Node4</title>
<g id="a_node4"><a xlink:href="../../d5/dd4/classsgl_1_1Widgets_1_1Image.html" target="_top" xlink:title="Basic image widget. ">
<polygon fill="white" stroke="black" points="124,-0.5 124,-19.5 228,-19.5 228,-0.5 124,-0.5"/>
<text text-anchor="middle" x="176" y="-7.5" font-family="Helvetica,sans-Serif" font-size="10.00">sgl::Widgets::Image</text>
</a>
</g>
</g>
<!-- Node1&#45;&gt;Node4 -->
<g id="edge3" class="edge"><title>Node1&#45;&gt;Node4</title>
<path fill="none" stroke="midnightblue" d="M218.819,-49.5372C208.121,-39.9087 194.744,-27.8694 185.815,-19.8339"/>
<polygon fill="midnightblue" stroke="midnightblue" points="216.586,-52.2358 226.36,-56.324 221.268,-47.0327 216.586,-52.2358"/>
</g>
<!-- Node5 -->
<g id="node5" class="node"><title>Node5</title>
<g id="a_node5"><a xlink:href="../../d0/d0f/classsgl_1_1Widgets_1_1Label.html" target="_top" xlink:title="Basic label widget, doesn&#39;t listen to events by default. ">
<polygon fill="white" stroke="black" points="246.5,-0.5 246.5,-19.5 347.5,-19.5 347.5,-0.5 246.5,-0.5"/>
<text text-anchor="middle" x="297" y="-7.5" font-family="Helvetica,sans-Serif" font-size="10.00">sgl::Widgets::Label</text>
</a>
</g>
</g>
<!-- Node1&#45;&gt;Node5 -->
<g id="edge4" class="edge"><title>Node1&#45;&gt;Node5</title>
<path fill="none" stroke="midnightblue" d="M253.467,-49.5372C264.344,-39.9087 277.944,-27.8694 287.021,-19.8339"/>
<polygon fill="midnightblue" stroke="midnightblue" points="250.968,-47.0749 245.801,-56.324 255.608,-52.3162 250.968,-47.0749"/>
</g>
<!-- Node6 -->
<g id="node6" class="node"><title>Node6</title>
<g id="a_node6"><a xlink:href="../../df/de0/classsgl_1_1Widgets_1_1Layout.html" target="_top" xlink:title="A collection of widgets working together, graphically united. ">
<polygon fill="white" stroke="black" points="365.5,-0.5 365.5,-19.5 472.5,-19.5 472.5,-0.5 365.5,-0.5"/>
<text text-anchor="middle" x="419" y="-7.5" font-family="Helvetica,sans-Serif" font-size="10.00">sgl::Widgets::Layout</text>
</a>
</g>
</g>
<!-- Node1&#45;&gt;Node6 -->
<g id="edge5" class="edge"><title>Node1&#45;&gt;Node6</title>
<path fill="none" stroke="midnightblue" d="M274.743,-53.5677C309.265,-43.381 359.005,-28.7034 390.139,-19.5164"/>
<polygon fill="midnightblue" stroke="midnightblue" points="273.597,-50.2564 264.997,-56.4435 275.579,-56.9702 273.597,-50.2564"/>
</g>
<!-- Node2 -->
<g id="node2" class="node"><title>Node2</title>
<g id="a_node2"><a xlink:href="../../dc/dee/classsgl_1_1Graphics_1_1Node.html" target="_top" xlink:title="Abstract base class for a scene graph node. ">
<polygon fill="white" stroke="black" points="184.5,-112.5 184.5,-131.5 287.5,-131.5 287.5,-112.5 184.5,-112.5"/>
<text text-anchor="middle" x="236" y="-119.5" font-family="Helvetica,sans-Serif" font-size="10.00">sgl::Graphics::Node</text>
</a>
</g>
</g>
<!-- Node2&#45;&gt;Node1 -->
<g id="edge1" class="edge"><title>Node2&#45;&gt;Node1</title>
<path fill="none" stroke="midnightblue" d="M236,-101.805C236,-92.9102 236,-82.7798 236,-75.7511"/>
<polygon fill="midnightblue" stroke="midnightblue" points="232.5,-102.083 236,-112.083 239.5,-102.083 232.5,-102.083"/>
</g>
</g>
</svg>
