<?xml version="1.0" encoding="UTF-8" standalone="no"?>
<!DOCTYPE svg PUBLIC "-//W3C//DTD SVG 1.1//EN"
 "http://www.w3.org/Graphics/SVG/1.1/DTD/svg11.dtd">
<!-- Generated by graphviz version 2.38.0 (20140413.2041)
 -->
<!-- Title: include/Small/Scenes.hpp Pages: 1 -->
<svg width="1037pt" height="252pt"
 viewBox="0.00 0.00 1036.83 252.00" xmlns="http://www.w3.org/2000/svg" xmlns:xlink="http://www.w3.org/1999/xlink">
<g id="graph0" class="graph" transform="scale(1 1) rotate(0) translate(4 248)">
<title>include/Small/Scenes.hpp</title>
<polygon fill="white" stroke="none" points="-4,4 -4,-248 1032.83,-248 1032.83,4 -4,4"/>
<!-- Node1 -->
<g id="node1" class="node"><title>Node1</title>
<polygon fill="#bfbfbf" stroke="black" points="667,-224.5 667,-243.5 797,-243.5 797,-224.5 667,-224.5"/>
<text text-anchor="middle" x="732" y="-231.5" font-family="Helvetica,sans-Serif" font-size="10.00">include/Small/Scenes.hpp</text>
</g>
<!-- Node2 -->
<g id="node2" class="node"><title>Node2</title>
<g id="a_node2"><a xlink:href="../../d2/d50/Zone_8hpp.html" target="_top" xlink:title="A specialized scene to handle zones and transitions on a tilemap. ">
<polygon fill="white" stroke="black" points="590,-168.5 590,-187.5 710,-187.5 710,-168.5 590,-168.5"/>
<text text-anchor="middle" x="650" y="-175.5" font-family="Helvetica,sans-Serif" font-size="10.00">Small/Scenes/Zone.hpp</text>
</a>
</g>
</g>
<!-- Node1&#45;&gt;Node2 -->
<g id="edge1" class="edge"><title>Node1&#45;&gt;Node2</title>
<path fill="none" stroke="midnightblue" d="M718.825,-224.324C706.153,-215.979 686.767,-203.212 671.794,-193.352"/>
<polygon fill="midnightblue" stroke="midnightblue" points="673.419,-190.231 663.142,-187.655 669.569,-196.078 673.419,-190.231"/>
</g>
<!-- Node18 -->
<g id="node18" class="node"><title>Node18</title>
<g id="a_node18"><a xlink:href="../../de/de7/ArkScene_8hpp.html" target="_top" xlink:title="Define a scene scriptable through ArkScript. ">
<polygon fill="white" stroke="black" points="743,-168.5 743,-187.5 885,-187.5 885,-168.5 743,-168.5"/>
<text text-anchor="middle" x="814" y="-175.5" font-family="Helvetica,sans-Serif" font-size="10.00">Small/Scenes/ArkScene.hpp</text>
</a>
</g>
</g>
<!-- Node1&#45;&gt;Node18 -->
<g id="edge19" class="edge"><title>Node1&#45;&gt;Node18</title>
<path fill="none" stroke="midnightblue" d="M745.175,-224.324C757.847,-215.979 777.233,-203.212 792.206,-193.352"/>
<polygon fill="midnightblue" stroke="midnightblue" points="794.431,-196.078 800.858,-187.655 790.581,-190.231 794.431,-196.078"/>
</g>
<!-- Node3 -->
<g id="node3" class="node"><title>Node3</title>
<g id="a_node3"><a xlink:href="../../db/de8/Scene_8hpp.html" target="_top" xlink:title="The base scene class and the scene states are defined here. ">
<polygon fill="white" stroke="black" points="593,-112.5 593,-131.5 707,-131.5 707,-112.5 593,-112.5"/>
<text text-anchor="middle" x="650" y="-119.5" font-family="Helvetica,sans-Serif" font-size="10.00">Small/Core/Scene.hpp</text>
</a>
</g>
</g>
<!-- Node2&#45;&gt;Node3 -->
<g id="edge2" class="edge"><title>Node2&#45;&gt;Node3</title>
<path fill="none" stroke="midnightblue" d="M650,-168.083C650,-161.006 650,-150.861 650,-141.986"/>
<polygon fill="midnightblue" stroke="midnightblue" points="653.5,-141.751 650,-131.751 646.5,-141.751 653.5,-141.751"/>
</g>
<!-- Node16 -->
<g id="node16" class="node"><title>Node16</title>
<g id="a_node16"><a xlink:href="../../d8/d67/TileView_8hpp.html" target="_top" xlink:title="Utility to build and manipulate views based on tiles. ">
<polygon fill="white" stroke="black" points="85.5,-112.5 85.5,-131.5 226.5,-131.5 226.5,-112.5 85.5,-112.5"/>
<text text-anchor="middle" x="156" y="-119.5" font-family="Helvetica,sans-Serif" font-size="10.00">Small/Graphics/TileView.hpp</text>
</a>
</g>
</g>
<!-- Node2&#45;&gt;Node16 -->
<g id="edge16" class="edge"><title>Node2&#45;&gt;Node16</title>
<path fill="none" stroke="midnightblue" d="M589.92,-170.433C501.42,-160.758 335.821,-142.657 236.771,-131.829"/>
<polygon fill="midnightblue" stroke="midnightblue" points="237.128,-128.347 226.807,-130.74 236.367,-135.306 237.128,-128.347"/>
</g>
<!-- Node4 -->
<g id="node4" class="node"><title>Node4</title>
<polygon fill="white" stroke="#bfbfbf" points="214,-56.5 214,-75.5 318,-75.5 318,-56.5 214,-56.5"/>
<text text-anchor="middle" x="266" y="-63.5" font-family="Helvetica,sans-Serif" font-size="10.00">SFML/Graphics.hpp</text>
</g>
<!-- Node3&#45;&gt;Node4 -->
<g id="edge3" class="edge"><title>Node3&#45;&gt;Node4</title>
<path fill="none" stroke="midnightblue" d="M592.801,-113.173C530.371,-104.598 427.17,-90.3303 328.398,-76.1917"/>
<polygon fill="midnightblue" stroke="midnightblue" points="328.635,-72.6899 318.239,-74.7357 327.642,-79.6191 328.635,-72.6899"/>
</g>
<!-- Node5 -->
<g id="node5" class="node"><title>Node5</title>
<polygon fill="white" stroke="#bfbfbf" points="558,-56.5 558,-75.5 684,-75.5 684,-56.5 558,-56.5"/>
<text text-anchor="middle" x="621" y="-63.5" font-family="Helvetica,sans-Serif" font-size="10.00">SFML/System/Clock.hpp</text>
</g>
<!-- Node3&#45;&gt;Node5 -->
<g id="edge4" class="edge"><title>Node3&#45;&gt;Node5</title>
<path fill="none" stroke="midnightblue" d="M645.211,-112.083C641.242,-104.691 635.475,-93.9533 630.565,-84.8111"/>
<polygon fill="midnightblue" stroke="midnightblue" points="633.514,-82.9051 625.7,-75.7511 627.347,-86.217 633.514,-82.9051"/>
</g>
<!-- Node6 -->
<g id="node6" class="node"><title>Node6</title>
<polygon fill="white" stroke="#bfbfbf" points="702,-56.5 702,-75.5 828,-75.5 828,-56.5 702,-56.5"/>
<text text-anchor="middle" x="765" y="-63.5" font-family="Helvetica,sans-Serif" font-size="10.00">SFML/Window/Event.hpp</text>
</g>
<!-- Node3&#45;&gt;Node6 -->
<g id="edge5" class="edge"><title>Node3&#45;&gt;Node6</title>
<path fill="none" stroke="midnightblue" d="M668.222,-112.444C686.896,-103.675 716.156,-89.9355 737.617,-79.8579"/>
<polygon fill="midnightblue" stroke="midnightblue" points="739.299,-82.935 746.863,-75.5164 736.324,-76.5988 739.299,-82.935"/>
</g>
<!-- Node7 -->
<g id="node7" class="node"><title>Node7</title>
<polygon fill="white" stroke="#bfbfbf" points="929.5,-0.5 929.5,-19.5 970.5,-19.5 970.5,-0.5 929.5,-0.5"/>
<text text-anchor="middle" x="950" y="-7.5" font-family="Helvetica,sans-Serif" font-size="10.00">string</text>
</g>
<!-- Node3&#45;&gt;Node7 -->
<g id="edge6" class="edge"><title>Node3&#45;&gt;Node7</title>
<path fill="none" stroke="midnightblue" d="M702.825,-112.464C740.974,-105.305 793.26,-93.4236 837,-76 855.134,-68.7763 900.137,-41.7748 927.565,-24.929"/>
<polygon fill="midnightblue" stroke="midnightblue" points="929.453,-27.8764 936.128,-19.6487 925.779,-21.918 929.453,-27.8764"/>
</g>
<!-- Node8 -->
<g id="node8" class="node"><title>Node8</title>
<g id="a_node8"><a xlink:href="../../df/db4/Config_8hpp.html" target="_top" xlink:title="Small/Scripting/Config.hpp">
<polygon fill="white" stroke="black" points="884.5,-56.5 884.5,-75.5 1015.5,-75.5 1015.5,-56.5 884.5,-56.5"/>
<text text-anchor="middle" x="950" y="-63.5" font-family="Helvetica,sans-Serif" font-size="10.00">Small/Scripting/Config.hpp</text>
</a>
</g>
</g>
<!-- Node3&#45;&gt;Node8 -->
<g id="edge7" class="edge"><title>Node3&#45;&gt;Node8</title>
<path fill="none" stroke="midnightblue" d="M697.536,-112.444C750.528,-102.905 836.203,-87.4834 892.817,-77.293"/>
<polygon fill="midnightblue" stroke="midnightblue" points="893.465,-80.7327 902.687,-75.5164 892.225,-73.8434 893.465,-80.7327"/>
</g>
<!-- Node9 -->
<g id="node9" class="node"><title>Node9</title>
<g id="a_node9"><a xlink:href="../../d7/dc6/Node_8hpp.html" target="_top" xlink:title="A scene graph node. ">
<polygon fill="white" stroke="black" points="336,-56.5 336,-75.5 464,-75.5 464,-56.5 336,-56.5"/>
<text text-anchor="middle" x="400" y="-63.5" font-family="Helvetica,sans-Serif" font-size="10.00">Small/Graphics/Node.hpp</text>
</a>
</g>
</g>
<!-- Node3&#45;&gt;Node9 -->
<g id="edge9" class="edge"><title>Node3&#45;&gt;Node9</title>
<path fill="none" stroke="midnightblue" d="M610.387,-112.444C566.775,-103.023 496.6,-87.8656 449.422,-77.6752"/>
<polygon fill="midnightblue" stroke="midnightblue" points="449.941,-74.2067 439.428,-75.5164 448.464,-81.0489 449.941,-74.2067"/>
</g>
<!-- Node15 -->
<g id="node15" class="node"><title>Node15</title>
<polygon fill="white" stroke="#bfbfbf" points="482.5,-56.5 482.5,-75.5 539.5,-75.5 539.5,-56.5 482.5,-56.5"/>
<text text-anchor="middle" x="511" y="-63.5" font-family="Helvetica,sans-Serif" font-size="10.00">Scene.inl</text>
</g>
<!-- Node3&#45;&gt;Node15 -->
<g id="edge15" class="edge"><title>Node3&#45;&gt;Node15</title>
<path fill="none" stroke="midnightblue" d="M627.975,-112.444C604.896,-103.478 568.438,-89.314 542.359,-79.1827"/>
<polygon fill="midnightblue" stroke="midnightblue" points="543.511,-75.8753 532.922,-75.5164 540.976,-82.4002 543.511,-75.8753"/>
</g>
<!-- Node8&#45;&gt;Node7 -->
<g id="edge8" class="edge"><title>Node8&#45;&gt;Node7</title>
<path fill="none" stroke="midnightblue" d="M950,-56.083C950,-49.0059 950,-38.8611 950,-29.9865"/>
<polygon fill="midnightblue" stroke="midnightblue" points="953.5,-29.751 950,-19.7511 946.5,-29.7511 953.5,-29.751"/>
</g>
<!-- Node10 -->
<g id="node10" class="node"><title>Node10</title>
<polygon fill="white" stroke="#bfbfbf" points="59,-0.5 59,-19.5 223,-19.5 223,-0.5 59,-0.5"/>
<text text-anchor="middle" x="141" y="-7.5" font-family="Helvetica,sans-Serif" font-size="10.00">SFML/Graphics/RenderTarget.hpp</text>
</g>
<!-- Node9&#45;&gt;Node10 -->
<g id="edge10" class="edge"><title>Node9&#45;&gt;Node10</title>
<path fill="none" stroke="midnightblue" d="M358.961,-56.4435C313.684,-47.0036 240.773,-31.802 191.894,-21.6111"/>
<polygon fill="midnightblue" stroke="midnightblue" points="192.351,-18.1312 181.847,-19.5164 190.922,-24.9839 192.351,-18.1312"/>
</g>
<!-- Node11 -->
<g id="node11" class="node"><title>Node11</title>
<polygon fill="white" stroke="#bfbfbf" points="525.5,-0.5 525.5,-19.5 674.5,-19.5 674.5,-0.5 525.5,-0.5"/>
<text text-anchor="middle" x="600" y="-7.5" font-family="Helvetica,sans-Serif" font-size="10.00">SFML/Graphics/Transform.hpp</text>
</g>
<!-- Node9&#45;&gt;Node11 -->
<g id="edge11" class="edge"><title>Node9&#45;&gt;Node11</title>
<path fill="none" stroke="midnightblue" d="M431.691,-56.4435C466.068,-47.1616 521.077,-32.3093 558.789,-22.127"/>
<polygon fill="midnightblue" stroke="midnightblue" points="559.716,-25.5022 568.458,-19.5164 557.891,-18.7442 559.716,-25.5022"/>
</g>
<!-- Node12 -->
<g id="node12" class="node"><title>Node12</title>
<polygon fill="white" stroke="#bfbfbf" points="241.5,-0.5 241.5,-19.5 376.5,-19.5 376.5,-0.5 241.5,-0.5"/>
<text text-anchor="middle" x="309" y="-7.5" font-family="Helvetica,sans-Serif" font-size="10.00">SFML/System/Vector2.hpp</text>
</g>
<!-- Node9&#45;&gt;Node12 -->
<g id="edge12" class="edge"><title>Node9&#45;&gt;Node12</title>
<path fill="none" stroke="midnightblue" d="M385.379,-56.324C371.051,-47.8215 348.987,-34.7288 332.251,-24.7975"/>
<polygon fill="midnightblue" stroke="midnightblue" points="333.97,-21.7478 323.584,-19.6545 330.398,-27.7677 333.97,-21.7478"/>
</g>
<!-- Node13 -->
<g id="node13" class="node"><title>Node13</title>
<polygon fill="white" stroke="#bfbfbf" points="395,-0.5 395,-19.5 437,-19.5 437,-0.5 395,-0.5"/>
<text text-anchor="middle" x="416" y="-7.5" font-family="Helvetica,sans-Serif" font-size="10.00">vector</text>
</g>
<!-- Node9&#45;&gt;Node13 -->
<g id="edge13" class="edge"><title>Node9&#45;&gt;Node13</title>
<path fill="none" stroke="midnightblue" d="M402.642,-56.083C404.786,-48.8486 407.879,-38.4087 410.549,-29.3968"/>
<polygon fill="midnightblue" stroke="midnightblue" points="413.922,-30.3334 413.407,-19.7511 407.21,-28.3447 413.922,-30.3334"/>
</g>
<!-- Node14 -->
<g id="node14" class="node"><title>Node14</title>
<polygon fill="white" stroke="#bfbfbf" points="455,-0.5 455,-19.5 507,-19.5 507,-0.5 455,-0.5"/>
<text text-anchor="middle" x="481" y="-7.5" font-family="Helvetica,sans-Serif" font-size="10.00">memory</text>
</g>
<!-- Node9&#45;&gt;Node14 -->
<g id="edge14" class="edge"><title>Node9&#45;&gt;Node14</title>
<path fill="none" stroke="midnightblue" d="M413.014,-56.324C425.532,-47.979 444.682,-35.2122 459.471,-25.3524"/>
<polygon fill="midnightblue" stroke="midnightblue" points="461.639,-28.1137 468.018,-19.6545 457.756,-22.2894 461.639,-28.1137"/>
</g>
<!-- Node16&#45;&gt;Node10 -->
<g id="edge18" class="edge"><title>Node16&#45;&gt;Node10</title>
<path fill="none" stroke="midnightblue" d="M154.823,-112.368C152.402,-94.617 146.818,-53.6664 143.536,-29.5974"/>
<polygon fill="midnightblue" stroke="midnightblue" points="146.991,-29.0268 142.172,-19.5914 140.055,-29.9726 146.991,-29.0268"/>
</g>
<!-- Node17 -->
<g id="node17" class="node"><title>Node17</title>
<polygon fill="white" stroke="#bfbfbf" points="0,-56.5 0,-75.5 128,-75.5 128,-56.5 0,-56.5"/>
<text text-anchor="middle" x="64" y="-63.5" font-family="Helvetica,sans-Serif" font-size="10.00">SFML/Graphics/View.hpp</text>
</g>
<!-- Node16&#45;&gt;Node17 -->
<g id="edge17" class="edge"><title>Node16&#45;&gt;Node17</title>
<path fill="none" stroke="midnightblue" d="M141.219,-112.324C126.733,-103.822 104.427,-90.7288 87.5068,-80.7975"/>
<polygon fill="midnightblue" stroke="midnightblue" points="89.1406,-77.6981 78.7447,-75.6545 85.5972,-83.735 89.1406,-77.6981"/>
</g>
<!-- Node18&#45;&gt;Node3 -->
<g id="edge20" class="edge"><title>Node18&#45;&gt;Node3</title>
<path fill="none" stroke="midnightblue" d="M788.014,-168.444C760.304,-159.32 716.248,-144.813 685.384,-134.651"/>
<polygon fill="midnightblue" stroke="midnightblue" points="686.458,-131.32 675.865,-131.516 684.268,-137.968 686.458,-131.32"/>
</g>
<!-- Node18&#45;&gt;Node7 -->
<g id="edge23" class="edge"><title>Node18&#45;&gt;Node7</title>
<path fill="none" stroke="midnightblue" d="M865.206,-168.452C915.677,-157.008 990.147,-131.323 1025,-76 1039.64,-52.7585 1006.96,-33.2565 980.221,-21.8496"/>
<polygon fill="midnightblue" stroke="midnightblue" points="981.319,-18.5187 970.736,-18.0215 978.699,-25.0099 981.319,-18.5187"/>
</g>
<!-- Node18&#45;&gt;Node8 -->
<g id="edge22" class="edge"><title>Node18&#45;&gt;Node8</title>
<path fill="none" stroke="midnightblue" d="M824.672,-168.368C847.711,-149.733 902.36,-105.532 931.289,-82.1338"/>
<polygon fill="midnightblue" stroke="midnightblue" points="933.804,-84.6014 939.378,-75.5914 929.402,-79.1589 933.804,-84.6014"/>
</g>
<!-- Node19 -->
<g id="node19" class="node"><title>Node19</title>
<polygon fill="white" stroke="#bfbfbf" points="780,-112.5 780,-131.5 848,-131.5 848,-112.5 780,-112.5"/>
<text text-anchor="middle" x="814" y="-119.5" font-family="Helvetica,sans-Serif" font-size="10.00">Ark/Ark.hpp</text>
</g>
<!-- Node18&#45;&gt;Node19 -->
<g id="edge21" class="edge"><title>Node18&#45;&gt;Node19</title>
<path fill="none" stroke="midnightblue" d="M814,-168.083C814,-161.006 814,-150.861 814,-141.986"/>
<polygon fill="midnightblue" stroke="midnightblue" points="817.5,-141.751 814,-131.751 810.5,-141.751 817.5,-141.751"/>
</g>
</g>
</svg>
