<?xml version="1.0" encoding="UTF-8" standalone="no"?>
<!DOCTYPE svg PUBLIC "-//W3C//DTD SVG 1.1//EN"
 "http://www.w3.org/Graphics/SVG/1.1/DTD/svg11.dtd">
<!-- Generated by graphviz version 2.38.0 (20140413.2041)
 -->
<!-- Title: include/Small/Graphics/Node.hpp Pages: 1 -->
<svg width="623pt" height="95pt"
 viewBox="0.00 0.00 623.00 95.00" xmlns="http://www.w3.org/2000/svg" xmlns:xlink="http://www.w3.org/1999/xlink">
<g id="graph0" class="graph" transform="scale(1 1) rotate(0) translate(4 91)">
<title>include/Small/Graphics/Node.hpp</title>
<polygon fill="white" stroke="none" points="-4,4 -4,-91 619,-91 619,4 -4,4"/>
<!-- Node1 -->
<g id="node1" class="node"><title>Node1</title>
<polygon fill="#bfbfbf" stroke="black" points="358.5,-56.5 358.5,-86.5 475.5,-86.5 475.5,-56.5 358.5,-56.5"/>
<text text-anchor="start" x="366.5" y="-74.5" font-family="Helvetica,sans-Serif" font-size="10.00">include/Small/Graphics</text>
<text text-anchor="middle" x="417" y="-63.5" font-family="Helvetica,sans-Serif" font-size="10.00">/Node.hpp</text>
</g>
<!-- Node2 -->
<g id="node2" class="node"><title>Node2</title>
<polygon fill="white" stroke="#bfbfbf" points="0,-0.5 0,-19.5 164,-19.5 164,-0.5 0,-0.5"/>
<text text-anchor="middle" x="82" y="-7.5" font-family="Helvetica,sans-Serif" font-size="10.00">SFML/Graphics/RenderTarget.hpp</text>
</g>
<!-- Node1&#45;&gt;Node2 -->
<g id="edge1" class="edge"><title>Node1&#45;&gt;Node2</title>
<path fill="none" stroke="midnightblue" d="M358.264,-60.0678C296.85,-49.1599 201.068,-32.1479 139.95,-21.2925"/>
<polygon fill="midnightblue" stroke="midnightblue" points="140.534,-17.8417 130.076,-19.5389 139.31,-24.7338 140.534,-17.8417"/>
</g>
<!-- Node3 -->
<g id="node3" class="node"><title>Node3</title>
<polygon fill="white" stroke="#bfbfbf" points="182.5,-0.5 182.5,-19.5 331.5,-19.5 331.5,-0.5 182.5,-0.5"/>
<text text-anchor="middle" x="257" y="-7.5" font-family="Helvetica,sans-Serif" font-size="10.00">SFML/Graphics/Transform.hpp</text>
</g>
<!-- Node1&#45;&gt;Node3 -->
<g id="edge2" class="edge"><title>Node1&#45;&gt;Node3</title>
<path fill="none" stroke="midnightblue" d="M379.082,-56.3993C351.877,-46.2826 315.596,-32.7905 289.67,-23.1493"/>
<polygon fill="midnightblue" stroke="midnightblue" points="290.874,-19.8629 280.281,-19.6578 288.434,-26.4239 290.874,-19.8629"/>
</g>
<!-- Node4 -->
<g id="node4" class="node"><title>Node4</title>
<polygon fill="white" stroke="#bfbfbf" points="349.5,-0.5 349.5,-19.5 484.5,-19.5 484.5,-0.5 349.5,-0.5"/>
<text text-anchor="middle" x="417" y="-7.5" font-family="Helvetica,sans-Serif" font-size="10.00">SFML/System/Vector2.hpp</text>
</g>
<!-- Node1&#45;&gt;Node4 -->
<g id="edge3" class="edge"><title>Node1&#45;&gt;Node4</title>
<path fill="none" stroke="midnightblue" d="M417,-56.3993C417,-48.4664 417,-38.458 417,-29.8583"/>
<polygon fill="midnightblue" stroke="midnightblue" points="420.5,-29.6577 417,-19.6578 413.5,-29.6578 420.5,-29.6577"/>
</g>
<!-- Node5 -->
<g id="node5" class="node"><title>Node5</title>
<polygon fill="white" stroke="#bfbfbf" points="503,-0.5 503,-19.5 545,-19.5 545,-0.5 503,-0.5"/>
<text text-anchor="middle" x="524" y="-7.5" font-family="Helvetica,sans-Serif" font-size="10.00">vector</text>
</g>
<!-- Node1&#45;&gt;Node5 -->
<g id="edge4" class="edge"><title>Node1&#45;&gt;Node5</title>
<path fill="none" stroke="midnightblue" d="M442.358,-56.3993C459.669,-46.7728 482.476,-34.0902 499.584,-24.5772"/>
<polygon fill="midnightblue" stroke="midnightblue" points="501.392,-27.5766 508.431,-19.6578 497.99,-21.4588 501.392,-27.5766"/>
</g>
<!-- Node6 -->
<g id="node6" class="node"><title>Node6</title>
<polygon fill="white" stroke="#bfbfbf" points="563,-0.5 563,-19.5 615,-19.5 615,-0.5 563,-0.5"/>
<text text-anchor="middle" x="589" y="-7.5" font-family="Helvetica,sans-Serif" font-size="10.00">memory</text>
</g>
<!-- Node1&#45;&gt;Node6 -->
<g id="edge5" class="edge"><title>Node1&#45;&gt;Node6</title>
<path fill="none" stroke="midnightblue" d="M457.762,-56.3993C487.224,-46.2074 526.589,-32.5898 554.499,-22.935"/>
<polygon fill="midnightblue" stroke="midnightblue" points="555.917,-26.1479 564.224,-19.5709 553.629,-19.5325 555.917,-26.1479"/>
</g>
</g>
</svg>
