<?xml version="1.0" encoding="UTF-8" standalone="no"?>
<!DOCTYPE svg PUBLIC "-//W3C//DTD SVG 1.1//EN"
 "http://www.w3.org/Graphics/SVG/1.1/DTD/svg11.dtd">
<!-- Generated by graphviz version 2.38.0 (20140413.2041)
 -->
<!-- Title: include/Small/Widgets.hpp Pages: 1 -->
<svg width="1122pt" height="252pt"
 viewBox="0.00 0.00 1121.50 252.00" xmlns="http://www.w3.org/2000/svg" xmlns:xlink="http://www.w3.org/1999/xlink">
<g id="graph0" class="graph" transform="scale(1 1) rotate(0) translate(4 248)">
<title>include/Small/Widgets.hpp</title>
<polygon fill="white" stroke="none" points="-4,4 -4,-248 1117.5,-248 1117.5,4 -4,4"/>
<!-- Node1 -->
<g id="node1" class="node"><title>Node1</title>
<polygon fill="#bfbfbf" stroke="black" points="414,-224.5 414,-243.5 547,-243.5 547,-224.5 414,-224.5"/>
<text text-anchor="middle" x="480.5" y="-231.5" font-family="Helvetica,sans-Serif" font-size="10.00">include/Small/Widgets.hpp</text>
</g>
<!-- Node2 -->
<g id="node2" class="node"><title>Node2</title>
<g id="a_node2"><a xlink:href="../../d3/db2/Base_8hpp.html" target="_top" xlink:title="Contain base classes to create interoperable SFML widgets. ">
<polygon fill="white" stroke="black" points="364,-112.5 364,-131.5 489,-131.5 489,-112.5 364,-112.5"/>
<text text-anchor="middle" x="426.5" y="-119.5" font-family="Helvetica,sans-Serif" font-size="10.00">Small/Widgets/Base.hpp</text>
</a>
</g>
</g>
<!-- Node1&#45;&gt;Node2 -->
<g id="edge1" class="edge"><title>Node1&#45;&gt;Node2</title>
<path fill="none" stroke="midnightblue" d="M479.018,-224.197C476.614,-211.322 471.135,-186.842 461.5,-168 456.216,-157.667 448.429,-147.358 441.54,-139.219"/>
<polygon fill="midnightblue" stroke="midnightblue" points="444.071,-136.797 434.83,-131.614 438.821,-141.428 444.071,-136.797"/>
</g>
<!-- Node12 -->
<g id="node12" class="node"><title>Node12</title>
<g id="a_node12"><a xlink:href="../../d4/df9/Layout_8hpp.html" target="_top" xlink:title="A widget acting as a collection of widgets. ">
<polygon fill="white" stroke="black" points="0,-168.5 0,-187.5 131,-187.5 131,-168.5 0,-168.5"/>
<text text-anchor="middle" x="65.5" y="-175.5" font-family="Helvetica,sans-Serif" font-size="10.00">Small/Widgets/Layout.hpp</text>
</a>
</g>
</g>
<!-- Node1&#45;&gt;Node12 -->
<g id="edge12" class="edge"><title>Node1&#45;&gt;Node12</title>
<path fill="none" stroke="midnightblue" d="M414.742,-224.444C340.373,-214.767 219.474,-199.035 141.224,-188.853"/>
<polygon fill="midnightblue" stroke="midnightblue" points="141.318,-185.336 130.95,-187.516 140.415,-192.278 141.318,-185.336"/>
</g>
<!-- Node13 -->
<g id="node13" class="node"><title>Node13</title>
<g id="a_node13"><a xlink:href="../../d4/db3/Button_8hpp.html" target="_top" xlink:title="Basic button widget. ">
<polygon fill="white" stroke="black" points="799,-168.5 799,-187.5 930,-187.5 930,-168.5 799,-168.5"/>
<text text-anchor="middle" x="864.5" y="-175.5" font-family="Helvetica,sans-Serif" font-size="10.00">Small/Widgets/Button.hpp</text>
</a>
</g>
</g>
<!-- Node1&#45;&gt;Node13 -->
<g id="edge14" class="edge"><title>Node1&#45;&gt;Node13</title>
<path fill="none" stroke="midnightblue" d="M541.346,-224.444C610.019,-214.786 721.571,-199.099 793.989,-188.916"/>
<polygon fill="midnightblue" stroke="midnightblue" points="794.524,-192.375 803.939,-187.516 793.549,-185.443 794.524,-192.375"/>
</g>
<!-- Node18 -->
<g id="node18" class="node"><title>Node18</title>
<g id="a_node18"><a xlink:href="../../d5/d28/CheckBox_8hpp.html" target="_top" xlink:title="Basic checkbox widget. ">
<polygon fill="white" stroke="black" points="149,-168.5 149,-187.5 296,-187.5 296,-168.5 149,-168.5"/>
<text text-anchor="middle" x="222.5" y="-175.5" font-family="Helvetica,sans-Serif" font-size="10.00">Small/Widgets/CheckBox.hpp</text>
</a>
</g>
</g>
<!-- Node1&#45;&gt;Node18 -->
<g id="edge20" class="edge"><title>Node1&#45;&gt;Node18</title>
<path fill="none" stroke="midnightblue" d="M439.619,-224.444C394.517,-215.004 321.888,-199.802 273.198,-189.611"/>
<polygon fill="midnightblue" stroke="midnightblue" points="273.695,-186.139 263.19,-187.516 272.26,-192.991 273.695,-186.139"/>
</g>
<!-- Node19 -->
<g id="node19" class="node"><title>Node19</title>
<g id="a_node19"><a xlink:href="../../d6/dc2/TextBox_8hpp.html" target="_top" xlink:title="Basic textbox widget. ">
<polygon fill="white" stroke="black" points="314.5,-168.5 314.5,-187.5 452.5,-187.5 452.5,-168.5 314.5,-168.5"/>
<text text-anchor="middle" x="383.5" y="-175.5" font-family="Helvetica,sans-Serif" font-size="10.00">Small/Widgets/TextBox.hpp</text>
</a>
</g>
</g>
<!-- Node1&#45;&gt;Node19 -->
<g id="edge22" class="edge"><title>Node1&#45;&gt;Node19</title>
<path fill="none" stroke="midnightblue" d="M464.915,-224.324C449.501,-215.743 425.688,-202.486 407.79,-192.522"/>
<polygon fill="midnightblue" stroke="midnightblue" points="409.486,-189.461 399.046,-187.655 406.081,-195.577 409.486,-189.461"/>
</g>
<!-- Node20 -->
<g id="node20" class="node"><title>Node20</title>
<g id="a_node20"><a xlink:href="../../da/d44/Label_8hpp.html" target="_top" xlink:title="Basic label widget. ">
<polygon fill="white" stroke="black" points="509,-168.5 509,-187.5 634,-187.5 634,-168.5 509,-168.5"/>
<text text-anchor="middle" x="571.5" y="-175.5" font-family="Helvetica,sans-Serif" font-size="10.00">Small/Widgets/Label.hpp</text>
</a>
</g>
</g>
<!-- Node1&#45;&gt;Node20 -->
<g id="edge24" class="edge"><title>Node1&#45;&gt;Node20</title>
<path fill="none" stroke="midnightblue" d="M495.121,-224.324C509.449,-215.822 531.513,-202.729 548.249,-192.797"/>
<polygon fill="midnightblue" stroke="midnightblue" points="550.102,-195.768 556.916,-187.655 546.53,-189.748 550.102,-195.768"/>
</g>
<!-- Node22 -->
<g id="node22" class="node"><title>Node22</title>
<g id="a_node22"><a xlink:href="../../d8/dde/Image_8hpp.html" target="_top" xlink:title="Basic image widget. ">
<polygon fill="white" stroke="black" points="652.5,-168.5 652.5,-187.5 780.5,-187.5 780.5,-168.5 652.5,-168.5"/>
<text text-anchor="middle" x="716.5" y="-175.5" font-family="Helvetica,sans-Serif" font-size="10.00">Small/Widgets/Image.hpp</text>
</a>
</g>
</g>
<!-- Node1&#45;&gt;Node22 -->
<g id="edge28" class="edge"><title>Node1&#45;&gt;Node22</title>
<path fill="none" stroke="midnightblue" d="M517.895,-224.444C558.892,-215.063 624.754,-199.993 669.284,-189.804"/>
<polygon fill="midnightblue" stroke="midnightblue" points="670.313,-193.159 679.28,-187.516 668.751,-186.335 670.313,-193.159"/>
</g>
<!-- Node3 -->
<g id="node3" class="node"><title>Node3</title>
<polygon fill="white" stroke="#bfbfbf" points="167,-56.5 167,-75.5 306,-75.5 306,-56.5 167,-56.5"/>
<text text-anchor="middle" x="236.5" y="-63.5" font-family="Helvetica,sans-Serif" font-size="10.00">SFML/Graphics/Texture.hpp</text>
</g>
<!-- Node2&#45;&gt;Node3 -->
<g id="edge2" class="edge"><title>Node2&#45;&gt;Node3</title>
<path fill="none" stroke="midnightblue" d="M396.394,-112.444C363.874,-103.201 311.921,-88.4356 276.109,-78.2572"/>
<polygon fill="midnightblue" stroke="midnightblue" points="277.041,-74.8837 266.465,-75.5164 275.127,-81.617 277.041,-74.8837"/>
</g>
<!-- Node4 -->
<g id="node4" class="node"><title>Node4</title>
<polygon fill="white" stroke="#bfbfbf" points="159.5,-0.5 159.5,-19.5 323.5,-19.5 323.5,-0.5 159.5,-0.5"/>
<text text-anchor="middle" x="241.5" y="-7.5" font-family="Helvetica,sans-Serif" font-size="10.00">SFML/Graphics/RenderTarget.hpp</text>
</g>
<!-- Node2&#45;&gt;Node4 -->
<g id="edge3" class="edge"><title>Node2&#45;&gt;Node4</title>
<path fill="none" stroke="midnightblue" d="M411.983,-112.368C380.102,-93.4121 303.728,-48.0006 264.949,-24.9424"/>
<polygon fill="midnightblue" stroke="midnightblue" points="266.333,-21.6938 255.949,-19.5914 262.756,-27.7106 266.333,-21.6938"/>
</g>
<!-- Node5 -->
<g id="node5" class="node"><title>Node5</title>
<polygon fill="white" stroke="#bfbfbf" points="508.5,-56.5 508.5,-75.5 630.5,-75.5 630.5,-56.5 508.5,-56.5"/>
<text text-anchor="middle" x="569.5" y="-63.5" font-family="Helvetica,sans-Serif" font-size="10.00">SFML/System/Time.hpp</text>
</g>
<!-- Node2&#45;&gt;Node5 -->
<g id="edge4" class="edge"><title>Node2&#45;&gt;Node5</title>
<path fill="none" stroke="midnightblue" d="M449.159,-112.444C472.902,-103.478 510.409,-89.314 537.238,-79.1827"/>
<polygon fill="midnightblue" stroke="midnightblue" points="538.829,-82.3235 546.947,-75.5164 536.356,-75.7749 538.829,-82.3235"/>
</g>
<!-- Node6 -->
<g id="node6" class="node"><title>Node6</title>
<polygon fill="white" stroke="#bfbfbf" points="648.5,-56.5 648.5,-75.5 774.5,-75.5 774.5,-56.5 648.5,-56.5"/>
<text text-anchor="middle" x="711.5" y="-63.5" font-family="Helvetica,sans-Serif" font-size="10.00">SFML/Window/Event.hpp</text>
</g>
<!-- Node2&#45;&gt;Node6 -->
<g id="edge5" class="edge"><title>Node2&#45;&gt;Node6</title>
<path fill="none" stroke="midnightblue" d="M471.659,-112.444C521.794,-102.944 602.72,-87.611 656.506,-77.4198"/>
<polygon fill="midnightblue" stroke="midnightblue" points="657.379,-80.8169 666.552,-75.5164 656.075,-73.9393 657.379,-80.8169"/>
</g>
<!-- Node7 -->
<g id="node7" class="node"><title>Node7</title>
<g id="a_node7"><a xlink:href="../../d7/dc6/Node_8hpp.html" target="_top" xlink:title="A scene graph node. ">
<polygon fill="white" stroke="black" points="362.5,-56.5 362.5,-75.5 490.5,-75.5 490.5,-56.5 362.5,-56.5"/>
<text text-anchor="middle" x="426.5" y="-63.5" font-family="Helvetica,sans-Serif" font-size="10.00">Small/Graphics/Node.hpp</text>
</a>
</g>
</g>
<!-- Node2&#45;&gt;Node7 -->
<g id="edge6" class="edge"><title>Node2&#45;&gt;Node7</title>
<path fill="none" stroke="midnightblue" d="M426.5,-112.083C426.5,-105.006 426.5,-94.8611 426.5,-85.9865"/>
<polygon fill="midnightblue" stroke="midnightblue" points="430,-85.751 426.5,-75.7511 423,-85.7511 430,-85.751"/>
</g>
<!-- Node7&#45;&gt;Node4 -->
<g id="edge7" class="edge"><title>Node7&#45;&gt;Node4</title>
<path fill="none" stroke="midnightblue" d="M397.186,-56.4435C365.658,-47.2406 315.369,-32.5617 280.514,-22.3879"/>
<polygon fill="midnightblue" stroke="midnightblue" points="281.257,-18.9587 270.677,-19.5164 279.295,-25.6783 281.257,-18.9587"/>
</g>
<!-- Node8 -->
<g id="node8" class="node"><title>Node8</title>
<polygon fill="white" stroke="#bfbfbf" points="412,-0.5 412,-19.5 561,-19.5 561,-0.5 412,-0.5"/>
<text text-anchor="middle" x="486.5" y="-7.5" font-family="Helvetica,sans-Serif" font-size="10.00">SFML/Graphics/Transform.hpp</text>
</g>
<!-- Node7&#45;&gt;Node8 -->
<g id="edge8" class="edge"><title>Node7&#45;&gt;Node8</title>
<path fill="none" stroke="midnightblue" d="M436.14,-56.324C445.01,-48.3414 458.375,-36.3128 469.108,-26.6529"/>
<polygon fill="midnightblue" stroke="midnightblue" points="471.593,-29.1251 476.685,-19.8339 466.91,-23.922 471.593,-29.1251"/>
</g>
<!-- Node9 -->
<g id="node9" class="node"><title>Node9</title>
<polygon fill="white" stroke="#bfbfbf" points="579,-0.5 579,-19.5 714,-19.5 714,-0.5 579,-0.5"/>
<text text-anchor="middle" x="646.5" y="-7.5" font-family="Helvetica,sans-Serif" font-size="10.00">SFML/System/Vector2.hpp</text>
</g>
<!-- Node7&#45;&gt;Node9 -->
<g id="edge9" class="edge"><title>Node7&#45;&gt;Node9</title>
<path fill="none" stroke="midnightblue" d="M461.36,-56.4435C499.416,-47.1024 560.458,-32.1194 601.96,-21.9326"/>
<polygon fill="midnightblue" stroke="midnightblue" points="602.926,-25.2994 611.803,-19.5164 601.257,-18.5012 602.926,-25.2994"/>
</g>
<!-- Node10 -->
<g id="node10" class="node"><title>Node10</title>
<polygon fill="white" stroke="#bfbfbf" points="732.5,-0.5 732.5,-19.5 774.5,-19.5 774.5,-0.5 732.5,-0.5"/>
<text text-anchor="middle" x="753.5" y="-7.5" font-family="Helvetica,sans-Serif" font-size="10.00">vector</text>
</g>
<!-- Node7&#45;&gt;Node10 -->
<g id="edge10" class="edge"><title>Node7&#45;&gt;Node10</title>
<path fill="none" stroke="midnightblue" d="M489.016,-56.4827C562.294,-46.3254 679.224,-29.5281 722.5,-20 722.599,-19.9782 722.699,-19.9562 722.798,-19.9341"/>
<polygon fill="midnightblue" stroke="midnightblue" points="723.398,-23.3919 732.25,-17.5691 721.699,-16.6012 723.398,-23.3919"/>
</g>
<!-- Node11 -->
<g id="node11" class="node"><title>Node11</title>
<polygon fill="white" stroke="#bfbfbf" points="341.5,-0.5 341.5,-19.5 393.5,-19.5 393.5,-0.5 341.5,-0.5"/>
<text text-anchor="middle" x="367.5" y="-7.5" font-family="Helvetica,sans-Serif" font-size="10.00">memory</text>
</g>
<!-- Node7&#45;&gt;Node11 -->
<g id="edge11" class="edge"><title>Node7&#45;&gt;Node11</title>
<path fill="none" stroke="midnightblue" d="M417.021,-56.324C408.299,-48.3414 395.157,-36.3128 384.602,-26.6529"/>
<polygon fill="midnightblue" stroke="midnightblue" points="386.892,-24.0036 377.152,-19.8339 382.166,-29.1674 386.892,-24.0036"/>
</g>
<!-- Node12&#45;&gt;Node2 -->
<g id="edge13" class="edge"><title>Node12&#45;&gt;Node2</title>
<path fill="none" stroke="midnightblue" d="M122.702,-168.444C186.997,-158.826 291.275,-143.228 359.375,-133.041"/>
<polygon fill="midnightblue" stroke="midnightblue" points="360.194,-136.457 369.566,-131.516 359.158,-129.534 360.194,-136.457"/>
</g>
<!-- Node13&#45;&gt;Node2 -->
<g id="edge15" class="edge"><title>Node13&#45;&gt;Node2</title>
<path fill="none" stroke="midnightblue" d="M798.857,-169.033C727.573,-160.363 610.058,-146.016 499.233,-132.212"/>
<polygon fill="midnightblue" stroke="midnightblue" points="499.574,-128.728 489.218,-130.964 498.708,-135.674 499.574,-128.728"/>
</g>
<!-- Node14 -->
<g id="node14" class="node"><title>Node14</title>
<polygon fill="white" stroke="#bfbfbf" points="566,-112.5 566,-131.5 691,-131.5 691,-112.5 566,-112.5"/>
<text text-anchor="middle" x="628.5" y="-119.5" font-family="Helvetica,sans-Serif" font-size="10.00">SFML/Graphics/Text.hpp</text>
</g>
<!-- Node13&#45;&gt;Node14 -->
<g id="edge16" class="edge"><title>Node13&#45;&gt;Node14</title>
<path fill="none" stroke="midnightblue" d="M827.105,-168.444C786.108,-159.063 720.246,-143.993 675.716,-133.804"/>
<polygon fill="midnightblue" stroke="midnightblue" points="676.249,-130.335 665.72,-131.516 674.687,-137.159 676.249,-130.335"/>
</g>
<!-- Node15 -->
<g id="node15" class="node"><title>Node15</title>
<polygon fill="white" stroke="#bfbfbf" points="709.5,-112.5 709.5,-131.5 841.5,-131.5 841.5,-112.5 709.5,-112.5"/>
<text text-anchor="middle" x="775.5" y="-119.5" font-family="Helvetica,sans-Serif" font-size="10.00">SFML/Graphics/Sprite.hpp</text>
</g>
<!-- Node13&#45;&gt;Node15 -->
<g id="edge17" class="edge"><title>Node13&#45;&gt;Node15</title>
<path fill="none" stroke="midnightblue" d="M850.201,-168.324C836.317,-159.9 815.008,-146.971 798.696,-137.074"/>
<polygon fill="midnightblue" stroke="midnightblue" points="800.129,-133.85 789.764,-131.655 796.498,-139.834 800.129,-133.85"/>
</g>
<!-- Node16 -->
<g id="node16" class="node"><title>Node16</title>
<polygon fill="white" stroke="#bfbfbf" points="859.5,-112.5 859.5,-131.5 1037.5,-131.5 1037.5,-112.5 859.5,-112.5"/>
<text text-anchor="middle" x="948.5" y="-119.5" font-family="Helvetica,sans-Serif" font-size="10.00">SFML/Graphics/RectangleShape.hpp</text>
</g>
<!-- Node13&#45;&gt;Node16 -->
<g id="edge18" class="edge"><title>Node13&#45;&gt;Node16</title>
<path fill="none" stroke="midnightblue" d="M877.996,-168.324C891.1,-159.9 911.212,-146.971 926.607,-137.074"/>
<polygon fill="midnightblue" stroke="midnightblue" points="928.518,-140.006 935.037,-131.655 924.733,-134.118 928.518,-140.006"/>
</g>
<!-- Node17 -->
<g id="node17" class="node"><title>Node17</title>
<polygon fill="white" stroke="#bfbfbf" points="1055.5,-112.5 1055.5,-131.5 1113.5,-131.5 1113.5,-112.5 1055.5,-112.5"/>
<text text-anchor="middle" x="1084.5" y="-119.5" font-family="Helvetica,sans-Serif" font-size="10.00">functional</text>
</g>
<!-- Node13&#45;&gt;Node17 -->
<g id="edge19" class="edge"><title>Node13&#45;&gt;Node17</title>
<path fill="none" stroke="midnightblue" d="M899.36,-168.444C939.207,-158.663 1004.25,-142.697 1045.68,-132.527"/>
<polygon fill="midnightblue" stroke="midnightblue" points="1046.55,-135.92 1055.42,-130.137 1044.88,-129.122 1046.55,-135.92"/>
</g>
<!-- Node18&#45;&gt;Node2 -->
<g id="edge21" class="edge"><title>Node18&#45;&gt;Node2</title>
<path fill="none" stroke="midnightblue" d="M254.824,-168.444C289.889,-159.162 345.998,-144.309 384.465,-134.127"/>
<polygon fill="midnightblue" stroke="midnightblue" points="385.555,-137.459 394.327,-131.516 383.764,-130.692 385.555,-137.459"/>
</g>
<!-- Node19&#45;&gt;Node2 -->
<g id="edge23" class="edge"><title>Node19&#45;&gt;Node2</title>
<path fill="none" stroke="midnightblue" d="M390.601,-168.083C396.737,-160.377 405.77,-149.033 413.239,-139.653"/>
<polygon fill="midnightblue" stroke="midnightblue" points="416.04,-141.754 419.532,-131.751 410.564,-137.394 416.04,-141.754"/>
</g>
<!-- Node20&#45;&gt;Node2 -->
<g id="edge25" class="edge"><title>Node20&#45;&gt;Node2</title>
<path fill="none" stroke="midnightblue" d="M548.524,-168.444C524.343,-159.438 486.082,-145.189 458.854,-135.049"/>
<polygon fill="midnightblue" stroke="midnightblue" points="459.961,-131.727 449.368,-131.516 457.518,-138.286 459.961,-131.727"/>
</g>
<!-- Node20&#45;&gt;Node14 -->
<g id="edge26" class="edge"><title>Node20&#45;&gt;Node14</title>
<path fill="none" stroke="midnightblue" d="M580.658,-168.324C589.001,-160.42 601.532,-148.548 611.677,-138.938"/>
<polygon fill="midnightblue" stroke="midnightblue" points="614.323,-141.252 619.175,-131.834 609.509,-136.171 614.323,-141.252"/>
</g>
<!-- Node21 -->
<g id="node21" class="node"><title>Node21</title>
<polygon fill="white" stroke="#bfbfbf" points="507,-112.5 507,-131.5 548,-131.5 548,-112.5 507,-112.5"/>
<text text-anchor="middle" x="527.5" y="-119.5" font-family="Helvetica,sans-Serif" font-size="10.00">string</text>
</g>
<!-- Node20&#45;&gt;Node21 -->
<g id="edge27" class="edge"><title>Node20&#45;&gt;Node21</title>
<path fill="none" stroke="midnightblue" d="M564.234,-168.083C557.955,-160.377 548.712,-149.033 541.069,-139.653"/>
<polygon fill="midnightblue" stroke="midnightblue" points="543.661,-137.293 534.631,-131.751 538.234,-141.714 543.661,-137.293"/>
</g>
<!-- Node22&#45;&gt;Node2 -->
<g id="edge29" class="edge"><title>Node22&#45;&gt;Node2</title>
<path fill="none" stroke="midnightblue" d="M670.549,-168.444C619.429,-158.925 536.846,-143.547 482.117,-133.356"/>
<polygon fill="midnightblue" stroke="midnightblue" points="482.708,-129.906 472.236,-131.516 481.427,-136.788 482.708,-129.906"/>
</g>
<!-- Node22&#45;&gt;Node15 -->
<g id="edge30" class="edge"><title>Node22&#45;&gt;Node15</title>
<path fill="none" stroke="midnightblue" d="M725.979,-168.324C734.701,-160.341 747.843,-148.313 758.398,-138.653"/>
<polygon fill="midnightblue" stroke="midnightblue" points="760.834,-141.167 765.848,-131.834 756.108,-136.004 760.834,-141.167"/>
</g>
</g>
</svg>
