<?xml version="1.0" encoding="UTF-8" standalone="no"?>
<!DOCTYPE svg PUBLIC "-//W3C//DTD SVG 1.1//EN"
 "http://www.w3.org/Graphics/SVG/1.1/DTD/svg11.dtd">
<!-- Generated by graphviz version 2.38.0 (20140413.2041)
 -->
<!-- Title: C:/Users/Folaefolc/Documents/Code/Big&#45;Projects/ScriptWizards/SmallGameLibrary/include/Small/GameObjects/Actor.hpp Pages: 1 -->
<svg width="706pt" height="184pt"
 viewBox="0.00 0.00 706.00 184.00" xmlns="http://www.w3.org/2000/svg" xmlns:xlink="http://www.w3.org/1999/xlink">
<g id="graph0" class="graph" transform="scale(1 1) rotate(0) translate(4 180)">
<title>C:/Users/Folaefolc/Documents/Code/Big&#45;Projects/ScriptWizards/SmallGameLibrary/include/Small/GameObjects/Actor.hpp</title>
<polygon fill="white" stroke="none" points="-4,4 -4,-180 702,-180 702,4 -4,4"/>
<!-- Node1 -->
<g id="node1" class="node"><title>Node1</title>
<polygon fill="#bfbfbf" stroke="black" points="218,-112.5 218,-175.5 370,-175.5 370,-112.5 218,-112.5"/>
<text text-anchor="start" x="226" y="-163.5" font-family="Helvetica,sans-Serif" font-size="10.00">C:/Users/Folaefolc</text>
<text text-anchor="start" x="226" y="-152.5" font-family="Helvetica,sans-Serif" font-size="10.00">/Documents/Code/Big</text>
<text text-anchor="start" x="226" y="-141.5" font-family="Helvetica,sans-Serif" font-size="10.00">&#45;Projects/ScriptWizards</text>
<text text-anchor="start" x="226" y="-130.5" font-family="Helvetica,sans-Serif" font-size="10.00">/SmallGameLibrary/include</text>
<text text-anchor="middle" x="294" y="-119.5" font-family="Helvetica,sans-Serif" font-size="10.00">/Small/GameObjects/Actor.hpp</text>
</g>
<!-- Node2 -->
<g id="node2" class="node"><title>Node2</title>
<polygon fill="white" stroke="#bfbfbf" points="0,-56.5 0,-75.5 122,-75.5 122,-56.5 0,-56.5"/>
<text text-anchor="middle" x="61" y="-63.5" font-family="Helvetica,sans-Serif" font-size="10.00">SFML/System/Time.hpp</text>
</g>
<!-- Node1&#45;&gt;Node2 -->
<g id="edge1" class="edge"><title>Node1&#45;&gt;Node2</title>
<path fill="none" stroke="midnightblue" d="M217.707,-118.115C177.109,-104.872 129.085,-89.2081 97.0005,-78.7426"/>
<polygon fill="midnightblue" stroke="midnightblue" points="97.7654,-75.3107 87.173,-75.5371 95.5946,-81.9656 97.7654,-75.3107"/>
</g>
<!-- Node3 -->
<g id="node3" class="node"><title>Node3</title>
<polygon fill="white" stroke="#bfbfbf" points="140,-56.5 140,-75.5 266,-75.5 266,-56.5 140,-56.5"/>
<text text-anchor="middle" x="203" y="-63.5" font-family="Helvetica,sans-Serif" font-size="10.00">SFML/Window/Event.hpp</text>
</g>
<!-- Node1&#45;&gt;Node3 -->
<g id="edge2" class="edge"><title>Node1&#45;&gt;Node3</title>
<path fill="none" stroke="midnightblue" d="M257.249,-112.307C244.917,-102.008 231.694,-90.9643 221.39,-82.359"/>
<polygon fill="midnightblue" stroke="midnightblue" points="223.424,-79.4976 213.506,-75.7738 218.937,-84.8704 223.424,-79.4976"/>
</g>
<!-- Node4 -->
<g id="node4" class="node"><title>Node4</title>
<polygon fill="white" stroke="#bfbfbf" points="82.5,-0.5 82.5,-19.5 231.5,-19.5 231.5,-0.5 82.5,-0.5"/>
<text text-anchor="middle" x="157" y="-7.5" font-family="Helvetica,sans-Serif" font-size="10.00">SFML/Graphics/Transform.hpp</text>
</g>
<!-- Node1&#45;&gt;Node4 -->
<g id="edge3" class="edge"><title>Node1&#45;&gt;Node4</title>
<path fill="none" stroke="midnightblue" d="M294.316,-112.425C292.949,-94.1137 288.314,-71.4664 275,-56 260.864,-39.578 240.056,-29.1289 219.835,-22.4885"/>
<polygon fill="midnightblue" stroke="midnightblue" points="220.571,-19.0551 209.987,-19.5251 218.554,-25.7582 220.571,-19.0551"/>
</g>
<!-- Node5 -->
<g id="node5" class="node"><title>Node5</title>
<polygon fill="white" stroke="#bfbfbf" points="250,-0.5 250,-19.5 414,-19.5 414,-0.5 250,-0.5"/>
<text text-anchor="middle" x="332" y="-7.5" font-family="Helvetica,sans-Serif" font-size="10.00">SFML/Graphics/RenderTarget.hpp</text>
</g>
<!-- Node1&#45;&gt;Node5 -->
<g id="edge4" class="edge"><title>Node1&#45;&gt;Node5</title>
<path fill="none" stroke="midnightblue" d="M302.813,-112.385C310.207,-86.702 320.522,-50.8701 326.703,-29.3991"/>
<polygon fill="midnightblue" stroke="midnightblue" points="330.118,-30.188 329.521,-19.61 323.391,-28.2514 330.118,-30.188"/>
</g>
<!-- Node6 -->
<g id="node6" class="node"><title>Node6</title>
<g id="a_node6"><a xlink:href="../../d7/dc6/Node_8hpp.html" target="_top" xlink:title="A scene graph node. ">
<polygon fill="white" stroke="black" points="398,-56.5 398,-75.5 526,-75.5 526,-56.5 398,-56.5"/>
<text text-anchor="middle" x="462" y="-63.5" font-family="Helvetica,sans-Serif" font-size="10.00">Small/Graphics/Node.hpp</text>
</a>
</g>
</g>
<!-- Node1&#45;&gt;Node6 -->
<g id="edge5" class="edge"><title>Node1&#45;&gt;Node6</title>
<path fill="none" stroke="midnightblue" d="M361.848,-112.307C386.933,-100.959 414.016,-88.7072 433.685,-79.809"/>
<polygon fill="midnightblue" stroke="midnightblue" points="435.306,-82.9173 442.975,-75.6067 432.421,-76.5396 435.306,-82.9173"/>
</g>
<!-- Node6&#45;&gt;Node4 -->
<g id="edge7" class="edge"><title>Node6&#45;&gt;Node4</title>
<path fill="none" stroke="midnightblue" d="M413.672,-56.4435C359.796,-46.9049 272.693,-31.4834 215.136,-21.293"/>
<polygon fill="midnightblue" stroke="midnightblue" points="215.559,-17.8135 205.102,-19.5164 214.339,-24.7063 215.559,-17.8135"/>
</g>
<!-- Node6&#45;&gt;Node5 -->
<g id="edge6" class="edge"><title>Node6&#45;&gt;Node5</title>
<path fill="none" stroke="midnightblue" d="M441.401,-56.4435C420.007,-47.5566 386.319,-33.5632 361.976,-23.4514"/>
<polygon fill="midnightblue" stroke="midnightblue" points="363.08,-20.1203 352.503,-19.5164 360.395,-26.5848 363.08,-20.1203"/>
</g>
<!-- Node7 -->
<g id="node7" class="node"><title>Node7</title>
<polygon fill="white" stroke="#bfbfbf" points="432.5,-0.5 432.5,-19.5 567.5,-19.5 567.5,-0.5 432.5,-0.5"/>
<text text-anchor="middle" x="500" y="-7.5" font-family="Helvetica,sans-Serif" font-size="10.00">SFML/System/Vector2.hpp</text>
</g>
<!-- Node6&#45;&gt;Node7 -->
<g id="edge8" class="edge"><title>Node6&#45;&gt;Node7</title>
<path fill="none" stroke="midnightblue" d="M468.275,-56.083C473.642,-48.4554 481.518,-37.2645 488.079,-27.9408"/>
<polygon fill="midnightblue" stroke="midnightblue" points="490.949,-29.9434 493.842,-19.7511 485.225,-25.9149 490.949,-29.9434"/>
</g>
<!-- Node8 -->
<g id="node8" class="node"><title>Node8</title>
<polygon fill="white" stroke="#bfbfbf" points="586,-0.5 586,-19.5 628,-19.5 628,-0.5 586,-0.5"/>
<text text-anchor="middle" x="607" y="-7.5" font-family="Helvetica,sans-Serif" font-size="10.00">vector</text>
</g>
<!-- Node6&#45;&gt;Node8 -->
<g id="edge9" class="edge"><title>Node6&#45;&gt;Node8</title>
<path fill="none" stroke="midnightblue" d="M484.976,-56.4435C509.584,-47.2792 548.773,-32.6846 576.077,-22.5161"/>
<polygon fill="midnightblue" stroke="midnightblue" points="577.4,-25.7583 585.55,-18.9883 574.957,-19.1984 577.4,-25.7583"/>
</g>
<!-- Node9 -->
<g id="node9" class="node"><title>Node9</title>
<polygon fill="white" stroke="#bfbfbf" points="646,-0.5 646,-19.5 698,-19.5 698,-0.5 646,-0.5"/>
<text text-anchor="middle" x="672" y="-7.5" font-family="Helvetica,sans-Serif" font-size="10.00">memory</text>
</g>
<!-- Node6&#45;&gt;Node9 -->
<g id="edge10" class="edge"><title>Node6&#45;&gt;Node9</title>
<path fill="none" stroke="midnightblue" d="M495.275,-56.4435C533.683,-46.5674 596.615,-30.3846 636.1,-20.2314"/>
<polygon fill="midnightblue" stroke="midnightblue" points="637.034,-23.6053 645.847,-17.7251 635.29,-16.8258 637.034,-23.6053"/>
</g>
</g>
</svg>
