<?xml version="1.0" encoding="UTF-8" standalone="no"?>
<!DOCTYPE svg PUBLIC "-//W3C//DTD SVG 1.1//EN"
 "http://www.w3.org/Graphics/SVG/1.1/DTD/svg11.dtd">
<!-- Generated by graphviz version 2.38.0 (20140413.2041)
 -->
<!-- Title: include/Small/GameObjects/Actor.hpp Pages: 1 -->
<svg width="706pt" height="151pt"
 viewBox="0.00 0.00 706.00 151.00" xmlns="http://www.w3.org/2000/svg" xmlns:xlink="http://www.w3.org/1999/xlink">
<g id="graph0" class="graph" transform="scale(1 1) rotate(0) translate(4 147)">
<title>include/Small/GameObjects/Actor.hpp</title>
<polygon fill="white" stroke="none" points="-4,4 -4,-147 702,-147 702,4 -4,4"/>
<!-- Node1 -->
<g id="node1" class="node"><title>Node1</title>
<polygon fill="#bfbfbf" stroke="black" points="225,-112.5 225,-142.5 363,-142.5 363,-112.5 225,-112.5"/>
<text text-anchor="start" x="233" y="-130.5" font-family="Helvetica,sans-Serif" font-size="10.00">include/Small/GameObjects</text>
<text text-anchor="middle" x="294" y="-119.5" font-family="Helvetica,sans-Serif" font-size="10.00">/Actor.hpp</text>
</g>
<!-- Node2 -->
<g id="node2" class="node"><title>Node2</title>
<polygon fill="white" stroke="#bfbfbf" points="0,-56.5 0,-75.5 122,-75.5 122,-56.5 0,-56.5"/>
<text text-anchor="middle" x="61" y="-63.5" font-family="Helvetica,sans-Serif" font-size="10.00">SFML/System/Time.hpp</text>
</g>
<!-- Node1&#45;&gt;Node2 -->
<g id="edge1" class="edge"><title>Node1&#45;&gt;Node2</title>
<path fill="none" stroke="midnightblue" d="M239.077,-112.475C197.827,-101.941 142.122,-87.7158 104.067,-77.9978"/>
<polygon fill="midnightblue" stroke="midnightblue" points="104.866,-74.5895 94.3107,-75.5064 103.134,-81.3719 104.866,-74.5895"/>
</g>
<!-- Node3 -->
<g id="node3" class="node"><title>Node3</title>
<polygon fill="white" stroke="#bfbfbf" points="140,-56.5 140,-75.5 266,-75.5 266,-56.5 140,-56.5"/>
<text text-anchor="middle" x="203" y="-63.5" font-family="Helvetica,sans-Serif" font-size="10.00">SFML/Window/Event.hpp</text>
</g>
<!-- Node1&#45;&gt;Node3 -->
<g id="edge2" class="edge"><title>Node1&#45;&gt;Node3</title>
<path fill="none" stroke="midnightblue" d="M272.434,-112.399C258.12,-103.04 239.388,-90.7924 224.989,-81.3771"/>
<polygon fill="midnightblue" stroke="midnightblue" points="226.526,-78.2009 216.241,-75.6578 222.696,-84.0597 226.526,-78.2009"/>
</g>
<!-- Node4 -->
<g id="node4" class="node"><title>Node4</title>
<polygon fill="white" stroke="#bfbfbf" points="82.5,-0.5 82.5,-19.5 231.5,-19.5 231.5,-0.5 82.5,-0.5"/>
<text text-anchor="middle" x="157" y="-7.5" font-family="Helvetica,sans-Serif" font-size="10.00">SFML/Graphics/Transform.hpp</text>
</g>
<!-- Node1&#45;&gt;Node4 -->
<g id="edge3" class="edge"><title>Node1&#45;&gt;Node4</title>
<path fill="none" stroke="midnightblue" d="M293.838,-112.275C292.909,-96.6205 289.109,-71.6121 275,-56 260.152,-39.5698 238.652,-29.0995 218.06,-22.4439"/>
<polygon fill="midnightblue" stroke="midnightblue" points="218.958,-19.0595 208.375,-19.5602 216.96,-25.7684 218.958,-19.0595"/>
</g>
<!-- Node5 -->
<g id="node5" class="node"><title>Node5</title>
<polygon fill="white" stroke="#bfbfbf" points="250,-0.5 250,-19.5 414,-19.5 414,-0.5 250,-0.5"/>
<text text-anchor="middle" x="332" y="-7.5" font-family="Helvetica,sans-Serif" font-size="10.00">SFML/Graphics/RenderTarget.hpp</text>
</g>
<!-- Node1&#45;&gt;Node5 -->
<g id="edge4" class="edge"><title>Node1&#45;&gt;Node5</title>
<path fill="none" stroke="midnightblue" d="M298.66,-112.337C305.537,-91.4325 318.409,-52.3096 325.989,-29.2696"/>
<polygon fill="midnightblue" stroke="midnightblue" points="329.347,-30.2624 329.148,-19.6695 322.698,-28.0747 329.347,-30.2624"/>
</g>
<!-- Node6 -->
<g id="node6" class="node"><title>Node6</title>
<g id="a_node6"><a xlink:href="../../d7/dc6/Node_8hpp.html" target="_top" xlink:title="A scene graph node. ">
<polygon fill="white" stroke="black" points="398,-56.5 398,-75.5 526,-75.5 526,-56.5 398,-56.5"/>
<text text-anchor="middle" x="462" y="-63.5" font-family="Helvetica,sans-Serif" font-size="10.00">Small/Graphics/Node.hpp</text>
</a>
</g>
</g>
<!-- Node1&#45;&gt;Node6 -->
<g id="edge5" class="edge"><title>Node1&#45;&gt;Node6</title>
<path fill="none" stroke="midnightblue" d="M333.814,-112.399C362.505,-102.238 400.81,-88.6716 428.055,-79.0221"/>
<polygon fill="midnightblue" stroke="midnightblue" points="429.297,-82.2955 437.555,-75.6578 426.96,-75.6971 429.297,-82.2955"/>
</g>
<!-- Node6&#45;&gt;Node4 -->
<g id="edge7" class="edge"><title>Node6&#45;&gt;Node4</title>
<path fill="none" stroke="midnightblue" d="M413.672,-56.4435C359.796,-46.9049 272.693,-31.4834 215.136,-21.293"/>
<polygon fill="midnightblue" stroke="midnightblue" points="215.559,-17.8135 205.102,-19.5164 214.339,-24.7063 215.559,-17.8135"/>
</g>
<!-- Node6&#45;&gt;Node5 -->
<g id="edge6" class="edge"><title>Node6&#45;&gt;Node5</title>
<path fill="none" stroke="midnightblue" d="M441.401,-56.4435C420.007,-47.5566 386.319,-33.5632 361.976,-23.4514"/>
<polygon fill="midnightblue" stroke="midnightblue" points="363.08,-20.1203 352.503,-19.5164 360.395,-26.5848 363.08,-20.1203"/>
</g>
<!-- Node7 -->
<g id="node7" class="node"><title>Node7</title>
<polygon fill="white" stroke="#bfbfbf" points="432.5,-0.5 432.5,-19.5 567.5,-19.5 567.5,-0.5 432.5,-0.5"/>
<text text-anchor="middle" x="500" y="-7.5" font-family="Helvetica,sans-Serif" font-size="10.00">SFML/System/Vector2.hpp</text>
</g>
<!-- Node6&#45;&gt;Node7 -->
<g id="edge8" class="edge"><title>Node6&#45;&gt;Node7</title>
<path fill="none" stroke="midnightblue" d="M468.275,-56.083C473.642,-48.4554 481.518,-37.2645 488.079,-27.9408"/>
<polygon fill="midnightblue" stroke="midnightblue" points="490.949,-29.9434 493.842,-19.7511 485.225,-25.9149 490.949,-29.9434"/>
</g>
<!-- Node8 -->
<g id="node8" class="node"><title>Node8</title>
<polygon fill="white" stroke="#bfbfbf" points="586,-0.5 586,-19.5 628,-19.5 628,-0.5 586,-0.5"/>
<text text-anchor="middle" x="607" y="-7.5" font-family="Helvetica,sans-Serif" font-size="10.00">vector</text>
</g>
<!-- Node6&#45;&gt;Node8 -->
<g id="edge9" class="edge"><title>Node6&#45;&gt;Node8</title>
<path fill="none" stroke="midnightblue" d="M484.976,-56.4435C509.584,-47.2792 548.773,-32.6846 576.077,-22.5161"/>
<polygon fill="midnightblue" stroke="midnightblue" points="577.4,-25.7583 585.55,-18.9883 574.957,-19.1984 577.4,-25.7583"/>
</g>
<!-- Node9 -->
<g id="node9" class="node"><title>Node9</title>
<polygon fill="white" stroke="#bfbfbf" points="646,-0.5 646,-19.5 698,-19.5 698,-0.5 646,-0.5"/>
<text text-anchor="middle" x="672" y="-7.5" font-family="Helvetica,sans-Serif" font-size="10.00">memory</text>
</g>
<!-- Node6&#45;&gt;Node9 -->
<g id="edge10" class="edge"><title>Node6&#45;&gt;Node9</title>
<path fill="none" stroke="midnightblue" d="M495.275,-56.4435C533.683,-46.5674 596.615,-30.3846 636.1,-20.2314"/>
<polygon fill="midnightblue" stroke="midnightblue" points="637.034,-23.6053 645.847,-17.7251 635.29,-16.8258 637.034,-23.6053"/>
</g>
</g>
</svg>
