<?xml version="1.0" encoding="UTF-8" standalone="no"?>
<!DOCTYPE svg PUBLIC "-//W3C//DTD SVG 1.1//EN"
 "http://www.w3.org/Graphics/SVG/1.1/DTD/svg11.dtd">
<!-- Generated by graphviz version 2.38.0 (20140413.2041)
 -->
<!-- Title: include/Small/Graphics/Animation.hpp Pages: 1 -->
<svg width="144pt" height="151pt"
 viewBox="0.00 0.00 144.00 151.00" xmlns="http://www.w3.org/2000/svg" xmlns:xlink="http://www.w3.org/1999/xlink">
<g id="graph0" class="graph" transform="scale(1 1) rotate(0) translate(4 147)">
<title>include/Small/Graphics/Animation.hpp</title>
<polygon fill="white" stroke="none" points="-4,4 -4,-147 140,-147 140,4 -4,4"/>
<!-- Node1 -->
<g id="node1" class="node"><title>Node1</title>
<polygon fill="#bfbfbf" stroke="black" points="9.5,-112.5 9.5,-142.5 126.5,-142.5 126.5,-112.5 9.5,-112.5"/>
<text text-anchor="start" x="17.5" y="-130.5" font-family="Helvetica,sans-Serif" font-size="10.00">include/Small/Graphics</text>
<text text-anchor="middle" x="68" y="-119.5" font-family="Helvetica,sans-Serif" font-size="10.00">/Animation.hpp</text>
</g>
<!-- Node2 -->
<g id="node2" class="node"><title>Node2</title>
<g id="a_node2"><a xlink:href="../../dc/da8/Graphics_8hpp.html" target="_top" xlink:title="Include all the files from the Graphics folder. ">
<polygon fill="white" stroke="black" points="0,-56.5 0,-75.5 136,-75.5 136,-56.5 0,-56.5"/>
<text text-anchor="middle" x="68" y="-63.5" font-family="Helvetica,sans-Serif" font-size="10.00">include/Small/Graphics.hpp</text>
</a>
</g>
</g>
<!-- Node1&#45;&gt;Node2 -->
<g id="edge1" class="edge"><title>Node1&#45;&gt;Node2</title>
<path fill="none" stroke="midnightblue" d="M68,-102.289C68,-92.857 68,-82.6548 68,-75.6578"/>
<polygon fill="midnightblue" stroke="midnightblue" points="64.5001,-102.399 68,-112.399 71.5001,-102.399 64.5001,-102.399"/>
</g>
<!-- Node3 -->
<g id="node3" class="node"><title>Node3</title>
<g id="a_node3"><a xlink:href="../../da/d41/All_8hpp.html" target="_top" xlink:title="Include the needed files to start a project using the library. ">
<polygon fill="white" stroke="black" points="14,-0.5 14,-19.5 122,-19.5 122,-0.5 14,-0.5"/>
<text text-anchor="middle" x="68" y="-7.5" font-family="Helvetica,sans-Serif" font-size="10.00">include/Small/All.hpp</text>
</a>
</g>
</g>
<!-- Node2&#45;&gt;Node3 -->
<g id="edge2" class="edge"><title>Node2&#45;&gt;Node3</title>
<path fill="none" stroke="midnightblue" d="M68,-45.8045C68,-36.9102 68,-26.7798 68,-19.7511"/>
<polygon fill="midnightblue" stroke="midnightblue" points="64.5001,-46.083 68,-56.083 71.5001,-46.083 64.5001,-46.083"/>
</g>
</g>
</svg>
