<?xml version="1.0" encoding="UTF-8" standalone="no"?>
<!DOCTYPE svg PUBLIC "-//W3C//DTD SVG 1.1//EN"
 "http://www.w3.org/Graphics/SVG/1.1/DTD/svg11.dtd">
<!-- Generated by graphviz version 2.49.0 (20210828.1703)
 -->
<!-- Title: C:/Users/folae/Documents/Code/Big&#45;Projects/ScriptWizards/SmallGameLibrary/include/Small/Core/RessourceManager.hpp Pages: 1 -->
<!--zoomable 495 -->
<svg id="main" version="1.1" xmlns="http://www.w3.org/2000/svg" xmlns:xlink="http://www.w3.org/1999/xlink" xml:space="preserve" onload="init(evt)">
<style type="text/css"><![CDATA[
.edge:hover path { stroke: red; }
.edge:hover polygon { stroke: red; fill: red; }
]]></style>
<script type="text/javascript"><![CDATA[
var edges = document.getElementsByTagName('g');
if (edges && edges.length) {
  for (var i=0;i<edges.length;i++) {
    if (edges[i].id.substr(0,4)=='edge') {
      edges[i].setAttribute('class','edge');
    }
  }
}
]]></script>
        <defs>
                <circle id="rim" cx="0" cy="0" r="7"/>
                <circle id="rim2" cx="0" cy="0" r="3.5"/>
                <g id="zoomPlus">
                        <use xlink:href="#rim" fill="#404040">
                                <set attributeName="fill" to="#808080" begin="zoomplus.mouseover" end="zoomplus.mouseout"/>
                        </use>
                        <path d="M-4,0h8M0,-4v8" fill="none" stroke="white" stroke-width="1.5" pointer-events="none"/>
                </g>
                <g id="zoomMin">
                        <use xlink:href="#rim" fill="#404040">
                                <set attributeName="fill" to="#808080" begin="zoomminus.mouseover" end="zoomminus.mouseout"/>
                        </use>
                        <path d="M-4,0h8" fill="none" stroke="white" stroke-width="1.5" pointer-events="none"/>
                </g>
                <g id="dirArrow">
                        <path fill="none" stroke="white" stroke-width="1.5" d="M0,-3.0v7 M-2.5,-0.5L0,-3.0L2.5,-0.5"/>
                </g>
               <g id="resetDef">
                       <use xlink:href="#rim2" fill="#404040">
                               <set attributeName="fill" to="#808080" begin="reset.mouseover" end="reset.mouseout"/>
                       </use>
               </g>
        </defs>

<script type="text/javascript">
var viewWidth = 1298;
var viewHeight = 495;
var sectionId = 'dynsection-1';
</script>
<script xlink:href="../../svgpan.js"/>
<svg id="graph" class="graph">
<g id="viewport">
<title>C:/Users/folae/Documents/Code/Big&#45;Projects/ScriptWizards/SmallGameLibrary/include/Small/Core/RessourceManager.hpp</title>
<polygon fill="white" stroke="transparent" points="-4,4 -4,-491 1294,-491 1294,4 -4,4"/>
<!-- Node1 -->
<g id="node1" class="node">
<title>Node1</title>
<g id="a_node1"><a xlink:title=" ">
<polygon fill="#bfbfbf" stroke="black" points="165,-434.5 165,-486.5 328,-486.5 328,-434.5 165,-434.5"/>
<text text-anchor="start" x="173" y="-474.5" font-family="Helvetica,sans-Serif" font-size="10.00">C:/Users/folae/Documents</text>
<text text-anchor="start" x="173" y="-463.5" font-family="Helvetica,sans-Serif" font-size="10.00">/Code/Big&#45;Projects/ScriptWizards</text>
<text text-anchor="start" x="173" y="-452.5" font-family="Helvetica,sans-Serif" font-size="10.00">/SmallGameLibrary/include/Small</text>
<text text-anchor="middle" x="246.5" y="-441.5" font-family="Helvetica,sans-Serif" font-size="10.00">/Core/RessourceManager.hpp</text>
</a>
</g>
</g>
<!-- Node2 -->
<g id="node2" class="node">
<title>Node2</title>
<g id="a_node2"><a xlink:href="../../d7/d38/Core_8hpp.html" target="_top" xlink:title="Include all the files from the Core folder.">
<polygon fill="white" stroke="black" points="0,-84 0,-125 203,-125 203,-84 0,-84"/>
<text text-anchor="start" x="8" y="-113" font-family="Helvetica,sans-Serif" font-size="10.00">C:/Users/folae/Documents</text>
<text text-anchor="start" x="8" y="-102" font-family="Helvetica,sans-Serif" font-size="10.00">/Code/Big&#45;Projects/ScriptWizards</text>
<text text-anchor="middle" x="101.5" y="-91" font-family="Helvetica,sans-Serif" font-size="10.00">/SmallGameLibrary/include/Small/Core.hpp</text>
</a>
</g>
</g>
<!-- Node1&#45;&gt;Node2 -->
<g id="edge1" class="edge">
<title>Node1&#45;&gt;Node2</title>
<path fill="none" stroke="midnightblue" d="M216.87,-426.62C179.82,-383.07 118.37,-302.14 94.5,-220 85.17,-187.87 91.1,-148.6 96.28,-125.4"/>
<polygon fill="midnightblue" stroke="midnightblue" points="214.31,-429.01 223.48,-434.31 219.61,-424.45 214.31,-429.01"/>
</g>
<!-- Node4 -->
<g id="node4" class="node">
<title>Node4</title>
<g id="a_node4"><a xlink:href="../../db/de8/Scene_8hpp.html" target="_top" xlink:title="The base scene class and the scene states are defined here.">
<polygon fill="white" stroke="black" points="422,-345.5 422,-397.5 585,-397.5 585,-345.5 422,-345.5"/>
<text text-anchor="start" x="430" y="-385.5" font-family="Helvetica,sans-Serif" font-size="10.00">C:/Users/folae/Documents</text>
<text text-anchor="start" x="430" y="-374.5" font-family="Helvetica,sans-Serif" font-size="10.00">/Code/Big&#45;Projects/ScriptWizards</text>
<text text-anchor="start" x="430" y="-363.5" font-family="Helvetica,sans-Serif" font-size="10.00">/SmallGameLibrary/include/Small</text>
<text text-anchor="middle" x="503.5" y="-352.5" font-family="Helvetica,sans-Serif" font-size="10.00">/Core/Scene.hpp</text>
</a>
</g>
</g>
<!-- Node1&#45;&gt;Node4 -->
<g id="edge3" class="edge">
<title>Node1&#45;&gt;Node4</title>
<path fill="none" stroke="midnightblue" d="M330.28,-431.14C362.3,-420.3 398.55,-408.03 429.59,-397.52"/>
<polygon fill="midnightblue" stroke="midnightblue" points="328.84,-427.93 320.49,-434.45 331.08,-434.56 328.84,-427.93"/>
</g>
<!-- Node3 -->
<g id="node3" class="node">
<title>Node3</title>
<g id="a_node3"><a xlink:href="../../da/d41/All_8hpp.html" target="_top" xlink:title="Include the needed files to start a project using the library.">
<polygon fill="white" stroke="black" points="255.5,-0.5 255.5,-41.5 449.5,-41.5 449.5,-0.5 255.5,-0.5"/>
<text text-anchor="start" x="263.5" y="-29.5" font-family="Helvetica,sans-Serif" font-size="10.00">C:/Users/folae/Documents</text>
<text text-anchor="start" x="263.5" y="-18.5" font-family="Helvetica,sans-Serif" font-size="10.00">/Code/Big&#45;Projects/ScriptWizards</text>
<text text-anchor="middle" x="352.5" y="-7.5" font-family="Helvetica,sans-Serif" font-size="10.00">/SmallGameLibrary/include/Small/All.hpp</text>
</a>
</g>
</g>
<!-- Node2&#45;&gt;Node3 -->
<g id="edge2" class="edge">
<title>Node2&#45;&gt;Node3</title>
<path fill="none" stroke="midnightblue" d="M171.59,-80.74C209.61,-68.4 256.1,-53.3 292.44,-41.5"/>
<polygon fill="midnightblue" stroke="midnightblue" points="170.05,-77.56 161.62,-83.98 172.21,-84.22 170.05,-77.56"/>
</g>
<!-- Node4&#45;&gt;Node2 -->
<g id="edge4" class="edge">
<title>Node4&#45;&gt;Node2</title>
<path fill="none" stroke="midnightblue" d="M411.73,-361.43C321.56,-347.31 187.49,-311.35 116.5,-220 95.22,-192.61 95.85,-149.95 98.5,-125.17"/>
<polygon fill="midnightblue" stroke="midnightblue" points="411.27,-364.9 421.68,-362.93 412.31,-357.98 411.27,-364.9"/>
</g>
<!-- Node5 -->
<g id="node5" class="node">
<title>Node5</title>
<g id="a_node5"><a xlink:href="../../df/d74/SceneManager_8hpp.html" target="_top" xlink:title="Define the scene manager (creating, handling and destroying them)">
<polygon fill="white" stroke="black" points="349,-256.5 349,-308.5 512,-308.5 512,-256.5 349,-256.5"/>
<text text-anchor="start" x="357" y="-296.5" font-family="Helvetica,sans-Serif" font-size="10.00">C:/Users/folae/Documents</text>
<text text-anchor="start" x="357" y="-285.5" font-family="Helvetica,sans-Serif" font-size="10.00">/Code/Big&#45;Projects/ScriptWizards</text>
<text text-anchor="start" x="357" y="-274.5" font-family="Helvetica,sans-Serif" font-size="10.00">/SmallGameLibrary/include/Small</text>
<text text-anchor="middle" x="430.5" y="-263.5" font-family="Helvetica,sans-Serif" font-size="10.00">/Core/SceneManager.hpp</text>
</a>
</g>
</g>
<!-- Node4&#45;&gt;Node5 -->
<g id="edge5" class="edge">
<title>Node4&#45;&gt;Node5</title>
<path fill="none" stroke="midnightblue" d="M475.81,-337.5C467.77,-327.92 459.13,-317.62 451.57,-308.61"/>
<polygon fill="midnightblue" stroke="midnightblue" points="473.28,-339.93 482.39,-345.34 478.64,-335.43 473.28,-339.93"/>
</g>
<!-- Node9 -->
<g id="node9" class="node">
<title>Node9</title>
<g id="a_node9"><a xlink:href="../../de/d15/Scene_8cpp.html" target="_top" xlink:title=" ">
<polygon fill="white" stroke="black" points="530,-167.5 530,-219.5 693,-219.5 693,-167.5 530,-167.5"/>
<text text-anchor="start" x="538" y="-207.5" font-family="Helvetica,sans-Serif" font-size="10.00">C:/Users/folae/Documents</text>
<text text-anchor="start" x="538" y="-196.5" font-family="Helvetica,sans-Serif" font-size="10.00">/Code/Big&#45;Projects/ScriptWizards</text>
<text text-anchor="start" x="538" y="-185.5" font-family="Helvetica,sans-Serif" font-size="10.00">/SmallGameLibrary/source/Core</text>
<text text-anchor="middle" x="611.5" y="-174.5" font-family="Helvetica,sans-Serif" font-size="10.00">/Scene.cpp</text>
</a>
</g>
</g>
<!-- Node4&#45;&gt;Node9 -->
<g id="edge20" class="edge">
<title>Node4&#45;&gt;Node9</title>
<path fill="none" stroke="midnightblue" d="M524.32,-336.57C545.31,-302.36 577.22,-250.36 596.05,-219.67"/>
<polygon fill="midnightblue" stroke="midnightblue" points="521.22,-334.93 518.97,-345.28 527.19,-338.59 521.22,-334.93"/>
</g>
<!-- Node11 -->
<g id="node11" class="node">
<title>Node11</title>
<g id="a_node11"><a xlink:href="../../de/de7/ArkScene_8hpp.html" target="_top" xlink:title="Define a scene scriptable through ArkScript.">
<polygon fill="white" stroke="black" points="714,-256.5 714,-308.5 877,-308.5 877,-256.5 714,-256.5"/>
<text text-anchor="start" x="722" y="-296.5" font-family="Helvetica,sans-Serif" font-size="10.00">C:/Users/folae/Documents</text>
<text text-anchor="start" x="722" y="-285.5" font-family="Helvetica,sans-Serif" font-size="10.00">/Code/Big&#45;Projects/ScriptWizards</text>
<text text-anchor="start" x="722" y="-274.5" font-family="Helvetica,sans-Serif" font-size="10.00">/SmallGameLibrary/include/Small</text>
<text text-anchor="middle" x="795.5" y="-263.5" font-family="Helvetica,sans-Serif" font-size="10.00">/Scenes/ArkScene.hpp</text>
</a>
</g>
</g>
<!-- Node4&#45;&gt;Node11 -->
<g id="edge13" class="edge">
<title>Node4&#45;&gt;Node11</title>
<path fill="none" stroke="midnightblue" d="M595.26,-343.16C633.24,-331.84 676.93,-318.83 713.79,-307.84"/>
<polygon fill="midnightblue" stroke="midnightblue" points="593.81,-339.94 585.23,-346.15 595.81,-346.65 593.81,-339.94"/>
</g>
<!-- Node14 -->
<g id="node14" class="node">
<title>Node14</title>
<g id="a_node14"><a xlink:href="../../d2/d50/Zone_8hpp.html" target="_top" xlink:title="A specialized scene to handle zones and transitions on a tilemap.">
<polygon fill="white" stroke="black" points="898,-256.5 898,-308.5 1061,-308.5 1061,-256.5 898,-256.5"/>
<text text-anchor="start" x="906" y="-296.5" font-family="Helvetica,sans-Serif" font-size="10.00">C:/Users/folae/Documents</text>
<text text-anchor="start" x="906" y="-285.5" font-family="Helvetica,sans-Serif" font-size="10.00">/Code/Big&#45;Projects/ScriptWizards</text>
<text text-anchor="start" x="906" y="-274.5" font-family="Helvetica,sans-Serif" font-size="10.00">/SmallGameLibrary/include/Small</text>
<text text-anchor="middle" x="979.5" y="-263.5" font-family="Helvetica,sans-Serif" font-size="10.00">/Scenes/Zone.hpp</text>
</a>
</g>
</g>
<!-- Node4&#45;&gt;Node14 -->
<g id="edge17" class="edge">
<title>Node4&#45;&gt;Node14</title>
<path fill="none" stroke="midnightblue" d="M595.43,-358.47C673.12,-347.64 787.15,-330.2 885.5,-309 889.55,-308.13 893.69,-307.19 897.85,-306.2"/>
<polygon fill="midnightblue" stroke="midnightblue" points="594.61,-355.05 585.19,-359.89 595.58,-361.98 594.61,-355.05"/>
</g>
<!-- Node5&#45;&gt;Node2 -->
<g id="edge6" class="edge">
<title>Node5&#45;&gt;Node2</title>
<path fill="none" stroke="midnightblue" d="M338.73,-269.34C271.14,-258.82 186.34,-241.86 158.5,-220 127.94,-196 112.52,-151.31 105.83,-125.43"/>
<polygon fill="midnightblue" stroke="midnightblue" points="338.58,-272.85 349,-270.9 339.64,-265.93 338.58,-272.85"/>
</g>
<!-- Node6 -->
<g id="node6" class="node">
<title>Node6</title>
<g id="a_node6"><a xlink:href="../../df/d3c/Application_8hpp.html" target="_top" xlink:title="Define the application hosting the scenes for the game.">
<polygon fill="white" stroke="black" points="168,-167.5 168,-219.5 331,-219.5 331,-167.5 168,-167.5"/>
<text text-anchor="start" x="176" y="-207.5" font-family="Helvetica,sans-Serif" font-size="10.00">C:/Users/folae/Documents</text>
<text text-anchor="start" x="176" y="-196.5" font-family="Helvetica,sans-Serif" font-size="10.00">/Code/Big&#45;Projects/ScriptWizards</text>
<text text-anchor="start" x="176" y="-185.5" font-family="Helvetica,sans-Serif" font-size="10.00">/SmallGameLibrary/include/Small</text>
<text text-anchor="middle" x="249.5" y="-174.5" font-family="Helvetica,sans-Serif" font-size="10.00">/Core/Application.hpp</text>
</a>
</g>
</g>
<!-- Node5&#45;&gt;Node6 -->
<g id="edge7" class="edge">
<title>Node5&#45;&gt;Node6</title>
<path fill="none" stroke="midnightblue" d="M368.95,-251.92C347.1,-241.41 322.73,-229.7 301.74,-219.61"/>
<polygon fill="midnightblue" stroke="midnightblue" points="367.62,-255.16 378.15,-256.34 370.65,-248.85 367.62,-255.16"/>
</g>
<!-- Node5&#45;&gt;Node9 -->
<g id="edge11" class="edge">
<title>Node5&#45;&gt;Node9</title>
<path fill="none" stroke="midnightblue" d="M492.05,-251.92C513.9,-241.41 538.27,-229.7 559.26,-219.61"/>
<polygon fill="midnightblue" stroke="midnightblue" points="490.35,-248.85 482.85,-256.34 493.38,-255.16 490.35,-248.85"/>
</g>
<!-- Node10 -->
<g id="node10" class="node">
<title>Node10</title>
<g id="a_node10"><a xlink:href="../../da/d2c/SceneManager_8cpp.html" target="_top" xlink:title=" ">
<polygon fill="white" stroke="black" points="349,-167.5 349,-219.5 512,-219.5 512,-167.5 349,-167.5"/>
<text text-anchor="start" x="357" y="-207.5" font-family="Helvetica,sans-Serif" font-size="10.00">C:/Users/folae/Documents</text>
<text text-anchor="start" x="357" y="-196.5" font-family="Helvetica,sans-Serif" font-size="10.00">/Code/Big&#45;Projects/ScriptWizards</text>
<text text-anchor="start" x="357" y="-185.5" font-family="Helvetica,sans-Serif" font-size="10.00">/SmallGameLibrary/source/Core</text>
<text text-anchor="middle" x="430.5" y="-174.5" font-family="Helvetica,sans-Serif" font-size="10.00">/SceneManager.cpp</text>
</a>
</g>
</g>
<!-- Node5&#45;&gt;Node10 -->
<g id="edge12" class="edge">
<title>Node5&#45;&gt;Node10</title>
<path fill="none" stroke="midnightblue" d="M430.5,-246.19C430.5,-237.28 430.5,-227.9 430.5,-219.61"/>
<polygon fill="midnightblue" stroke="midnightblue" points="427,-246.34 430.5,-256.34 434,-246.34 427,-246.34"/>
</g>
<!-- Node6&#45;&gt;Node2 -->
<g id="edge8" class="edge">
<title>Node6&#45;&gt;Node2</title>
<path fill="none" stroke="midnightblue" d="M197.91,-162.17C176.98,-149.87 153.41,-136.01 134.81,-125.08"/>
<polygon fill="midnightblue" stroke="midnightblue" points="196.3,-165.29 206.69,-167.34 199.85,-159.25 196.3,-165.29"/>
</g>
<!-- Node7 -->
<g id="node7" class="node">
<title>Node7</title>
<g id="a_node7"><a xlink:href="../../d2/db6/Application_8cpp.html" target="_top" xlink:title=" ">
<polygon fill="white" stroke="black" points="221,-78.5 221,-130.5 384,-130.5 384,-78.5 221,-78.5"/>
<text text-anchor="start" x="229" y="-118.5" font-family="Helvetica,sans-Serif" font-size="10.00">C:/Users/folae/Documents</text>
<text text-anchor="start" x="229" y="-107.5" font-family="Helvetica,sans-Serif" font-size="10.00">/Code/Big&#45;Projects/ScriptWizards</text>
<text text-anchor="start" x="229" y="-96.5" font-family="Helvetica,sans-Serif" font-size="10.00">/SmallGameLibrary/source/Core</text>
<text text-anchor="middle" x="302.5" y="-85.5" font-family="Helvetica,sans-Serif" font-size="10.00">/Application.cpp</text>
</a>
</g>
</g>
<!-- Node6&#45;&gt;Node7 -->
<g id="edge9" class="edge">
<title>Node6&#45;&gt;Node7</title>
<path fill="none" stroke="midnightblue" d="M270.13,-158.64C275.81,-149.31 281.88,-139.35 287.2,-130.61"/>
<polygon fill="midnightblue" stroke="midnightblue" points="267.04,-156.97 264.83,-167.34 273.02,-160.62 267.04,-156.97"/>
</g>
<!-- Node8 -->
<g id="node8" class="node">
<title>Node8</title>
<g id="a_node8"><a xlink:href="../../db/da3/Bindings_8cpp.html" target="_top" xlink:title=" ">
<polygon fill="white" stroke="black" points="402,-78.5 402,-130.5 575,-130.5 575,-78.5 402,-78.5"/>
<text text-anchor="start" x="410" y="-118.5" font-family="Helvetica,sans-Serif" font-size="10.00">C:/Users/folae/Documents</text>
<text text-anchor="start" x="410" y="-107.5" font-family="Helvetica,sans-Serif" font-size="10.00">/Code/Big&#45;Projects/ScriptWizards</text>
<text text-anchor="start" x="410" y="-96.5" font-family="Helvetica,sans-Serif" font-size="10.00">/SmallGameLibrary/source/Scripting</text>
<text text-anchor="middle" x="488.5" y="-85.5" font-family="Helvetica,sans-Serif" font-size="10.00">/Bindings.cpp</text>
</a>
</g>
</g>
<!-- Node6&#45;&gt;Node8 -->
<g id="edge10" class="edge">
<title>Node6&#45;&gt;Node8</title>
<path fill="none" stroke="midnightblue" d="M327.8,-164C357.48,-153.19 391.03,-140.98 419.76,-130.52"/>
<polygon fill="midnightblue" stroke="midnightblue" points="326.51,-160.74 318.31,-167.45 328.9,-167.32 326.51,-160.74"/>
</g>
<!-- Node12 -->
<g id="node12" class="node">
<title>Node12</title>
<g id="a_node12"><a xlink:href="../../d0/d00/Scenes_8hpp.html" target="_top" xlink:title="Include all the files from the Scenes folder.">
<polygon fill="white" stroke="black" points="898,-167.5 898,-219.5 1061,-219.5 1061,-167.5 898,-167.5"/>
<text text-anchor="start" x="906" y="-207.5" font-family="Helvetica,sans-Serif" font-size="10.00">C:/Users/folae/Documents</text>
<text text-anchor="start" x="906" y="-196.5" font-family="Helvetica,sans-Serif" font-size="10.00">/Code/Big&#45;Projects/ScriptWizards</text>
<text text-anchor="start" x="906" y="-185.5" font-family="Helvetica,sans-Serif" font-size="10.00">/SmallGameLibrary/include/Small</text>
<text text-anchor="middle" x="979.5" y="-174.5" font-family="Helvetica,sans-Serif" font-size="10.00">/Scenes.hpp</text>
</a>
</g>
</g>
<!-- Node11&#45;&gt;Node12 -->
<g id="edge14" class="edge">
<title>Node11&#45;&gt;Node12</title>
<path fill="none" stroke="midnightblue" d="M857.77,-252.06C880.06,-241.52 904.96,-229.75 926.4,-219.61"/>
<polygon fill="midnightblue" stroke="midnightblue" points="856.26,-248.9 848.72,-256.34 859.26,-255.23 856.26,-248.9"/>
</g>
<!-- Node13 -->
<g id="node13" class="node">
<title>Node13</title>
<g id="a_node13"><a xlink:href="../../d4/dff/ArkScene_8cpp.html" target="_top" xlink:title=" ">
<polygon fill="white" stroke="black" points="711.5,-167.5 711.5,-219.5 879.5,-219.5 879.5,-167.5 711.5,-167.5"/>
<text text-anchor="start" x="719.5" y="-207.5" font-family="Helvetica,sans-Serif" font-size="10.00">C:/Users/folae/Documents</text>
<text text-anchor="start" x="719.5" y="-196.5" font-family="Helvetica,sans-Serif" font-size="10.00">/Code/Big&#45;Projects/ScriptWizards</text>
<text text-anchor="start" x="719.5" y="-185.5" font-family="Helvetica,sans-Serif" font-size="10.00">/SmallGameLibrary/source/Scenes</text>
<text text-anchor="middle" x="795.5" y="-174.5" font-family="Helvetica,sans-Serif" font-size="10.00">/ArkScene.cpp</text>
</a>
</g>
</g>
<!-- Node11&#45;&gt;Node13 -->
<g id="edge16" class="edge">
<title>Node11&#45;&gt;Node13</title>
<path fill="none" stroke="midnightblue" d="M795.5,-246.19C795.5,-237.28 795.5,-227.9 795.5,-219.61"/>
<polygon fill="midnightblue" stroke="midnightblue" points="792,-246.34 795.5,-256.34 799,-246.34 792,-246.34"/>
</g>
<!-- Node12&#45;&gt;Node3 -->
<g id="edge15" class="edge">
<title>Node12&#45;&gt;Node3</title>
<path fill="none" stroke="midnightblue" d="M887.83,-164.76C807.77,-140.84 688.3,-105.84 583.5,-78 535.14,-65.15 480.77,-51.91 436.93,-41.54"/>
<polygon fill="midnightblue" stroke="midnightblue" points="887.3,-168.26 897.88,-167.77 889.3,-161.55 887.3,-168.26"/>
</g>
<!-- Node14&#45;&gt;Node12 -->
<g id="edge18" class="edge">
<title>Node14&#45;&gt;Node12</title>
<path fill="none" stroke="midnightblue" d="M979.5,-246.19C979.5,-237.28 979.5,-227.9 979.5,-219.61"/>
<polygon fill="midnightblue" stroke="midnightblue" points="976,-246.34 979.5,-256.34 983,-246.34 976,-246.34"/>
</g>
<!-- Node15 -->
<g id="node15" class="node">
<title>Node15</title>
<g id="a_node15"><a xlink:href="../../db/d53/Zone_8cpp.html" target="_top" xlink:title=" ">
<polygon fill="white" stroke="black" points="1079,-173 1079,-214 1290,-214 1290,-173 1079,-173"/>
<text text-anchor="start" x="1087" y="-202" font-family="Helvetica,sans-Serif" font-size="10.00">C:/Users/folae/Documents</text>
<text text-anchor="start" x="1087" y="-191" font-family="Helvetica,sans-Serif" font-size="10.00">/Code/Big&#45;Projects/ScriptWizards</text>
<text text-anchor="middle" x="1184.5" y="-180" font-family="Helvetica,sans-Serif" font-size="10.00">/SmallGameLibrary/source/Scenes/Zone.cpp</text>
</a>
</g>
</g>
<!-- Node14&#45;&gt;Node15 -->
<g id="edge19" class="edge">
<title>Node14&#45;&gt;Node15</title>
<path fill="none" stroke="midnightblue" d="M1047.99,-252.43C1077.66,-239.84 1111.61,-225.43 1138.24,-214.13"/>
<polygon fill="midnightblue" stroke="midnightblue" points="1046.36,-249.32 1038.52,-256.45 1049.09,-255.77 1046.36,-249.32"/>
</g>
</g>
</svg>
        <g id="navigator" transform="translate(0 0)" fill="#404254">
                <rect fill="#f2f5e9" fill-opacity="0.5" stroke="#606060" stroke-width=".5" x="0" y="0" width="60" height="60"/>
                <use id="zoomplus" xlink:href="#zoomPlus" x="17" y="9" onmousedown="handleZoom(evt,'in')"/>
                <use id="zoomminus" xlink:href="#zoomMin" x="42" y="9" onmousedown="handleZoom(evt,'out')"/>
                <use id="reset" xlink:href="#resetDef" x="30" y="36" onmousedown="handleReset()"/>
                <g id="arrowUp" xlink:href="#dirArrow" transform="translate(30 24)" onmousedown="handlePan(0,-1)">
                  <use xlink:href="#rim" fill="#404040">
                        <set attributeName="fill" to="#808080" begin="arrowUp.mouseover" end="arrowUp.mouseout"/>
                  </use>
                  <path fill="none" stroke="white" stroke-width="1.5" d="M0,-3.0v7 M-2.5,-0.5L0,-3.0L2.5,-0.5"/>
                </g>
                <g id="arrowRight" xlink:href="#dirArrow" transform="rotate(90) translate(36 -43)" onmousedown="handlePan(1,0)">
                  <use xlink:href="#rim" fill="#404040">
                        <set attributeName="fill" to="#808080" begin="arrowRight.mouseover" end="arrowRight.mouseout"/>
                  </use>
                  <path fill="none" stroke="white" stroke-width="1.5" d="M0,-3.0v7 M-2.5,-0.5L0,-3.0L2.5,-0.5"/>
                </g>
                <g id="arrowDown" xlink:href="#dirArrow" transform="rotate(180) translate(-30 -48)" onmousedown="handlePan(0,1)">
                  <use xlink:href="#rim" fill="#404040">
                        <set attributeName="fill" to="#808080" begin="arrowDown.mouseover" end="arrowDown.mouseout"/>
                  </use>
                  <path fill="none" stroke="white" stroke-width="1.5" d="M0,-3.0v7 M-2.5,-0.5L0,-3.0L2.5,-0.5"/>
                </g>
                <g id="arrowLeft" xlink:href="#dirArrow" transform="rotate(270) translate(-36 17)" onmousedown="handlePan(-1,0)">
                  <use xlink:href="#rim" fill="#404040">
                        <set attributeName="fill" to="#808080" begin="arrowLeft.mouseover" end="arrowLeft.mouseout"/>
                  </use>
                  <path fill="none" stroke="white" stroke-width="1.5" d="M0,-3.0v7 M-2.5,-0.5L0,-3.0L2.5,-0.5"/>
                </g>
        </g>
        <svg viewBox="0 0 15 15" width="100%" height="30px" preserveAspectRatio="xMaxYMin meet">
         <g id="arrow_out" transform="scale(0.3 0.3)">
          <a xlink:href="RessourceManager_8hpp__dep__incl_org.svg" target="_base">
           <rect id="button" ry="5" rx="5" y="6" x="6" height="38" width="38"
                fill="#f2f5e9" fill-opacity="0.5" stroke="#606060" stroke-width="1.0"/>
           <path id="arrow"
             d="M 11.500037,31.436501 C 11.940474,20.09759 22.043105,11.32322 32.158766,21.979434 L 37.068811,17.246167 C 37.068811,17.246167 37.088388,32 37.088388,32 L 22.160133,31.978069 C 22.160133,31.978069 26.997745,27.140456 26.997745,27.140456 C 18.528582,18.264221 13.291696,25.230495 11.500037,31.436501 z"
             style="fill:#404040;"/>
          </a>
         </g>
        </svg>
</svg>
