<?xml version="1.0" encoding="UTF-8" standalone="no"?>
<!DOCTYPE svg PUBLIC "-//W3C//DTD SVG 1.1//EN"
 "http://www.w3.org/Graphics/SVG/1.1/DTD/svg11.dtd">
<!-- Generated by graphviz version 2.38.0 (20140413.2041)
 -->
<!-- Title: C:/Users/Folaefolc/Documents/Code/Big&#45;Projects/ScriptWizards/SmallGameLibrary/include/Small/Scripting.hpp Pages: 1 -->
<svg width="452pt" height="184pt"
 viewBox="0.00 0.00 451.50 184.00" xmlns="http://www.w3.org/2000/svg" xmlns:xlink="http://www.w3.org/1999/xlink">
<g id="graph0" class="graph" transform="scale(1 1) rotate(0) translate(4 180)">
<title>C:/Users/Folaefolc/Documents/Code/Big&#45;Projects/ScriptWizards/SmallGameLibrary/include/Small/Scripting.hpp</title>
<polygon fill="white" stroke="none" points="-4,4 -4,-180 447.5,-180 447.5,4 -4,4"/>
<!-- Node1 -->
<g id="node1" class="node"><title>Node1</title>
<polygon fill="#bfbfbf" stroke="black" points="149.5,-112.5 149.5,-175.5 283.5,-175.5 283.5,-112.5 149.5,-112.5"/>
<text text-anchor="start" x="157.5" y="-163.5" font-family="Helvetica,sans-Serif" font-size="10.00">C:/Users/Folaefolc</text>
<text text-anchor="start" x="157.5" y="-152.5" font-family="Helvetica,sans-Serif" font-size="10.00">/Documents/Code/Big</text>
<text text-anchor="start" x="157.5" y="-141.5" font-family="Helvetica,sans-Serif" font-size="10.00">&#45;Projects/ScriptWizards</text>
<text text-anchor="start" x="157.5" y="-130.5" font-family="Helvetica,sans-Serif" font-size="10.00">/SmallGameLibrary/include</text>
<text text-anchor="middle" x="216.5" y="-119.5" font-family="Helvetica,sans-Serif" font-size="10.00">/Small/Scripting.hpp</text>
</g>
<!-- Node2 -->
<g id="node2" class="node"><title>Node2</title>
<g id="a_node2"><a xlink:href="../../df/db4/Config_8hpp.html" target="_top" xlink:title="Small/Scripting/Config.hpp">
<polygon fill="white" stroke="black" points="0,-56.5 0,-75.5 131,-75.5 131,-56.5 0,-56.5"/>
<text text-anchor="middle" x="65.5" y="-63.5" font-family="Helvetica,sans-Serif" font-size="10.00">Small/Scripting/Config.hpp</text>
</a>
</g>
</g>
<!-- Node1&#45;&gt;Node2 -->
<g id="edge1" class="edge"><title>Node1&#45;&gt;Node2</title>
<path fill="none" stroke="midnightblue" d="M155.518,-112.307C133.28,-101.114 109.295,-89.0427 91.6798,-80.1766"/>
<polygon fill="midnightblue" stroke="midnightblue" points="93.1061,-76.9762 82.6001,-75.6067 89.959,-83.2289 93.1061,-76.9762"/>
</g>
<!-- Node4 -->
<g id="node4" class="node"><title>Node4</title>
<g id="a_node4"><a xlink:href="../../d3/d48/Engine_8hpp.html" target="_top" xlink:title="Easing the use of ArkScript (compiling scripts ahead of time, loading them) ">
<polygon fill="white" stroke="black" points="149.5,-56.5 149.5,-75.5 283.5,-75.5 283.5,-56.5 149.5,-56.5"/>
<text text-anchor="middle" x="216.5" y="-63.5" font-family="Helvetica,sans-Serif" font-size="10.00">Small/Scripting/Engine.hpp</text>
</a>
</g>
</g>
<!-- Node1&#45;&gt;Node4 -->
<g id="edge3" class="edge"><title>Node1&#45;&gt;Node4</title>
<path fill="none" stroke="midnightblue" d="M216.5,-112.088C216.5,-103.15 216.5,-93.6688 216.5,-85.7195"/>
<polygon fill="midnightblue" stroke="midnightblue" points="220,-85.7181 216.5,-75.7182 213,-85.7182 220,-85.7181"/>
</g>
<!-- Node6 -->
<g id="node6" class="node"><title>Node6</title>
<g id="a_node6"><a xlink:href="../../d2/d12/Bindings_8hpp.html" target="_top" xlink:title="Binding the small game library in ArkScript. ">
<polygon fill="white" stroke="black" points="301.5,-56.5 301.5,-75.5 443.5,-75.5 443.5,-56.5 301.5,-56.5"/>
<text text-anchor="middle" x="372.5" y="-63.5" font-family="Helvetica,sans-Serif" font-size="10.00">Small/Scripting/Bindings.hpp</text>
</a>
</g>
</g>
<!-- Node1&#45;&gt;Node6 -->
<g id="edge6" class="edge"><title>Node1&#45;&gt;Node6</title>
<path fill="none" stroke="midnightblue" d="M279.502,-112.307C302.582,-101.062 327.484,-88.9309 345.706,-80.0537"/>
<polygon fill="midnightblue" stroke="midnightblue" points="347.377,-83.1329 354.834,-75.6067 344.311,-76.84 347.377,-83.1329"/>
</g>
<!-- Node3 -->
<g id="node3" class="node"><title>Node3</title>
<polygon fill="white" stroke="#bfbfbf" points="84,-0.5 84,-19.5 125,-19.5 125,-0.5 84,-0.5"/>
<text text-anchor="middle" x="104.5" y="-7.5" font-family="Helvetica,sans-Serif" font-size="10.00">string</text>
</g>
<!-- Node2&#45;&gt;Node3 -->
<g id="edge2" class="edge"><title>Node2&#45;&gt;Node3</title>
<path fill="none" stroke="midnightblue" d="M71.9401,-56.083C77.4489,-48.4554 85.5312,-37.2645 92.265,-27.9408"/>
<polygon fill="midnightblue" stroke="midnightblue" points="95.1622,-29.9071 98.1798,-19.7511 89.4874,-25.8087 95.1622,-29.9071"/>
</g>
<!-- Node4&#45;&gt;Node3 -->
<g id="edge5" class="edge"><title>Node4&#45;&gt;Node3</title>
<path fill="none" stroke="midnightblue" d="M198.505,-56.324C180.462,-47.6247 152.453,-34.1202 131.697,-24.113"/>
<polygon fill="midnightblue" stroke="midnightblue" points="132.978,-20.8449 122.45,-19.6545 129.938,-27.1502 132.978,-20.8449"/>
</g>
<!-- Node5 -->
<g id="node5" class="node"><title>Node5</title>
<polygon fill="white" stroke="#bfbfbf" points="182.5,-0.5 182.5,-19.5 250.5,-19.5 250.5,-0.5 182.5,-0.5"/>
<text text-anchor="middle" x="216.5" y="-7.5" font-family="Helvetica,sans-Serif" font-size="10.00">Ark/Ark.hpp</text>
</g>
<!-- Node4&#45;&gt;Node5 -->
<g id="edge4" class="edge"><title>Node4&#45;&gt;Node5</title>
<path fill="none" stroke="midnightblue" d="M216.5,-56.083C216.5,-49.0059 216.5,-38.8611 216.5,-29.9865"/>
<polygon fill="midnightblue" stroke="midnightblue" points="220,-29.751 216.5,-19.7511 213,-29.7511 220,-29.751"/>
</g>
<!-- Node7 -->
<g id="node7" class="node"><title>Node7</title>
<polygon fill="white" stroke="#bfbfbf" points="325,-0.5 325,-19.5 420,-19.5 420,-0.5 325,-0.5"/>
<text text-anchor="middle" x="372.5" y="-7.5" font-family="Helvetica,sans-Serif" font-size="10.00">Ark/VM/State.hpp</text>
</g>
<!-- Node6&#45;&gt;Node7 -->
<g id="edge7" class="edge"><title>Node6&#45;&gt;Node7</title>
<path fill="none" stroke="midnightblue" d="M372.5,-56.083C372.5,-49.0059 372.5,-38.8611 372.5,-29.9865"/>
<polygon fill="midnightblue" stroke="midnightblue" points="376,-29.751 372.5,-19.7511 369,-29.7511 376,-29.751"/>
</g>
</g>
</svg>
