<?xml version="1.0" encoding="UTF-8" standalone="no"?>
<!DOCTYPE svg PUBLIC "-//W3C//DTD SVG 1.1//EN"
 "http://www.w3.org/Graphics/SVG/1.1/DTD/svg11.dtd">
<!-- Generated by graphviz version 2.49.0 (20210828.1703)
 -->
<!-- Title: C:/Users/folae/Documents/Code/Big&#45;Projects/ScriptWizards/SmallGameLibrary/include/Small/Scripting.hpp Pages: 1 -->
<svg width="452pt" height="173pt"
 viewBox="0.00 0.00 451.50 173.00" xmlns="http://www.w3.org/2000/svg" xmlns:xlink="http://www.w3.org/1999/xlink">
<g id="graph0" class="graph" transform="scale(1 1) rotate(0) translate(4 169)">
<title>C:/Users/folae/Documents/Code/Big&#45;Projects/ScriptWizards/SmallGameLibrary/include/Small/Scripting.hpp</title>
<polygon fill="white" stroke="transparent" points="-4,4 -4,-169 447.5,-169 447.5,4 -4,4"/>
<!-- Node1 -->
<g id="node1" class="node">
<title>Node1</title>
<g id="a_node1"><a xlink:title="Include all the files from the Scripting folder.">
<polygon fill="#bfbfbf" stroke="black" points="135,-112.5 135,-164.5 298,-164.5 298,-112.5 135,-112.5"/>
<text text-anchor="start" x="143" y="-152.5" font-family="Helvetica,sans-Serif" font-size="10.00">C:/Users/folae/Documents</text>
<text text-anchor="start" x="143" y="-141.5" font-family="Helvetica,sans-Serif" font-size="10.00">/Code/Big&#45;Projects/ScriptWizards</text>
<text text-anchor="start" x="143" y="-130.5" font-family="Helvetica,sans-Serif" font-size="10.00">/SmallGameLibrary/include/Small</text>
<text text-anchor="middle" x="216.5" y="-119.5" font-family="Helvetica,sans-Serif" font-size="10.00">/Scripting.hpp</text>
</a>
</g>
</g>
<!-- Node2 -->
<g id="node2" class="node">
<title>Node2</title>
<g id="a_node2"><a xlink:href="../../df/db4/Config_8hpp.html" target="_top" xlink:title=" ">
<polygon fill="white" stroke="black" points="0,-56.5 0,-75.5 131,-75.5 131,-56.5 0,-56.5"/>
<text text-anchor="middle" x="65.5" y="-63.5" font-family="Helvetica,sans-Serif" font-size="10.00">Small/Scripting/Config.hpp</text>
</a>
</g>
</g>
<!-- Node1&#45;&gt;Node2 -->
<g id="edge1" class="edge">
<title>Node1&#45;&gt;Node2</title>
<path fill="none" stroke="midnightblue" d="M162.84,-112.45C139.2,-101.41 112.43,-88.91 92.96,-79.82"/>
<polygon fill="midnightblue" stroke="midnightblue" points="94.31,-76.59 83.76,-75.53 91.34,-82.93 94.31,-76.59"/>
</g>
<!-- Node4 -->
<g id="node4" class="node">
<title>Node4</title>
<g id="a_node4"><a xlink:href="../../d3/d48/Engine_8hpp.html" target="_top" xlink:title="Easing the use of ArkScript (compiling scripts ahead of time, loading them)">
<polygon fill="white" stroke="black" points="149.5,-56.5 149.5,-75.5 283.5,-75.5 283.5,-56.5 149.5,-56.5"/>
<text text-anchor="middle" x="216.5" y="-63.5" font-family="Helvetica,sans-Serif" font-size="10.00">Small/Scripting/Engine.hpp</text>
</a>
</g>
</g>
<!-- Node1&#45;&gt;Node4 -->
<g id="edge3" class="edge">
<title>Node1&#45;&gt;Node4</title>
<path fill="none" stroke="midnightblue" d="M216.5,-112.45C216.5,-103.73 216.5,-94.1 216.5,-85.96"/>
<polygon fill="midnightblue" stroke="midnightblue" points="220,-85.7 216.5,-75.7 213,-85.7 220,-85.7"/>
</g>
<!-- Node6 -->
<g id="node6" class="node">
<title>Node6</title>
<g id="a_node6"><a xlink:href="../../d2/d12/Bindings_8hpp.html" target="_top" xlink:title="Binding the small game library in ArkScript.">
<polygon fill="white" stroke="black" points="301.5,-56.5 301.5,-75.5 443.5,-75.5 443.5,-56.5 301.5,-56.5"/>
<text text-anchor="middle" x="372.5" y="-63.5" font-family="Helvetica,sans-Serif" font-size="10.00">Small/Scripting/Bindings.hpp</text>
</a>
</g>
</g>
<!-- Node1&#45;&gt;Node6 -->
<g id="edge6" class="edge">
<title>Node1&#45;&gt;Node6</title>
<path fill="none" stroke="midnightblue" d="M271.94,-112.45C296.47,-101.36 324.27,-88.8 344.41,-79.7"/>
<polygon fill="midnightblue" stroke="midnightblue" points="345.96,-82.83 353.63,-75.53 343.08,-76.46 345.96,-82.83"/>
</g>
<!-- Node3 -->
<g id="node3" class="node">
<title>Node3</title>
<g id="a_node3"><a xlink:title=" ">
<polygon fill="white" stroke="#bfbfbf" points="84,-0.5 84,-19.5 125,-19.5 125,-0.5 84,-0.5"/>
<text text-anchor="middle" x="104.5" y="-7.5" font-family="Helvetica,sans-Serif" font-size="10.00">string</text>
</a>
</g>
</g>
<!-- Node2&#45;&gt;Node3 -->
<g id="edge2" class="edge">
<title>Node2&#45;&gt;Node3</title>
<path fill="none" stroke="midnightblue" d="M71.94,-56.08C77.45,-48.46 85.53,-37.26 92.26,-27.94"/>
<polygon fill="midnightblue" stroke="midnightblue" points="95.16,-29.91 98.18,-19.75 89.49,-25.81 95.16,-29.91"/>
</g>
<!-- Node4&#45;&gt;Node3 -->
<g id="edge5" class="edge">
<title>Node4&#45;&gt;Node3</title>
<path fill="none" stroke="midnightblue" d="M198.51,-56.32C180.46,-47.62 152.45,-34.12 131.7,-24.11"/>
<polygon fill="midnightblue" stroke="midnightblue" points="132.98,-20.84 122.45,-19.65 129.94,-27.15 132.98,-20.84"/>
</g>
<!-- Node5 -->
<g id="node5" class="node">
<title>Node5</title>
<g id="a_node5"><a xlink:title=" ">
<polygon fill="white" stroke="#bfbfbf" points="182.5,-0.5 182.5,-19.5 250.5,-19.5 250.5,-0.5 182.5,-0.5"/>
<text text-anchor="middle" x="216.5" y="-7.5" font-family="Helvetica,sans-Serif" font-size="10.00">Ark/Ark.hpp</text>
</a>
</g>
</g>
<!-- Node4&#45;&gt;Node5 -->
<g id="edge4" class="edge">
<title>Node4&#45;&gt;Node5</title>
<path fill="none" stroke="midnightblue" d="M216.5,-56.08C216.5,-49.01 216.5,-38.86 216.5,-29.99"/>
<polygon fill="midnightblue" stroke="midnightblue" points="220,-29.75 216.5,-19.75 213,-29.75 220,-29.75"/>
</g>
<!-- Node7 -->
<g id="node7" class="node">
<title>Node7</title>
<g id="a_node7"><a xlink:title=" ">
<polygon fill="white" stroke="#bfbfbf" points="325,-0.5 325,-19.5 420,-19.5 420,-0.5 325,-0.5"/>
<text text-anchor="middle" x="372.5" y="-7.5" font-family="Helvetica,sans-Serif" font-size="10.00">Ark/VM/State.hpp</text>
</a>
</g>
</g>
<!-- Node6&#45;&gt;Node7 -->
<g id="edge7" class="edge">
<title>Node6&#45;&gt;Node7</title>
<path fill="none" stroke="midnightblue" d="M372.5,-56.08C372.5,-49.01 372.5,-38.86 372.5,-29.99"/>
<polygon fill="midnightblue" stroke="midnightblue" points="376,-29.75 372.5,-19.75 369,-29.75 376,-29.75"/>
</g>
</g>
</svg>
