<?xml version="1.0" encoding="UTF-8" standalone="no"?>
<!DOCTYPE svg PUBLIC "-//W3C//DTD SVG 1.1//EN"
 "http://www.w3.org/Graphics/SVG/1.1/DTD/svg11.dtd">
<!-- Generated by graphviz version 2.38.0 (20140413.2041)
 -->
<!-- Title: include/Small/GameObjects/Manager.hpp Pages: 1 -->
<svg width="1289pt" height="95pt"
 viewBox="0.00 0.00 1289.00 95.00" xmlns="http://www.w3.org/2000/svg" xmlns:xlink="http://www.w3.org/1999/xlink">
<g id="graph0" class="graph" transform="scale(1 1) rotate(0) translate(4 91)">
<title>include/Small/GameObjects/Manager.hpp</title>
<polygon fill="white" stroke="none" points="-4,4 -4,-91 1285,-91 1285,4 -4,4"/>
<!-- Node1 -->
<g id="node1" class="node"><title>Node1</title>
<polygon fill="#bfbfbf" stroke="black" points="463.5,-56.5 463.5,-86.5 601.5,-86.5 601.5,-56.5 463.5,-56.5"/>
<text text-anchor="start" x="471.5" y="-74.5" font-family="Helvetica,sans-Serif" font-size="10.00">include/Small/GameObjects</text>
<text text-anchor="middle" x="532.5" y="-63.5" font-family="Helvetica,sans-Serif" font-size="10.00">/Manager.hpp</text>
</g>
<!-- Node2 -->
<g id="node2" class="node"><title>Node2</title>
<polygon fill="white" stroke="#bfbfbf" points="0,-0.5 0,-19.5 41,-19.5 41,-0.5 0,-0.5"/>
<text text-anchor="middle" x="20.5" y="-7.5" font-family="Helvetica,sans-Serif" font-size="10.00">string</text>
</g>
<!-- Node1&#45;&gt;Node2 -->
<g id="edge1" class="edge"><title>Node1&#45;&gt;Node2</title>
<path fill="none" stroke="midnightblue" d="M463.462,-67.5539C371.16,-62.669 202.504,-50.4338 51.2198,-20.0163"/>
<polygon fill="midnightblue" stroke="midnightblue" points="51.7793,-16.5584 41.2811,-17.9863 50.3784,-23.4168 51.7793,-16.5584"/>
</g>
<!-- Node3 -->
<g id="node3" class="node"><title>Node3</title>
<polygon fill="white" stroke="#bfbfbf" points="59,-0.5 59,-19.5 142,-19.5 142,-0.5 59,-0.5"/>
<text text-anchor="middle" x="100.5" y="-7.5" font-family="Helvetica,sans-Serif" font-size="10.00">unordered_map</text>
</g>
<!-- Node1&#45;&gt;Node3 -->
<g id="edge2" class="edge"><title>Node1&#45;&gt;Node3</title>
<path fill="none" stroke="midnightblue" d="M463.352,-62.3431C388.895,-53.3376 266.722,-37.9189 152.209,-20.2132"/>
<polygon fill="midnightblue" stroke="midnightblue" points="152.636,-16.7376 142.217,-18.6593 151.561,-23.6545 152.636,-16.7376"/>
</g>
<!-- Node4 -->
<g id="node4" class="node"><title>Node4</title>
<polygon fill="white" stroke="#bfbfbf" points="160,-0.5 160,-19.5 227,-19.5 227,-0.5 160,-0.5"/>
<text text-anchor="middle" x="193.5" y="-7.5" font-family="Helvetica,sans-Serif" font-size="10.00">Manager.inl</text>
</g>
<!-- Node1&#45;&gt;Node4 -->
<g id="edge3" class="edge"><title>Node1&#45;&gt;Node4</title>
<path fill="none" stroke="midnightblue" d="M463.29,-59.4423C405.506,-50.038 320.721,-35.8412 237.191,-20.074"/>
<polygon fill="midnightblue" stroke="midnightblue" points="237.754,-16.6184 227.277,-18.1939 236.45,-23.4959 237.754,-16.6184"/>
</g>
<!-- Node5 -->
<g id="node5" class="node"><title>Node5</title>
<polygon fill="white" stroke="#bfbfbf" points="245.5,-0.5 245.5,-19.5 371.5,-19.5 371.5,-0.5 245.5,-0.5"/>
<text text-anchor="middle" x="308.5" y="-7.5" font-family="Helvetica,sans-Serif" font-size="10.00">SFML/Graphics/Font.hpp</text>
</g>
<!-- Node1&#45;&gt;Node5 -->
<g id="edge4" class="edge"><title>Node1&#45;&gt;Node5</title>
<path fill="none" stroke="midnightblue" d="M479.699,-56.4747C440.21,-45.9856 386.944,-31.8367 350.371,-22.1221"/>
<polygon fill="midnightblue" stroke="midnightblue" points="351.087,-18.691 340.524,-19.5064 349.29,-25.4564 351.087,-18.691"/>
</g>
<!-- Node6 -->
<g id="node6" class="node"><title>Node6</title>
<polygon fill="white" stroke="#bfbfbf" points="390,-0.5 390,-19.5 523,-19.5 523,-0.5 390,-0.5"/>
<text text-anchor="middle" x="456.5" y="-7.5" font-family="Helvetica,sans-Serif" font-size="10.00">SFML/Graphics/Image.hpp</text>
</g>
<!-- Node1&#45;&gt;Node6 -->
<g id="edge5" class="edge"><title>Node1&#45;&gt;Node6</title>
<path fill="none" stroke="midnightblue" d="M514.489,-56.3993C502.762,-47.2185 487.485,-35.2579 475.555,-25.9182"/>
<polygon fill="midnightblue" stroke="midnightblue" points="477.59,-23.0664 467.559,-19.6578 473.275,-28.5782 477.59,-23.0664"/>
</g>
<!-- Node7 -->
<g id="node7" class="node"><title>Node7</title>
<polygon fill="white" stroke="#bfbfbf" points="541,-0.5 541,-19.5 678,-19.5 678,-0.5 541,-0.5"/>
<text text-anchor="middle" x="609.5" y="-7.5" font-family="Helvetica,sans-Serif" font-size="10.00">SFML/Graphics/Shader.hpp</text>
</g>
<!-- Node1&#45;&gt;Node7 -->
<g id="edge6" class="edge"><title>Node1&#45;&gt;Node7</title>
<path fill="none" stroke="midnightblue" d="M550.748,-56.3993C562.629,-47.2185 578.107,-35.2579 590.194,-25.9182"/>
<polygon fill="midnightblue" stroke="midnightblue" points="592.523,-28.5418 598.296,-19.6578 588.243,-23.0028 592.523,-28.5418"/>
</g>
<!-- Node8 -->
<g id="node8" class="node"><title>Node8</title>
<polygon fill="white" stroke="#bfbfbf" points="696.5,-0.5 696.5,-19.5 830.5,-19.5 830.5,-0.5 696.5,-0.5"/>
<text text-anchor="middle" x="763.5" y="-7.5" font-family="Helvetica,sans-Serif" font-size="10.00">SFML/Graphics/Shape.hpp</text>
</g>
<!-- Node1&#45;&gt;Node8 -->
<g id="edge7" class="edge"><title>Node1&#45;&gt;Node8</title>
<path fill="none" stroke="midnightblue" d="M586.951,-56.4747C627.674,-45.9856 682.604,-31.8367 720.32,-22.1221"/>
<polygon fill="midnightblue" stroke="midnightblue" points="721.664,-25.3902 730.475,-19.5064 719.918,-18.6114 721.664,-25.3902"/>
</g>
<!-- Node9 -->
<g id="node9" class="node"><title>Node9</title>
<polygon fill="white" stroke="#bfbfbf" points="848.5,-0.5 848.5,-19.5 980.5,-19.5 980.5,-0.5 848.5,-0.5"/>
<text text-anchor="middle" x="914.5" y="-7.5" font-family="Helvetica,sans-Serif" font-size="10.00">SFML/Graphics/Sprite.hpp</text>
</g>
<!-- Node1&#45;&gt;Node9 -->
<g id="edge8" class="edge"><title>Node1&#45;&gt;Node9</title>
<path fill="none" stroke="midnightblue" d="M601.677,-59.725C672.129,-48.7514 780.534,-31.8664 849.456,-21.1312"/>
<polygon fill="midnightblue" stroke="midnightblue" points="850.405,-24.5257 859.747,-19.5282 849.328,-17.6091 850.405,-24.5257"/>
</g>
<!-- Node10 -->
<g id="node10" class="node"><title>Node10</title>
<polygon fill="white" stroke="#bfbfbf" points="999,-0.5 999,-19.5 1138,-19.5 1138,-0.5 999,-0.5"/>
<text text-anchor="middle" x="1068.5" y="-7.5" font-family="Helvetica,sans-Serif" font-size="10.00">SFML/Graphics/Texture.hpp</text>
</g>
<!-- Node1&#45;&gt;Node10 -->
<g id="edge9" class="edge"><title>Node1&#45;&gt;Node10</title>
<path fill="none" stroke="midnightblue" d="M601.801,-62.9156C689.248,-53.329 844.574,-36.2459 988.381,-20.1223"/>
<polygon fill="midnightblue" stroke="midnightblue" points="989.167,-23.5562 998.715,-18.9632 988.387,-16.5998 989.167,-23.5562"/>
</g>
<!-- Node11 -->
<g id="node11" class="node"><title>Node11</title>
<polygon fill="white" stroke="#bfbfbf" points="1156,-0.5 1156,-19.5 1281,-19.5 1281,-0.5 1156,-0.5"/>
<text text-anchor="middle" x="1218.5" y="-7.5" font-family="Helvetica,sans-Serif" font-size="10.00">SFML/Graphics/Text.hpp</text>
</g>
<!-- Node1&#45;&gt;Node11 -->
<g id="edge10" class="edge"><title>Node1&#45;&gt;Node11</title>
<path fill="none" stroke="midnightblue" d="M601.766,-65.8139C713.889,-58.0071 942.334,-41.1855 1145.82,-20.1381"/>
<polygon fill="midnightblue" stroke="midnightblue" points="1146.21,-23.6163 1155.8,-19.1007 1145.49,-16.6538 1146.21,-23.6163"/>
</g>
</g>
</svg>
