<?xml version="1.0" encoding="UTF-8" standalone="no"?>
<!DOCTYPE svg PUBLIC "-//W3C//DTD SVG 1.1//EN"
 "http://www.w3.org/Graphics/SVG/1.1/DTD/svg11.dtd">
<!-- Generated by graphviz version 2.38.0 (20140413.2041)
 -->
<!-- Title: include/Small/Core/SceneManager.hpp Pages: 1 -->
<svg width="898pt" height="207pt"
 viewBox="0.00 0.00 897.50 207.00" xmlns="http://www.w3.org/2000/svg" xmlns:xlink="http://www.w3.org/1999/xlink">
<g id="graph0" class="graph" transform="scale(1 1) rotate(0) translate(4 203)">
<title>include/Small/Core/SceneManager.hpp</title>
<polygon fill="white" stroke="none" points="-4,4 -4,-203 893.5,-203 893.5,4 -4,4"/>
<!-- Node1 -->
<g id="node1" class="node"><title>Node1</title>
<polygon fill="#bfbfbf" stroke="black" points="351,-168.5 351,-198.5 455,-198.5 455,-168.5 351,-168.5"/>
<text text-anchor="start" x="359" y="-186.5" font-family="Helvetica,sans-Serif" font-size="10.00">include/Small/Core</text>
<text text-anchor="middle" x="403" y="-175.5" font-family="Helvetica,sans-Serif" font-size="10.00">/SceneManager.hpp</text>
</g>
<!-- Node2 -->
<g id="node2" class="node"><title>Node2</title>
<polygon fill="white" stroke="#bfbfbf" points="0,-0.5 0,-19.5 42,-19.5 42,-0.5 0,-0.5"/>
<text text-anchor="middle" x="21" y="-7.5" font-family="Helvetica,sans-Serif" font-size="10.00">vector</text>
</g>
<!-- Node1&#45;&gt;Node2 -->
<g id="edge1" class="edge"><title>Node1&#45;&gt;Node2</title>
<path fill="none" stroke="midnightblue" d="M350.69,-180.124C270.49,-175.537 122.004,-163.02 80,-132 45.9614,-106.862 30.5585,-56.758 24.4573,-29.5759"/>
<polygon fill="midnightblue" stroke="midnightblue" points="27.8836,-28.861 22.4407,-19.7712 21.0271,-30.2713 27.8836,-28.861"/>
</g>
<!-- Node3 -->
<g id="node3" class="node"><title>Node3</title>
<polygon fill="white" stroke="#bfbfbf" points="79,-0.5 79,-19.5 131,-19.5 131,-0.5 79,-0.5"/>
<text text-anchor="middle" x="105" y="-7.5" font-family="Helvetica,sans-Serif" font-size="10.00">memory</text>
</g>
<!-- Node1&#45;&gt;Node3 -->
<g id="edge2" class="edge"><title>Node1&#45;&gt;Node3</title>
<path fill="none" stroke="midnightblue" d="M350.909,-178.124C278.096,-171.235 150.382,-156.106 111,-132 78.0843,-111.852 56.2256,-92.417 69,-56 72.7852,-45.2094 80.3665,-35.084 87.5998,-27.1808"/>
<polygon fill="midnightblue" stroke="midnightblue" points="90.3256,-29.4005 94.8379,-19.8145 85.3326,-24.4943 90.3256,-29.4005"/>
</g>
<!-- Node4 -->
<g id="node4" class="node"><title>Node4</title>
<polygon fill="white" stroke="#bfbfbf" points="88,-56.5 88,-75.5 192,-75.5 192,-56.5 88,-56.5"/>
<text text-anchor="middle" x="140" y="-63.5" font-family="Helvetica,sans-Serif" font-size="10.00">SFML/Graphics.hpp</text>
</g>
<!-- Node1&#45;&gt;Node4 -->
<g id="edge3" class="edge"><title>Node1&#45;&gt;Node4</title>
<path fill="none" stroke="midnightblue" d="M371.014,-168.453C319.294,-145.739 218.112,-101.304 168.629,-79.5727"/>
<polygon fill="midnightblue" stroke="midnightblue" points="170.015,-76.3587 159.451,-75.5423 167.2,-82.7679 170.015,-76.3587"/>
</g>
<!-- Node5 -->
<g id="node5" class="node"><title>Node5</title>
<polygon fill="white" stroke="#bfbfbf" points="210,-56.5 210,-75.5 336,-75.5 336,-56.5 210,-56.5"/>
<text text-anchor="middle" x="273" y="-63.5" font-family="Helvetica,sans-Serif" font-size="10.00">SFML/System/Clock.hpp</text>
</g>
<!-- Node1&#45;&gt;Node5 -->
<g id="edge4" class="edge"><title>Node1&#45;&gt;Node5</title>
<path fill="none" stroke="midnightblue" d="M383.081,-168.388C369.679,-158.623 351.819,-145.08 337,-132 319.301,-116.379 300.515,-96.9112 287.908,-83.373"/>
<polygon fill="midnightblue" stroke="midnightblue" points="290.274,-80.776 280.922,-75.7972 285.128,-85.5214 290.274,-80.776"/>
</g>
<!-- Node6 -->
<g id="node6" class="node"><title>Node6</title>
<polygon fill="white" stroke="#bfbfbf" points="614,-56.5 614,-75.5 740,-75.5 740,-56.5 614,-56.5"/>
<text text-anchor="middle" x="677" y="-63.5" font-family="Helvetica,sans-Serif" font-size="10.00">SFML/Window/Event.hpp</text>
</g>
<!-- Node1&#45;&gt;Node6 -->
<g id="edge5" class="edge"><title>Node1&#45;&gt;Node6</title>
<path fill="none" stroke="midnightblue" d="M420.903,-168.429C441.722,-152.677 477.637,-127.353 512,-112 547.009,-96.3582 588.686,-85.0462 621.394,-77.6761"/>
<polygon fill="midnightblue" stroke="midnightblue" points="622.222,-81.0776 631.239,-75.5149 620.721,-74.2404 622.222,-81.0776"/>
</g>
<!-- Node7 -->
<g id="node7" class="node"><title>Node7</title>
<g id="a_node7"><a xlink:href="../../db/de8/Scene_8hpp.html" target="_top" xlink:title="The base scene class and the scene states are defined here. ">
<polygon fill="white" stroke="black" points="346,-112.5 346,-131.5 460,-131.5 460,-112.5 346,-112.5"/>
<text text-anchor="middle" x="403" y="-119.5" font-family="Helvetica,sans-Serif" font-size="10.00">Small/Core/Scene.hpp</text>
</a>
</g>
</g>
<!-- Node1&#45;&gt;Node7 -->
<g id="edge6" class="edge"><title>Node1&#45;&gt;Node7</title>
<path fill="none" stroke="midnightblue" d="M403,-168.399C403,-160.466 403,-150.458 403,-141.858"/>
<polygon fill="midnightblue" stroke="midnightblue" points="406.5,-141.658 403,-131.658 399.5,-141.658 406.5,-141.658"/>
</g>
<!-- Node9 -->
<g id="node9" class="node"><title>Node9</title>
<g id="a_node9"><a xlink:href="../../df/db4/Config_8hpp.html" target="_top" xlink:title="Small/Scripting/Config.hpp">
<polygon fill="white" stroke="black" points="758.5,-56.5 758.5,-75.5 889.5,-75.5 889.5,-56.5 758.5,-56.5"/>
<text text-anchor="middle" x="824" y="-63.5" font-family="Helvetica,sans-Serif" font-size="10.00">Small/Scripting/Config.hpp</text>
</a>
</g>
</g>
<!-- Node1&#45;&gt;Node9 -->
<g id="edge20" class="edge"><title>Node1&#45;&gt;Node9</title>
<path fill="none" stroke="midnightblue" d="M433.863,-168.417C455.146,-158.554 483.995,-144.886 509,-132 525.27,-123.615 527.705,-117.992 545,-112 581.565,-99.3323 678.999,-85.1902 748.406,-76.2004"/>
<polygon fill="midnightblue" stroke="midnightblue" points="748.96,-79.6581 758.433,-74.9122 748.068,-72.7152 748.96,-79.6581"/>
</g>
<!-- Node12 -->
<g id="node12" class="node"><title>Node12</title>
<polygon fill="white" stroke="#bfbfbf" points="158.5,-0.5 158.5,-19.5 307.5,-19.5 307.5,-0.5 158.5,-0.5"/>
<text text-anchor="middle" x="233" y="-7.5" font-family="Helvetica,sans-Serif" font-size="10.00">SFML/Graphics/Transform.hpp</text>
</g>
<!-- Node1&#45;&gt;Node12 -->
<g id="edge21" class="edge"><title>Node1&#45;&gt;Node12</title>
<path fill="none" stroke="midnightblue" d="M350.703,-182.82C276.042,-180.089 141.083,-162.631 79,-76 55.9588,-43.8479 101.112,-27.5069 148.372,-19.255"/>
<polygon fill="midnightblue" stroke="midnightblue" points="149.156,-22.6735 158.465,-17.6141 148.033,-15.7642 149.156,-22.6735"/>
</g>
<!-- Node15 -->
<g id="node15" class="node"><title>Node15</title>
<polygon fill="white" stroke="#bfbfbf" points="554,-112.5 554,-131.5 604,-131.5 604,-112.5 554,-112.5"/>
<text text-anchor="middle" x="579" y="-119.5" font-family="Helvetica,sans-Serif" font-size="10.00">typeinfo</text>
</g>
<!-- Node1&#45;&gt;Node15 -->
<g id="edge22" class="edge"><title>Node1&#45;&gt;Node15</title>
<path fill="none" stroke="midnightblue" d="M444.71,-168.399C475.08,-158.132 515.735,-144.388 544.329,-134.721"/>
<polygon fill="midnightblue" stroke="midnightblue" points="545.551,-138.003 553.903,-131.484 543.309,-131.371 545.551,-138.003"/>
</g>
<!-- Node16 -->
<g id="node16" class="node"><title>Node16</title>
<polygon fill="white" stroke="#bfbfbf" points="622.5,-112.5 622.5,-131.5 705.5,-131.5 705.5,-112.5 622.5,-112.5"/>
<text text-anchor="middle" x="664" y="-119.5" font-family="Helvetica,sans-Serif" font-size="10.00">unordered_map</text>
</g>
<!-- Node1&#45;&gt;Node16 -->
<g id="edge23" class="edge"><title>Node1&#45;&gt;Node16</title>
<path fill="none" stroke="midnightblue" d="M455.19,-170.602C502.351,-159.851 571.165,-144.163 616.737,-133.775"/>
<polygon fill="midnightblue" stroke="midnightblue" points="617.686,-137.148 626.658,-131.513 616.13,-130.323 617.686,-137.148"/>
</g>
<!-- Node17 -->
<g id="node17" class="node"><title>Node17</title>
<polygon fill="white" stroke="#bfbfbf" points="723.5,-112.5 723.5,-131.5 818.5,-131.5 818.5,-112.5 723.5,-112.5"/>
<text text-anchor="middle" x="771" y="-119.5" font-family="Helvetica,sans-Serif" font-size="10.00">SceneManager.inl</text>
</g>
<!-- Node1&#45;&gt;Node17 -->
<g id="edge24" class="edge"><title>Node1&#45;&gt;Node17</title>
<path fill="none" stroke="midnightblue" d="M455.335,-174.038C523.517,-163.014 642.352,-143.8 713.146,-132.354"/>
<polygon fill="midnightblue" stroke="midnightblue" points="713.918,-135.775 723.231,-130.723 712.801,-128.865 713.918,-135.775"/>
</g>
<!-- Node7&#45;&gt;Node4 -->
<g id="edge7" class="edge"><title>Node7&#45;&gt;Node4</title>
<path fill="none" stroke="midnightblue" d="M361.327,-112.444C315.255,-102.984 241.004,-87.7384 191.369,-77.5472"/>
<polygon fill="midnightblue" stroke="midnightblue" points="191.978,-74.0993 181.478,-75.5164 190.57,-80.9563 191.978,-74.0993"/>
</g>
<!-- Node7&#45;&gt;Node5 -->
<g id="edge8" class="edge"><title>Node7&#45;&gt;Node5</title>
<path fill="none" stroke="midnightblue" d="M382.401,-112.444C361.007,-103.557 327.319,-89.5632 302.976,-79.4514"/>
<polygon fill="midnightblue" stroke="midnightblue" points="304.08,-76.1203 293.503,-75.5164 301.395,-82.5848 304.08,-76.1203"/>
</g>
<!-- Node7&#45;&gt;Node6 -->
<g id="edge9" class="edge"><title>Node7&#45;&gt;Node6</title>
<path fill="none" stroke="midnightblue" d="M446.416,-112.444C494.515,-102.964 572.095,-87.6747 623.806,-77.4835"/>
<polygon fill="midnightblue" stroke="midnightblue" points="624.653,-80.8841 633.787,-75.5164 623.299,-74.0162 624.653,-80.8841"/>
</g>
<!-- Node8 -->
<g id="node8" class="node"><title>Node8</title>
<polygon fill="white" stroke="#bfbfbf" points="734.5,-0.5 734.5,-19.5 775.5,-19.5 775.5,-0.5 734.5,-0.5"/>
<text text-anchor="middle" x="755" y="-7.5" font-family="Helvetica,sans-Serif" font-size="10.00">string</text>
</g>
<!-- Node7&#45;&gt;Node8 -->
<g id="edge10" class="edge"><title>Node7&#45;&gt;Node8</title>
<path fill="none" stroke="midnightblue" d="M419.901,-112.432C437.64,-103.422 466.325,-88.8018 491,-76 507.941,-67.2107 511.011,-62.3739 529,-56 596.41,-32.116 679.875,-19.6456 724.104,-14.2948"/>
<polygon fill="midnightblue" stroke="midnightblue" points="724.687,-17.7506 734.213,-13.114 723.875,-10.7979 724.687,-17.7506"/>
</g>
<!-- Node7&#45;&gt;Node9 -->
<g id="edge11" class="edge"><title>Node7&#45;&gt;Node9</title>
<path fill="none" stroke="midnightblue" d="M460.216,-113.661C534.782,-104.097 665.396,-87.3435 748.154,-76.7285"/>
<polygon fill="midnightblue" stroke="midnightblue" points="748.778,-80.1772 758.252,-75.4333 747.888,-73.234 748.778,-80.1772"/>
</g>
<!-- Node10 -->
<g id="node10" class="node"><title>Node10</title>
<g id="a_node10"><a xlink:href="../../d7/dc6/Node_8hpp.html" target="_top" xlink:title="A scene graph node. ">
<polygon fill="white" stroke="black" points="354,-56.5 354,-75.5 482,-75.5 482,-56.5 354,-56.5"/>
<text text-anchor="middle" x="418" y="-63.5" font-family="Helvetica,sans-Serif" font-size="10.00">Small/Graphics/Node.hpp</text>
</a>
</g>
</g>
<!-- Node7&#45;&gt;Node10 -->
<g id="edge13" class="edge"><title>Node7&#45;&gt;Node10</title>
<path fill="none" stroke="midnightblue" d="M405.477,-112.083C407.486,-104.849 410.386,-94.4087 412.89,-85.3968"/>
<polygon fill="midnightblue" stroke="midnightblue" points="416.265,-86.323 415.569,-75.7511 409.52,-84.4495 416.265,-86.323"/>
</g>
<!-- Node14 -->
<g id="node14" class="node"><title>Node14</title>
<polygon fill="white" stroke="#bfbfbf" points="538.5,-56.5 538.5,-75.5 595.5,-75.5 595.5,-56.5 538.5,-56.5"/>
<text text-anchor="middle" x="567" y="-63.5" font-family="Helvetica,sans-Serif" font-size="10.00">Scene.inl</text>
</g>
<!-- Node7&#45;&gt;Node14 -->
<g id="edge19" class="edge"><title>Node7&#45;&gt;Node14</title>
<path fill="none" stroke="midnightblue" d="M428.986,-112.444C456.696,-103.32 500.752,-88.8133 531.616,-78.6509"/>
<polygon fill="midnightblue" stroke="midnightblue" points="532.732,-81.9684 541.135,-75.5164 530.542,-75.3196 532.732,-81.9684"/>
</g>
<!-- Node9&#45;&gt;Node8 -->
<g id="edge12" class="edge"><title>Node9&#45;&gt;Node8</title>
<path fill="none" stroke="midnightblue" d="M812.914,-56.324C802.514,-48.1849 786.739,-35.8395 774.278,-26.0874"/>
<polygon fill="midnightblue" stroke="midnightblue" points="776.32,-23.2407 766.288,-19.8339 772.006,-28.7533 776.32,-23.2407"/>
</g>
<!-- Node10&#45;&gt;Node2 -->
<g id="edge17" class="edge"><title>Node10&#45;&gt;Node2</title>
<path fill="none" stroke="midnightblue" d="M353.676,-56.8701C260.821,-45.1054 97.3104,-24.2708 70,-20 64.3387,-19.1147 58.3259,-18.0848 52.5228,-17.0446"/>
<polygon fill="midnightblue" stroke="midnightblue" points="52.8924,-13.554 42.4246,-15.1898 51.6278,-20.4388 52.8924,-13.554"/>
</g>
<!-- Node10&#45;&gt;Node3 -->
<g id="edge18" class="edge"><title>Node10&#45;&gt;Node3</title>
<path fill="none" stroke="midnightblue" d="M363.543,-56.48C309.132,-47.8283 223.136,-33.7784 149,-20 146.36,-19.5094 143.634,-18.9879 140.893,-18.4527"/>
<polygon fill="midnightblue" stroke="midnightblue" points="141.519,-15.0087 131.028,-16.4854 140.15,-21.8735 141.519,-15.0087"/>
</g>
<!-- Node11 -->
<g id="node11" class="node"><title>Node11</title>
<polygon fill="white" stroke="#bfbfbf" points="331,-0.5 331,-19.5 495,-19.5 495,-0.5 331,-0.5"/>
<text text-anchor="middle" x="413" y="-7.5" font-family="Helvetica,sans-Serif" font-size="10.00">SFML/Graphics/RenderTarget.hpp</text>
</g>
<!-- Node10&#45;&gt;Node11 -->
<g id="edge14" class="edge"><title>Node10&#45;&gt;Node11</title>
<path fill="none" stroke="midnightblue" d="M417.174,-56.083C416.519,-49.0059 415.58,-38.8611 414.758,-29.9865"/>
<polygon fill="midnightblue" stroke="midnightblue" points="418.217,-29.3858 413.81,-19.7511 411.247,-30.0312 418.217,-29.3858"/>
</g>
<!-- Node10&#45;&gt;Node12 -->
<g id="edge15" class="edge"><title>Node10&#45;&gt;Node12</title>
<path fill="none" stroke="midnightblue" d="M388.686,-56.4435C357.158,-47.2406 306.869,-32.5617 272.014,-22.3879"/>
<polygon fill="midnightblue" stroke="midnightblue" points="272.757,-18.9587 262.177,-19.5164 270.795,-25.6783 272.757,-18.9587"/>
</g>
<!-- Node13 -->
<g id="node13" class="node"><title>Node13</title>
<polygon fill="white" stroke="#bfbfbf" points="513.5,-0.5 513.5,-19.5 648.5,-19.5 648.5,-0.5 513.5,-0.5"/>
<text text-anchor="middle" x="581" y="-7.5" font-family="Helvetica,sans-Serif" font-size="10.00">SFML/System/Vector2.hpp</text>
</g>
<!-- Node10&#45;&gt;Node13 -->
<g id="edge16" class="edge"><title>Node10&#45;&gt;Node13</title>
<path fill="none" stroke="midnightblue" d="M443.828,-56.4435C471.249,-47.3591 514.777,-32.9388 545.432,-22.7831"/>
<polygon fill="midnightblue" stroke="midnightblue" points="546.901,-25.9837 555.293,-19.5164 544.7,-19.3389 546.901,-25.9837"/>
</g>
</g>
</svg>
