<?xml version="1.0" encoding="UTF-8" standalone="no"?>
<!DOCTYPE svg PUBLIC "-//W3C//DTD SVG 1.1//EN"
 "http://www.w3.org/Graphics/SVG/1.1/DTD/svg11.dtd">
<!-- Generated by graphviz version 2.38.0 (20140413.2041)
 -->
<!-- Title: include/Small/Core/SceneManager.hpp Pages: 1 -->
<!--zoomable 207 -->
<svg id="main" version="1.1" xmlns="http://www.w3.org/2000/svg" xmlns:xlink="http://www.w3.org/1999/xlink" xml:space="preserve" onload="init(evt)">
<style type="text/css"><![CDATA[
.edge:hover path { stroke: red; }
.edge:hover polygon { stroke: red; fill: red; }
]]></style>
<script type="text/javascript"><![CDATA[
var edges = document.getElementsByTagName('g');
if (edges && edges.length) {
  for (var i=0;i<edges.length;i++) {
    if (edges[i].id.substr(0,4)=='edge') {
      edges[i].setAttribute('class','edge');
    }
  }
}
]]></script>
        <defs>
                <circle id="rim" cx="0" cy="0" r="7"/>
                <circle id="rim2" cx="0" cy="0" r="3.5"/>
                <g id="zoomPlus">
                        <use xlink:href="#rim" fill="#404040">
                                <set attributeName="fill" to="#808080" begin="zoomplus.mouseover" end="zoomplus.mouseout"/>
                        </use>
                        <path d="M-4,0h8M0,-4v8" fill="none" stroke="white" stroke-width="1.5" pointer-events="none"/>
                </g>
                <g id="zoomMin">
                        <use xlink:href="#rim" fill="#404040">
                                <set attributeName="fill" to="#808080" begin="zoomminus.mouseover" end="zoomminus.mouseout"/>
                        </use>
                        <path d="M-4,0h8" fill="none" stroke="white" stroke-width="1.5" pointer-events="none"/>
                </g>
                <g id="dirArrow">
                        <path fill="none" stroke="white" stroke-width="1.5" d="M0,-3.0v7 M-2.5,-0.5L0,-3.0L2.5,-0.5"/>
                </g>
               <g id="resetDef">
                       <use xlink:href="#rim2" fill="#404040">
                               <set attributeName="fill" to="#808080" begin="reset.mouseover" end="reset.mouseout"/>
                       </use>
               </g>
        </defs>

<script type="text/javascript">
var viewWidth = 898;
var viewHeight = 207;
var sectionId = 'dynsection-0';
</script>
<script xlink:href="../../svgpan.js"/>
<svg id="graph" class="graph">
<g id="viewport">
<title>include/Small/Core/SceneManager.hpp</title>
<polygon fill="white" stroke="none" points="-4,4 -4,-203 893.5,-203 893.5,4 -4,4"/>
<!-- Node1 -->
<g id="node1" class="node"><title>Node1</title>
<polygon fill="#bfbfbf" stroke="black" points="221,-168.5 221,-198.5 325,-198.5 325,-168.5 221,-168.5"/>
<text text-anchor="start" x="229" y="-186.5" font-family="Helvetica,sans-Serif" font-size="10.00">include/Small/Core</text>
<text text-anchor="middle" x="273" y="-175.5" font-family="Helvetica,sans-Serif" font-size="10.00">/SceneManager.hpp</text>
</g>
<!-- Node2 -->
<g id="node2" class="node"><title>Node2</title>
<polygon fill="white" stroke="#bfbfbf" points="0,-0.5 0,-19.5 42,-19.5 42,-0.5 0,-0.5"/>
<text text-anchor="middle" x="21" y="-7.5" font-family="Helvetica,sans-Serif" font-size="10.00">vector</text>
</g>
<!-- Node1&#45;&gt;Node2 -->
<g id="edge1" class="edge"><title>Node1&#45;&gt;Node2</title>
<path fill="none" stroke="midnightblue" d="M220.854,-180.37C178.927,-176.15 120.675,-164.336 81,-132 48.2381,-105.299 31.8661,-56.2114 25.0457,-29.4996"/>
<polygon fill="midnightblue" stroke="midnightblue" points="28.3999,-28.475 22.6875,-19.5521 21.5886,-30.0898 28.3999,-28.475"/>
</g>
<!-- Node3 -->
<g id="node3" class="node"><title>Node3</title>
<polygon fill="white" stroke="#bfbfbf" points="79,-0.5 79,-19.5 131,-19.5 131,-0.5 79,-0.5"/>
<text text-anchor="middle" x="105" y="-7.5" font-family="Helvetica,sans-Serif" font-size="10.00">memory</text>
</g>
<!-- Node1&#45;&gt;Node3 -->
<g id="edge2" class="edge"><title>Node1&#45;&gt;Node3</title>
<path fill="none" stroke="midnightblue" d="M220.775,-176.043C185.999,-169.593 140.836,-156.871 108,-132 78.2059,-109.433 60.3716,-91.5207 72,-56 75.4899,-45.3397 82.5731,-35.1174 89.2855,-27.1175"/>
<polygon fill="midnightblue" stroke="midnightblue" points="91.9044,-29.4395 95.9802,-19.66 86.6954,-24.7633 91.9044,-29.4395"/>
</g>
<!-- Node4 -->
<g id="node4" class="node"><title>Node4</title>
<polygon fill="white" stroke="#bfbfbf" points="88,-56.5 88,-75.5 192,-75.5 192,-56.5 88,-56.5"/>
<text text-anchor="middle" x="140" y="-63.5" font-family="Helvetica,sans-Serif" font-size="10.00">SFML/Graphics.hpp</text>
</g>
<!-- Node1&#45;&gt;Node4 -->
<g id="edge3" class="edge"><title>Node1&#45;&gt;Node4</title>
<path fill="none" stroke="midnightblue" d="M256.692,-168.337C231.53,-146.487 183.449,-104.732 157.554,-82.244"/>
<polygon fill="midnightblue" stroke="midnightblue" points="159.828,-79.5837 149.983,-75.6695 155.238,-84.869 159.828,-79.5837"/>
</g>
<!-- Node5 -->
<g id="node5" class="node"><title>Node5</title>
<polygon fill="white" stroke="#bfbfbf" points="210,-56.5 210,-75.5 336,-75.5 336,-56.5 210,-56.5"/>
<text text-anchor="middle" x="273" y="-63.5" font-family="Helvetica,sans-Serif" font-size="10.00">SFML/System/Clock.hpp</text>
</g>
<!-- Node1&#45;&gt;Node5 -->
<g id="edge4" class="edge"><title>Node1&#45;&gt;Node5</title>
<path fill="none" stroke="midnightblue" d="M273,-168.337C273,-147.622 273,-109.016 273,-85.8991"/>
<polygon fill="midnightblue" stroke="midnightblue" points="276.5,-85.6694 273,-75.6695 269.5,-85.6695 276.5,-85.6694"/>
</g>
<!-- Node6 -->
<g id="node6" class="node"><title>Node6</title>
<polygon fill="white" stroke="#bfbfbf" points="614,-56.5 614,-75.5 740,-75.5 740,-56.5 614,-56.5"/>
<text text-anchor="middle" x="677" y="-63.5" font-family="Helvetica,sans-Serif" font-size="10.00">SFML/Window/Event.hpp</text>
</g>
<!-- Node1&#45;&gt;Node6 -->
<g id="edge5" class="edge"><title>Node1&#45;&gt;Node6</title>
<path fill="none" stroke="midnightblue" d="M325.429,-172.996C368.638,-164.443 431.177,-150.397 484,-132 503.905,-125.068 507.299,-119.492 527,-112 562.275,-98.5851 603.397,-86.4877 633.654,-78.2231"/>
<polygon fill="midnightblue" stroke="midnightblue" points="634.733,-81.5572 643.474,-75.5709 632.908,-74.7993 634.733,-81.5572"/>
</g>
<!-- Node7 -->
<g id="node7" class="node"><title>Node7</title>
<g id="a_node7"><a xlink:href="../../db/de8/Scene_8hpp.html" target="_top" xlink:title="The base scene class and the scene states are defined here. ">
<polygon fill="white" stroke="black" points="361,-112.5 361,-131.5 475,-131.5 475,-112.5 361,-112.5"/>
<text text-anchor="middle" x="418" y="-119.5" font-family="Helvetica,sans-Serif" font-size="10.00">Small/Core/Scene.hpp</text>
</a>
</g>
</g>
<!-- Node1&#45;&gt;Node7 -->
<g id="edge6" class="edge"><title>Node1&#45;&gt;Node7</title>
<path fill="none" stroke="midnightblue" d="M307.363,-168.399C331.691,-158.416 364.029,-145.147 387.456,-135.534"/>
<polygon fill="midnightblue" stroke="midnightblue" points="388.979,-138.692 396.901,-131.658 386.321,-132.216 388.979,-138.692"/>
</g>
<!-- Node9 -->
<g id="node9" class="node"><title>Node9</title>
<g id="a_node9"><a xlink:href="../../df/db4/Config_8hpp.html" target="_top" xlink:title="Small/Scripting/Config.hpp">
<polygon fill="white" stroke="black" points="758.5,-56.5 758.5,-75.5 889.5,-75.5 889.5,-56.5 758.5,-56.5"/>
<text text-anchor="middle" x="824" y="-63.5" font-family="Helvetica,sans-Serif" font-size="10.00">Small/Scripting/Config.hpp</text>
</a>
</g>
</g>
<!-- Node1&#45;&gt;Node9 -->
<g id="edge20" class="edge"><title>Node1&#45;&gt;Node9</title>
<path fill="none" stroke="midnightblue" d="M325.141,-175.893C375.869,-168.527 454.636,-154.583 520,-132 538.786,-125.509 541.109,-118.181 560,-112 594.552,-100.694 685.406,-86.4084 750.882,-77.0028"/>
<polygon fill="midnightblue" stroke="midnightblue" points="751.755,-80.4138 761.16,-75.5363 750.766,-73.484 751.755,-80.4138"/>
</g>
<!-- Node12 -->
<g id="node12" class="node"><title>Node12</title>
<polygon fill="white" stroke="#bfbfbf" points="158.5,-0.5 158.5,-19.5 307.5,-19.5 307.5,-0.5 158.5,-0.5"/>
<text text-anchor="middle" x="233" y="-7.5" font-family="Helvetica,sans-Serif" font-size="10.00">SFML/Graphics/Transform.hpp</text>
</g>
<!-- Node1&#45;&gt;Node12 -->
<g id="edge21" class="edge"><title>Node1&#45;&gt;Node12</title>
<path fill="none" stroke="midnightblue" d="M220.848,-169.919C174.47,-155.665 109.429,-127.417 79,-76 74.4729,-68.3503 73.6684,-63.1124 79,-56 90.3106,-40.9113 132.737,-29.1952 170.201,-21.5051"/>
<polygon fill="midnightblue" stroke="midnightblue" points="170.972,-24.9203 180.099,-19.5404 169.609,-18.0543 170.972,-24.9203"/>
</g>
<!-- Node15 -->
<g id="node15" class="node"><title>Node15</title>
<polygon fill="white" stroke="#bfbfbf" points="569.5,-112.5 569.5,-131.5 664.5,-131.5 664.5,-112.5 569.5,-112.5"/>
<text text-anchor="middle" x="617" y="-119.5" font-family="Helvetica,sans-Serif" font-size="10.00">SceneManager.inl</text>
</g>
<!-- Node1&#45;&gt;Node15 -->
<g id="edge22" class="edge"><title>Node1&#45;&gt;Node15</title>
<path fill="none" stroke="midnightblue" d="M325.246,-173.463C388.225,-162.57 493.728,-144.322 559.123,-133.011"/>
<polygon fill="midnightblue" stroke="midnightblue" points="560.004,-136.41 569.261,-131.257 558.811,-129.513 560.004,-136.41"/>
</g>
<!-- Node7&#45;&gt;Node4 -->
<g id="edge7" class="edge"><title>Node7&#45;&gt;Node4</title>
<path fill="none" stroke="midnightblue" d="M373.95,-112.444C325.149,-102.964 246.437,-87.6747 193.97,-77.4835"/>
<polygon fill="midnightblue" stroke="midnightblue" points="194.328,-73.9875 183.844,-75.5164 192.993,-80.8591 194.328,-73.9875"/>
</g>
<!-- Node7&#45;&gt;Node5 -->
<g id="edge8" class="edge"><title>Node7&#45;&gt;Node5</title>
<path fill="none" stroke="midnightblue" d="M395.024,-112.444C370.843,-103.438 332.582,-89.1891 305.354,-79.049"/>
<polygon fill="midnightblue" stroke="midnightblue" points="306.461,-75.7265 295.868,-75.5164 304.018,-82.2864 306.461,-75.7265"/>
</g>
<!-- Node7&#45;&gt;Node6 -->
<g id="edge9" class="edge"><title>Node7&#45;&gt;Node6</title>
<path fill="none" stroke="midnightblue" d="M459.039,-112.444C504.316,-103.004 577.227,-87.802 626.106,-77.6111"/>
<polygon fill="midnightblue" stroke="midnightblue" points="627.078,-80.9839 636.153,-75.5164 625.649,-74.1312 627.078,-80.9839"/>
</g>
<!-- Node8 -->
<g id="node8" class="node"><title>Node8</title>
<polygon fill="white" stroke="#bfbfbf" points="734.5,-0.5 734.5,-19.5 775.5,-19.5 775.5,-0.5 734.5,-0.5"/>
<text text-anchor="middle" x="755" y="-7.5" font-family="Helvetica,sans-Serif" font-size="10.00">string</text>
</g>
<!-- Node7&#45;&gt;Node8 -->
<g id="edge10" class="edge"><title>Node7&#45;&gt;Node8</title>
<path fill="none" stroke="midnightblue" d="M432.17,-112.346C459.746,-95.557 518.823,-59.8672 529,-56 596.024,-30.5306 679.971,-18.6673 724.295,-13.8423"/>
<polygon fill="midnightblue" stroke="midnightblue" points="724.835,-17.3051 734.419,-12.7887 724.111,-10.3427 724.835,-17.3051"/>
</g>
<!-- Node7&#45;&gt;Node9 -->
<g id="edge11" class="edge"><title>Node7&#45;&gt;Node9</title>
<path fill="none" stroke="midnightblue" d="M475.309,-113.378C547.166,-103.82 670.498,-87.4166 749.58,-76.8982"/>
<polygon fill="midnightblue" stroke="midnightblue" points="750.505,-80.3061 759.956,-75.5182 749.582,-73.3672 750.505,-80.3061"/>
</g>
<!-- Node10 -->
<g id="node10" class="node"><title>Node10</title>
<g id="a_node10"><a xlink:href="../../d7/dc6/Node_8hpp.html" target="_top" xlink:title="A scene graph node. ">
<polygon fill="white" stroke="black" points="354,-56.5 354,-75.5 482,-75.5 482,-56.5 354,-56.5"/>
<text text-anchor="middle" x="418" y="-63.5" font-family="Helvetica,sans-Serif" font-size="10.00">Small/Graphics/Node.hpp</text>
</a>
</g>
</g>
<!-- Node7&#45;&gt;Node10 -->
<g id="edge13" class="edge"><title>Node7&#45;&gt;Node10</title>
<path fill="none" stroke="midnightblue" d="M418,-112.083C418,-105.006 418,-94.8611 418,-85.9865"/>
<polygon fill="midnightblue" stroke="midnightblue" points="421.5,-85.751 418,-75.7511 414.5,-85.7511 421.5,-85.751"/>
</g>
<!-- Node14 -->
<g id="node14" class="node"><title>Node14</title>
<polygon fill="white" stroke="#bfbfbf" points="538.5,-56.5 538.5,-75.5 595.5,-75.5 595.5,-56.5 538.5,-56.5"/>
<text text-anchor="middle" x="567" y="-63.5" font-family="Helvetica,sans-Serif" font-size="10.00">Scene.inl</text>
</g>
<!-- Node7&#45;&gt;Node14 -->
<g id="edge19" class="edge"><title>Node7&#45;&gt;Node14</title>
<path fill="none" stroke="midnightblue" d="M441.609,-112.444C466.458,-103.438 505.774,-89.1891 533.754,-79.049"/>
<polygon fill="midnightblue" stroke="midnightblue" points="535.292,-82.2144 543.501,-75.5164 532.907,-75.6332 535.292,-82.2144"/>
</g>
<!-- Node9&#45;&gt;Node8 -->
<g id="edge12" class="edge"><title>Node9&#45;&gt;Node8</title>
<path fill="none" stroke="midnightblue" d="M812.914,-56.324C802.514,-48.1849 786.739,-35.8395 774.278,-26.0874"/>
<polygon fill="midnightblue" stroke="midnightblue" points="776.32,-23.2407 766.288,-19.8339 772.006,-28.7533 776.32,-23.2407"/>
</g>
<!-- Node10&#45;&gt;Node2 -->
<g id="edge17" class="edge"><title>Node10&#45;&gt;Node2</title>
<path fill="none" stroke="midnightblue" d="M353.676,-56.8701C260.821,-45.1054 97.3104,-24.2708 70,-20 64.3387,-19.1147 58.3259,-18.0848 52.5228,-17.0446"/>
<polygon fill="midnightblue" stroke="midnightblue" points="52.8924,-13.554 42.4246,-15.1898 51.6278,-20.4388 52.8924,-13.554"/>
</g>
<!-- Node10&#45;&gt;Node3 -->
<g id="edge18" class="edge"><title>Node10&#45;&gt;Node3</title>
<path fill="none" stroke="midnightblue" d="M363.543,-56.48C309.132,-47.8283 223.136,-33.7784 149,-20 146.36,-19.5094 143.634,-18.9879 140.893,-18.4527"/>
<polygon fill="midnightblue" stroke="midnightblue" points="141.519,-15.0087 131.028,-16.4854 140.15,-21.8735 141.519,-15.0087"/>
</g>
<!-- Node11 -->
<g id="node11" class="node"><title>Node11</title>
<polygon fill="white" stroke="#bfbfbf" points="331,-0.5 331,-19.5 495,-19.5 495,-0.5 331,-0.5"/>
<text text-anchor="middle" x="413" y="-7.5" font-family="Helvetica,sans-Serif" font-size="10.00">SFML/Graphics/RenderTarget.hpp</text>
</g>
<!-- Node10&#45;&gt;Node11 -->
<g id="edge14" class="edge"><title>Node10&#45;&gt;Node11</title>
<path fill="none" stroke="midnightblue" d="M417.174,-56.083C416.519,-49.0059 415.58,-38.8611 414.758,-29.9865"/>
<polygon fill="midnightblue" stroke="midnightblue" points="418.217,-29.3858 413.81,-19.7511 411.247,-30.0312 418.217,-29.3858"/>
</g>
<!-- Node10&#45;&gt;Node12 -->
<g id="edge15" class="edge"><title>Node10&#45;&gt;Node12</title>
<path fill="none" stroke="midnightblue" d="M388.686,-56.4435C357.158,-47.2406 306.869,-32.5617 272.014,-22.3879"/>
<polygon fill="midnightblue" stroke="midnightblue" points="272.757,-18.9587 262.177,-19.5164 270.795,-25.6783 272.757,-18.9587"/>
</g>
<!-- Node13 -->
<g id="node13" class="node"><title>Node13</title>
<polygon fill="white" stroke="#bfbfbf" points="513.5,-0.5 513.5,-19.5 648.5,-19.5 648.5,-0.5 513.5,-0.5"/>
<text text-anchor="middle" x="581" y="-7.5" font-family="Helvetica,sans-Serif" font-size="10.00">SFML/System/Vector2.hpp</text>
</g>
<!-- Node10&#45;&gt;Node13 -->
<g id="edge16" class="edge"><title>Node10&#45;&gt;Node13</title>
<path fill="none" stroke="midnightblue" d="M443.828,-56.4435C471.249,-47.3591 514.777,-32.9388 545.432,-22.7831"/>
<polygon fill="midnightblue" stroke="midnightblue" points="546.901,-25.9837 555.293,-19.5164 544.7,-19.3389 546.901,-25.9837"/>
</g>
</g>
</svg>
        <g id="navigator" transform="translate(0 0)" fill="#404254">
                <rect fill="#f2f5e9" fill-opacity="0.5" stroke="#606060" stroke-width=".5" x="0" y="0" width="60" height="60"/>
                <use id="zoomplus" xlink:href="#zoomPlus" x="17" y="9" onmousedown="handleZoom(evt,'in')"/>
                <use id="zoomminus" xlink:href="#zoomMin" x="42" y="9" onmousedown="handleZoom(evt,'out')"/>
                <use id="reset" xlink:href="#resetDef" x="30" y="36" onmousedown="handleReset()"/>
                <g id="arrowUp" xlink:href="#dirArrow" transform="translate(30 24)" onmousedown="handlePan(0,-1)">
                  <use xlink:href="#rim" fill="#404040">
                        <set attributeName="fill" to="#808080" begin="arrowUp.mouseover" end="arrowUp.mouseout"/>
                  </use>
                  <path fill="none" stroke="white" stroke-width="1.5" d="M0,-3.0v7 M-2.5,-0.5L0,-3.0L2.5,-0.5"/>
                </g>
                <g id="arrowRight" xlink:href="#dirArrow" transform="rotate(90) translate(36 -43)" onmousedown="handlePan(1,0)">
                  <use xlink:href="#rim" fill="#404040">
                        <set attributeName="fill" to="#808080" begin="arrowRight.mouseover" end="arrowRight.mouseout"/>
                  </use>
                  <path fill="none" stroke="white" stroke-width="1.5" d="M0,-3.0v7 M-2.5,-0.5L0,-3.0L2.5,-0.5"/>
                </g>
                <g id="arrowDown" xlink:href="#dirArrow" transform="rotate(180) translate(-30 -48)" onmousedown="handlePan(0,1)">
                  <use xlink:href="#rim" fill="#404040">
                        <set attributeName="fill" to="#808080" begin="arrowDown.mouseover" end="arrowDown.mouseout"/>
                  </use>
                  <path fill="none" stroke="white" stroke-width="1.5" d="M0,-3.0v7 M-2.5,-0.5L0,-3.0L2.5,-0.5"/>
                </g>
                <g id="arrowLeft" xlink:href="#dirArrow" transform="rotate(270) translate(-36 17)" onmousedown="handlePan(-1,0)">
                  <use xlink:href="#rim" fill="#404040">
                        <set attributeName="fill" to="#808080" begin="arrowLeft.mouseover" end="arrowLeft.mouseout"/>
                  </use>
                  <path fill="none" stroke="white" stroke-width="1.5" d="M0,-3.0v7 M-2.5,-0.5L0,-3.0L2.5,-0.5"/>
                </g>
        </g>
        <svg viewBox="0 0 15 15" width="100%" height="30px" preserveAspectRatio="xMaxYMin meet">
         <g id="arrow_out" transform="scale(0.3 0.3)">
          <a xlink:href="SceneManager_8hpp__incl_org.svg" target="_base">
           <rect id="button" ry="5" rx="5" y="6" x="6" height="38" width="38"
                fill="#f2f5e9" fill-opacity="0.5" stroke="#606060" stroke-width="1.0"/>
           <path id="arrow"
             d="M 11.500037,31.436501 C 11.940474,20.09759 22.043105,11.32322 32.158766,21.979434 L 37.068811,17.246167 C 37.068811,17.246167 37.088388,32 37.088388,32 L 22.160133,31.978069 C 22.160133,31.978069 26.997745,27.140456 26.997745,27.140456 C 18.528582,18.264221 13.291696,25.230495 11.500037,31.436501 z"
             style="fill:#404040;"/>
          </a>
         </g>
        </svg>
</svg>
