<?xml version="1.0" encoding="UTF-8" standalone="no"?>
<!DOCTYPE svg PUBLIC "-//W3C//DTD SVG 1.1//EN"
 "http://www.w3.org/Graphics/SVG/1.1/DTD/svg11.dtd">
<!-- Generated by graphviz version 2.38.0 (20140413.2041)
 -->
<!-- Title: C:/Users/Folaefolc/Documents/Code/Big&#45;Projects/ScriptWizards/SmallGameLibrary/include/Small/Widgets/Base.hpp Pages: 1 -->
<svg width="964pt" height="372pt"
 viewBox="0.00 0.00 963.50 372.00" xmlns="http://www.w3.org/2000/svg" xmlns:xlink="http://www.w3.org/1999/xlink">
<g id="graph0" class="graph" transform="scale(1 1) rotate(0) translate(4 368)">
<title>C:/Users/Folaefolc/Documents/Code/Big&#45;Projects/ScriptWizards/SmallGameLibrary/include/Small/Widgets/Base.hpp</title>
<polygon fill="white" stroke="none" points="-4,4 -4,-368 959.5,-368 959.5,4 -4,4"/>
<!-- Node1 -->
<g id="node1" class="node"><title>Node1</title>
<polygon fill="#bfbfbf" stroke="black" points="358,-300.5 358,-363.5 492,-363.5 492,-300.5 358,-300.5"/>
<text text-anchor="start" x="366" y="-351.5" font-family="Helvetica,sans-Serif" font-size="10.00">C:/Users/Folaefolc</text>
<text text-anchor="start" x="366" y="-340.5" font-family="Helvetica,sans-Serif" font-size="10.00">/Documents/Code/Big</text>
<text text-anchor="start" x="366" y="-329.5" font-family="Helvetica,sans-Serif" font-size="10.00">&#45;Projects/ScriptWizards</text>
<text text-anchor="start" x="366" y="-318.5" font-family="Helvetica,sans-Serif" font-size="10.00">/SmallGameLibrary/include</text>
<text text-anchor="middle" x="425" y="-307.5" font-family="Helvetica,sans-Serif" font-size="10.00">/Small/Widgets/Base.hpp</text>
</g>
<!-- Node2 -->
<g id="node2" class="node"><title>Node2</title>
<g id="a_node2"><a xlink:href="../../d4/db3/Button_8hpp.html" target="_top" xlink:title="Basic button widget. ">
<polygon fill="white" stroke="black" points="0,-200.5 0,-263.5 134,-263.5 134,-200.5 0,-200.5"/>
<text text-anchor="start" x="8" y="-251.5" font-family="Helvetica,sans-Serif" font-size="10.00">C:/Users/Folaefolc</text>
<text text-anchor="start" x="8" y="-240.5" font-family="Helvetica,sans-Serif" font-size="10.00">/Documents/Code/Big</text>
<text text-anchor="start" x="8" y="-229.5" font-family="Helvetica,sans-Serif" font-size="10.00">&#45;Projects/ScriptWizards</text>
<text text-anchor="start" x="8" y="-218.5" font-family="Helvetica,sans-Serif" font-size="10.00">/SmallGameLibrary/include</text>
<text text-anchor="middle" x="67" y="-207.5" font-family="Helvetica,sans-Serif" font-size="10.00">/Small/Widgets/Button.hpp</text>
</a>
</g>
</g>
<!-- Node1&#45;&gt;Node2 -->
<g id="edge1" class="edge"><title>Node1&#45;&gt;Node2</title>
<path fill="none" stroke="midnightblue" d="M347.895,-315.132C291.918,-302.941 214.633,-284.716 148,-264 143.543,-262.614 138.977,-261.11 134.395,-259.535"/>
<polygon fill="midnightblue" stroke="midnightblue" points="347.227,-318.569 357.741,-317.262 348.707,-311.727 347.227,-318.569"/>
</g>
<!-- Node3 -->
<g id="node3" class="node"><title>Node3</title>
<g id="a_node3"><a xlink:href="../../d0/d27/Widgets_8hpp.html" target="_top" xlink:title="Include all the files from the Widgets folder. ">
<polygon fill="white" stroke="black" points="358,-100.5 358,-163.5 492,-163.5 492,-100.5 358,-100.5"/>
<text text-anchor="start" x="366" y="-151.5" font-family="Helvetica,sans-Serif" font-size="10.00">C:/Users/Folaefolc</text>
<text text-anchor="start" x="366" y="-140.5" font-family="Helvetica,sans-Serif" font-size="10.00">/Documents/Code/Big</text>
<text text-anchor="start" x="366" y="-129.5" font-family="Helvetica,sans-Serif" font-size="10.00">&#45;Projects/ScriptWizards</text>
<text text-anchor="start" x="366" y="-118.5" font-family="Helvetica,sans-Serif" font-size="10.00">/SmallGameLibrary/include</text>
<text text-anchor="middle" x="425" y="-107.5" font-family="Helvetica,sans-Serif" font-size="10.00">/Small/Widgets.hpp</text>
</a>
</g>
</g>
<!-- Node1&#45;&gt;Node3 -->
<g id="edge14" class="edge"><title>Node1&#45;&gt;Node3</title>
<path fill="none" stroke="midnightblue" d="M347.963,-320.131C284.36,-309.394 201.352,-290.694 181,-264 163.754,-241.38 163.754,-222.62 181,-200 202.441,-171.878 293.421,-152.628 357.992,-142.214"/>
<polygon fill="midnightblue" stroke="midnightblue" points="347.556,-323.611 357.992,-321.786 348.696,-316.705 347.556,-323.611"/>
</g>
<!-- Node5 -->
<g id="node5" class="node"><title>Node5</title>
<g id="a_node5"><a xlink:href="../../d5/d28/CheckBox_8hpp.html" target="_top" xlink:title="Basic checkbox widget. ">
<polygon fill="white" stroke="black" points="190,-200.5 190,-263.5 340,-263.5 340,-200.5 190,-200.5"/>
<text text-anchor="start" x="198" y="-251.5" font-family="Helvetica,sans-Serif" font-size="10.00">C:/Users/Folaefolc</text>
<text text-anchor="start" x="198" y="-240.5" font-family="Helvetica,sans-Serif" font-size="10.00">/Documents/Code/Big</text>
<text text-anchor="start" x="198" y="-229.5" font-family="Helvetica,sans-Serif" font-size="10.00">&#45;Projects/ScriptWizards</text>
<text text-anchor="start" x="198" y="-218.5" font-family="Helvetica,sans-Serif" font-size="10.00">/SmallGameLibrary/include</text>
<text text-anchor="middle" x="265" y="-207.5" font-family="Helvetica,sans-Serif" font-size="10.00">/Small/Widgets/CheckBox.hpp</text>
</a>
</g>
</g>
<!-- Node1&#45;&gt;Node5 -->
<g id="edge4" class="edge"><title>Node1&#45;&gt;Node5</title>
<path fill="none" stroke="midnightblue" d="M366.168,-294.966C349.369,-284.676 331.227,-273.564 315.008,-263.63"/>
<polygon fill="midnightblue" stroke="midnightblue" points="364.458,-298.023 374.814,-300.261 368.115,-292.053 364.458,-298.023"/>
</g>
<!-- Node6 -->
<g id="node6" class="node"><title>Node6</title>
<g id="a_node6"><a xlink:href="../../d8/dde/Image_8hpp.html" target="_top" xlink:title="Basic image widget. ">
<polygon fill="white" stroke="black" points="358,-200.5 358,-263.5 492,-263.5 492,-200.5 358,-200.5"/>
<text text-anchor="start" x="366" y="-251.5" font-family="Helvetica,sans-Serif" font-size="10.00">C:/Users/Folaefolc</text>
<text text-anchor="start" x="366" y="-240.5" font-family="Helvetica,sans-Serif" font-size="10.00">/Documents/Code/Big</text>
<text text-anchor="start" x="366" y="-229.5" font-family="Helvetica,sans-Serif" font-size="10.00">&#45;Projects/ScriptWizards</text>
<text text-anchor="start" x="366" y="-218.5" font-family="Helvetica,sans-Serif" font-size="10.00">/SmallGameLibrary/include</text>
<text text-anchor="middle" x="425" y="-207.5" font-family="Helvetica,sans-Serif" font-size="10.00">/Small/Widgets/Image.hpp</text>
</a>
</g>
</g>
<!-- Node1&#45;&gt;Node6 -->
<g id="edge6" class="edge"><title>Node1&#45;&gt;Node6</title>
<path fill="none" stroke="midnightblue" d="M425,-290.099C425,-281.238 425,-272.015 425,-263.63"/>
<polygon fill="midnightblue" stroke="midnightblue" points="421.5,-290.261 425,-300.261 428.5,-290.261 421.5,-290.261"/>
</g>
<!-- Node7 -->
<g id="node7" class="node"><title>Node7</title>
<g id="a_node7"><a xlink:href="../../da/d44/Label_8hpp.html" target="_top" xlink:title="Basic label widget. ">
<polygon fill="white" stroke="black" points="510,-200.5 510,-263.5 644,-263.5 644,-200.5 510,-200.5"/>
<text text-anchor="start" x="518" y="-251.5" font-family="Helvetica,sans-Serif" font-size="10.00">C:/Users/Folaefolc</text>
<text text-anchor="start" x="518" y="-240.5" font-family="Helvetica,sans-Serif" font-size="10.00">/Documents/Code/Big</text>
<text text-anchor="start" x="518" y="-229.5" font-family="Helvetica,sans-Serif" font-size="10.00">&#45;Projects/ScriptWizards</text>
<text text-anchor="start" x="518" y="-218.5" font-family="Helvetica,sans-Serif" font-size="10.00">/SmallGameLibrary/include</text>
<text text-anchor="middle" x="577" y="-207.5" font-family="Helvetica,sans-Serif" font-size="10.00">/Small/Widgets/Label.hpp</text>
</a>
</g>
</g>
<!-- Node1&#45;&gt;Node7 -->
<g id="edge8" class="edge"><title>Node1&#45;&gt;Node7</title>
<path fill="none" stroke="midnightblue" d="M481.33,-294.682C497.166,-284.472 514.226,-273.473 529.492,-263.63"/>
<polygon fill="midnightblue" stroke="midnightblue" points="479.185,-291.901 472.677,-300.261 482.978,-297.784 479.185,-291.901"/>
</g>
<!-- Node8 -->
<g id="node8" class="node"><title>Node8</title>
<g id="a_node8"><a xlink:href="../../d4/df9/Layout_8hpp.html" target="_top" xlink:title="A widget acting as a collection of widgets. ">
<polygon fill="white" stroke="black" points="662,-200.5 662,-263.5 796,-263.5 796,-200.5 662,-200.5"/>
<text text-anchor="start" x="670" y="-251.5" font-family="Helvetica,sans-Serif" font-size="10.00">C:/Users/Folaefolc</text>
<text text-anchor="start" x="670" y="-240.5" font-family="Helvetica,sans-Serif" font-size="10.00">/Documents/Code/Big</text>
<text text-anchor="start" x="670" y="-229.5" font-family="Helvetica,sans-Serif" font-size="10.00">&#45;Projects/ScriptWizards</text>
<text text-anchor="start" x="670" y="-218.5" font-family="Helvetica,sans-Serif" font-size="10.00">/SmallGameLibrary/include</text>
<text text-anchor="middle" x="729" y="-207.5" font-family="Helvetica,sans-Serif" font-size="10.00">/Small/Widgets/Layout.hpp</text>
</a>
</g>
</g>
<!-- Node1&#45;&gt;Node8 -->
<g id="edge10" class="edge"><title>Node1&#45;&gt;Node8</title>
<path fill="none" stroke="midnightblue" d="M502.277,-310.395C546.717,-298.024 603.4,-281.353 653,-264 655.825,-263.012 658.697,-261.977 661.591,-260.91"/>
<polygon fill="midnightblue" stroke="midnightblue" points="501.115,-307.085 492.412,-313.127 502.983,-313.831 501.115,-307.085"/>
</g>
<!-- Node9 -->
<g id="node9" class="node"><title>Node9</title>
<g id="a_node9"><a xlink:href="../../d6/dc2/TextBox_8hpp.html" target="_top" xlink:title="Basic textbox widget. ">
<polygon fill="white" stroke="black" points="814.5,-200.5 814.5,-263.5 955.5,-263.5 955.5,-200.5 814.5,-200.5"/>
<text text-anchor="start" x="822.5" y="-251.5" font-family="Helvetica,sans-Serif" font-size="10.00">C:/Users/Folaefolc</text>
<text text-anchor="start" x="822.5" y="-240.5" font-family="Helvetica,sans-Serif" font-size="10.00">/Documents/Code/Big</text>
<text text-anchor="start" x="822.5" y="-229.5" font-family="Helvetica,sans-Serif" font-size="10.00">&#45;Projects/ScriptWizards</text>
<text text-anchor="start" x="822.5" y="-218.5" font-family="Helvetica,sans-Serif" font-size="10.00">/SmallGameLibrary/include</text>
<text text-anchor="middle" x="885" y="-207.5" font-family="Helvetica,sans-Serif" font-size="10.00">/Small/Widgets/TextBox.hpp</text>
</a>
</g>
</g>
<!-- Node1&#45;&gt;Node9 -->
<g id="edge12" class="edge"><title>Node1&#45;&gt;Node9</title>
<path fill="none" stroke="midnightblue" d="M502.284,-321.874C579.768,-311.678 702.028,-292.732 805,-264 808.013,-263.159 811.07,-262.248 814.143,-261.283"/>
<polygon fill="midnightblue" stroke="midnightblue" points="501.589,-318.435 492.123,-323.195 502.491,-325.377 501.589,-318.435"/>
</g>
<!-- Node2&#45;&gt;Node3 -->
<g id="edge2" class="edge"><title>Node2&#45;&gt;Node3</title>
<path fill="none" stroke="midnightblue" d="M144.216,-201.196C145.484,-200.789 146.746,-200.39 148,-200 218.633,-178.041 301.237,-158.88 357.741,-146.738"/>
<polygon fill="midnightblue" stroke="midnightblue" points="142.778,-197.986 134.395,-204.465 144.989,-204.628 142.778,-197.986"/>
</g>
<!-- Node4 -->
<g id="node4" class="node"><title>Node4</title>
<g id="a_node4"><a xlink:href="../../da/d41/All_8hpp.html" target="_top" xlink:title="Include the needed files to start a project using the library. ">
<polygon fill="white" stroke="black" points="358,-0.5 358,-63.5 492,-63.5 492,-0.5 358,-0.5"/>
<text text-anchor="start" x="366" y="-51.5" font-family="Helvetica,sans-Serif" font-size="10.00">C:/Users/Folaefolc</text>
<text text-anchor="start" x="366" y="-40.5" font-family="Helvetica,sans-Serif" font-size="10.00">/Documents/Code/Big</text>
<text text-anchor="start" x="366" y="-29.5" font-family="Helvetica,sans-Serif" font-size="10.00">&#45;Projects/ScriptWizards</text>
<text text-anchor="start" x="366" y="-18.5" font-family="Helvetica,sans-Serif" font-size="10.00">/SmallGameLibrary/include</text>
<text text-anchor="middle" x="425" y="-7.5" font-family="Helvetica,sans-Serif" font-size="10.00">/Small/All.hpp</text>
</a>
</g>
</g>
<!-- Node3&#45;&gt;Node4 -->
<g id="edge3" class="edge"><title>Node3&#45;&gt;Node4</title>
<path fill="none" stroke="midnightblue" d="M425,-90.0987C425,-81.2383 425,-72.0145 425,-63.6299"/>
<polygon fill="midnightblue" stroke="midnightblue" points="421.5,-90.261 425,-100.261 428.5,-90.2611 421.5,-90.261"/>
</g>
<!-- Node5&#45;&gt;Node3 -->
<g id="edge5" class="edge"><title>Node5&#45;&gt;Node3</title>
<path fill="none" stroke="midnightblue" d="M323.832,-194.966C340.631,-184.676 358.773,-173.564 374.992,-163.63"/>
<polygon fill="midnightblue" stroke="midnightblue" points="321.885,-192.053 315.186,-200.261 325.542,-198.023 321.885,-192.053"/>
</g>
<!-- Node6&#45;&gt;Node3 -->
<g id="edge7" class="edge"><title>Node6&#45;&gt;Node3</title>
<path fill="none" stroke="midnightblue" d="M425,-190.099C425,-181.238 425,-172.015 425,-163.63"/>
<polygon fill="midnightblue" stroke="midnightblue" points="421.5,-190.261 425,-200.261 428.5,-190.261 421.5,-190.261"/>
</g>
<!-- Node7&#45;&gt;Node3 -->
<g id="edge9" class="edge"><title>Node7&#45;&gt;Node3</title>
<path fill="none" stroke="midnightblue" d="M520.67,-194.682C504.834,-184.472 487.774,-173.473 472.508,-163.63"/>
<polygon fill="midnightblue" stroke="midnightblue" points="519.022,-197.784 529.323,-200.261 522.815,-191.901 519.022,-197.784"/>
</g>
<!-- Node8&#45;&gt;Node3 -->
<g id="edge11" class="edge"><title>Node8&#45;&gt;Node3</title>
<path fill="none" stroke="midnightblue" d="M651.797,-199.681C593.202,-179.464 535.693,-162.795 492.412,-150.873"/>
<polygon fill="midnightblue" stroke="midnightblue" points="650.996,-203.108 661.591,-203.09 653.297,-196.497 650.996,-203.108"/>
</g>
<!-- Node9&#45;&gt;Node3 -->
<g id="edge13" class="edge"><title>Node9&#45;&gt;Node3</title>
<path fill="none" stroke="midnightblue" d="M804.198,-199.967C690.159,-168.891 566.581,-150.362 492.123,-140.805"/>
<polygon fill="midnightblue" stroke="midnightblue" points="803.572,-203.426 814.143,-202.717 805.437,-196.679 803.572,-203.426"/>
</g>
</g>
</svg>
