<?xml version="1.0" encoding="UTF-8" standalone="no"?>
<!DOCTYPE svg PUBLIC "-//W3C//DTD SVG 1.1//EN"
 "http://www.w3.org/Graphics/SVG/1.1/DTD/svg11.dtd">
<!-- Generated by graphviz version 2.49.0 (20210828.1703)
 -->
<!-- Title: C:/Users/folae/Documents/Code/Big&#45;Projects/ScriptWizards/SmallGameLibrary/include/Small/Widgets/Base.hpp Pages: 1 -->
<!--zoomable 317 -->
<svg id="main" version="1.1" xmlns="http://www.w3.org/2000/svg" xmlns:xlink="http://www.w3.org/1999/xlink" xml:space="preserve" onload="init(evt)">
<style type="text/css"><![CDATA[
.edge:hover path { stroke: red; }
.edge:hover polygon { stroke: red; fill: red; }
]]></style>
<script type="text/javascript"><![CDATA[
var edges = document.getElementsByTagName('g');
if (edges && edges.length) {
  for (var i=0;i<edges.length;i++) {
    if (edges[i].id.substr(0,4)=='edge') {
      edges[i].setAttribute('class','edge');
    }
  }
}
]]></script>
        <defs>
                <circle id="rim" cx="0" cy="0" r="7"/>
                <circle id="rim2" cx="0" cy="0" r="3.5"/>
                <g id="zoomPlus">
                        <use xlink:href="#rim" fill="#404040">
                                <set attributeName="fill" to="#808080" begin="zoomplus.mouseover" end="zoomplus.mouseout"/>
                        </use>
                        <path d="M-4,0h8M0,-4v8" fill="none" stroke="white" stroke-width="1.5" pointer-events="none"/>
                </g>
                <g id="zoomMin">
                        <use xlink:href="#rim" fill="#404040">
                                <set attributeName="fill" to="#808080" begin="zoomminus.mouseover" end="zoomminus.mouseout"/>
                        </use>
                        <path d="M-4,0h8" fill="none" stroke="white" stroke-width="1.5" pointer-events="none"/>
                </g>
                <g id="dirArrow">
                        <path fill="none" stroke="white" stroke-width="1.5" d="M0,-3.0v7 M-2.5,-0.5L0,-3.0L2.5,-0.5"/>
                </g>
               <g id="resetDef">
                       <use xlink:href="#rim2" fill="#404040">
                               <set attributeName="fill" to="#808080" begin="reset.mouseover" end="reset.mouseout"/>
                       </use>
               </g>
        </defs>

<script type="text/javascript">
var viewWidth = 1352;
var viewHeight = 317;
var sectionId = 'dynsection-1';
</script>
<script xlink:href="../../svgpan.js"/>
<svg id="graph" class="graph">
<g id="viewport">
<title>C:/Users/folae/Documents/Code/Big&#45;Projects/ScriptWizards/SmallGameLibrary/include/Small/Widgets/Base.hpp</title>
<polygon fill="white" stroke="transparent" points="-4,4 -4,-313 1348,-313 1348,4 -4,4"/>
<!-- Node1 -->
<g id="node1" class="node">
<title>Node1</title>
<g id="a_node1"><a xlink:title="Contain base classes to create interoperable SFML widgets.">
<polygon fill="#bfbfbf" stroke="black" points="495,-256.5 495,-308.5 658,-308.5 658,-256.5 495,-256.5"/>
<text text-anchor="start" x="503" y="-296.5" font-family="Helvetica,sans-Serif" font-size="10.00">C:/Users/folae/Documents</text>
<text text-anchor="start" x="503" y="-285.5" font-family="Helvetica,sans-Serif" font-size="10.00">/Code/Big&#45;Projects/ScriptWizards</text>
<text text-anchor="start" x="503" y="-274.5" font-family="Helvetica,sans-Serif" font-size="10.00">/SmallGameLibrary/include/Small</text>
<text text-anchor="middle" x="576.5" y="-263.5" font-family="Helvetica,sans-Serif" font-size="10.00">/Widgets/Base.hpp</text>
</a>
</g>
</g>
<!-- Node2 -->
<g id="node2" class="node">
<title>Node2</title>
<g id="a_node2"><a xlink:href="../../d0/d27/Widgets_8hpp.html" target="_top" xlink:title="Include all the files from the Widgets folder.">
<polygon fill="white" stroke="black" points="397,-78.5 397,-130.5 560,-130.5 560,-78.5 397,-78.5"/>
<text text-anchor="start" x="405" y="-118.5" font-family="Helvetica,sans-Serif" font-size="10.00">C:/Users/folae/Documents</text>
<text text-anchor="start" x="405" y="-107.5" font-family="Helvetica,sans-Serif" font-size="10.00">/Code/Big&#45;Projects/ScriptWizards</text>
<text text-anchor="start" x="405" y="-96.5" font-family="Helvetica,sans-Serif" font-size="10.00">/SmallGameLibrary/include/Small</text>
<text text-anchor="middle" x="478.5" y="-85.5" font-family="Helvetica,sans-Serif" font-size="10.00">/Widgets.hpp</text>
</a>
</g>
</g>
<!-- Node1&#45;&gt;Node2 -->
<g id="edge1" class="edge">
<title>Node1&#45;&gt;Node2</title>
<path fill="none" stroke="midnightblue" d="M484.64,-278.94C388.99,-274.11 248.43,-260.18 214.5,-220 158.5,-153.68 300.12,-124.64 396.91,-112.83"/>
<polygon fill="midnightblue" stroke="midnightblue" points="484.75,-282.45 494.91,-279.43 485.09,-275.46 484.75,-282.45"/>
</g>
<!-- Node4 -->
<g id="node4" class="node">
<title>Node4</title>
<g id="a_node4"><a xlink:href="../../d4/db3/Button_8hpp.html" target="_top" xlink:title="Basic button widget.">
<polygon fill="white" stroke="black" points="4,-167.5 4,-219.5 167,-219.5 167,-167.5 4,-167.5"/>
<text text-anchor="start" x="12" y="-207.5" font-family="Helvetica,sans-Serif" font-size="10.00">C:/Users/folae/Documents</text>
<text text-anchor="start" x="12" y="-196.5" font-family="Helvetica,sans-Serif" font-size="10.00">/Code/Big&#45;Projects/ScriptWizards</text>
<text text-anchor="start" x="12" y="-185.5" font-family="Helvetica,sans-Serif" font-size="10.00">/SmallGameLibrary/include/Small</text>
<text text-anchor="middle" x="85.5" y="-174.5" font-family="Helvetica,sans-Serif" font-size="10.00">/Widgets/Button.hpp</text>
</a>
</g>
</g>
<!-- Node1&#45;&gt;Node4 -->
<g id="edge3" class="edge">
<title>Node1&#45;&gt;Node4</title>
<path fill="none" stroke="midnightblue" d="M484.63,-269.98C404.25,-259.24 284.58,-241.65 181.5,-220 176.77,-219.01 171.93,-217.93 167.06,-216.79"/>
<polygon fill="midnightblue" stroke="midnightblue" points="484.35,-273.48 494.72,-271.32 485.27,-266.54 484.35,-273.48"/>
</g>
<!-- Node6 -->
<g id="node6" class="node">
<title>Node6</title>
<g id="a_node6"><a xlink:href="../../d5/d28/CheckBox_8hpp.html" target="_top" xlink:title="Basic checkbox widget.">
<polygon fill="white" stroke="black" points="224,-167.5 224,-219.5 387,-219.5 387,-167.5 224,-167.5"/>
<text text-anchor="start" x="232" y="-207.5" font-family="Helvetica,sans-Serif" font-size="10.00">C:/Users/folae/Documents</text>
<text text-anchor="start" x="232" y="-196.5" font-family="Helvetica,sans-Serif" font-size="10.00">/Code/Big&#45;Projects/ScriptWizards</text>
<text text-anchor="start" x="232" y="-185.5" font-family="Helvetica,sans-Serif" font-size="10.00">/SmallGameLibrary/include/Small</text>
<text text-anchor="middle" x="305.5" y="-174.5" font-family="Helvetica,sans-Serif" font-size="10.00">/Widgets/CheckBox.hpp</text>
</a>
</g>
</g>
<!-- Node1&#45;&gt;Node6 -->
<g id="edge6" class="edge">
<title>Node1&#45;&gt;Node6</title>
<path fill="none" stroke="midnightblue" d="M488.59,-253.28C454.72,-242.4 416.31,-230.07 383.44,-219.52"/>
<polygon fill="midnightblue" stroke="midnightblue" points="487.89,-256.73 498.48,-256.45 490.03,-250.06 487.89,-256.73"/>
</g>
<!-- Node7 -->
<g id="node7" class="node">
<title>Node7</title>
<g id="a_node7"><a xlink:href="../../d8/dde/Image_8hpp.html" target="_top" xlink:title="Basic image widget.">
<polygon fill="white" stroke="black" points="586,-167.5 586,-219.5 749,-219.5 749,-167.5 586,-167.5"/>
<text text-anchor="start" x="594" y="-207.5" font-family="Helvetica,sans-Serif" font-size="10.00">C:/Users/folae/Documents</text>
<text text-anchor="start" x="594" y="-196.5" font-family="Helvetica,sans-Serif" font-size="10.00">/Code/Big&#45;Projects/ScriptWizards</text>
<text text-anchor="start" x="594" y="-185.5" font-family="Helvetica,sans-Serif" font-size="10.00">/SmallGameLibrary/include/Small</text>
<text text-anchor="middle" x="667.5" y="-174.5" font-family="Helvetica,sans-Serif" font-size="10.00">/Widgets/Image.hpp</text>
</a>
</g>
</g>
<!-- Node1&#45;&gt;Node7 -->
<g id="edge8" class="edge">
<title>Node1&#45;&gt;Node7</title>
<path fill="none" stroke="midnightblue" d="M610.11,-249.36C620.39,-239.54 631.53,-228.89 641.24,-219.61"/>
<polygon fill="midnightblue" stroke="midnightblue" points="607.63,-246.9 602.82,-256.34 612.47,-251.96 607.63,-246.9"/>
</g>
<!-- Node9 -->
<g id="node9" class="node">
<title>Node9</title>
<g id="a_node9"><a xlink:href="../../da/d44/Label_8hpp.html" target="_top" xlink:title="Basic label widget.">
<polygon fill="white" stroke="black" points="767,-167.5 767,-219.5 930,-219.5 930,-167.5 767,-167.5"/>
<text text-anchor="start" x="775" y="-207.5" font-family="Helvetica,sans-Serif" font-size="10.00">C:/Users/folae/Documents</text>
<text text-anchor="start" x="775" y="-196.5" font-family="Helvetica,sans-Serif" font-size="10.00">/Code/Big&#45;Projects/ScriptWizards</text>
<text text-anchor="start" x="775" y="-185.5" font-family="Helvetica,sans-Serif" font-size="10.00">/SmallGameLibrary/include/Small</text>
<text text-anchor="middle" x="848.5" y="-174.5" font-family="Helvetica,sans-Serif" font-size="10.00">/Widgets/Label.hpp</text>
</a>
</g>
</g>
<!-- Node1&#45;&gt;Node9 -->
<g id="edge11" class="edge">
<title>Node1&#45;&gt;Node9</title>
<path fill="none" stroke="midnightblue" d="M664.73,-253.28C698.73,-242.4 737.29,-230.07 770.27,-219.52"/>
<polygon fill="midnightblue" stroke="midnightblue" points="663.27,-250.07 654.81,-256.45 665.4,-256.74 663.27,-250.07"/>
</g>
<!-- Node11 -->
<g id="node11" class="node">
<title>Node11</title>
<g id="a_node11"><a xlink:href="../../d4/df9/Layout_8hpp.html" target="_top" xlink:title="A widget acting as a collection of widgets.">
<polygon fill="white" stroke="black" points="948,-167.5 948,-219.5 1111,-219.5 1111,-167.5 948,-167.5"/>
<text text-anchor="start" x="956" y="-207.5" font-family="Helvetica,sans-Serif" font-size="10.00">C:/Users/folae/Documents</text>
<text text-anchor="start" x="956" y="-196.5" font-family="Helvetica,sans-Serif" font-size="10.00">/Code/Big&#45;Projects/ScriptWizards</text>
<text text-anchor="start" x="956" y="-185.5" font-family="Helvetica,sans-Serif" font-size="10.00">/SmallGameLibrary/include/Small</text>
<text text-anchor="middle" x="1029.5" y="-174.5" font-family="Helvetica,sans-Serif" font-size="10.00">/Widgets/Layout.hpp</text>
</a>
</g>
</g>
<!-- Node1&#45;&gt;Node11 -->
<g id="edge14" class="edge">
<title>Node1&#45;&gt;Node11</title>
<path fill="none" stroke="midnightblue" d="M668.36,-268.62C741.85,-257.66 847.31,-240.46 938.5,-220 941.54,-219.32 944.63,-218.6 947.75,-217.84"/>
<polygon fill="midnightblue" stroke="midnightblue" points="667.59,-265.19 658.21,-270.12 668.61,-272.12 667.59,-265.19"/>
</g>
<!-- Node13 -->
<g id="node13" class="node">
<title>Node13</title>
<g id="a_node13"><a xlink:href="../../d6/dc2/TextBox_8hpp.html" target="_top" xlink:title="Basic textbox widget.">
<polygon fill="white" stroke="black" points="405,-167.5 405,-219.5 568,-219.5 568,-167.5 405,-167.5"/>
<text text-anchor="start" x="413" y="-207.5" font-family="Helvetica,sans-Serif" font-size="10.00">C:/Users/folae/Documents</text>
<text text-anchor="start" x="413" y="-196.5" font-family="Helvetica,sans-Serif" font-size="10.00">/Code/Big&#45;Projects/ScriptWizards</text>
<text text-anchor="start" x="413" y="-185.5" font-family="Helvetica,sans-Serif" font-size="10.00">/SmallGameLibrary/include/Small</text>
<text text-anchor="middle" x="486.5" y="-174.5" font-family="Helvetica,sans-Serif" font-size="10.00">/Widgets/TextBox.hpp</text>
</a>
</g>
</g>
<!-- Node1&#45;&gt;Node13 -->
<g id="edge17" class="edge">
<title>Node1&#45;&gt;Node13</title>
<path fill="none" stroke="midnightblue" d="M543.25,-249.36C533.1,-239.54 522.08,-228.89 512.47,-219.61"/>
<polygon fill="midnightblue" stroke="midnightblue" points="540.85,-251.9 550.47,-256.34 545.71,-246.87 540.85,-251.9"/>
</g>
<!-- Node14 -->
<g id="node14" class="node">
<title>Node14</title>
<g id="a_node14"><a xlink:href="../../d8/db0/Base_8cpp.html" target="_top" xlink:title=" ">
<polygon fill="white" stroke="black" points="1129,-173 1129,-214 1344,-214 1344,-173 1129,-173"/>
<text text-anchor="start" x="1137" y="-202" font-family="Helvetica,sans-Serif" font-size="10.00">C:/Users/folae/Documents</text>
<text text-anchor="start" x="1137" y="-191" font-family="Helvetica,sans-Serif" font-size="10.00">/Code/Big&#45;Projects/ScriptWizards</text>
<text text-anchor="middle" x="1236.5" y="-180" font-family="Helvetica,sans-Serif" font-size="10.00">/SmallGameLibrary/source/Widgets/Base.cpp</text>
</a>
</g>
</g>
<!-- Node1&#45;&gt;Node14 -->
<g id="edge19" class="edge">
<title>Node1&#45;&gt;Node14</title>
<path fill="none" stroke="midnightblue" d="M668.69,-274.02C777.22,-264.53 962.68,-246.2 1120.5,-220 1130.87,-218.28 1141.72,-216.23 1152.43,-214.05"/>
<polygon fill="midnightblue" stroke="midnightblue" points="668.09,-270.56 658.43,-274.91 668.7,-277.53 668.09,-270.56"/>
</g>
<!-- Node3 -->
<g id="node3" class="node">
<title>Node3</title>
<g id="a_node3"><a xlink:href="../../da/d41/All_8hpp.html" target="_top" xlink:title="Include the needed files to start a project using the library.">
<polygon fill="white" stroke="black" points="381.5,-0.5 381.5,-41.5 575.5,-41.5 575.5,-0.5 381.5,-0.5"/>
<text text-anchor="start" x="389.5" y="-29.5" font-family="Helvetica,sans-Serif" font-size="10.00">C:/Users/folae/Documents</text>
<text text-anchor="start" x="389.5" y="-18.5" font-family="Helvetica,sans-Serif" font-size="10.00">/Code/Big&#45;Projects/ScriptWizards</text>
<text text-anchor="middle" x="478.5" y="-7.5" font-family="Helvetica,sans-Serif" font-size="10.00">/SmallGameLibrary/include/Small/All.hpp</text>
</a>
</g>
</g>
<!-- Node2&#45;&gt;Node3 -->
<g id="edge2" class="edge">
<title>Node2&#45;&gt;Node3</title>
<path fill="none" stroke="midnightblue" d="M478.5,-68.15C478.5,-59.05 478.5,-49.6 478.5,-41.63"/>
<polygon fill="midnightblue" stroke="midnightblue" points="475,-68.16 478.5,-78.16 482,-68.16 475,-68.16"/>
</g>
<!-- Node4&#45;&gt;Node2 -->
<g id="edge4" class="edge">
<title>Node4&#45;&gt;Node2</title>
<path fill="none" stroke="midnightblue" d="M177.06,-168.06C178.55,-167.7 180.03,-167.35 181.5,-167 254.01,-149.88 337.1,-132.89 396.92,-121.13"/>
<polygon fill="midnightblue" stroke="midnightblue" points="176.01,-164.71 167.12,-170.49 177.67,-171.51 176.01,-164.71"/>
</g>
<!-- Node5 -->
<g id="node5" class="node">
<title>Node5</title>
<g id="a_node5"><a xlink:href="../../de/dd1/Button_8cpp.html" target="_top" xlink:title=" ">
<polygon fill="white" stroke="black" points="0,-78.5 0,-130.5 171,-130.5 171,-78.5 0,-78.5"/>
<text text-anchor="start" x="8" y="-118.5" font-family="Helvetica,sans-Serif" font-size="10.00">C:/Users/folae/Documents</text>
<text text-anchor="start" x="8" y="-107.5" font-family="Helvetica,sans-Serif" font-size="10.00">/Code/Big&#45;Projects/ScriptWizards</text>
<text text-anchor="start" x="8" y="-96.5" font-family="Helvetica,sans-Serif" font-size="10.00">/SmallGameLibrary/source/Widgets</text>
<text text-anchor="middle" x="85.5" y="-85.5" font-family="Helvetica,sans-Serif" font-size="10.00">/Button.cpp</text>
</a>
</g>
</g>
<!-- Node4&#45;&gt;Node5 -->
<g id="edge5" class="edge">
<title>Node4&#45;&gt;Node5</title>
<path fill="none" stroke="midnightblue" d="M85.5,-157.19C85.5,-148.28 85.5,-138.9 85.5,-130.61"/>
<polygon fill="midnightblue" stroke="midnightblue" points="82,-157.34 85.5,-167.34 89,-157.34 82,-157.34"/>
</g>
<!-- Node6&#45;&gt;Node2 -->
<g id="edge7" class="edge">
<title>Node6&#45;&gt;Node2</title>
<path fill="none" stroke="midnightblue" d="M364.61,-162.78C385.42,-152.31 408.59,-140.66 428.57,-130.61"/>
<polygon fill="midnightblue" stroke="midnightblue" points="362.9,-159.72 355.54,-167.34 366.05,-165.97 362.9,-159.72"/>
</g>
<!-- Node7&#45;&gt;Node2 -->
<g id="edge9" class="edge">
<title>Node7&#45;&gt;Node2</title>
<path fill="none" stroke="midnightblue" d="M603.75,-163.15C580.73,-152.56 554.99,-140.71 532.86,-130.52"/>
<polygon fill="midnightblue" stroke="midnightblue" points="602.54,-166.45 613.09,-167.45 605.47,-160.09 602.54,-166.45"/>
</g>
<!-- Node8 -->
<g id="node8" class="node">
<title>Node8</title>
<g id="a_node8"><a xlink:href="../../d0/d4e/Image_8cpp.html" target="_top" xlink:title=" ">
<polygon fill="white" stroke="black" points="578,-78.5 578,-130.5 749,-130.5 749,-78.5 578,-78.5"/>
<text text-anchor="start" x="586" y="-118.5" font-family="Helvetica,sans-Serif" font-size="10.00">C:/Users/folae/Documents</text>
<text text-anchor="start" x="586" y="-107.5" font-family="Helvetica,sans-Serif" font-size="10.00">/Code/Big&#45;Projects/ScriptWizards</text>
<text text-anchor="start" x="586" y="-96.5" font-family="Helvetica,sans-Serif" font-size="10.00">/SmallGameLibrary/source/Widgets</text>
<text text-anchor="middle" x="663.5" y="-85.5" font-family="Helvetica,sans-Serif" font-size="10.00">/Image.cpp</text>
</a>
</g>
</g>
<!-- Node7&#45;&gt;Node8 -->
<g id="edge10" class="edge">
<title>Node7&#45;&gt;Node8</title>
<path fill="none" stroke="midnightblue" d="M665.88,-157.19C665.47,-148.28 665.04,-138.9 664.65,-130.61"/>
<polygon fill="midnightblue" stroke="midnightblue" points="662.39,-157.51 666.34,-167.34 669.38,-157.19 662.39,-157.51"/>
</g>
<!-- Node9&#45;&gt;Node2 -->
<g id="edge12" class="edge">
<title>Node9&#45;&gt;Node2</title>
<path fill="none" stroke="midnightblue" d="M756.98,-166.97C672.55,-147.65 648.71,-149.96 568.5,-131 565.81,-130.36 563.09,-129.7 560.34,-129.02"/>
<polygon fill="midnightblue" stroke="midnightblue" points="756.2,-170.38 766.73,-169.23 757.78,-163.56 756.2,-170.38"/>
</g>
<!-- Node10 -->
<g id="node10" class="node">
<title>Node10</title>
<g id="a_node10"><a xlink:href="../../db/d8a/Label_8cpp.html" target="_top" xlink:title=" ">
<polygon fill="white" stroke="black" points="767,-78.5 767,-130.5 938,-130.5 938,-78.5 767,-78.5"/>
<text text-anchor="start" x="775" y="-118.5" font-family="Helvetica,sans-Serif" font-size="10.00">C:/Users/folae/Documents</text>
<text text-anchor="start" x="775" y="-107.5" font-family="Helvetica,sans-Serif" font-size="10.00">/Code/Big&#45;Projects/ScriptWizards</text>
<text text-anchor="start" x="775" y="-96.5" font-family="Helvetica,sans-Serif" font-size="10.00">/SmallGameLibrary/source/Widgets</text>
<text text-anchor="middle" x="852.5" y="-85.5" font-family="Helvetica,sans-Serif" font-size="10.00">/Label.cpp</text>
</a>
</g>
</g>
<!-- Node9&#45;&gt;Node10 -->
<g id="edge13" class="edge">
<title>Node9&#45;&gt;Node10</title>
<path fill="none" stroke="midnightblue" d="M850.12,-157.19C850.53,-148.28 850.96,-138.9 851.35,-130.61"/>
<polygon fill="midnightblue" stroke="midnightblue" points="846.62,-157.19 849.66,-167.34 853.61,-157.51 846.62,-157.19"/>
</g>
<!-- Node11&#45;&gt;Node2 -->
<g id="edge15" class="edge">
<title>Node11&#45;&gt;Node2</title>
<path fill="none" stroke="midnightblue" d="M937.89,-167.05C774.29,-137.55 727.68,-161.04 568.5,-131 565.79,-130.49 563.04,-129.93 560.27,-129.34"/>
<polygon fill="midnightblue" stroke="midnightblue" points="937.34,-170.51 947.81,-168.88 938.61,-163.62 937.34,-170.51"/>
</g>
<!-- Node12 -->
<g id="node12" class="node">
<title>Node12</title>
<g id="a_node12"><a xlink:href="../../d5/d08/Layout_8cpp.html" target="_top" xlink:title=" ">
<polygon fill="white" stroke="black" points="956,-78.5 956,-130.5 1127,-130.5 1127,-78.5 956,-78.5"/>
<text text-anchor="start" x="964" y="-118.5" font-family="Helvetica,sans-Serif" font-size="10.00">C:/Users/folae/Documents</text>
<text text-anchor="start" x="964" y="-107.5" font-family="Helvetica,sans-Serif" font-size="10.00">/Code/Big&#45;Projects/ScriptWizards</text>
<text text-anchor="start" x="964" y="-96.5" font-family="Helvetica,sans-Serif" font-size="10.00">/SmallGameLibrary/source/Widgets</text>
<text text-anchor="middle" x="1041.5" y="-85.5" font-family="Helvetica,sans-Serif" font-size="10.00">/Layout.cpp</text>
</a>
</g>
</g>
<!-- Node11&#45;&gt;Node12 -->
<g id="edge16" class="edge">
<title>Node11&#45;&gt;Node12</title>
<path fill="none" stroke="midnightblue" d="M1034.37,-157.19C1035.6,-148.28 1036.89,-138.9 1038.04,-130.61"/>
<polygon fill="midnightblue" stroke="midnightblue" points="1030.87,-156.95 1032.97,-167.34 1037.8,-157.91 1030.87,-156.95"/>
</g>
<!-- Node13&#45;&gt;Node2 -->
<g id="edge18" class="edge">
<title>Node13&#45;&gt;Node2</title>
<path fill="none" stroke="midnightblue" d="M483.25,-157.19C482.43,-148.28 481.57,-138.9 480.81,-130.61"/>
<polygon fill="midnightblue" stroke="midnightblue" points="479.79,-157.7 484.19,-167.34 486.76,-157.06 479.79,-157.7"/>
</g>
</g>
</svg>
        <g id="navigator" transform="translate(0 0)" fill="#404254">
                <rect fill="#f2f5e9" fill-opacity="0.5" stroke="#606060" stroke-width=".5" x="0" y="0" width="60" height="60"/>
                <use id="zoomplus" xlink:href="#zoomPlus" x="17" y="9" onmousedown="handleZoom(evt,'in')"/>
                <use id="zoomminus" xlink:href="#zoomMin" x="42" y="9" onmousedown="handleZoom(evt,'out')"/>
                <use id="reset" xlink:href="#resetDef" x="30" y="36" onmousedown="handleReset()"/>
                <g id="arrowUp" xlink:href="#dirArrow" transform="translate(30 24)" onmousedown="handlePan(0,-1)">
                  <use xlink:href="#rim" fill="#404040">
                        <set attributeName="fill" to="#808080" begin="arrowUp.mouseover" end="arrowUp.mouseout"/>
                  </use>
                  <path fill="none" stroke="white" stroke-width="1.5" d="M0,-3.0v7 M-2.5,-0.5L0,-3.0L2.5,-0.5"/>
                </g>
                <g id="arrowRight" xlink:href="#dirArrow" transform="rotate(90) translate(36 -43)" onmousedown="handlePan(1,0)">
                  <use xlink:href="#rim" fill="#404040">
                        <set attributeName="fill" to="#808080" begin="arrowRight.mouseover" end="arrowRight.mouseout"/>
                  </use>
                  <path fill="none" stroke="white" stroke-width="1.5" d="M0,-3.0v7 M-2.5,-0.5L0,-3.0L2.5,-0.5"/>
                </g>
                <g id="arrowDown" xlink:href="#dirArrow" transform="rotate(180) translate(-30 -48)" onmousedown="handlePan(0,1)">
                  <use xlink:href="#rim" fill="#404040">
                        <set attributeName="fill" to="#808080" begin="arrowDown.mouseover" end="arrowDown.mouseout"/>
                  </use>
                  <path fill="none" stroke="white" stroke-width="1.5" d="M0,-3.0v7 M-2.5,-0.5L0,-3.0L2.5,-0.5"/>
                </g>
                <g id="arrowLeft" xlink:href="#dirArrow" transform="rotate(270) translate(-36 17)" onmousedown="handlePan(-1,0)">
                  <use xlink:href="#rim" fill="#404040">
                        <set attributeName="fill" to="#808080" begin="arrowLeft.mouseover" end="arrowLeft.mouseout"/>
                  </use>
                  <path fill="none" stroke="white" stroke-width="1.5" d="M0,-3.0v7 M-2.5,-0.5L0,-3.0L2.5,-0.5"/>
                </g>
        </g>
        <svg viewBox="0 0 15 15" width="100%" height="30px" preserveAspectRatio="xMaxYMin meet">
         <g id="arrow_out" transform="scale(0.3 0.3)">
          <a xlink:href="Base_8hpp__dep__incl_org.svg" target="_base">
           <rect id="button" ry="5" rx="5" y="6" x="6" height="38" width="38"
                fill="#f2f5e9" fill-opacity="0.5" stroke="#606060" stroke-width="1.0"/>
           <path id="arrow"
             d="M 11.500037,31.436501 C 11.940474,20.09759 22.043105,11.32322 32.158766,21.979434 L 37.068811,17.246167 C 37.068811,17.246167 37.088388,32 37.088388,32 L 22.160133,31.978069 C 22.160133,31.978069 26.997745,27.140456 26.997745,27.140456 C 18.528582,18.264221 13.291696,25.230495 11.500037,31.436501 z"
             style="fill:#404040;"/>
          </a>
         </g>
        </svg>
</svg>
