<?xml version="1.0" encoding="UTF-8" standalone="no"?>
<!DOCTYPE svg PUBLIC "-//W3C//DTD SVG 1.1//EN"
 "http://www.w3.org/Graphics/SVG/1.1/DTD/svg11.dtd">
<!-- Generated by graphviz version 2.38.0 (20140413.2041)
 -->
<!-- Title: include/Small/Widgets/Base.hpp Pages: 1 -->
<svg width="820pt" height="218pt"
 viewBox="0.00 0.00 820.00 218.00" xmlns="http://www.w3.org/2000/svg" xmlns:xlink="http://www.w3.org/1999/xlink">
<g id="graph0" class="graph" transform="scale(1 1) rotate(0) translate(4 214)">
<title>include/Small/Widgets/Base.hpp</title>
<polygon fill="white" stroke="none" points="-4,4 -4,-214 816,-214 816,4 -4,4"/>
<!-- Node1 -->
<g id="node1" class="node"><title>Node1</title>
<polygon fill="#bfbfbf" stroke="black" points="302,-179.5 302,-209.5 416,-209.5 416,-179.5 302,-179.5"/>
<text text-anchor="start" x="310" y="-197.5" font-family="Helvetica,sans-Serif" font-size="10.00">include/Small/Widgets</text>
<text text-anchor="middle" x="359" y="-186.5" font-family="Helvetica,sans-Serif" font-size="10.00">/Base.hpp</text>
</g>
<!-- Node2 -->
<g id="node2" class="node"><title>Node2</title>
<g id="a_node2"><a xlink:href="../../d4/db3/Button_8hpp.html" target="_top" xlink:title="Basic button widget. ">
<polygon fill="white" stroke="black" points="0,-112.5 0,-142.5 114,-142.5 114,-112.5 0,-112.5"/>
<text text-anchor="start" x="8" y="-130.5" font-family="Helvetica,sans-Serif" font-size="10.00">include/Small/Widgets</text>
<text text-anchor="middle" x="57" y="-119.5" font-family="Helvetica,sans-Serif" font-size="10.00">/Button.hpp</text>
</a>
</g>
</g>
<!-- Node1&#45;&gt;Node2 -->
<g id="edge1" class="edge"><title>Node1&#45;&gt;Node2</title>
<path fill="none" stroke="midnightblue" d="M291.795,-179.035C238.459,-167.556 164.712,-151.683 114.181,-140.807"/>
<polygon fill="midnightblue" stroke="midnightblue" points="291.328,-182.515 301.841,-181.198 292.801,-175.672 291.328,-182.515"/>
</g>
<!-- Node3 -->
<g id="node3" class="node"><title>Node3</title>
<g id="a_node3"><a xlink:href="../../d0/d27/Widgets_8hpp.html" target="_top" xlink:title="Include all the files from the Widgets folder. ">
<polygon fill="white" stroke="black" points="292.5,-56.5 292.5,-75.5 425.5,-75.5 425.5,-56.5 292.5,-56.5"/>
<text text-anchor="middle" x="359" y="-63.5" font-family="Helvetica,sans-Serif" font-size="10.00">include/Small/Widgets.hpp</text>
</a>
</g>
</g>
<!-- Node1&#45;&gt;Node3 -->
<g id="edge14" class="edge"><title>Node1&#45;&gt;Node3</title>
<path fill="none" stroke="midnightblue" d="M291.374,-188.564C219.75,-180.708 121.987,-160.874 161,-112 177.356,-91.5092 241.554,-79.6378 292.475,-73.2874"/>
<polygon fill="midnightblue" stroke="midnightblue" points="291.425,-192.088 301.733,-189.638 292.147,-185.125 291.425,-192.088"/>
</g>
<!-- Node5 -->
<g id="node5" class="node"><title>Node5</title>
<g id="a_node5"><a xlink:href="../../d5/d28/CheckBox_8hpp.html" target="_top" xlink:title="Basic checkbox widget. ">
<polygon fill="white" stroke="black" points="170,-112.5 170,-142.5 284,-142.5 284,-112.5 170,-112.5"/>
<text text-anchor="start" x="178" y="-130.5" font-family="Helvetica,sans-Serif" font-size="10.00">include/Small/Widgets</text>
<text text-anchor="middle" x="227" y="-119.5" font-family="Helvetica,sans-Serif" font-size="10.00">/CheckBox.hpp</text>
</a>
</g>
</g>
<!-- Node1&#45;&gt;Node5 -->
<g id="edge4" class="edge"><title>Node1&#45;&gt;Node5</title>
<path fill="none" stroke="midnightblue" d="M321.133,-174.853C300.262,-164.576 274.774,-152.025 255.586,-142.577"/>
<polygon fill="midnightblue" stroke="midnightblue" points="319.84,-178.118 330.358,-179.396 322.933,-171.838 319.84,-178.118"/>
</g>
<!-- Node6 -->
<g id="node6" class="node"><title>Node6</title>
<g id="a_node6"><a xlink:href="../../d8/dde/Image_8hpp.html" target="_top" xlink:title="Basic image widget. ">
<polygon fill="white" stroke="black" points="302,-112.5 302,-142.5 416,-142.5 416,-112.5 302,-112.5"/>
<text text-anchor="start" x="310" y="-130.5" font-family="Helvetica,sans-Serif" font-size="10.00">include/Small/Widgets</text>
<text text-anchor="middle" x="359" y="-119.5" font-family="Helvetica,sans-Serif" font-size="10.00">/Image.hpp</text>
</a>
</g>
</g>
<!-- Node1&#45;&gt;Node6 -->
<g id="edge6" class="edge"><title>Node1&#45;&gt;Node6</title>
<path fill="none" stroke="midnightblue" d="M359,-169.108C359,-160.154 359,-150.323 359,-142.577"/>
<polygon fill="midnightblue" stroke="midnightblue" points="355.5,-169.396 359,-179.396 362.5,-169.396 355.5,-169.396"/>
</g>
<!-- Node7 -->
<g id="node7" class="node"><title>Node7</title>
<g id="a_node7"><a xlink:href="../../da/d44/Label_8hpp.html" target="_top" xlink:title="Basic label widget. ">
<polygon fill="white" stroke="black" points="434,-112.5 434,-142.5 548,-142.5 548,-112.5 434,-112.5"/>
<text text-anchor="start" x="442" y="-130.5" font-family="Helvetica,sans-Serif" font-size="10.00">include/Small/Widgets</text>
<text text-anchor="middle" x="491" y="-119.5" font-family="Helvetica,sans-Serif" font-size="10.00">/Label.hpp</text>
</a>
</g>
</g>
<!-- Node1&#45;&gt;Node7 -->
<g id="edge8" class="edge"><title>Node1&#45;&gt;Node7</title>
<path fill="none" stroke="midnightblue" d="M396.867,-174.853C417.738,-164.576 443.226,-152.025 462.414,-142.577"/>
<polygon fill="midnightblue" stroke="midnightblue" points="395.067,-171.838 387.642,-179.396 398.16,-178.118 395.067,-171.838"/>
</g>
<!-- Node8 -->
<g id="node8" class="node"><title>Node8</title>
<g id="a_node8"><a xlink:href="../../d4/df9/Layout_8hpp.html" target="_top" xlink:title="A widget acting as a collection of widgets. ">
<polygon fill="white" stroke="black" points="566,-112.5 566,-142.5 680,-142.5 680,-112.5 566,-112.5"/>
<text text-anchor="start" x="574" y="-130.5" font-family="Helvetica,sans-Serif" font-size="10.00">include/Small/Widgets</text>
<text text-anchor="middle" x="623" y="-119.5" font-family="Helvetica,sans-Serif" font-size="10.00">/Layout.hpp</text>
</a>
</g>
</g>
<!-- Node1&#45;&gt;Node8 -->
<g id="edge10" class="edge"><title>Node1&#45;&gt;Node8</title>
<path fill="none" stroke="midnightblue" d="M425.806,-177.052C468.966,-166.425 524.542,-152.741 565.688,-142.611"/>
<polygon fill="midnightblue" stroke="midnightblue" points="424.832,-173.687 415.959,-179.476 426.506,-180.484 424.832,-173.687"/>
</g>
<!-- Node9 -->
<g id="node9" class="node"><title>Node9</title>
<g id="a_node9"><a xlink:href="../../d6/dc2/TextBox_8hpp.html" target="_top" xlink:title="Basic textbox widget. ">
<polygon fill="white" stroke="black" points="698,-112.5 698,-142.5 812,-142.5 812,-112.5 698,-112.5"/>
<text text-anchor="start" x="706" y="-130.5" font-family="Helvetica,sans-Serif" font-size="10.00">include/Small/Widgets</text>
<text text-anchor="middle" x="755" y="-119.5" font-family="Helvetica,sans-Serif" font-size="10.00">/TextBox.hpp</text>
</a>
</g>
</g>
<!-- Node1&#45;&gt;Node9 -->
<g id="edge12" class="edge"><title>Node1&#45;&gt;Node9</title>
<path fill="none" stroke="midnightblue" d="M426.104,-184.522C492.933,-175.278 598.355,-159.875 689,-143 691.883,-142.463 694.833,-141.893 697.808,-141.301"/>
<polygon fill="midnightblue" stroke="midnightblue" points="425.553,-181.065 416.124,-185.897 426.508,-188 425.553,-181.065"/>
</g>
<!-- Node2&#45;&gt;Node3 -->
<g id="edge2" class="edge"><title>Node2&#45;&gt;Node3</title>
<path fill="none" stroke="midnightblue" d="M124.219,-112.756C125.489,-112.501 126.751,-112.249 128,-112 192.911,-99.0496 268.173,-84.4692 314.692,-75.5078"/>
<polygon fill="midnightblue" stroke="midnightblue" points="123.455,-109.339 114.342,-114.743 124.836,-116.202 123.455,-109.339"/>
</g>
<!-- Node4 -->
<g id="node4" class="node"><title>Node4</title>
<g id="a_node4"><a xlink:href="../../da/d41/All_8hpp.html" target="_top" xlink:title="Include the needed files to start a project using the library. ">
<polygon fill="white" stroke="black" points="305,-0.5 305,-19.5 413,-19.5 413,-0.5 305,-0.5"/>
<text text-anchor="middle" x="359" y="-7.5" font-family="Helvetica,sans-Serif" font-size="10.00">include/Small/All.hpp</text>
</a>
</g>
</g>
<!-- Node3&#45;&gt;Node4 -->
<g id="edge3" class="edge"><title>Node3&#45;&gt;Node4</title>
<path fill="none" stroke="midnightblue" d="M359,-45.8045C359,-36.9102 359,-26.7798 359,-19.7511"/>
<polygon fill="midnightblue" stroke="midnightblue" points="355.5,-46.083 359,-56.083 362.5,-46.083 355.5,-46.083"/>
</g>
<!-- Node5&#45;&gt;Node3 -->
<g id="edge5" class="edge"><title>Node5&#45;&gt;Node3</title>
<path fill="none" stroke="midnightblue" d="M267.536,-108.228C291.573,-97.3933 320.932,-84.1596 339.793,-75.6578"/>
<polygon fill="midnightblue" stroke="midnightblue" points="265.96,-105.099 258.282,-112.399 268.837,-111.481 265.96,-105.099"/>
</g>
<!-- Node6&#45;&gt;Node3 -->
<g id="edge7" class="edge"><title>Node6&#45;&gt;Node3</title>
<path fill="none" stroke="midnightblue" d="M359,-102.289C359,-92.857 359,-82.6548 359,-75.6578"/>
<polygon fill="midnightblue" stroke="midnightblue" points="355.5,-102.399 359,-112.399 362.5,-102.399 355.5,-102.399"/>
</g>
<!-- Node7&#45;&gt;Node3 -->
<g id="edge9" class="edge"><title>Node7&#45;&gt;Node3</title>
<path fill="none" stroke="midnightblue" d="M450.464,-108.228C426.427,-97.3933 397.068,-84.1596 378.207,-75.6578"/>
<polygon fill="midnightblue" stroke="midnightblue" points="449.163,-111.481 459.718,-112.399 452.04,-105.099 449.163,-111.481"/>
</g>
<!-- Node8&#45;&gt;Node3 -->
<g id="edge11" class="edge"><title>Node8&#45;&gt;Node3</title>
<path fill="none" stroke="midnightblue" d="M555.885,-111.374C505.551,-100.029 438.462,-84.9091 397.029,-75.5709"/>
<polygon fill="midnightblue" stroke="midnightblue" points="555.191,-114.805 565.716,-113.589 556.73,-107.976 555.191,-114.805"/>
</g>
<!-- Node9&#45;&gt;Node3 -->
<g id="edge13" class="edge"><title>Node9&#45;&gt;Node3</title>
<path fill="none" stroke="midnightblue" d="M687.877,-111.885C591.217,-94.9714 490.222,-82.1029 425.614,-74.4825"/>
<polygon fill="midnightblue" stroke="midnightblue" points="687.362,-115.348 697.819,-113.641 688.581,-108.455 687.362,-115.348"/>
</g>
</g>
</svg>
