<?xml version="1.0" encoding="UTF-8" standalone="no"?>
<!DOCTYPE svg PUBLIC "-//W3C//DTD SVG 1.1//EN"
 "http://www.w3.org/Graphics/SVG/1.1/DTD/svg11.dtd">
<!-- Generated by graphviz version 2.49.0 (20210828.1703)
 -->
<!-- Title: C:/Users/folae/Documents/Code/Big&#45;Projects/ScriptWizards/SmallGameLibrary/include/Small/Core/Ressource.hpp Pages: 1 -->
<svg width="1338pt" height="584pt"
 viewBox="0.00 0.00 1337.50 584.00" xmlns="http://www.w3.org/2000/svg" xmlns:xlink="http://www.w3.org/1999/xlink">
<g id="graph0" class="graph" transform="scale(1 1) rotate(0) translate(4 580)">
<title>C:/Users/folae/Documents/Code/Big&#45;Projects/ScriptWizards/SmallGameLibrary/include/Small/Core/Ressource.hpp</title>
<polygon fill="white" stroke="transparent" points="-4,4 -4,-580 1333.5,-580 1333.5,4 -4,4"/>
<!-- Node1 -->
<g id="node1" class="node">
<title>Node1</title>
<g id="a_node1"><a xlink:title=" ">
<polygon fill="#bfbfbf" stroke="black" points="974,-523.5 974,-575.5 1137,-575.5 1137,-523.5 974,-523.5"/>
<text text-anchor="start" x="982" y="-563.5" font-family="Helvetica,sans-Serif" font-size="10.00">C:/Users/folae/Documents</text>
<text text-anchor="start" x="982" y="-552.5" font-family="Helvetica,sans-Serif" font-size="10.00">/Code/Big&#45;Projects/ScriptWizards</text>
<text text-anchor="start" x="982" y="-541.5" font-family="Helvetica,sans-Serif" font-size="10.00">/SmallGameLibrary/include/Small</text>
<text text-anchor="middle" x="1055.5" y="-530.5" font-family="Helvetica,sans-Serif" font-size="10.00">/Core/Ressource.hpp</text>
</a>
</g>
</g>
<!-- Node2 -->
<g id="node2" class="node">
<title>Node2</title>
<g id="a_node2"><a xlink:href="../../dc/d6f/RessourceManager_8hpp.html" target="_top" xlink:title=" ">
<polygon fill="white" stroke="black" points="530,-434.5 530,-486.5 693,-486.5 693,-434.5 530,-434.5"/>
<text text-anchor="start" x="538" y="-474.5" font-family="Helvetica,sans-Serif" font-size="10.00">C:/Users/folae/Documents</text>
<text text-anchor="start" x="538" y="-463.5" font-family="Helvetica,sans-Serif" font-size="10.00">/Code/Big&#45;Projects/ScriptWizards</text>
<text text-anchor="start" x="538" y="-452.5" font-family="Helvetica,sans-Serif" font-size="10.00">/SmallGameLibrary/include/Small</text>
<text text-anchor="middle" x="611.5" y="-441.5" font-family="Helvetica,sans-Serif" font-size="10.00">/Core/RessourceManager.hpp</text>
</a>
</g>
</g>
<!-- Node1&#45;&gt;Node2 -->
<g id="edge1" class="edge">
<title>Node1&#45;&gt;Node2</title>
<path fill="none" stroke="midnightblue" d="M963.77,-530.53C884.05,-514.91 769.65,-492.49 693.07,-477.48"/>
<polygon fill="midnightblue" stroke="midnightblue" points="963.32,-534 973.8,-532.49 964.66,-527.13 963.32,-534"/>
</g>
<!-- Node17 -->
<g id="node17" class="node">
<title>Node17</title>
<g id="a_node17"><a xlink:href="../../da/da5/Sprite_8hpp.html" target="_top" xlink:title=" ">
<polygon fill="white" stroke="black" points="974,-434.5 974,-486.5 1137,-486.5 1137,-434.5 974,-434.5"/>
<text text-anchor="start" x="982" y="-474.5" font-family="Helvetica,sans-Serif" font-size="10.00">C:/Users/folae/Documents</text>
<text text-anchor="start" x="982" y="-463.5" font-family="Helvetica,sans-Serif" font-size="10.00">/Code/Big&#45;Projects/ScriptWizards</text>
<text text-anchor="start" x="982" y="-452.5" font-family="Helvetica,sans-Serif" font-size="10.00">/SmallGameLibrary/include/Small</text>
<text text-anchor="middle" x="1055.5" y="-441.5" font-family="Helvetica,sans-Serif" font-size="10.00">/Graphics/Sprite.hpp</text>
</a>
</g>
</g>
<!-- Node1&#45;&gt;Node17 -->
<g id="edge22" class="edge">
<title>Node1&#45;&gt;Node17</title>
<path fill="none" stroke="midnightblue" d="M1055.5,-513.19C1055.5,-504.28 1055.5,-494.9 1055.5,-486.61"/>
<polygon fill="midnightblue" stroke="midnightblue" points="1052,-513.34 1055.5,-523.34 1059,-513.34 1052,-513.34"/>
</g>
<!-- Node20 -->
<g id="node20" class="node">
<title>Node20</title>
<g id="a_node20"><a xlink:href="../../dc/dc0/Ressource_8cpp.html" target="_top" xlink:title=" ">
<polygon fill="white" stroke="black" points="1155,-434.5 1155,-486.5 1318,-486.5 1318,-434.5 1155,-434.5"/>
<text text-anchor="start" x="1163" y="-474.5" font-family="Helvetica,sans-Serif" font-size="10.00">C:/Users/folae/Documents</text>
<text text-anchor="start" x="1163" y="-463.5" font-family="Helvetica,sans-Serif" font-size="10.00">/Code/Big&#45;Projects/ScriptWizards</text>
<text text-anchor="start" x="1163" y="-452.5" font-family="Helvetica,sans-Serif" font-size="10.00">/SmallGameLibrary/source/Core</text>
<text text-anchor="middle" x="1236.5" y="-441.5" font-family="Helvetica,sans-Serif" font-size="10.00">/Ressource.cpp</text>
</a>
</g>
</g>
<!-- Node1&#45;&gt;Node20 -->
<g id="edge26" class="edge">
<title>Node1&#45;&gt;Node20</title>
<path fill="none" stroke="midnightblue" d="M1117.05,-518.92C1138.9,-508.41 1163.27,-496.7 1184.26,-486.61"/>
<polygon fill="midnightblue" stroke="midnightblue" points="1115.35,-515.85 1107.85,-523.34 1118.38,-522.16 1115.35,-515.85"/>
</g>
<!-- Node3 -->
<g id="node3" class="node">
<title>Node3</title>
<g id="a_node3"><a xlink:href="../../d7/d38/Core_8hpp.html" target="_top" xlink:title="Include all the files from the Core folder.">
<polygon fill="white" stroke="black" points="0,-84 0,-125 203,-125 203,-84 0,-84"/>
<text text-anchor="start" x="8" y="-113" font-family="Helvetica,sans-Serif" font-size="10.00">C:/Users/folae/Documents</text>
<text text-anchor="start" x="8" y="-102" font-family="Helvetica,sans-Serif" font-size="10.00">/Code/Big&#45;Projects/ScriptWizards</text>
<text text-anchor="middle" x="101.5" y="-91" font-family="Helvetica,sans-Serif" font-size="10.00">/SmallGameLibrary/include/Small/Core.hpp</text>
</a>
</g>
</g>
<!-- Node2&#45;&gt;Node3 -->
<g id="edge2" class="edge">
<title>Node2&#45;&gt;Node3</title>
<path fill="none" stroke="midnightblue" d="M519.91,-445.21C423.69,-426.65 271.49,-386.95 162.5,-309 122.01,-280.04 110.45,-267.15 94.5,-220 83.71,-188.12 90.22,-148.43 95.89,-125.14"/>
<polygon fill="midnightblue" stroke="midnightblue" points="519.43,-448.68 529.91,-447.1 520.73,-441.8 519.43,-448.68"/>
</g>
<!-- Node5 -->
<g id="node5" class="node">
<title>Node5</title>
<g id="a_node5"><a xlink:href="../../db/de8/Scene_8hpp.html" target="_top" xlink:title="The base scene class and the scene states are defined here.">
<polygon fill="white" stroke="black" points="530,-345.5 530,-397.5 693,-397.5 693,-345.5 530,-345.5"/>
<text text-anchor="start" x="538" y="-385.5" font-family="Helvetica,sans-Serif" font-size="10.00">C:/Users/folae/Documents</text>
<text text-anchor="start" x="538" y="-374.5" font-family="Helvetica,sans-Serif" font-size="10.00">/Code/Big&#45;Projects/ScriptWizards</text>
<text text-anchor="start" x="538" y="-363.5" font-family="Helvetica,sans-Serif" font-size="10.00">/SmallGameLibrary/include/Small</text>
<text text-anchor="middle" x="611.5" y="-352.5" font-family="Helvetica,sans-Serif" font-size="10.00">/Core/Scene.hpp</text>
</a>
</g>
</g>
<!-- Node2&#45;&gt;Node5 -->
<g id="edge4" class="edge">
<title>Node2&#45;&gt;Node5</title>
<path fill="none" stroke="midnightblue" d="M611.5,-424.19C611.5,-415.28 611.5,-405.9 611.5,-397.61"/>
<polygon fill="midnightblue" stroke="midnightblue" points="608,-424.34 611.5,-434.34 615,-424.34 608,-424.34"/>
</g>
<!-- Node4 -->
<g id="node4" class="node">
<title>Node4</title>
<g id="a_node4"><a xlink:href="../../da/d41/All_8hpp.html" target="_top" xlink:title="Include the needed files to start a project using the library.">
<polygon fill="white" stroke="black" points="882.5,-0.5 882.5,-41.5 1076.5,-41.5 1076.5,-0.5 882.5,-0.5"/>
<text text-anchor="start" x="890.5" y="-29.5" font-family="Helvetica,sans-Serif" font-size="10.00">C:/Users/folae/Documents</text>
<text text-anchor="start" x="890.5" y="-18.5" font-family="Helvetica,sans-Serif" font-size="10.00">/Code/Big&#45;Projects/ScriptWizards</text>
<text text-anchor="middle" x="979.5" y="-7.5" font-family="Helvetica,sans-Serif" font-size="10.00">/SmallGameLibrary/include/Small/All.hpp</text>
</a>
</g>
</g>
<!-- Node3&#45;&gt;Node4 -->
<g id="edge3" class="edge">
<title>Node3&#45;&gt;Node4</title>
<path fill="none" stroke="midnightblue" d="M188.99,-81.93C196.57,-80.45 204.16,-79.11 211.5,-78 450.91,-41.75 735.99,-28.76 882.28,-24.27"/>
<polygon fill="midnightblue" stroke="midnightblue" points="188.14,-78.53 179.03,-83.95 189.53,-85.39 188.14,-78.53"/>
</g>
<!-- Node5&#45;&gt;Node3 -->
<g id="edge5" class="edge">
<title>Node5&#45;&gt;Node3</title>
<path fill="none" stroke="midnightblue" d="M520.03,-355.53C391.13,-332.4 166.16,-283.89 116.5,-220 95.22,-192.61 95.85,-149.95 98.5,-125.17"/>
<polygon fill="midnightblue" stroke="midnightblue" points="519.44,-358.98 529.9,-357.29 520.67,-352.09 519.44,-358.98"/>
</g>
<!-- Node6 -->
<g id="node6" class="node">
<title>Node6</title>
<g id="a_node6"><a xlink:href="../../df/d74/SceneManager_8hpp.html" target="_top" xlink:title="Define the scene manager (creating, handling and destroying them)">
<polygon fill="white" stroke="black" points="349,-256.5 349,-308.5 512,-308.5 512,-256.5 349,-256.5"/>
<text text-anchor="start" x="357" y="-296.5" font-family="Helvetica,sans-Serif" font-size="10.00">C:/Users/folae/Documents</text>
<text text-anchor="start" x="357" y="-285.5" font-family="Helvetica,sans-Serif" font-size="10.00">/Code/Big&#45;Projects/ScriptWizards</text>
<text text-anchor="start" x="357" y="-274.5" font-family="Helvetica,sans-Serif" font-size="10.00">/SmallGameLibrary/include/Small</text>
<text text-anchor="middle" x="430.5" y="-263.5" font-family="Helvetica,sans-Serif" font-size="10.00">/Core/SceneManager.hpp</text>
</a>
</g>
</g>
<!-- Node5&#45;&gt;Node6 -->
<g id="edge6" class="edge">
<title>Node5&#45;&gt;Node6</title>
<path fill="none" stroke="midnightblue" d="M549.95,-340.92C528.1,-330.41 503.73,-318.7 482.74,-308.61"/>
<polygon fill="midnightblue" stroke="midnightblue" points="548.62,-344.16 559.15,-345.34 551.65,-337.85 548.62,-344.16"/>
</g>
<!-- Node10 -->
<g id="node10" class="node">
<title>Node10</title>
<g id="a_node10"><a xlink:href="../../de/d15/Scene_8cpp.html" target="_top" xlink:title=" ">
<polygon fill="white" stroke="black" points="530,-167.5 530,-219.5 693,-219.5 693,-167.5 530,-167.5"/>
<text text-anchor="start" x="538" y="-207.5" font-family="Helvetica,sans-Serif" font-size="10.00">C:/Users/folae/Documents</text>
<text text-anchor="start" x="538" y="-196.5" font-family="Helvetica,sans-Serif" font-size="10.00">/Code/Big&#45;Projects/ScriptWizards</text>
<text text-anchor="start" x="538" y="-185.5" font-family="Helvetica,sans-Serif" font-size="10.00">/SmallGameLibrary/source/Core</text>
<text text-anchor="middle" x="611.5" y="-174.5" font-family="Helvetica,sans-Serif" font-size="10.00">/Scene.cpp</text>
</a>
</g>
</g>
<!-- Node5&#45;&gt;Node10 -->
<g id="edge21" class="edge">
<title>Node5&#45;&gt;Node10</title>
<path fill="none" stroke="midnightblue" d="M611.5,-335.25C611.5,-301.04 611.5,-249.97 611.5,-219.67"/>
<polygon fill="midnightblue" stroke="midnightblue" points="608,-335.28 611.5,-345.28 615,-335.28 608,-335.28"/>
</g>
<!-- Node12 -->
<g id="node12" class="node">
<title>Node12</title>
<g id="a_node12"><a xlink:href="../../de/de7/ArkScene_8hpp.html" target="_top" xlink:title="Define a scene scriptable through ArkScript.">
<polygon fill="white" stroke="black" points="714,-256.5 714,-308.5 877,-308.5 877,-256.5 714,-256.5"/>
<text text-anchor="start" x="722" y="-296.5" font-family="Helvetica,sans-Serif" font-size="10.00">C:/Users/folae/Documents</text>
<text text-anchor="start" x="722" y="-285.5" font-family="Helvetica,sans-Serif" font-size="10.00">/Code/Big&#45;Projects/ScriptWizards</text>
<text text-anchor="start" x="722" y="-274.5" font-family="Helvetica,sans-Serif" font-size="10.00">/SmallGameLibrary/include/Small</text>
<text text-anchor="middle" x="795.5" y="-263.5" font-family="Helvetica,sans-Serif" font-size="10.00">/Scenes/ArkScene.hpp</text>
</a>
</g>
</g>
<!-- Node5&#45;&gt;Node12 -->
<g id="edge14" class="edge">
<title>Node5&#45;&gt;Node12</title>
<path fill="none" stroke="midnightblue" d="M673.77,-341.06C696.06,-330.52 720.96,-318.75 742.4,-308.61"/>
<polygon fill="midnightblue" stroke="midnightblue" points="672.26,-337.9 664.72,-345.34 675.26,-344.23 672.26,-337.9"/>
</g>
<!-- Node15 -->
<g id="node15" class="node">
<title>Node15</title>
<g id="a_node15"><a xlink:href="../../d2/d50/Zone_8hpp.html" target="_top" xlink:title="A specialized scene to handle zones and transitions on a tilemap.">
<polygon fill="white" stroke="black" points="898,-256.5 898,-308.5 1061,-308.5 1061,-256.5 898,-256.5"/>
<text text-anchor="start" x="906" y="-296.5" font-family="Helvetica,sans-Serif" font-size="10.00">C:/Users/folae/Documents</text>
<text text-anchor="start" x="906" y="-285.5" font-family="Helvetica,sans-Serif" font-size="10.00">/Code/Big&#45;Projects/ScriptWizards</text>
<text text-anchor="start" x="906" y="-274.5" font-family="Helvetica,sans-Serif" font-size="10.00">/SmallGameLibrary/include/Small</text>
<text text-anchor="middle" x="979.5" y="-263.5" font-family="Helvetica,sans-Serif" font-size="10.00">/Scenes/Zone.hpp</text>
</a>
</g>
</g>
<!-- Node5&#45;&gt;Node15 -->
<g id="edge18" class="edge">
<title>Node5&#45;&gt;Node15</title>
<path fill="none" stroke="midnightblue" d="M703.03,-351.01C756.39,-339.39 824.91,-324.01 885.5,-309 889.52,-308 893.63,-306.96 897.78,-305.9"/>
<polygon fill="midnightblue" stroke="midnightblue" points="702.28,-347.6 693.25,-353.14 703.76,-354.44 702.28,-347.6"/>
</g>
<!-- Node6&#45;&gt;Node3 -->
<g id="edge7" class="edge">
<title>Node6&#45;&gt;Node3</title>
<path fill="none" stroke="midnightblue" d="M338.73,-269.34C271.14,-258.82 186.34,-241.86 158.5,-220 127.94,-196 112.52,-151.31 105.83,-125.43"/>
<polygon fill="midnightblue" stroke="midnightblue" points="338.58,-272.85 349,-270.9 339.64,-265.93 338.58,-272.85"/>
</g>
<!-- Node7 -->
<g id="node7" class="node">
<title>Node7</title>
<g id="a_node7"><a xlink:href="../../df/d3c/Application_8hpp.html" target="_top" xlink:title="Define the application hosting the scenes for the game.">
<polygon fill="white" stroke="black" points="168,-167.5 168,-219.5 331,-219.5 331,-167.5 168,-167.5"/>
<text text-anchor="start" x="176" y="-207.5" font-family="Helvetica,sans-Serif" font-size="10.00">C:/Users/folae/Documents</text>
<text text-anchor="start" x="176" y="-196.5" font-family="Helvetica,sans-Serif" font-size="10.00">/Code/Big&#45;Projects/ScriptWizards</text>
<text text-anchor="start" x="176" y="-185.5" font-family="Helvetica,sans-Serif" font-size="10.00">/SmallGameLibrary/include/Small</text>
<text text-anchor="middle" x="249.5" y="-174.5" font-family="Helvetica,sans-Serif" font-size="10.00">/Core/Application.hpp</text>
</a>
</g>
</g>
<!-- Node6&#45;&gt;Node7 -->
<g id="edge8" class="edge">
<title>Node6&#45;&gt;Node7</title>
<path fill="none" stroke="midnightblue" d="M368.95,-251.92C347.1,-241.41 322.73,-229.7 301.74,-219.61"/>
<polygon fill="midnightblue" stroke="midnightblue" points="367.62,-255.16 378.15,-256.34 370.65,-248.85 367.62,-255.16"/>
</g>
<!-- Node6&#45;&gt;Node10 -->
<g id="edge12" class="edge">
<title>Node6&#45;&gt;Node10</title>
<path fill="none" stroke="midnightblue" d="M492.05,-251.92C513.9,-241.41 538.27,-229.7 559.26,-219.61"/>
<polygon fill="midnightblue" stroke="midnightblue" points="490.35,-248.85 482.85,-256.34 493.38,-255.16 490.35,-248.85"/>
</g>
<!-- Node11 -->
<g id="node11" class="node">
<title>Node11</title>
<g id="a_node11"><a xlink:href="../../da/d2c/SceneManager_8cpp.html" target="_top" xlink:title=" ">
<polygon fill="white" stroke="black" points="349,-167.5 349,-219.5 512,-219.5 512,-167.5 349,-167.5"/>
<text text-anchor="start" x="357" y="-207.5" font-family="Helvetica,sans-Serif" font-size="10.00">C:/Users/folae/Documents</text>
<text text-anchor="start" x="357" y="-196.5" font-family="Helvetica,sans-Serif" font-size="10.00">/Code/Big&#45;Projects/ScriptWizards</text>
<text text-anchor="start" x="357" y="-185.5" font-family="Helvetica,sans-Serif" font-size="10.00">/SmallGameLibrary/source/Core</text>
<text text-anchor="middle" x="430.5" y="-174.5" font-family="Helvetica,sans-Serif" font-size="10.00">/SceneManager.cpp</text>
</a>
</g>
</g>
<!-- Node6&#45;&gt;Node11 -->
<g id="edge13" class="edge">
<title>Node6&#45;&gt;Node11</title>
<path fill="none" stroke="midnightblue" d="M430.5,-246.19C430.5,-237.28 430.5,-227.9 430.5,-219.61"/>
<polygon fill="midnightblue" stroke="midnightblue" points="427,-246.34 430.5,-256.34 434,-246.34 427,-246.34"/>
</g>
<!-- Node7&#45;&gt;Node3 -->
<g id="edge9" class="edge">
<title>Node7&#45;&gt;Node3</title>
<path fill="none" stroke="midnightblue" d="M197.91,-162.17C176.98,-149.87 153.41,-136.01 134.81,-125.08"/>
<polygon fill="midnightblue" stroke="midnightblue" points="196.3,-165.29 206.69,-167.34 199.85,-159.25 196.3,-165.29"/>
</g>
<!-- Node8 -->
<g id="node8" class="node">
<title>Node8</title>
<g id="a_node8"><a xlink:href="../../d2/db6/Application_8cpp.html" target="_top" xlink:title=" ">
<polygon fill="white" stroke="black" points="221,-78.5 221,-130.5 384,-130.5 384,-78.5 221,-78.5"/>
<text text-anchor="start" x="229" y="-118.5" font-family="Helvetica,sans-Serif" font-size="10.00">C:/Users/folae/Documents</text>
<text text-anchor="start" x="229" y="-107.5" font-family="Helvetica,sans-Serif" font-size="10.00">/Code/Big&#45;Projects/ScriptWizards</text>
<text text-anchor="start" x="229" y="-96.5" font-family="Helvetica,sans-Serif" font-size="10.00">/SmallGameLibrary/source/Core</text>
<text text-anchor="middle" x="302.5" y="-85.5" font-family="Helvetica,sans-Serif" font-size="10.00">/Application.cpp</text>
</a>
</g>
</g>
<!-- Node7&#45;&gt;Node8 -->
<g id="edge10" class="edge">
<title>Node7&#45;&gt;Node8</title>
<path fill="none" stroke="midnightblue" d="M270.13,-158.64C275.81,-149.31 281.88,-139.35 287.2,-130.61"/>
<polygon fill="midnightblue" stroke="midnightblue" points="267.04,-156.97 264.83,-167.34 273.02,-160.62 267.04,-156.97"/>
</g>
<!-- Node9 -->
<g id="node9" class="node">
<title>Node9</title>
<g id="a_node9"><a xlink:href="../../db/da3/Bindings_8cpp.html" target="_top" xlink:title=" ">
<polygon fill="white" stroke="black" points="402,-78.5 402,-130.5 575,-130.5 575,-78.5 402,-78.5"/>
<text text-anchor="start" x="410" y="-118.5" font-family="Helvetica,sans-Serif" font-size="10.00">C:/Users/folae/Documents</text>
<text text-anchor="start" x="410" y="-107.5" font-family="Helvetica,sans-Serif" font-size="10.00">/Code/Big&#45;Projects/ScriptWizards</text>
<text text-anchor="start" x="410" y="-96.5" font-family="Helvetica,sans-Serif" font-size="10.00">/SmallGameLibrary/source/Scripting</text>
<text text-anchor="middle" x="488.5" y="-85.5" font-family="Helvetica,sans-Serif" font-size="10.00">/Bindings.cpp</text>
</a>
</g>
</g>
<!-- Node7&#45;&gt;Node9 -->
<g id="edge11" class="edge">
<title>Node7&#45;&gt;Node9</title>
<path fill="none" stroke="midnightblue" d="M327.8,-164C357.48,-153.19 391.03,-140.98 419.76,-130.52"/>
<polygon fill="midnightblue" stroke="midnightblue" points="326.51,-160.74 318.31,-167.45 328.9,-167.32 326.51,-160.74"/>
</g>
<!-- Node13 -->
<g id="node13" class="node">
<title>Node13</title>
<g id="a_node13"><a xlink:href="../../d0/d00/Scenes_8hpp.html" target="_top" xlink:title="Include all the files from the Scenes folder.">
<polygon fill="white" stroke="black" points="898,-167.5 898,-219.5 1061,-219.5 1061,-167.5 898,-167.5"/>
<text text-anchor="start" x="906" y="-207.5" font-family="Helvetica,sans-Serif" font-size="10.00">C:/Users/folae/Documents</text>
<text text-anchor="start" x="906" y="-196.5" font-family="Helvetica,sans-Serif" font-size="10.00">/Code/Big&#45;Projects/ScriptWizards</text>
<text text-anchor="start" x="906" y="-185.5" font-family="Helvetica,sans-Serif" font-size="10.00">/SmallGameLibrary/include/Small</text>
<text text-anchor="middle" x="979.5" y="-174.5" font-family="Helvetica,sans-Serif" font-size="10.00">/Scenes.hpp</text>
</a>
</g>
</g>
<!-- Node12&#45;&gt;Node13 -->
<g id="edge15" class="edge">
<title>Node12&#45;&gt;Node13</title>
<path fill="none" stroke="midnightblue" d="M857.77,-252.06C880.06,-241.52 904.96,-229.75 926.4,-219.61"/>
<polygon fill="midnightblue" stroke="midnightblue" points="856.26,-248.9 848.72,-256.34 859.26,-255.23 856.26,-248.9"/>
</g>
<!-- Node14 -->
<g id="node14" class="node">
<title>Node14</title>
<g id="a_node14"><a xlink:href="../../d4/dff/ArkScene_8cpp.html" target="_top" xlink:title=" ">
<polygon fill="white" stroke="black" points="711.5,-167.5 711.5,-219.5 879.5,-219.5 879.5,-167.5 711.5,-167.5"/>
<text text-anchor="start" x="719.5" y="-207.5" font-family="Helvetica,sans-Serif" font-size="10.00">C:/Users/folae/Documents</text>
<text text-anchor="start" x="719.5" y="-196.5" font-family="Helvetica,sans-Serif" font-size="10.00">/Code/Big&#45;Projects/ScriptWizards</text>
<text text-anchor="start" x="719.5" y="-185.5" font-family="Helvetica,sans-Serif" font-size="10.00">/SmallGameLibrary/source/Scenes</text>
<text text-anchor="middle" x="795.5" y="-174.5" font-family="Helvetica,sans-Serif" font-size="10.00">/ArkScene.cpp</text>
</a>
</g>
</g>
<!-- Node12&#45;&gt;Node14 -->
<g id="edge17" class="edge">
<title>Node12&#45;&gt;Node14</title>
<path fill="none" stroke="midnightblue" d="M795.5,-246.19C795.5,-237.28 795.5,-227.9 795.5,-219.61"/>
<polygon fill="midnightblue" stroke="midnightblue" points="792,-246.34 795.5,-256.34 799,-246.34 792,-246.34"/>
</g>
<!-- Node13&#45;&gt;Node4 -->
<g id="edge16" class="edge">
<title>Node13&#45;&gt;Node4</title>
<path fill="none" stroke="midnightblue" d="M979.5,-157.08C979.5,-122.09 979.5,-69.84 979.5,-41.68"/>
<polygon fill="midnightblue" stroke="midnightblue" points="976,-157.34 979.5,-167.34 983,-157.34 976,-157.34"/>
</g>
<!-- Node15&#45;&gt;Node13 -->
<g id="edge19" class="edge">
<title>Node15&#45;&gt;Node13</title>
<path fill="none" stroke="midnightblue" d="M979.5,-246.19C979.5,-237.28 979.5,-227.9 979.5,-219.61"/>
<polygon fill="midnightblue" stroke="midnightblue" points="976,-246.34 979.5,-256.34 983,-246.34 976,-246.34"/>
</g>
<!-- Node16 -->
<g id="node16" class="node">
<title>Node16</title>
<g id="a_node16"><a xlink:href="../../db/d53/Zone_8cpp.html" target="_top" xlink:title=" ">
<polygon fill="white" stroke="black" points="1079,-173 1079,-214 1290,-214 1290,-173 1079,-173"/>
<text text-anchor="start" x="1087" y="-202" font-family="Helvetica,sans-Serif" font-size="10.00">C:/Users/folae/Documents</text>
<text text-anchor="start" x="1087" y="-191" font-family="Helvetica,sans-Serif" font-size="10.00">/Code/Big&#45;Projects/ScriptWizards</text>
<text text-anchor="middle" x="1184.5" y="-180" font-family="Helvetica,sans-Serif" font-size="10.00">/SmallGameLibrary/source/Scenes/Zone.cpp</text>
</a>
</g>
</g>
<!-- Node15&#45;&gt;Node16 -->
<g id="edge20" class="edge">
<title>Node15&#45;&gt;Node16</title>
<path fill="none" stroke="midnightblue" d="M1047.99,-252.43C1077.66,-239.84 1111.61,-225.43 1138.24,-214.13"/>
<polygon fill="midnightblue" stroke="midnightblue" points="1046.36,-249.32 1038.52,-256.45 1049.09,-255.77 1046.36,-249.32"/>
</g>
<!-- Node18 -->
<g id="node18" class="node">
<title>Node18</title>
<g id="a_node18"><a xlink:href="../../dc/da8/Graphics_8hpp.html" target="_top" xlink:title="Include all the files from the Graphics folder.">
<polygon fill="white" stroke="black" points="974,-345.5 974,-397.5 1137,-397.5 1137,-345.5 974,-345.5"/>
<text text-anchor="start" x="982" y="-385.5" font-family="Helvetica,sans-Serif" font-size="10.00">C:/Users/folae/Documents</text>
<text text-anchor="start" x="982" y="-374.5" font-family="Helvetica,sans-Serif" font-size="10.00">/Code/Big&#45;Projects/ScriptWizards</text>
<text text-anchor="start" x="982" y="-363.5" font-family="Helvetica,sans-Serif" font-size="10.00">/SmallGameLibrary/include/Small</text>
<text text-anchor="middle" x="1055.5" y="-352.5" font-family="Helvetica,sans-Serif" font-size="10.00">/Graphics.hpp</text>
</a>
</g>
</g>
<!-- Node17&#45;&gt;Node18 -->
<g id="edge23" class="edge">
<title>Node17&#45;&gt;Node18</title>
<path fill="none" stroke="midnightblue" d="M1055.5,-424.19C1055.5,-415.28 1055.5,-405.9 1055.5,-397.61"/>
<polygon fill="midnightblue" stroke="midnightblue" points="1052,-424.34 1055.5,-434.34 1059,-424.34 1052,-424.34"/>
</g>
<!-- Node19 -->
<g id="node19" class="node">
<title>Node19</title>
<g id="a_node19"><a xlink:href="../../d0/dff/Sprite_8cpp.html" target="_top" xlink:title=" ">
<polygon fill="white" stroke="black" points="1155.5,-345.5 1155.5,-397.5 1329.5,-397.5 1329.5,-345.5 1155.5,-345.5"/>
<text text-anchor="start" x="1163.5" y="-385.5" font-family="Helvetica,sans-Serif" font-size="10.00">C:/Users/folae/Documents</text>
<text text-anchor="start" x="1163.5" y="-374.5" font-family="Helvetica,sans-Serif" font-size="10.00">/Code/Big&#45;Projects/ScriptWizards</text>
<text text-anchor="start" x="1163.5" y="-363.5" font-family="Helvetica,sans-Serif" font-size="10.00">/SmallGameLibrary/source/Graphics</text>
<text text-anchor="middle" x="1242.5" y="-352.5" font-family="Helvetica,sans-Serif" font-size="10.00">/Sprite.cpp</text>
</a>
</g>
</g>
<!-- Node17&#45;&gt;Node19 -->
<g id="edge25" class="edge">
<title>Node17&#45;&gt;Node19</title>
<path fill="none" stroke="midnightblue" d="M1118.58,-430.15C1141.35,-419.56 1166.82,-407.71 1188.72,-397.52"/>
<polygon fill="midnightblue" stroke="midnightblue" points="1116.93,-427.06 1109.34,-434.45 1119.88,-433.41 1116.93,-427.06"/>
</g>
<!-- Node18&#45;&gt;Node4 -->
<g id="edge24" class="edge">
<title>Node18&#45;&gt;Node4</title>
<path fill="none" stroke="midnightblue" d="M1141.7,-341.84C1230.49,-307.37 1349.39,-244.38 1299.5,-167 1250.67,-91.26 1151.61,-54.65 1076.57,-37.23"/>
<polygon fill="midnightblue" stroke="midnightblue" points="1140.22,-338.65 1132.12,-345.49 1142.71,-345.19 1140.22,-338.65"/>
</g>
</g>
</svg>
