<?xml version="1.0" encoding="UTF-8" standalone="no"?>
<!DOCTYPE svg PUBLIC "-//W3C//DTD SVG 1.1//EN"
 "http://www.w3.org/Graphics/SVG/1.1/DTD/svg11.dtd">
<!-- Generated by graphviz version 2.38.0 (20140413.2041)
 -->
<!-- Title: C:/Users/Folaefolc/Documents/Code/Big&#45;Projects/ScriptWizards/SmallGameLibrary/include/Small/Core/Application.hpp Pages: 1 -->
<!--zoomable 296 -->
<svg id="main" version="1.1" xmlns="http://www.w3.org/2000/svg" xmlns:xlink="http://www.w3.org/1999/xlink" xml:space="preserve" onload="init(evt)">
<style type="text/css"><![CDATA[
.edge:hover path { stroke: red; }
.edge:hover polygon { stroke: red; fill: red; }
]]></style>
<script type="text/javascript"><![CDATA[
var edges = document.getElementsByTagName('g');
if (edges && edges.length) {
  for (var i=0;i<edges.length;i++) {
    if (edges[i].id.substr(0,4)=='edge') {
      edges[i].setAttribute('class','edge');
    }
  }
}
]]></script>
        <defs>
                <circle id="rim" cx="0" cy="0" r="7"/>
                <circle id="rim2" cx="0" cy="0" r="3.5"/>
                <g id="zoomPlus">
                        <use xlink:href="#rim" fill="#404040">
                                <set attributeName="fill" to="#808080" begin="zoomplus.mouseover" end="zoomplus.mouseout"/>
                        </use>
                        <path d="M-4,0h8M0,-4v8" fill="none" stroke="white" stroke-width="1.5" pointer-events="none"/>
                </g>
                <g id="zoomMin">
                        <use xlink:href="#rim" fill="#404040">
                                <set attributeName="fill" to="#808080" begin="zoomminus.mouseover" end="zoomminus.mouseout"/>
                        </use>
                        <path d="M-4,0h8" fill="none" stroke="white" stroke-width="1.5" pointer-events="none"/>
                </g>
                <g id="dirArrow">
                        <path fill="none" stroke="white" stroke-width="1.5" d="M0,-3.0v7 M-2.5,-0.5L0,-3.0L2.5,-0.5"/>
                </g>
               <g id="resetDef">
                       <use xlink:href="#rim2" fill="#404040">
                               <set attributeName="fill" to="#808080" begin="reset.mouseover" end="reset.mouseout"/>
                       </use>
               </g>
        </defs>

<script type="text/javascript">
var viewWidth = 1613;
var viewHeight = 296;
var sectionId = 'dynsection-0';
</script>
<script xlink:href="../../svgpan.js"/>
<svg id="graph" class="graph">
<g id="viewport">
<title>C:/Users/Folaefolc/Documents/Code/Big&#45;Projects/ScriptWizards/SmallGameLibrary/include/Small/Core/Application.hpp</title>
<polygon fill="white" stroke="none" points="-4,4 -4,-292 1608.81,-292 1608.81,4 -4,4"/>
<!-- Node1 -->
<g id="node1" class="node"><title>Node1</title>
<polygon fill="#bfbfbf" stroke="black" points="808.306,-224.5 808.306,-287.5 945.306,-287.5 945.306,-224.5 808.306,-224.5"/>
<text text-anchor="start" x="816.306" y="-275.5" font-family="Helvetica,sans-Serif" font-size="10.00">C:/Users/Folaefolc</text>
<text text-anchor="start" x="816.306" y="-264.5" font-family="Helvetica,sans-Serif" font-size="10.00">/Documents/Code/Big</text>
<text text-anchor="start" x="816.306" y="-253.5" font-family="Helvetica,sans-Serif" font-size="10.00">&#45;Projects/ScriptWizards</text>
<text text-anchor="start" x="816.306" y="-242.5" font-family="Helvetica,sans-Serif" font-size="10.00">/SmallGameLibrary/include</text>
<text text-anchor="middle" x="876.806" y="-231.5" font-family="Helvetica,sans-Serif" font-size="10.00">/Small/Core/Application.hpp</text>
</g>
<!-- Node2 -->
<g id="node2" class="node"><title>Node2</title>
<polygon fill="white" stroke="#bfbfbf" points="156.806,-56.5 156.806,-75.5 260.806,-75.5 260.806,-56.5 156.806,-56.5"/>
<text text-anchor="middle" x="208.806" y="-63.5" font-family="Helvetica,sans-Serif" font-size="10.00">SFML/Graphics.hpp</text>
</g>
<!-- Node1&#45;&gt;Node2 -->
<g id="edge1" class="edge"><title>Node1&#45;&gt;Node2</title>
<path fill="none" stroke="midnightblue" d="M807.958,-250.57C681.899,-241.79 419.116,-220.205 333.806,-188 292.518,-172.413 282.782,-163.435 251.806,-132 237.898,-117.885 225.83,-98.647 218.049,-84.7668"/>
<polygon fill="midnightblue" stroke="midnightblue" points="221.011,-82.8874 213.175,-75.7568 214.854,-86.2177 221.011,-82.8874"/>
</g>
<!-- Node3 -->
<g id="node3" class="node"><title>Node3</title>
<polygon fill="white" stroke="#bfbfbf" points="278.806,-56.5 278.806,-75.5 404.806,-75.5 404.806,-56.5 278.806,-56.5"/>
<text text-anchor="middle" x="341.806" y="-63.5" font-family="Helvetica,sans-Serif" font-size="10.00">SFML/Window/Event.hpp</text>
</g>
<!-- Node1&#45;&gt;Node3 -->
<g id="edge2" class="edge"><title>Node1&#45;&gt;Node3</title>
<path fill="none" stroke="midnightblue" d="M808.074,-251.398C666.384,-242.363 349.707,-213.326 285.806,-132 271.473,-113.758 295.309,-93.6533 316.175,-80.7045"/>
<polygon fill="midnightblue" stroke="midnightblue" points="317.973,-83.7077 324.816,-75.6194 314.422,-77.6748 317.973,-83.7077"/>
</g>
<!-- Node4 -->
<g id="node4" class="node"><title>Node4</title>
<polygon fill="white" stroke="#bfbfbf" points="12.8063,-56.5 12.8063,-75.5 138.806,-75.5 138.806,-56.5 12.8063,-56.5"/>
<text text-anchor="middle" x="75.8063" y="-63.5" font-family="Helvetica,sans-Serif" font-size="10.00">SFML/System/Clock.hpp</text>
</g>
<!-- Node1&#45;&gt;Node4 -->
<g id="edge3" class="edge"><title>Node1&#45;&gt;Node4</title>
<path fill="none" stroke="midnightblue" d="M808.231,-255.331C696.916,-254.079 471.097,-244.048 289.806,-188 211.994,-163.943 131.278,-108.517 95.2235,-81.8559"/>
<polygon fill="midnightblue" stroke="midnightblue" points="97.1508,-78.9265 87.0484,-75.7339 92.9549,-84.5296 97.1508,-78.9265"/>
</g>
<!-- Node5 -->
<g id="node5" class="node"><title>Node5</title>
<polygon fill="white" stroke="#bfbfbf" points="398.306,-0.5 398.306,-19.5 439.306,-19.5 439.306,-0.5 398.306,-0.5"/>
<text text-anchor="middle" x="418.806" y="-7.5" font-family="Helvetica,sans-Serif" font-size="10.00">string</text>
</g>
<!-- Node1&#45;&gt;Node5 -->
<g id="edge4" class="edge"><title>Node1&#45;&gt;Node5</title>
<path fill="none" stroke="midnightblue" d="M808.036,-252.955C617.28,-245.562 89.8734,-212.866 3.80628,-76 -38.0473,-9.44362 285.007,-8.89174 387.963,-10.3736"/>
<polygon fill="midnightblue" stroke="midnightblue" points="387.986,-13.8743 398.041,-10.5358 388.098,-6.87525 387.986,-13.8743"/>
</g>
<!-- Node6 -->
<g id="node6" class="node"><title>Node6</title>
<polygon fill="white" stroke="#bfbfbf" points="1076.81,-168.5 1076.81,-187.5 1124.81,-187.5 1124.81,-168.5 1076.81,-168.5"/>
<text text-anchor="middle" x="1100.81" y="-175.5" font-family="Helvetica,sans-Serif" font-size="10.00">imgui.h</text>
</g>
<!-- Node1&#45;&gt;Node6 -->
<g id="edge5" class="edge"><title>Node1&#45;&gt;Node6</title>
<path fill="none" stroke="midnightblue" d="M945.536,-231.681C985.804,-218.019 1034.89,-201.364 1066.95,-190.487"/>
<polygon fill="midnightblue" stroke="midnightblue" points="1068.38,-193.697 1076.73,-187.17 1066.13,-187.068 1068.38,-193.697"/>
</g>
<!-- Node7 -->
<g id="node7" class="node"><title>Node7</title>
<polygon fill="white" stroke="#bfbfbf" points="1143.31,-168.5 1143.31,-187.5 1220.31,-187.5 1220.31,-168.5 1143.31,-168.5"/>
<text text-anchor="middle" x="1181.81" y="-175.5" font-family="Helvetica,sans-Serif" font-size="10.00">imgui&#45;SFML.h</text>
</g>
<!-- Node1&#45;&gt;Node7 -->
<g id="edge6" class="edge"><title>Node1&#45;&gt;Node7</title>
<path fill="none" stroke="midnightblue" d="M945.635,-237.849C1004.48,-223.186 1087.4,-202.524 1137.72,-189.987"/>
<polygon fill="midnightblue" stroke="midnightblue" points="1138.77,-193.33 1147.63,-187.516 1137.08,-186.537 1138.77,-193.33"/>
</g>
<!-- Node8 -->
<g id="node8" class="node"><title>Node8</title>
<polygon fill="white" stroke="#bfbfbf" points="1238.31,-168.5 1238.31,-187.5 1339.31,-187.5 1339.31,-168.5 1238.31,-168.5"/>
<text text-anchor="middle" x="1288.81" y="-175.5" font-family="Helvetica,sans-Serif" font-size="10.00">SFML/OpenGL.hpp</text>
</g>
<!-- Node1&#45;&gt;Node8 -->
<g id="edge7" class="edge"><title>Node1&#45;&gt;Node8</title>
<path fill="none" stroke="midnightblue" d="M945.766,-242.279C1026.28,-227.427 1157.9,-203.147 1232.53,-189.381"/>
<polygon fill="midnightblue" stroke="midnightblue" points="1233.47,-192.767 1242.67,-187.511 1232.2,-185.883 1233.47,-192.767"/>
</g>
<!-- Node9 -->
<g id="node9" class="node"><title>Node9</title>
<g id="a_node9"><a xlink:href="../../df/d74/SceneManager_8hpp.html" target="_top" xlink:title="Define the scene manager (creating, handling and destroying them) ">
<polygon fill="white" stroke="black" points="524.806,-168.5 524.806,-187.5 676.806,-187.5 676.806,-168.5 524.806,-168.5"/>
<text text-anchor="middle" x="600.806" y="-175.5" font-family="Helvetica,sans-Serif" font-size="10.00">Small/Core/SceneManager.hpp</text>
</a>
</g>
</g>
<!-- Node1&#45;&gt;Node9 -->
<g id="edge8" class="edge"><title>Node1&#45;&gt;Node9</title>
<path fill="none" stroke="midnightblue" d="M808.227,-236.116C755.795,-221.678 685.284,-202.262 641.461,-190.195"/>
<polygon fill="midnightblue" stroke="midnightblue" points="642.297,-186.795 631.727,-187.514 640.439,-193.544 642.297,-186.795"/>
</g>
<!-- Node13 -->
<g id="node13" class="node"><title>Node13</title>
<g id="a_node13"><a xlink:href="../../df/db4/Config_8hpp.html" target="_top" xlink:title="Small/Scripting/Config.hpp">
<polygon fill="white" stroke="black" points="536.306,-56.5 536.306,-75.5 667.306,-75.5 667.306,-56.5 536.306,-56.5"/>
<text text-anchor="middle" x="601.806" y="-63.5" font-family="Helvetica,sans-Serif" font-size="10.00">Small/Scripting/Config.hpp</text>
</a>
</g>
</g>
<!-- Node1&#45;&gt;Node13 -->
<g id="edge38" class="edge"><title>Node1&#45;&gt;Node13</title>
<path fill="none" stroke="midnightblue" d="M860.213,-224.31C841.001,-191.667 806.345,-140.847 762.806,-112 737.16,-95.0078 705.148,-84.3721 676.44,-77.7422"/>
<polygon fill="midnightblue" stroke="midnightblue" points="676.955,-74.2724 666.439,-75.5603 675.463,-81.1115 676.955,-74.2724"/>
</g>
<!-- Node22 -->
<g id="node22" class="node"><title>Node22</title>
<g id="a_node22"><a xlink:href="../../dc/dbc/Profiler_8hpp.html" target="_top" xlink:title="Profiler from https://github.com/bwrsandman/imgui&#45;flame&#45;graph/ (example/main.cpp), updated for the project needs. ">
<polygon fill="white" stroke="black" points="1357.81,-168.5 1357.81,-187.5 1481.81,-187.5 1481.81,-168.5 1357.81,-168.5"/>
<text text-anchor="middle" x="1419.81" y="-175.5" font-family="Helvetica,sans-Serif" font-size="10.00">Small/Debug/Profiler.hpp</text>
</a>
</g>
</g>
<!-- Node1&#45;&gt;Node22 -->
<g id="edge33" class="edge"><title>Node1&#45;&gt;Node22</title>
<path fill="none" stroke="midnightblue" d="M945.578,-245.375C1049.01,-230.898 1243.64,-203.657 1348.52,-188.977"/>
<polygon fill="midnightblue" stroke="midnightblue" points="1349.28,-192.406 1358.69,-187.553 1348.31,-185.473 1349.28,-192.406"/>
</g>
<!-- Node26 -->
<g id="node26" class="node"><title>Node26</title>
<polygon fill="white" stroke="#bfbfbf" points="945.806,-112.5 945.806,-131.5 1013.81,-131.5 1013.81,-112.5 945.806,-112.5"/>
<text text-anchor="middle" x="979.806" y="-119.5" font-family="Helvetica,sans-Serif" font-size="10.00">Ark/Ark.hpp</text>
</g>
<!-- Node1&#45;&gt;Node26 -->
<g id="edge37" class="edge"><title>Node1&#45;&gt;Node26</title>
<path fill="none" stroke="midnightblue" d="M877.279,-224.174C878.981,-206.221 883.691,-184.036 895.806,-168 907.144,-152.993 924.978,-142.44 941.302,-135.345"/>
<polygon fill="midnightblue" stroke="midnightblue" points="942.716,-138.548 950.679,-131.559 940.096,-132.057 942.716,-138.548"/>
</g>
<!-- Node27 -->
<g id="node27" class="node"><title>Node27</title>
<g id="a_node27"><a xlink:href="../../d8/d82/SFMLtoArk_8hpp.html" target="_top" xlink:title="Convert SFML values to ArkScript values. ">
<polygon fill="white" stroke="black" points="904.806,-168.5 904.806,-187.5 1058.81,-187.5 1058.81,-168.5 904.806,-168.5"/>
<text text-anchor="middle" x="981.806" y="-175.5" font-family="Helvetica,sans-Serif" font-size="10.00">Small/Scripting/SFMLtoArk.hpp</text>
</a>
</g>
</g>
<!-- Node1&#45;&gt;Node27 -->
<g id="edge39" class="edge"><title>Node1&#45;&gt;Node27</title>
<path fill="none" stroke="midnightblue" d="M919.211,-224.307C933.725,-213.802 949.308,-202.522 961.296,-193.846"/>
<polygon fill="midnightblue" stroke="midnightblue" points="963.636,-196.472 969.685,-187.774 959.532,-190.802 963.636,-196.472"/>
</g>
<!-- Node30 -->
<g id="node30" class="node"><title>Node30</title>
<polygon fill="white" stroke="#bfbfbf" points="1500.31,-168.5 1500.31,-187.5 1577.31,-187.5 1577.31,-168.5 1500.31,-168.5"/>
<text text-anchor="middle" x="1538.81" y="-175.5" font-family="Helvetica,sans-Serif" font-size="10.00">Application.inl</text>
</g>
<!-- Node1&#45;&gt;Node30 -->
<g id="edge44" class="edge"><title>Node1&#45;&gt;Node30</title>
<path fill="none" stroke="midnightblue" d="M945.628,-249.225C1057.58,-239.448 1286.25,-217.887 1490.08,-188.001"/>
<polygon fill="midnightblue" stroke="midnightblue" points="1490.69,-191.448 1500.08,-186.525 1489.67,-184.523 1490.69,-191.448"/>
</g>
<!-- Node9&#45;&gt;Node2 -->
<g id="edge11" class="edge"><title>Node9&#45;&gt;Node2</title>
<path fill="none" stroke="midnightblue" d="M524.738,-170.988C445.51,-163.869 327.267,-150.589 285.806,-132 260.754,-120.767 237.48,-98.8789 223.219,-83.6207"/>
<polygon fill="midnightblue" stroke="midnightblue" points="225.573,-81.0053 216.269,-75.9359 220.381,-85.7005 225.573,-81.0053"/>
</g>
<!-- Node9&#45;&gt;Node3 -->
<g id="edge13" class="edge"><title>Node9&#45;&gt;Node3</title>
<path fill="none" stroke="midnightblue" d="M524.493,-176.769C443.445,-174.708 323.039,-165.83 293.806,-132 279.475,-115.415 300.521,-94.86 319.096,-81.3603"/>
<polygon fill="midnightblue" stroke="midnightblue" points="321.33,-84.0719 327.586,-75.5211 317.363,-78.3045 321.33,-84.0719"/>
</g>
<!-- Node9&#45;&gt;Node4 -->
<g id="edge12" class="edge"><title>Node9&#45;&gt;Node4</title>
<path fill="none" stroke="midnightblue" d="M524.673,-172.15C453.357,-166.444 344.207,-154.711 251.806,-132 198.114,-118.803 138.246,-94.5297 103.997,-79.6705"/>
<polygon fill="midnightblue" stroke="midnightblue" points="105.198,-76.3755 94.6346,-75.565 102.387,-82.7863 105.198,-76.3755"/>
</g>
<!-- Node10 -->
<g id="node10" class="node"><title>Node10</title>
<polygon fill="white" stroke="#bfbfbf" points="793.806,-0.5 793.806,-19.5 835.806,-19.5 835.806,-0.5 793.806,-0.5"/>
<text text-anchor="middle" x="814.806" y="-7.5" font-family="Helvetica,sans-Serif" font-size="10.00">vector</text>
</g>
<!-- Node9&#45;&gt;Node10 -->
<g id="edge9" class="edge"><title>Node9&#45;&gt;Node10</title>
<path fill="none" stroke="midnightblue" d="M656.229,-168.436C688.765,-161.783 729.833,-150.484 762.806,-132 794.625,-114.163 808.268,-109.455 822.806,-76 829.242,-61.1892 826.074,-42.8049 821.978,-29.3712"/>
<polygon fill="midnightblue" stroke="midnightblue" points="825.248,-28.1189 818.66,-19.8219 818.636,-30.4167 825.248,-28.1189"/>
</g>
<!-- Node11 -->
<g id="node11" class="node"><title>Node11</title>
<polygon fill="white" stroke="#bfbfbf" points="853.806,-0.5 853.806,-19.5 905.806,-19.5 905.806,-0.5 853.806,-0.5"/>
<text text-anchor="middle" x="879.806" y="-7.5" font-family="Helvetica,sans-Serif" font-size="10.00">memory</text>
</g>
<!-- Node9&#45;&gt;Node11 -->
<g id="edge10" class="edge"><title>Node9&#45;&gt;Node11</title>
<path fill="none" stroke="midnightblue" d="M677.221,-170.933C714.638,-165.15 759.004,-153.891 793.806,-132 833.48,-107.045 860.186,-56.4827 872.327,-29.2889"/>
<polygon fill="midnightblue" stroke="midnightblue" points="875.668,-30.3796 876.389,-19.8093 869.233,-27.6229 875.668,-30.3796"/>
</g>
<!-- Node12 -->
<g id="node12" class="node"><title>Node12</title>
<g id="a_node12"><a xlink:href="../../db/de8/Scene_8hpp.html" target="_top" xlink:title="The base scene class and the scene states are defined here. ">
<polygon fill="white" stroke="black" points="623.806,-112.5 623.806,-131.5 737.806,-131.5 737.806,-112.5 623.806,-112.5"/>
<text text-anchor="middle" x="680.806" y="-119.5" font-family="Helvetica,sans-Serif" font-size="10.00">Small/Core/Scene.hpp</text>
</a>
</g>
</g>
<!-- Node9&#45;&gt;Node12 -->
<g id="edge14" class="edge"><title>Node9&#45;&gt;Node12</title>
<path fill="none" stroke="midnightblue" d="M613.66,-168.324C626.023,-159.979 644.936,-147.212 659.543,-137.352"/>
<polygon fill="midnightblue" stroke="midnightblue" points="661.654,-140.15 667.985,-131.655 657.738,-134.348 661.654,-140.15"/>
</g>
<!-- Node9&#45;&gt;Node13 -->
<g id="edge28" class="edge"><title>Node9&#45;&gt;Node13</title>
<path fill="none" stroke="midnightblue" d="M677.152,-171.632C703.517,-165.669 730.502,-154.086 746.806,-132 752.085,-124.849 752.079,-119.157 746.806,-112 736.089,-97.452 695.258,-85.5791 659.645,-77.6889"/>
<polygon fill="midnightblue" stroke="midnightblue" points="660.28,-74.2455 649.768,-75.5702 658.812,-81.0898 660.28,-74.2455"/>
</g>
<!-- Node16 -->
<g id="node16" class="node"><title>Node16</title>
<polygon fill="white" stroke="#bfbfbf" points="924.306,-0.5 924.306,-19.5 1073.31,-19.5 1073.31,-0.5 924.306,-0.5"/>
<text text-anchor="middle" x="998.806" y="-7.5" font-family="Helvetica,sans-Serif" font-size="10.00">SFML/Graphics/Transform.hpp</text>
</g>
<!-- Node9&#45;&gt;Node16 -->
<g id="edge29" class="edge"><title>Node9&#45;&gt;Node16</title>
<path fill="none" stroke="midnightblue" d="M676.836,-168.978C720.262,-162.566 775.012,-151.329 820.806,-132 885.629,-104.64 951.393,-52.066 981.644,-26.1717"/>
<polygon fill="midnightblue" stroke="midnightblue" points="983.94,-28.8133 989.204,-19.6188 979.355,-23.5237 983.94,-28.8133"/>
</g>
<!-- Node19 -->
<g id="node19" class="node"><title>Node19</title>
<polygon fill="white" stroke="#bfbfbf" points="302.806,-112.5 302.806,-131.5 352.806,-131.5 352.806,-112.5 302.806,-112.5"/>
<text text-anchor="middle" x="327.806" y="-119.5" font-family="Helvetica,sans-Serif" font-size="10.00">typeinfo</text>
</g>
<!-- Node9&#45;&gt;Node19 -->
<g id="edge30" class="edge"><title>Node9&#45;&gt;Node19</title>
<path fill="none" stroke="midnightblue" d="M549.766,-168.497C503.406,-160.524 432.938,-147.786 362.886,-132.119"/>
<polygon fill="midnightblue" stroke="midnightblue" points="363.532,-128.677 353.007,-129.889 361.991,-135.505 363.532,-128.677"/>
</g>
<!-- Node20 -->
<g id="node20" class="node"><title>Node20</title>
<polygon fill="white" stroke="#bfbfbf" points="371.306,-112.5 371.306,-131.5 454.306,-131.5 454.306,-112.5 371.306,-112.5"/>
<text text-anchor="middle" x="412.806" y="-119.5" font-family="Helvetica,sans-Serif" font-size="10.00">unordered_map</text>
</g>
<!-- Node9&#45;&gt;Node20 -->
<g id="edge31" class="edge"><title>Node9&#45;&gt;Node20</title>
<path fill="none" stroke="midnightblue" d="M571.017,-168.444C538.977,-159.241 487.873,-144.562 452.453,-134.388"/>
<polygon fill="midnightblue" stroke="midnightblue" points="453.034,-130.913 442.456,-131.516 451.101,-137.641 453.034,-130.913"/>
</g>
<!-- Node21 -->
<g id="node21" class="node"><title>Node21</title>
<polygon fill="white" stroke="#bfbfbf" points="472.306,-112.5 472.306,-131.5 567.306,-131.5 567.306,-112.5 472.306,-112.5"/>
<text text-anchor="middle" x="519.806" y="-119.5" font-family="Helvetica,sans-Serif" font-size="10.00">SceneManager.inl</text>
</g>
<!-- Node9&#45;&gt;Node21 -->
<g id="edge32" class="edge"><title>Node9&#45;&gt;Node21</title>
<path fill="none" stroke="midnightblue" d="M587.792,-168.324C575.275,-159.979 556.125,-147.212 541.335,-137.352"/>
<polygon fill="midnightblue" stroke="midnightblue" points="543.05,-134.289 532.788,-131.655 539.167,-140.114 543.05,-134.289"/>
</g>
<!-- Node12&#45;&gt;Node2 -->
<g id="edge15" class="edge"><title>Node12&#45;&gt;Node2</title>
<path fill="none" stroke="midnightblue" d="M623.546,-115.414C546.076,-107.705 403.306,-92.9621 271.324,-76.1544"/>
<polygon fill="midnightblue" stroke="midnightblue" points="271.395,-72.6351 261.032,-74.8367 270.506,-79.5784 271.395,-72.6351"/>
</g>
<!-- Node12&#45;&gt;Node3 -->
<g id="edge17" class="edge"><title>Node12&#45;&gt;Node3</title>
<path fill="none" stroke="midnightblue" d="M627.091,-112.444C566.837,-102.846 469.192,-87.2916 405.235,-77.1037"/>
<polygon fill="midnightblue" stroke="midnightblue" points="405.697,-73.6332 395.271,-75.5164 404.595,-80.546 405.697,-73.6332"/>
</g>
<!-- Node12&#45;&gt;Node4 -->
<g id="edge16" class="edge"><title>Node12&#45;&gt;Node4</title>
<path fill="none" stroke="midnightblue" d="M623.588,-116.079C608.083,-114.75 591.302,-113.316 575.806,-112 388.847,-96.1247 339.346,-95.8477 149.06,-76.0948"/>
<polygon fill="midnightblue" stroke="midnightblue" points="149.315,-72.6025 139.006,-75.0467 148.589,-79.5647 149.315,-72.6025"/>
</g>
<!-- Node12&#45;&gt;Node5 -->
<g id="edge18" class="edge"><title>Node12&#45;&gt;Node5</title>
<path fill="none" stroke="midnightblue" d="M623.888,-112.475C560.604,-102.582 465.439,-86.3109 451.806,-76 436.698,-64.5739 427.976,-44.29 423.337,-29.4115"/>
<polygon fill="midnightblue" stroke="midnightblue" points="426.698,-28.4343 420.648,-19.737 419.954,-30.3091 426.698,-28.4343"/>
</g>
<!-- Node12&#45;&gt;Node13 -->
<g id="edge19" class="edge"><title>Node12&#45;&gt;Node13</title>
<path fill="none" stroke="midnightblue" d="M668.114,-112.324C655.905,-103.979 637.228,-91.2122 622.803,-81.3524"/>
<polygon fill="midnightblue" stroke="midnightblue" points="624.698,-78.4082 614.468,-75.6545 620.748,-84.1871 624.698,-78.4082"/>
</g>
<!-- Node14 -->
<g id="node14" class="node"><title>Node14</title>
<g id="a_node14"><a xlink:href="../../d7/dc6/Node_8hpp.html" target="_top" xlink:title="A scene graph node. ">
<polygon fill="white" stroke="black" points="685.806,-56.5 685.806,-75.5 813.806,-75.5 813.806,-56.5 685.806,-56.5"/>
<text text-anchor="middle" x="749.806" y="-63.5" font-family="Helvetica,sans-Serif" font-size="10.00">Small/Graphics/Node.hpp</text>
</a>
</g>
</g>
<!-- Node12&#45;&gt;Node14 -->
<g id="edge21" class="edge"><title>Node12&#45;&gt;Node14</title>
<path fill="none" stroke="midnightblue" d="M691.892,-112.324C702.292,-104.185 718.067,-91.8395 730.528,-82.0874"/>
<polygon fill="midnightblue" stroke="midnightblue" points="732.801,-84.7533 738.519,-75.8339 728.486,-79.2407 732.801,-84.7533"/>
</g>
<!-- Node18 -->
<g id="node18" class="node"><title>Node18</title>
<polygon fill="white" stroke="#bfbfbf" points="461.306,-56.5 461.306,-75.5 518.306,-75.5 518.306,-56.5 461.306,-56.5"/>
<text text-anchor="middle" x="489.806" y="-63.5" font-family="Helvetica,sans-Serif" font-size="10.00">Scene.inl</text>
</g>
<!-- Node12&#45;&gt;Node18 -->
<g id="edge27" class="edge"><title>Node12&#45;&gt;Node18</title>
<path fill="none" stroke="midnightblue" d="M650.542,-112.444C617.37,-103.065 564.084,-88.0001 528.046,-77.8112"/>
<polygon fill="midnightblue" stroke="midnightblue" points="528.944,-74.4281 518.369,-75.0755 527.04,-81.1641 528.944,-74.4281"/>
</g>
<!-- Node13&#45;&gt;Node5 -->
<g id="edge20" class="edge"><title>Node13&#45;&gt;Node5</title>
<path fill="none" stroke="midnightblue" d="M572.461,-56.4202C543.577,-47.9639 497.96,-34.5791 449.24,-20.1173"/>
<polygon fill="midnightblue" stroke="midnightblue" points="450.041,-16.7042 439.459,-17.2117 448.048,-23.4144 450.041,-16.7042"/>
</g>
<!-- Node14&#45;&gt;Node10 -->
<g id="edge25" class="edge"><title>Node14&#45;&gt;Node10</title>
<path fill="none" stroke="midnightblue" d="M760.25,-56.324C769.953,-48.2631 784.622,-36.0765 796.306,-26.3695"/>
<polygon fill="midnightblue" stroke="midnightblue" points="798.718,-28.9163 804.173,-19.8339 794.244,-23.532 798.718,-28.9163"/>
</g>
<!-- Node14&#45;&gt;Node11 -->
<g id="edge26" class="edge"><title>Node14&#45;&gt;Node11</title>
<path fill="none" stroke="midnightblue" d="M770.405,-56.4435C791.8,-47.5566 825.487,-33.5632 849.831,-23.4514"/>
<polygon fill="midnightblue" stroke="midnightblue" points="851.411,-26.5848 859.304,-19.5164 848.726,-20.1203 851.411,-26.5848"/>
</g>
<!-- Node15 -->
<g id="node15" class="node"><title>Node15</title>
<polygon fill="white" stroke="#bfbfbf" points="457.806,-0.5 457.806,-19.5 621.806,-19.5 621.806,-0.5 457.806,-0.5"/>
<text text-anchor="middle" x="539.806" y="-7.5" font-family="Helvetica,sans-Serif" font-size="10.00">SFML/Graphics/RenderTarget.hpp</text>
</g>
<!-- Node14&#45;&gt;Node15 -->
<g id="edge22" class="edge"><title>Node14&#45;&gt;Node15</title>
<path fill="none" stroke="midnightblue" d="M716.531,-56.4435C680.358,-47.1419 622.43,-32.246 582.825,-22.062"/>
<polygon fill="midnightblue" stroke="midnightblue" points="583.482,-18.6172 572.926,-19.5164 581.739,-25.3966 583.482,-18.6172"/>
</g>
<!-- Node14&#45;&gt;Node16 -->
<g id="edge23" class="edge"><title>Node14&#45;&gt;Node16</title>
<path fill="none" stroke="midnightblue" d="M789.261,-56.4435C832.698,-47.0234 902.593,-31.8656 949.582,-21.6752"/>
<polygon fill="midnightblue" stroke="midnightblue" points="950.505,-25.0564 959.536,-19.5164 949.021,-18.2154 950.505,-25.0564"/>
</g>
<!-- Node17 -->
<g id="node17" class="node"><title>Node17</title>
<polygon fill="white" stroke="#bfbfbf" points="640.306,-0.5 640.306,-19.5 775.306,-19.5 775.306,-0.5 640.306,-0.5"/>
<text text-anchor="middle" x="707.806" y="-7.5" font-family="Helvetica,sans-Serif" font-size="10.00">SFML/System/Vector2.hpp</text>
</g>
<!-- Node14&#45;&gt;Node17 -->
<g id="edge24" class="edge"><title>Node14&#45;&gt;Node17</title>
<path fill="none" stroke="midnightblue" d="M742.871,-56.083C736.877,-48.3768 728.054,-37.0333 720.759,-27.6531"/>
<polygon fill="midnightblue" stroke="midnightblue" points="723.515,-25.4958 714.613,-19.7511 717.989,-29.7934 723.515,-25.4958"/>
</g>
<!-- Node23 -->
<g id="node23" class="node"><title>Node23</title>
<polygon fill="white" stroke="#bfbfbf" points="1340.81,-112.5 1340.81,-131.5 1378.81,-131.5 1378.81,-112.5 1340.81,-112.5"/>
<text text-anchor="middle" x="1359.81" y="-119.5" font-family="Helvetica,sans-Serif" font-size="10.00">array</text>
</g>
<!-- Node22&#45;&gt;Node23 -->
<g id="edge34" class="edge"><title>Node22&#45;&gt;Node23</title>
<path fill="none" stroke="midnightblue" d="M1410.17,-168.324C1401.3,-160.341 1387.93,-148.313 1377.2,-138.653"/>
<polygon fill="midnightblue" stroke="midnightblue" points="1379.4,-135.922 1369.62,-131.834 1374.71,-141.125 1379.4,-135.922"/>
</g>
<!-- Node24 -->
<g id="node24" class="node"><title>Node24</title>
<polygon fill="white" stroke="#bfbfbf" points="1396.81,-112.5 1396.81,-131.5 1442.81,-131.5 1442.81,-112.5 1396.81,-112.5"/>
<text text-anchor="middle" x="1419.81" y="-119.5" font-family="Helvetica,sans-Serif" font-size="10.00">chrono</text>
</g>
<!-- Node22&#45;&gt;Node24 -->
<g id="edge35" class="edge"><title>Node22&#45;&gt;Node24</title>
<path fill="none" stroke="midnightblue" d="M1419.81,-168.083C1419.81,-161.006 1419.81,-150.861 1419.81,-141.986"/>
<polygon fill="midnightblue" stroke="midnightblue" points="1423.31,-141.751 1419.81,-131.751 1416.31,-141.751 1423.31,-141.751"/>
</g>
<!-- Node25 -->
<g id="node25" class="node"><title>Node25</title>
<polygon fill="white" stroke="#bfbfbf" points="1460.81,-112.5 1460.81,-131.5 1604.81,-131.5 1604.81,-112.5 1460.81,-112.5"/>
<text text-anchor="middle" x="1532.81" y="-119.5" font-family="Helvetica,sans-Serif" font-size="10.00">imgui_widget_flamegraph.hpp</text>
</g>
<!-- Node22&#45;&gt;Node25 -->
<g id="edge36" class="edge"><title>Node22&#45;&gt;Node25</title>
<path fill="none" stroke="midnightblue" d="M1437.71,-168.444C1456.06,-159.675 1484.81,-145.935 1505.9,-135.858"/>
<polygon fill="midnightblue" stroke="midnightblue" points="1507.47,-138.986 1514.98,-131.516 1504.45,-132.67 1507.47,-138.986"/>
</g>
<!-- Node27&#45;&gt;Node3 -->
<g id="edge41" class="edge"><title>Node27&#45;&gt;Node3</title>
<path fill="none" stroke="midnightblue" d="M904.62,-175.37C829.207,-171.968 711.916,-161.819 614.806,-132 596.185,-126.282 594.223,-118.348 575.806,-112 523.427,-93.9464 461.811,-82.4665 414.958,-75.6233"/>
<polygon fill="midnightblue" stroke="midnightblue" points="415.286,-72.1347 404.892,-74.191 414.299,-79.0649 415.286,-72.1347"/>
</g>
<!-- Node27&#45;&gt;Node26 -->
<g id="edge40" class="edge"><title>Node27&#45;&gt;Node26</title>
<path fill="none" stroke="midnightblue" d="M981.476,-168.083C981.214,-161.006 980.838,-150.861 980.509,-141.986"/>
<polygon fill="midnightblue" stroke="midnightblue" points="983.998,-141.615 980.13,-131.751 977.003,-141.874 983.998,-141.615"/>
</g>
<!-- Node28 -->
<g id="node28" class="node"><title>Node28</title>
<polygon fill="white" stroke="#bfbfbf" points="1163.81,-112.5 1163.81,-131.5 1285.81,-131.5 1285.81,-112.5 1163.81,-112.5"/>
<text text-anchor="middle" x="1224.81" y="-119.5" font-family="Helvetica,sans-Serif" font-size="10.00">SFML/System/Time.hpp</text>
</g>
<!-- Node27&#45;&gt;Node28 -->
<g id="edge42" class="edge"><title>Node27&#45;&gt;Node28</title>
<path fill="none" stroke="midnightblue" d="M1020.31,-168.444C1062.61,-159.043 1130.63,-143.929 1176.48,-133.739"/>
<polygon fill="midnightblue" stroke="midnightblue" points="1177.48,-137.102 1186.48,-131.516 1175.96,-130.269 1177.48,-137.102"/>
</g>
<!-- Node29 -->
<g id="node29" class="node"><title>Node29</title>
<polygon fill="white" stroke="#bfbfbf" points="1032.31,-112.5 1032.31,-131.5 1145.31,-131.5 1145.31,-112.5 1032.31,-112.5"/>
<text text-anchor="middle" x="1088.81" y="-119.5" font-family="Helvetica,sans-Serif" font-size="10.00">SFML/System/Utf.hpp</text>
</g>
<!-- Node27&#45;&gt;Node29 -->
<g id="edge43" class="edge"><title>Node27&#45;&gt;Node29</title>
<path fill="none" stroke="midnightblue" d="M998.998,-168.324C1016.16,-159.664 1042.75,-146.242 1062.55,-136.249"/>
<polygon fill="midnightblue" stroke="midnightblue" points="1064.31,-139.285 1071.66,-131.655 1061.15,-133.035 1064.31,-139.285"/>
</g>
</g>
</svg>
        <g id="navigator" transform="translate(0 0)" fill="#404254">
                <rect fill="#f2f5e9" fill-opacity="0.5" stroke="#606060" stroke-width=".5" x="0" y="0" width="60" height="60"/>
                <use id="zoomplus" xlink:href="#zoomPlus" x="17" y="9" onmousedown="handleZoom(evt,'in')"/>
                <use id="zoomminus" xlink:href="#zoomMin" x="42" y="9" onmousedown="handleZoom(evt,'out')"/>
                <use id="reset" xlink:href="#resetDef" x="30" y="36" onmousedown="handleReset()"/>
                <g id="arrowUp" xlink:href="#dirArrow" transform="translate(30 24)" onmousedown="handlePan(0,-1)">
                  <use xlink:href="#rim" fill="#404040">
                        <set attributeName="fill" to="#808080" begin="arrowUp.mouseover" end="arrowUp.mouseout"/>
                  </use>
                  <path fill="none" stroke="white" stroke-width="1.5" d="M0,-3.0v7 M-2.5,-0.5L0,-3.0L2.5,-0.5"/>
                </g>
                <g id="arrowRight" xlink:href="#dirArrow" transform="rotate(90) translate(36 -43)" onmousedown="handlePan(1,0)">
                  <use xlink:href="#rim" fill="#404040">
                        <set attributeName="fill" to="#808080" begin="arrowRight.mouseover" end="arrowRight.mouseout"/>
                  </use>
                  <path fill="none" stroke="white" stroke-width="1.5" d="M0,-3.0v7 M-2.5,-0.5L0,-3.0L2.5,-0.5"/>
                </g>
                <g id="arrowDown" xlink:href="#dirArrow" transform="rotate(180) translate(-30 -48)" onmousedown="handlePan(0,1)">
                  <use xlink:href="#rim" fill="#404040">
                        <set attributeName="fill" to="#808080" begin="arrowDown.mouseover" end="arrowDown.mouseout"/>
                  </use>
                  <path fill="none" stroke="white" stroke-width="1.5" d="M0,-3.0v7 M-2.5,-0.5L0,-3.0L2.5,-0.5"/>
                </g>
                <g id="arrowLeft" xlink:href="#dirArrow" transform="rotate(270) translate(-36 17)" onmousedown="handlePan(-1,0)">
                  <use xlink:href="#rim" fill="#404040">
                        <set attributeName="fill" to="#808080" begin="arrowLeft.mouseover" end="arrowLeft.mouseout"/>
                  </use>
                  <path fill="none" stroke="white" stroke-width="1.5" d="M0,-3.0v7 M-2.5,-0.5L0,-3.0L2.5,-0.5"/>
                </g>
        </g>
        <svg viewBox="0 0 15 15" width="100%" height="30px" preserveAspectRatio="xMaxYMin meet">
         <g id="arrow_out" transform="scale(0.3 0.3)">
          <a xlink:href="Application_8hpp__incl_org.svg" target="_base">
           <rect id="button" ry="5" rx="5" y="6" x="6" height="38" width="38"
                fill="#f2f5e9" fill-opacity="0.5" stroke="#606060" stroke-width="1.0"/>
           <path id="arrow"
             d="M 11.500037,31.436501 C 11.940474,20.09759 22.043105,11.32322 32.158766,21.979434 L 37.068811,17.246167 C 37.068811,17.246167 37.088388,32 37.088388,32 L 22.160133,31.978069 C 22.160133,31.978069 26.997745,27.140456 26.997745,27.140456 C 18.528582,18.264221 13.291696,25.230495 11.500037,31.436501 z"
             style="fill:#404040;"/>
          </a>
         </g>
        </svg>
</svg>
