<?xml version="1.0" encoding="UTF-8" standalone="no"?>
<!DOCTYPE svg PUBLIC "-//W3C//DTD SVG 1.1//EN"
 "http://www.w3.org/Graphics/SVG/1.1/DTD/svg11.dtd">
<!-- Generated by graphviz version 2.49.0 (20210828.1703)
 -->
<!-- Title: C:/Users/folae/Documents/Code/Big&#45;Projects/ScriptWizards/SmallGameLibrary/include/Small/Core/Application.hpp Pages: 1 -->
<svg width="1646pt" height="341pt"
 viewBox="0.00 0.00 1646.00 341.00" xmlns="http://www.w3.org/2000/svg" xmlns:xlink="http://www.w3.org/1999/xlink">
<g id="graph0" class="graph" transform="scale(1 1) rotate(0) translate(4 337)">
<title>C:/Users/folae/Documents/Code/Big&#45;Projects/ScriptWizards/SmallGameLibrary/include/Small/Core/Application.hpp</title>
<polygon fill="white" stroke="transparent" points="-4,4 -4,-337 1642,-337 1642,4 -4,4"/>
<!-- Node1 -->
<g id="node1" class="node">
<title>Node1</title>
<g id="a_node1"><a xlink:title="Define the application hosting the scenes for the game.">
<polygon fill="#bfbfbf" stroke="black" points="897.5,-280.5 897.5,-332.5 1060.5,-332.5 1060.5,-280.5 897.5,-280.5"/>
<text text-anchor="start" x="905.5" y="-320.5" font-family="Helvetica,sans-Serif" font-size="10.00">C:/Users/folae/Documents</text>
<text text-anchor="start" x="905.5" y="-309.5" font-family="Helvetica,sans-Serif" font-size="10.00">/Code/Big&#45;Projects/ScriptWizards</text>
<text text-anchor="start" x="905.5" y="-298.5" font-family="Helvetica,sans-Serif" font-size="10.00">/SmallGameLibrary/include/Small</text>
<text text-anchor="middle" x="979" y="-287.5" font-family="Helvetica,sans-Serif" font-size="10.00">/Core/Application.hpp</text>
</a>
</g>
</g>
<!-- Node2 -->
<g id="node2" class="node">
<title>Node2</title>
<g id="a_node2"><a xlink:title=" ">
<polygon fill="white" stroke="#bfbfbf" points="505.5,-0.5 505.5,-19.5 546.5,-19.5 546.5,-0.5 505.5,-0.5"/>
<text text-anchor="middle" x="526" y="-7.5" font-family="Helvetica,sans-Serif" font-size="10.00">string</text>
</a>
</g>
</g>
<!-- Node1&#45;&gt;Node2 -->
<g id="edge1" class="edge">
<title>Node1&#45;&gt;Node2</title>
<path fill="none" stroke="midnightblue" d="M897.32,-305.37C707.16,-304.19 239.93,-295.92 93,-244 45.45,-227.2 0,-229.43 0,-179 0,-179 0,-179 0,-121 0,-19.1 383.02,-11.01 495.37,-10.83"/>
<polygon fill="midnightblue" stroke="midnightblue" points="495.38,-14.33 505.38,-10.83 495.38,-7.33 495.38,-14.33"/>
</g>
<!-- Node3 -->
<g id="node3" class="node">
<title>Node3</title>
<g id="a_node3"><a xlink:title=" ">
<polygon fill="white" stroke="#bfbfbf" points="1059,-224.5 1059,-243.5 1109,-243.5 1109,-224.5 1059,-224.5"/>
<text text-anchor="middle" x="1084" y="-231.5" font-family="Helvetica,sans-Serif" font-size="10.00">optional</text>
</a>
</g>
</g>
<!-- Node1&#45;&gt;Node3 -->
<g id="edge2" class="edge">
<title>Node1&#45;&gt;Node3</title>
<path fill="none" stroke="midnightblue" d="M1016.31,-280.45C1031.83,-270.03 1049.29,-258.31 1062.58,-249.38"/>
<polygon fill="midnightblue" stroke="midnightblue" points="1064.7,-252.18 1071.05,-243.7 1060.8,-246.36 1064.7,-252.18"/>
</g>
<!-- Node4 -->
<g id="node4" class="node">
<title>Node4</title>
<g id="a_node4"><a xlink:title=" ">
<polygon fill="white" stroke="#bfbfbf" points="474,-112.5 474,-131.5 578,-131.5 578,-112.5 474,-112.5"/>
<text text-anchor="middle" x="526" y="-119.5" font-family="Helvetica,sans-Serif" font-size="10.00">SFML/Graphics.hpp</text>
</a>
</g>
</g>
<!-- Node1&#45;&gt;Node4 -->
<g id="edge3" class="edge">
<title>Node1&#45;&gt;Node4</title>
<path fill="none" stroke="midnightblue" d="M897.24,-290.06C818.19,-272.87 696.81,-240.39 602,-188 578.41,-174.96 555.48,-153.83 541.09,-139.22"/>
<polygon fill="midnightblue" stroke="midnightblue" points="543.47,-136.65 534.02,-131.87 538.42,-141.5 543.47,-136.65"/>
</g>
<!-- Node5 -->
<g id="node5" class="node">
<title>Node5</title>
<g id="a_node5"><a xlink:title=" ">
<polygon fill="white" stroke="#bfbfbf" points="180,-112.5 180,-131.5 306,-131.5 306,-112.5 180,-112.5"/>
<text text-anchor="middle" x="243" y="-119.5" font-family="Helvetica,sans-Serif" font-size="10.00">SFML/Window/Event.hpp</text>
</a>
</g>
</g>
<!-- Node1&#45;&gt;Node5 -->
<g id="edge4" class="edge">
<title>Node1&#45;&gt;Node5</title>
<path fill="none" stroke="midnightblue" d="M897.31,-302.2C724.79,-294.71 328.37,-274.69 197,-244 131.74,-228.75 94.57,-243.49 57,-188 26.55,-143.03 105.4,-128.84 169.7,-124.55"/>
<polygon fill="midnightblue" stroke="midnightblue" points="170.1,-128.03 179.87,-123.94 169.68,-121.04 170.1,-128.03"/>
</g>
<!-- Node6 -->
<g id="node6" class="node">
<title>Node6</title>
<g id="a_node6"><a xlink:title=" ">
<polygon fill="white" stroke="#bfbfbf" points="1142,-112.5 1142,-131.5 1268,-131.5 1268,-112.5 1142,-112.5"/>
<text text-anchor="middle" x="1205" y="-119.5" font-family="Helvetica,sans-Serif" font-size="10.00">SFML/System/Clock.hpp</text>
</a>
</g>
</g>
<!-- Node1&#45;&gt;Node6 -->
<g id="edge5" class="edge">
<title>Node1&#45;&gt;Node6</title>
<path fill="none" stroke="midnightblue" d="M994.12,-280.39C1006.7,-261.79 1026.33,-237.43 1050,-224 1128.55,-179.43 1192.07,-257.29 1250,-188 1263.69,-171.62 1244.13,-151.15 1226.67,-137.6"/>
<polygon fill="midnightblue" stroke="midnightblue" points="1228.56,-134.65 1218.43,-131.56 1224.42,-140.29 1228.56,-134.65"/>
</g>
<!-- Node7 -->
<g id="node7" class="node">
<title>Node7</title>
<g id="a_node7"><a xlink:title=" ">
<polygon fill="white" stroke="#bfbfbf" points="1127,-224.5 1127,-243.5 1175,-243.5 1175,-224.5 1127,-224.5"/>
<text text-anchor="middle" x="1151" y="-231.5" font-family="Helvetica,sans-Serif" font-size="10.00">imgui.h</text>
</a>
</g>
</g>
<!-- Node1&#45;&gt;Node7 -->
<g id="edge6" class="edge">
<title>Node1&#45;&gt;Node7</title>
<path fill="none" stroke="midnightblue" d="M1040.13,-280.45C1067.55,-269.21 1098.66,-256.45 1120.93,-247.33"/>
<polygon fill="midnightblue" stroke="midnightblue" points="1122.27,-250.56 1130.2,-243.53 1119.62,-244.08 1122.27,-250.56"/>
</g>
<!-- Node8 -->
<g id="node8" class="node">
<title>Node8</title>
<g id="a_node8"><a xlink:title=" ">
<polygon fill="white" stroke="#bfbfbf" points="1193.5,-224.5 1193.5,-243.5 1270.5,-243.5 1270.5,-224.5 1193.5,-224.5"/>
<text text-anchor="middle" x="1232" y="-231.5" font-family="Helvetica,sans-Serif" font-size="10.00">imgui&#45;SFML.h</text>
</a>
</g>
</g>
<!-- Node1&#45;&gt;Node8 -->
<g id="edge7" class="edge">
<title>Node1&#45;&gt;Node8</title>
<path fill="none" stroke="midnightblue" d="M1060.79,-282.71C1104.55,-270.52 1156.49,-256.04 1191.6,-246.26"/>
<polygon fill="midnightblue" stroke="midnightblue" points="1192.79,-249.56 1201.48,-243.5 1190.91,-242.82 1192.79,-249.56"/>
</g>
<!-- Node9 -->
<g id="node9" class="node">
<title>Node9</title>
<g id="a_node9"><a xlink:title=" ">
<polygon fill="white" stroke="#bfbfbf" points="1288.5,-224.5 1288.5,-243.5 1389.5,-243.5 1389.5,-224.5 1288.5,-224.5"/>
<text text-anchor="middle" x="1339" y="-231.5" font-family="Helvetica,sans-Serif" font-size="10.00">SFML/OpenGL.hpp</text>
</a>
</g>
</g>
<!-- Node1&#45;&gt;Node9 -->
<g id="edge8" class="edge">
<title>Node1&#45;&gt;Node9</title>
<path fill="none" stroke="midnightblue" d="M1060.69,-289.5C1129.52,-276.02 1226.02,-257.12 1285.42,-245.49"/>
<polygon fill="midnightblue" stroke="midnightblue" points="1286.21,-248.91 1295.35,-243.55 1284.86,-242.04 1286.21,-248.91"/>
</g>
<!-- Node10 -->
<g id="node10" class="node">
<title>Node10</title>
<g id="a_node10"><a xlink:href="../../df/d74/SceneManager_8hpp.html" target="_top" xlink:title="Define the scene manager (creating, handling and destroying them)">
<polygon fill="white" stroke="black" points="851,-224.5 851,-243.5 1003,-243.5 1003,-224.5 851,-224.5"/>
<text text-anchor="middle" x="927" y="-231.5" font-family="Helvetica,sans-Serif" font-size="10.00">Small/Core/SceneManager.hpp</text>
</a>
</g>
</g>
<!-- Node1&#45;&gt;Node10 -->
<g id="edge9" class="edge">
<title>Node1&#45;&gt;Node10</title>
<path fill="none" stroke="midnightblue" d="M960.52,-280.45C953.5,-270.93 945.68,-260.33 939.36,-251.76"/>
<polygon fill="midnightblue" stroke="midnightblue" points="942.17,-249.67 933.41,-243.7 936.53,-253.82 942.17,-249.67"/>
</g>
<!-- Node18 -->
<g id="node18" class="node">
<title>Node18</title>
<g id="a_node18"><a xlink:href="../../df/db4/Config_8hpp.html" target="_top" xlink:title=" ">
<polygon fill="white" stroke="black" points="324.5,-112.5 324.5,-131.5 455.5,-131.5 455.5,-112.5 324.5,-112.5"/>
<text text-anchor="middle" x="390" y="-119.5" font-family="Helvetica,sans-Serif" font-size="10.00">Small/Scripting/Config.hpp</text>
</a>
</g>
</g>
<!-- Node1&#45;&gt;Node18 -->
<g id="edge51" class="edge">
<title>Node1&#45;&gt;Node18</title>
<path fill="none" stroke="midnightblue" d="M897.23,-293.56C835.39,-283.43 748.81,-266.88 675,-244 576.32,-213.42 465.18,-160.56 415.9,-136.11"/>
<polygon fill="midnightblue" stroke="midnightblue" points="417.4,-132.94 406.89,-131.61 414.28,-139.21 417.4,-132.94"/>
</g>
<!-- Node29 -->
<g id="node29" class="node">
<title>Node29</title>
<g id="a_node29"><a xlink:href="../../dc/dbc/Profiler_8hpp.html" target="_top" xlink:title="Profiler from https://github.com/bwrsandman/imgui&#45;flame&#45;graph/ (example/main.cpp),...">
<polygon fill="white" stroke="black" points="1408,-224.5 1408,-243.5 1532,-243.5 1532,-224.5 1408,-224.5"/>
<text text-anchor="middle" x="1470" y="-231.5" font-family="Helvetica,sans-Serif" font-size="10.00">Small/Debug/Profiler.hpp</text>
</a>
</g>
</g>
<!-- Node1&#45;&gt;Node29 -->
<g id="edge46" class="edge">
<title>Node1&#45;&gt;Node29</title>
<path fill="none" stroke="midnightblue" d="M1060.63,-293.78C1155.68,-280.13 1311.05,-257.82 1400.55,-244.97"/>
<polygon fill="midnightblue" stroke="midnightblue" points="1401.2,-248.42 1410.6,-243.53 1400.2,-241.49 1401.2,-248.42"/>
</g>
<!-- Node33 -->
<g id="node33" class="node">
<title>Node33</title>
<g id="a_node33"><a xlink:title=" ">
<polygon fill="white" stroke="#bfbfbf" points="66,-168.5 66,-187.5 134,-187.5 134,-168.5 66,-168.5"/>
<text text-anchor="middle" x="100" y="-175.5" font-family="Helvetica,sans-Serif" font-size="10.00">Ark/Ark.hpp</text>
</a>
</g>
</g>
<!-- Node1&#45;&gt;Node33 -->
<g id="edge50" class="edge">
<title>Node1&#45;&gt;Node33</title>
<path fill="none" stroke="midnightblue" d="M897.28,-306.49C762.39,-306.36 485.54,-298.63 259,-244 209.82,-232.14 156,-207.46 125.28,-192.15"/>
<polygon fill="midnightblue" stroke="midnightblue" points="126.66,-188.93 116.16,-187.54 123.51,-195.17 126.66,-188.93"/>
</g>
<!-- Node34 -->
<g id="node34" class="node">
<title>Node34</title>
<g id="a_node34"><a xlink:href="../../d8/d82/SFMLtoArk_8hpp.html" target="_top" xlink:title="Convert SFML values to ArkScript values.">
<polygon fill="white" stroke="black" points="268,-224.5 268,-243.5 422,-243.5 422,-224.5 268,-224.5"/>
<text text-anchor="middle" x="345" y="-231.5" font-family="Helvetica,sans-Serif" font-size="10.00">Small/Scripting/SFMLtoArk.hpp</text>
</a>
</g>
</g>
<!-- Node1&#45;&gt;Node34 -->
<g id="edge52" class="edge">
<title>Node1&#45;&gt;Node34</title>
<path fill="none" stroke="midnightblue" d="M897.41,-296.43C777.54,-283.1 554.78,-258.33 431.93,-244.67"/>
<polygon fill="midnightblue" stroke="midnightblue" points="432.14,-241.17 421.81,-243.54 431.37,-248.13 432.14,-241.17"/>
</g>
<!-- Node37 -->
<g id="node37" class="node">
<title>Node37</title>
<g id="a_node37"><a xlink:title=" ">
<polygon fill="white" stroke="#bfbfbf" points="1550.5,-224.5 1550.5,-243.5 1627.5,-243.5 1627.5,-224.5 1550.5,-224.5"/>
<text text-anchor="middle" x="1589" y="-231.5" font-family="Helvetica,sans-Serif" font-size="10.00">Application.inl</text>
</a>
</g>
</g>
<!-- Node1&#45;&gt;Node37 -->
<g id="edge57" class="edge">
<title>Node1&#45;&gt;Node37</title>
<path fill="none" stroke="midnightblue" d="M1060.69,-298.53C1168.25,-288.92 1363.44,-269.94 1540.26,-244"/>
<polygon fill="midnightblue" stroke="midnightblue" points="1540.89,-247.45 1550.27,-242.52 1539.87,-240.52 1540.89,-247.45"/>
</g>
<!-- Node10&#45;&gt;Node4 -->
<g id="edge15" class="edge">
<title>Node10&#45;&gt;Node4</title>
<path fill="none" stroke="midnightblue" d="M850.81,-228.18C792.6,-222.79 711.08,-211.48 643,-188 623.95,-181.43 577.03,-153.94 548.73,-136.88"/>
<polygon fill="midnightblue" stroke="midnightblue" points="550.29,-133.73 539.92,-131.54 546.66,-139.72 550.29,-133.73"/>
</g>
<!-- Node10&#45;&gt;Node5 -->
<g id="edge17" class="edge">
<title>Node10&#45;&gt;Node5</title>
<path fill="none" stroke="midnightblue" d="M850.87,-227.15C769.56,-220.29 637.11,-207.33 524,-188 500.99,-184.07 362.4,-151.37 288.82,-133.91"/>
<polygon fill="midnightblue" stroke="midnightblue" points="289.43,-130.45 278.89,-131.55 287.81,-137.26 289.43,-130.45"/>
</g>
<!-- Node10&#45;&gt;Node6 -->
<g id="edge16" class="edge">
<title>Node10&#45;&gt;Node6</title>
<path fill="none" stroke="midnightblue" d="M934.46,-224.32C947.08,-210.21 974.11,-182.43 1003,-168 1027.28,-155.87 1093.26,-142.38 1143.27,-133.37"/>
<polygon fill="midnightblue" stroke="midnightblue" points="1144.12,-136.77 1153.35,-131.57 1142.9,-129.88 1144.12,-136.77"/>
</g>
<!-- Node11 -->
<g id="node11" class="node">
<title>Node11</title>
<g id="a_node11"><a xlink:title=" ">
<polygon fill="white" stroke="#bfbfbf" points="1496,-56.5 1496,-75.5 1538,-75.5 1538,-56.5 1496,-56.5"/>
<text text-anchor="middle" x="1517" y="-63.5" font-family="Helvetica,sans-Serif" font-size="10.00">vector</text>
</a>
</g>
</g>
<!-- Node10&#45;&gt;Node11 -->
<g id="edge10" class="edge">
<title>Node10&#45;&gt;Node11</title>
<path fill="none" stroke="midnightblue" d="M1003.31,-226.32C1090.97,-218.11 1229.1,-203.37 1279,-188 1363.87,-161.86 1455,-107.08 1495.49,-81.17"/>
<polygon fill="midnightblue" stroke="midnightblue" points="1497.51,-84.03 1504.01,-75.66 1493.71,-78.15 1497.51,-84.03"/>
</g>
<!-- Node12 -->
<g id="node12" class="node">
<title>Node12</title>
<g id="a_node12"><a xlink:title=" ">
<polygon fill="white" stroke="#bfbfbf" points="922,-56.5 922,-75.5 974,-75.5 974,-56.5 922,-56.5"/>
<text text-anchor="middle" x="948" y="-63.5" font-family="Helvetica,sans-Serif" font-size="10.00">memory</text>
</a>
</g>
</g>
<!-- Node10&#45;&gt;Node12 -->
<g id="edge11" class="edge">
<title>Node10&#45;&gt;Node12</title>
<path fill="none" stroke="midnightblue" d="M928.13,-224.08C931.43,-197.95 941.14,-121.21 945.65,-85.58"/>
<polygon fill="midnightblue" stroke="midnightblue" points="949.13,-85.93 946.92,-75.57 942.19,-85.05 949.13,-85.93"/>
</g>
<!-- Node13 -->
<g id="node13" class="node">
<title>Node13</title>
<g id="a_node13"><a xlink:title=" ">
<polygon fill="white" stroke="#bfbfbf" points="1012,-168.5 1012,-187.5 1062,-187.5 1062,-168.5 1012,-168.5"/>
<text text-anchor="middle" x="1037" y="-175.5" font-family="Helvetica,sans-Serif" font-size="10.00">typeinfo</text>
</a>
</g>
</g>
<!-- Node10&#45;&gt;Node13 -->
<g id="edge12" class="edge">
<title>Node10&#45;&gt;Node13</title>
<path fill="none" stroke="midnightblue" d="M944.67,-224.32C962.39,-215.62 989.9,-202.12 1010.29,-192.11"/>
<polygon fill="midnightblue" stroke="midnightblue" points="1011.94,-195.2 1019.37,-187.65 1008.85,-188.92 1011.94,-195.2"/>
</g>
<!-- Node14 -->
<g id="node14" class="node">
<title>Node14</title>
<g id="a_node14"><a xlink:title=" ">
<polygon fill="white" stroke="#bfbfbf" points="1080,-168.5 1080,-187.5 1138,-187.5 1138,-168.5 1080,-168.5"/>
<text text-anchor="middle" x="1109" y="-175.5" font-family="Helvetica,sans-Serif" font-size="10.00">functional</text>
</a>
</g>
</g>
<!-- Node10&#45;&gt;Node14 -->
<g id="edge13" class="edge">
<title>Node10&#45;&gt;Node14</title>
<path fill="none" stroke="midnightblue" d="M955.84,-224.44C986.86,-215.24 1036.33,-200.56 1070.62,-190.39"/>
<polygon fill="midnightblue" stroke="midnightblue" points="1071.71,-193.72 1080.3,-187.52 1069.71,-187.01 1071.71,-193.72"/>
</g>
<!-- Node15 -->
<g id="node15" class="node">
<title>Node15</title>
<g id="a_node15"><a xlink:title=" ">
<polygon fill="white" stroke="#bfbfbf" points="820.5,-56.5 820.5,-75.5 903.5,-75.5 903.5,-56.5 820.5,-56.5"/>
<text text-anchor="middle" x="862" y="-63.5" font-family="Helvetica,sans-Serif" font-size="10.00">unordered_map</text>
</a>
</g>
</g>
<!-- Node10&#45;&gt;Node15 -->
<g id="edge14" class="edge">
<title>Node10&#45;&gt;Node15</title>
<path fill="none" stroke="midnightblue" d="M925,-224.23C920.22,-203.94 907.14,-152.37 889,-112 884.71,-102.44 878.82,-92.39 873.64,-84.22"/>
<polygon fill="midnightblue" stroke="midnightblue" points="876.43,-82.08 868.02,-75.63 870.57,-85.91 876.43,-82.08"/>
</g>
<!-- Node16 -->
<g id="node16" class="node">
<title>Node16</title>
<g id="a_node16"><a xlink:title=" ">
<polygon fill="white" stroke="#bfbfbf" points="1328.5,-56.5 1328.5,-75.5 1477.5,-75.5 1477.5,-56.5 1328.5,-56.5"/>
<text text-anchor="middle" x="1403" y="-63.5" font-family="Helvetica,sans-Serif" font-size="10.00">SFML/Graphics/Transform.hpp</text>
</a>
</g>
</g>
<!-- Node10&#45;&gt;Node16 -->
<g id="edge18" class="edge">
<title>Node10&#45;&gt;Node16</title>
<path fill="none" stroke="midnightblue" d="M1003.32,-227.66C1084.71,-221.04 1207.61,-208.11 1250,-188 1294.9,-166.7 1292.63,-142.32 1332,-112 1346.99,-100.46 1365,-89.07 1379.13,-80.64"/>
<polygon fill="midnightblue" stroke="midnightblue" points="1380.94,-83.63 1387.78,-75.55 1377.39,-77.6 1380.94,-83.63"/>
</g>
<!-- Node17 -->
<g id="node17" class="node">
<title>Node17</title>
<g id="a_node17"><a xlink:href="../../db/de8/Scene_8hpp.html" target="_top" xlink:title="The base scene class and the scene states are defined here.">
<polygon fill="white" stroke="black" points="652,-168.5 652,-187.5 766,-187.5 766,-168.5 652,-168.5"/>
<text text-anchor="middle" x="709" y="-175.5" font-family="Helvetica,sans-Serif" font-size="10.00">Small/Core/Scene.hpp</text>
</a>
</g>
</g>
<!-- Node10&#45;&gt;Node17 -->
<g id="edge19" class="edge">
<title>Node10&#45;&gt;Node17</title>
<path fill="none" stroke="midnightblue" d="M892.46,-224.44C854.75,-215.1 794.26,-200.12 753.14,-189.93"/>
<polygon fill="midnightblue" stroke="midnightblue" points="753.93,-186.52 743.38,-187.52 752.25,-193.32 753.93,-186.52"/>
</g>
<!-- Node10&#45;&gt;Node18 -->
<g id="edge43" class="edge">
<title>Node10&#45;&gt;Node18</title>
<path fill="none" stroke="midnightblue" d="M850.87,-225.94C784.62,-218.97 686.26,-206.63 602,-188 537.58,-173.76 464.41,-149.46 423.07,-134.95"/>
<polygon fill="midnightblue" stroke="midnightblue" points="424.11,-131.6 413.51,-131.57 421.77,-138.2 424.11,-131.6"/>
</g>
<!-- Node27 -->
<g id="node27" class="node">
<title>Node27</title>
<g id="a_node27"><a xlink:title=" ">
<polygon fill="white" stroke="#bfbfbf" points="1156.5,-168.5 1156.5,-187.5 1241.5,-187.5 1241.5,-168.5 1156.5,-168.5"/>
<text text-anchor="middle" x="1199" y="-175.5" font-family="Helvetica,sans-Serif" font-size="10.00">spdlog/spdlog.h</text>
</a>
</g>
</g>
<!-- Node10&#45;&gt;Node27 -->
<g id="edge44" class="edge">
<title>Node10&#45;&gt;Node27</title>
<path fill="none" stroke="midnightblue" d="M970.1,-224.44C1017.85,-214.96 1094.86,-199.67 1146.19,-189.48"/>
<polygon fill="midnightblue" stroke="midnightblue" points="1146.98,-192.9 1156.1,-187.52 1145.61,-186.03 1146.98,-192.9"/>
</g>
<!-- Node28 -->
<g id="node28" class="node">
<title>Node28</title>
<g id="a_node28"><a xlink:title=" ">
<polygon fill="white" stroke="#bfbfbf" points="784.5,-168.5 784.5,-187.5 879.5,-187.5 879.5,-168.5 784.5,-168.5"/>
<text text-anchor="middle" x="832" y="-175.5" font-family="Helvetica,sans-Serif" font-size="10.00">SceneManager.inl</text>
</a>
</g>
</g>
<!-- Node10&#45;&gt;Node28 -->
<g id="edge45" class="edge">
<title>Node10&#45;&gt;Node28</title>
<path fill="none" stroke="midnightblue" d="M911.74,-224.32C896.78,-215.82 873.75,-202.73 856.27,-192.8"/>
<polygon fill="midnightblue" stroke="midnightblue" points="857.65,-189.55 847.23,-187.65 854.19,-195.64 857.65,-189.55"/>
</g>
<!-- Node17&#45;&gt;Node2 -->
<g id="edge20" class="edge">
<title>Node17&#45;&gt;Node2</title>
<path fill="none" stroke="midnightblue" d="M688.07,-168.35C670.26,-160.41 644.55,-147.55 625,-132 586.57,-101.44 553.02,-53.65 536.64,-28.24"/>
<polygon fill="midnightblue" stroke="midnightblue" points="539.53,-26.27 531.23,-19.68 533.62,-30.01 539.53,-26.27"/>
</g>
<!-- Node17&#45;&gt;Node4 -->
<g id="edge21" class="edge">
<title>Node17&#45;&gt;Node4</title>
<path fill="none" stroke="midnightblue" d="M680,-168.44C648.82,-159.24 599.07,-144.56 564.59,-134.39"/>
<polygon fill="midnightblue" stroke="midnightblue" points="565.44,-130.99 554.86,-131.52 563.46,-137.7 565.44,-130.99"/>
</g>
<!-- Node17&#45;&gt;Node5 -->
<g id="edge23" class="edge">
<title>Node17&#45;&gt;Node5</title>
<path fill="none" stroke="midnightblue" d="M651.89,-170.67C577.24,-162.35 442.16,-147.16 316.41,-132.16"/>
<polygon fill="midnightblue" stroke="midnightblue" points="316.56,-128.65 306.21,-130.94 315.73,-135.6 316.56,-128.65"/>
</g>
<!-- Node17&#45;&gt;Node6 -->
<g id="edge22" class="edge">
<title>Node17&#45;&gt;Node6</title>
<path fill="none" stroke="midnightblue" d="M766.22,-169.07C769.19,-168.7 772.13,-168.34 775,-168 930.55,-149.58 972.39,-149.9 1131.64,-132.13"/>
<polygon fill="midnightblue" stroke="midnightblue" points="1132.25,-135.58 1141.79,-130.99 1131.47,-128.63 1132.25,-135.58"/>
</g>
<!-- Node17&#45;&gt;Node18 -->
<g id="edge24" class="edge">
<title>Node17&#45;&gt;Node18</title>
<path fill="none" stroke="midnightblue" d="M658.45,-168.44C601.99,-158.89 510.63,-143.42 450.43,-133.23"/>
<polygon fill="midnightblue" stroke="midnightblue" points="450.75,-129.73 440.31,-131.52 449.59,-136.64 450.75,-129.73"/>
</g>
<!-- Node19 -->
<g id="node19" class="node">
<title>Node19</title>
<g id="a_node19"><a xlink:href="../../d7/dc6/Node_8hpp.html" target="_top" xlink:title="A scene graph node.">
<polygon fill="white" stroke="black" points="996,-112.5 996,-131.5 1124,-131.5 1124,-112.5 996,-112.5"/>
<text text-anchor="middle" x="1060" y="-119.5" font-family="Helvetica,sans-Serif" font-size="10.00">Small/Graphics/Node.hpp</text>
</a>
</g>
</g>
<!-- Node17&#45;&gt;Node19 -->
<g id="edge26" class="edge">
<title>Node17&#45;&gt;Node19</title>
<path fill="none" stroke="midnightblue" d="M764.62,-168.44C827.13,-158.83 928.52,-143.23 994.73,-133.04"/>
<polygon fill="midnightblue" stroke="midnightblue" points="995.29,-136.5 1004.64,-131.52 994.23,-129.58 995.29,-136.5"/>
</g>
<!-- Node22 -->
<g id="node22" class="node">
<title>Node22</title>
<g id="a_node22"><a xlink:href="../../dc/d6f/RessourceManager_8hpp.html" target="_top" xlink:title=" ">
<polygon fill="white" stroke="black" points="710,-112.5 710,-131.5 880,-131.5 880,-112.5 710,-112.5"/>
<text text-anchor="middle" x="795" y="-119.5" font-family="Helvetica,sans-Serif" font-size="10.00">Small/Core/RessourceManager.hpp</text>
</a>
</g>
</g>
<!-- Node17&#45;&gt;Node22 -->
<g id="edge32" class="edge">
<title>Node17&#45;&gt;Node22</title>
<path fill="none" stroke="midnightblue" d="M722.82,-168.32C736.23,-159.9 756.82,-146.97 772.59,-137.07"/>
<polygon fill="midnightblue" stroke="midnightblue" points="774.61,-139.94 781.22,-131.65 770.89,-134.01 774.61,-139.94"/>
</g>
<!-- Node26 -->
<g id="node26" class="node">
<title>Node26</title>
<g id="a_node26"><a xlink:title=" ">
<polygon fill="white" stroke="#bfbfbf" points="634.5,-112.5 634.5,-131.5 691.5,-131.5 691.5,-112.5 634.5,-112.5"/>
<text text-anchor="middle" x="663" y="-119.5" font-family="Helvetica,sans-Serif" font-size="10.00">Scene.inl</text>
</a>
</g>
</g>
<!-- Node17&#45;&gt;Node26 -->
<g id="edge42" class="edge">
<title>Node17&#45;&gt;Node26</title>
<path fill="none" stroke="midnightblue" d="M701.4,-168.08C694.77,-160.3 684.98,-148.8 676.94,-139.37"/>
<polygon fill="midnightblue" stroke="midnightblue" points="679.6,-137.09 670.45,-131.75 674.27,-141.63 679.6,-137.09"/>
</g>
<!-- Node18&#45;&gt;Node2 -->
<g id="edge25" class="edge">
<title>Node18&#45;&gt;Node2</title>
<path fill="none" stroke="midnightblue" d="M400.67,-112.37C423.71,-93.73 478.36,-49.53 507.29,-26.13"/>
<polygon fill="midnightblue" stroke="midnightblue" points="509.8,-28.6 515.38,-19.59 505.4,-23.16 509.8,-28.6"/>
</g>
<!-- Node19&#45;&gt;Node11 -->
<g id="edge30" class="edge">
<title>Node19&#45;&gt;Node11</title>
<path fill="none" stroke="midnightblue" d="M1124.08,-113.02C1127.1,-112.67 1130.08,-112.33 1133,-112 1286.93,-94.69 1330.13,-106.36 1485.89,-75.87"/>
<polygon fill="midnightblue" stroke="midnightblue" points="1486.69,-79.28 1495.82,-73.9 1485.33,-72.41 1486.69,-79.28"/>
</g>
<!-- Node19&#45;&gt;Node12 -->
<g id="edge31" class="edge">
<title>Node19&#45;&gt;Node12</title>
<path fill="none" stroke="midnightblue" d="M1042.01,-112.32C1023.96,-103.62 995.95,-90.12 975.2,-80.11"/>
<polygon fill="midnightblue" stroke="midnightblue" points="976.48,-76.84 965.95,-75.65 973.44,-83.15 976.48,-76.84"/>
</g>
<!-- Node19&#45;&gt;Node16 -->
<g id="edge28" class="edge">
<title>Node19&#45;&gt;Node16</title>
<path fill="none" stroke="midnightblue" d="M1114.35,-112.44C1175.31,-102.85 1274.11,-87.29 1338.82,-77.1"/>
<polygon fill="midnightblue" stroke="midnightblue" points="1339.57,-80.53 1348.9,-75.52 1338.48,-73.61 1339.57,-80.53"/>
</g>
<!-- Node20 -->
<g id="node20" class="node">
<title>Node20</title>
<g id="a_node20"><a xlink:title=" ">
<polygon fill="white" stroke="#bfbfbf" points="1146,-56.5 1146,-75.5 1310,-75.5 1310,-56.5 1146,-56.5"/>
<text text-anchor="middle" x="1228" y="-63.5" font-family="Helvetica,sans-Serif" font-size="10.00">SFML/Graphics/RenderTarget.hpp</text>
</a>
</g>
</g>
<!-- Node19&#45;&gt;Node20 -->
<g id="edge27" class="edge">
<title>Node19&#45;&gt;Node20</title>
<path fill="none" stroke="midnightblue" d="M1086.62,-112.44C1115.01,-103.32 1160.14,-88.81 1191.75,-78.65"/>
<polygon fill="midnightblue" stroke="midnightblue" points="1193.06,-81.91 1201.5,-75.52 1190.91,-75.24 1193.06,-81.91"/>
</g>
<!-- Node21 -->
<g id="node21" class="node">
<title>Node21</title>
<g id="a_node21"><a xlink:title=" ">
<polygon fill="white" stroke="#bfbfbf" points="992.5,-56.5 992.5,-75.5 1127.5,-75.5 1127.5,-56.5 992.5,-56.5"/>
<text text-anchor="middle" x="1060" y="-63.5" font-family="Helvetica,sans-Serif" font-size="10.00">SFML/System/Vector2.hpp</text>
</a>
</g>
</g>
<!-- Node19&#45;&gt;Node21 -->
<g id="edge29" class="edge">
<title>Node19&#45;&gt;Node21</title>
<path fill="none" stroke="midnightblue" d="M1060,-112.08C1060,-105.01 1060,-94.86 1060,-85.99"/>
<polygon fill="midnightblue" stroke="midnightblue" points="1063.5,-85.75 1060,-75.75 1056.5,-85.75 1063.5,-85.75"/>
</g>
<!-- Node22&#45;&gt;Node2 -->
<g id="edge33" class="edge">
<title>Node22&#45;&gt;Node2</title>
<path fill="none" stroke="midnightblue" d="M734.4,-112.46C697.71,-105.77 650.7,-94.42 612,-76 585.23,-63.26 558.67,-41.4 542.3,-26.59"/>
<polygon fill="midnightblue" stroke="midnightblue" points="544.44,-23.8 534.72,-19.57 539.68,-28.93 544.44,-23.8"/>
</g>
<!-- Node22&#45;&gt;Node12 -->
<g id="edge34" class="edge">
<title>Node22&#45;&gt;Node12</title>
<path fill="none" stroke="midnightblue" d="M819.24,-112.44C844.87,-103.4 885.49,-89.06 914.24,-78.92"/>
<polygon fill="midnightblue" stroke="midnightblue" points="915.61,-82.15 923.87,-75.52 913.28,-75.54 915.61,-82.15"/>
</g>
<!-- Node22&#45;&gt;Node15 -->
<g id="edge35" class="edge">
<title>Node22&#45;&gt;Node15</title>
<path fill="none" stroke="midnightblue" d="M805.76,-112.32C815.77,-104.26 830.89,-92.08 842.93,-82.37"/>
<polygon fill="midnightblue" stroke="midnightblue" points="845.45,-84.83 851.04,-75.83 841.06,-79.38 845.45,-84.83"/>
</g>
<!-- Node23 -->
<g id="node23" class="node">
<title>Node23</title>
<g id="a_node23"><a xlink:title=" ">
<polygon fill="white" stroke="#bfbfbf" points="567.5,-0.5 567.5,-19.5 706.5,-19.5 706.5,-0.5 567.5,-0.5"/>
<text text-anchor="middle" x="637" y="-7.5" font-family="Helvetica,sans-Serif" font-size="10.00">SFML/Graphics/Texture.hpp</text>
</a>
</g>
</g>
<!-- Node22&#45;&gt;Node23 -->
<g id="edge36" class="edge">
<title>Node22&#45;&gt;Node23</title>
<path fill="none" stroke="midnightblue" d="M729.36,-112.45C685.88,-105.28 634.47,-93.39 621,-76 610.36,-62.26 617.61,-42.4 625.47,-28.26"/>
<polygon fill="midnightblue" stroke="midnightblue" points="628.58,-29.88 630.81,-19.52 622.61,-26.23 628.58,-29.88"/>
</g>
<!-- Node24 -->
<g id="node24" class="node">
<title>Node24</title>
<g id="a_node24"><a xlink:title=" ">
<polygon fill="white" stroke="#bfbfbf" points="727,-0.5 727,-19.5 853,-19.5 853,-0.5 727,-0.5"/>
<text text-anchor="middle" x="790" y="-7.5" font-family="Helvetica,sans-Serif" font-size="10.00">SFML/Graphics/Font.hpp</text>
</a>
</g>
</g>
<!-- Node22&#45;&gt;Node24 -->
<g id="edge37" class="edge">
<title>Node22&#45;&gt;Node24</title>
<path fill="none" stroke="midnightblue" d="M794.61,-112.37C793.8,-94.62 791.94,-53.67 790.85,-29.6"/>
<polygon fill="midnightblue" stroke="midnightblue" points="794.34,-29.42 790.39,-19.59 787.35,-29.74 794.34,-29.42"/>
</g>
<!-- Node25 -->
<g id="node25" class="node">
<title>Node25</title>
<g id="a_node25"><a xlink:href="../../db/d73/Ressource_8hpp.html" target="_top" xlink:title=" ">
<polygon fill="white" stroke="black" points="630.5,-56.5 630.5,-75.5 763.5,-75.5 763.5,-56.5 630.5,-56.5"/>
<text text-anchor="middle" x="697" y="-63.5" font-family="Helvetica,sans-Serif" font-size="10.00">Small/Core/Ressource.hpp</text>
</a>
</g>
</g>
<!-- Node22&#45;&gt;Node25 -->
<g id="edge38" class="edge">
<title>Node22&#45;&gt;Node25</title>
<path fill="none" stroke="midnightblue" d="M779.25,-112.32C763.68,-103.74 739.62,-90.49 721.54,-80.52"/>
<polygon fill="midnightblue" stroke="midnightblue" points="723.15,-77.42 712.71,-75.65 719.78,-83.55 723.15,-77.42"/>
</g>
<!-- Node25&#45;&gt;Node2 -->
<g id="edge39" class="edge">
<title>Node25&#45;&gt;Node2</title>
<path fill="none" stroke="midnightblue" d="M669.9,-56.44C638.97,-46.68 588.51,-30.74 556.3,-20.57"/>
<polygon fill="midnightblue" stroke="midnightblue" points="557.12,-17.16 546.53,-17.48 555.01,-23.83 557.12,-17.16"/>
</g>
<!-- Node25&#45;&gt;Node23 -->
<g id="edge40" class="edge">
<title>Node25&#45;&gt;Node23</title>
<path fill="none" stroke="midnightblue" d="M687.36,-56.32C678.49,-48.34 665.13,-36.31 654.39,-26.65"/>
<polygon fill="midnightblue" stroke="midnightblue" points="656.59,-23.92 646.82,-19.83 651.91,-29.13 656.59,-23.92"/>
</g>
<!-- Node25&#45;&gt;Node24 -->
<g id="edge41" class="edge">
<title>Node25&#45;&gt;Node24</title>
<path fill="none" stroke="midnightblue" d="M711.94,-56.32C726.59,-47.82 749.13,-34.73 766.24,-24.8"/>
<polygon fill="midnightblue" stroke="midnightblue" points="768.2,-27.7 775.1,-19.65 764.69,-21.65 768.2,-27.7"/>
</g>
<!-- Node30 -->
<g id="node30" class="node">
<title>Node30</title>
<g id="a_node30"><a xlink:title=" ">
<polygon fill="white" stroke="#bfbfbf" points="1536,-168.5 1536,-187.5 1574,-187.5 1574,-168.5 1536,-168.5"/>
<text text-anchor="middle" x="1555" y="-175.5" font-family="Helvetica,sans-Serif" font-size="10.00">array</text>
</a>
</g>
</g>
<!-- Node29&#45;&gt;Node30 -->
<g id="edge47" class="edge">
<title>Node29&#45;&gt;Node30</title>
<path fill="none" stroke="midnightblue" d="M1483.66,-224.32C1496.92,-215.9 1517.27,-202.97 1532.85,-193.07"/>
<polygon fill="midnightblue" stroke="midnightblue" points="1534.81,-195.97 1541.38,-187.65 1531.06,-190.06 1534.81,-195.97"/>
</g>
<!-- Node31 -->
<g id="node31" class="node">
<title>Node31</title>
<g id="a_node31"><a xlink:title=" ">
<polygon fill="white" stroke="#bfbfbf" points="1592,-168.5 1592,-187.5 1638,-187.5 1638,-168.5 1592,-168.5"/>
<text text-anchor="middle" x="1615" y="-175.5" font-family="Helvetica,sans-Serif" font-size="10.00">chrono</text>
</a>
</g>
</g>
<!-- Node29&#45;&gt;Node31 -->
<g id="edge48" class="edge">
<title>Node29&#45;&gt;Node31</title>
<path fill="none" stroke="midnightblue" d="M1492.98,-224.44C1517.16,-215.44 1555.42,-201.19 1582.65,-191.05"/>
<polygon fill="midnightblue" stroke="midnightblue" points="1583.98,-194.29 1592.13,-187.52 1581.54,-187.73 1583.98,-194.29"/>
</g>
<!-- Node32 -->
<g id="node32" class="node">
<title>Node32</title>
<g id="a_node32"><a xlink:title=" ">
<polygon fill="white" stroke="#bfbfbf" points="1374,-168.5 1374,-187.5 1518,-187.5 1518,-168.5 1374,-168.5"/>
<text text-anchor="middle" x="1446" y="-175.5" font-family="Helvetica,sans-Serif" font-size="10.00">imgui_widget_flamegraph.hpp</text>
</a>
</g>
</g>
<!-- Node29&#45;&gt;Node32 -->
<g id="edge49" class="edge">
<title>Node29&#45;&gt;Node32</title>
<path fill="none" stroke="midnightblue" d="M1466.04,-224.08C1462.79,-216.77 1458.08,-206.18 1454.05,-197.1"/>
<polygon fill="midnightblue" stroke="midnightblue" points="1457.15,-195.47 1449.89,-187.75 1450.75,-198.31 1457.15,-195.47"/>
</g>
<!-- Node34&#45;&gt;Node5 -->
<g id="edge54" class="edge">
<title>Node34&#45;&gt;Node5</title>
<path fill="none" stroke="midnightblue" d="M366.92,-224.5C393.51,-212.91 432.74,-190.97 415,-168 402.54,-151.86 357.14,-140.4 316.11,-133.08"/>
<polygon fill="midnightblue" stroke="midnightblue" points="316.52,-129.6 306.07,-131.35 315.33,-136.5 316.52,-129.6"/>
</g>
<!-- Node34&#45;&gt;Node33 -->
<g id="edge53" class="edge">
<title>Node34&#45;&gt;Node33</title>
<path fill="none" stroke="midnightblue" d="M306.18,-224.44C262.15,-214.74 190.49,-198.95 144.31,-188.77"/>
<polygon fill="midnightblue" stroke="midnightblue" points="144.81,-185.29 134.29,-186.56 143.3,-192.13 144.81,-185.29"/>
</g>
<!-- Node35 -->
<g id="node35" class="node">
<title>Node35</title>
<g id="a_node35"><a xlink:title=" ">
<polygon fill="white" stroke="#bfbfbf" points="284,-168.5 284,-187.5 406,-187.5 406,-168.5 284,-168.5"/>
<text text-anchor="middle" x="345" y="-175.5" font-family="Helvetica,sans-Serif" font-size="10.00">SFML/System/Time.hpp</text>
</a>
</g>
</g>
<!-- Node34&#45;&gt;Node35 -->
<g id="edge55" class="edge">
<title>Node34&#45;&gt;Node35</title>
<path fill="none" stroke="midnightblue" d="M345,-224.08C345,-217.01 345,-206.86 345,-197.99"/>
<polygon fill="midnightblue" stroke="midnightblue" points="348.5,-197.75 345,-187.75 341.5,-197.75 348.5,-197.75"/>
</g>
<!-- Node36 -->
<g id="node36" class="node">
<title>Node36</title>
<g id="a_node36"><a xlink:title=" ">
<polygon fill="white" stroke="#bfbfbf" points="152.5,-168.5 152.5,-187.5 265.5,-187.5 265.5,-168.5 152.5,-168.5"/>
<text text-anchor="middle" x="209" y="-175.5" font-family="Helvetica,sans-Serif" font-size="10.00">SFML/System/Utf.hpp</text>
</a>
</g>
</g>
<!-- Node34&#45;&gt;Node36 -->
<g id="edge56" class="edge">
<title>Node34&#45;&gt;Node36</title>
<path fill="none" stroke="midnightblue" d="M323.45,-224.44C300.97,-215.52 265.51,-201.44 240.02,-191.32"/>
<polygon fill="midnightblue" stroke="midnightblue" points="241.03,-187.95 230.45,-187.52 238.45,-194.46 241.03,-187.95"/>
</g>
</g>
</svg>
