<?xml version="1.0" encoding="UTF-8" standalone="no"?>
<!DOCTYPE svg PUBLIC "-//W3C//DTD SVG 1.1//EN"
 "http://www.w3.org/Graphics/SVG/1.1/DTD/svg11.dtd">
<!-- Generated by graphviz version 2.38.0 (20140413.2041)
 -->
<!-- Title: C:/Users/Folaefolc/Documents/Code/Big&#45;Projects/ScriptWizards/SmallGameLibrary/include/Small/Core/Application.hpp Pages: 1 -->
<svg width="1516pt" height="296pt"
 viewBox="0.00 0.00 1515.66 296.00" xmlns="http://www.w3.org/2000/svg" xmlns:xlink="http://www.w3.org/1999/xlink">
<g id="graph0" class="graph" transform="scale(1 1) rotate(0) translate(4 292)">
<title>C:/Users/Folaefolc/Documents/Code/Big&#45;Projects/ScriptWizards/SmallGameLibrary/include/Small/Core/Application.hpp</title>
<polygon fill="white" stroke="none" points="-4,4 -4,-292 1511.66,-292 1511.66,4 -4,4"/>
<!-- Node1 -->
<g id="node1" class="node"><title>Node1</title>
<polygon fill="#bfbfbf" stroke="black" points="697.162,-224.5 697.162,-287.5 834.162,-287.5 834.162,-224.5 697.162,-224.5"/>
<text text-anchor="start" x="705.162" y="-275.5" font-family="Helvetica,sans-Serif" font-size="10.00">C:/Users/Folaefolc</text>
<text text-anchor="start" x="705.162" y="-264.5" font-family="Helvetica,sans-Serif" font-size="10.00">/Documents/Code/Big</text>
<text text-anchor="start" x="705.162" y="-253.5" font-family="Helvetica,sans-Serif" font-size="10.00">&#45;Projects/ScriptWizards</text>
<text text-anchor="start" x="705.162" y="-242.5" font-family="Helvetica,sans-Serif" font-size="10.00">/SmallGameLibrary/include</text>
<text text-anchor="middle" x="765.662" y="-231.5" font-family="Helvetica,sans-Serif" font-size="10.00">/Small/Core/Application.hpp</text>
</g>
<!-- Node2 -->
<g id="node2" class="node"><title>Node2</title>
<polygon fill="white" stroke="#bfbfbf" points="667.162,-0.5 667.162,-19.5 708.162,-19.5 708.162,-0.5 667.162,-0.5"/>
<text text-anchor="middle" x="687.662" y="-7.5" font-family="Helvetica,sans-Serif" font-size="10.00">string</text>
</g>
<!-- Node1&#45;&gt;Node2 -->
<g id="edge1" class="edge"><title>Node1&#45;&gt;Node2</title>
<path fill="none" stroke="midnightblue" d="M696.999,-252.967C546.296,-247.753 191.116,-231.147 79.6616,-188 40.8671,-172.982 23.3055,-169.188 4.66161,-132 -55.9592,-11.0814 515.762,-9.20506 656.71,-10.5591"/>
<polygon fill="midnightblue" stroke="midnightblue" points="656.792,-14.0601 666.83,-10.6695 656.869,-7.06055 656.792,-14.0601"/>
</g>
<!-- Node3 -->
<g id="node3" class="node"><title>Node3</title>
<polygon fill="white" stroke="#bfbfbf" points="911.662,-168.5 911.662,-187.5 961.662,-187.5 961.662,-168.5 911.662,-168.5"/>
<text text-anchor="middle" x="936.662" y="-175.5" font-family="Helvetica,sans-Serif" font-size="10.00">optional</text>
</g>
<!-- Node1&#45;&gt;Node3 -->
<g id="edge2" class="edge"><title>Node1&#45;&gt;Node3</title>
<path fill="none" stroke="midnightblue" d="M834.229,-224.526C859.94,-213.098 887.781,-200.725 907.938,-191.766"/>
<polygon fill="midnightblue" stroke="midnightblue" points="909.457,-194.921 917.173,-187.661 906.614,-188.525 909.457,-194.921"/>
</g>
<!-- Node4 -->
<g id="node4" class="node"><title>Node4</title>
<polygon fill="white" stroke="#bfbfbf" points="411.662,-56.5 411.662,-75.5 515.662,-75.5 515.662,-56.5 411.662,-56.5"/>
<text text-anchor="middle" x="463.662" y="-63.5" font-family="Helvetica,sans-Serif" font-size="10.00">SFML/Graphics.hpp</text>
</g>
<!-- Node1&#45;&gt;Node4 -->
<g id="edge3" class="edge"><title>Node1&#45;&gt;Node4</title>
<path fill="none" stroke="midnightblue" d="M700.5,-224.335C678.858,-213.518 654.88,-200.839 633.662,-188 576.396,-153.35 513.239,-105.688 482.524,-81.8453"/>
<polygon fill="midnightblue" stroke="midnightblue" points="484.451,-78.9089 474.414,-75.5162 480.144,-84.4275 484.451,-78.9089"/>
</g>
<!-- Node5 -->
<g id="node5" class="node"><title>Node5</title>
<polygon fill="white" stroke="#bfbfbf" points="267.662,-56.5 267.662,-75.5 393.662,-75.5 393.662,-56.5 267.662,-56.5"/>
<text text-anchor="middle" x="330.662" y="-63.5" font-family="Helvetica,sans-Serif" font-size="10.00">SFML/Window/Event.hpp</text>
</g>
<!-- Node1&#45;&gt;Node5 -->
<g id="edge4" class="edge"><title>Node1&#45;&gt;Node5</title>
<path fill="none" stroke="midnightblue" d="M696.763,-227.891C666.816,-215.928 631.393,-201.534 599.662,-188 510.867,-150.127 406.979,-102.419 358.376,-79.8975"/>
<polygon fill="midnightblue" stroke="midnightblue" points="359.685,-76.6466 349.141,-75.6128 356.739,-82.9965 359.685,-76.6466"/>
</g>
<!-- Node6 -->
<g id="node6" class="node"><title>Node6</title>
<polygon fill="white" stroke="#bfbfbf" points="533.662,-56.5 533.662,-75.5 659.662,-75.5 659.662,-56.5 533.662,-56.5"/>
<text text-anchor="middle" x="596.662" y="-63.5" font-family="Helvetica,sans-Serif" font-size="10.00">SFML/System/Clock.hpp</text>
</g>
<!-- Node1&#45;&gt;Node6 -->
<g id="edge5" class="edge"><title>Node1&#45;&gt;Node6</title>
<path fill="none" stroke="midnightblue" d="M708.277,-224.385C673.957,-203.055 632.512,-171.395 608.662,-132 600.211,-118.042 597.446,-99.5373 596.657,-85.8423"/>
<polygon fill="midnightblue" stroke="midnightblue" points="600.152,-85.5755 596.379,-75.6752 593.154,-85.7674 600.152,-85.5755"/>
</g>
<!-- Node7 -->
<g id="node7" class="node"><title>Node7</title>
<polygon fill="white" stroke="#bfbfbf" points="979.662,-168.5 979.662,-187.5 1027.66,-187.5 1027.66,-168.5 979.662,-168.5"/>
<text text-anchor="middle" x="1003.66" y="-175.5" font-family="Helvetica,sans-Serif" font-size="10.00">imgui.h</text>
</g>
<!-- Node1&#45;&gt;Node7 -->
<g id="edge6" class="edge"><title>Node1&#45;&gt;Node7</title>
<path fill="none" stroke="midnightblue" d="M834.182,-233.12C878.552,-218.951 934.415,-201.112 969.596,-189.878"/>
<polygon fill="midnightblue" stroke="midnightblue" points="970.917,-193.13 979.379,-186.754 968.788,-186.462 970.917,-193.13"/>
</g>
<!-- Node8 -->
<g id="node8" class="node"><title>Node8</title>
<polygon fill="white" stroke="#bfbfbf" points="1046.16,-168.5 1046.16,-187.5 1123.16,-187.5 1123.16,-168.5 1046.16,-168.5"/>
<text text-anchor="middle" x="1084.66" y="-175.5" font-family="Helvetica,sans-Serif" font-size="10.00">imgui&#45;SFML.h</text>
</g>
<!-- Node1&#45;&gt;Node8 -->
<g id="edge7" class="edge"><title>Node1&#45;&gt;Node8</title>
<path fill="none" stroke="midnightblue" d="M834.487,-238.603C896.26,-223.886 985.204,-202.695 1038.72,-189.946"/>
<polygon fill="midnightblue" stroke="midnightblue" points="1039.69,-193.312 1048.61,-187.59 1038.07,-186.503 1039.69,-193.312"/>
</g>
<!-- Node9 -->
<g id="node9" class="node"><title>Node9</title>
<polygon fill="white" stroke="#bfbfbf" points="1141.16,-168.5 1141.16,-187.5 1242.16,-187.5 1242.16,-168.5 1141.16,-168.5"/>
<text text-anchor="middle" x="1191.66" y="-175.5" font-family="Helvetica,sans-Serif" font-size="10.00">SFML/OpenGL.hpp</text>
</g>
<!-- Node1&#45;&gt;Node9 -->
<g id="edge8" class="edge"><title>Node1&#45;&gt;Node9</title>
<path fill="none" stroke="midnightblue" d="M834.579,-242.705C917.739,-227.869 1056.06,-203.192 1133.89,-189.308"/>
<polygon fill="midnightblue" stroke="midnightblue" points="1134.76,-192.707 1143.99,-187.505 1133.53,-185.815 1134.76,-192.707"/>
</g>
<!-- Node10 -->
<g id="node10" class="node"><title>Node10</title>
<g id="a_node10"><a xlink:href="../../df/d74/SceneManager_8hpp.html" target="_top" xlink:title="Define the scene manager (creating, handling and destroying them) ">
<polygon fill="white" stroke="black" points="741.662,-168.5 741.662,-187.5 893.662,-187.5 893.662,-168.5 741.662,-168.5"/>
<text text-anchor="middle" x="817.662" y="-175.5" font-family="Helvetica,sans-Serif" font-size="10.00">Small/Core/SceneManager.hpp</text>
</a>
</g>
</g>
<!-- Node1&#45;&gt;Node10 -->
<g id="edge9" class="edge"><title>Node1&#45;&gt;Node10</title>
<path fill="none" stroke="midnightblue" d="M786.812,-224.088C793.349,-214.533 800.311,-204.359 805.963,-196.097"/>
<polygon fill="midnightblue" stroke="midnightblue" points="808.938,-197.948 811.697,-187.718 803.161,-193.995 808.938,-197.948"/>
</g>
<!-- Node14 -->
<g id="node14" class="node"><title>Node14</title>
<g id="a_node14"><a xlink:href="../../df/db4/Config_8hpp.html" target="_top" xlink:title="Small/Scripting/Config.hpp">
<polygon fill="white" stroke="black" points="791.162,-56.5 791.162,-75.5 922.162,-75.5 922.162,-56.5 791.162,-56.5"/>
<text text-anchor="middle" x="856.662" y="-63.5" font-family="Helvetica,sans-Serif" font-size="10.00">Small/Scripting/Config.hpp</text>
</a>
</g>
</g>
<!-- Node1&#45;&gt;Node14 -->
<g id="edge39" class="edge"><title>Node1&#45;&gt;Node14</title>
<path fill="none" stroke="midnightblue" d="M741.773,-224.298C731.659,-207.408 723.994,-186.238 732.662,-168 743.555,-145.078 802.125,-103.388 834.723,-81.4244"/>
<polygon fill="midnightblue" stroke="midnightblue" points="836.796,-84.2491 843.168,-75.7846 832.908,-78.4279 836.796,-84.2491"/>
</g>
<!-- Node23 -->
<g id="node23" class="node"><title>Node23</title>
<g id="a_node23"><a xlink:href="../../dc/dbc/Profiler_8hpp.html" target="_top" xlink:title="Profiler from https://github.com/bwrsandman/imgui&#45;flame&#45;graph/ (example/main.cpp), updated for the project needs. ">
<polygon fill="white" stroke="black" points="1260.66,-168.5 1260.66,-187.5 1384.66,-187.5 1384.66,-168.5 1260.66,-168.5"/>
<text text-anchor="middle" x="1322.66" y="-175.5" font-family="Helvetica,sans-Serif" font-size="10.00">Small/Debug/Profiler.hpp</text>
</a>
</g>
</g>
<!-- Node1&#45;&gt;Node23 -->
<g id="edge34" class="edge"><title>Node1&#45;&gt;Node23</title>
<path fill="none" stroke="midnightblue" d="M834.24,-245.643C940.017,-231.21 1142.04,-203.646 1250.15,-188.894"/>
<polygon fill="midnightblue" stroke="midnightblue" points="1250.87,-192.328 1260.31,-187.508 1249.93,-185.392 1250.87,-192.328"/>
</g>
<!-- Node27 -->
<g id="node27" class="node"><title>Node27</title>
<polygon fill="white" stroke="#bfbfbf" points="13.6616,-112.5 13.6616,-131.5 81.6616,-131.5 81.6616,-112.5 13.6616,-112.5"/>
<text text-anchor="middle" x="47.6616" y="-119.5" font-family="Helvetica,sans-Serif" font-size="10.00">Ark/Ark.hpp</text>
</g>
<!-- Node1&#45;&gt;Node27 -->
<g id="edge38" class="edge"><title>Node1&#45;&gt;Node27</title>
<path fill="none" stroke="midnightblue" d="M697.107,-254.026C550.343,-250.979 210.787,-238.519 108.662,-188 87.0657,-177.317 69.1761,-155.587 58.4721,-140.199"/>
<polygon fill="midnightblue" stroke="midnightblue" points="61.2093,-137.993 52.767,-131.592 55.3747,-141.86 61.2093,-137.993"/>
</g>
<!-- Node28 -->
<g id="node28" class="node"><title>Node28</title>
<g id="a_node28"><a xlink:href="../../d8/d82/SFMLtoArk_8hpp.html" target="_top" xlink:title="Convert SFML values to ArkScript values. ">
<polygon fill="white" stroke="black" points="117.662,-168.5 117.662,-187.5 271.662,-187.5 271.662,-168.5 117.662,-168.5"/>
<text text-anchor="middle" x="194.662" y="-175.5" font-family="Helvetica,sans-Serif" font-size="10.00">Small/Scripting/SFMLtoArk.hpp</text>
</a>
</g>
</g>
<!-- Node1&#45;&gt;Node28 -->
<g id="edge40" class="edge"><title>Node1&#45;&gt;Node28</title>
<path fill="none" stroke="midnightblue" d="M697.069,-245.87C589.026,-231.49 380.073,-203.678 268.728,-188.858"/>
<polygon fill="midnightblue" stroke="midnightblue" points="268.965,-185.359 258.591,-187.509 268.042,-192.298 268.965,-185.359"/>
</g>
<!-- Node31 -->
<g id="node31" class="node"><title>Node31</title>
<polygon fill="white" stroke="#bfbfbf" points="1403.16,-168.5 1403.16,-187.5 1480.16,-187.5 1480.16,-168.5 1403.16,-168.5"/>
<text text-anchor="middle" x="1441.66" y="-175.5" font-family="Helvetica,sans-Serif" font-size="10.00">Application.inl</text>
</g>
<!-- Node1&#45;&gt;Node31 -->
<g id="edge45" class="edge"><title>Node1&#45;&gt;Node31</title>
<path fill="none" stroke="midnightblue" d="M834.187,-249.476C948.053,-239.903 1183.56,-218.437 1392.98,-187.99"/>
<polygon fill="midnightblue" stroke="midnightblue" points="1393.55,-191.445 1402.93,-186.534 1392.53,-184.519 1393.55,-191.445"/>
</g>
<!-- Node10&#45;&gt;Node4 -->
<g id="edge12" class="edge"><title>Node10&#45;&gt;Node4</title>
<path fill="none" stroke="midnightblue" d="M763.142,-168.487C720.477,-161.058 659.979,-148.821 608.662,-132 565.279,-117.78 517.392,-94.7823 488.953,-80.2977"/>
<polygon fill="midnightblue" stroke="midnightblue" points="490.237,-77.0223 479.744,-75.5577 487.033,-83.2463 490.237,-77.0223"/>
</g>
<!-- Node10&#45;&gt;Node5 -->
<g id="edge14" class="edge"><title>Node10&#45;&gt;Node5</title>
<path fill="none" stroke="midnightblue" d="M757.164,-168.488C704.025,-160.555 624.785,-147.62 556.662,-132 488.732,-116.424 410.907,-92.7195 366.587,-78.6521"/>
<polygon fill="midnightblue" stroke="midnightblue" points="367.452,-75.2541 356.861,-75.5486 365.324,-81.9228 367.452,-75.2541"/>
</g>
<!-- Node10&#45;&gt;Node6 -->
<g id="edge13" class="edge"><title>Node10&#45;&gt;Node6</title>
<path fill="none" stroke="midnightblue" d="M741.566,-173.832C704.167,-168.808 660.43,-157.352 628.662,-132 614.09,-120.371 605.665,-100.419 601.153,-85.6797"/>
<polygon fill="midnightblue" stroke="midnightblue" points="604.428,-84.382 598.429,-75.6488 597.672,-86.2165 604.428,-84.382"/>
</g>
<!-- Node11 -->
<g id="node11" class="node"><title>Node11</title>
<polygon fill="white" stroke="#bfbfbf" points="1076.66,-0.5 1076.66,-19.5 1118.66,-19.5 1118.66,-0.5 1076.66,-0.5"/>
<text text-anchor="middle" x="1097.66" y="-7.5" font-family="Helvetica,sans-Serif" font-size="10.00">vector</text>
</g>
<!-- Node10&#45;&gt;Node11 -->
<g id="edge10" class="edge"><title>Node10&#45;&gt;Node11</title>
<path fill="none" stroke="midnightblue" d="M890.844,-168.47C977.531,-158.012 1111.24,-140.619 1118.66,-132 1143.96,-102.639 1122.74,-53.9667 1108.31,-28.2116"/>
<polygon fill="midnightblue" stroke="midnightblue" points="1111.31,-26.4011 1103.23,-19.5509 1105.27,-29.9462 1111.31,-26.4011"/>
</g>
<!-- Node12 -->
<g id="node12" class="node"><title>Node12</title>
<polygon fill="white" stroke="#bfbfbf" points="1136.66,-0.5 1136.66,-19.5 1188.66,-19.5 1188.66,-0.5 1136.66,-0.5"/>
<text text-anchor="middle" x="1162.66" y="-7.5" font-family="Helvetica,sans-Serif" font-size="10.00">memory</text>
</g>
<!-- Node10&#45;&gt;Node12 -->
<g id="edge11" class="edge"><title>Node10&#45;&gt;Node12</title>
<path fill="none" stroke="midnightblue" d="M893.822,-168.558C985.917,-158.021 1129.8,-140.37 1138.66,-132 1166.72,-105.486 1167.16,-56.3223 1164.97,-29.5488"/>
<polygon fill="midnightblue" stroke="midnightblue" points="1168.45,-29.1647 1163.94,-19.5766 1161.49,-29.8829 1168.45,-29.1647"/>
</g>
<!-- Node13 -->
<g id="node13" class="node"><title>Node13</title>
<g id="a_node13"><a xlink:href="../../db/de8/Scene_8hpp.html" target="_top" xlink:title="The base scene class and the scene states are defined here. ">
<polygon fill="white" stroke="black" points="637.662,-112.5 637.662,-131.5 751.662,-131.5 751.662,-112.5 637.662,-112.5"/>
<text text-anchor="middle" x="694.662" y="-119.5" font-family="Helvetica,sans-Serif" font-size="10.00">Small/Core/Scene.hpp</text>
</a>
</g>
</g>
<!-- Node10&#45;&gt;Node13 -->
<g id="edge15" class="edge"><title>Node10&#45;&gt;Node13</title>
<path fill="none" stroke="midnightblue" d="M798.172,-168.444C778.019,-159.596 746.339,-145.687 723.331,-135.586"/>
<polygon fill="midnightblue" stroke="midnightblue" points="724.624,-132.332 714.06,-131.516 721.81,-138.741 724.624,-132.332"/>
</g>
<!-- Node10&#45;&gt;Node14 -->
<g id="edge29" class="edge"><title>Node10&#45;&gt;Node14</title>
<path fill="none" stroke="midnightblue" d="M819.765,-168.469C822.944,-155.933 829.379,-131.87 836.662,-112 839.971,-102.969 844.235,-93.1855 847.974,-85.0543"/>
<polygon fill="midnightblue" stroke="midnightblue" points="851.228,-86.3585 852.319,-75.8199 844.895,-83.378 851.228,-86.3585"/>
</g>
<!-- Node17 -->
<g id="node17" class="node"><title>Node17</title>
<polygon fill="white" stroke="#bfbfbf" points="1207.16,-0.5 1207.16,-19.5 1356.16,-19.5 1356.16,-0.5 1207.16,-0.5"/>
<text text-anchor="middle" x="1281.66" y="-7.5" font-family="Helvetica,sans-Serif" font-size="10.00">SFML/Graphics/Transform.hpp</text>
</g>
<!-- Node10&#45;&gt;Node17 -->
<g id="edge30" class="edge"><title>Node10&#45;&gt;Node17</title>
<path fill="none" stroke="midnightblue" d="M891.868,-168.456C988.829,-157.113 1147.77,-137.835 1159.66,-132 1209.25,-107.673 1250.93,-55.233 1270.2,-28.0765"/>
<polygon fill="midnightblue" stroke="midnightblue" points="1273.24,-29.8277 1276.06,-19.6129 1267.49,-25.8445 1273.24,-29.8277"/>
</g>
<!-- Node20 -->
<g id="node20" class="node"><title>Node20</title>
<polygon fill="white" stroke="#bfbfbf" points="845.662,-112.5 845.662,-131.5 895.662,-131.5 895.662,-112.5 845.662,-112.5"/>
<text text-anchor="middle" x="870.662" y="-119.5" font-family="Helvetica,sans-Serif" font-size="10.00">typeinfo</text>
</g>
<!-- Node10&#45;&gt;Node20 -->
<g id="edge31" class="edge"><title>Node10&#45;&gt;Node20</title>
<path fill="none" stroke="midnightblue" d="M826.413,-168.083C834.131,-160.22 845.566,-148.569 854.878,-139.081"/>
<polygon fill="midnightblue" stroke="midnightblue" points="857.566,-141.34 862.073,-131.751 852.57,-136.436 857.566,-141.34"/>
</g>
<!-- Node21 -->
<g id="node21" class="node"><title>Node21</title>
<polygon fill="white" stroke="#bfbfbf" points="914.162,-112.5 914.162,-131.5 997.162,-131.5 997.162,-112.5 914.162,-112.5"/>
<text text-anchor="middle" x="955.662" y="-119.5" font-family="Helvetica,sans-Serif" font-size="10.00">unordered_map</text>
</g>
<!-- Node10&#45;&gt;Node21 -->
<g id="edge32" class="edge"><title>Node10&#45;&gt;Node21</title>
<path fill="none" stroke="midnightblue" d="M839.528,-168.444C862.441,-159.478 898.637,-145.314 924.528,-135.183"/>
<polygon fill="midnightblue" stroke="midnightblue" points="925.86,-138.42 933.897,-131.516 923.31,-131.901 925.86,-138.42"/>
</g>
<!-- Node22 -->
<g id="node22" class="node"><title>Node22</title>
<polygon fill="white" stroke="#bfbfbf" points="1015.16,-112.5 1015.16,-131.5 1110.16,-131.5 1110.16,-112.5 1015.16,-112.5"/>
<text text-anchor="middle" x="1062.66" y="-119.5" font-family="Helvetica,sans-Serif" font-size="10.00">SceneManager.inl</text>
</g>
<!-- Node10&#45;&gt;Node22 -->
<g id="edge33" class="edge"><title>Node10&#45;&gt;Node22</title>
<path fill="none" stroke="midnightblue" d="M856.483,-168.444C899.222,-159.023 967.994,-143.866 1014.23,-133.675"/>
<polygon fill="midnightblue" stroke="midnightblue" points="1015.01,-137.087 1024.02,-131.516 1013.5,-130.251 1015.01,-137.087"/>
</g>
<!-- Node13&#45;&gt;Node2 -->
<g id="edge19" class="edge"><title>Node13&#45;&gt;Node2</title>
<path fill="none" stroke="midnightblue" d="M694.112,-112.368C692.983,-94.617 690.377,-53.6664 688.845,-29.5974"/>
<polygon fill="midnightblue" stroke="midnightblue" points="692.336,-29.3489 688.208,-19.5914 685.351,-29.7935 692.336,-29.3489"/>
</g>
<!-- Node13&#45;&gt;Node4 -->
<g id="edge16" class="edge"><title>Node13&#45;&gt;Node4</title>
<path fill="none" stroke="midnightblue" d="M658.059,-112.444C617.931,-103.063 553.463,-87.9926 509.877,-77.8036"/>
<polygon fill="midnightblue" stroke="midnightblue" points="510.627,-74.3847 500.093,-75.5164 509.034,-81.2009 510.627,-74.3847"/>
</g>
<!-- Node13&#45;&gt;Node5 -->
<g id="edge18" class="edge"><title>Node13&#45;&gt;Node5</title>
<path fill="none" stroke="midnightblue" d="M637.386,-112.503C572.639,-102.898 467.312,-87.2724 398.502,-77.0642"/>
<polygon fill="midnightblue" stroke="midnightblue" points="398.609,-73.5419 388.204,-75.5364 397.582,-80.4661 398.609,-73.5419"/>
</g>
<!-- Node13&#45;&gt;Node6 -->
<g id="edge17" class="edge"><title>Node13&#45;&gt;Node6</title>
<path fill="none" stroke="midnightblue" d="M678.916,-112.324C663.343,-103.743 639.284,-90.486 621.202,-80.5224"/>
<polygon fill="midnightblue" stroke="midnightblue" points="622.815,-77.4152 612.368,-75.6545 619.437,-83.546 622.815,-77.4152"/>
</g>
<!-- Node13&#45;&gt;Node14 -->
<g id="edge20" class="edge"><title>Node13&#45;&gt;Node14</title>
<path fill="none" stroke="midnightblue" d="M720.331,-112.444C747.584,-103.359 790.845,-88.9388 821.312,-78.7831"/>
<polygon fill="midnightblue" stroke="midnightblue" points="822.732,-81.9992 831.112,-75.5164 820.519,-75.3584 822.732,-81.9992"/>
</g>
<!-- Node15 -->
<g id="node15" class="node"><title>Node15</title>
<g id="a_node15"><a xlink:href="../../d7/dc6/Node_8hpp.html" target="_top" xlink:title="A scene graph node. ">
<polygon fill="white" stroke="black" points="958.662,-56.5 958.662,-75.5 1086.66,-75.5 1086.66,-56.5 958.662,-56.5"/>
<text text-anchor="middle" x="1022.66" y="-63.5" font-family="Helvetica,sans-Serif" font-size="10.00">Small/Graphics/Node.hpp</text>
</a>
</g>
</g>
<!-- Node13&#45;&gt;Node15 -->
<g id="edge22" class="edge"><title>Node13&#45;&gt;Node15</title>
<path fill="none" stroke="midnightblue" d="M746.634,-112.444C804.813,-102.865 899.02,-87.3556 960.909,-77.1667"/>
<polygon fill="midnightblue" stroke="midnightblue" points="961.634,-80.5945 970.932,-75.5164 960.496,-73.6875 961.634,-80.5945"/>
</g>
<!-- Node19 -->
<g id="node19" class="node"><title>Node19</title>
<polygon fill="white" stroke="#bfbfbf" points="716.162,-56.5 716.162,-75.5 773.162,-75.5 773.162,-56.5 716.162,-56.5"/>
<text text-anchor="middle" x="744.662" y="-63.5" font-family="Helvetica,sans-Serif" font-size="10.00">Scene.inl</text>
</g>
<!-- Node13&#45;&gt;Node19 -->
<g id="edge28" class="edge"><title>Node13&#45;&gt;Node19</title>
<path fill="none" stroke="midnightblue" d="M702.918,-112.083C710.126,-104.298 720.771,-92.8015 729.507,-83.3665"/>
<polygon fill="midnightblue" stroke="midnightblue" points="732.333,-85.4666 736.559,-75.7511 727.196,-80.7108 732.333,-85.4666"/>
</g>
<!-- Node14&#45;&gt;Node2 -->
<g id="edge21" class="edge"><title>Node14&#45;&gt;Node2</title>
<path fill="none" stroke="midnightblue" d="M829.883,-56.4435C799.397,-46.7024 749.71,-30.826 717.866,-20.6512"/>
<polygon fill="midnightblue" stroke="midnightblue" points="718.792,-17.2728 708.202,-17.5631 716.662,-23.9407 718.792,-17.2728"/>
</g>
<!-- Node15&#45;&gt;Node11 -->
<g id="edge26" class="edge"><title>Node15&#45;&gt;Node11</title>
<path fill="none" stroke="midnightblue" d="M1034.71,-56.324C1046.12,-48.1066 1063.49,-35.6017 1077.1,-25.8069"/>
<polygon fill="midnightblue" stroke="midnightblue" points="1079.32,-28.5174 1085.39,-19.8339 1075.23,-22.8366 1079.32,-28.5174"/>
</g>
<!-- Node15&#45;&gt;Node12 -->
<g id="edge27" class="edge"><title>Node15&#45;&gt;Node12</title>
<path fill="none" stroke="midnightblue" d="M1044.85,-56.4435C1068.09,-47.4776 1104.81,-33.314 1131.08,-23.1827"/>
<polygon fill="midnightblue" stroke="midnightblue" points="1132.51,-26.3807 1140.58,-19.5164 1129.99,-19.8497 1132.51,-26.3807"/>
</g>
<!-- Node16 -->
<g id="node16" class="node"><title>Node16</title>
<polygon fill="white" stroke="#bfbfbf" points="740.662,-0.5 740.662,-19.5 904.662,-19.5 904.662,-0.5 740.662,-0.5"/>
<text text-anchor="middle" x="822.662" y="-7.5" font-family="Helvetica,sans-Serif" font-size="10.00">SFML/Graphics/RenderTarget.hpp</text>
</g>
<!-- Node15&#45;&gt;Node16 -->
<g id="edge23" class="edge"><title>Node15&#45;&gt;Node16</title>
<path fill="none" stroke="midnightblue" d="M990.971,-56.4435C956.594,-47.1616 901.585,-32.3093 863.873,-22.127"/>
<polygon fill="midnightblue" stroke="midnightblue" points="864.771,-18.7442 854.204,-19.5164 862.946,-25.5022 864.771,-18.7442"/>
</g>
<!-- Node15&#45;&gt;Node17 -->
<g id="edge24" class="edge"><title>Node15&#45;&gt;Node17</title>
<path fill="none" stroke="midnightblue" d="M1063.7,-56.4435C1108.98,-47.0036 1181.89,-31.802 1230.77,-21.6111"/>
<polygon fill="midnightblue" stroke="midnightblue" points="1231.74,-24.9839 1240.81,-19.5164 1230.31,-18.1312 1231.74,-24.9839"/>
</g>
<!-- Node18 -->
<g id="node18" class="node"><title>Node18</title>
<polygon fill="white" stroke="#bfbfbf" points="923.162,-0.5 923.162,-19.5 1058.16,-19.5 1058.16,-0.5 923.162,-0.5"/>
<text text-anchor="middle" x="990.662" y="-7.5" font-family="Helvetica,sans-Serif" font-size="10.00">SFML/System/Vector2.hpp</text>
</g>
<!-- Node15&#45;&gt;Node18 -->
<g id="edge25" class="edge"><title>Node15&#45;&gt;Node18</title>
<path fill="none" stroke="midnightblue" d="M1017.38,-56.083C1012.95,-48.6127 1006.5,-37.7244 1001.04,-28.5199"/>
<polygon fill="midnightblue" stroke="midnightblue" points="1003.96,-26.5697 995.847,-19.7511 997.934,-30.1383 1003.96,-26.5697"/>
</g>
<!-- Node24 -->
<g id="node24" class="node"><title>Node24</title>
<polygon fill="white" stroke="#bfbfbf" points="1243.66,-112.5 1243.66,-131.5 1281.66,-131.5 1281.66,-112.5 1243.66,-112.5"/>
<text text-anchor="middle" x="1262.66" y="-119.5" font-family="Helvetica,sans-Serif" font-size="10.00">array</text>
</g>
<!-- Node23&#45;&gt;Node24 -->
<g id="edge35" class="edge"><title>Node23&#45;&gt;Node24</title>
<path fill="none" stroke="midnightblue" d="M1313.02,-168.324C1304.15,-160.341 1290.79,-148.313 1280.05,-138.653"/>
<polygon fill="midnightblue" stroke="midnightblue" points="1282.25,-135.922 1272.48,-131.834 1277.57,-141.125 1282.25,-135.922"/>
</g>
<!-- Node25 -->
<g id="node25" class="node"><title>Node25</title>
<polygon fill="white" stroke="#bfbfbf" points="1299.66,-112.5 1299.66,-131.5 1345.66,-131.5 1345.66,-112.5 1299.66,-112.5"/>
<text text-anchor="middle" x="1322.66" y="-119.5" font-family="Helvetica,sans-Serif" font-size="10.00">chrono</text>
</g>
<!-- Node23&#45;&gt;Node25 -->
<g id="edge36" class="edge"><title>Node23&#45;&gt;Node25</title>
<path fill="none" stroke="midnightblue" d="M1322.66,-168.083C1322.66,-161.006 1322.66,-150.861 1322.66,-141.986"/>
<polygon fill="midnightblue" stroke="midnightblue" points="1326.16,-141.751 1322.66,-131.751 1319.16,-141.751 1326.16,-141.751"/>
</g>
<!-- Node26 -->
<g id="node26" class="node"><title>Node26</title>
<polygon fill="white" stroke="#bfbfbf" points="1363.66,-112.5 1363.66,-131.5 1507.66,-131.5 1507.66,-112.5 1363.66,-112.5"/>
<text text-anchor="middle" x="1435.66" y="-119.5" font-family="Helvetica,sans-Serif" font-size="10.00">imgui_widget_flamegraph.hpp</text>
</g>
<!-- Node23&#45;&gt;Node26 -->
<g id="edge37" class="edge"><title>Node23&#45;&gt;Node26</title>
<path fill="none" stroke="midnightblue" d="M1340.57,-168.444C1358.92,-159.675 1387.67,-145.935 1408.76,-135.858"/>
<polygon fill="midnightblue" stroke="midnightblue" points="1410.33,-138.986 1417.84,-131.516 1407.31,-132.67 1410.33,-138.986"/>
</g>
<!-- Node28&#45;&gt;Node5 -->
<g id="edge42" class="edge"><title>Node28&#45;&gt;Node5</title>
<path fill="none" stroke="midnightblue" d="M174.167,-168.394C148.791,-156.525 110.956,-134.084 128.662,-112 144.806,-91.8629 206.453,-80.1549 257.443,-73.7575"/>
<polygon fill="midnightblue" stroke="midnightblue" points="257.973,-77.219 267.482,-72.5478 257.136,-70.2693 257.973,-77.219"/>
</g>
<!-- Node28&#45;&gt;Node27 -->
<g id="edge41" class="edge"><title>Node28&#45;&gt;Node27</title>
<path fill="none" stroke="midnightblue" d="M171.369,-168.444C146.854,-159.438 108.065,-145.189 80.4618,-135.049"/>
<polygon fill="midnightblue" stroke="midnightblue" points="81.4388,-131.679 70.8452,-131.516 79.025,-138.25 81.4388,-131.679"/>
</g>
<!-- Node29 -->
<g id="node29" class="node"><title>Node29</title>
<polygon fill="white" stroke="#bfbfbf" points="269.662,-112.5 269.662,-131.5 391.662,-131.5 391.662,-112.5 269.662,-112.5"/>
<text text-anchor="middle" x="330.662" y="-119.5" font-family="Helvetica,sans-Serif" font-size="10.00">SFML/System/Time.hpp</text>
</g>
<!-- Node28&#45;&gt;Node29 -->
<g id="edge43" class="edge"><title>Node28&#45;&gt;Node29</title>
<path fill="none" stroke="midnightblue" d="M216.211,-168.444C238.693,-159.517 274.149,-145.439 299.641,-135.317"/>
<polygon fill="midnightblue" stroke="midnightblue" points="301.21,-138.46 309.213,-131.516 298.627,-131.954 301.21,-138.46"/>
</g>
<!-- Node30 -->
<g id="node30" class="node"><title>Node30</title>
<polygon fill="white" stroke="#bfbfbf" points="138.162,-112.5 138.162,-131.5 251.162,-131.5 251.162,-112.5 138.162,-112.5"/>
<text text-anchor="middle" x="194.662" y="-119.5" font-family="Helvetica,sans-Serif" font-size="10.00">SFML/System/Utf.hpp</text>
</g>
<!-- Node28&#45;&gt;Node30 -->
<g id="edge44" class="edge"><title>Node28&#45;&gt;Node30</title>
<path fill="none" stroke="midnightblue" d="M194.662,-168.083C194.662,-161.006 194.662,-150.861 194.662,-141.986"/>
<polygon fill="midnightblue" stroke="midnightblue" points="198.162,-141.751 194.662,-131.751 191.162,-141.751 198.162,-141.751"/>
</g>
</g>
</svg>
