<?xml version="1.0" encoding="UTF-8" standalone="no"?>
<!DOCTYPE svg PUBLIC "-//W3C//DTD SVG 1.1//EN"
 "http://www.w3.org/Graphics/SVG/1.1/DTD/svg11.dtd">
<!-- Generated by graphviz version 2.38.0 (20140413.2041)
 -->
<!-- Title: sgl::GameObjects::TriggerManager Pages: 1 -->
<!--zoomable 154 -->
<svg id="main" version="1.1" xmlns="http://www.w3.org/2000/svg" xmlns:xlink="http://www.w3.org/1999/xlink" xml:space="preserve" onload="init(evt)">
<style type="text/css"><![CDATA[
.edge:hover path { stroke: red; }
.edge:hover polygon { stroke: red; fill: red; }
]]></style>
<script type="text/javascript"><![CDATA[
var edges = document.getElementsByTagName('g');
if (edges && edges.length) {
  for (var i=0;i<edges.length;i++) {
    if (edges[i].id.substr(0,4)=='edge') {
      edges[i].setAttribute('class','edge');
    }
  }
}
]]></script>
        <defs>
                <circle id="rim" cx="0" cy="0" r="7"/>
                <circle id="rim2" cx="0" cy="0" r="3.5"/>
                <g id="zoomPlus">
                        <use xlink:href="#rim" target="_top" fill="#404040">
                                <set attributeName="fill" to="#808080" begin="zoomplus.mouseover" end="zoomplus.mouseout"/>
                        </use>
                        <path d="M-4,0h8M0,-4v8" fill="none" stroke="white" stroke-width="1.5" pointer-events="none"/>
                </g>
                <g id="zoomMin">
                        <use xlink:href="#rim" target="_top" fill="#404040">
                                <set attributeName="fill" to="#808080" begin="zoomminus.mouseover" end="zoomminus.mouseout"/>
                        </use>
                        <path d="M-4,0h8" fill="none" stroke="white" stroke-width="1.5" pointer-events="none"/>
                </g>
                <g id="dirArrow">
                        <path fill="none" stroke="white" stroke-width="1.5" d="M0,-3.0v7 M-2.5,-0.5L0,-3.0L2.5,-0.5"/>
                </g>
               <g id="resetDef">
                       <use xlink:href="#rim2" target="_top" fill="#404040">
                               <set attributeName="fill" to="#808080" begin="reset.mouseover" end="reset.mouseout"/>
                       </use>
               </g>
        </defs>

<script type="text/javascript">
var viewWidth = 1183;
var viewHeight = 154;
var sectionId = 'dynsection-1';
</script>
<script xlink:href="../../svgpan.js" target="_top"/>
<svg id="graph" class="graph">
<g id="viewport">
<title>sgl::GameObjects::TriggerManager</title>
<polygon fill="white" stroke="none" points="-4,4 -4,-149.677 1179,-149.677 1179,4 -4,4"/>
<!-- Node1 -->
<g id="node1" class="node"><title>Node1</title>
<polygon fill="#bfbfbf" stroke="black" points="1044,-73.1768 1044,-103.177 1175,-103.177 1175,-73.1768 1044,-73.1768"/>
<text text-anchor="start" x="1052" y="-91.1768" font-family="Helvetica,sans-Serif" font-size="10.00">sgl::GameObjects::Trigger</text>
<text text-anchor="middle" x="1109.5" y="-80.1768" font-family="Helvetica,sans-Serif" font-size="10.00">Manager</text>
</g>
<!-- Node2 -->
<g id="node2" class="node"><title>Node2</title>
<g id="a_node2"><a xlink:href="../../de/dbb/classsgl_1_1GameObjects_1_1Manager.html" target="_top" xlink:title="sgl::GameObjects::Manager\l\&lt; Trigger \&gt;">
<polygon fill="white" stroke="black" points="868,-73.1768 868,-103.177 1007,-103.177 1007,-73.1768 868,-73.1768"/>
<text text-anchor="start" x="876" y="-91.1768" font-family="Helvetica,sans-Serif" font-size="10.00">sgl::GameObjects::Manager</text>
<text text-anchor="middle" x="937.5" y="-80.1768" font-family="Helvetica,sans-Serif" font-size="10.00">&lt; Trigger &gt;</text>
</a>
</g>
</g>
<!-- Node2&#45;&gt;Node1 -->
<g id="edge1" class="edge"><title>Node2&#45;&gt;Node1</title>
<path fill="none" stroke="midnightblue" d="M1017.22,-88.1768C1026.18,-88.1768 1035.24,-88.1768 1043.99,-88.1768"/>
<polygon fill="midnightblue" stroke="midnightblue" points="1017.16,-84.6769 1007.16,-88.1768 1017.16,-91.6769 1017.16,-84.6769"/>
</g>
<!-- Node3 -->
<g id="node3" class="node"><title>Node3</title>
<polygon fill="white" stroke="#bfbfbf" points="637.5,-40.1768 637.5,-70.1768 750.5,-70.1768 750.5,-40.1768 637.5,-40.1768"/>
<text text-anchor="start" x="645.5" y="-58.1768" font-family="Helvetica,sans-Serif" font-size="10.00">std::unordered_map</text>
<text text-anchor="middle" x="694" y="-47.1768" font-family="Helvetica,sans-Serif" font-size="10.00">&lt; std::string, Trigger &gt;</text>
</g>
<!-- Node3&#45;&gt;Node2 -->
<g id="edge2" class="edge"><title>Node3&#45;&gt;Node2</title>
<path fill="none" stroke="#9a32cd" stroke-dasharray="5,2" d="M760.759,-64.1625C793.921,-68.6939 834.119,-74.1868 867.696,-78.775"/>
<polygon fill="#9a32cd" stroke="#9a32cd" points="761.09,-60.6753 750.708,-62.7891 760.142,-67.6108 761.09,-60.6753"/>
<text text-anchor="middle" x="821.5" y="-79.1768" font-family="Helvetica,sans-Serif" font-size="10.00"> m_container</text>
</g>
<!-- Node4 -->
<g id="node4" class="node"><title>Node4</title>
<g id="a_node4"><a xlink:href="../../d9/d1c/classsgl_1_1GameObjects_1_1Trigger.html" target="_top" xlink:title="A base trigger class to implement your own type of triggers. ">
<polygon fill="white" stroke="black" points="389,-25.6768 389,-44.6768 520,-44.6768 520,-25.6768 389,-25.6768"/>
<text text-anchor="middle" x="454.5" y="-32.6768" font-family="Helvetica,sans-Serif" font-size="10.00">sgl::GameObjects::Trigger</text>
</a>
</g>
</g>
<!-- Node4&#45;&gt;Node3 -->
<g id="edge3" class="edge"><title>Node4&#45;&gt;Node3</title>
<path fill="none" stroke="#9a32cd" stroke-dasharray="5,2" d="M530.168,-41.4646C564.842,-44.3846 605.361,-47.7966 637.304,-50.4866"/>
<polygon fill="#9a32cd" stroke="#9a32cd" points="530.343,-37.967 520.084,-40.6155 529.755,-44.9423 530.343,-37.967"/>
<text text-anchor="middle" x="566.5" y="-50.1768" font-family="Helvetica,sans-Serif" font-size="10.00"> elements</text>
</g>
<!-- Node5 -->
<g id="node5" class="node"><title>Node5</title>
<g id="a_node5"><a xlink:title="STL class. ">
<polygon fill="white" stroke="#bfbfbf" points="195.5,-15.6768 195.5,-34.6768 255.5,-34.6768 255.5,-15.6768 195.5,-15.6768"/>
<text text-anchor="middle" x="225.5" y="-22.6768" font-family="Helvetica,sans-Serif" font-size="10.00">std::string</text>
</a>
</g>
</g>
<!-- Node5&#45;&gt;Node3 -->
<g id="edge6" class="edge"><title>Node5&#45;&gt;Node3</title>
<path fill="none" stroke="#9a32cd" stroke-dasharray="5,2" d="M265.744,-17.3356C322.213,-7.22186 429.55,7.63197 520,-5.17678 566.587,-11.7741 618.19,-27.8952 652.809,-40.062"/>
<polygon fill="#9a32cd" stroke="#9a32cd" points="265.01,-13.9117 255.807,-19.1611 266.275,-20.7965 265.01,-13.9117"/>
<text text-anchor="middle" x="454.5" y="-8.17678" font-family="Helvetica,sans-Serif" font-size="10.00"> keys</text>
</g>
<!-- Node5&#45;&gt;Node4 -->
<g id="edge4" class="edge"><title>Node5&#45;&gt;Node4</title>
<path fill="none" stroke="#9a32cd" stroke-dasharray="5,2" d="M265.752,-24.3714C294.834,-24.0365 335.422,-24.1184 371,-26.1768 376.754,-26.5097 382.723,-26.9582 388.701,-27.4782"/>
<polygon fill="#9a32cd" stroke="#9a32cd" points="265.54,-20.8739 255.589,-24.5107 265.636,-27.8732 265.54,-20.8739"/>
<text text-anchor="middle" x="333" y="-29.1768" font-family="Helvetica,sans-Serif" font-size="10.00"> m_triggerType</text>
</g>
<!-- Node11 -->
<g id="node11" class="node"><title>Node11</title>
<polygon fill="white" stroke="#bfbfbf" points="403,-115.177 403,-145.177 506,-145.177 506,-115.177 403,-115.177"/>
<text text-anchor="start" x="411" y="-133.177" font-family="Helvetica,sans-Serif" font-size="10.00">std::unordered_map</text>
<text text-anchor="middle" x="454.5" y="-122.177" font-family="Helvetica,sans-Serif" font-size="10.00">&lt; std::string, T &gt;</text>
</g>
<!-- Node5&#45;&gt;Node11 -->
<g id="edge12" class="edge"><title>Node5&#45;&gt;Node11</title>
<path fill="none" stroke="#9a32cd" stroke-dasharray="5,2" d="M263.038,-38.2824C292.903,-49.5952 335.789,-67.2309 371,-87.1768 379.586,-92.0407 380.488,-95.1845 389,-100.177 398.162,-105.55 408.447,-110.699 418.067,-115.167"/>
<polygon fill="#9a32cd" stroke="#9a32cd" points="264.031,-34.9172 253.439,-34.6941 261.58,-41.4741 264.031,-34.9172"/>
<text text-anchor="middle" x="333" y="-90.1768" font-family="Helvetica,sans-Serif" font-size="10.00"> keys</text>
</g>
<!-- Node6 -->
<g id="node6" class="node"><title>Node6</title>
<g id="a_node6"><a xlink:title="STL class. ">
<polygon fill="white" stroke="#bfbfbf" points="0,-10.1768 0,-40.1768 95,-40.1768 95,-10.1768 0,-10.1768"/>
<text text-anchor="start" x="8" y="-28.1768" font-family="Helvetica,sans-Serif" font-size="10.00">std::basic_string&lt;</text>
<text text-anchor="middle" x="47.5" y="-17.1768" font-family="Helvetica,sans-Serif" font-size="10.00"> char &gt;</text>
</a>
</g>
</g>
<!-- Node6&#45;&gt;Node5 -->
<g id="edge5" class="edge"><title>Node6&#45;&gt;Node5</title>
<path fill="none" stroke="midnightblue" d="M105.539,-25.1768C135.484,-25.1768 170.911,-25.1768 195.271,-25.1768"/>
<polygon fill="midnightblue" stroke="midnightblue" points="105.203,-21.6769 95.2027,-25.1768 105.203,-28.6769 105.203,-21.6769"/>
</g>
<!-- Node7 -->
<g id="node7" class="node"><title>Node7</title>
<g id="a_node7"><a xlink:title="STL class. ">
<polygon fill="white" stroke="#bfbfbf" points="174,-73.1768 174,-103.177 277,-103.177 277,-73.1768 174,-73.1768"/>
<text text-anchor="start" x="182" y="-91.1768" font-family="Helvetica,sans-Serif" font-size="10.00">std::unordered_map</text>
<text text-anchor="middle" x="225.5" y="-80.1768" font-family="Helvetica,sans-Serif" font-size="10.00">&lt; K, T &gt;</text>
</a>
</g>
</g>
<!-- Node7&#45;&gt;Node3 -->
<g id="edge7" class="edge"><title>Node7&#45;&gt;Node3</title>
<path fill="none" stroke="orange" stroke-dasharray="5,2" d="M287.558,-83.885C360.653,-78.7435 486.769,-69.8603 595,-62.1768 608.697,-61.2044 623.47,-60.1514 637.288,-59.1646"/>
<polygon fill="orange" stroke="orange" points="286.897,-80.4228 277.167,-84.6159 287.388,-87.4056 286.897,-80.4228"/>
<text text-anchor="middle" x="454.5" y="-80.1768" font-family="Helvetica,sans-Serif" font-size="10.00"> &lt; std::string, Trigger &gt;</text>
</g>
<!-- Node7&#45;&gt;Node11 -->
<g id="edge14" class="edge"><title>Node7&#45;&gt;Node11</title>
<path fill="none" stroke="orange" stroke-dasharray="5,2" d="M287.108,-99.3906C323.306,-106.088 368.749,-114.496 402.994,-120.832"/>
<polygon fill="orange" stroke="orange" points="287.631,-95.928 277.161,-97.5501 286.357,-102.811 287.631,-95.928"/>
<text text-anchor="middle" x="333" y="-117.177" font-family="Helvetica,sans-Serif" font-size="10.00"> &lt; std::string, T &gt;</text>
</g>
<!-- Node8 -->
<g id="node8" class="node"><title>Node8</title>
<polygon fill="white" stroke="#bfbfbf" points="33,-74.6768 33,-93.6768 62,-93.6768 62,-74.6768 33,-74.6768"/>
<text text-anchor="middle" x="47.5" y="-81.6768" font-family="Helvetica,sans-Serif" font-size="10.00">K</text>
</g>
<!-- Node8&#45;&gt;Node7 -->
<g id="edge8" class="edge"><title>Node8&#45;&gt;Node7</title>
<path fill="none" stroke="#9a32cd" stroke-dasharray="5,2" d="M72.3579,-84.1632C94.145,-84.2069 127.243,-84.4135 156,-85.1768 161.712,-85.3284 167.69,-85.5286 173.634,-85.7539"/>
<polygon fill="#9a32cd" stroke="#9a32cd" points="72.082,-80.6631 62.0786,-84.1532 72.0751,-87.6631 72.082,-80.6631"/>
<text text-anchor="middle" x="134.5" y="-88.1768" font-family="Helvetica,sans-Serif" font-size="10.00"> keys</text>
</g>
<!-- Node9 -->
<g id="node9" class="node"><title>Node9</title>
<polygon fill="white" stroke="#bfbfbf" points="33,-123.677 33,-142.677 62,-142.677 62,-123.677 33,-123.677"/>
<text text-anchor="middle" x="47.5" y="-130.677" font-family="Helvetica,sans-Serif" font-size="10.00">T</text>
</g>
<!-- Node9&#45;&gt;Node7 -->
<g id="edge9" class="edge"><title>Node9&#45;&gt;Node7</title>
<path fill="none" stroke="#9a32cd" stroke-dasharray="5,2" d="M72.0176,-127.164C97.8734,-120.553 140.191,-109.733 173.694,-101.167"/>
<polygon fill="#9a32cd" stroke="#9a32cd" points="70.8395,-123.852 62.0182,-129.72 72.5735,-130.634 70.8395,-123.852"/>
<text text-anchor="middle" x="134.5" y="-119.177" font-family="Helvetica,sans-Serif" font-size="10.00"> elements</text>
</g>
<!-- Node9&#45;&gt;Node11 -->
<g id="edge13" class="edge"><title>Node9&#45;&gt;Node11</title>
<path fill="none" stroke="#9a32cd" stroke-dasharray="5,2" d="M72.8344,-132.997C137.542,-132.517 314.897,-131.203 402.776,-130.553"/>
<polygon fill="#9a32cd" stroke="#9a32cd" points="72.4148,-129.499 62.441,-133.074 72.4667,-136.499 72.4148,-129.499"/>
<text text-anchor="middle" x="225.5" y="-136.177" font-family="Helvetica,sans-Serif" font-size="10.00"> elements</text>
</g>
<!-- Node10 -->
<g id="node10" class="node"><title>Node10</title>
<g id="a_node10"><a xlink:href="../../de/dbb/classsgl_1_1GameObjects_1_1Manager.html" target="_top" xlink:title="Templated singleton to hold ressources throughout the lifetime of the program. ">
<polygon fill="white" stroke="black" points="613,-105.677 613,-124.677 775,-124.677 775,-105.677 613,-105.677"/>
<text text-anchor="middle" x="694" y="-112.677" font-family="Helvetica,sans-Serif" font-size="10.00">sgl::GameObjects::Manager&lt; T &gt;</text>
</a>
</g>
</g>
<!-- Node10&#45;&gt;Node2 -->
<g id="edge10" class="edge"><title>Node10&#45;&gt;Node2</title>
<path fill="none" stroke="orange" stroke-dasharray="5,2" d="M785.072,-105.107C812.501,-102.04 842.192,-98.7205 867.956,-95.8401"/>
<polygon fill="orange" stroke="orange" points="784.63,-101.634 775.081,-106.224 785.408,-108.591 784.63,-101.634"/>
<text text-anchor="middle" x="821.5" y="-107.177" font-family="Helvetica,sans-Serif" font-size="10.00"> &lt; Trigger &gt;</text>
</g>
<!-- Node11&#45;&gt;Node10 -->
<g id="edge11" class="edge"><title>Node11&#45;&gt;Node10</title>
<path fill="none" stroke="#9a32cd" stroke-dasharray="5,2" d="M516.283,-126.338C545.694,-124.48 581.393,-122.226 612.984,-120.23"/>
<polygon fill="#9a32cd" stroke="#9a32cd" points="515.918,-122.854 506.158,-126.977 516.359,-129.84 515.918,-122.854"/>
<text text-anchor="middle" x="566.5" y="-128.177" font-family="Helvetica,sans-Serif" font-size="10.00"> m_container</text>
</g>
</g>
</svg>
        <g id="navigator" transform="translate(0 0)" fill="#404254">
                <rect fill="#f2f5e9" fill-opacity="0.5" stroke="#606060" stroke-width=".5" x="0" y="0" width="60" height="60"/>
                <use id="zoomplus" xlink:href="#zoomPlus" target="_top" x="17" y="9" onmousedown="handleZoom(evt,'in')"/>
                <use id="zoomminus" xlink:href="#zoomMin" target="_top" x="42" y="9" onmousedown="handleZoom(evt,'out')"/>
                <use id="reset" xlink:href="#resetDef" target="_top" x="30" y="36" onmousedown="handleReset()"/>
                <g id="arrowUp" xlink:href="#dirArrow" target="_top" transform="translate(30 24)" onmousedown="handlePan(0,-1)">
                  <use xlink:href="#rim" target="_top" fill="#404040">
                        <set attributeName="fill" to="#808080" begin="arrowUp.mouseover" end="arrowUp.mouseout"/>
                  </use>
                  <path fill="none" stroke="white" stroke-width="1.5" d="M0,-3.0v7 M-2.5,-0.5L0,-3.0L2.5,-0.5"/>
                </g>
                <g id="arrowRight" xlink:href="#dirArrow" target="_top" transform="rotate(90) translate(36 -43)" onmousedown="handlePan(1,0)">
                  <use xlink:href="#rim" target="_top" fill="#404040">
                        <set attributeName="fill" to="#808080" begin="arrowRight.mouseover" end="arrowRight.mouseout"/>
                  </use>
                  <path fill="none" stroke="white" stroke-width="1.5" d="M0,-3.0v7 M-2.5,-0.5L0,-3.0L2.5,-0.5"/>
                </g>
                <g id="arrowDown" xlink:href="#dirArrow" target="_top" transform="rotate(180) translate(-30 -48)" onmousedown="handlePan(0,1)">
                  <use xlink:href="#rim" target="_top" fill="#404040">
                        <set attributeName="fill" to="#808080" begin="arrowDown.mouseover" end="arrowDown.mouseout"/>
                  </use>
                  <path fill="none" stroke="white" stroke-width="1.5" d="M0,-3.0v7 M-2.5,-0.5L0,-3.0L2.5,-0.5"/>
                </g>
                <g id="arrowLeft" xlink:href="#dirArrow" target="_top" transform="rotate(270) translate(-36 17)" onmousedown="handlePan(-1,0)">
                  <use xlink:href="#rim" target="_top" fill="#404040">
                        <set attributeName="fill" to="#808080" begin="arrowLeft.mouseover" end="arrowLeft.mouseout"/>
                  </use>
                  <path fill="none" stroke="white" stroke-width="1.5" d="M0,-3.0v7 M-2.5,-0.5L0,-3.0L2.5,-0.5"/>
                </g>
        </g>
        <svg viewBox="0 0 15 15" width="100%" height="30px" preserveAspectRatio="xMaxYMin meet">
         <g id="arrow_out" transform="scale(0.3 0.3)">
          <a xlink:href="classsgl_1_1GameObjects_1_1TriggerManager__coll__graph_org.svg" target="_base">
           <rect id="button" ry="5" rx="5" y="6" x="6" height="38" width="38"
                fill="#f2f5e9" fill-opacity="0.5" stroke="#606060" stroke-width="1.0"/>
           <path id="arrow"
             d="M 11.500037,31.436501 C 11.940474,20.09759 22.043105,11.32322 32.158766,21.979434 L 37.068811,17.246167 C 37.068811,17.246167 37.088388,32 37.088388,32 L 22.160133,31.978069 C 22.160133,31.978069 26.997745,27.140456 26.997745,27.140456 C 18.528582,18.264221 13.291696,25.230495 11.500037,31.436501 z"
             style="fill:#404040;"/>
          </a>
         </g>
        </svg>
</svg>
