<?xml version="1.0" encoding="UTF-8" standalone="no"?>
<!DOCTYPE svg PUBLIC "-//W3C//DTD SVG 1.1//EN"
 "http://www.w3.org/Graphics/SVG/1.1/DTD/svg11.dtd">
<!-- Generated by graphviz version 2.49.0 (20210828.1703)
 -->
<!-- Title: C:/Users/folae/Documents/Code/Big&#45;Projects/ScriptWizards/SmallGameLibrary/source/Graphics/Animation.cpp Pages: 1 -->
<svg width="1410pt" height="173pt"
 viewBox="0.00 0.00 1410.00 173.00" xmlns="http://www.w3.org/2000/svg" xmlns:xlink="http://www.w3.org/1999/xlink">
<g id="graph0" class="graph" transform="scale(1 1) rotate(0) translate(4 169)">
<title>C:/Users/folae/Documents/Code/Big&#45;Projects/ScriptWizards/SmallGameLibrary/source/Graphics/Animation.cpp</title>
<polygon fill="white" stroke="transparent" points="-4,4 -4,-169 1406,-169 1406,4 -4,4"/>
<!-- Node1 -->
<g id="node1" class="node">
<title>Node1</title>
<g id="a_node1"><a xlink:title=" ">
<polygon fill="#bfbfbf" stroke="black" points="940.5,-112.5 940.5,-164.5 1114.5,-164.5 1114.5,-112.5 940.5,-112.5"/>
<text text-anchor="start" x="948.5" y="-152.5" font-family="Helvetica,sans-Serif" font-size="10.00">C:/Users/folae/Documents</text>
<text text-anchor="start" x="948.5" y="-141.5" font-family="Helvetica,sans-Serif" font-size="10.00">/Code/Big&#45;Projects/ScriptWizards</text>
<text text-anchor="start" x="948.5" y="-130.5" font-family="Helvetica,sans-Serif" font-size="10.00">/SmallGameLibrary/source/Graphics</text>
<text text-anchor="middle" x="1027.5" y="-119.5" font-family="Helvetica,sans-Serif" font-size="10.00">/Animation.cpp</text>
</a>
</g>
</g>
<!-- Node2 -->
<g id="node2" class="node">
<title>Node2</title>
<g id="a_node2"><a xlink:href="../../d0/d36/Animation_8hpp.html" target="_top" xlink:title="Handling animated sprites.">
<polygon fill="white" stroke="black" points="798,-56.5 798,-75.5 947,-75.5 947,-56.5 798,-56.5"/>
<text text-anchor="middle" x="872.5" y="-63.5" font-family="Helvetica,sans-Serif" font-size="10.00">Small/Graphics/Animation.hpp</text>
</a>
</g>
</g>
<!-- Node1&#45;&gt;Node2 -->
<g id="edge1" class="edge">
<title>Node1&#45;&gt;Node2</title>
<path fill="none" stroke="midnightblue" d="M972.42,-112.45C948.04,-101.36 920.42,-88.8 900.41,-79.7"/>
<polygon fill="midnightblue" stroke="midnightblue" points="901.8,-76.48 891.25,-75.53 898.9,-82.85 901.8,-76.48"/>
</g>
<!-- Node14 -->
<g id="node14" class="node">
<title>Node14</title>
<g id="a_node14"><a xlink:title=" ">
<polygon fill="white" stroke="#bfbfbf" points="965.5,-56.5 965.5,-75.5 1019.5,-75.5 1019.5,-56.5 965.5,-56.5"/>
<text text-anchor="middle" x="992.5" y="-63.5" font-family="Helvetica,sans-Serif" font-size="10.00">iostream</text>
</a>
</g>
</g>
<!-- Node1&#45;&gt;Node14 -->
<g id="edge13" class="edge">
<title>Node1&#45;&gt;Node14</title>
<path fill="none" stroke="midnightblue" d="M1015.06,-112.45C1010.54,-103.33 1005.52,-93.22 1001.36,-84.85"/>
<polygon fill="midnightblue" stroke="midnightblue" points="1004.4,-83.1 996.82,-75.7 998.13,-86.21 1004.4,-83.1"/>
</g>
<!-- Node15 -->
<g id="node15" class="node">
<title>Node15</title>
<g id="a_node15"><a xlink:title=" ">
<polygon fill="white" stroke="#bfbfbf" points="1037.5,-56.5 1037.5,-75.5 1089.5,-75.5 1089.5,-56.5 1037.5,-56.5"/>
<text text-anchor="middle" x="1063.5" y="-63.5" font-family="Helvetica,sans-Serif" font-size="10.00">sstream</text>
</a>
</g>
</g>
<!-- Node1&#45;&gt;Node15 -->
<g id="edge14" class="edge">
<title>Node1&#45;&gt;Node15</title>
<path fill="none" stroke="midnightblue" d="M1040.29,-112.45C1044.95,-103.33 1050.11,-93.22 1054.38,-84.85"/>
<polygon fill="midnightblue" stroke="midnightblue" points="1057.63,-86.19 1059.06,-75.7 1051.39,-83.01 1057.63,-86.19"/>
</g>
<!-- Node16 -->
<g id="node16" class="node">
<title>Node16</title>
<g id="a_node16"><a xlink:title=" ">
<polygon fill="white" stroke="#bfbfbf" points="1108,-56.5 1108,-75.5 1157,-75.5 1157,-56.5 1108,-56.5"/>
<text text-anchor="middle" x="1132.5" y="-63.5" font-family="Helvetica,sans-Serif" font-size="10.00">fstream</text>
</a>
</g>
</g>
<!-- Node1&#45;&gt;Node16 -->
<g id="edge15" class="edge">
<title>Node1&#45;&gt;Node16</title>
<path fill="none" stroke="midnightblue" d="M1064.81,-112.45C1080.33,-102.03 1097.79,-90.31 1111.08,-81.38"/>
<polygon fill="midnightblue" stroke="midnightblue" points="1113.2,-84.18 1119.55,-75.7 1109.3,-78.36 1113.2,-84.18"/>
</g>
<!-- Node3 -->
<g id="node3" class="node">
<title>Node3</title>
<g id="a_node3"><a xlink:title=" ">
<polygon fill="white" stroke="#bfbfbf" points="0,-0.5 0,-19.5 127,-19.5 127,-0.5 0,-0.5"/>
<text text-anchor="middle" x="63.5" y="-7.5" font-family="Helvetica,sans-Serif" font-size="10.00">SFML/Graphics/Rect.hpp</text>
</a>
</g>
</g>
<!-- Node2&#45;&gt;Node3 -->
<g id="edge2" class="edge">
<title>Node2&#45;&gt;Node3</title>
<path fill="none" stroke="midnightblue" d="M797.84,-62.01C666.44,-56.4 385.05,-42.84 137.36,-20.12"/>
<polygon fill="midnightblue" stroke="midnightblue" points="137.36,-16.6 127.08,-19.17 136.71,-23.57 137.36,-16.6"/>
</g>
<!-- Node4 -->
<g id="node4" class="node">
<title>Node4</title>
<g id="a_node4"><a xlink:title=" ">
<polygon fill="white" stroke="#bfbfbf" points="145,-0.5 145,-19.5 284,-19.5 284,-0.5 145,-0.5"/>
<text text-anchor="middle" x="214.5" y="-7.5" font-family="Helvetica,sans-Serif" font-size="10.00">SFML/Graphics/Texture.hpp</text>
</a>
</g>
</g>
<!-- Node2&#45;&gt;Node4 -->
<g id="edge3" class="edge">
<title>Node2&#45;&gt;Node4</title>
<path fill="none" stroke="midnightblue" d="M797.93,-60.06C689.54,-52.7 481.87,-37.86 294.32,-20.05"/>
<polygon fill="midnightblue" stroke="midnightblue" points="294.56,-16.55 284.27,-19.09 293.89,-23.52 294.56,-16.55"/>
</g>
<!-- Node5 -->
<g id="node5" class="node">
<title>Node5</title>
<g id="a_node5"><a xlink:title=" ">
<polygon fill="white" stroke="#bfbfbf" points="302.5,-0.5 302.5,-19.5 466.5,-19.5 466.5,-0.5 302.5,-0.5"/>
<text text-anchor="middle" x="384.5" y="-7.5" font-family="Helvetica,sans-Serif" font-size="10.00">SFML/Graphics/RenderTarget.hpp</text>
</a>
</g>
</g>
<!-- Node2&#45;&gt;Node5 -->
<g id="edge4" class="edge">
<title>Node2&#45;&gt;Node5</title>
<path fill="none" stroke="midnightblue" d="M797.85,-56.74C710.1,-47.03 564.67,-30.94 471.78,-20.66"/>
<polygon fill="midnightblue" stroke="midnightblue" points="471.88,-17.15 461.56,-19.53 471.11,-24.11 471.88,-17.15"/>
</g>
<!-- Node6 -->
<g id="node6" class="node">
<title>Node6</title>
<g id="a_node6"><a xlink:title=" ">
<polygon fill="white" stroke="#bfbfbf" points="484.5,-0.5 484.5,-19.5 606.5,-19.5 606.5,-0.5 484.5,-0.5"/>
<text text-anchor="middle" x="545.5" y="-7.5" font-family="Helvetica,sans-Serif" font-size="10.00">SFML/System/Time.hpp</text>
</a>
</g>
</g>
<!-- Node2&#45;&gt;Node6 -->
<g id="edge5" class="edge">
<title>Node2&#45;&gt;Node6</title>
<path fill="none" stroke="midnightblue" d="M820.69,-56.44C762.68,-46.87 668.76,-31.36 607.06,-21.17"/>
<polygon fill="midnightblue" stroke="midnightblue" points="607.51,-17.69 597.07,-19.52 606.37,-24.6 607.51,-17.69"/>
</g>
<!-- Node7 -->
<g id="node7" class="node">
<title>Node7</title>
<g id="a_node7"><a xlink:title=" ">
<polygon fill="white" stroke="#bfbfbf" points="624.5,-0.5 624.5,-19.5 770.5,-19.5 770.5,-0.5 624.5,-0.5"/>
<text text-anchor="middle" x="697.5" y="-7.5" font-family="Helvetica,sans-Serif" font-size="10.00">SFML/Graphics/Drawable.hpp</text>
</a>
</g>
</g>
<!-- Node2&#45;&gt;Node7 -->
<g id="edge6" class="edge">
<title>Node2&#45;&gt;Node7</title>
<path fill="none" stroke="midnightblue" d="M844.77,-56.44C815.07,-47.28 767.78,-32.69 734.83,-22.52"/>
<polygon fill="midnightblue" stroke="midnightblue" points="735.69,-19.12 725.1,-19.52 733.62,-25.81 735.69,-19.12"/>
</g>
<!-- Node8 -->
<g id="node8" class="node">
<title>Node8</title>
<g id="a_node8"><a xlink:title=" ">
<polygon fill="white" stroke="#bfbfbf" points="789,-0.5 789,-19.5 956,-19.5 956,-0.5 789,-0.5"/>
<text text-anchor="middle" x="872.5" y="-7.5" font-family="Helvetica,sans-Serif" font-size="10.00">SFML/Graphics/Transformable.hpp</text>
</a>
</g>
</g>
<!-- Node2&#45;&gt;Node8 -->
<g id="edge7" class="edge">
<title>Node2&#45;&gt;Node8</title>
<path fill="none" stroke="midnightblue" d="M872.5,-56.08C872.5,-49.01 872.5,-38.86 872.5,-29.99"/>
<polygon fill="midnightblue" stroke="midnightblue" points="876,-29.75 872.5,-19.75 869,-29.75 876,-29.75"/>
</g>
<!-- Node9 -->
<g id="node9" class="node">
<title>Node9</title>
<g id="a_node9"><a xlink:title=" ">
<polygon fill="white" stroke="#bfbfbf" points="974,-0.5 974,-19.5 1109,-19.5 1109,-0.5 974,-0.5"/>
<text text-anchor="middle" x="1041.5" y="-7.5" font-family="Helvetica,sans-Serif" font-size="10.00">SFML/System/Vector2.hpp</text>
</a>
</g>
</g>
<!-- Node2&#45;&gt;Node9 -->
<g id="edge8" class="edge">
<title>Node2&#45;&gt;Node9</title>
<path fill="none" stroke="midnightblue" d="M899.28,-56.44C927.83,-47.32 973.23,-32.81 1005.04,-22.65"/>
<polygon fill="midnightblue" stroke="midnightblue" points="1006.39,-25.89 1014.85,-19.52 1004.26,-19.23 1006.39,-25.89"/>
</g>
<!-- Node10 -->
<g id="node10" class="node">
<title>Node10</title>
<g id="a_node10"><a xlink:title=" ">
<polygon fill="white" stroke="#bfbfbf" points="1127.5,-0.5 1127.5,-19.5 1169.5,-19.5 1169.5,-0.5 1127.5,-0.5"/>
<text text-anchor="middle" x="1148.5" y="-7.5" font-family="Helvetica,sans-Serif" font-size="10.00">vector</text>
</a>
</g>
</g>
<!-- Node2&#45;&gt;Node10 -->
<g id="edge9" class="edge">
<title>Node2&#45;&gt;Node10</title>
<path fill="none" stroke="midnightblue" d="M929.05,-56.48C976.9,-48.86 1047.44,-36.65 1117.41,-20.06"/>
<polygon fill="midnightblue" stroke="midnightblue" points="1118.37,-23.42 1127.27,-17.68 1116.73,-16.62 1118.37,-23.42"/>
</g>
<!-- Node11 -->
<g id="node11" class="node">
<title>Node11</title>
<g id="a_node11"><a xlink:title=" ">
<polygon fill="white" stroke="#bfbfbf" points="1187.5,-0.5 1187.5,-19.5 1241.5,-19.5 1241.5,-0.5 1187.5,-0.5"/>
<text text-anchor="middle" x="1214.5" y="-7.5" font-family="Helvetica,sans-Serif" font-size="10.00">toml.hpp</text>
</a>
</g>
</g>
<!-- Node2&#45;&gt;Node11 -->
<g id="edge10" class="edge">
<title>Node2&#45;&gt;Node11</title>
<path fill="none" stroke="midnightblue" d="M944.26,-56.49C1004.18,-48.91 1092.02,-36.72 1177.56,-20.02"/>
<polygon fill="midnightblue" stroke="midnightblue" points="1178.31,-23.44 1187.44,-18.07 1176.95,-16.57 1178.31,-23.44"/>
</g>
<!-- Node12 -->
<g id="node12" class="node">
<title>Node12</title>
<g id="a_node12"><a xlink:title=" ">
<polygon fill="white" stroke="#bfbfbf" points="1260,-0.5 1260,-19.5 1301,-19.5 1301,-0.5 1260,-0.5"/>
<text text-anchor="middle" x="1280.5" y="-7.5" font-family="Helvetica,sans-Serif" font-size="10.00">string</text>
</a>
</g>
</g>
<!-- Node2&#45;&gt;Node12 -->
<g id="edge11" class="edge">
<title>Node2&#45;&gt;Node12</title>
<path fill="none" stroke="midnightblue" d="M947.09,-56.82C1041.61,-46.36 1197.63,-28.72 1249.95,-19.59"/>
<polygon fill="midnightblue" stroke="midnightblue" points="1250.8,-22.99 1259.96,-17.67 1249.48,-16.12 1250.8,-22.99"/>
</g>
<!-- Node13 -->
<g id="node13" class="node">
<title>Node13</title>
<g id="a_node13"><a xlink:title=" ">
<polygon fill="white" stroke="#bfbfbf" points="1319,-0.5 1319,-19.5 1402,-19.5 1402,-0.5 1319,-0.5"/>
<text text-anchor="middle" x="1360.5" y="-7.5" font-family="Helvetica,sans-Serif" font-size="10.00">unordered_map</text>
</a>
</g>
</g>
<!-- Node2&#45;&gt;Node13 -->
<g id="edge12" class="edge">
<title>Node2&#45;&gt;Node13</title>
<path fill="none" stroke="midnightblue" d="M947.15,-56.98C950.31,-56.65 953.44,-56.32 956.5,-56 1110.56,-39.91 1152.2,-41.93 1308.81,-20.15"/>
<polygon fill="midnightblue" stroke="midnightblue" points="1309.38,-23.61 1318.8,-18.75 1308.41,-16.68 1309.38,-23.61"/>
</g>
</g>
</svg>
