<?xml version="1.0" encoding="UTF-8" standalone="no"?>
<!DOCTYPE svg PUBLIC "-//W3C//DTD SVG 1.1//EN"
 "http://www.w3.org/Graphics/SVG/1.1/DTD/svg11.dtd">
<!-- Generated by graphviz version 2.38.0 (20140413.2041)
 -->
<!-- Title: sgl::Application Pages: 1 -->
<svg width="1491pt" height="320pt"
 viewBox="0.00 0.00 1491.00 320.00" xmlns="http://www.w3.org/2000/svg" xmlns:xlink="http://www.w3.org/1999/xlink">
<g id="graph0" class="graph" transform="scale(1 1) rotate(0) translate(4 316)">
<title>sgl::Application</title>
<polygon fill="white" stroke="none" points="-4,4 -4,-316 1487,-316 1487,4 -4,4"/>
<!-- Node1 -->
<g id="node1" class="node"><title>Node1</title>
<polygon fill="#bfbfbf" stroke="black" points="1382,-222.5 1382,-241.5 1465,-241.5 1465,-222.5 1382,-222.5"/>
<text text-anchor="middle" x="1423.5" y="-229.5" font-family="Helvetica,sans-Serif" font-size="10.00">sgl::Application</text>
</g>
<!-- Node2 -->
<g id="node2" class="node"><title>Node2</title>
<g id="a_node2"><a xlink:href="../../de/dd2/classsgl_1_1SceneManager.html" target="_top" xlink:title="Scene manager, in charge of creating, handling and destroying scenes. ">
<polygon fill="white" stroke="black" points="656,-131.5 656,-150.5 757,-150.5 757,-131.5 656,-131.5"/>
<text text-anchor="middle" x="706.5" y="-138.5" font-family="Helvetica,sans-Serif" font-size="10.00">sgl::SceneManager</text>
</a>
</g>
</g>
<!-- Node2&#45;&gt;Node1 -->
<g id="edge1" class="edge"><title>Node2&#45;&gt;Node1</title>
<path fill="none" stroke="#9a32cd" stroke-dasharray="5,2" d="M767.307,-148.874C770.246,-149.256 773.156,-149.633 776,-150 1004.9,-179.554 1279.53,-214.077 1381.65,-226.883"/>
<polygon fill="#9a32cd" stroke="#9a32cd" points="767.625,-145.386 757.256,-147.564 766.72,-152.327 767.625,-145.386"/>
<text text-anchor="middle" x="1081" y="-198" font-family="Helvetica,sans-Serif" font-size="10.00"> m_sceneManager</text>
</g>
<!-- Node9 -->
<g id="node9" class="node"><title>Node9</title>
<g id="a_node9"><a xlink:href="../../d8/dcf/classsgl_1_1Scene.html" target="_top" xlink:title="Base class which every user scene must derive from. ">
<polygon fill="white" stroke="black" points="918,-76.5 918,-95.5 981,-95.5 981,-76.5 918,-76.5"/>
<text text-anchor="middle" x="949.5" y="-83.5" font-family="Helvetica,sans-Serif" font-size="10.00">sgl::Scene</text>
</a>
</g>
</g>
<!-- Node2&#45;&gt;Node9 -->
<g id="edge13" class="edge"><title>Node2&#45;&gt;Node9</title>
<path fill="none" stroke="#9a32cd" stroke-dasharray="5,2" d="M741.254,-127.975C752.222,-124.067 764.524,-120.021 776,-117 824.993,-104.103 883.226,-94.8688 917.955,-89.9886"/>
<polygon fill="#9a32cd" stroke="#9a32cd" points="739.812,-124.775 731.619,-131.492 742.213,-131.351 739.812,-124.775"/>
<text text-anchor="middle" x="817.5" y="-120" font-family="Helvetica,sans-Serif" font-size="10.00"> m_sceneManager</text>
</g>
<!-- Node3 -->
<g id="node3" class="node"><title>Node3</title>
<polygon fill="white" stroke="#bfbfbf" points="382.5,-120.5 382.5,-161.5 485.5,-161.5 485.5,-120.5 382.5,-120.5"/>
<text text-anchor="start" x="390.5" y="-149.5" font-family="Helvetica,sans-Serif" font-size="10.00">std::unordered_map</text>
<text text-anchor="start" x="390.5" y="-138.5" font-family="Helvetica,sans-Serif" font-size="10.00">&lt; std::size_t, std::</text>
<text text-anchor="middle" x="434" y="-127.5" font-family="Helvetica,sans-Serif" font-size="10.00">size_t &gt;</text>
</g>
<!-- Node3&#45;&gt;Node2 -->
<g id="edge2" class="edge"><title>Node3&#45;&gt;Node2</title>
<path fill="none" stroke="#9a32cd" stroke-dasharray="5,2" d="M495.861,-141C544.063,-141 610.562,-141 655.644,-141"/>
<polygon fill="#9a32cd" stroke="#9a32cd" points="495.562,-137.5 485.562,-141 495.562,-144.5 495.562,-137.5"/>
<text text-anchor="middle" x="584" y="-144" font-family="Helvetica,sans-Serif" font-size="10.00"> m_hashCodeToSceneId</text>
</g>
<!-- Node4 -->
<g id="node4" class="node"><title>Node4</title>
<g id="a_node4"><a xlink:title="STL class. ">
<polygon fill="white" stroke="#bfbfbf" points="108,-105 108,-135 211,-135 211,-105 108,-105"/>
<text text-anchor="start" x="116" y="-123" font-family="Helvetica,sans-Serif" font-size="10.00">std::unordered_map</text>
<text text-anchor="middle" x="159.5" y="-112" font-family="Helvetica,sans-Serif" font-size="10.00">&lt; K, T &gt;</text>
</a>
</g>
</g>
<!-- Node4&#45;&gt;Node3 -->
<g id="edge3" class="edge"><title>Node4&#45;&gt;Node3</title>
<path fill="none" stroke="orange" stroke-dasharray="5,2" d="M221.471,-119.676C255.531,-120.01 298.704,-121.284 337,-125 351.799,-126.436 367.768,-128.776 382.353,-131.228"/>
<polygon fill="orange" stroke="orange" points="221.234,-116.175 211.208,-119.601 221.182,-123.174 221.234,-116.175"/>
<text text-anchor="start" x="244" y="-139" font-family="Helvetica,sans-Serif" font-size="10.00"> &lt; std::size_t, std</text>
<text text-anchor="middle" x="283" y="-128" font-family="Helvetica,sans-Serif" font-size="10.00">::size_t &gt;</text>
</g>
<!-- Node5 -->
<g id="node5" class="node"><title>Node5</title>
<polygon fill="white" stroke="#bfbfbf" points="0,-161.5 0,-180.5 29,-180.5 29,-161.5 0,-161.5"/>
<text text-anchor="middle" x="14.5" y="-168.5" font-family="Helvetica,sans-Serif" font-size="10.00">K</text>
</g>
<!-- Node5&#45;&gt;Node4 -->
<g id="edge4" class="edge"><title>Node5&#45;&gt;Node4</title>
<path fill="none" stroke="#9a32cd" stroke-dasharray="5,2" d="M38.9491,-164.81C53.7305,-160.728 73.1418,-155.036 90,-149 101.551,-144.865 113.962,-139.805 125.004,-135.076"/>
<polygon fill="#9a32cd" stroke="#9a32cd" points="37.842,-161.484 29.1069,-167.48 39.6744,-168.24 37.842,-161.484"/>
<text text-anchor="middle" x="68.5" y="-166" font-family="Helvetica,sans-Serif" font-size="10.00"> keys</text>
</g>
<!-- Node6 -->
<g id="node6" class="node"><title>Node6</title>
<polygon fill="white" stroke="#bfbfbf" points="0,-76.5 0,-95.5 29,-95.5 29,-76.5 0,-76.5"/>
<text text-anchor="middle" x="14.5" y="-83.5" font-family="Helvetica,sans-Serif" font-size="10.00">T</text>
</g>
<!-- Node6&#45;&gt;Node4 -->
<g id="edge5" class="edge"><title>Node6&#45;&gt;Node4</title>
<path fill="none" stroke="#9a32cd" stroke-dasharray="5,2" d="M39.1861,-91.6317C57.8466,-96.0684 84.5282,-102.412 107.929,-107.976"/>
<polygon fill="#9a32cd" stroke="#9a32cd" points="39.7499,-88.1682 29.2114,-89.2601 38.1306,-94.9784 39.7499,-88.1682"/>
<text text-anchor="middle" x="68.5" y="-106" font-family="Helvetica,sans-Serif" font-size="10.00"> elements</text>
</g>
<!-- Node12 -->
<g id="node12" class="node"><title>Node12</title>
<g id="a_node12"><a xlink:title="STL class. ">
<polygon fill="white" stroke="#bfbfbf" points="117,-59.5 117,-78.5 202,-78.5 202,-59.5 117,-59.5"/>
<text text-anchor="middle" x="159.5" y="-66.5" font-family="Helvetica,sans-Serif" font-size="10.00">std::vector&lt; T &gt;</text>
</a>
</g>
</g>
<!-- Node6&#45;&gt;Node12 -->
<g id="edge12" class="edge"><title>Node6&#45;&gt;Node12</title>
<path fill="none" stroke="#9a32cd" stroke-dasharray="5,2" d="M38.2965,-72.9142C41.1543,-71.7286 44.0951,-70.7093 47,-70 69.6612,-64.4671 95.6931,-63.9213 116.902,-64.8937"/>
<polygon fill="#9a32cd" stroke="#9a32cd" points="36.5509,-69.8706 29.0736,-77.3766 39.5997,-76.1718 36.5509,-69.8706"/>
<text text-anchor="middle" x="68.5" y="-73" font-family="Helvetica,sans-Serif" font-size="10.00"> elements</text>
</g>
<!-- Node13 -->
<g id="node13" class="node"><title>Node13</title>
<g id="a_node13"><a xlink:title="STL class. ">
<polygon fill="white" stroke="#bfbfbf" points="231,-0.5 231,-19.5 335,-19.5 335,-0.5 231,-0.5"/>
<text text-anchor="middle" x="283" y="-7.5" font-family="Helvetica,sans-Serif" font-size="10.00">std::unique_ptr&lt; T &gt;</text>
</a>
</g>
</g>
<!-- Node6&#45;&gt;Node13 -->
<g id="edge15" class="edge"><title>Node6&#45;&gt;Node13</title>
<path fill="none" stroke="#9a32cd" stroke-dasharray="5,2" d="M27.3773,-67.8101C32.6133,-61.1945 39.3274,-54.2946 47,-50 104.239,-17.9615 180.684,-10.2622 230.611,-9.04491"/>
<polygon fill="#9a32cd" stroke="#9a32cd" points="24.2064,-66.224 21.2021,-76.384 29.8865,-70.315 24.2064,-66.224"/>
<text text-anchor="middle" x="68.5" y="-53" font-family="Helvetica,sans-Serif" font-size="10.00"> ptr</text>
</g>
<!-- Node22 -->
<g id="node22" class="node"><title>Node22</title>
<g id="a_node22"><a xlink:title="STL class. ">
<polygon fill="white" stroke="#bfbfbf" points="119,-203.5 119,-222.5 200,-222.5 200,-203.5 119,-203.5"/>
<text text-anchor="middle" x="159.5" y="-210.5" font-family="Helvetica,sans-Serif" font-size="10.00">std::array&lt; T &gt;</text>
</a>
</g>
</g>
<!-- Node6&#45;&gt;Node22 -->
<g id="edge26" class="edge"><title>Node6&#45;&gt;Node22</title>
<path fill="none" stroke="#9a32cd" stroke-dasharray="5,2" d="M31.7655,-102.634C36.4531,-106.955 41.7306,-111.401 47,-115 64.5632,-126.995 76.1174,-119.887 90,-136 107.341,-156.126 89.8953,-173.558 108,-193 112.049,-197.348 117.163,-200.767 122.573,-203.451"/>
<polygon fill="#9a32cd" stroke="#9a32cd" points="34.1631,-100.084 24.5391,-95.6537 29.2996,-105.119 34.1631,-100.084"/>
<text text-anchor="middle" x="68.5" y="-139" font-family="Helvetica,sans-Serif" font-size="10.00"> elements</text>
</g>
<!-- Node7 -->
<g id="node7" class="node"><title>Node7</title>
<polygon fill="white" stroke="#bfbfbf" points="1364,-71 1364,-101 1483,-101 1483,-71 1364,-71"/>
<text text-anchor="start" x="1372" y="-89" font-family="Helvetica,sans-Serif" font-size="10.00">std::vector&lt; std::unique</text>
<text text-anchor="middle" x="1423.5" y="-78" font-family="Helvetica,sans-Serif" font-size="10.00">_ptr&lt; sgl::Scene &gt; &gt;</text>
</g>
<!-- Node7&#45;&gt;Node2 -->
<g id="edge6" class="edge"><title>Node7&#45;&gt;Node2</title>
<path fill="none" stroke="#9a32cd" stroke-dasharray="5,2" d="M1353.67,-99.84C1351.08,-100.251 1348.52,-100.639 1346,-101 1302.26,-107.259 1291.06,-106.732 1247,-110 1066.66,-123.375 852.043,-134.183 757,-138.707"/>
<polygon fill="#9a32cd" stroke="#9a32cd" points="1354.43,-103.262 1363.71,-98.1604 1353.27,-96.3576 1354.43,-103.262"/>
<text text-anchor="middle" x="1081" y="-127" font-family="Helvetica,sans-Serif" font-size="10.00"> m_scenes</text>
</g>
<!-- Node8 -->
<g id="node8" class="node"><title>Node8</title>
<polygon fill="white" stroke="#bfbfbf" points="1142,-71 1142,-101 1245,-101 1245,-71 1142,-71"/>
<text text-anchor="start" x="1150" y="-89" font-family="Helvetica,sans-Serif" font-size="10.00">std::unique_ptr&lt; sgl</text>
<text text-anchor="middle" x="1193.5" y="-78" font-family="Helvetica,sans-Serif" font-size="10.00">::Scene &gt;</text>
</g>
<!-- Node8&#45;&gt;Node7 -->
<g id="edge7" class="edge"><title>Node8&#45;&gt;Node7</title>
<path fill="none" stroke="#9a32cd" stroke-dasharray="5,2" d="M1255.28,-86C1288.98,-86 1330.66,-86 1363.99,-86"/>
<polygon fill="#9a32cd" stroke="#9a32cd" points="1255.1,-82.5001 1245.1,-86 1255.1,-89.5001 1255.1,-82.5001"/>
<text text-anchor="middle" x="1305.5" y="-89" font-family="Helvetica,sans-Serif" font-size="10.00"> elements</text>
</g>
<!-- Node9&#45;&gt;Node8 -->
<g id="edge8" class="edge"><title>Node9&#45;&gt;Node8</title>
<path fill="none" stroke="#9a32cd" stroke-dasharray="5,2" d="M991.176,-86C1032.66,-86 1097.12,-86 1141.88,-86"/>
<polygon fill="#9a32cd" stroke="#9a32cd" points="991.15,-82.5001 981.149,-86 991.149,-89.5001 991.15,-82.5001"/>
<text text-anchor="middle" x="1081" y="-89" font-family="Helvetica,sans-Serif" font-size="10.00"> ptr</text>
</g>
<!-- Node10 -->
<g id="node10" class="node"><title>Node10</title>
<g id="a_node10"><a xlink:href="../../dc/dee/classsgl_1_1Graphics_1_1Node.html" target="_top" xlink:title="Abstract base class for a scene graph node. ">
<polygon fill="white" stroke="black" points="655,-74.5 655,-93.5 758,-93.5 758,-74.5 655,-74.5"/>
<text text-anchor="middle" x="706.5" y="-81.5" font-family="Helvetica,sans-Serif" font-size="10.00">sgl::Graphics::Node</text>
</a>
</g>
</g>
<!-- Node10&#45;&gt;Node9 -->
<g id="edge9" class="edge"><title>Node10&#45;&gt;Node9</title>
<path fill="none" stroke="midnightblue" d="M768.233,-84.504C815.93,-84.8998 880.355,-85.4345 917.868,-85.7458"/>
<polygon fill="midnightblue" stroke="midnightblue" points="768.05,-81.0025 758.021,-84.4193 767.992,-88.0022 768.05,-81.0025"/>
</g>
<!-- Node11 -->
<g id="node11" class="node"><title>Node11</title>
<polygon fill="white" stroke="#bfbfbf" points="361,-71 361,-101 507,-101 507,-71 361,-71"/>
<text text-anchor="start" x="369" y="-89" font-family="Helvetica,sans-Serif" font-size="10.00">std::vector&lt; std::shared</text>
<text text-anchor="middle" x="434" y="-78" font-family="Helvetica,sans-Serif" font-size="10.00">_ptr&lt; sgl::Graphics::Node &gt; &gt;</text>
</g>
<!-- Node11&#45;&gt;Node10 -->
<g id="edge10" class="edge"><title>Node11&#45;&gt;Node10</title>
<path fill="none" stroke="#9a32cd" stroke-dasharray="5,2" d="M517.152,-85.3926C562.058,-85.0606 616.247,-84.6599 654.949,-84.3738"/>
<polygon fill="#9a32cd" stroke="#9a32cd" points="517.108,-81.8927 507.134,-85.4667 517.159,-88.8925 517.108,-81.8927"/>
<text text-anchor="middle" x="584" y="-89" font-family="Helvetica,sans-Serif" font-size="10.00"> m_children</text>
</g>
<!-- Node12&#45;&gt;Node7 -->
<g id="edge16" class="edge"><title>Node12&#45;&gt;Node7</title>
<path fill="none" stroke="orange" stroke-dasharray="5,2" d="M212.532,-60.7606C267.257,-52.8196 355.958,-42 433,-42 433,-42 433,-42 1194.5,-42 1257.19,-42 1327.84,-58.2343 1373.66,-70.9808"/>
<polygon fill="orange" stroke="orange" points="211.769,-57.3351 202.386,-62.2564 212.79,-64.2603 211.769,-57.3351"/>
<text text-anchor="start" x="776" y="-56" font-family="Helvetica,sans-Serif" font-size="10.00"> &lt; std::unique_ptr&lt;</text>
<text text-anchor="middle" x="817.5" y="-45" font-family="Helvetica,sans-Serif" font-size="10.00"> sgl::Scene &gt; &gt;</text>
</g>
<!-- Node12&#45;&gt;Node11 -->
<g id="edge11" class="edge"><title>Node12&#45;&gt;Node11</title>
<path fill="none" stroke="orange" stroke-dasharray="5,2" d="M212.275,-71.7123C247.458,-73.6098 295.047,-76.2822 337,-79 344.754,-79.5023 352.859,-80.0532 360.931,-80.6182"/>
<polygon fill="orange" stroke="orange" points="212.409,-68.2146 202.236,-71.1738 212.034,-75.2046 212.409,-68.2146"/>
<text text-anchor="start" x="229" y="-93" font-family="Helvetica,sans-Serif" font-size="10.00"> &lt; std::shared_ptr&lt;</text>
<text text-anchor="middle" x="283" y="-82" font-family="Helvetica,sans-Serif" font-size="10.00"> sgl::Graphics::Node &gt; &gt;</text>
</g>
<!-- Node13&#45;&gt;Node8 -->
<g id="edge14" class="edge"><title>Node13&#45;&gt;Node8</title>
<path fill="none" stroke="orange" stroke-dasharray="5,2" d="M345.176,-7.73025C405.602,-5.68593 500.661,-3 583,-3 583,-3 583,-3 950.5,-3 1033.34,-3 1123.92,-47.051 1166.99,-70.9693"/>
<polygon fill="orange" stroke="orange" points="344.92,-4.23689 335.046,-8.07796 345.16,-11.2328 344.92,-4.23689"/>
<text text-anchor="middle" x="706.5" y="-6" font-family="Helvetica,sans-Serif" font-size="10.00"> &lt; sgl::Scene &gt;</text>
</g>
<!-- Node14 -->
<g id="node14" class="node"><title>Node14</title>
<g id="a_node14"><a xlink:href="../../d3/dcc/structsgl_1_1Scripting_1_1Config.html" target="_top" xlink:title="Host the scripting engine configuration. ">
<polygon fill="white" stroke="black" points="1140,-263.5 1140,-282.5 1247,-282.5 1247,-263.5 1140,-263.5"/>
<text text-anchor="middle" x="1193.5" y="-270.5" font-family="Helvetica,sans-Serif" font-size="10.00">sgl::Scripting::Config</text>
</a>
</g>
</g>
<!-- Node14&#45;&gt;Node1 -->
<g id="edge17" class="edge"><title>Node14&#45;&gt;Node1</title>
<path fill="none" stroke="#9a32cd" stroke-dasharray="5,2" d="M1257.33,-262.56C1284.61,-257.939 1316.91,-252.348 1346,-247 1357.58,-244.871 1370.13,-242.457 1381.64,-240.197"/>
<polygon fill="#9a32cd" stroke="#9a32cd" points="1256.42,-259.164 1247.14,-264.281 1257.58,-266.067 1256.42,-259.164"/>
<text text-anchor="middle" x="1305.5" y="-264" font-family="Helvetica,sans-Serif" font-size="10.00"> m_scriptingConfig</text>
</g>
<!-- Node15 -->
<g id="node15" class="node"><title>Node15</title>
<g id="a_node15"><a xlink:title="STL class. ">
<polygon fill="white" stroke="#bfbfbf" points="919.5,-272.5 919.5,-291.5 979.5,-291.5 979.5,-272.5 919.5,-272.5"/>
<text text-anchor="middle" x="949.5" y="-279.5" font-family="Helvetica,sans-Serif" font-size="10.00">std::string</text>
</a>
</g>
</g>
<!-- Node15&#45;&gt;Node14 -->
<g id="edge18" class="edge"><title>Node15&#45;&gt;Node14</title>
<path fill="none" stroke="#9a32cd" stroke-dasharray="5,2" d="M989.788,-280.539C1030.59,-279.022 1094.65,-276.639 1139.82,-274.959"/>
<polygon fill="#9a32cd" stroke="#9a32cd" points="989.554,-277.045 979.691,-280.914 989.814,-284.04 989.554,-277.045"/>
<text text-anchor="middle" x="1081" y="-304" font-family="Helvetica,sans-Serif" font-size="10.00"> arkscriptLibDir</text>
<text text-anchor="middle" x="1081" y="-293" font-family="Helvetica,sans-Serif" font-size="10.00">compiledScriptsDir</text>
<text text-anchor="middle" x="1081" y="-282" font-family="Helvetica,sans-Serif" font-size="10.00">scriptsDirectory</text>
</g>
<!-- Node16 -->
<g id="node16" class="node"><title>Node16</title>
<g id="a_node16"><a xlink:title="STL class. ">
<polygon fill="white" stroke="#bfbfbf" points="659,-269 659,-299 754,-299 754,-269 659,-269"/>
<text text-anchor="start" x="667" y="-287" font-family="Helvetica,sans-Serif" font-size="10.00">std::basic_string&lt;</text>
<text text-anchor="middle" x="706.5" y="-276" font-family="Helvetica,sans-Serif" font-size="10.00"> char &gt;</text>
</a>
</g>
</g>
<!-- Node16&#45;&gt;Node15 -->
<g id="edge19" class="edge"><title>Node16&#45;&gt;Node15</title>
<path fill="none" stroke="midnightblue" d="M764.318,-283.528C812.952,-283.125 881.004,-282.56 919.307,-282.242"/>
<polygon fill="midnightblue" stroke="midnightblue" points="764.224,-280.029 754.253,-283.612 764.282,-287.029 764.224,-280.029"/>
</g>
<!-- Node17 -->
<g id="node17" class="node"><title>Node17</title>
<g id="a_node17"><a xlink:href="../../d6/d13/classsgl_1_1internal_1_1Profiler.html" target="_top" xlink:title="Profiler used to display the time spent in each section of the application. ">
<polygon fill="white" stroke="black" points="1142,-222.5 1142,-241.5 1245,-241.5 1245,-222.5 1142,-222.5"/>
<text text-anchor="middle" x="1193.5" y="-229.5" font-family="Helvetica,sans-Serif" font-size="10.00">sgl::internal::Profiler</text>
</a>
</g>
</g>
<!-- Node17&#45;&gt;Node1 -->
<g id="edge20" class="edge"><title>Node17&#45;&gt;Node1</title>
<path fill="none" stroke="#9a32cd" stroke-dasharray="5,2" d="M1255.29,-232C1295.36,-232 1346.75,-232 1381.91,-232"/>
<polygon fill="#9a32cd" stroke="#9a32cd" points="1255.1,-228.5 1245.1,-232 1255.1,-235.5 1255.1,-228.5"/>
<text text-anchor="middle" x="1305.5" y="-235" font-family="Helvetica,sans-Serif" font-size="10.00"> m_profiler</text>
</g>
<!-- Node18 -->
<g id="node18" class="node"><title>Node18</title>
<polygon fill="white" stroke="#bfbfbf" points="877,-217 877,-247 1022,-247 1022,-217 877,-217"/>
<text text-anchor="start" x="885" y="-235" font-family="Helvetica,sans-Serif" font-size="10.00">std::array&lt; sgl::internal</text>
<text text-anchor="middle" x="949.5" y="-224" font-family="Helvetica,sans-Serif" font-size="10.00">::Profiler::Entry, _bufferSize &gt;</text>
</g>
<!-- Node18&#45;&gt;Node17 -->
<g id="edge21" class="edge"><title>Node18&#45;&gt;Node17</title>
<path fill="none" stroke="#9a32cd" stroke-dasharray="5,2" d="M1032.21,-232C1068.5,-232 1110.08,-232 1141.79,-232"/>
<polygon fill="#9a32cd" stroke="#9a32cd" points="1032.13,-228.5 1022.13,-232 1032.13,-235.5 1032.13,-228.5"/>
<text text-anchor="middle" x="1081" y="-235" font-family="Helvetica,sans-Serif" font-size="10.00"> _entries</text>
</g>
<!-- Node19 -->
<g id="node19" class="node"><title>Node19</title>
<g id="a_node19"><a xlink:href="../../de/d66/structsgl_1_1internal_1_1Profiler_1_1Entry.html" target="_top" xlink:title="sgl::internal::Profiler\l::Entry">
<polygon fill="white" stroke="black" points="655,-181 655,-211 758,-211 758,-181 655,-181"/>
<text text-anchor="start" x="663" y="-199" font-family="Helvetica,sans-Serif" font-size="10.00">sgl::internal::Profiler</text>
<text text-anchor="middle" x="706.5" y="-188" font-family="Helvetica,sans-Serif" font-size="10.00">::Entry</text>
</a>
</g>
</g>
<!-- Node19&#45;&gt;Node18 -->
<g id="edge22" class="edge"><title>Node19&#45;&gt;Node18</title>
<path fill="none" stroke="#9a32cd" stroke-dasharray="5,2" d="M768.074,-202.712C795.841,-206.016 829.149,-210.298 859,-215 864.781,-215.911 870.76,-216.913 876.76,-217.962"/>
<polygon fill="#9a32cd" stroke="#9a32cd" points="768.453,-199.233 758.112,-201.54 767.635,-206.185 768.453,-199.233"/>
<text text-anchor="middle" x="817.5" y="-218" font-family="Helvetica,sans-Serif" font-size="10.00"> elements</text>
</g>
<!-- Node20 -->
<g id="node20" class="node"><title>Node20</title>
<polygon fill="white" stroke="#bfbfbf" points="355,-181 355,-211 513,-211 513,-181 355,-181"/>
<text text-anchor="start" x="363" y="-199" font-family="Helvetica,sans-Serif" font-size="10.00">std::array&lt; sgl::internal</text>
<text text-anchor="middle" x="434" y="-188" font-family="Helvetica,sans-Serif" font-size="10.00">::Profiler::Scope, _StageCount &gt;</text>
</g>
<!-- Node20&#45;&gt;Node19 -->
<g id="edge23" class="edge"><title>Node20&#45;&gt;Node19</title>
<path fill="none" stroke="#9a32cd" stroke-dasharray="5,2" d="M523.273,-196C566.828,-196 617.806,-196 654.75,-196"/>
<polygon fill="#9a32cd" stroke="#9a32cd" points="523.24,-192.5 513.24,-196 523.24,-199.5 523.24,-192.5"/>
<text text-anchor="middle" x="584" y="-199" font-family="Helvetica,sans-Serif" font-size="10.00"> _stages</text>
</g>
<!-- Node21 -->
<g id="node21" class="node"><title>Node21</title>
<g id="a_node21"><a xlink:href="../../d2/d0d/structsgl_1_1internal_1_1Profiler_1_1Scope.html" target="_top" xlink:title="sgl::internal::Profiler\l::Scope">
<polygon fill="white" stroke="black" points="108,-154 108,-184 211,-184 211,-154 108,-154"/>
<text text-anchor="start" x="116" y="-172" font-family="Helvetica,sans-Serif" font-size="10.00">sgl::internal::Profiler</text>
<text text-anchor="middle" x="159.5" y="-161" font-family="Helvetica,sans-Serif" font-size="10.00">::Scope</text>
</a>
</g>
</g>
<!-- Node21&#45;&gt;Node20 -->
<g id="edge24" class="edge"><title>Node21&#45;&gt;Node20</title>
<path fill="none" stroke="#9a32cd" stroke-dasharray="5,2" d="M221.399,-173.578C255.437,-176.287 298.611,-179.971 337,-184 342.847,-184.614 348.889,-185.284 354.964,-185.983"/>
<polygon fill="#9a32cd" stroke="#9a32cd" points="221.388,-170.067 211.144,-172.77 220.838,-177.045 221.388,-170.067"/>
<text text-anchor="middle" x="283" y="-187" font-family="Helvetica,sans-Serif" font-size="10.00"> elements</text>
</g>
<!-- Node22&#45;&gt;Node18 -->
<g id="edge27" class="edge"><title>Node22&#45;&gt;Node18</title>
<path fill="none" stroke="orange" stroke-dasharray="5,2" d="M210.038,-223.485C216.395,-224.511 222.834,-225.394 229,-226 465.206,-249.209 747.125,-241.272 876.789,-235.637"/>
<polygon fill="orange" stroke="orange" points="210.62,-220.034 200.169,-221.776 209.425,-226.931 210.62,-220.034"/>
<text text-anchor="start" x="534.5" y="-256" font-family="Helvetica,sans-Serif" font-size="10.00"> &lt; sgl::internal::Profiler</text>
<text text-anchor="middle" x="584" y="-245" font-family="Helvetica,sans-Serif" font-size="10.00">::Entry, _bufferSize &gt;</text>
</g>
<!-- Node22&#45;&gt;Node20 -->
<g id="edge25" class="edge"><title>Node22&#45;&gt;Node20</title>
<path fill="none" stroke="orange" stroke-dasharray="5,2" d="M210.585,-205.883C216.778,-205.161 223.028,-204.508 229,-204 270.497,-200.468 316.877,-198.493 354.915,-197.389"/>
<polygon fill="orange" stroke="orange" points="209.776,-202.456 200.277,-207.148 210.629,-209.403 209.776,-202.456"/>
<text text-anchor="start" x="230" y="-218" font-family="Helvetica,sans-Serif" font-size="10.00"> &lt; sgl::internal::Profiler</text>
<text text-anchor="middle" x="283" y="-207" font-family="Helvetica,sans-Serif" font-size="10.00">::Scope, _StageCount &gt;</text>
</g>
</g>
</svg>
