<?xml version="1.0" encoding="UTF-8" standalone="no"?>
<!DOCTYPE svg PUBLIC "-//W3C//DTD SVG 1.1//EN"
 "http://www.w3.org/Graphics/SVG/1.1/DTD/svg11.dtd">
<!-- Generated by graphviz version 2.38.0 (20140413.2041)
 -->
<!-- Title: sgl::Application Pages: 1 -->
<svg width="1491pt" height="315pt"
 viewBox="0.00 0.00 1491.00 315.00" xmlns="http://www.w3.org/2000/svg" xmlns:xlink="http://www.w3.org/1999/xlink">
<g id="graph0" class="graph" transform="scale(1 1) rotate(0) translate(4 311)">
<title>sgl::Application</title>
<polygon fill="white" stroke="none" points="-4,4 -4,-311 1487,-311 1487,4 -4,4"/>
<!-- Node1 -->
<g id="node1" class="node"><title>Node1</title>
<polygon fill="#bfbfbf" stroke="black" points="1382,-217.5 1382,-236.5 1465,-236.5 1465,-217.5 1382,-217.5"/>
<text text-anchor="middle" x="1423.5" y="-224.5" font-family="Helvetica,sans-Serif" font-size="10.00">sgl::Application</text>
</g>
<!-- Node2 -->
<g id="node2" class="node"><title>Node2</title>
<g id="a_node2"><a xlink:href="../../de/dd2/classsgl_1_1SceneManager.html" target="_top" xlink:title="Scene manager, in charge of creating, handling and destroying scenes. ">
<polygon fill="white" stroke="black" points="656,-128.5 656,-147.5 757,-147.5 757,-128.5 656,-128.5"/>
<text text-anchor="middle" x="706.5" y="-135.5" font-family="Helvetica,sans-Serif" font-size="10.00">sgl::SceneManager</text>
</a>
</g>
</g>
<!-- Node2&#45;&gt;Node1 -->
<g id="edge1" class="edge"><title>Node2&#45;&gt;Node1</title>
<path fill="none" stroke="#9a32cd" stroke-dasharray="5,2" d="M767.298,-146.813C770.239,-147.221 773.152,-147.618 776,-148 1004.91,-178.69 1280.09,-210.697 1381.99,-222.383"/>
<polygon fill="#9a32cd" stroke="#9a32cd" points="767.63,-143.326 757.24,-145.401 766.656,-150.258 767.63,-143.326"/>
<text text-anchor="middle" x="1081" y="-195" font-family="Helvetica,sans-Serif" font-size="10.00"> m_sceneManager</text>
</g>
<!-- Node9 -->
<g id="node9" class="node"><title>Node9</title>
<g id="a_node9"><a xlink:href="../../d8/dcf/classsgl_1_1Scene.html" target="_top" xlink:title="Base class which every user scene must derive from. ">
<polygon fill="white" stroke="black" points="918,-76.5 918,-95.5 981,-95.5 981,-76.5 918,-76.5"/>
<text text-anchor="middle" x="949.5" y="-83.5" font-family="Helvetica,sans-Serif" font-size="10.00">sgl::Scene</text>
</a>
</g>
</g>
<!-- Node2&#45;&gt;Node9 -->
<g id="edge13" class="edge"><title>Node2&#45;&gt;Node9</title>
<path fill="none" stroke="#9a32cd" stroke-dasharray="5,2" d="M739.765,-124.759C751.074,-120.511 763.96,-116.108 776,-113 824.869,-100.386 883.139,-92.759 917.909,-88.9676"/>
<polygon fill="#9a32cd" stroke="#9a32cd" points="738.362,-121.548 730.293,-128.414 740.882,-128.079 738.362,-121.548"/>
<text text-anchor="middle" x="817.5" y="-116" font-family="Helvetica,sans-Serif" font-size="10.00"> m_sceneManager</text>
</g>
<!-- Node3 -->
<g id="node3" class="node"><title>Node3</title>
<polygon fill="white" stroke="#bfbfbf" points="382.5,-121 382.5,-151 485.5,-151 485.5,-121 382.5,-121"/>
<text text-anchor="start" x="390.5" y="-139" font-family="Helvetica,sans-Serif" font-size="10.00">std::unordered_map</text>
<text text-anchor="middle" x="434" y="-128" font-family="Helvetica,sans-Serif" font-size="10.00">&lt; std::size_t, int &gt;</text>
</g>
<!-- Node3&#45;&gt;Node2 -->
<g id="edge2" class="edge"><title>Node3&#45;&gt;Node2</title>
<path fill="none" stroke="#9a32cd" stroke-dasharray="5,2" d="M495.861,-136.45C544.063,-136.806 610.562,-137.298 655.644,-137.631"/>
<polygon fill="#9a32cd" stroke="#9a32cd" points="495.587,-132.948 485.562,-136.374 495.535,-139.948 495.587,-132.948"/>
<text text-anchor="middle" x="584" y="-141" font-family="Helvetica,sans-Serif" font-size="10.00"> m_hashCodeToSceneId</text>
</g>
<!-- Node4 -->
<g id="node4" class="node"><title>Node4</title>
<g id="a_node4"><a xlink:title="STL class. ">
<polygon fill="white" stroke="#bfbfbf" points="108,-100 108,-130 211,-130 211,-100 108,-100"/>
<text text-anchor="start" x="116" y="-118" font-family="Helvetica,sans-Serif" font-size="10.00">std::unordered_map</text>
<text text-anchor="middle" x="159.5" y="-107" font-family="Helvetica,sans-Serif" font-size="10.00">&lt; K, T &gt;</text>
</a>
</g>
</g>
<!-- Node4&#45;&gt;Node3 -->
<g id="edge3" class="edge"><title>Node4&#45;&gt;Node3</title>
<path fill="none" stroke="orange" stroke-dasharray="5,2" d="M221.148,-119.674C269.552,-123.404 336.582,-128.57 382.193,-132.085"/>
<polygon fill="orange" stroke="orange" points="221.356,-116.18 211.117,-118.901 220.818,-123.159 221.356,-116.18"/>
<text text-anchor="middle" x="283" y="-131" font-family="Helvetica,sans-Serif" font-size="10.00"> &lt; std::size_t, int &gt;</text>
</g>
<!-- Node5 -->
<g id="node5" class="node"><title>Node5</title>
<polygon fill="white" stroke="#bfbfbf" points="0,-157.5 0,-176.5 29,-176.5 29,-157.5 0,-157.5"/>
<text text-anchor="middle" x="14.5" y="-164.5" font-family="Helvetica,sans-Serif" font-size="10.00">K</text>
</g>
<!-- Node5&#45;&gt;Node4 -->
<g id="edge4" class="edge"><title>Node5&#45;&gt;Node4</title>
<path fill="none" stroke="#9a32cd" stroke-dasharray="5,2" d="M38.9751,-160.883C53.7666,-156.828 73.1793,-151.139 90,-145 102.074,-140.593 115.054,-135.108 126.433,-130.038"/>
<polygon fill="#9a32cd" stroke="#9a32cd" points="37.8741,-157.554 29.1246,-163.529 39.6902,-164.314 37.8741,-157.554"/>
<text text-anchor="middle" x="68.5" y="-162" font-family="Helvetica,sans-Serif" font-size="10.00"> keys</text>
</g>
<!-- Node6 -->
<g id="node6" class="node"><title>Node6</title>
<polygon fill="white" stroke="#bfbfbf" points="0,-72.5 0,-91.5 29,-91.5 29,-72.5 0,-72.5"/>
<text text-anchor="middle" x="14.5" y="-79.5" font-family="Helvetica,sans-Serif" font-size="10.00">T</text>
</g>
<!-- Node6&#45;&gt;Node4 -->
<g id="edge5" class="edge"><title>Node6&#45;&gt;Node4</title>
<path fill="none" stroke="#9a32cd" stroke-dasharray="5,2" d="M39.1861,-87.466C57.8466,-91.7723 84.5282,-97.9296 107.929,-103.33"/>
<polygon fill="#9a32cd" stroke="#9a32cd" points="39.7424,-84.0025 29.2114,-85.1642 38.1683,-90.8232 39.7424,-84.0025"/>
<text text-anchor="middle" x="68.5" y="-102" font-family="Helvetica,sans-Serif" font-size="10.00"> elements</text>
</g>
<!-- Node12 -->
<g id="node12" class="node"><title>Node12</title>
<g id="a_node12"><a xlink:title="STL class. ">
<polygon fill="white" stroke="#bfbfbf" points="117,-55.5 117,-74.5 202,-74.5 202,-55.5 117,-55.5"/>
<text text-anchor="middle" x="159.5" y="-62.5" font-family="Helvetica,sans-Serif" font-size="10.00">std::vector&lt; T &gt;</text>
</a>
</g>
</g>
<!-- Node6&#45;&gt;Node12 -->
<g id="edge12" class="edge"><title>Node6&#45;&gt;Node12</title>
<path fill="none" stroke="#9a32cd" stroke-dasharray="5,2" d="M38.2965,-68.9142C41.1543,-67.7286 44.0951,-66.7093 47,-66 69.6612,-60.4671 95.6931,-59.9213 116.902,-60.8937"/>
<polygon fill="#9a32cd" stroke="#9a32cd" points="36.5509,-65.8706 29.0736,-73.3766 39.5997,-72.1718 36.5509,-65.8706"/>
<text text-anchor="middle" x="68.5" y="-69" font-family="Helvetica,sans-Serif" font-size="10.00"> elements</text>
</g>
<!-- Node13 -->
<g id="node13" class="node"><title>Node13</title>
<g id="a_node13"><a xlink:title="STL class. ">
<polygon fill="white" stroke="#bfbfbf" points="231,-0.5 231,-19.5 335,-19.5 335,-0.5 231,-0.5"/>
<text text-anchor="middle" x="283" y="-7.5" font-family="Helvetica,sans-Serif" font-size="10.00">std::unique_ptr&lt; T &gt;</text>
</a>
</g>
</g>
<!-- Node6&#45;&gt;Node13 -->
<g id="edge15" class="edge"><title>Node6&#45;&gt;Node13</title>
<path fill="none" stroke="#9a32cd" stroke-dasharray="5,2" d="M26.9864,-64.1956C32.2669,-57.4342 39.1169,-50.3269 47,-46 104.349,-14.5218 180.768,-8.22242 230.658,-7.99007"/>
<polygon fill="#9a32cd" stroke="#9a32cd" points="24.135,-62.166 21.1776,-72.3398 29.8339,-66.2308 24.135,-62.166"/>
<text text-anchor="middle" x="68.5" y="-49" font-family="Helvetica,sans-Serif" font-size="10.00"> ptr</text>
</g>
<!-- Node22 -->
<g id="node22" class="node"><title>Node22</title>
<g id="a_node22"><a xlink:title="STL class. ">
<polygon fill="white" stroke="#bfbfbf" points="119,-198.5 119,-217.5 200,-217.5 200,-198.5 119,-198.5"/>
<text text-anchor="middle" x="159.5" y="-205.5" font-family="Helvetica,sans-Serif" font-size="10.00">std::array&lt; T &gt;</text>
</a>
</g>
</g>
<!-- Node6&#45;&gt;Node22 -->
<g id="edge26" class="edge"><title>Node6&#45;&gt;Node22</title>
<path fill="none" stroke="#9a32cd" stroke-dasharray="5,2" d="M31.7655,-98.6345C36.4531,-102.955 41.7306,-107.401 47,-111 64.5632,-122.995 76.0762,-115.923 90,-132 107.115,-151.762 90.1349,-168.913 108,-188 112.06,-192.337 117.18,-195.751 122.592,-198.433"/>
<polygon fill="#9a32cd" stroke="#9a32cd" points="34.1631,-96.0842 24.5391,-91.6537 29.2996,-101.119 34.1631,-96.0842"/>
<text text-anchor="middle" x="68.5" y="-135" font-family="Helvetica,sans-Serif" font-size="10.00"> elements</text>
</g>
<!-- Node7 -->
<g id="node7" class="node"><title>Node7</title>
<polygon fill="white" stroke="#bfbfbf" points="1364,-71 1364,-101 1483,-101 1483,-71 1364,-71"/>
<text text-anchor="start" x="1372" y="-89" font-family="Helvetica,sans-Serif" font-size="10.00">std::vector&lt; std::unique</text>
<text text-anchor="middle" x="1423.5" y="-78" font-family="Helvetica,sans-Serif" font-size="10.00">_ptr&lt; sgl::Scene &gt; &gt;</text>
</g>
<!-- Node7&#45;&gt;Node2 -->
<g id="edge6" class="edge"><title>Node7&#45;&gt;Node2</title>
<path fill="none" stroke="#9a32cd" stroke-dasharray="5,2" d="M1353.67,-99.84C1351.08,-100.251 1348.52,-100.639 1346,-101 1302.26,-107.259 1291.07,-106.854 1247,-110 1066.68,-122.871 852.052,-132.233 757.003,-136.074"/>
<polygon fill="#9a32cd" stroke="#9a32cd" points="1354.43,-103.262 1363.71,-98.1604 1353.27,-96.3576 1354.43,-103.262"/>
<text text-anchor="middle" x="1081" y="-126" font-family="Helvetica,sans-Serif" font-size="10.00"> m_scenes</text>
</g>
<!-- Node8 -->
<g id="node8" class="node"><title>Node8</title>
<polygon fill="white" stroke="#bfbfbf" points="1142,-71 1142,-101 1245,-101 1245,-71 1142,-71"/>
<text text-anchor="start" x="1150" y="-89" font-family="Helvetica,sans-Serif" font-size="10.00">std::unique_ptr&lt; sgl</text>
<text text-anchor="middle" x="1193.5" y="-78" font-family="Helvetica,sans-Serif" font-size="10.00">::Scene &gt;</text>
</g>
<!-- Node8&#45;&gt;Node7 -->
<g id="edge7" class="edge"><title>Node8&#45;&gt;Node7</title>
<path fill="none" stroke="#9a32cd" stroke-dasharray="5,2" d="M1255.28,-86C1288.98,-86 1330.66,-86 1363.99,-86"/>
<polygon fill="#9a32cd" stroke="#9a32cd" points="1255.1,-82.5001 1245.1,-86 1255.1,-89.5001 1255.1,-82.5001"/>
<text text-anchor="middle" x="1305.5" y="-89" font-family="Helvetica,sans-Serif" font-size="10.00"> elements</text>
</g>
<!-- Node9&#45;&gt;Node8 -->
<g id="edge8" class="edge"><title>Node9&#45;&gt;Node8</title>
<path fill="none" stroke="#9a32cd" stroke-dasharray="5,2" d="M991.176,-86C1032.66,-86 1097.12,-86 1141.88,-86"/>
<polygon fill="#9a32cd" stroke="#9a32cd" points="991.15,-82.5001 981.149,-86 991.149,-89.5001 991.15,-82.5001"/>
<text text-anchor="middle" x="1081" y="-89" font-family="Helvetica,sans-Serif" font-size="10.00"> ptr</text>
</g>
<!-- Node10 -->
<g id="node10" class="node"><title>Node10</title>
<g id="a_node10"><a xlink:href="../../dc/dee/classsgl_1_1Graphics_1_1Node.html" target="_top" xlink:title="Abstract base class for a scene graph node. ">
<polygon fill="white" stroke="black" points="655,-72.5 655,-91.5 758,-91.5 758,-72.5 655,-72.5"/>
<text text-anchor="middle" x="706.5" y="-79.5" font-family="Helvetica,sans-Serif" font-size="10.00">sgl::Graphics::Node</text>
</a>
</g>
</g>
<!-- Node10&#45;&gt;Node9 -->
<g id="edge9" class="edge"><title>Node10&#45;&gt;Node9</title>
<path fill="none" stroke="midnightblue" d="M768.233,-83.008C815.93,-83.7997 880.355,-84.869 917.868,-85.4916"/>
<polygon fill="midnightblue" stroke="midnightblue" points="768.078,-79.5051 758.021,-82.8385 767.962,-86.5041 768.078,-79.5051"/>
</g>
<!-- Node11 -->
<g id="node11" class="node"><title>Node11</title>
<polygon fill="white" stroke="#bfbfbf" points="361,-71 361,-101 507,-101 507,-71 361,-71"/>
<text text-anchor="start" x="369" y="-89" font-family="Helvetica,sans-Serif" font-size="10.00">std::vector&lt; std::shared</text>
<text text-anchor="middle" x="434" y="-78" font-family="Helvetica,sans-Serif" font-size="10.00">_ptr&lt; sgl::Graphics::Node &gt; &gt;</text>
</g>
<!-- Node11&#45;&gt;Node10 -->
<g id="edge10" class="edge"><title>Node11&#45;&gt;Node10</title>
<path fill="none" stroke="#9a32cd" stroke-dasharray="5,2" d="M517.152,-84.7852C562.058,-84.1211 616.247,-83.3198 654.949,-82.7475"/>
<polygon fill="#9a32cd" stroke="#9a32cd" points="517.081,-81.2858 507.134,-84.9333 517.184,-88.285 517.081,-81.2858"/>
<text text-anchor="middle" x="584" y="-88" font-family="Helvetica,sans-Serif" font-size="10.00"> m_children</text>
</g>
<!-- Node12&#45;&gt;Node7 -->
<g id="edge16" class="edge"><title>Node12&#45;&gt;Node7</title>
<path fill="none" stroke="orange" stroke-dasharray="5,2" d="M212.573,-57.9812C267.333,-51.2167 356.06,-42 433,-42 433,-42 433,-42 1194.5,-42 1257.19,-42 1327.84,-58.2343 1373.66,-70.9808"/>
<polygon fill="orange" stroke="orange" points="211.908,-54.5373 202.421,-59.2555 212.779,-61.4828 211.908,-54.5373"/>
<text text-anchor="start" x="776" y="-56" font-family="Helvetica,sans-Serif" font-size="10.00"> &lt; std::unique_ptr&lt;</text>
<text text-anchor="middle" x="817.5" y="-45" font-family="Helvetica,sans-Serif" font-size="10.00"> sgl::Scene &gt; &gt;</text>
</g>
<!-- Node12&#45;&gt;Node11 -->
<g id="edge11" class="edge"><title>Node12&#45;&gt;Node11</title>
<path fill="none" stroke="orange" stroke-dasharray="5,2" d="M212.205,-68.9846C254.254,-72.2251 314.067,-76.8345 360.835,-80.4387"/>
<polygon fill="orange" stroke="orange" points="212.423,-65.4911 202.184,-68.2123 211.885,-72.4704 212.423,-65.4911"/>
<text text-anchor="start" x="229" y="-92" font-family="Helvetica,sans-Serif" font-size="10.00"> &lt; std::shared_ptr&lt;</text>
<text text-anchor="middle" x="283" y="-81" font-family="Helvetica,sans-Serif" font-size="10.00"> sgl::Graphics::Node &gt; &gt;</text>
</g>
<!-- Node13&#45;&gt;Node8 -->
<g id="edge14" class="edge"><title>Node13&#45;&gt;Node8</title>
<path fill="none" stroke="orange" stroke-dasharray="5,2" d="M345.176,-7.73025C405.602,-5.68593 500.661,-3 583,-3 583,-3 583,-3 950.5,-3 1033.34,-3 1123.92,-47.051 1166.99,-70.9693"/>
<polygon fill="orange" stroke="orange" points="344.92,-4.23689 335.046,-8.07796 345.16,-11.2328 344.92,-4.23689"/>
<text text-anchor="middle" x="706.5" y="-6" font-family="Helvetica,sans-Serif" font-size="10.00"> &lt; sgl::Scene &gt;</text>
</g>
<!-- Node14 -->
<g id="node14" class="node"><title>Node14</title>
<g id="a_node14"><a xlink:href="../../d3/dcc/structsgl_1_1Scripting_1_1Config.html" target="_top" xlink:title="Host the scripting engine configuration. ">
<polygon fill="white" stroke="black" points="1140,-258.5 1140,-277.5 1247,-277.5 1247,-258.5 1140,-258.5"/>
<text text-anchor="middle" x="1193.5" y="-265.5" font-family="Helvetica,sans-Serif" font-size="10.00">sgl::Scripting::Config</text>
</a>
</g>
</g>
<!-- Node14&#45;&gt;Node1 -->
<g id="edge17" class="edge"><title>Node14&#45;&gt;Node1</title>
<path fill="none" stroke="#9a32cd" stroke-dasharray="5,2" d="M1257.33,-257.56C1284.61,-252.939 1316.91,-247.348 1346,-242 1357.58,-239.871 1370.13,-237.457 1381.64,-235.197"/>
<polygon fill="#9a32cd" stroke="#9a32cd" points="1256.42,-254.164 1247.14,-259.281 1257.58,-261.067 1256.42,-254.164"/>
<text text-anchor="middle" x="1305.5" y="-259" font-family="Helvetica,sans-Serif" font-size="10.00"> m_scriptingConfig</text>
</g>
<!-- Node15 -->
<g id="node15" class="node"><title>Node15</title>
<g id="a_node15"><a xlink:title="STL class. ">
<polygon fill="white" stroke="#bfbfbf" points="919.5,-267.5 919.5,-286.5 979.5,-286.5 979.5,-267.5 919.5,-267.5"/>
<text text-anchor="middle" x="949.5" y="-274.5" font-family="Helvetica,sans-Serif" font-size="10.00">std::string</text>
</a>
</g>
</g>
<!-- Node15&#45;&gt;Node14 -->
<g id="edge18" class="edge"><title>Node15&#45;&gt;Node14</title>
<path fill="none" stroke="#9a32cd" stroke-dasharray="5,2" d="M989.788,-275.539C1030.59,-274.022 1094.65,-271.639 1139.82,-269.959"/>
<polygon fill="#9a32cd" stroke="#9a32cd" points="989.554,-272.045 979.691,-275.914 989.814,-279.04 989.554,-272.045"/>
<text text-anchor="middle" x="1081" y="-299" font-family="Helvetica,sans-Serif" font-size="10.00"> arkscriptLibDir</text>
<text text-anchor="middle" x="1081" y="-288" font-family="Helvetica,sans-Serif" font-size="10.00">compiledScriptsDir</text>
<text text-anchor="middle" x="1081" y="-277" font-family="Helvetica,sans-Serif" font-size="10.00">scriptsDirectory</text>
</g>
<!-- Node16 -->
<g id="node16" class="node"><title>Node16</title>
<g id="a_node16"><a xlink:title="STL class. ">
<polygon fill="white" stroke="#bfbfbf" points="659,-264 659,-294 754,-294 754,-264 659,-264"/>
<text text-anchor="start" x="667" y="-282" font-family="Helvetica,sans-Serif" font-size="10.00">std::basic_string&lt;</text>
<text text-anchor="middle" x="706.5" y="-271" font-family="Helvetica,sans-Serif" font-size="10.00"> char &gt;</text>
</a>
</g>
</g>
<!-- Node16&#45;&gt;Node15 -->
<g id="edge19" class="edge"><title>Node16&#45;&gt;Node15</title>
<path fill="none" stroke="midnightblue" d="M764.318,-278.528C812.952,-278.125 881.004,-277.56 919.307,-277.242"/>
<polygon fill="midnightblue" stroke="midnightblue" points="764.224,-275.029 754.253,-278.612 764.282,-282.029 764.224,-275.029"/>
</g>
<!-- Node17 -->
<g id="node17" class="node"><title>Node17</title>
<g id="a_node17"><a xlink:href="../../d6/d13/classsgl_1_1internal_1_1Profiler.html" target="_top" xlink:title="Profiler used to display the time spent in each section of the application. ">
<polygon fill="white" stroke="black" points="1142,-217.5 1142,-236.5 1245,-236.5 1245,-217.5 1142,-217.5"/>
<text text-anchor="middle" x="1193.5" y="-224.5" font-family="Helvetica,sans-Serif" font-size="10.00">sgl::internal::Profiler</text>
</a>
</g>
</g>
<!-- Node17&#45;&gt;Node1 -->
<g id="edge20" class="edge"><title>Node17&#45;&gt;Node1</title>
<path fill="none" stroke="#9a32cd" stroke-dasharray="5,2" d="M1255.29,-227C1295.36,-227 1346.75,-227 1381.91,-227"/>
<polygon fill="#9a32cd" stroke="#9a32cd" points="1255.1,-223.5 1245.1,-227 1255.1,-230.5 1255.1,-223.5"/>
<text text-anchor="middle" x="1305.5" y="-230" font-family="Helvetica,sans-Serif" font-size="10.00"> m_profiler</text>
</g>
<!-- Node18 -->
<g id="node18" class="node"><title>Node18</title>
<polygon fill="white" stroke="#bfbfbf" points="877,-212 877,-242 1022,-242 1022,-212 877,-212"/>
<text text-anchor="start" x="885" y="-230" font-family="Helvetica,sans-Serif" font-size="10.00">std::array&lt; sgl::internal</text>
<text text-anchor="middle" x="949.5" y="-219" font-family="Helvetica,sans-Serif" font-size="10.00">::Profiler::Entry, _bufferSize &gt;</text>
</g>
<!-- Node18&#45;&gt;Node17 -->
<g id="edge21" class="edge"><title>Node18&#45;&gt;Node17</title>
<path fill="none" stroke="#9a32cd" stroke-dasharray="5,2" d="M1032.21,-227C1068.5,-227 1110.08,-227 1141.79,-227"/>
<polygon fill="#9a32cd" stroke="#9a32cd" points="1032.13,-223.5 1022.13,-227 1032.13,-230.5 1032.13,-223.5"/>
<text text-anchor="middle" x="1081" y="-230" font-family="Helvetica,sans-Serif" font-size="10.00"> _entries</text>
</g>
<!-- Node19 -->
<g id="node19" class="node"><title>Node19</title>
<g id="a_node19"><a xlink:href="../../de/d66/structsgl_1_1internal_1_1Profiler_1_1Entry.html" target="_top" xlink:title="sgl::internal::Profiler\l::Entry">
<polygon fill="white" stroke="black" points="655,-176 655,-206 758,-206 758,-176 655,-176"/>
<text text-anchor="start" x="663" y="-194" font-family="Helvetica,sans-Serif" font-size="10.00">sgl::internal::Profiler</text>
<text text-anchor="middle" x="706.5" y="-183" font-family="Helvetica,sans-Serif" font-size="10.00">::Entry</text>
</a>
</g>
</g>
<!-- Node19&#45;&gt;Node18 -->
<g id="edge22" class="edge"><title>Node19&#45;&gt;Node18</title>
<path fill="none" stroke="#9a32cd" stroke-dasharray="5,2" d="M768.074,-197.712C795.841,-201.016 829.149,-205.298 859,-210 864.781,-210.911 870.76,-211.913 876.76,-212.962"/>
<polygon fill="#9a32cd" stroke="#9a32cd" points="768.453,-194.233 758.112,-196.54 767.635,-201.185 768.453,-194.233"/>
<text text-anchor="middle" x="817.5" y="-213" font-family="Helvetica,sans-Serif" font-size="10.00"> elements</text>
</g>
<!-- Node20 -->
<g id="node20" class="node"><title>Node20</title>
<polygon fill="white" stroke="#bfbfbf" points="355,-176 355,-206 513,-206 513,-176 355,-176"/>
<text text-anchor="start" x="363" y="-194" font-family="Helvetica,sans-Serif" font-size="10.00">std::array&lt; sgl::internal</text>
<text text-anchor="middle" x="434" y="-183" font-family="Helvetica,sans-Serif" font-size="10.00">::Profiler::Scope, _StageCount &gt;</text>
</g>
<!-- Node20&#45;&gt;Node19 -->
<g id="edge23" class="edge"><title>Node20&#45;&gt;Node19</title>
<path fill="none" stroke="#9a32cd" stroke-dasharray="5,2" d="M523.273,-191C566.828,-191 617.806,-191 654.75,-191"/>
<polygon fill="#9a32cd" stroke="#9a32cd" points="523.24,-187.5 513.24,-191 523.24,-194.5 523.24,-187.5"/>
<text text-anchor="middle" x="584" y="-194" font-family="Helvetica,sans-Serif" font-size="10.00"> _stages</text>
</g>
<!-- Node21 -->
<g id="node21" class="node"><title>Node21</title>
<g id="a_node21"><a xlink:href="../../d2/d0d/structsgl_1_1internal_1_1Profiler_1_1Scope.html" target="_top" xlink:title="sgl::internal::Profiler\l::Scope">
<polygon fill="white" stroke="black" points="108,-149 108,-179 211,-179 211,-149 108,-149"/>
<text text-anchor="start" x="116" y="-167" font-family="Helvetica,sans-Serif" font-size="10.00">sgl::internal::Profiler</text>
<text text-anchor="middle" x="159.5" y="-156" font-family="Helvetica,sans-Serif" font-size="10.00">::Scope</text>
</a>
</g>
</g>
<!-- Node21&#45;&gt;Node20 -->
<g id="edge24" class="edge"><title>Node21&#45;&gt;Node20</title>
<path fill="none" stroke="#9a32cd" stroke-dasharray="5,2" d="M221.399,-168.578C255.437,-171.287 298.611,-174.971 337,-179 342.847,-179.614 348.889,-180.284 354.964,-180.983"/>
<polygon fill="#9a32cd" stroke="#9a32cd" points="221.388,-165.067 211.144,-167.77 220.838,-172.045 221.388,-165.067"/>
<text text-anchor="middle" x="283" y="-182" font-family="Helvetica,sans-Serif" font-size="10.00"> elements</text>
</g>
<!-- Node22&#45;&gt;Node18 -->
<g id="edge27" class="edge"><title>Node22&#45;&gt;Node18</title>
<path fill="none" stroke="orange" stroke-dasharray="5,2" d="M210.038,-218.485C216.395,-219.511 222.834,-220.394 229,-221 465.206,-244.209 747.125,-236.272 876.789,-230.637"/>
<polygon fill="orange" stroke="orange" points="210.62,-215.034 200.169,-216.776 209.425,-221.931 210.62,-215.034"/>
<text text-anchor="start" x="534.5" y="-251" font-family="Helvetica,sans-Serif" font-size="10.00"> &lt; sgl::internal::Profiler</text>
<text text-anchor="middle" x="584" y="-240" font-family="Helvetica,sans-Serif" font-size="10.00">::Entry, _bufferSize &gt;</text>
</g>
<!-- Node22&#45;&gt;Node20 -->
<g id="edge25" class="edge"><title>Node22&#45;&gt;Node20</title>
<path fill="none" stroke="orange" stroke-dasharray="5,2" d="M210.585,-200.883C216.778,-200.161 223.028,-199.508 229,-199 270.497,-195.468 316.877,-193.493 354.915,-192.389"/>
<polygon fill="orange" stroke="orange" points="209.776,-197.456 200.277,-202.148 210.629,-204.403 209.776,-197.456"/>
<text text-anchor="start" x="230" y="-213" font-family="Helvetica,sans-Serif" font-size="10.00"> &lt; sgl::internal::Profiler</text>
<text text-anchor="middle" x="283" y="-202" font-family="Helvetica,sans-Serif" font-size="10.00">::Scope, _StageCount &gt;</text>
</g>
</g>
</svg>
