<?xml version="1.0" encoding="UTF-8" standalone="no"?>
<!DOCTYPE svg PUBLIC "-//W3C//DTD SVG 1.1//EN"
 "http://www.w3.org/Graphics/SVG/1.1/DTD/svg11.dtd">
<!-- Generated by graphviz version 2.38.0 (20140413.2041)
 -->
<!-- Title: sgl::Application Pages: 1 -->
<svg width="1484pt" height="322pt"
 viewBox="0.00 0.00 1484.00 322.00" xmlns="http://www.w3.org/2000/svg" xmlns:xlink="http://www.w3.org/1999/xlink">
<g id="graph0" class="graph" transform="scale(1 1) rotate(0) translate(4 318)">
<title>sgl::Application</title>
<polygon fill="white" stroke="none" points="-4,4 -4,-318 1480,-318 1480,4 -4,4"/>
<!-- Node1 -->
<g id="node1" class="node"><title>Node1</title>
<polygon fill="#bfbfbf" stroke="black" points="1375,-226.5 1375,-245.5 1458,-245.5 1458,-226.5 1375,-226.5"/>
<text text-anchor="middle" x="1416.5" y="-233.5" font-family="Helvetica,sans-Serif" font-size="10.00">sgl::Application</text>
</g>
<!-- Node2 -->
<g id="node2" class="node"><title>Node2</title>
<g id="a_node2"><a xlink:href="../../de/dd2/classsgl_1_1SceneManager.html" target="_top" xlink:title="Scene manager, in charge of creating, handling and destroying scenes. ">
<polygon fill="white" stroke="black" points="649,-137.5 649,-156.5 750,-156.5 750,-137.5 649,-137.5"/>
<text text-anchor="middle" x="699.5" y="-144.5" font-family="Helvetica,sans-Serif" font-size="10.00">sgl::SceneManager</text>
</a>
</g>
</g>
<!-- Node2&#45;&gt;Node1 -->
<g id="edge1" class="edge"><title>Node2&#45;&gt;Node1</title>
<path fill="none" stroke="#9a32cd" stroke-dasharray="5,2" d="M760.443,-154.461C902.123,-172.097 1254.75,-215.991 1374.76,-230.929"/>
<polygon fill="#9a32cd" stroke="#9a32cd" points="760.566,-150.95 750.21,-153.188 759.701,-157.896 760.566,-150.95"/>
<text text-anchor="middle" x="1074" y="-201" font-family="Helvetica,sans-Serif" font-size="10.00"> m_sceneManager</text>
</g>
<!-- Node5 -->
<g id="node5" class="node"><title>Node5</title>
<g id="a_node5"><a xlink:href="../../d8/dcf/classsgl_1_1Scene.html" target="_top" xlink:title="Base class which every user scene must derive from. ">
<polygon fill="white" stroke="black" points="911,-40.5 911,-59.5 974,-59.5 974,-40.5 911,-40.5"/>
<text text-anchor="middle" x="942.5" y="-47.5" font-family="Helvetica,sans-Serif" font-size="10.00">sgl::Scene</text>
</a>
</g>
</g>
<!-- Node2&#45;&gt;Node5 -->
<g id="edge9" class="edge"><title>Node2&#45;&gt;Node5</title>
<path fill="none" stroke="#9a32cd" stroke-dasharray="5,2" d="M734.073,-133.487C783.451,-113.613 874.462,-76.982 917.608,-59.6163"/>
<polygon fill="#9a32cd" stroke="#9a32cd" points="732.459,-130.364 724.489,-137.345 735.073,-136.858 732.459,-130.364"/>
<text text-anchor="middle" x="810.5" y="-122" font-family="Helvetica,sans-Serif" font-size="10.00"> m_sceneManager</text>
</g>
<!-- Node3 -->
<g id="node3" class="node"><title>Node3</title>
<polygon fill="white" stroke="#bfbfbf" points="1357,-57 1357,-87 1476,-87 1476,-57 1357,-57"/>
<text text-anchor="start" x="1365" y="-75" font-family="Helvetica,sans-Serif" font-size="10.00">std::vector&lt; std::unique</text>
<text text-anchor="middle" x="1416.5" y="-64" font-family="Helvetica,sans-Serif" font-size="10.00">_ptr&lt; sgl::Scene &gt; &gt;</text>
</g>
<!-- Node3&#45;&gt;Node2 -->
<g id="edge2" class="edge"><title>Node3&#45;&gt;Node2</title>
<path fill="none" stroke="#9a32cd" stroke-dasharray="5,2" d="M1346.67,-85.8286C1344.08,-86.2424 1341.52,-86.6349 1339,-87 1123.84,-118.177 1068.47,-112.775 852,-133 818.074,-136.17 779.869,-139.7 750.313,-142.422"/>
<polygon fill="#9a32cd" stroke="#9a32cd" points="1347.43,-89.2496 1356.71,-84.1393 1346.27,-82.3465 1347.43,-89.2496"/>
<text text-anchor="middle" x="1074" y="-122" font-family="Helvetica,sans-Serif" font-size="10.00"> m_scenes</text>
</g>
<!-- Node4 -->
<g id="node4" class="node"><title>Node4</title>
<polygon fill="white" stroke="#bfbfbf" points="1135,-57 1135,-87 1238,-87 1238,-57 1135,-57"/>
<text text-anchor="start" x="1143" y="-75" font-family="Helvetica,sans-Serif" font-size="10.00">std::unique_ptr&lt; sgl</text>
<text text-anchor="middle" x="1186.5" y="-64" font-family="Helvetica,sans-Serif" font-size="10.00">::Scene &gt;</text>
</g>
<!-- Node4&#45;&gt;Node3 -->
<g id="edge3" class="edge"><title>Node4&#45;&gt;Node3</title>
<path fill="none" stroke="#9a32cd" stroke-dasharray="5,2" d="M1248.28,-72C1281.98,-72 1323.66,-72 1356.99,-72"/>
<polygon fill="#9a32cd" stroke="#9a32cd" points="1248.1,-68.5001 1238.1,-72 1248.1,-75.5001 1248.1,-68.5001"/>
<text text-anchor="middle" x="1298.5" y="-75" font-family="Helvetica,sans-Serif" font-size="10.00"> elements</text>
</g>
<!-- Node5&#45;&gt;Node4 -->
<g id="edge4" class="edge"><title>Node5&#45;&gt;Node4</title>
<path fill="none" stroke="#9a32cd" stroke-dasharray="5,2" d="M984.452,-52.5114C1019.23,-54.7861 1070.44,-58.4704 1115,-63 1121.38,-63.6489 1128.08,-64.4056 1134.71,-65.1994"/>
<polygon fill="#9a32cd" stroke="#9a32cd" points="984.417,-49.002 974.212,-51.8514 983.966,-55.9875 984.417,-49.002"/>
<text text-anchor="middle" x="1074" y="-66" font-family="Helvetica,sans-Serif" font-size="10.00"> ptr</text>
</g>
<!-- Node6 -->
<g id="node6" class="node"><title>Node6</title>
<g id="a_node6"><a xlink:href="../../dc/dee/classsgl_1_1Graphics_1_1Node.html" target="_top" xlink:title="Abstract base class for a scene graph node. ">
<polygon fill="white" stroke="black" points="648,-32.5 648,-51.5 751,-51.5 751,-32.5 648,-32.5"/>
<text text-anchor="middle" x="699.5" y="-39.5" font-family="Helvetica,sans-Serif" font-size="10.00">sgl::Graphics::Node</text>
</a>
</g>
</g>
<!-- Node6&#45;&gt;Node5 -->
<g id="edge5" class="edge"><title>Node6&#45;&gt;Node5</title>
<path fill="none" stroke="midnightblue" d="M761.233,-44.016C808.93,-45.5993 873.355,-47.7379 910.868,-48.9832"/>
<polygon fill="midnightblue" stroke="midnightblue" points="761.132,-40.5109 751.021,-43.6771 760.9,-47.507 761.132,-40.5109"/>
</g>
<!-- Node7 -->
<g id="node7" class="node"><title>Node7</title>
<polygon fill="white" stroke="#bfbfbf" points="361,-29 361,-59 507,-59 507,-29 361,-29"/>
<text text-anchor="start" x="369" y="-47" font-family="Helvetica,sans-Serif" font-size="10.00">std::vector&lt; std::shared</text>
<text text-anchor="middle" x="434" y="-36" font-family="Helvetica,sans-Serif" font-size="10.00">_ptr&lt; sgl::Graphics::Node &gt; &gt;</text>
</g>
<!-- Node7&#45;&gt;Node6 -->
<g id="edge6" class="edge"><title>Node7&#45;&gt;Node6</title>
<path fill="none" stroke="#9a32cd" stroke-dasharray="5,2" d="M517.124,-43.3767C559.911,-43.0519 610.875,-42.6651 647.87,-42.3843"/>
<polygon fill="#9a32cd" stroke="#9a32cd" points="516.976,-39.8776 507.003,-43.4535 517.029,-46.8774 516.976,-39.8776"/>
<text text-anchor="middle" x="580.5" y="-47" font-family="Helvetica,sans-Serif" font-size="10.00"> m_children</text>
</g>
<!-- Node8 -->
<g id="node8" class="node"><title>Node8</title>
<g id="a_node8"><a xlink:title="STL class. ">
<polygon fill="white" stroke="#bfbfbf" points="117,-34.5 117,-53.5 202,-53.5 202,-34.5 117,-34.5"/>
<text text-anchor="middle" x="159.5" y="-41.5" font-family="Helvetica,sans-Serif" font-size="10.00">std::vector&lt; T &gt;</text>
</a>
</g>
</g>
<!-- Node8&#45;&gt;Node3 -->
<g id="edge12" class="edge"><title>Node8&#45;&gt;Node3</title>
<path fill="none" stroke="orange" stroke-dasharray="5,2" d="M206.266,-32.0145C260.116,-18.9858 352.414,-0 433,-0 433,-0 433,-0 1187.5,-0 1262.43,-0 1345.04,-35.7937 1387.25,-56.9064"/>
<polygon fill="orange" stroke="orange" points="205.223,-28.6668 196.347,-34.4527 206.893,-35.4645 205.223,-28.6668"/>
<text text-anchor="start" x="769" y="-14" font-family="Helvetica,sans-Serif" font-size="10.00"> &lt; std::unique_ptr&lt;</text>
<text text-anchor="middle" x="810.5" y="-3" font-family="Helvetica,sans-Serif" font-size="10.00"> sgl::Scene &gt; &gt;</text>
</g>
<!-- Node8&#45;&gt;Node7 -->
<g id="edge7" class="edge"><title>Node8&#45;&gt;Node7</title>
<path fill="none" stroke="orange" stroke-dasharray="5,2" d="M212.205,-44C254.254,-44 314.067,-44 360.835,-44"/>
<polygon fill="orange" stroke="orange" points="212.184,-40.5001 202.184,-44 212.183,-47.5001 212.184,-40.5001"/>
<text text-anchor="start" x="229" y="-58" font-family="Helvetica,sans-Serif" font-size="10.00"> &lt; std::shared_ptr&lt;</text>
<text text-anchor="middle" x="283" y="-47" font-family="Helvetica,sans-Serif" font-size="10.00"> sgl::Graphics::Node &gt; &gt;</text>
</g>
<!-- Node9 -->
<g id="node9" class="node"><title>Node9</title>
<polygon fill="white" stroke="#bfbfbf" points="0,-78.5 0,-97.5 29,-97.5 29,-78.5 0,-78.5"/>
<text text-anchor="middle" x="14.5" y="-85.5" font-family="Helvetica,sans-Serif" font-size="10.00">T</text>
</g>
<!-- Node9&#45;&gt;Node8 -->
<g id="edge8" class="edge"><title>Node9&#45;&gt;Node8</title>
<path fill="none" stroke="#9a32cd" stroke-dasharray="5,2" d="M28.2845,-70.1732C33.417,-64.3551 39.8247,-58.497 47,-55 68.5071,-44.518 95.0871,-41.5692 116.9,-41.3345"/>
<polygon fill="#9a32cd" stroke="#9a32cd" points="25.232,-68.3875 21.7365,-78.3891 30.7062,-72.7503 25.232,-68.3875"/>
<text text-anchor="middle" x="68.5" y="-58" font-family="Helvetica,sans-Serif" font-size="10.00"> elements</text>
</g>
<!-- Node10 -->
<g id="node10" class="node"><title>Node10</title>
<g id="a_node10"><a xlink:title="STL class. ">
<polygon fill="white" stroke="#bfbfbf" points="231,-78.5 231,-97.5 335,-97.5 335,-78.5 231,-78.5"/>
<text text-anchor="middle" x="283" y="-85.5" font-family="Helvetica,sans-Serif" font-size="10.00">std::unique_ptr&lt; T &gt;</text>
</a>
</g>
</g>
<!-- Node9&#45;&gt;Node10 -->
<g id="edge11" class="edge"><title>Node9&#45;&gt;Node10</title>
<path fill="none" stroke="#9a32cd" stroke-dasharray="5,2" d="M39.096,-88C81.8679,-88 173.107,-88 230.782,-88"/>
<polygon fill="#9a32cd" stroke="#9a32cd" points="39.0822,-84.5001 29.0822,-88 39.0821,-91.5001 39.0822,-84.5001"/>
<text text-anchor="middle" x="68.5" y="-91" font-family="Helvetica,sans-Serif" font-size="10.00"> ptr</text>
</g>
<!-- Node19 -->
<g id="node19" class="node"><title>Node19</title>
<g id="a_node19"><a xlink:title="STL class. ">
<polygon fill="white" stroke="#bfbfbf" points="119,-198.5 119,-217.5 200,-217.5 200,-198.5 119,-198.5"/>
<text text-anchor="middle" x="159.5" y="-205.5" font-family="Helvetica,sans-Serif" font-size="10.00">std::array&lt; T &gt;</text>
</a>
</g>
</g>
<!-- Node9&#45;&gt;Node19 -->
<g id="edge22" class="edge"><title>Node9&#45;&gt;Node19</title>
<path fill="none" stroke="#9a32cd" stroke-dasharray="5,2" d="M27.9281,-105.706C44.1296,-127.655 74.3922,-164.972 108,-188 114.068,-192.157 121.126,-195.638 128.008,-198.469"/>
<polygon fill="#9a32cd" stroke="#9a32cd" points="30.7545,-103.642 22.0603,-97.5869 25.081,-107.742 30.7545,-103.642"/>
<text text-anchor="middle" x="68.5" y="-176" font-family="Helvetica,sans-Serif" font-size="10.00"> elements</text>
</g>
<!-- Node10&#45;&gt;Node4 -->
<g id="edge10" class="edge"><title>Node10&#45;&gt;Node4</title>
<path fill="none" stroke="orange" stroke-dasharray="5,2" d="M345.273,-88C405.036,-88 498.511,-88 579.5,-88 579.5,-88 579.5,-88 943.5,-88 1009.61,-88 1085.65,-81.9822 1134.58,-77.3278"/>
<polygon fill="orange" stroke="orange" points="345.248,-84.5001 335.248,-88 345.248,-91.5001 345.248,-84.5001"/>
<text text-anchor="middle" x="699.5" y="-91" font-family="Helvetica,sans-Serif" font-size="10.00"> &lt; sgl::Scene &gt;</text>
</g>
<!-- Node11 -->
<g id="node11" class="node"><title>Node11</title>
<g id="a_node11"><a xlink:href="../../d3/dcc/structsgl_1_1Scripting_1_1Config.html" target="_top" xlink:title="Host the scripting engine configuration. ">
<polygon fill="white" stroke="black" points="1133,-266.5 1133,-285.5 1240,-285.5 1240,-266.5 1133,-266.5"/>
<text text-anchor="middle" x="1186.5" y="-273.5" font-family="Helvetica,sans-Serif" font-size="10.00">sgl::Scripting::Config</text>
</a>
</g>
</g>
<!-- Node11&#45;&gt;Node1 -->
<g id="edge13" class="edge"><title>Node11&#45;&gt;Node1</title>
<path fill="none" stroke="#9a32cd" stroke-dasharray="5,2" d="M1250.34,-266.064C1277.62,-261.639 1309.92,-256.249 1339,-251 1350.59,-248.908 1363.13,-246.506 1374.65,-244.246"/>
<polygon fill="#9a32cd" stroke="#9a32cd" points="1249.47,-262.661 1240.15,-267.711 1250.58,-269.571 1249.47,-262.661"/>
<text text-anchor="middle" x="1298.5" y="-268" font-family="Helvetica,sans-Serif" font-size="10.00"> m_scriptingConfig</text>
</g>
<!-- Node12 -->
<g id="node12" class="node"><title>Node12</title>
<g id="a_node12"><a xlink:title="STL class. ">
<polygon fill="white" stroke="#bfbfbf" points="912.5,-274.5 912.5,-293.5 972.5,-293.5 972.5,-274.5 912.5,-274.5"/>
<text text-anchor="middle" x="942.5" y="-281.5" font-family="Helvetica,sans-Serif" font-size="10.00">std::string</text>
</a>
</g>
</g>
<!-- Node12&#45;&gt;Node11 -->
<g id="edge14" class="edge"><title>Node12&#45;&gt;Node11</title>
<path fill="none" stroke="#9a32cd" stroke-dasharray="5,2" d="M982.788,-282.701C1023.59,-281.353 1087.65,-279.235 1132.82,-277.742"/>
<polygon fill="#9a32cd" stroke="#9a32cd" points="982.57,-279.206 972.691,-283.035 982.801,-286.203 982.57,-279.206"/>
<text text-anchor="middle" x="1074" y="-306" font-family="Helvetica,sans-Serif" font-size="10.00"> arkscriptLibDir</text>
<text text-anchor="middle" x="1074" y="-295" font-family="Helvetica,sans-Serif" font-size="10.00">compiledScriptsDir</text>
<text text-anchor="middle" x="1074" y="-284" font-family="Helvetica,sans-Serif" font-size="10.00">scriptsDirectory</text>
</g>
<!-- Node13 -->
<g id="node13" class="node"><title>Node13</title>
<g id="a_node13"><a xlink:title="STL class. ">
<polygon fill="white" stroke="#bfbfbf" points="652,-273 652,-303 747,-303 747,-273 652,-273"/>
<text text-anchor="start" x="660" y="-291" font-family="Helvetica,sans-Serif" font-size="10.00">std::basic_string&lt;</text>
<text text-anchor="middle" x="699.5" y="-280" font-family="Helvetica,sans-Serif" font-size="10.00"> char &gt;</text>
</a>
</g>
</g>
<!-- Node13&#45;&gt;Node12 -->
<g id="edge15" class="edge"><title>Node13&#45;&gt;Node12</title>
<path fill="none" stroke="midnightblue" d="M757.318,-287.057C805.952,-286.25 874.004,-285.12 912.307,-284.485"/>
<polygon fill="midnightblue" stroke="midnightblue" points="757.193,-283.558 747.253,-287.224 757.31,-290.557 757.193,-283.558"/>
</g>
<!-- Node14 -->
<g id="node14" class="node"><title>Node14</title>
<g id="a_node14"><a xlink:href="../../d6/d13/classsgl_1_1internal_1_1Profiler.html" target="_top" xlink:title="Profiler used to display the time spent in each section of the application. ">
<polygon fill="white" stroke="black" points="1135,-226.5 1135,-245.5 1238,-245.5 1238,-226.5 1135,-226.5"/>
<text text-anchor="middle" x="1186.5" y="-233.5" font-family="Helvetica,sans-Serif" font-size="10.00">sgl::internal::Profiler</text>
</a>
</g>
</g>
<!-- Node14&#45;&gt;Node1 -->
<g id="edge16" class="edge"><title>Node14&#45;&gt;Node1</title>
<path fill="none" stroke="#9a32cd" stroke-dasharray="5,2" d="M1248.29,-236C1288.36,-236 1339.75,-236 1374.91,-236"/>
<polygon fill="#9a32cd" stroke="#9a32cd" points="1248.1,-232.5 1238.1,-236 1248.1,-239.5 1248.1,-232.5"/>
<text text-anchor="middle" x="1298.5" y="-239" font-family="Helvetica,sans-Serif" font-size="10.00"> m_profiler</text>
</g>
<!-- Node15 -->
<g id="node15" class="node"><title>Node15</title>
<polygon fill="white" stroke="#bfbfbf" points="870,-221 870,-251 1015,-251 1015,-221 870,-221"/>
<text text-anchor="start" x="878" y="-239" font-family="Helvetica,sans-Serif" font-size="10.00">std::array&lt; sgl::internal</text>
<text text-anchor="middle" x="942.5" y="-228" font-family="Helvetica,sans-Serif" font-size="10.00">::Profiler::Entry, _bufferSize &gt;</text>
</g>
<!-- Node15&#45;&gt;Node14 -->
<g id="edge17" class="edge"><title>Node15&#45;&gt;Node14</title>
<path fill="none" stroke="#9a32cd" stroke-dasharray="5,2" d="M1025.21,-236C1061.5,-236 1103.08,-236 1134.79,-236"/>
<polygon fill="#9a32cd" stroke="#9a32cd" points="1025.13,-232.5 1015.13,-236 1025.13,-239.5 1025.13,-232.5"/>
<text text-anchor="middle" x="1074" y="-239" font-family="Helvetica,sans-Serif" font-size="10.00"> _entries</text>
</g>
<!-- Node16 -->
<g id="node16" class="node"><title>Node16</title>
<g id="a_node16"><a xlink:href="../../de/d66/structsgl_1_1internal_1_1Profiler_1_1Entry.html" target="_top" xlink:title="sgl::internal::Profiler\l::Entry">
<polygon fill="white" stroke="black" points="648,-185 648,-215 751,-215 751,-185 648,-185"/>
<text text-anchor="start" x="656" y="-203" font-family="Helvetica,sans-Serif" font-size="10.00">sgl::internal::Profiler</text>
<text text-anchor="middle" x="699.5" y="-192" font-family="Helvetica,sans-Serif" font-size="10.00">::Entry</text>
</a>
</g>
</g>
<!-- Node16&#45;&gt;Node15 -->
<g id="edge18" class="edge"><title>Node16&#45;&gt;Node15</title>
<path fill="none" stroke="#9a32cd" stroke-dasharray="5,2" d="M761.074,-206.712C788.841,-210.016 822.149,-214.298 852,-219 857.781,-219.911 863.76,-220.913 869.76,-221.962"/>
<polygon fill="#9a32cd" stroke="#9a32cd" points="761.453,-203.233 751.112,-205.54 760.635,-210.185 761.453,-203.233"/>
<text text-anchor="middle" x="810.5" y="-222" font-family="Helvetica,sans-Serif" font-size="10.00"> elements</text>
</g>
<!-- Node17 -->
<g id="node17" class="node"><title>Node17</title>
<polygon fill="white" stroke="#bfbfbf" points="355,-185 355,-215 513,-215 513,-185 355,-185"/>
<text text-anchor="start" x="363" y="-203" font-family="Helvetica,sans-Serif" font-size="10.00">std::array&lt; sgl::internal</text>
<text text-anchor="middle" x="434" y="-192" font-family="Helvetica,sans-Serif" font-size="10.00">::Profiler::Scope, _StageCount &gt;</text>
</g>
<!-- Node17&#45;&gt;Node16 -->
<g id="edge19" class="edge"><title>Node17&#45;&gt;Node16</title>
<path fill="none" stroke="#9a32cd" stroke-dasharray="5,2" d="M523.447,-200C564.858,-200 612.692,-200 647.881,-200"/>
<polygon fill="#9a32cd" stroke="#9a32cd" points="523.345,-196.5 513.345,-200 523.345,-203.5 523.345,-196.5"/>
<text text-anchor="middle" x="580.5" y="-203" font-family="Helvetica,sans-Serif" font-size="10.00"> _stages</text>
</g>
<!-- Node18 -->
<g id="node18" class="node"><title>Node18</title>
<g id="a_node18"><a xlink:href="../../d2/d0d/structsgl_1_1internal_1_1Profiler_1_1Scope.html" target="_top" xlink:title="sgl::internal::Profiler\l::Scope">
<polygon fill="white" stroke="black" points="108,-149 108,-179 211,-179 211,-149 108,-149"/>
<text text-anchor="start" x="116" y="-167" font-family="Helvetica,sans-Serif" font-size="10.00">sgl::internal::Profiler</text>
<text text-anchor="middle" x="159.5" y="-156" font-family="Helvetica,sans-Serif" font-size="10.00">::Scope</text>
</a>
</g>
</g>
<!-- Node18&#45;&gt;Node17 -->
<g id="edge20" class="edge"><title>Node18&#45;&gt;Node17</title>
<path fill="none" stroke="#9a32cd" stroke-dasharray="5,2" d="M221.114,-172.008C260.526,-177.214 312.299,-184.054 354.801,-189.669"/>
<polygon fill="#9a32cd" stroke="#9a32cd" points="221.489,-168.527 211.117,-170.687 220.572,-175.467 221.489,-168.527"/>
<text text-anchor="middle" x="283" y="-190" font-family="Helvetica,sans-Serif" font-size="10.00"> elements</text>
</g>
<!-- Node19&#45;&gt;Node15 -->
<g id="edge23" class="edge"><title>Node19&#45;&gt;Node15</title>
<path fill="none" stroke="orange" stroke-dasharray="5,2" d="M193.822,-220.929C204.848,-224.603 217.292,-228.116 229,-230 460.895,-267.326 740.756,-252.583 869.861,-242.477"/>
<polygon fill="orange" stroke="orange" points="194.753,-217.547 184.158,-217.552 192.444,-224.155 194.753,-217.547"/>
<text text-anchor="start" x="531" y="-269" font-family="Helvetica,sans-Serif" font-size="10.00"> &lt; sgl::internal::Profiler</text>
<text text-anchor="middle" x="580.5" y="-258" font-family="Helvetica,sans-Serif" font-size="10.00">::Entry, _bufferSize &gt;</text>
</g>
<!-- Node19&#45;&gt;Node17 -->
<g id="edge21" class="edge"><title>Node19&#45;&gt;Node17</title>
<path fill="none" stroke="orange" stroke-dasharray="5,2" d="M210.252,-206.539C250.612,-205.355 308.237,-203.663 354.763,-202.297"/>
<polygon fill="orange" stroke="orange" points="210.017,-203.045 200.124,-206.837 210.222,-210.042 210.017,-203.045"/>
<text text-anchor="start" x="230" y="-220" font-family="Helvetica,sans-Serif" font-size="10.00"> &lt; sgl::internal::Profiler</text>
<text text-anchor="middle" x="283" y="-209" font-family="Helvetica,sans-Serif" font-size="10.00">::Scope, _StageCount &gt;</text>
</g>
</g>
</svg>
