<?xml version="1.0" encoding="UTF-8" standalone="no"?>
<!DOCTYPE svg PUBLIC "-//W3C//DTD SVG 1.1//EN"
 "http://www.w3.org/Graphics/SVG/1.1/DTD/svg11.dtd">
<!-- Generated by graphviz version 2.49.0 (20210828.1703)
 -->
<!-- Title: C:/Users/folae/Documents/Code/Big&#45;Projects/ScriptWizards/SmallGameLibrary/include/Small/Graphics/Sprite.hpp Pages: 1 -->
<svg width="988pt" height="173pt"
 viewBox="0.00 0.00 988.00 173.00" xmlns="http://www.w3.org/2000/svg" xmlns:xlink="http://www.w3.org/1999/xlink">
<g id="graph0" class="graph" transform="scale(1 1) rotate(0) translate(4 169)">
<title>C:/Users/folae/Documents/Code/Big&#45;Projects/ScriptWizards/SmallGameLibrary/include/Small/Graphics/Sprite.hpp</title>
<polygon fill="white" stroke="transparent" points="-4,4 -4,-169 984,-169 984,4 -4,4"/>
<!-- Node1 -->
<g id="node1" class="node">
<title>Node1</title>
<g id="a_node1"><a xlink:title=" ">
<polygon fill="#bfbfbf" stroke="black" points="184.5,-112.5 184.5,-164.5 347.5,-164.5 347.5,-112.5 184.5,-112.5"/>
<text text-anchor="start" x="192.5" y="-152.5" font-family="Helvetica,sans-Serif" font-size="10.00">C:/Users/folae/Documents</text>
<text text-anchor="start" x="192.5" y="-141.5" font-family="Helvetica,sans-Serif" font-size="10.00">/Code/Big&#45;Projects/ScriptWizards</text>
<text text-anchor="start" x="192.5" y="-130.5" font-family="Helvetica,sans-Serif" font-size="10.00">/SmallGameLibrary/include/Small</text>
<text text-anchor="middle" x="266" y="-119.5" font-family="Helvetica,sans-Serif" font-size="10.00">/Graphics/Sprite.hpp</text>
</a>
</g>
</g>
<!-- Node2 -->
<g id="node2" class="node">
<title>Node2</title>
<g id="a_node2"><a xlink:title=" ">
<polygon fill="white" stroke="#bfbfbf" points="0,-56.5 0,-75.5 50,-75.5 50,-56.5 0,-56.5"/>
<text text-anchor="middle" x="25" y="-63.5" font-family="Helvetica,sans-Serif" font-size="10.00">optional</text>
</a>
</g>
</g>
<!-- Node1&#45;&gt;Node2 -->
<g id="edge1" class="edge">
<title>Node1&#45;&gt;Node2</title>
<path fill="none" stroke="midnightblue" d="M184.41,-113.63C142.02,-101.23 92.44,-86.73 59.96,-77.23"/>
<polygon fill="midnightblue" stroke="midnightblue" points="60.63,-73.78 50.05,-74.33 58.67,-80.5 60.63,-73.78"/>
</g>
<!-- Node3 -->
<g id="node3" class="node">
<title>Node3</title>
<g id="a_node3"><a xlink:title=" ">
<polygon fill="white" stroke="#bfbfbf" points="68,-56.5 68,-75.5 200,-75.5 200,-56.5 68,-56.5"/>
<text text-anchor="middle" x="134" y="-63.5" font-family="Helvetica,sans-Serif" font-size="10.00">SFML/Graphics/Sprite.hpp</text>
</a>
</g>
</g>
<!-- Node1&#45;&gt;Node3 -->
<g id="edge2" class="edge">
<title>Node1&#45;&gt;Node3</title>
<path fill="none" stroke="midnightblue" d="M219.09,-112.45C198.9,-101.66 176.09,-89.48 159.18,-80.45"/>
<polygon fill="midnightblue" stroke="midnightblue" points="160.44,-77.15 149.97,-75.53 157.14,-83.33 160.44,-77.15"/>
</g>
<!-- Node4 -->
<g id="node4" class="node">
<title>Node4</title>
<g id="a_node4"><a xlink:title=" ">
<polygon fill="white" stroke="#bfbfbf" points="4,-0.5 4,-19.5 168,-19.5 168,-0.5 4,-0.5"/>
<text text-anchor="middle" x="86" y="-7.5" font-family="Helvetica,sans-Serif" font-size="10.00">SFML/Graphics/RenderTarget.hpp</text>
</a>
</g>
</g>
<!-- Node1&#45;&gt;Node4 -->
<g id="edge3" class="edge">
<title>Node1&#45;&gt;Node4</title>
<path fill="none" stroke="midnightblue" d="M253.72,-112.3C243.85,-94.39 228.44,-70.95 209,-56 188.18,-39.99 161.11,-29.27 137.67,-22.32"/>
<polygon fill="midnightblue" stroke="midnightblue" points="138.45,-18.9 127.87,-19.57 136.55,-25.64 138.45,-18.9"/>
</g>
<!-- Node5 -->
<g id="node5" class="node">
<title>Node5</title>
<g id="a_node5"><a xlink:title=" ">
<polygon fill="white" stroke="#bfbfbf" points="186.5,-0.5 186.5,-19.5 335.5,-19.5 335.5,-0.5 186.5,-0.5"/>
<text text-anchor="middle" x="261" y="-7.5" font-family="Helvetica,sans-Serif" font-size="10.00">SFML/Graphics/Transform.hpp</text>
</a>
</g>
</g>
<!-- Node1&#45;&gt;Node5 -->
<g id="edge4" class="edge">
<title>Node1&#45;&gt;Node5</title>
<path fill="none" stroke="midnightblue" d="M265,-112.2C264.04,-87.88 262.61,-51.67 261.74,-29.8"/>
<polygon fill="midnightblue" stroke="midnightblue" points="265.23,-29.4 261.34,-19.55 258.24,-29.68 265.23,-29.4"/>
</g>
<!-- Node6 -->
<g id="node6" class="node">
<title>Node6</title>
<g id="a_node6"><a xlink:title=" ">
<polygon fill="white" stroke="#bfbfbf" points="440.5,-56.5 440.5,-75.5 567.5,-75.5 567.5,-56.5 440.5,-56.5"/>
<text text-anchor="middle" x="504" y="-63.5" font-family="Helvetica,sans-Serif" font-size="10.00">SFML/Graphics/Rect.hpp</text>
</a>
</g>
</g>
<!-- Node1&#45;&gt;Node6 -->
<g id="edge5" class="edge">
<title>Node1&#45;&gt;Node6</title>
<path fill="none" stroke="midnightblue" d="M347.57,-113.34C387.52,-101.5 433.73,-87.81 465.52,-78.4"/>
<polygon fill="midnightblue" stroke="midnightblue" points="466.71,-81.7 475.3,-75.5 464.72,-74.99 466.71,-81.7"/>
</g>
<!-- Node7 -->
<g id="node7" class="node">
<title>Node7</title>
<g id="a_node7"><a xlink:href="../../d7/dc6/Node_8hpp.html" target="_top" xlink:title="A scene graph node.">
<polygon fill="white" stroke="black" points="294,-56.5 294,-75.5 422,-75.5 422,-56.5 294,-56.5"/>
<text text-anchor="middle" x="358" y="-63.5" font-family="Helvetica,sans-Serif" font-size="10.00">Small/Graphics/Node.hpp</text>
</a>
</g>
</g>
<!-- Node1&#45;&gt;Node7 -->
<g id="edge6" class="edge">
<title>Node1&#45;&gt;Node7</title>
<path fill="none" stroke="midnightblue" d="M298.69,-112.45C312.03,-102.23 327,-90.76 338.56,-81.9"/>
<polygon fill="midnightblue" stroke="midnightblue" points="340.84,-84.56 346.65,-75.7 336.59,-79 340.84,-84.56"/>
</g>
<!-- Node11 -->
<g id="node11" class="node">
<title>Node11</title>
<g id="a_node11"><a xlink:href="../../db/d73/Ressource_8hpp.html" target="_top" xlink:title=" ">
<polygon fill="white" stroke="black" points="645.5,-56.5 645.5,-75.5 778.5,-75.5 778.5,-56.5 645.5,-56.5"/>
<text text-anchor="middle" x="712" y="-63.5" font-family="Helvetica,sans-Serif" font-size="10.00">Small/Core/Ressource.hpp</text>
</a>
</g>
</g>
<!-- Node1&#45;&gt;Node11 -->
<g id="edge12" class="edge">
<title>Node1&#45;&gt;Node11</title>
<path fill="none" stroke="midnightblue" d="M347.54,-124.61C433.91,-110.96 568.48,-89.69 647.67,-77.17"/>
<polygon fill="midnightblue" stroke="midnightblue" points="648.66,-80.56 657.99,-75.54 647.57,-73.64 648.66,-80.56"/>
</g>
<!-- Node7&#45;&gt;Node4 -->
<g id="edge7" class="edge">
<title>Node7&#45;&gt;Node4</title>
<path fill="none" stroke="midnightblue" d="M314.9,-56.44C267.15,-46.96 190.14,-31.67 138.81,-21.48"/>
<polygon fill="midnightblue" stroke="midnightblue" points="139.39,-18.03 128.9,-19.52 138.02,-24.9 139.39,-18.03"/>
</g>
<!-- Node7&#45;&gt;Node5 -->
<g id="edge8" class="edge">
<title>Node7&#45;&gt;Node5</title>
<path fill="none" stroke="midnightblue" d="M342.42,-56.32C327,-47.74 303.19,-34.49 285.29,-24.52"/>
<polygon fill="midnightblue" stroke="midnightblue" points="286.99,-21.46 276.55,-19.65 283.58,-27.58 286.99,-21.46"/>
</g>
<!-- Node8 -->
<g id="node8" class="node">
<title>Node8</title>
<g id="a_node8"><a xlink:title=" ">
<polygon fill="white" stroke="#bfbfbf" points="353.5,-0.5 353.5,-19.5 488.5,-19.5 488.5,-0.5 353.5,-0.5"/>
<text text-anchor="middle" x="421" y="-7.5" font-family="Helvetica,sans-Serif" font-size="10.00">SFML/System/Vector2.hpp</text>
</a>
</g>
</g>
<!-- Node7&#45;&gt;Node8 -->
<g id="edge9" class="edge">
<title>Node7&#45;&gt;Node8</title>
<path fill="none" stroke="midnightblue" d="M368.12,-56.32C377.53,-48.26 391.74,-36.08 403.07,-26.37"/>
<polygon fill="midnightblue" stroke="midnightblue" points="405.38,-29 410.69,-19.83 400.82,-23.68 405.38,-29"/>
</g>
<!-- Node9 -->
<g id="node9" class="node">
<title>Node9</title>
<g id="a_node9"><a xlink:title=" ">
<polygon fill="white" stroke="#bfbfbf" points="507,-0.5 507,-19.5 549,-19.5 549,-0.5 507,-0.5"/>
<text text-anchor="middle" x="528" y="-7.5" font-family="Helvetica,sans-Serif" font-size="10.00">vector</text>
</a>
</g>
</g>
<!-- Node7&#45;&gt;Node9 -->
<g id="edge10" class="edge">
<title>Node7&#45;&gt;Node9</title>
<path fill="none" stroke="midnightblue" d="M384.94,-56.44C415.43,-46.76 465.03,-31 497.09,-20.82"/>
<polygon fill="midnightblue" stroke="midnightblue" points="498.36,-24.09 506.83,-17.73 496.24,-17.42 498.36,-24.09"/>
</g>
<!-- Node10 -->
<g id="node10" class="node">
<title>Node10</title>
<g id="a_node10"><a xlink:title=" ">
<polygon fill="white" stroke="#bfbfbf" points="567,-0.5 567,-19.5 619,-19.5 619,-0.5 567,-0.5"/>
<text text-anchor="middle" x="593" y="-7.5" font-family="Helvetica,sans-Serif" font-size="10.00">memory</text>
</a>
</g>
</g>
<!-- Node7&#45;&gt;Node10 -->
<g id="edge11" class="edge">
<title>Node7&#45;&gt;Node10</title>
<path fill="none" stroke="midnightblue" d="M397.55,-56.47C435.9,-48.12 495.98,-34.82 556.87,-20.22"/>
<polygon fill="midnightblue" stroke="midnightblue" points="557.75,-23.61 566.65,-17.87 556.11,-16.81 557.75,-23.61"/>
</g>
<!-- Node12 -->
<g id="node12" class="node">
<title>Node12</title>
<g id="a_node12"><a xlink:title=" ">
<polygon fill="white" stroke="#bfbfbf" points="637.5,-0.5 637.5,-19.5 678.5,-19.5 678.5,-0.5 637.5,-0.5"/>
<text text-anchor="middle" x="658" y="-7.5" font-family="Helvetica,sans-Serif" font-size="10.00">string</text>
</a>
</g>
</g>
<!-- Node11&#45;&gt;Node12 -->
<g id="edge13" class="edge">
<title>Node11&#45;&gt;Node12</title>
<path fill="none" stroke="midnightblue" d="M703.08,-56.08C695.22,-48.22 683.57,-36.57 674.08,-27.08"/>
<polygon fill="midnightblue" stroke="midnightblue" points="676.3,-24.35 666.75,-19.75 671.35,-29.3 676.3,-24.35"/>
</g>
<!-- Node13 -->
<g id="node13" class="node">
<title>Node13</title>
<g id="a_node13"><a xlink:title=" ">
<polygon fill="white" stroke="#bfbfbf" points="696.5,-0.5 696.5,-19.5 835.5,-19.5 835.5,-0.5 696.5,-0.5"/>
<text text-anchor="middle" x="766" y="-7.5" font-family="Helvetica,sans-Serif" font-size="10.00">SFML/Graphics/Texture.hpp</text>
</a>
</g>
</g>
<!-- Node11&#45;&gt;Node13 -->
<g id="edge14" class="edge">
<title>Node11&#45;&gt;Node13</title>
<path fill="none" stroke="midnightblue" d="M720.92,-56.08C728.78,-48.22 740.43,-36.57 749.92,-27.08"/>
<polygon fill="midnightblue" stroke="midnightblue" points="752.65,-29.3 757.25,-19.75 747.7,-24.35 752.65,-29.3"/>
</g>
<!-- Node14 -->
<g id="node14" class="node">
<title>Node14</title>
<g id="a_node14"><a xlink:title=" ">
<polygon fill="white" stroke="#bfbfbf" points="854,-0.5 854,-19.5 980,-19.5 980,-0.5 854,-0.5"/>
<text text-anchor="middle" x="917" y="-7.5" font-family="Helvetica,sans-Serif" font-size="10.00">SFML/Graphics/Font.hpp</text>
</a>
</g>
</g>
<!-- Node11&#45;&gt;Node14 -->
<g id="edge15" class="edge">
<title>Node11&#45;&gt;Node14</title>
<path fill="none" stroke="midnightblue" d="M744.48,-56.44C779.72,-47.16 836.1,-32.31 874.76,-22.13"/>
<polygon fill="midnightblue" stroke="midnightblue" points="875.89,-25.45 884.67,-19.52 874.11,-18.68 875.89,-25.45"/>
</g>
</g>
</svg>
