<?xml version="1.0" encoding="UTF-8" standalone="no"?>
<!DOCTYPE svg PUBLIC "-//W3C//DTD SVG 1.1//EN"
 "http://www.w3.org/Graphics/SVG/1.1/DTD/svg11.dtd">
<!-- Generated by graphviz version 2.38.0 (20140413.2041)
 -->
<!-- Title: include/Small/Graphics/Animation.hpp Pages: 1 -->
<svg width="1410pt" height="95pt"
 viewBox="0.00 0.00 1410.00 95.00" xmlns="http://www.w3.org/2000/svg" xmlns:xlink="http://www.w3.org/1999/xlink">
<g id="graph0" class="graph" transform="scale(1 1) rotate(0) translate(4 91)">
<title>include/Small/Graphics/Animation.hpp</title>
<polygon fill="white" stroke="none" points="-4,4 -4,-91 1406,-91 1406,4 -4,4"/>
<!-- Node1 -->
<g id="node1" class="node"><title>Node1</title>
<polygon fill="#bfbfbf" stroke="black" points="814,-56.5 814,-86.5 931,-86.5 931,-56.5 814,-56.5"/>
<text text-anchor="start" x="822" y="-74.5" font-family="Helvetica,sans-Serif" font-size="10.00">include/Small/Graphics</text>
<text text-anchor="middle" x="872.5" y="-63.5" font-family="Helvetica,sans-Serif" font-size="10.00">/Animation.hpp</text>
</g>
<!-- Node2 -->
<g id="node2" class="node"><title>Node2</title>
<polygon fill="white" stroke="#bfbfbf" points="0,-0.5 0,-19.5 127,-19.5 127,-0.5 0,-0.5"/>
<text text-anchor="middle" x="63.5" y="-7.5" font-family="Helvetica,sans-Serif" font-size="10.00">SFML/Graphics/Rect.hpp</text>
</g>
<!-- Node1&#45;&gt;Node2 -->
<g id="edge1" class="edge"><title>Node1&#45;&gt;Node2</title>
<path fill="none" stroke="midnightblue" d="M813.654,-67.5883C690.265,-61.2399 395.216,-44.7867 137.395,-20.1359"/>
<polygon fill="midnightblue" stroke="midnightblue" points="137.371,-16.6175 127.082,-19.1435 136.701,-23.5853 137.371,-16.6175"/>
</g>
<!-- Node3 -->
<g id="node3" class="node"><title>Node3</title>
<polygon fill="white" stroke="#bfbfbf" points="145,-0.5 145,-19.5 284,-19.5 284,-0.5 145,-0.5"/>
<text text-anchor="middle" x="214.5" y="-7.5" font-family="Helvetica,sans-Serif" font-size="10.00">SFML/Graphics/Texture.hpp</text>
</g>
<!-- Node1&#45;&gt;Node3 -->
<g id="edge2" class="edge"><title>Node1&#45;&gt;Node3</title>
<path fill="none" stroke="midnightblue" d="M813.688,-65.8872C710.796,-57.7037 491.172,-39.7331 294.513,-20.0772"/>
<polygon fill="midnightblue" stroke="midnightblue" points="294.576,-16.566 284.276,-19.0504 293.877,-23.5311 294.576,-16.566"/>
</g>
<!-- Node4 -->
<g id="node4" class="node"><title>Node4</title>
<polygon fill="white" stroke="#bfbfbf" points="302.5,-0.5 302.5,-19.5 466.5,-19.5 466.5,-0.5 302.5,-0.5"/>
<text text-anchor="middle" x="384.5" y="-7.5" font-family="Helvetica,sans-Serif" font-size="10.00">SFML/Graphics/RenderTarget.hpp</text>
</g>
<!-- Node1&#45;&gt;Node4 -->
<g id="edge3" class="edge"><title>Node1&#45;&gt;Node4</title>
<path fill="none" stroke="midnightblue" d="M813.636,-63.3229C726.474,-52.6956 562.849,-32.7454 464.766,-20.7865"/>
<polygon fill="midnightblue" stroke="midnightblue" points="464.955,-17.2838 454.605,-19.5477 464.108,-24.2323 464.955,-17.2838"/>
</g>
<!-- Node5 -->
<g id="node5" class="node"><title>Node5</title>
<polygon fill="white" stroke="#bfbfbf" points="484.5,-0.5 484.5,-19.5 606.5,-19.5 606.5,-0.5 484.5,-0.5"/>
<text text-anchor="middle" x="545.5" y="-7.5" font-family="Helvetica,sans-Serif" font-size="10.00">SFML/System/Time.hpp</text>
</g>
<!-- Node1&#45;&gt;Node5 -->
<g id="edge4" class="edge"><title>Node1&#45;&gt;Node5</title>
<path fill="none" stroke="midnightblue" d="M813.661,-59.7939C753.693,-48.8822 661.317,-32.0738 602.152,-21.3082"/>
<polygon fill="midnightblue" stroke="midnightblue" points="602.695,-17.8496 592.23,-19.5028 601.441,-24.7365 602.695,-17.8496"/>
</g>
<!-- Node6 -->
<g id="node6" class="node"><title>Node6</title>
<polygon fill="white" stroke="#bfbfbf" points="624.5,-0.5 624.5,-19.5 770.5,-19.5 770.5,-0.5 624.5,-0.5"/>
<text text-anchor="middle" x="697.5" y="-7.5" font-family="Helvetica,sans-Serif" font-size="10.00">SFML/Graphics/Drawable.hpp</text>
</g>
<!-- Node1&#45;&gt;Node6 -->
<g id="edge5" class="edge"><title>Node1&#45;&gt;Node6</title>
<path fill="none" stroke="midnightblue" d="M831.027,-56.3993C800.92,-46.1627 760.648,-32.4703 732.23,-22.8082"/>
<polygon fill="midnightblue" stroke="midnightblue" points="733.303,-19.4763 722.709,-19.5709 731.05,-26.1037 733.303,-19.4763"/>
</g>
<!-- Node7 -->
<g id="node7" class="node"><title>Node7</title>
<polygon fill="white" stroke="#bfbfbf" points="789,-0.5 789,-19.5 956,-19.5 956,-0.5 789,-0.5"/>
<text text-anchor="middle" x="872.5" y="-7.5" font-family="Helvetica,sans-Serif" font-size="10.00">SFML/Graphics/Transformable.hpp</text>
</g>
<!-- Node1&#45;&gt;Node7 -->
<g id="edge6" class="edge"><title>Node1&#45;&gt;Node7</title>
<path fill="none" stroke="midnightblue" d="M872.5,-56.3993C872.5,-48.4664 872.5,-38.458 872.5,-29.8583"/>
<polygon fill="midnightblue" stroke="midnightblue" points="876,-29.6577 872.5,-19.6578 869,-29.6578 876,-29.6577"/>
</g>
<!-- Node8 -->
<g id="node8" class="node"><title>Node8</title>
<polygon fill="white" stroke="#bfbfbf" points="974,-0.5 974,-19.5 1109,-19.5 1109,-0.5 974,-0.5"/>
<text text-anchor="middle" x="1041.5" y="-7.5" font-family="Helvetica,sans-Serif" font-size="10.00">SFML/System/Vector2.hpp</text>
</g>
<!-- Node1&#45;&gt;Node8 -->
<g id="edge7" class="edge"><title>Node1&#45;&gt;Node8</title>
<path fill="none" stroke="midnightblue" d="M912.551,-56.3993C941.412,-46.238 979.945,-32.6716 1007.35,-23.0221"/>
<polygon fill="midnightblue" stroke="midnightblue" points="1008.64,-26.2801 1016.91,-19.6578 1006.31,-19.6774 1008.64,-26.2801"/>
</g>
<!-- Node9 -->
<g id="node9" class="node"><title>Node9</title>
<polygon fill="white" stroke="#bfbfbf" points="1127.5,-0.5 1127.5,-19.5 1169.5,-19.5 1169.5,-0.5 1127.5,-0.5"/>
<text text-anchor="middle" x="1148.5" y="-7.5" font-family="Helvetica,sans-Serif" font-size="10.00">vector</text>
</g>
<!-- Node1&#45;&gt;Node9 -->
<g id="edge8" class="edge"><title>Node1&#45;&gt;Node9</title>
<path fill="none" stroke="midnightblue" d="M931.485,-59.9187C979.28,-50.997 1048.52,-37.2876 1117.53,-20.0782"/>
<polygon fill="midnightblue" stroke="midnightblue" points="1118.42,-23.4633 1127.26,-17.6268 1116.71,-16.6753 1118.42,-23.4633"/>
</g>
<!-- Node10 -->
<g id="node10" class="node"><title>Node10</title>
<polygon fill="white" stroke="#bfbfbf" points="1187.5,-0.5 1187.5,-19.5 1241.5,-19.5 1241.5,-0.5 1187.5,-0.5"/>
<text text-anchor="middle" x="1214.5" y="-7.5" font-family="Helvetica,sans-Serif" font-size="10.00">toml.hpp</text>
</g>
<!-- Node1&#45;&gt;Node10 -->
<g id="edge9" class="edge"><title>Node1&#45;&gt;Node10</title>
<path fill="none" stroke="midnightblue" d="M931.139,-62.2725C990.756,-53.5814 1085.97,-38.8061 1177.44,-20.0816"/>
<polygon fill="midnightblue" stroke="midnightblue" points="1178.34,-23.4701 1187.43,-18.0191 1176.93,-16.6149 1178.34,-23.4701"/>
</g>
<!-- Node11 -->
<g id="node11" class="node"><title>Node11</title>
<polygon fill="white" stroke="#bfbfbf" points="1260,-0.5 1260,-19.5 1301,-19.5 1301,-0.5 1260,-0.5"/>
<text text-anchor="middle" x="1280.5" y="-7.5" font-family="Helvetica,sans-Serif" font-size="10.00">string</text>
</g>
<!-- Node1&#45;&gt;Node11 -->
<g id="edge10" class="edge"><title>Node1&#45;&gt;Node11</title>
<path fill="none" stroke="midnightblue" d="M931.276,-65.5617C1003.99,-58.8056 1131.63,-44.8374 1250,-19.7721"/>
<polygon fill="midnightblue" stroke="midnightblue" points="1250.91,-23.1548 1259.96,-17.6317 1249.44,-16.3111 1250.91,-23.1548"/>
</g>
<!-- Node12 -->
<g id="node12" class="node"><title>Node12</title>
<polygon fill="white" stroke="#bfbfbf" points="1319,-0.5 1319,-19.5 1402,-19.5 1402,-0.5 1319,-0.5"/>
<text text-anchor="middle" x="1360.5" y="-7.5" font-family="Helvetica,sans-Serif" font-size="10.00">unordered_map</text>
</g>
<!-- Node1&#45;&gt;Node12 -->
<g id="edge11" class="edge"><title>Node1&#45;&gt;Node12</title>
<path fill="none" stroke="midnightblue" d="M931.103,-64.934C1013.29,-56.8639 1167.69,-40.7437 1308.66,-20.1983"/>
<polygon fill="midnightblue" stroke="midnightblue" points="1309.41,-23.6272 1318.79,-18.7115 1308.39,-16.7014 1309.41,-23.6272"/>
</g>
</g>
</svg>
