<?xml version="1.0" encoding="UTF-8" standalone="no"?>
<!DOCTYPE svg PUBLIC "-//W3C//DTD SVG 1.1//EN"
 "http://www.w3.org/Graphics/SVG/1.1/DTD/svg11.dtd">
<!-- Generated by graphviz version 2.49.0 (20210828.1703)
 -->
<!-- Title: C:/Users/folae/Documents/Code/Big&#45;Projects/ScriptWizards/SmallGameLibrary/source/Scripting/Bindings.cpp Pages: 1 -->
<svg width="1847pt" height="397pt"
 viewBox="0.00 0.00 1846.50 397.00" xmlns="http://www.w3.org/2000/svg" xmlns:xlink="http://www.w3.org/1999/xlink">
<g id="graph0" class="graph" transform="scale(1 1) rotate(0) translate(4 393)">
<title>C:/Users/folae/Documents/Code/Big&#45;Projects/ScriptWizards/SmallGameLibrary/source/Scripting/Bindings.cpp</title>
<polygon fill="white" stroke="transparent" points="-4,4 -4,-393 1842.5,-393 1842.5,4 -4,4"/>
<!-- Node1 -->
<g id="node1" class="node">
<title>Node1</title>
<g id="a_node1"><a xlink:title=" ">
<polygon fill="#bfbfbf" stroke="black" points="292,-336.5 292,-388.5 465,-388.5 465,-336.5 292,-336.5"/>
<text text-anchor="start" x="300" y="-376.5" font-family="Helvetica,sans-Serif" font-size="10.00">C:/Users/folae/Documents</text>
<text text-anchor="start" x="300" y="-365.5" font-family="Helvetica,sans-Serif" font-size="10.00">/Code/Big&#45;Projects/ScriptWizards</text>
<text text-anchor="start" x="300" y="-354.5" font-family="Helvetica,sans-Serif" font-size="10.00">/SmallGameLibrary/source/Scripting</text>
<text text-anchor="middle" x="378.5" y="-343.5" font-family="Helvetica,sans-Serif" font-size="10.00">/Bindings.cpp</text>
</a>
</g>
</g>
<!-- Node2 -->
<g id="node2" class="node">
<title>Node2</title>
<g id="a_node2"><a xlink:href="../../d2/d12/Bindings_8hpp.html" target="_top" xlink:title="Binding the small game library in ArkScript.">
<polygon fill="white" stroke="black" points="229.5,-280.5 229.5,-299.5 371.5,-299.5 371.5,-280.5 229.5,-280.5"/>
<text text-anchor="middle" x="300.5" y="-287.5" font-family="Helvetica,sans-Serif" font-size="10.00">Small/Scripting/Bindings.hpp</text>
</a>
</g>
</g>
<!-- Node1&#45;&gt;Node2 -->
<g id="edge1" class="edge">
<title>Node1&#45;&gt;Node2</title>
<path fill="none" stroke="midnightblue" d="M350.78,-336.45C339.7,-326.43 327.28,-315.21 317.56,-306.42"/>
<polygon fill="midnightblue" stroke="midnightblue" points="319.89,-303.8 310.12,-299.7 315.19,-309 319.89,-303.8"/>
</g>
<!-- Node4 -->
<g id="node4" class="node">
<title>Node4</title>
<g id="a_node4"><a xlink:href="../../df/d3c/Application_8hpp.html" target="_top" xlink:title="Define the application hosting the scenes for the game.">
<polygon fill="white" stroke="black" points="642.5,-280.5 642.5,-299.5 776.5,-299.5 776.5,-280.5 642.5,-280.5"/>
<text text-anchor="middle" x="709.5" y="-287.5" font-family="Helvetica,sans-Serif" font-size="10.00">Small/Core/Application.hpp</text>
</a>
</g>
</g>
<!-- Node1&#45;&gt;Node4 -->
<g id="edge3" class="edge">
<title>Node1&#45;&gt;Node4</title>
<path fill="none" stroke="midnightblue" d="M465.03,-343.07C526.99,-329.87 608.22,-312.57 659.66,-301.62"/>
<polygon fill="midnightblue" stroke="midnightblue" points="660.48,-305.02 669.53,-299.51 659.02,-298.17 660.48,-305.02"/>
</g>
<!-- Node3 -->
<g id="node3" class="node">
<title>Node3</title>
<g id="a_node3"><a xlink:title=" ">
<polygon fill="white" stroke="#bfbfbf" points="0,-224.5 0,-243.5 95,-243.5 95,-224.5 0,-224.5"/>
<text text-anchor="middle" x="47.5" y="-231.5" font-family="Helvetica,sans-Serif" font-size="10.00">Ark/VM/State.hpp</text>
</a>
</g>
</g>
<!-- Node2&#45;&gt;Node3 -->
<g id="edge2" class="edge">
<title>Node2&#45;&gt;Node3</title>
<path fill="none" stroke="midnightblue" d="M260.41,-280.44C216.18,-271 144.96,-255.8 97.22,-245.61"/>
<polygon fill="midnightblue" stroke="midnightblue" points="97.91,-242.18 87.4,-243.52 96.45,-249.03 97.91,-242.18"/>
</g>
<!-- Node5 -->
<g id="node5" class="node">
<title>Node5</title>
<g id="a_node5"><a xlink:title=" ">
<polygon fill="white" stroke="#bfbfbf" points="777,-0.5 777,-19.5 818,-19.5 818,-0.5 777,-0.5"/>
<text text-anchor="middle" x="797.5" y="-7.5" font-family="Helvetica,sans-Serif" font-size="10.00">string</text>
</a>
</g>
</g>
<!-- Node4&#45;&gt;Node5 -->
<g id="edge4" class="edge">
<title>Node4&#45;&gt;Node5</title>
<path fill="none" stroke="midnightblue" d="M642.29,-286.55C528.4,-281.77 302.54,-269.36 227.5,-244 175.86,-226.55 123.5,-233.51 123.5,-179 123.5,-179 123.5,-179 123.5,-121 123.5,-54.91 634.85,-20.5 766.76,-12.72"/>
<polygon fill="midnightblue" stroke="midnightblue" points="767.18,-16.2 776.96,-12.13 766.77,-9.21 767.18,-16.2"/>
</g>
<!-- Node6 -->
<g id="node6" class="node">
<title>Node6</title>
<g id="a_node6"><a xlink:title=" ">
<polygon fill="white" stroke="#bfbfbf" points="737.5,-224.5 737.5,-243.5 787.5,-243.5 787.5,-224.5 737.5,-224.5"/>
<text text-anchor="middle" x="762.5" y="-231.5" font-family="Helvetica,sans-Serif" font-size="10.00">optional</text>
</a>
</g>
</g>
<!-- Node4&#45;&gt;Node6 -->
<g id="edge5" class="edge">
<title>Node4&#45;&gt;Node6</title>
<path fill="none" stroke="midnightblue" d="M718.25,-280.08C725.97,-272.22 737.4,-260.57 746.72,-251.08"/>
<polygon fill="midnightblue" stroke="midnightblue" points="749.4,-253.34 753.91,-243.75 744.41,-248.44 749.4,-253.34"/>
</g>
<!-- Node7 -->
<g id="node7" class="node">
<title>Node7</title>
<g id="a_node7"><a xlink:title=" ">
<polygon fill="white" stroke="#bfbfbf" points="342.5,-112.5 342.5,-131.5 446.5,-131.5 446.5,-112.5 342.5,-112.5"/>
<text text-anchor="middle" x="394.5" y="-119.5" font-family="Helvetica,sans-Serif" font-size="10.00">SFML/Graphics.hpp</text>
</a>
</g>
</g>
<!-- Node4&#45;&gt;Node7 -->
<g id="edge6" class="edge">
<title>Node4&#45;&gt;Node7</title>
<path fill="none" stroke="midnightblue" d="M642.46,-287.36C511.92,-282.49 231.88,-263.3 180.5,-188 175.49,-180.66 174.9,-174.9 180.5,-168 199.33,-144.79 275.95,-133.11 332.15,-127.55"/>
<polygon fill="midnightblue" stroke="midnightblue" points="332.76,-131.01 342.39,-126.59 332.1,-124.04 332.76,-131.01"/>
</g>
<!-- Node8 -->
<g id="node8" class="node">
<title>Node8</title>
<g id="a_node8"><a xlink:title=" ">
<polygon fill="white" stroke="#bfbfbf" points="464.5,-112.5 464.5,-131.5 590.5,-131.5 590.5,-112.5 464.5,-112.5"/>
<text text-anchor="middle" x="527.5" y="-119.5" font-family="Helvetica,sans-Serif" font-size="10.00">SFML/Window/Event.hpp</text>
</a>
</g>
</g>
<!-- Node4&#45;&gt;Node8 -->
<g id="edge7" class="edge">
<title>Node4&#45;&gt;Node8</title>
<path fill="none" stroke="midnightblue" d="M699.71,-280.08C670.2,-253.15 581.79,-172.51 544.44,-138.45"/>
<polygon fill="midnightblue" stroke="midnightblue" points="546.64,-135.72 536.89,-131.57 541.92,-140.89 546.64,-135.72"/>
</g>
<!-- Node9 -->
<g id="node9" class="node">
<title>Node9</title>
<g id="a_node9"><a xlink:title=" ">
<polygon fill="white" stroke="#bfbfbf" points="608.5,-112.5 608.5,-131.5 734.5,-131.5 734.5,-112.5 608.5,-112.5"/>
<text text-anchor="middle" x="671.5" y="-119.5" font-family="Helvetica,sans-Serif" font-size="10.00">SFML/System/Clock.hpp</text>
</a>
</g>
</g>
<!-- Node4&#45;&gt;Node9 -->
<g id="edge8" class="edge">
<title>Node4&#45;&gt;Node9</title>
<path fill="none" stroke="midnightblue" d="M706.54,-280.45C703.5,-271.45 698.76,-256.85 695.5,-244 686.39,-208.15 678.65,-165.59 674.58,-141.7"/>
<polygon fill="midnightblue" stroke="midnightblue" points="677.98,-140.86 672.88,-131.58 671.08,-142.02 677.98,-140.86"/>
</g>
<!-- Node10 -->
<g id="node10" class="node">
<title>Node10</title>
<g id="a_node10"><a xlink:title=" ">
<polygon fill="white" stroke="#bfbfbf" points="805.5,-224.5 805.5,-243.5 853.5,-243.5 853.5,-224.5 805.5,-224.5"/>
<text text-anchor="middle" x="829.5" y="-231.5" font-family="Helvetica,sans-Serif" font-size="10.00">imgui.h</text>
</a>
</g>
</g>
<!-- Node4&#45;&gt;Node10 -->
<g id="edge9" class="edge">
<title>Node4&#45;&gt;Node10</title>
<path fill="none" stroke="midnightblue" d="M728.51,-280.44C748.09,-271.64 778.81,-257.81 801.23,-247.72"/>
<polygon fill="midnightblue" stroke="midnightblue" points="802.89,-250.81 810.57,-243.52 800.02,-244.43 802.89,-250.81"/>
</g>
<!-- Node11 -->
<g id="node11" class="node">
<title>Node11</title>
<g id="a_node11"><a xlink:title=" ">
<polygon fill="white" stroke="#bfbfbf" points="872,-224.5 872,-243.5 949,-243.5 949,-224.5 872,-224.5"/>
<text text-anchor="middle" x="910.5" y="-231.5" font-family="Helvetica,sans-Serif" font-size="10.00">imgui&#45;SFML.h</text>
</a>
</g>
</g>
<!-- Node4&#45;&gt;Node11 -->
<g id="edge10" class="edge">
<title>Node4&#45;&gt;Node11</title>
<path fill="none" stroke="midnightblue" d="M741.35,-280.44C775.9,-271.16 831.18,-256.31 869.08,-246.13"/>
<polygon fill="midnightblue" stroke="midnightblue" points="870.05,-249.49 878.8,-243.52 868.23,-242.73 870.05,-249.49"/>
</g>
<!-- Node12 -->
<g id="node12" class="node">
<title>Node12</title>
<g id="a_node12"><a xlink:title=" ">
<polygon fill="white" stroke="#bfbfbf" points="967,-224.5 967,-243.5 1068,-243.5 1068,-224.5 967,-224.5"/>
<text text-anchor="middle" x="1017.5" y="-231.5" font-family="Helvetica,sans-Serif" font-size="10.00">SFML/OpenGL.hpp</text>
</a>
</g>
</g>
<!-- Node4&#45;&gt;Node12 -->
<g id="edge11" class="edge">
<title>Node4&#45;&gt;Node12</title>
<path fill="none" stroke="midnightblue" d="M758.3,-280.44C812.71,-270.9 900.67,-255.48 958.79,-245.29"/>
<polygon fill="midnightblue" stroke="midnightblue" points="959.68,-248.69 968.92,-243.52 958.47,-241.8 959.68,-248.69"/>
</g>
<!-- Node13 -->
<g id="node13" class="node">
<title>Node13</title>
<g id="a_node13"><a xlink:href="../../df/d74/SceneManager_8hpp.html" target="_top" xlink:title="Define the scene manager (creating, handling and destroying them)">
<polygon fill="white" stroke="black" points="1086.5,-224.5 1086.5,-243.5 1238.5,-243.5 1238.5,-224.5 1086.5,-224.5"/>
<text text-anchor="middle" x="1162.5" y="-231.5" font-family="Helvetica,sans-Serif" font-size="10.00">Small/Core/SceneManager.hpp</text>
</a>
</g>
</g>
<!-- Node4&#45;&gt;Node13 -->
<g id="edge12" class="edge">
<title>Node4&#45;&gt;Node13</title>
<path fill="none" stroke="midnightblue" d="M776.83,-280.97C857.91,-271.31 994.02,-255.08 1080.97,-244.72"/>
<polygon fill="midnightblue" stroke="midnightblue" points="1081.54,-248.18 1091.06,-243.52 1080.71,-241.22 1081.54,-248.18"/>
</g>
<!-- Node21 -->
<g id="node21" class="node">
<title>Node21</title>
<g id="a_node21"><a xlink:href="../../df/db4/Config_8hpp.html" target="_top" xlink:title=" ">
<polygon fill="white" stroke="black" points="753,-112.5 753,-131.5 884,-131.5 884,-112.5 753,-112.5"/>
<text text-anchor="middle" x="818.5" y="-119.5" font-family="Helvetica,sans-Serif" font-size="10.00">Small/Scripting/Config.hpp</text>
</a>
</g>
</g>
<!-- Node4&#45;&gt;Node21 -->
<g id="edge54" class="edge">
<title>Node4&#45;&gt;Node21</title>
<path fill="none" stroke="midnightblue" d="M710.82,-280.11C713.02,-267.12 718.24,-242.51 728.5,-224 747.61,-189.52 780.36,-156.83 800.64,-138.41"/>
<polygon fill="midnightblue" stroke="midnightblue" points="803.1,-140.9 808.25,-131.64 798.45,-135.67 803.1,-140.9"/>
</g>
<!-- Node32 -->
<g id="node32" class="node">
<title>Node32</title>
<g id="a_node32"><a xlink:href="../../dc/dbc/Profiler_8hpp.html" target="_top" xlink:title="Profiler from https://github.com/bwrsandman/imgui&#45;flame&#45;graph/ (example/main.cpp),...">
<polygon fill="white" stroke="black" points="1561.5,-224.5 1561.5,-243.5 1685.5,-243.5 1685.5,-224.5 1561.5,-224.5"/>
<text text-anchor="middle" x="1623.5" y="-231.5" font-family="Helvetica,sans-Serif" font-size="10.00">Small/Debug/Profiler.hpp</text>
</a>
</g>
</g>
<!-- Node4&#45;&gt;Node32 -->
<g id="edge49" class="edge">
<title>Node4&#45;&gt;Node32</title>
<path fill="none" stroke="midnightblue" d="M776.71,-285.03C944.15,-275.14 1378.82,-249.46 1551.37,-239.26"/>
<polygon fill="midnightblue" stroke="midnightblue" points="1551.59,-242.75 1561.36,-238.67 1551.18,-235.77 1551.59,-242.75"/>
</g>
<!-- Node36 -->
<g id="node36" class="node">
<title>Node36</title>
<g id="a_node36"><a xlink:title=" ">
<polygon fill="white" stroke="#bfbfbf" points="189.5,-168.5 189.5,-187.5 257.5,-187.5 257.5,-168.5 189.5,-168.5"/>
<text text-anchor="middle" x="223.5" y="-175.5" font-family="Helvetica,sans-Serif" font-size="10.00">Ark/Ark.hpp</text>
</a>
</g>
</g>
<!-- Node4&#45;&gt;Node36 -->
<g id="edge53" class="edge">
<title>Node4&#45;&gt;Node36</title>
<path fill="none" stroke="midnightblue" d="M642.38,-284.39C576.39,-278.75 473.25,-266.98 386.5,-244 336.86,-230.85 281.92,-206.84 250.18,-191.97"/>
<polygon fill="midnightblue" stroke="midnightblue" points="251.65,-188.79 241.11,-187.67 248.65,-195.11 251.65,-188.79"/>
</g>
<!-- Node37 -->
<g id="node37" class="node">
<title>Node37</title>
<g id="a_node37"><a xlink:href="../../d8/d82/SFMLtoArk_8hpp.html" target="_top" xlink:title="Convert SFML values to ArkScript values.">
<polygon fill="white" stroke="black" points="395.5,-224.5 395.5,-243.5 549.5,-243.5 549.5,-224.5 395.5,-224.5"/>
<text text-anchor="middle" x="472.5" y="-231.5" font-family="Helvetica,sans-Serif" font-size="10.00">Small/Scripting/SFMLtoArk.hpp</text>
</a>
</g>
</g>
<!-- Node4&#45;&gt;Node37 -->
<g id="edge55" class="edge">
<title>Node4&#45;&gt;Node37</title>
<path fill="none" stroke="midnightblue" d="M671.95,-280.44C630.69,-271.04 564.36,-255.93 519.63,-245.74"/>
<polygon fill="midnightblue" stroke="midnightblue" points="520.41,-242.33 509.88,-243.52 518.85,-249.15 520.41,-242.33"/>
</g>
<!-- Node40 -->
<g id="node40" class="node">
<title>Node40</title>
<g id="a_node40"><a xlink:title=" ">
<polygon fill="white" stroke="#bfbfbf" points="1257,-224.5 1257,-243.5 1334,-243.5 1334,-224.5 1257,-224.5"/>
<text text-anchor="middle" x="1295.5" y="-231.5" font-family="Helvetica,sans-Serif" font-size="10.00">Application.inl</text>
</a>
</g>
</g>
<!-- Node4&#45;&gt;Node40 -->
<g id="edge60" class="edge">
<title>Node4&#45;&gt;Node40</title>
<path fill="none" stroke="midnightblue" d="M776.84,-285.58C877.05,-279.99 1071.53,-267.28 1246.86,-243.94"/>
<polygon fill="midnightblue" stroke="midnightblue" points="1247.34,-247.41 1256.78,-242.61 1246.4,-240.47 1247.34,-247.41"/>
</g>
<!-- Node13&#45;&gt;Node7 -->
<g id="edge18" class="edge">
<title>Node13&#45;&gt;Node7</title>
<path fill="none" stroke="midnightblue" d="M1086.07,-224.94C1082.84,-224.62 1079.64,-224.3 1076.5,-224 894.86,-206.5 847.63,-217.21 667.5,-188 583.41,-174.36 486.84,-149.03 434.06,-134.34"/>
<polygon fill="midnightblue" stroke="midnightblue" points="434.68,-130.88 424.11,-131.55 432.79,-137.62 434.68,-130.88"/>
</g>
<!-- Node13&#45;&gt;Node8 -->
<g id="edge20" class="edge">
<title>Node13&#45;&gt;Node8</title>
<path fill="none" stroke="midnightblue" d="M1086.17,-224.99C971.82,-212.93 767.65,-191.2 751.5,-188 682.78,-174.37 604.63,-149.47 561.18,-134.77"/>
<polygon fill="midnightblue" stroke="midnightblue" points="562.28,-131.44 551.69,-131.52 560.02,-138.07 562.28,-131.44"/>
</g>
<!-- Node13&#45;&gt;Node9 -->
<g id="edge19" class="edge">
<title>Node13&#45;&gt;Node9</title>
<path fill="none" stroke="midnightblue" d="M1086.38,-224.78C989.31,-214.09 830.84,-195.85 804.5,-188 763.48,-175.77 719.54,-151.94 693.84,-136.78"/>
<polygon fill="midnightblue" stroke="midnightblue" points="695.62,-133.76 685.24,-131.63 692.02,-139.77 695.62,-133.76"/>
</g>
<!-- Node14 -->
<g id="node14" class="node">
<title>Node14</title>
<g id="a_node14"><a xlink:title=" ">
<polygon fill="white" stroke="#bfbfbf" points="1599.5,-56.5 1599.5,-75.5 1641.5,-75.5 1641.5,-56.5 1599.5,-56.5"/>
<text text-anchor="middle" x="1620.5" y="-63.5" font-family="Helvetica,sans-Serif" font-size="10.00">vector</text>
</a>
</g>
</g>
<!-- Node13&#45;&gt;Node14 -->
<g id="edge13" class="edge">
<title>Node13&#45;&gt;Node14</title>
<path fill="none" stroke="midnightblue" d="M1186.16,-224.42C1262.81,-196.64 1504.27,-109.13 1589.96,-78.07"/>
<polygon fill="midnightblue" stroke="midnightblue" points="1591.18,-81.35 1599.39,-74.65 1588.8,-74.77 1591.18,-81.35"/>
</g>
<!-- Node15 -->
<g id="node15" class="node">
<title>Node15</title>
<g id="a_node15"><a xlink:title=" ">
<polygon fill="white" stroke="#bfbfbf" points="1193.5,-56.5 1193.5,-75.5 1245.5,-75.5 1245.5,-56.5 1193.5,-56.5"/>
<text text-anchor="middle" x="1219.5" y="-63.5" font-family="Helvetica,sans-Serif" font-size="10.00">memory</text>
</a>
</g>
</g>
<!-- Node13&#45;&gt;Node15 -->
<g id="edge14" class="edge">
<title>Node13&#45;&gt;Node15</title>
<path fill="none" stroke="midnightblue" d="M1175.81,-224.43C1186.93,-216.46 1202.11,-203.5 1209.5,-188 1225.32,-154.82 1224.22,-110.7 1221.92,-85.94"/>
<polygon fill="midnightblue" stroke="midnightblue" points="1225.37,-85.31 1220.8,-75.75 1218.42,-86.07 1225.37,-85.31"/>
</g>
<!-- Node16 -->
<g id="node16" class="node">
<title>Node16</title>
<g id="a_node16"><a xlink:title=" ">
<polygon fill="white" stroke="#bfbfbf" points="1392.5,-168.5 1392.5,-187.5 1442.5,-187.5 1442.5,-168.5 1392.5,-168.5"/>
<text text-anchor="middle" x="1417.5" y="-175.5" font-family="Helvetica,sans-Serif" font-size="10.00">typeinfo</text>
</a>
</g>
</g>
<!-- Node13&#45;&gt;Node16 -->
<g id="edge15" class="edge">
<title>Node13&#45;&gt;Node16</title>
<path fill="none" stroke="midnightblue" d="M1204.77,-224.47C1248.36,-215.61 1318.26,-201.22 1378.5,-188 1379.76,-187.72 1381.04,-187.44 1382.34,-187.15"/>
<polygon fill="midnightblue" stroke="midnightblue" points="1383.36,-190.51 1392.34,-184.89 1381.82,-183.68 1383.36,-190.51"/>
</g>
<!-- Node17 -->
<g id="node17" class="node">
<title>Node17</title>
<g id="a_node17"><a xlink:title=" ">
<polygon fill="white" stroke="#bfbfbf" points="1460.5,-168.5 1460.5,-187.5 1518.5,-187.5 1518.5,-168.5 1460.5,-168.5"/>
<text text-anchor="middle" x="1489.5" y="-175.5" font-family="Helvetica,sans-Serif" font-size="10.00">functional</text>
</a>
</g>
</g>
<!-- Node13&#45;&gt;Node17 -->
<g id="edge16" class="edge">
<title>Node13&#45;&gt;Node17</title>
<path fill="none" stroke="midnightblue" d="M1226.74,-224.46C1283.18,-216.63 1367.72,-204.09 1450.06,-188.16"/>
<polygon fill="midnightblue" stroke="midnightblue" points="1450.95,-191.56 1460.09,-186.2 1449.61,-184.69 1450.95,-191.56"/>
</g>
<!-- Node18 -->
<g id="node18" class="node">
<title>Node18</title>
<g id="a_node18"><a xlink:title=" ">
<polygon fill="white" stroke="#bfbfbf" points="1092,-56.5 1092,-75.5 1175,-75.5 1175,-56.5 1092,-56.5"/>
<text text-anchor="middle" x="1133.5" y="-63.5" font-family="Helvetica,sans-Serif" font-size="10.00">unordered_map</text>
</a>
</g>
</g>
<!-- Node13&#45;&gt;Node18 -->
<g id="edge17" class="edge">
<title>Node13&#45;&gt;Node18</title>
<path fill="none" stroke="midnightblue" d="M1170.01,-224.41C1176.99,-215.84 1186.98,-201.97 1191.5,-188 1201.91,-155.84 1209.74,-142.18 1194.5,-112 1187.69,-98.52 1174.73,-88.08 1162.5,-80.67"/>
<polygon fill="midnightblue" stroke="midnightblue" points="1163.84,-77.41 1153.41,-75.59 1160.43,-83.52 1163.84,-77.41"/>
</g>
<!-- Node19 -->
<g id="node19" class="node">
<title>Node19</title>
<g id="a_node19"><a xlink:title=" ">
<polygon fill="white" stroke="#bfbfbf" points="1660,-56.5 1660,-75.5 1809,-75.5 1809,-56.5 1660,-56.5"/>
<text text-anchor="middle" x="1734.5" y="-63.5" font-family="Helvetica,sans-Serif" font-size="10.00">SFML/Graphics/Transform.hpp</text>
</a>
</g>
</g>
<!-- Node13&#45;&gt;Node19 -->
<g id="edge21" class="edge">
<title>Node13&#45;&gt;Node19</title>
<path fill="none" stroke="midnightblue" d="M1238.03,-224.48C1340.91,-212.75 1513.97,-192.57 1527.5,-188 1537.41,-184.65 1659.36,-111.98 1711.31,-80.9"/>
<polygon fill="midnightblue" stroke="midnightblue" points="1713.37,-83.74 1720.15,-75.6 1709.77,-77.74 1713.37,-83.74"/>
</g>
<!-- Node20 -->
<g id="node20" class="node">
<title>Node20</title>
<g id="a_node20"><a xlink:href="../../db/de8/Scene_8hpp.html" target="_top" xlink:title="The base scene class and the scene states are defined here.">
<polygon fill="white" stroke="black" points="1068.5,-168.5 1068.5,-187.5 1182.5,-187.5 1182.5,-168.5 1068.5,-168.5"/>
<text text-anchor="middle" x="1125.5" y="-175.5" font-family="Helvetica,sans-Serif" font-size="10.00">Small/Core/Scene.hpp</text>
</a>
</g>
</g>
<!-- Node13&#45;&gt;Node20 -->
<g id="edge22" class="edge">
<title>Node13&#45;&gt;Node20</title>
<path fill="none" stroke="midnightblue" d="M1156.39,-224.08C1151.22,-216.53 1143.65,-205.49 1137.31,-196.23"/>
<polygon fill="midnightblue" stroke="midnightblue" points="1140.04,-194.02 1131.5,-187.75 1134.26,-197.98 1140.04,-194.02"/>
</g>
<!-- Node13&#45;&gt;Node21 -->
<g id="edge46" class="edge">
<title>Node13&#45;&gt;Node21</title>
<path fill="none" stroke="midnightblue" d="M1141.81,-224.41C1120.89,-215.61 1087.71,-201.38 1059.5,-188 1041.9,-179.65 1038.82,-174.62 1020.5,-168 976.26,-152.03 924.45,-140.62 884.37,-133.29"/>
<polygon fill="midnightblue" stroke="midnightblue" points="884.91,-129.83 874.45,-131.51 883.67,-136.72 884.91,-129.83"/>
</g>
<!-- Node30 -->
<g id="node30" class="node">
<title>Node30</title>
<g id="a_node30"><a xlink:title=" ">
<polygon fill="white" stroke="#bfbfbf" points="814,-168.5 814,-187.5 899,-187.5 899,-168.5 814,-168.5"/>
<text text-anchor="middle" x="856.5" y="-175.5" font-family="Helvetica,sans-Serif" font-size="10.00">spdlog/spdlog.h</text>
</a>
</g>
</g>
<!-- Node13&#45;&gt;Node30 -->
<g id="edge47" class="edge">
<title>Node13&#45;&gt;Node30</title>
<path fill="none" stroke="midnightblue" d="M1114.01,-224.44C1058.21,-214.6 966.88,-198.48 909.32,-188.32"/>
<polygon fill="midnightblue" stroke="midnightblue" points="909.78,-184.85 899.33,-186.56 908.57,-191.74 909.78,-184.85"/>
</g>
<!-- Node31 -->
<g id="node31" class="node">
<title>Node31</title>
<g id="a_node31"><a xlink:title=" ">
<polygon fill="white" stroke="#bfbfbf" points="917,-168.5 917,-187.5 1012,-187.5 1012,-168.5 917,-168.5"/>
<text text-anchor="middle" x="964.5" y="-175.5" font-family="Helvetica,sans-Serif" font-size="10.00">SceneManager.inl</text>
</a>
</g>
</g>
<!-- Node13&#45;&gt;Node31 -->
<g id="edge48" class="edge">
<title>Node13&#45;&gt;Node31</title>
<path fill="none" stroke="midnightblue" d="M1131.13,-224.44C1097.24,-215.2 1043.1,-200.44 1005.78,-190.26"/>
<polygon fill="midnightblue" stroke="midnightblue" points="1006.3,-186.77 995.73,-187.52 1004.45,-193.52 1006.3,-186.77"/>
</g>
<!-- Node20&#45;&gt;Node5 -->
<g id="edge23" class="edge">
<title>Node20&#45;&gt;Node5</title>
<path fill="none" stroke="midnightblue" d="M1071.68,-168.49C1032.1,-161.29 977.43,-149.34 931.5,-132 928.43,-130.84 829.75,-78.39 827.5,-76 815.02,-62.72 806.99,-43.33 802.41,-29.19"/>
<polygon fill="midnightblue" stroke="midnightblue" points="805.76,-28.17 799.57,-19.58 799.05,-30.16 805.76,-28.17"/>
</g>
<!-- Node20&#45;&gt;Node7 -->
<g id="edge24" class="edge">
<title>Node20&#45;&gt;Node7</title>
<path fill="none" stroke="midnightblue" d="M1068.3,-171.87C1052.79,-170.54 1036.01,-169.16 1020.5,-168 772.89,-149.5 707.45,-158.15 456.85,-132.06"/>
<polygon fill="midnightblue" stroke="midnightblue" points="457.02,-128.56 446.71,-130.99 456.29,-135.52 457.02,-128.56"/>
</g>
<!-- Node20&#45;&gt;Node8 -->
<g id="edge26" class="edge">
<title>Node20&#45;&gt;Node8</title>
<path fill="none" stroke="midnightblue" d="M1068.28,-172.09C1052.78,-170.76 1035.99,-169.33 1020.5,-168 836.68,-152.26 787.96,-151.67 600.88,-132.11"/>
<polygon fill="midnightblue" stroke="midnightblue" points="601.01,-128.6 590.7,-131.04 600.28,-135.57 601.01,-128.6"/>
</g>
<!-- Node20&#45;&gt;Node9 -->
<g id="edge25" class="edge">
<title>Node20&#45;&gt;Node9</title>
<path fill="none" stroke="midnightblue" d="M1068.21,-170.38C995.52,-161.95 866.01,-146.84 744.91,-132.16"/>
<polygon fill="midnightblue" stroke="midnightblue" points="745.06,-128.66 734.71,-130.93 744.22,-135.61 745.06,-128.66"/>
</g>
<!-- Node20&#45;&gt;Node21 -->
<g id="edge27" class="edge">
<title>Node20&#45;&gt;Node21</title>
<path fill="none" stroke="midnightblue" d="M1076.85,-168.44C1022.63,-158.9 934.95,-143.48 877.02,-133.29"/>
<polygon fill="midnightblue" stroke="midnightblue" points="877.37,-129.8 866.92,-131.52 876.16,-136.7 877.37,-129.8"/>
</g>
<!-- Node22 -->
<g id="node22" class="node">
<title>Node22</title>
<g id="a_node22"><a xlink:href="../../d7/dc6/Node_8hpp.html" target="_top" xlink:title="A scene graph node.">
<polygon fill="white" stroke="black" points="1280.5,-112.5 1280.5,-131.5 1408.5,-131.5 1408.5,-112.5 1280.5,-112.5"/>
<text text-anchor="middle" x="1344.5" y="-119.5" font-family="Helvetica,sans-Serif" font-size="10.00">Small/Graphics/Node.hpp</text>
</a>
</g>
</g>
<!-- Node20&#45;&gt;Node22 -->
<g id="edge29" class="edge">
<title>Node20&#45;&gt;Node22</title>
<path fill="none" stroke="midnightblue" d="M1160.2,-168.44C1198.08,-159.1 1258.85,-144.12 1300.16,-133.93"/>
<polygon fill="midnightblue" stroke="midnightblue" points="1301.09,-137.31 1309.96,-131.52 1299.41,-130.51 1301.09,-137.31"/>
</g>
<!-- Node25 -->
<g id="node25" class="node">
<title>Node25</title>
<g id="a_node25"><a xlink:href="../../dc/d6f/RessourceManager_8hpp.html" target="_top" xlink:title=" ">
<polygon fill="white" stroke="black" points="940.5,-112.5 940.5,-131.5 1110.5,-131.5 1110.5,-112.5 940.5,-112.5"/>
<text text-anchor="middle" x="1025.5" y="-119.5" font-family="Helvetica,sans-Serif" font-size="10.00">Small/Core/RessourceManager.hpp</text>
</a>
</g>
</g>
<!-- Node20&#45;&gt;Node25 -->
<g id="edge35" class="edge">
<title>Node20&#45;&gt;Node25</title>
<path fill="none" stroke="midnightblue" d="M1109.43,-168.32C1093.54,-159.74 1068.99,-146.49 1050.54,-136.52"/>
<polygon fill="midnightblue" stroke="midnightblue" points="1051.99,-133.33 1041.53,-131.65 1048.66,-139.49 1051.99,-133.33"/>
</g>
<!-- Node29 -->
<g id="node29" class="node">
<title>Node29</title>
<g id="a_node29"><a xlink:title=" ">
<polygon fill="white" stroke="#bfbfbf" points="1129,-112.5 1129,-131.5 1186,-131.5 1186,-112.5 1129,-112.5"/>
<text text-anchor="middle" x="1157.5" y="-119.5" font-family="Helvetica,sans-Serif" font-size="10.00">Scene.inl</text>
</a>
</g>
</g>
<!-- Node20&#45;&gt;Node29 -->
<g id="edge45" class="edge">
<title>Node20&#45;&gt;Node29</title>
<path fill="none" stroke="midnightblue" d="M1130.78,-168.08C1135.21,-160.61 1141.66,-149.72 1147.12,-140.52"/>
<polygon fill="midnightblue" stroke="midnightblue" points="1150.23,-142.14 1152.31,-131.75 1144.21,-138.57 1150.23,-142.14"/>
</g>
<!-- Node21&#45;&gt;Node5 -->
<g id="edge28" class="edge">
<title>Node21&#45;&gt;Node5</title>
<path fill="none" stroke="midnightblue" d="M808.94,-112.45C800.41,-104.12 788.51,-90.6 783.5,-76 778.18,-60.49 783.07,-42.18 788.48,-28.96"/>
<polygon fill="midnightblue" stroke="midnightblue" points="791.79,-30.14 792.75,-19.59 785.42,-27.24 791.79,-30.14"/>
</g>
<!-- Node22&#45;&gt;Node14 -->
<g id="edge33" class="edge">
<title>Node22&#45;&gt;Node14</title>
<path fill="none" stroke="midnightblue" d="M1399.81,-112.48C1449.68,-104.41 1524.9,-91.27 1589.5,-76 1589.6,-75.98 1589.7,-75.95 1589.8,-75.93"/>
<polygon fill="midnightblue" stroke="midnightblue" points="1590.43,-79.38 1599.23,-73.48 1588.67,-72.61 1590.43,-79.38"/>
</g>
<!-- Node22&#45;&gt;Node15 -->
<g id="edge34" class="edge">
<title>Node22&#45;&gt;Node15</title>
<path fill="none" stroke="midnightblue" d="M1324.69,-112.44C1304.21,-103.6 1272.02,-89.69 1248.64,-79.59"/>
<polygon fill="midnightblue" stroke="midnightblue" points="1249.78,-76.27 1239.21,-75.52 1247.01,-82.7 1249.78,-76.27"/>
</g>
<!-- Node22&#45;&gt;Node19 -->
<g id="edge31" class="edge">
<title>Node22&#45;&gt;Node19</title>
<path fill="none" stroke="midnightblue" d="M1406.3,-112.44C1476.04,-102.79 1589.34,-87.1 1662.89,-76.92"/>
<polygon fill="midnightblue" stroke="midnightblue" points="1663.57,-80.35 1672.99,-75.52 1662.61,-73.42 1663.57,-80.35"/>
</g>
<!-- Node23 -->
<g id="node23" class="node">
<title>Node23</title>
<g id="a_node23"><a xlink:title=" ">
<polygon fill="white" stroke="#bfbfbf" points="1263.5,-56.5 1263.5,-75.5 1427.5,-75.5 1427.5,-56.5 1263.5,-56.5"/>
<text text-anchor="middle" x="1345.5" y="-63.5" font-family="Helvetica,sans-Serif" font-size="10.00">SFML/Graphics/RenderTarget.hpp</text>
</a>
</g>
</g>
<!-- Node22&#45;&gt;Node23 -->
<g id="edge30" class="edge">
<title>Node22&#45;&gt;Node23</title>
<path fill="none" stroke="midnightblue" d="M1344.67,-112.08C1344.8,-105.01 1344.98,-94.86 1345.15,-85.99"/>
<polygon fill="midnightblue" stroke="midnightblue" points="1348.65,-85.81 1345.34,-75.75 1341.65,-85.68 1348.65,-85.81"/>
</g>
<!-- Node24 -->
<g id="node24" class="node">
<title>Node24</title>
<g id="a_node24"><a xlink:title=" ">
<polygon fill="white" stroke="#bfbfbf" points="1446,-56.5 1446,-75.5 1581,-75.5 1581,-56.5 1446,-56.5"/>
<text text-anchor="middle" x="1513.5" y="-63.5" font-family="Helvetica,sans-Serif" font-size="10.00">SFML/System/Vector2.hpp</text>
</a>
</g>
</g>
<!-- Node22&#45;&gt;Node24 -->
<g id="edge32" class="edge">
<title>Node22&#45;&gt;Node24</title>
<path fill="none" stroke="midnightblue" d="M1371.28,-112.44C1399.83,-103.32 1445.23,-88.81 1477.04,-78.65"/>
<polygon fill="midnightblue" stroke="midnightblue" points="1478.39,-81.89 1486.85,-75.52 1476.26,-75.23 1478.39,-81.89"/>
</g>
<!-- Node25&#45;&gt;Node5 -->
<g id="edge36" class="edge">
<title>Node25&#45;&gt;Node5</title>
<path fill="none" stroke="midnightblue" d="M956.85,-112.48C924.04,-106.11 885.3,-95.06 854.5,-76 835.03,-63.95 818.52,-43.17 808.36,-28.35"/>
<polygon fill="midnightblue" stroke="midnightblue" points="811.04,-26.07 802.63,-19.63 805.19,-29.91 811.04,-26.07"/>
</g>
<!-- Node25&#45;&gt;Node15 -->
<g id="edge37" class="edge">
<title>Node25&#45;&gt;Node15</title>
<path fill="none" stroke="midnightblue" d="M1056.24,-112.44C1090.81,-102.82 1146.89,-87.21 1183.49,-77.02"/>
<polygon fill="midnightblue" stroke="midnightblue" points="1184.56,-80.36 1193.26,-74.3 1182.69,-73.61 1184.56,-80.36"/>
</g>
<!-- Node25&#45;&gt;Node18 -->
<g id="edge38" class="edge">
<title>Node25&#45;&gt;Node18</title>
<path fill="none" stroke="midnightblue" d="M1042.85,-112.32C1060.17,-103.66 1087.02,-90.24 1107,-80.25"/>
<polygon fill="midnightblue" stroke="midnightblue" points="1108.81,-83.26 1116.19,-75.65 1105.68,-77 1108.81,-83.26"/>
</g>
<!-- Node26 -->
<g id="node26" class="node">
<title>Node26</title>
<g id="a_node26"><a xlink:title=" ">
<polygon fill="white" stroke="#bfbfbf" points="852,-0.5 852,-19.5 991,-19.5 991,-0.5 852,-0.5"/>
<text text-anchor="middle" x="921.5" y="-7.5" font-family="Helvetica,sans-Serif" font-size="10.00">SFML/Graphics/Texture.hpp</text>
</a>
</g>
</g>
<!-- Node25&#45;&gt;Node26 -->
<g id="edge39" class="edge">
<title>Node25&#45;&gt;Node26</title>
<path fill="none" stroke="midnightblue" d="M1024.92,-112.45C1023.6,-99.01 1019.31,-72.77 1005.5,-56 993.37,-41.27 975.12,-30.67 958.72,-23.48"/>
<polygon fill="midnightblue" stroke="midnightblue" points="959.92,-20.19 949.34,-19.63 957.26,-26.67 959.92,-20.19"/>
</g>
<!-- Node27 -->
<g id="node27" class="node">
<title>Node27</title>
<g id="a_node27"><a xlink:title=" ">
<polygon fill="white" stroke="#bfbfbf" points="1009.5,-0.5 1009.5,-19.5 1135.5,-19.5 1135.5,-0.5 1009.5,-0.5"/>
<text text-anchor="middle" x="1072.5" y="-7.5" font-family="Helvetica,sans-Serif" font-size="10.00">SFML/Graphics/Font.hpp</text>
</a>
</g>
</g>
<!-- Node25&#45;&gt;Node27 -->
<g id="edge40" class="edge">
<title>Node25&#45;&gt;Node27</title>
<path fill="none" stroke="midnightblue" d="M1029.19,-112.37C1036.84,-94.46 1054.59,-52.92 1064.83,-28.95"/>
<polygon fill="midnightblue" stroke="midnightblue" points="1068.12,-30.16 1068.83,-19.59 1061.68,-27.41 1068.12,-30.16"/>
</g>
<!-- Node28 -->
<g id="node28" class="node">
<title>Node28</title>
<g id="a_node28"><a xlink:href="../../db/d73/Ressource_8hpp.html" target="_top" xlink:title=" ">
<polygon fill="white" stroke="black" points="864,-56.5 864,-75.5 997,-75.5 997,-56.5 864,-56.5"/>
<text text-anchor="middle" x="930.5" y="-63.5" font-family="Helvetica,sans-Serif" font-size="10.00">Small/Core/Ressource.hpp</text>
</a>
</g>
</g>
<!-- Node25&#45;&gt;Node28 -->
<g id="edge41" class="edge">
<title>Node25&#45;&gt;Node28</title>
<path fill="none" stroke="midnightblue" d="M1010.24,-112.32C995.28,-103.82 972.25,-90.73 954.77,-80.8"/>
<polygon fill="midnightblue" stroke="midnightblue" points="956.15,-77.55 945.73,-75.65 952.69,-83.64 956.15,-77.55"/>
</g>
<!-- Node28&#45;&gt;Node5 -->
<g id="edge42" class="edge">
<title>Node28&#45;&gt;Node5</title>
<path fill="none" stroke="midnightblue" d="M909.43,-56.44C887.31,-47.46 852.36,-33.27 827.4,-23.14"/>
<polygon fill="midnightblue" stroke="midnightblue" points="828.62,-19.86 818.04,-19.34 825.99,-26.34 828.62,-19.86"/>
</g>
<!-- Node28&#45;&gt;Node26 -->
<g id="edge43" class="edge">
<title>Node28&#45;&gt;Node26</title>
<path fill="none" stroke="midnightblue" d="M929.01,-56.08C927.82,-48.93 926.11,-38.64 924.62,-29.69"/>
<polygon fill="midnightblue" stroke="midnightblue" points="928.05,-29.04 922.96,-19.75 921.15,-30.19 928.05,-29.04"/>
</g>
<!-- Node28&#45;&gt;Node27 -->
<g id="edge44" class="edge">
<title>Node28&#45;&gt;Node27</title>
<path fill="none" stroke="midnightblue" d="M953,-56.44C976.58,-47.48 1013.82,-33.31 1040.46,-23.18"/>
<polygon fill="midnightblue" stroke="midnightblue" points="1042,-26.34 1050.1,-19.52 1039.51,-19.8 1042,-26.34"/>
</g>
<!-- Node33 -->
<g id="node33" class="node">
<title>Node33</title>
<g id="a_node33"><a xlink:title=" ">
<polygon fill="white" stroke="#bfbfbf" points="1574.5,-168.5 1574.5,-187.5 1612.5,-187.5 1612.5,-168.5 1574.5,-168.5"/>
<text text-anchor="middle" x="1593.5" y="-175.5" font-family="Helvetica,sans-Serif" font-size="10.00">array</text>
</a>
</g>
</g>
<!-- Node32&#45;&gt;Node33 -->
<g id="edge50" class="edge">
<title>Node32&#45;&gt;Node33</title>
<path fill="none" stroke="midnightblue" d="M1618.55,-224.08C1614.4,-216.61 1608.35,-205.72 1603.23,-196.52"/>
<polygon fill="midnightblue" stroke="midnightblue" points="1606.28,-194.79 1598.36,-187.75 1600.16,-198.19 1606.28,-194.79"/>
</g>
<!-- Node34 -->
<g id="node34" class="node">
<title>Node34</title>
<g id="a_node34"><a xlink:title=" ">
<polygon fill="white" stroke="#bfbfbf" points="1630.5,-168.5 1630.5,-187.5 1676.5,-187.5 1676.5,-168.5 1630.5,-168.5"/>
<text text-anchor="middle" x="1653.5" y="-175.5" font-family="Helvetica,sans-Serif" font-size="10.00">chrono</text>
</a>
</g>
</g>
<!-- Node32&#45;&gt;Node34 -->
<g id="edge51" class="edge">
<title>Node32&#45;&gt;Node34</title>
<path fill="none" stroke="midnightblue" d="M1628.45,-224.08C1632.6,-216.61 1638.65,-205.72 1643.77,-196.52"/>
<polygon fill="midnightblue" stroke="midnightblue" points="1646.84,-198.19 1648.64,-187.75 1640.72,-194.79 1646.84,-198.19"/>
</g>
<!-- Node35 -->
<g id="node35" class="node">
<title>Node35</title>
<g id="a_node35"><a xlink:title=" ">
<polygon fill="white" stroke="#bfbfbf" points="1694.5,-168.5 1694.5,-187.5 1838.5,-187.5 1838.5,-168.5 1694.5,-168.5"/>
<text text-anchor="middle" x="1766.5" y="-175.5" font-family="Helvetica,sans-Serif" font-size="10.00">imgui_widget_flamegraph.hpp</text>
</a>
</g>
</g>
<!-- Node32&#45;&gt;Node35 -->
<g id="edge52" class="edge">
<title>Node32&#45;&gt;Node35</title>
<path fill="none" stroke="midnightblue" d="M1646.16,-224.44C1669.9,-215.48 1707.41,-201.31 1734.24,-191.18"/>
<polygon fill="midnightblue" stroke="midnightblue" points="1735.83,-194.32 1743.95,-187.52 1733.36,-187.77 1735.83,-194.32"/>
</g>
<!-- Node37&#45;&gt;Node8 -->
<g id="edge57" class="edge">
<title>Node37&#45;&gt;Node8</title>
<path fill="none" stroke="midnightblue" d="M494.31,-224.45C509.44,-217.22 528.45,-205.26 537.5,-188 545.19,-173.33 540.95,-154.42 535.84,-140.78"/>
<polygon fill="midnightblue" stroke="midnightblue" points="539.05,-139.39 531.94,-131.54 532.6,-142.11 539.05,-139.39"/>
</g>
<!-- Node37&#45;&gt;Node36 -->
<g id="edge56" class="edge">
<title>Node37&#45;&gt;Node36</title>
<path fill="none" stroke="midnightblue" d="M433.05,-224.44C387.95,-214.66 314.33,-198.7 267.44,-188.53"/>
<polygon fill="midnightblue" stroke="midnightblue" points="268.08,-185.09 257.57,-186.39 266.6,-191.93 268.08,-185.09"/>
</g>
<!-- Node38 -->
<g id="node38" class="node">
<title>Node38</title>
<g id="a_node38"><a xlink:title=" ">
<polygon fill="white" stroke="#bfbfbf" points="275.5,-168.5 275.5,-187.5 397.5,-187.5 397.5,-168.5 275.5,-168.5"/>
<text text-anchor="middle" x="336.5" y="-175.5" font-family="Helvetica,sans-Serif" font-size="10.00">SFML/System/Time.hpp</text>
</a>
</g>
</g>
<!-- Node37&#45;&gt;Node38 -->
<g id="edge58" class="edge">
<title>Node37&#45;&gt;Node38</title>
<path fill="none" stroke="midnightblue" d="M450.95,-224.44C428.47,-215.52 393.01,-201.44 367.52,-191.32"/>
<polygon fill="midnightblue" stroke="midnightblue" points="368.53,-187.95 357.95,-187.52 365.95,-194.46 368.53,-187.95"/>
</g>
<!-- Node39 -->
<g id="node39" class="node">
<title>Node39</title>
<g id="a_node39"><a xlink:title=" ">
<polygon fill="white" stroke="#bfbfbf" points="416,-168.5 416,-187.5 529,-187.5 529,-168.5 416,-168.5"/>
<text text-anchor="middle" x="472.5" y="-175.5" font-family="Helvetica,sans-Serif" font-size="10.00">SFML/System/Utf.hpp</text>
</a>
</g>
</g>
<!-- Node37&#45;&gt;Node39 -->
<g id="edge59" class="edge">
<title>Node37&#45;&gt;Node39</title>
<path fill="none" stroke="midnightblue" d="M472.5,-224.08C472.5,-217.01 472.5,-206.86 472.5,-197.99"/>
<polygon fill="midnightblue" stroke="midnightblue" points="476,-197.75 472.5,-187.75 469,-197.75 476,-197.75"/>
</g>
</g>
</svg>
