<?xml version="1.0" encoding="UTF-8" standalone="no"?>
<!DOCTYPE svg PUBLIC "-//W3C//DTD SVG 1.1//EN"
 "http://www.w3.org/Graphics/SVG/1.1/DTD/svg11.dtd">
<!-- Generated by graphviz version 2.38.0 (20140413.2041)
 -->
<!-- Title: include/Small/Scenes/Zone.hpp Pages: 1 -->
<!--zoomable 207 -->
<svg id="main" version="1.1" xmlns="http://www.w3.org/2000/svg" xmlns:xlink="http://www.w3.org/1999/xlink" xml:space="preserve" onload="init(evt)">
<style type="text/css"><![CDATA[
.edge:hover path { stroke: red; }
.edge:hover polygon { stroke: red; fill: red; }
]]></style>
<script type="text/javascript"><![CDATA[
var edges = document.getElementsByTagName('g');
if (edges && edges.length) {
  for (var i=0;i<edges.length;i++) {
    if (edges[i].id.substr(0,4)=='edge') {
      edges[i].setAttribute('class','edge');
    }
  }
}
]]></script>
        <defs>
                <circle id="rim" cx="0" cy="0" r="7"/>
                <circle id="rim2" cx="0" cy="0" r="3.5"/>
                <g id="zoomPlus">
                        <use xlink:href="#rim" fill="#404040">
                                <set attributeName="fill" to="#808080" begin="zoomplus.mouseover" end="zoomplus.mouseout"/>
                        </use>
                        <path d="M-4,0h8M0,-4v8" fill="none" stroke="white" stroke-width="1.5" pointer-events="none"/>
                </g>
                <g id="zoomMin">
                        <use xlink:href="#rim" fill="#404040">
                                <set attributeName="fill" to="#808080" begin="zoomminus.mouseover" end="zoomminus.mouseout"/>
                        </use>
                        <path d="M-4,0h8" fill="none" stroke="white" stroke-width="1.5" pointer-events="none"/>
                </g>
                <g id="dirArrow">
                        <path fill="none" stroke="white" stroke-width="1.5" d="M0,-3.0v7 M-2.5,-0.5L0,-3.0L2.5,-0.5"/>
                </g>
               <g id="resetDef">
                       <use xlink:href="#rim2" fill="#404040">
                               <set attributeName="fill" to="#808080" begin="reset.mouseover" end="reset.mouseout"/>
                       </use>
               </g>
        </defs>

<script type="text/javascript">
var viewWidth = 1005;
var viewHeight = 207;
var sectionId = 'dynsection-0';
</script>
<script xlink:href="../../svgpan.js"/>
<svg id="graph" class="graph">
<g id="viewport">
<title>include/Small/Scenes/Zone.hpp</title>
<polygon fill="white" stroke="none" points="-4,4 -4,-203 1001,-203 1001,4 -4,4"/>
<!-- Node1 -->
<g id="node1" class="node"><title>Node1</title>
<polygon fill="#bfbfbf" stroke="black" points="616.5,-168.5 616.5,-198.5 727.5,-198.5 727.5,-168.5 616.5,-168.5"/>
<text text-anchor="start" x="624.5" y="-186.5" font-family="Helvetica,sans-Serif" font-size="10.00">include/Small/Scenes</text>
<text text-anchor="middle" x="672" y="-175.5" font-family="Helvetica,sans-Serif" font-size="10.00">/Zone.hpp</text>
</g>
<!-- Node2 -->
<g id="node2" class="node"><title>Node2</title>
<g id="a_node2"><a xlink:href="../../db/de8/Scene_8hpp.html" target="_top" xlink:title="The base scene class and the scene states are defined here. ">
<polygon fill="white" stroke="black" points="410,-112.5 410,-131.5 524,-131.5 524,-112.5 410,-112.5"/>
<text text-anchor="middle" x="467" y="-119.5" font-family="Helvetica,sans-Serif" font-size="10.00">Small/Core/Scene.hpp</text>
</a>
</g>
</g>
<!-- Node1&#45;&gt;Node2 -->
<g id="edge1" class="edge"><title>Node1&#45;&gt;Node2</title>
<path fill="none" stroke="midnightblue" d="M623.677,-168.475C587.847,-158.075 539.623,-144.078 506.181,-134.372"/>
<polygon fill="midnightblue" stroke="midnightblue" points="506.887,-130.933 496.308,-131.506 504.936,-137.655 506.887,-130.933"/>
</g>
<!-- Node15 -->
<g id="node15" class="node"><title>Node15</title>
<g id="a_node15"><a xlink:href="../../d8/d67/TileView_8hpp.html" target="_top" xlink:title="Utility to build and manipulate views based on tiles. ">
<polygon fill="white" stroke="black" points="770.5,-112.5 770.5,-131.5 911.5,-131.5 911.5,-112.5 770.5,-112.5"/>
<text text-anchor="middle" x="841" y="-119.5" font-family="Helvetica,sans-Serif" font-size="10.00">Small/Graphics/TileView.hpp</text>
</a>
</g>
</g>
<!-- Node1&#45;&gt;Node15 -->
<g id="edge15" class="edge"><title>Node1&#45;&gt;Node15</title>
<path fill="none" stroke="midnightblue" d="M712.051,-168.399C740.912,-158.238 779.445,-144.672 806.853,-135.022"/>
<polygon fill="midnightblue" stroke="midnightblue" points="808.139,-138.28 816.409,-131.658 805.814,-131.677 808.139,-138.28"/>
</g>
<!-- Node3 -->
<g id="node3" class="node"><title>Node3</title>
<polygon fill="white" stroke="#bfbfbf" points="0,-56.5 0,-75.5 104,-75.5 104,-56.5 0,-56.5"/>
<text text-anchor="middle" x="52" y="-63.5" font-family="Helvetica,sans-Serif" font-size="10.00">SFML/Graphics.hpp</text>
</g>
<!-- Node2&#45;&gt;Node3 -->
<g id="edge2" class="edge"><title>Node2&#45;&gt;Node3</title>
<path fill="none" stroke="midnightblue" d="M409.934,-114.103C341.979,-105.81 224.768,-91.2541 114.223,-76.1462"/>
<polygon fill="midnightblue" stroke="midnightblue" points="114.616,-72.6674 104.234,-74.7769 113.666,-79.6026 114.616,-72.6674"/>
</g>
<!-- Node4 -->
<g id="node4" class="node"><title>Node4</title>
<polygon fill="white" stroke="#bfbfbf" points="122,-56.5 122,-75.5 248,-75.5 248,-56.5 122,-56.5"/>
<text text-anchor="middle" x="185" y="-63.5" font-family="Helvetica,sans-Serif" font-size="10.00">SFML/System/Clock.hpp</text>
</g>
<!-- Node2&#45;&gt;Node4 -->
<g id="edge3" class="edge"><title>Node2&#45;&gt;Node4</title>
<path fill="none" stroke="midnightblue" d="M422.316,-112.444C372.71,-102.944 292.635,-87.611 239.415,-77.4198"/>
<polygon fill="midnightblue" stroke="midnightblue" points="239.955,-73.9597 229.475,-75.5164 238.638,-80.8348 239.955,-73.9597"/>
</g>
<!-- Node5 -->
<g id="node5" class="node"><title>Node5</title>
<polygon fill="white" stroke="#bfbfbf" points="266,-56.5 266,-75.5 392,-75.5 392,-56.5 266,-56.5"/>
<text text-anchor="middle" x="329" y="-63.5" font-family="Helvetica,sans-Serif" font-size="10.00">SFML/Window/Event.hpp</text>
</g>
<!-- Node2&#45;&gt;Node5 -->
<g id="edge4" class="edge"><title>Node2&#45;&gt;Node5</title>
<path fill="none" stroke="midnightblue" d="M445.133,-112.444C422.221,-103.478 386.025,-89.314 360.134,-79.1827"/>
<polygon fill="midnightblue" stroke="midnightblue" points="361.352,-75.9011 350.764,-75.5164 358.801,-82.4198 361.352,-75.9011"/>
</g>
<!-- Node6 -->
<g id="node6" class="node"><title>Node6</title>
<polygon fill="white" stroke="#bfbfbf" points="314.5,-0.5 314.5,-19.5 355.5,-19.5 355.5,-0.5 314.5,-0.5"/>
<text text-anchor="middle" x="335" y="-7.5" font-family="Helvetica,sans-Serif" font-size="10.00">string</text>
</g>
<!-- Node2&#45;&gt;Node6 -->
<g id="edge5" class="edge"><title>Node2&#45;&gt;Node6</title>
<path fill="none" stroke="midnightblue" d="M458.915,-112.076C446.906,-99.0504 423.361,-74.3839 401,-56 387.38,-44.8024 371.009,-33.6278 357.98,-25.2153"/>
<polygon fill="midnightblue" stroke="midnightblue" points="359.487,-22.0262 349.17,-19.617 355.733,-27.9343 359.487,-22.0262"/>
</g>
<!-- Node7 -->
<g id="node7" class="node"><title>Node7</title>
<g id="a_node7"><a xlink:href="../../df/db4/Config_8hpp.html" target="_top" xlink:title="Small/Scripting/Config.hpp">
<polygon fill="white" stroke="black" points="448.5,-56.5 448.5,-75.5 579.5,-75.5 579.5,-56.5 448.5,-56.5"/>
<text text-anchor="middle" x="514" y="-63.5" font-family="Helvetica,sans-Serif" font-size="10.00">Small/Scripting/Config.hpp</text>
</a>
</g>
</g>
<!-- Node2&#45;&gt;Node7 -->
<g id="edge6" class="edge"><title>Node2&#45;&gt;Node7</title>
<path fill="none" stroke="midnightblue" d="M474.761,-112.083C481.537,-104.298 491.543,-92.8015 499.755,-83.3665"/>
<polygon fill="midnightblue" stroke="midnightblue" points="502.458,-85.592 506.383,-75.7511 497.178,-80.9963 502.458,-85.592"/>
</g>
<!-- Node8 -->
<g id="node8" class="node"><title>Node8</title>
<g id="a_node8"><a xlink:href="../../d7/dc6/Node_8hpp.html" target="_top" xlink:title="A scene graph node. ">
<polygon fill="white" stroke="black" points="598,-56.5 598,-75.5 726,-75.5 726,-56.5 598,-56.5"/>
<text text-anchor="middle" x="662" y="-63.5" font-family="Helvetica,sans-Serif" font-size="10.00">Small/Graphics/Node.hpp</text>
</a>
</g>
</g>
<!-- Node2&#45;&gt;Node8 -->
<g id="edge8" class="edge"><title>Node2&#45;&gt;Node8</title>
<path fill="none" stroke="midnightblue" d="M497.898,-112.444C531.274,-103.201 584.594,-88.4356 621.349,-78.2572"/>
<polygon fill="midnightblue" stroke="midnightblue" points="622.543,-81.5583 631.246,-75.5164 620.675,-74.8122 622.543,-81.5583"/>
</g>
<!-- Node14 -->
<g id="node14" class="node"><title>Node14</title>
<polygon fill="white" stroke="#bfbfbf" points="744.5,-56.5 744.5,-75.5 801.5,-75.5 801.5,-56.5 744.5,-56.5"/>
<text text-anchor="middle" x="773" y="-63.5" font-family="Helvetica,sans-Serif" font-size="10.00">Scene.inl</text>
</g>
<!-- Node2&#45;&gt;Node14 -->
<g id="edge14" class="edge"><title>Node2&#45;&gt;Node14</title>
<path fill="none" stroke="midnightblue" d="M524.187,-112.521C576.354,-104.531 655.784,-91.7331 734.339,-76.0176"/>
<polygon fill="midnightblue" stroke="midnightblue" points="735.301,-79.394 744.411,-73.9852 733.916,-72.5323 735.301,-79.394"/>
</g>
<!-- Node7&#45;&gt;Node6 -->
<g id="edge7" class="edge"><title>Node7&#45;&gt;Node6</title>
<path fill="none" stroke="midnightblue" d="M485.22,-56.4539C456.952,-48.0409 412.35,-34.7152 365.335,-20.3894"/>
<polygon fill="midnightblue" stroke="midnightblue" points="366.174,-16.9862 355.588,-17.4156 364.131,-23.6815 366.174,-16.9862"/>
</g>
<!-- Node9 -->
<g id="node9" class="node"><title>Node9</title>
<polygon fill="white" stroke="#bfbfbf" points="824,-0.5 824,-19.5 988,-19.5 988,-0.5 824,-0.5"/>
<text text-anchor="middle" x="906" y="-7.5" font-family="Helvetica,sans-Serif" font-size="10.00">SFML/Graphics/RenderTarget.hpp</text>
</g>
<!-- Node8&#45;&gt;Node9 -->
<g id="edge9" class="edge"><title>Node8&#45;&gt;Node9</title>
<path fill="none" stroke="midnightblue" d="M700.663,-56.4435C743.138,-47.0431 811.431,-31.9291 857.474,-21.7393"/>
<polygon fill="midnightblue" stroke="midnightblue" points="858.511,-25.0946 867.518,-19.5164 856.998,-18.26 858.511,-25.0946"/>
</g>
<!-- Node10 -->
<g id="node10" class="node"><title>Node10</title>
<polygon fill="white" stroke="#bfbfbf" points="373.5,-0.5 373.5,-19.5 522.5,-19.5 522.5,-0.5 373.5,-0.5"/>
<text text-anchor="middle" x="448" y="-7.5" font-family="Helvetica,sans-Serif" font-size="10.00">SFML/Graphics/Transform.hpp</text>
</g>
<!-- Node8&#45;&gt;Node10 -->
<g id="edge10" class="edge"><title>Node8&#45;&gt;Node10</title>
<path fill="none" stroke="midnightblue" d="M628.091,-56.4435C591.151,-47.1221 531.946,-32.1828 491.582,-21.9972"/>
<polygon fill="midnightblue" stroke="midnightblue" points="492.303,-18.5695 481.75,-19.5164 490.59,-25.3568 492.303,-18.5695"/>
</g>
<!-- Node11 -->
<g id="node11" class="node"><title>Node11</title>
<polygon fill="white" stroke="#bfbfbf" points="540.5,-0.5 540.5,-19.5 675.5,-19.5 675.5,-0.5 540.5,-0.5"/>
<text text-anchor="middle" x="608" y="-7.5" font-family="Helvetica,sans-Serif" font-size="10.00">SFML/System/Vector2.hpp</text>
</g>
<!-- Node8&#45;&gt;Node11 -->
<g id="edge11" class="edge"><title>Node8&#45;&gt;Node11</title>
<path fill="none" stroke="midnightblue" d="M653.083,-56.083C645.22,-48.2195 633.569,-36.5688 624.081,-27.0813"/>
<polygon fill="midnightblue" stroke="midnightblue" points="626.297,-24.3473 616.751,-19.7511 621.347,-29.2971 626.297,-24.3473"/>
</g>
<!-- Node12 -->
<g id="node12" class="node"><title>Node12</title>
<polygon fill="white" stroke="#bfbfbf" points="694,-0.5 694,-19.5 736,-19.5 736,-0.5 694,-0.5"/>
<text text-anchor="middle" x="715" y="-7.5" font-family="Helvetica,sans-Serif" font-size="10.00">vector</text>
</g>
<!-- Node8&#45;&gt;Node12 -->
<g id="edge12" class="edge"><title>Node8&#45;&gt;Node12</title>
<path fill="none" stroke="midnightblue" d="M670.752,-56.083C678.47,-48.2195 689.905,-36.5688 699.217,-27.0813"/>
<polygon fill="midnightblue" stroke="midnightblue" points="701.904,-29.3396 706.411,-19.7511 696.908,-24.4363 701.904,-29.3396"/>
</g>
<!-- Node13 -->
<g id="node13" class="node"><title>Node13</title>
<polygon fill="white" stroke="#bfbfbf" points="754,-0.5 754,-19.5 806,-19.5 806,-0.5 754,-0.5"/>
<text text-anchor="middle" x="780" y="-7.5" font-family="Helvetica,sans-Serif" font-size="10.00">memory</text>
</g>
<!-- Node8&#45;&gt;Node13 -->
<g id="edge13" class="edge"><title>Node8&#45;&gt;Node13</title>
<path fill="none" stroke="midnightblue" d="M680.697,-56.4435C699.944,-47.6356 730.152,-33.8116 752.2,-23.722"/>
<polygon fill="midnightblue" stroke="midnightblue" points="753.753,-26.8603 761.39,-19.5164 750.84,-20.4951 753.753,-26.8603"/>
</g>
<!-- Node15&#45;&gt;Node9 -->
<g id="edge17" class="edge"><title>Node15&#45;&gt;Node9</title>
<path fill="none" stroke="midnightblue" d="M842.085,-112.446C844.033,-99.4609 848.992,-74.3487 860,-56 866.777,-44.7045 877.069,-34.2681 886.201,-26.2955"/>
<polygon fill="midnightblue" stroke="midnightblue" points="888.67,-28.7942 894.127,-19.7124 884.198,-23.4092 888.67,-28.7942"/>
</g>
<!-- Node16 -->
<g id="node16" class="node"><title>Node16</title>
<polygon fill="white" stroke="#bfbfbf" points="869,-56.5 869,-75.5 997,-75.5 997,-56.5 869,-56.5"/>
<text text-anchor="middle" x="933" y="-63.5" font-family="Helvetica,sans-Serif" font-size="10.00">SFML/Graphics/View.hpp</text>
</g>
<!-- Node15&#45;&gt;Node16 -->
<g id="edge16" class="edge"><title>Node15&#45;&gt;Node16</title>
<path fill="none" stroke="midnightblue" d="M855.781,-112.324C870.267,-103.822 892.573,-90.7288 909.493,-80.7975"/>
<polygon fill="midnightblue" stroke="midnightblue" points="911.403,-83.735 918.255,-75.6545 907.859,-77.6981 911.403,-83.735"/>
</g>
</g>
</svg>
        <g id="navigator" transform="translate(0 0)" fill="#404254">
                <rect fill="#f2f5e9" fill-opacity="0.5" stroke="#606060" stroke-width=".5" x="0" y="0" width="60" height="60"/>
                <use id="zoomplus" xlink:href="#zoomPlus" x="17" y="9" onmousedown="handleZoom(evt,'in')"/>
                <use id="zoomminus" xlink:href="#zoomMin" x="42" y="9" onmousedown="handleZoom(evt,'out')"/>
                <use id="reset" xlink:href="#resetDef" x="30" y="36" onmousedown="handleReset()"/>
                <g id="arrowUp" xlink:href="#dirArrow" transform="translate(30 24)" onmousedown="handlePan(0,-1)">
                  <use xlink:href="#rim" fill="#404040">
                        <set attributeName="fill" to="#808080" begin="arrowUp.mouseover" end="arrowUp.mouseout"/>
                  </use>
                  <path fill="none" stroke="white" stroke-width="1.5" d="M0,-3.0v7 M-2.5,-0.5L0,-3.0L2.5,-0.5"/>
                </g>
                <g id="arrowRight" xlink:href="#dirArrow" transform="rotate(90) translate(36 -43)" onmousedown="handlePan(1,0)">
                  <use xlink:href="#rim" fill="#404040">
                        <set attributeName="fill" to="#808080" begin="arrowRight.mouseover" end="arrowRight.mouseout"/>
                  </use>
                  <path fill="none" stroke="white" stroke-width="1.5" d="M0,-3.0v7 M-2.5,-0.5L0,-3.0L2.5,-0.5"/>
                </g>
                <g id="arrowDown" xlink:href="#dirArrow" transform="rotate(180) translate(-30 -48)" onmousedown="handlePan(0,1)">
                  <use xlink:href="#rim" fill="#404040">
                        <set attributeName="fill" to="#808080" begin="arrowDown.mouseover" end="arrowDown.mouseout"/>
                  </use>
                  <path fill="none" stroke="white" stroke-width="1.5" d="M0,-3.0v7 M-2.5,-0.5L0,-3.0L2.5,-0.5"/>
                </g>
                <g id="arrowLeft" xlink:href="#dirArrow" transform="rotate(270) translate(-36 17)" onmousedown="handlePan(-1,0)">
                  <use xlink:href="#rim" fill="#404040">
                        <set attributeName="fill" to="#808080" begin="arrowLeft.mouseover" end="arrowLeft.mouseout"/>
                  </use>
                  <path fill="none" stroke="white" stroke-width="1.5" d="M0,-3.0v7 M-2.5,-0.5L0,-3.0L2.5,-0.5"/>
                </g>
        </g>
        <svg viewBox="0 0 15 15" width="100%" height="30px" preserveAspectRatio="xMaxYMin meet">
         <g id="arrow_out" transform="scale(0.3 0.3)">
          <a xlink:href="Zone_8hpp__incl_org.svg" target="_base">
           <rect id="button" ry="5" rx="5" y="6" x="6" height="38" width="38"
                fill="#f2f5e9" fill-opacity="0.5" stroke="#606060" stroke-width="1.0"/>
           <path id="arrow"
             d="M 11.500037,31.436501 C 11.940474,20.09759 22.043105,11.32322 32.158766,21.979434 L 37.068811,17.246167 C 37.068811,17.246167 37.088388,32 37.088388,32 L 22.160133,31.978069 C 22.160133,31.978069 26.997745,27.140456 26.997745,27.140456 C 18.528582,18.264221 13.291696,25.230495 11.500037,31.436501 z"
             style="fill:#404040;"/>
          </a>
         </g>
        </svg>
</svg>
