<?xml version="1.0" encoding="UTF-8" standalone="no"?>
<!DOCTYPE svg PUBLIC "-//W3C//DTD SVG 1.1//EN"
 "http://www.w3.org/Graphics/SVG/1.1/DTD/svg11.dtd">
<!-- Generated by graphviz version 2.38.0 (20140413.2041)
 -->
<!-- Title: sgl::internal::Profiler::Entry Pages: 1 -->
<svg width="250pt" height="273pt"
 viewBox="0.00 0.00 249.50 273.00" xmlns="http://www.w3.org/2000/svg" xmlns:xlink="http://www.w3.org/1999/xlink">
<g id="graph0" class="graph" transform="scale(1 1) rotate(0) translate(4 269)">
<title>sgl::internal::Profiler::Entry</title>
<polygon fill="white" stroke="none" points="-4,4 -4,-269 245.5,-269 245.5,4 -4,4"/>
<!-- Node1 -->
<g id="node1" class="node"><title>Node1</title>
<polygon fill="#bfbfbf" stroke="black" points="44,-0.5 44,-30.5 147,-30.5 147,-0.5 44,-0.5"/>
<text text-anchor="start" x="52" y="-18.5" font-family="Helvetica,sans-Serif" font-size="10.00">sgl::internal::Profiler</text>
<text text-anchor="middle" x="95.5" y="-7.5" font-family="Helvetica,sans-Serif" font-size="10.00">::Entry</text>
</g>
<!-- Node2 -->
<g id="node2" class="node"><title>Node2</title>
<polygon fill="white" stroke="#bfbfbf" points="16.5,-78.5 16.5,-108.5 174.5,-108.5 174.5,-78.5 16.5,-78.5"/>
<text text-anchor="start" x="24.5" y="-96.5" font-family="Helvetica,sans-Serif" font-size="10.00">std::array&lt; sgl::internal</text>
<text text-anchor="middle" x="95.5" y="-85.5" font-family="Helvetica,sans-Serif" font-size="10.00">::Profiler::Scope, _StageCount &gt;</text>
</g>
<!-- Node2&#45;&gt;Node1 -->
<g id="edge1" class="edge"><title>Node2&#45;&gt;Node1</title>
<path fill="none" stroke="#9a32cd" stroke-dasharray="5,2" d="M95.5,-68.0898C95.5,-55.7565 95.5,-41.2237 95.5,-30.7309"/>
<polygon fill="#9a32cd" stroke="#9a32cd" points="92.0001,-68.2049 95.5,-78.205 99.0001,-68.205 92.0001,-68.2049"/>
<text text-anchor="middle" x="114.5" y="-52" font-family="Helvetica,sans-Serif" font-size="10.00"> _stages</text>
</g>
<!-- Node3 -->
<g id="node3" class="node"><title>Node3</title>
<g id="a_node3"><a xlink:href="../../d2/d0d/structsgl_1_1internal_1_1Profiler_1_1Scope.html" target="_top" xlink:title="sgl::internal::Profiler\l::Scope">
<polygon fill="white" stroke="black" points="0,-167.5 0,-197.5 103,-197.5 103,-167.5 0,-167.5"/>
<text text-anchor="start" x="8" y="-185.5" font-family="Helvetica,sans-Serif" font-size="10.00">sgl::internal::Profiler</text>
<text text-anchor="middle" x="51.5" y="-174.5" font-family="Helvetica,sans-Serif" font-size="10.00">::Scope</text>
</a>
</g>
</g>
<!-- Node3&#45;&gt;Node2 -->
<g id="edge2" class="edge"><title>Node3&#45;&gt;Node2</title>
<path fill="none" stroke="#9a32cd" stroke-dasharray="5,2" d="M60.4345,-157.843C64.3779,-148.111 69.2971,-136.837 74.5,-127 77.7664,-120.824 81.8447,-114.302 85.5361,-108.735"/>
<polygon fill="#9a32cd" stroke="#9a32cd" points="57.1172,-156.715 56.7073,-167.302 63.6298,-159.281 57.1172,-156.715"/>
<text text-anchor="middle" x="96" y="-135.5" font-family="Helvetica,sans-Serif" font-size="10.00"> elements</text>
</g>
<!-- Node4 -->
<g id="node4" class="node"><title>Node4</title>
<g id="a_node4"><a xlink:title="STL class. ">
<polygon fill="white" stroke="#bfbfbf" points="121,-173 121,-192 202,-192 202,-173 121,-173"/>
<text text-anchor="middle" x="161.5" y="-180" font-family="Helvetica,sans-Serif" font-size="10.00">std::array&lt; T &gt;</text>
</a>
</g>
</g>
<!-- Node4&#45;&gt;Node2 -->
<g id="edge3" class="edge"><title>Node4&#45;&gt;Node2</title>
<path fill="none" stroke="orange" stroke-dasharray="5,2" d="M148.774,-164.724C136.389,-148.399 117.784,-123.874 106.157,-108.548"/>
<polygon fill="orange" stroke="orange" points="146.098,-166.988 154.93,-172.84 151.675,-162.758 146.098,-166.988"/>
<text text-anchor="start" x="135.5" y="-141" font-family="Helvetica,sans-Serif" font-size="10.00"> &lt; sgl::internal::Profiler</text>
<text text-anchor="middle" x="188.5" y="-130" font-family="Helvetica,sans-Serif" font-size="10.00">::Scope, _StageCount &gt;</text>
</g>
<!-- Node5 -->
<g id="node5" class="node"><title>Node5</title>
<polygon fill="white" stroke="#bfbfbf" points="147,-245.5 147,-264.5 176,-264.5 176,-245.5 147,-245.5"/>
<text text-anchor="middle" x="161.5" y="-252.5" font-family="Helvetica,sans-Serif" font-size="10.00">T</text>
</g>
<!-- Node5&#45;&gt;Node4 -->
<g id="edge4" class="edge"><title>Node5&#45;&gt;Node4</title>
<path fill="none" stroke="#9a32cd" stroke-dasharray="5,2" d="M161.5,-234.942C161.5,-221.03 161.5,-202.82 161.5,-192.215"/>
<polygon fill="#9a32cd" stroke="#9a32cd" points="158,-235.355 161.5,-245.355 165,-235.355 158,-235.355"/>
<text text-anchor="middle" x="183" y="-219" font-family="Helvetica,sans-Serif" font-size="10.00"> elements</text>
</g>
</g>
</svg>
