<?xml version="1.0" encoding="UTF-8" standalone="no"?>
<!DOCTYPE svg PUBLIC "-//W3C//DTD SVG 1.1//EN"
 "http://www.w3.org/Graphics/SVG/1.1/DTD/svg11.dtd">
<!-- Generated by graphviz version 2.38.0 (20140413.2041)
 -->
<!-- Title: C:/Users/Folaefolc/Documents/Code/Big&#45;Projects/ScriptWizards/SmallGameLibrary/include/Small/GameObjects/Manager.hpp Pages: 1 -->
<svg width="1289pt" height="128pt"
 viewBox="0.00 0.00 1289.00 128.00" xmlns="http://www.w3.org/2000/svg" xmlns:xlink="http://www.w3.org/1999/xlink">
<g id="graph0" class="graph" transform="scale(1 1) rotate(0) translate(4 124)">
<title>C:/Users/Folaefolc/Documents/Code/Big&#45;Projects/ScriptWizards/SmallGameLibrary/include/Small/GameObjects/Manager.hpp</title>
<polygon fill="white" stroke="none" points="-4,4 -4,-124 1285,-124 1285,4 -4,4"/>
<!-- Node1 -->
<g id="node1" class="node"><title>Node1</title>
<polygon fill="#bfbfbf" stroke="black" points="449,-56.5 449,-119.5 616,-119.5 616,-56.5 449,-56.5"/>
<text text-anchor="start" x="457" y="-107.5" font-family="Helvetica,sans-Serif" font-size="10.00">C:/Users/Folaefolc</text>
<text text-anchor="start" x="457" y="-96.5" font-family="Helvetica,sans-Serif" font-size="10.00">/Documents/Code/Big</text>
<text text-anchor="start" x="457" y="-85.5" font-family="Helvetica,sans-Serif" font-size="10.00">&#45;Projects/ScriptWizards</text>
<text text-anchor="start" x="457" y="-74.5" font-family="Helvetica,sans-Serif" font-size="10.00">/SmallGameLibrary/include</text>
<text text-anchor="middle" x="532.5" y="-63.5" font-family="Helvetica,sans-Serif" font-size="10.00">/Small/GameObjects/Manager.hpp</text>
</g>
<!-- Node2 -->
<g id="node2" class="node"><title>Node2</title>
<polygon fill="white" stroke="#bfbfbf" points="0,-0.5 0,-19.5 41,-19.5 41,-0.5 0,-0.5"/>
<text text-anchor="middle" x="20.5" y="-7.5" font-family="Helvetica,sans-Serif" font-size="10.00">string</text>
</g>
<!-- Node1&#45;&gt;Node2 -->
<g id="edge1" class="edge"><title>Node1&#45;&gt;Node2</title>
<path fill="none" stroke="midnightblue" d="M448.861,-79.5786C354.143,-70.2339 195.238,-51.7149 51.2035,-20.1004"/>
<polygon fill="midnightblue" stroke="midnightblue" points="51.8206,-16.6522 41.2995,-17.9004 50.3026,-23.4857 51.8206,-16.6522"/>
</g>
<!-- Node3 -->
<g id="node3" class="node"><title>Node3</title>
<polygon fill="white" stroke="#bfbfbf" points="59,-0.5 59,-19.5 142,-19.5 142,-0.5 59,-0.5"/>
<text text-anchor="middle" x="100.5" y="-7.5" font-family="Helvetica,sans-Serif" font-size="10.00">unordered_map</text>
</g>
<!-- Node1&#45;&gt;Node3 -->
<g id="edge2" class="edge"><title>Node1&#45;&gt;Node3</title>
<path fill="none" stroke="midnightblue" d="M448.645,-72.4033C373.58,-59.3111 260.205,-39.4747 152.326,-20.3193"/>
<polygon fill="midnightblue" stroke="midnightblue" points="152.697,-16.8306 142.239,-18.5275 151.473,-23.7227 152.697,-16.8306"/>
</g>
<!-- Node4 -->
<g id="node4" class="node"><title>Node4</title>
<polygon fill="white" stroke="#bfbfbf" points="160,-0.5 160,-19.5 227,-19.5 227,-0.5 160,-0.5"/>
<text text-anchor="middle" x="193.5" y="-7.5" font-family="Helvetica,sans-Serif" font-size="10.00">Manager.inl</text>
</g>
<!-- Node1&#45;&gt;Node4 -->
<g id="edge3" class="edge"><title>Node1&#45;&gt;Node4</title>
<path fill="none" stroke="midnightblue" d="M448.702,-68.2135C381.654,-53.182 290.327,-32.7076 237.062,-20.766"/>
<polygon fill="midnightblue" stroke="midnightblue" points="237.777,-17.3396 227.254,-18.5672 236.246,-24.1701 237.777,-17.3396"/>
</g>
<!-- Node5 -->
<g id="node5" class="node"><title>Node5</title>
<polygon fill="white" stroke="#bfbfbf" points="245.5,-0.5 245.5,-19.5 371.5,-19.5 371.5,-0.5 245.5,-0.5"/>
<text text-anchor="middle" x="308.5" y="-7.5" font-family="Helvetica,sans-Serif" font-size="10.00">SFML/Graphics/Font.hpp</text>
</g>
<!-- Node1&#45;&gt;Node5 -->
<g id="edge4" class="edge"><title>Node1&#45;&gt;Node5</title>
<path fill="none" stroke="midnightblue" d="M448.772,-58.5923C412.36,-46.2383 371.683,-32.4371 343.548,-22.8913"/>
<polygon fill="midnightblue" stroke="midnightblue" points="344.375,-19.4761 333.781,-19.5775 342.126,-26.1049 344.375,-19.4761"/>
</g>
<!-- Node6 -->
<g id="node6" class="node"><title>Node6</title>
<polygon fill="white" stroke="#bfbfbf" points="390,-0.5 390,-19.5 523,-19.5 523,-0.5 390,-0.5"/>
<text text-anchor="middle" x="456.5" y="-7.5" font-family="Helvetica,sans-Serif" font-size="10.00">SFML/Graphics/Image.hpp</text>
</g>
<!-- Node1&#45;&gt;Node6 -->
<g id="edge5" class="edge"><title>Node1&#45;&gt;Node6</title>
<path fill="none" stroke="midnightblue" d="M501.588,-56.0879C491.622,-46.1222 480.982,-35.4822 472.542,-27.0422"/>
<polygon fill="midnightblue" stroke="midnightblue" points="474.764,-24.3144 465.218,-19.7182 469.814,-29.2641 474.764,-24.3144"/>
</g>
<!-- Node7 -->
<g id="node7" class="node"><title>Node7</title>
<polygon fill="white" stroke="#bfbfbf" points="541,-0.5 541,-19.5 678,-19.5 678,-0.5 541,-0.5"/>
<text text-anchor="middle" x="609.5" y="-7.5" font-family="Helvetica,sans-Serif" font-size="10.00">SFML/Graphics/Shader.hpp</text>
</g>
<!-- Node1&#45;&gt;Node7 -->
<g id="edge6" class="edge"><title>Node1&#45;&gt;Node7</title>
<path fill="none" stroke="midnightblue" d="M563.819,-56.0879C574.02,-46.0194 584.918,-35.2627 593.51,-26.7819"/>
<polygon fill="midnightblue" stroke="midnightblue" points="596.009,-29.2339 600.667,-19.7182 591.091,-24.2519 596.009,-29.2339"/>
</g>
<!-- Node8 -->
<g id="node8" class="node"><title>Node8</title>
<polygon fill="white" stroke="#bfbfbf" points="696.5,-0.5 696.5,-19.5 830.5,-19.5 830.5,-0.5 696.5,-0.5"/>
<text text-anchor="middle" x="763.5" y="-7.5" font-family="Helvetica,sans-Serif" font-size="10.00">SFML/Graphics/Shape.hpp</text>
</g>
<!-- Node1&#45;&gt;Node8 -->
<g id="edge7" class="edge"><title>Node1&#45;&gt;Node8</title>
<path fill="none" stroke="midnightblue" d="M616.223,-59.4548C654.736,-46.7837 698.361,-32.4309 728.071,-22.6565"/>
<polygon fill="midnightblue" stroke="midnightblue" points="729.18,-25.9762 737.585,-19.5262 726.992,-19.3268 729.18,-25.9762"/>
</g>
<!-- Node9 -->
<g id="node9" class="node"><title>Node9</title>
<polygon fill="white" stroke="#bfbfbf" points="848.5,-0.5 848.5,-19.5 980.5,-19.5 980.5,-0.5 848.5,-0.5"/>
<text text-anchor="middle" x="914.5" y="-7.5" font-family="Helvetica,sans-Serif" font-size="10.00">SFML/Graphics/Sprite.hpp</text>
</g>
<!-- Node1&#45;&gt;Node9 -->
<g id="edge8" class="edge"><title>Node1&#45;&gt;Node9</title>
<path fill="none" stroke="midnightblue" d="M616.332,-70.3215C691.019,-55.4622 798.031,-34.1718 861.479,-21.5486"/>
<polygon fill="midnightblue" stroke="midnightblue" points="862.533,-24.9077 871.658,-19.5236 861.167,-18.0423 862.533,-24.9077"/>
</g>
<!-- Node10 -->
<g id="node10" class="node"><title>Node10</title>
<polygon fill="white" stroke="#bfbfbf" points="999,-0.5 999,-19.5 1138,-19.5 1138,-0.5 999,-0.5"/>
<text text-anchor="middle" x="1068.5" y="-7.5" font-family="Helvetica,sans-Serif" font-size="10.00">SFML/Graphics/Texture.hpp</text>
</g>
<!-- Node1&#45;&gt;Node10 -->
<g id="edge9" class="edge"><title>Node1&#45;&gt;Node10</title>
<path fill="none" stroke="midnightblue" d="M616.25,-75.125C721.325,-60.2263 899.638,-34.9431 998.045,-20.9899"/>
<polygon fill="midnightblue" stroke="midnightblue" points="998.776,-24.4213 1008.19,-19.552 997.793,-17.4906 998.776,-24.4213"/>
</g>
<!-- Node11 -->
<g id="node11" class="node"><title>Node11</title>
<polygon fill="white" stroke="#bfbfbf" points="1156,-0.5 1156,-19.5 1281,-19.5 1281,-0.5 1156,-0.5"/>
<text text-anchor="middle" x="1218.5" y="-7.5" font-family="Helvetica,sans-Serif" font-size="10.00">SFML/Graphics/Text.hpp</text>
</g>
<!-- Node1&#45;&gt;Node11 -->
<g id="edge10" class="edge"><title>Node1&#45;&gt;Node11</title>
<path fill="none" stroke="midnightblue" d="M616.111,-78.3617C732.452,-66.2367 950.04,-43.179 1145.61,-20.2082"/>
<polygon fill="midnightblue" stroke="midnightblue" points="1146.27,-23.655 1155.79,-19.0102 1145.45,-16.703 1146.27,-23.655"/>
</g>
</g>
</svg>
