<?xml version="1.0" encoding="UTF-8" standalone="no"?>
<!DOCTYPE svg PUBLIC "-//W3C//DTD SVG 1.1//EN"
 "http://www.w3.org/Graphics/SVG/1.1/DTD/svg11.dtd">
<!-- Generated by graphviz version 2.38.0 (20140413.2041)
 -->
<!-- Title: sgl::Graphics::AnimatedSprite Pages: 1 -->
<svg width="334pt" height="296pt"
 viewBox="0.00 0.00 334.00 296.00" xmlns="http://www.w3.org/2000/svg" xmlns:xlink="http://www.w3.org/1999/xlink">
<g id="graph0" class="graph" transform="scale(1 1) rotate(0) translate(4 292)">
<title>sgl::Graphics::AnimatedSprite</title>
<polygon fill="white" stroke="none" points="-4,4 -4,-292 330,-292 330,4 -4,4"/>
<!-- Node1 -->
<g id="node1" class="node"><title>Node1</title>
<polygon fill="#bfbfbf" stroke="black" points="60.5,-0.5 60.5,-19.5 207.5,-19.5 207.5,-0.5 60.5,-0.5"/>
<text text-anchor="middle" x="134" y="-7.5" font-family="Helvetica,sans-Serif" font-size="10.00">sgl::Graphics::AnimatedSprite</text>
</g>
<!-- Node2 -->
<g id="node2" class="node"><title>Node2</title>
<polygon fill="white" stroke="#bfbfbf" points="0,-67.5 0,-86.5 70,-86.5 70,-67.5 0,-67.5"/>
<text text-anchor="middle" x="35" y="-74.5" font-family="Helvetica,sans-Serif" font-size="10.00">sf::Drawable</text>
</g>
<!-- Node2&#45;&gt;Node1 -->
<g id="edge1" class="edge"><title>Node2&#45;&gt;Node1</title>
<path fill="none" stroke="midnightblue" d="M56.9407,-61.5945C76.5253,-48.7359 104.558,-30.3306 120.86,-19.6273"/>
<polygon fill="midnightblue" stroke="midnightblue" points="54.7899,-58.8196 48.3516,-67.2338 58.6318,-64.6711 54.7899,-58.8196"/>
</g>
<!-- Node3 -->
<g id="node3" class="node"><title>Node3</title>
<polygon fill="white" stroke="#bfbfbf" points="88.5,-67.5 88.5,-86.5 179.5,-86.5 179.5,-67.5 88.5,-67.5"/>
<text text-anchor="middle" x="134" y="-74.5" font-family="Helvetica,sans-Serif" font-size="10.00">sf::Transformable</text>
</g>
<!-- Node3&#45;&gt;Node1 -->
<g id="edge2" class="edge"><title>Node3&#45;&gt;Node1</title>
<path fill="none" stroke="midnightblue" d="M134,-57.037C134,-44.6703 134,-29.1198 134,-19.6273"/>
<polygon fill="midnightblue" stroke="midnightblue" points="130.5,-57.2338 134,-67.2338 137.5,-57.2338 130.5,-57.2338"/>
</g>
<!-- Node4 -->
<g id="node4" class="node"><title>Node4</title>
<g id="a_node4"><a xlink:href="../../d0/db1/classsgl_1_1Graphics_1_1Animation.html" target="_top" xlink:title="Handling animated sprites. ">
<polygon fill="white" stroke="black" points="198,-67.5 198,-86.5 322,-86.5 322,-67.5 198,-67.5"/>
<text text-anchor="middle" x="260" y="-74.5" font-family="Helvetica,sans-Serif" font-size="10.00">sgl::Graphics::Animation</text>
</a>
</g>
</g>
<!-- Node4&#45;&gt;Node1 -->
<g id="edge3" class="edge"><title>Node4&#45;&gt;Node1</title>
<path fill="none" stroke="#9a32cd" stroke-dasharray="5,2" d="M234.362,-62.7739C209.406,-49.8999 172.204,-30.7086 150.801,-19.6672"/>
<polygon fill="#9a32cd" stroke="#9a32cd" points="232.776,-65.8943 243.268,-67.3685 235.986,-59.6733 232.776,-65.8943"/>
<text text-anchor="middle" x="233.5" y="-41" font-family="Helvetica,sans-Serif" font-size="10.00"> m_animation</text>
</g>
<!-- Node5 -->
<g id="node5" class="node"><title>Node5</title>
<polygon fill="white" stroke="#bfbfbf" points="198,-134.5 198,-153.5 322,-153.5 322,-134.5 198,-134.5"/>
<text text-anchor="middle" x="260" y="-141.5" font-family="Helvetica,sans-Serif" font-size="10.00">std::vector&lt; sf::IntRect &gt;</text>
</g>
<!-- Node5&#45;&gt;Node4 -->
<g id="edge4" class="edge"><title>Node5&#45;&gt;Node4</title>
<path fill="none" stroke="#9a32cd" stroke-dasharray="5,2" d="M260,-124.037C260,-111.67 260,-96.1198 260,-86.6273"/>
<polygon fill="#9a32cd" stroke="#9a32cd" points="256.5,-124.234 260,-134.234 263.5,-124.234 256.5,-124.234"/>
<text text-anchor="middle" x="283" y="-108" font-family="Helvetica,sans-Serif" font-size="10.00"> m_frames</text>
</g>
<!-- Node6 -->
<g id="node6" class="node"><title>Node6</title>
<g id="a_node6"><a xlink:title="STL class. ">
<polygon fill="white" stroke="#bfbfbf" points="217.5,-201.5 217.5,-220.5 302.5,-220.5 302.5,-201.5 217.5,-201.5"/>
<text text-anchor="middle" x="260" y="-208.5" font-family="Helvetica,sans-Serif" font-size="10.00">std::vector&lt; T &gt;</text>
</a>
</g>
</g>
<!-- Node6&#45;&gt;Node5 -->
<g id="edge5" class="edge"><title>Node6&#45;&gt;Node5</title>
<path fill="none" stroke="orange" stroke-dasharray="5,2" d="M260,-191.037C260,-178.67 260,-163.12 260,-153.627"/>
<polygon fill="orange" stroke="orange" points="256.5,-191.234 260,-201.234 263.5,-191.234 256.5,-191.234"/>
<text text-anchor="middle" x="293" y="-175" font-family="Helvetica,sans-Serif" font-size="10.00"> &lt; sf::IntRect &gt;</text>
</g>
<!-- Node7 -->
<g id="node7" class="node"><title>Node7</title>
<polygon fill="white" stroke="#bfbfbf" points="245.5,-268.5 245.5,-287.5 274.5,-287.5 274.5,-268.5 245.5,-268.5"/>
<text text-anchor="middle" x="260" y="-275.5" font-family="Helvetica,sans-Serif" font-size="10.00">T</text>
</g>
<!-- Node7&#45;&gt;Node6 -->
<g id="edge6" class="edge"><title>Node7&#45;&gt;Node6</title>
<path fill="none" stroke="#9a32cd" stroke-dasharray="5,2" d="M260,-258.037C260,-245.67 260,-230.12 260,-220.627"/>
<polygon fill="#9a32cd" stroke="#9a32cd" points="256.5,-258.234 260,-268.234 263.5,-258.234 256.5,-258.234"/>
<text text-anchor="middle" x="281.5" y="-242" font-family="Helvetica,sans-Serif" font-size="10.00"> elements</text>
</g>
</g>
</svg>
