<?xml version="1.0" encoding="UTF-8" standalone="no"?>
<!DOCTYPE svg PUBLIC "-//W3C//DTD SVG 1.1//EN"
 "http://www.w3.org/Graphics/SVG/1.1/DTD/svg11.dtd">
<!-- Generated by graphviz version 2.38.0 (20140413.2041)
 -->
<!-- Title: include/Small/GameObjects/Triggers/Trigger.hpp Pages: 1 -->
<svg width="302pt" height="106pt"
 viewBox="0.00 0.00 302.00 106.00" xmlns="http://www.w3.org/2000/svg" xmlns:xlink="http://www.w3.org/1999/xlink">
<g id="graph0" class="graph" transform="scale(1 1) rotate(0) translate(4 102)">
<title>include/Small/GameObjects/Triggers/Trigger.hpp</title>
<polygon fill="white" stroke="none" points="-4,4 -4,-102 298,-102 298,4 -4,4"/>
<!-- Node1 -->
<g id="node1" class="node"><title>Node1</title>
<polygon fill="#bfbfbf" stroke="black" points="78,-67.5 78,-97.5 216,-97.5 216,-67.5 78,-67.5"/>
<text text-anchor="start" x="86" y="-85.5" font-family="Helvetica,sans-Serif" font-size="10.00">include/Small/GameObjects</text>
<text text-anchor="middle" x="147" y="-74.5" font-family="Helvetica,sans-Serif" font-size="10.00">/Triggers/Trigger.hpp</text>
</g>
<!-- Node2 -->
<g id="node2" class="node"><title>Node2</title>
<g id="a_node2"><a xlink:href="../../de/d53/Triggers_2Manager_8hpp.html" target="_top" xlink:title="include/Small/GameObjects\l/Triggers/Manager.hpp">
<polygon fill="white" stroke="black" points="0,-0.5 0,-30.5 138,-30.5 138,-0.5 0,-0.5"/>
<text text-anchor="start" x="8" y="-18.5" font-family="Helvetica,sans-Serif" font-size="10.00">include/Small/GameObjects</text>
<text text-anchor="middle" x="69" y="-7.5" font-family="Helvetica,sans-Serif" font-size="10.00">/Triggers/Manager.hpp</text>
</a>
</g>
</g>
<!-- Node1&#45;&gt;Node2 -->
<g id="edge1" class="edge"><title>Node1&#45;&gt;Node2</title>
<path fill="none" stroke="midnightblue" d="M122.26,-60.8832C110.407,-51.0054 96.5152,-39.4293 85.8918,-30.5765"/>
<polygon fill="midnightblue" stroke="midnightblue" points="120.152,-63.6829 130.075,-67.396 124.634,-58.3053 120.152,-63.6829"/>
</g>
<!-- Node3 -->
<g id="node3" class="node"><title>Node3</title>
<g id="a_node3"><a xlink:href="../../d0/d93/Update_8hpp.html" target="_top" xlink:title="A basic update trigger, executed when a delta of time is reached. ">
<polygon fill="white" stroke="black" points="156,-0.5 156,-30.5 294,-30.5 294,-0.5 156,-0.5"/>
<text text-anchor="start" x="164" y="-18.5" font-family="Helvetica,sans-Serif" font-size="10.00">include/Small/GameObjects</text>
<text text-anchor="middle" x="225" y="-7.5" font-family="Helvetica,sans-Serif" font-size="10.00">/Triggers/Update.hpp</text>
</a>
</g>
</g>
<!-- Node1&#45;&gt;Node3 -->
<g id="edge2" class="edge"><title>Node1&#45;&gt;Node3</title>
<path fill="none" stroke="midnightblue" d="M171.74,-60.8832C183.593,-51.0054 197.485,-39.4293 208.108,-30.5765"/>
<polygon fill="midnightblue" stroke="midnightblue" points="169.366,-58.3053 163.925,-67.396 173.848,-63.6829 169.366,-58.3053"/>
</g>
</g>
</svg>
