<?xml version="1.0" encoding="UTF-8" standalone="no"?>
<!DOCTYPE svg PUBLIC "-//W3C//DTD SVG 1.1//EN"
 "http://www.w3.org/Graphics/SVG/1.1/DTD/svg11.dtd">
<!-- Generated by graphviz version 2.49.0 (20210828.1703)
 -->
<!-- Title: C:/Users/folae/Documents/Code/Big&#45;Projects/ScriptWizards/SmallGameLibrary/source/Scripting/Engine.cpp Pages: 1 -->
<svg width="447pt" height="173pt"
 viewBox="0.00 0.00 447.00 173.00" xmlns="http://www.w3.org/2000/svg" xmlns:xlink="http://www.w3.org/1999/xlink">
<g id="graph0" class="graph" transform="scale(1 1) rotate(0) translate(4 169)">
<title>C:/Users/folae/Documents/Code/Big&#45;Projects/ScriptWizards/SmallGameLibrary/source/Scripting/Engine.cpp</title>
<polygon fill="white" stroke="transparent" points="-4,4 -4,-169 443,-169 443,4 -4,4"/>
<!-- Node1 -->
<g id="node1" class="node">
<title>Node1</title>
<g id="a_node1"><a xlink:title=" ">
<polygon fill="#bfbfbf" stroke="black" points="198.5,-112.5 198.5,-164.5 371.5,-164.5 371.5,-112.5 198.5,-112.5"/>
<text text-anchor="start" x="206.5" y="-152.5" font-family="Helvetica,sans-Serif" font-size="10.00">C:/Users/folae/Documents</text>
<text text-anchor="start" x="206.5" y="-141.5" font-family="Helvetica,sans-Serif" font-size="10.00">/Code/Big&#45;Projects/ScriptWizards</text>
<text text-anchor="start" x="206.5" y="-130.5" font-family="Helvetica,sans-Serif" font-size="10.00">/SmallGameLibrary/source/Scripting</text>
<text text-anchor="middle" x="285" y="-119.5" font-family="Helvetica,sans-Serif" font-size="10.00">/Engine.cpp</text>
</a>
</g>
</g>
<!-- Node2 -->
<g id="node2" class="node">
<title>Node2</title>
<g id="a_node2"><a xlink:href="../../d3/d48/Engine_8hpp.html" target="_top" xlink:title="Easing the use of ArkScript (compiling scripts ahead of time, loading them)">
<polygon fill="white" stroke="black" points="0,-56.5 0,-75.5 134,-75.5 134,-56.5 0,-56.5"/>
<text text-anchor="middle" x="67" y="-63.5" font-family="Helvetica,sans-Serif" font-size="10.00">Small/Scripting/Engine.hpp</text>
</a>
</g>
</g>
<!-- Node1&#45;&gt;Node2 -->
<g id="edge1" class="edge">
<title>Node1&#45;&gt;Node2</title>
<path fill="none" stroke="midnightblue" d="M207.53,-112.45C171.99,-100.95 131.57,-87.88 103.23,-78.72"/>
<polygon fill="midnightblue" stroke="midnightblue" points="103.96,-75.27 93.37,-75.53 101.8,-81.93 103.96,-75.27"/>
</g>
<!-- Node5 -->
<g id="node5" class="node">
<title>Node5</title>
<g id="a_node5"><a xlink:href="../../d2/dbb/FileSystem_8hpp.html" target="_top" xlink:title="Useful functionalities related to the filesystem.">
<polygon fill="white" stroke="black" points="152.5,-56.5 152.5,-75.5 301.5,-75.5 301.5,-56.5 152.5,-56.5"/>
<text text-anchor="middle" x="227" y="-63.5" font-family="Helvetica,sans-Serif" font-size="10.00">Small/System/FileSystem.hpp</text>
</a>
</g>
</g>
<!-- Node1&#45;&gt;Node5 -->
<g id="edge4" class="edge">
<title>Node1&#45;&gt;Node5</title>
<path fill="none" stroke="midnightblue" d="M264.39,-112.45C256.48,-102.83 247.65,-92.1 240.56,-83.49"/>
<polygon fill="midnightblue" stroke="midnightblue" points="243.21,-81.19 234.15,-75.7 237.8,-85.64 243.21,-81.19"/>
</g>
<!-- Node7 -->
<g id="node7" class="node">
<title>Node7</title>
<g id="a_node7"><a xlink:title=" ">
<polygon fill="white" stroke="#bfbfbf" points="319.5,-56.5 319.5,-75.5 368.5,-75.5 368.5,-56.5 319.5,-56.5"/>
<text text-anchor="middle" x="344" y="-63.5" font-family="Helvetica,sans-Serif" font-size="10.00">fstream</text>
</a>
</g>
</g>
<!-- Node1&#45;&gt;Node7 -->
<g id="edge7" class="edge">
<title>Node1&#45;&gt;Node7</title>
<path fill="none" stroke="midnightblue" d="M305.97,-112.45C314.02,-102.83 322.99,-92.1 330.2,-83.49"/>
<polygon fill="midnightblue" stroke="midnightblue" points="332.99,-85.61 336.72,-75.7 327.62,-81.12 332.99,-85.61"/>
</g>
<!-- Node8 -->
<g id="node8" class="node">
<title>Node8</title>
<g id="a_node8"><a xlink:title=" ">
<polygon fill="white" stroke="#bfbfbf" points="387,-56.5 387,-75.5 439,-75.5 439,-56.5 387,-56.5"/>
<text text-anchor="middle" x="413" y="-63.5" font-family="Helvetica,sans-Serif" font-size="10.00">sstream</text>
</a>
</g>
</g>
<!-- Node1&#45;&gt;Node8 -->
<g id="edge8" class="edge">
<title>Node1&#45;&gt;Node8</title>
<path fill="none" stroke="midnightblue" d="M330.49,-112.45C350.07,-101.66 372.18,-89.48 388.58,-80.45"/>
<polygon fill="midnightblue" stroke="midnightblue" points="390.45,-83.42 397.52,-75.53 387.07,-77.29 390.45,-83.42"/>
</g>
<!-- Node3 -->
<g id="node3" class="node">
<title>Node3</title>
<g id="a_node3"><a xlink:title=" ">
<polygon fill="white" stroke="#bfbfbf" points="33,-0.5 33,-19.5 101,-19.5 101,-0.5 33,-0.5"/>
<text text-anchor="middle" x="67" y="-7.5" font-family="Helvetica,sans-Serif" font-size="10.00">Ark/Ark.hpp</text>
</a>
</g>
</g>
<!-- Node2&#45;&gt;Node3 -->
<g id="edge2" class="edge">
<title>Node2&#45;&gt;Node3</title>
<path fill="none" stroke="midnightblue" d="M67,-56.08C67,-49.01 67,-38.86 67,-29.99"/>
<polygon fill="midnightblue" stroke="midnightblue" points="70.5,-29.75 67,-19.75 63.5,-29.75 70.5,-29.75"/>
</g>
<!-- Node4 -->
<g id="node4" class="node">
<title>Node4</title>
<g id="a_node4"><a xlink:title=" ">
<polygon fill="white" stroke="#bfbfbf" points="133.5,-0.5 133.5,-19.5 174.5,-19.5 174.5,-0.5 133.5,-0.5"/>
<text text-anchor="middle" x="154" y="-7.5" font-family="Helvetica,sans-Serif" font-size="10.00">string</text>
</a>
</g>
</g>
<!-- Node2&#45;&gt;Node4 -->
<g id="edge3" class="edge">
<title>Node2&#45;&gt;Node4</title>
<path fill="none" stroke="midnightblue" d="M80.98,-56.32C94.55,-47.9 115.38,-34.97 131.32,-25.07"/>
<polygon fill="midnightblue" stroke="midnightblue" points="133.41,-27.9 140.06,-19.65 129.71,-21.95 133.41,-27.9"/>
</g>
<!-- Node5&#45;&gt;Node4 -->
<g id="edge5" class="edge">
<title>Node5&#45;&gt;Node4</title>
<path fill="none" stroke="midnightblue" d="M215.27,-56.32C204.16,-48.11 187.26,-35.6 174.02,-25.81"/>
<polygon fill="midnightblue" stroke="midnightblue" points="176.06,-22.97 165.94,-19.83 171.9,-28.59 176.06,-22.97"/>
</g>
<!-- Node6 -->
<g id="node6" class="node">
<title>Node6</title>
<g id="a_node6"><a xlink:title=" ">
<polygon fill="white" stroke="#bfbfbf" points="206,-0.5 206,-19.5 248,-19.5 248,-0.5 206,-0.5"/>
<text text-anchor="middle" x="227" y="-7.5" font-family="Helvetica,sans-Serif" font-size="10.00">vector</text>
</a>
</g>
</g>
<!-- Node5&#45;&gt;Node6 -->
<g id="edge6" class="edge">
<title>Node5&#45;&gt;Node6</title>
<path fill="none" stroke="midnightblue" d="M227,-56.08C227,-49.01 227,-38.86 227,-29.99"/>
<polygon fill="midnightblue" stroke="midnightblue" points="230.5,-29.75 227,-19.75 223.5,-29.75 230.5,-29.75"/>
</g>
</g>
</svg>
