<?xml version="1.0" encoding="UTF-8" standalone="no"?>
<!DOCTYPE svg PUBLIC "-//W3C//DTD SVG 1.1//EN"
 "http://www.w3.org/Graphics/SVG/1.1/DTD/svg11.dtd">
<!-- Generated by graphviz version 2.38.0 (20140413.2041)
 -->
<!-- Title: include/Small/Widgets/Base.hpp Pages: 1 -->
<svg width="739pt" height="151pt"
 viewBox="0.00 0.00 738.50 151.00" xmlns="http://www.w3.org/2000/svg" xmlns:xlink="http://www.w3.org/1999/xlink">
<g id="graph0" class="graph" transform="scale(1 1) rotate(0) translate(4 147)">
<title>include/Small/Widgets/Base.hpp</title>
<polygon fill="white" stroke="none" points="-4,4 -4,-147 734.5,-147 734.5,4 -4,4"/>
<!-- Node1 -->
<g id="node1" class="node"><title>Node1</title>
<polygon fill="#bfbfbf" stroke="black" points="199.5,-112.5 199.5,-142.5 313.5,-142.5 313.5,-112.5 199.5,-112.5"/>
<text text-anchor="start" x="207.5" y="-130.5" font-family="Helvetica,sans-Serif" font-size="10.00">include/Small/Widgets</text>
<text text-anchor="middle" x="256.5" y="-119.5" font-family="Helvetica,sans-Serif" font-size="10.00">/Base.hpp</text>
</g>
<!-- Node2 -->
<g id="node2" class="node"><title>Node2</title>
<polygon fill="white" stroke="#bfbfbf" points="0,-56.5 0,-75.5 139,-75.5 139,-56.5 0,-56.5"/>
<text text-anchor="middle" x="69.5" y="-63.5" font-family="Helvetica,sans-Serif" font-size="10.00">SFML/Graphics/Texture.hpp</text>
</g>
<!-- Node1&#45;&gt;Node2 -->
<g id="edge1" class="edge"><title>Node1&#45;&gt;Node2</title>
<path fill="none" stroke="midnightblue" d="M212.184,-112.399C179.871,-102.118 136.602,-88.3506 106.214,-78.6818"/>
<polygon fill="midnightblue" stroke="midnightblue" points="107.028,-75.2678 96.4372,-75.5709 104.905,-81.9383 107.028,-75.2678"/>
</g>
<!-- Node3 -->
<g id="node3" class="node"><title>Node3</title>
<polygon fill="white" stroke="#bfbfbf" points="105.5,-0.5 105.5,-19.5 269.5,-19.5 269.5,-0.5 105.5,-0.5"/>
<text text-anchor="middle" x="187.5" y="-7.5" font-family="Helvetica,sans-Serif" font-size="10.00">SFML/Graphics/RenderTarget.hpp</text>
</g>
<!-- Node1&#45;&gt;Node3 -->
<g id="edge2" class="edge"><title>Node1&#45;&gt;Node3</title>
<path fill="none" stroke="midnightblue" d="M225.158,-112.44C210.583,-104.105 194.691,-92.0086 186.5,-76 179.191,-61.7139 180.309,-43.2455 182.749,-29.6477"/>
<polygon fill="midnightblue" stroke="midnightblue" points="186.235,-30.0868 184.952,-19.5699 179.397,-28.5914 186.235,-30.0868"/>
</g>
<!-- Node4 -->
<g id="node4" class="node"><title>Node4</title>
<polygon fill="white" stroke="#bfbfbf" points="195.5,-56.5 195.5,-75.5 317.5,-75.5 317.5,-56.5 195.5,-56.5"/>
<text text-anchor="middle" x="256.5" y="-63.5" font-family="Helvetica,sans-Serif" font-size="10.00">SFML/System/Time.hpp</text>
</g>
<!-- Node1&#45;&gt;Node4 -->
<g id="edge3" class="edge"><title>Node1&#45;&gt;Node4</title>
<path fill="none" stroke="midnightblue" d="M256.5,-112.399C256.5,-104.466 256.5,-94.458 256.5,-85.8583"/>
<polygon fill="midnightblue" stroke="midnightblue" points="260,-85.6577 256.5,-75.6578 253,-85.6578 260,-85.6577"/>
</g>
<!-- Node5 -->
<g id="node5" class="node"><title>Node5</title>
<polygon fill="white" stroke="#bfbfbf" points="335.5,-56.5 335.5,-75.5 461.5,-75.5 461.5,-56.5 335.5,-56.5"/>
<text text-anchor="middle" x="398.5" y="-63.5" font-family="Helvetica,sans-Serif" font-size="10.00">SFML/Window/Event.hpp</text>
</g>
<!-- Node1&#45;&gt;Node5 -->
<g id="edge4" class="edge"><title>Node1&#45;&gt;Node5</title>
<path fill="none" stroke="midnightblue" d="M290.152,-112.399C313.977,-102.416 345.646,-89.1465 368.588,-79.5335"/>
<polygon fill="midnightblue" stroke="midnightblue" points="369.967,-82.7505 377.838,-75.6578 367.262,-76.2944 369.967,-82.7505"/>
</g>
<!-- Node6 -->
<g id="node6" class="node"><title>Node6</title>
<g id="a_node6"><a xlink:href="../../d7/dc6/Node_8hpp.html" target="_top" xlink:title="A scene graph node. ">
<polygon fill="white" stroke="black" points="479.5,-56.5 479.5,-75.5 607.5,-75.5 607.5,-56.5 479.5,-56.5"/>
<text text-anchor="middle" x="543.5" y="-63.5" font-family="Helvetica,sans-Serif" font-size="10.00">Small/Graphics/Node.hpp</text>
</a>
</g>
</g>
<!-- Node1&#45;&gt;Node6 -->
<g id="edge5" class="edge"><title>Node1&#45;&gt;Node6</title>
<path fill="none" stroke="midnightblue" d="M313.545,-114.674C365.696,-103.862 442.135,-88.0146 492.348,-77.6046"/>
<polygon fill="midnightblue" stroke="midnightblue" points="493.255,-80.9911 502.336,-75.5339 491.834,-74.1369 493.255,-80.9911"/>
</g>
<!-- Node6&#45;&gt;Node3 -->
<g id="edge6" class="edge"><title>Node6&#45;&gt;Node3</title>
<path fill="none" stroke="midnightblue" d="M487.091,-56.4435C423.685,-46.8259 320.852,-31.2275 253.696,-21.0409"/>
<polygon fill="midnightblue" stroke="midnightblue" points="254.057,-17.5558 243.645,-19.5164 253.007,-24.4766 254.057,-17.5558"/>
</g>
<!-- Node7 -->
<g id="node7" class="node"><title>Node7</title>
<polygon fill="white" stroke="#bfbfbf" points="298,-0.5 298,-19.5 447,-19.5 447,-0.5 298,-0.5"/>
<text text-anchor="middle" x="372.5" y="-7.5" font-family="Helvetica,sans-Serif" font-size="10.00">SFML/Graphics/Transform.hpp</text>
</g>
<!-- Node6&#45;&gt;Node7 -->
<g id="edge7" class="edge"><title>Node6&#45;&gt;Node7</title>
<path fill="none" stroke="midnightblue" d="M516.405,-56.4435C487.512,-47.3196 441.575,-32.8133 409.395,-22.6509"/>
<polygon fill="midnightblue" stroke="midnightblue" points="410.059,-19.1903 399.469,-19.5164 407.951,-25.8654 410.059,-19.1903"/>
</g>
<!-- Node8 -->
<g id="node8" class="node"><title>Node8</title>
<polygon fill="white" stroke="#bfbfbf" points="465,-0.5 465,-19.5 600,-19.5 600,-0.5 465,-0.5"/>
<text text-anchor="middle" x="532.5" y="-7.5" font-family="Helvetica,sans-Serif" font-size="10.00">SFML/System/Vector2.hpp</text>
</g>
<!-- Node6&#45;&gt;Node8 -->
<g id="edge8" class="edge"><title>Node6&#45;&gt;Node8</title>
<path fill="none" stroke="midnightblue" d="M541.684,-56.083C540.226,-48.9272 538.129,-38.6353 536.307,-29.6911"/>
<polygon fill="midnightblue" stroke="midnightblue" points="539.708,-28.8512 534.283,-19.7511 532.849,-30.2485 539.708,-28.8512"/>
</g>
<!-- Node9 -->
<g id="node9" class="node"><title>Node9</title>
<polygon fill="white" stroke="#bfbfbf" points="618.5,-0.5 618.5,-19.5 660.5,-19.5 660.5,-0.5 618.5,-0.5"/>
<text text-anchor="middle" x="639.5" y="-7.5" font-family="Helvetica,sans-Serif" font-size="10.00">vector</text>
</g>
<!-- Node6&#45;&gt;Node9 -->
<g id="edge9" class="edge"><title>Node6&#45;&gt;Node9</title>
<path fill="none" stroke="midnightblue" d="M558.924,-56.324C574.04,-47.8215 597.315,-34.7288 614.971,-24.7975"/>
<polygon fill="midnightblue" stroke="midnightblue" points="617.114,-27.6077 624.114,-19.6545 613.683,-21.5066 617.114,-27.6077"/>
</g>
<!-- Node10 -->
<g id="node10" class="node"><title>Node10</title>
<polygon fill="white" stroke="#bfbfbf" points="678.5,-0.5 678.5,-19.5 730.5,-19.5 730.5,-0.5 678.5,-0.5"/>
<text text-anchor="middle" x="704.5" y="-7.5" font-family="Helvetica,sans-Serif" font-size="10.00">memory</text>
</g>
<!-- Node6&#45;&gt;Node10 -->
<g id="edge10" class="edge"><title>Node6&#45;&gt;Node10</title>
<path fill="none" stroke="midnightblue" d="M569.011,-56.4435C596.096,-47.3591 639.09,-32.9388 669.369,-22.7831"/>
<polygon fill="midnightblue" stroke="midnightblue" points="670.74,-26.0148 679.108,-19.5164 668.514,-19.3781 670.74,-26.0148"/>
</g>
</g>
</svg>
