<?xml version="1.0" encoding="UTF-8" standalone="no"?>
<!DOCTYPE svg PUBLIC "-//W3C//DTD SVG 1.1//EN"
 "http://www.w3.org/Graphics/SVG/1.1/DTD/svg11.dtd">
<!-- Generated by graphviz version 2.49.0 (20210828.1703)
 -->
<!-- Title: C:/Users/folae/Documents/Code/Big&#45;Projects/ScriptWizards/SmallGameLibrary/source/Core/SceneManager.cpp Pages: 1 -->
<svg width="1514pt" height="341pt"
 viewBox="0.00 0.00 1513.50 341.00" xmlns="http://www.w3.org/2000/svg" xmlns:xlink="http://www.w3.org/1999/xlink">
<g id="graph0" class="graph" transform="scale(1 1) rotate(0) translate(4 337)">
<title>C:/Users/folae/Documents/Code/Big&#45;Projects/ScriptWizards/SmallGameLibrary/source/Core/SceneManager.cpp</title>
<polygon fill="white" stroke="transparent" points="-4,4 -4,-337 1509.5,-337 1509.5,4 -4,4"/>
<!-- Node1 -->
<g id="node1" class="node">
<title>Node1</title>
<g id="a_node1"><a xlink:title=" ">
<polygon fill="#bfbfbf" stroke="black" points="1229,-280.5 1229,-332.5 1392,-332.5 1392,-280.5 1229,-280.5"/>
<text text-anchor="start" x="1237" y="-320.5" font-family="Helvetica,sans-Serif" font-size="10.00">C:/Users/folae/Documents</text>
<text text-anchor="start" x="1237" y="-309.5" font-family="Helvetica,sans-Serif" font-size="10.00">/Code/Big&#45;Projects/ScriptWizards</text>
<text text-anchor="start" x="1237" y="-298.5" font-family="Helvetica,sans-Serif" font-size="10.00">/SmallGameLibrary/source/Core</text>
<text text-anchor="middle" x="1310.5" y="-287.5" font-family="Helvetica,sans-Serif" font-size="10.00">/SceneManager.cpp</text>
</a>
</g>
</g>
<!-- Node2 -->
<g id="node2" class="node">
<title>Node2</title>
<g id="a_node2"><a xlink:href="../../df/d74/SceneManager_8hpp.html" target="_top" xlink:title="Define the scene manager (creating, handling and destroying them)">
<polygon fill="white" stroke="black" points="807.5,-224.5 807.5,-243.5 959.5,-243.5 959.5,-224.5 807.5,-224.5"/>
<text text-anchor="middle" x="883.5" y="-231.5" font-family="Helvetica,sans-Serif" font-size="10.00">Small/Core/SceneManager.hpp</text>
</a>
</g>
</g>
<!-- Node1&#45;&gt;Node2 -->
<g id="edge1" class="edge">
<title>Node1&#45;&gt;Node2</title>
<path fill="none" stroke="midnightblue" d="M1228.93,-292.03C1146.28,-278.39 1020.24,-257.58 945.44,-245.23"/>
<polygon fill="midnightblue" stroke="midnightblue" points="945.68,-241.72 935.24,-243.54 944.53,-248.62 945.68,-241.72"/>
</g>
<!-- Node23 -->
<g id="node23" class="node">
<title>Node23</title>
<g id="a_node23"><a xlink:title=" ">
<polygon fill="white" stroke="#bfbfbf" points="1219,-168.5 1219,-187.5 1304,-187.5 1304,-168.5 1219,-168.5"/>
<text text-anchor="middle" x="1261.5" y="-175.5" font-family="Helvetica,sans-Serif" font-size="10.00">spdlog/spdlog.h</text>
</a>
</g>
</g>
<!-- Node1&#45;&gt;Node23 -->
<g id="edge41" class="edge">
<title>Node1&#45;&gt;Node23</title>
<path fill="none" stroke="midnightblue" d="M1297.11,-280.5C1291.53,-269.49 1285.26,-256.3 1280.5,-244 1274.53,-228.58 1269.39,-210.49 1265.96,-197.31"/>
<polygon fill="midnightblue" stroke="midnightblue" points="1269.35,-196.41 1263.51,-187.57 1262.56,-198.12 1269.35,-196.41"/>
</g>
<!-- Node25 -->
<g id="node25" class="node">
<title>Node25</title>
<g id="a_node25"><a xlink:href="../../d2/d12/Bindings_8hpp.html" target="_top" xlink:title="Binding the small game library in ArkScript.">
<polygon fill="white" stroke="black" points="1289.5,-224.5 1289.5,-243.5 1431.5,-243.5 1431.5,-224.5 1289.5,-224.5"/>
<text text-anchor="middle" x="1360.5" y="-231.5" font-family="Helvetica,sans-Serif" font-size="10.00">Small/Scripting/Bindings.hpp</text>
</a>
</g>
</g>
<!-- Node1&#45;&gt;Node25 -->
<g id="edge38" class="edge">
<title>Node1&#45;&gt;Node25</title>
<path fill="none" stroke="midnightblue" d="M1328.27,-280.45C1334.95,-271.03 1342.38,-260.55 1348.42,-252.03"/>
<polygon fill="midnightblue" stroke="midnightblue" points="1351.4,-253.88 1354.33,-243.7 1345.69,-249.83 1351.4,-253.88"/>
</g>
<!-- Node27 -->
<g id="node27" class="node">
<title>Node27</title>
<g id="a_node27"><a xlink:title=" ">
<polygon fill="white" stroke="#bfbfbf" points="1449.5,-224.5 1449.5,-243.5 1505.5,-243.5 1505.5,-224.5 1449.5,-224.5"/>
<text text-anchor="middle" x="1477.5" y="-231.5" font-family="Helvetica,sans-Serif" font-size="10.00">algorithm</text>
</a>
</g>
</g>
<!-- Node1&#45;&gt;Node27 -->
<g id="edge40" class="edge">
<title>Node1&#45;&gt;Node27</title>
<path fill="none" stroke="midnightblue" d="M1369.85,-280.45C1396.35,-269.26 1426.41,-256.57 1448.01,-247.45"/>
<polygon fill="midnightblue" stroke="midnightblue" points="1449.45,-250.64 1457.3,-243.53 1446.73,-244.19 1449.45,-250.64"/>
</g>
<!-- Node3 -->
<g id="node3" class="node">
<title>Node3</title>
<g id="a_node3"><a xlink:title=" ">
<polygon fill="white" stroke="#bfbfbf" points="1245.5,-56.5 1245.5,-75.5 1287.5,-75.5 1287.5,-56.5 1245.5,-56.5"/>
<text text-anchor="middle" x="1266.5" y="-63.5" font-family="Helvetica,sans-Serif" font-size="10.00">vector</text>
</a>
</g>
</g>
<!-- Node2&#45;&gt;Node3 -->
<g id="edge2" class="edge">
<title>Node2&#45;&gt;Node3</title>
<path fill="none" stroke="midnightblue" d="M959.63,-225.82C1027.42,-218.44 1120.78,-205.55 1153.5,-188 1200.2,-162.95 1238.24,-111.23 1255.88,-84.24"/>
<polygon fill="midnightblue" stroke="midnightblue" points="1259.01,-85.83 1261.43,-75.51 1253.11,-82.07 1259.01,-85.83"/>
</g>
<!-- Node4 -->
<g id="node4" class="node">
<title>Node4</title>
<g id="a_node4"><a xlink:title=" ">
<polygon fill="white" stroke="#bfbfbf" points="672.5,-56.5 672.5,-75.5 724.5,-75.5 724.5,-56.5 672.5,-56.5"/>
<text text-anchor="middle" x="698.5" y="-63.5" font-family="Helvetica,sans-Serif" font-size="10.00">memory</text>
</a>
</g>
</g>
<!-- Node2&#45;&gt;Node4 -->
<g id="edge3" class="edge">
<title>Node2&#45;&gt;Node4</title>
<path fill="none" stroke="midnightblue" d="M881.51,-224.43C879.53,-215.42 876.63,-200.8 875.5,-188 874.72,-179.15 873.76,-176.72 875.5,-168 878.9,-151 887.1,-149 890.5,-132 892.24,-123.28 896.04,-118.95 890.5,-112 847.81,-58.41 806.75,-89.92 734.74,-76.01"/>
<polygon fill="midnightblue" stroke="midnightblue" points="735.37,-72.57 724.85,-73.86 733.88,-79.41 735.37,-72.57"/>
</g>
<!-- Node5 -->
<g id="node5" class="node">
<title>Node5</title>
<g id="a_node5"><a xlink:title=" ">
<polygon fill="white" stroke="#bfbfbf" points="884.5,-168.5 884.5,-187.5 934.5,-187.5 934.5,-168.5 884.5,-168.5"/>
<text text-anchor="middle" x="909.5" y="-175.5" font-family="Helvetica,sans-Serif" font-size="10.00">typeinfo</text>
</a>
</g>
</g>
<!-- Node2&#45;&gt;Node5 -->
<g id="edge4" class="edge">
<title>Node2&#45;&gt;Node5</title>
<path fill="none" stroke="midnightblue" d="M887.79,-224.08C891.35,-216.69 896.52,-205.95 900.92,-196.81"/>
<polygon fill="midnightblue" stroke="midnightblue" points="904.1,-198.28 905.29,-187.75 897.79,-195.24 904.1,-198.28"/>
</g>
<!-- Node6 -->
<g id="node6" class="node">
<title>Node6</title>
<g id="a_node6"><a xlink:title=" ">
<polygon fill="white" stroke="#bfbfbf" points="952.5,-168.5 952.5,-187.5 1010.5,-187.5 1010.5,-168.5 952.5,-168.5"/>
<text text-anchor="middle" x="981.5" y="-175.5" font-family="Helvetica,sans-Serif" font-size="10.00">functional</text>
</a>
</g>
</g>
<!-- Node2&#45;&gt;Node6 -->
<g id="edge5" class="edge">
<title>Node2&#45;&gt;Node6</title>
<path fill="none" stroke="midnightblue" d="M899.25,-224.32C914.82,-215.74 938.88,-202.49 956.96,-192.52"/>
<polygon fill="midnightblue" stroke="midnightblue" points="958.72,-195.55 965.79,-187.65 955.35,-189.42 958.72,-195.55"/>
</g>
<!-- Node7 -->
<g id="node7" class="node">
<title>Node7</title>
<g id="a_node7"><a xlink:title=" ">
<polygon fill="white" stroke="#bfbfbf" points="188,-56.5 188,-75.5 271,-75.5 271,-56.5 188,-56.5"/>
<text text-anchor="middle" x="229.5" y="-63.5" font-family="Helvetica,sans-Serif" font-size="10.00">unordered_map</text>
</a>
</g>
</g>
<!-- Node2&#45;&gt;Node7 -->
<g id="edge6" class="edge">
<title>Node2&#45;&gt;Node7</title>
<path fill="none" stroke="midnightblue" d="M807.21,-233.69C648.04,-233.29 289.26,-222.18 216.5,-132 205.7,-118.61 211.94,-98.69 219.01,-84.44"/>
<polygon fill="midnightblue" stroke="midnightblue" points="222.11,-86.07 223.84,-75.62 215.97,-82.71 222.11,-86.07"/>
</g>
<!-- Node8 -->
<g id="node8" class="node">
<title>Node8</title>
<g id="a_node8"><a xlink:title=" ">
<polygon fill="white" stroke="#bfbfbf" points="489.5,-112.5 489.5,-131.5 593.5,-131.5 593.5,-112.5 489.5,-112.5"/>
<text text-anchor="middle" x="541.5" y="-119.5" font-family="Helvetica,sans-Serif" font-size="10.00">SFML/Graphics.hpp</text>
</a>
</g>
</g>
<!-- Node2&#45;&gt;Node8 -->
<g id="edge7" class="edge">
<title>Node2&#45;&gt;Node8</title>
<path fill="none" stroke="midnightblue" d="M856.95,-224.46C796.22,-204.93 647.09,-156.96 577.88,-134.7"/>
<polygon fill="midnightblue" stroke="midnightblue" points="578.86,-131.34 568.27,-131.61 576.72,-138 578.86,-131.34"/>
</g>
<!-- Node9 -->
<g id="node9" class="node">
<title>Node9</title>
<g id="a_node9"><a xlink:title=" ">
<polygon fill="white" stroke="#bfbfbf" points="611.5,-112.5 611.5,-131.5 737.5,-131.5 737.5,-112.5 611.5,-112.5"/>
<text text-anchor="middle" x="674.5" y="-119.5" font-family="Helvetica,sans-Serif" font-size="10.00">SFML/System/Clock.hpp</text>
</a>
</g>
</g>
<!-- Node2&#45;&gt;Node9 -->
<g id="edge8" class="edge">
<title>Node2&#45;&gt;Node9</title>
<path fill="none" stroke="midnightblue" d="M867.1,-224.37C830.78,-205.25 743.34,-159.23 699.89,-136.36"/>
<polygon fill="midnightblue" stroke="midnightblue" points="701.3,-133.15 690.82,-131.59 698.04,-139.35 701.3,-133.15"/>
</g>
<!-- Node10 -->
<g id="node10" class="node">
<title>Node10</title>
<g id="a_node10"><a xlink:title=" ">
<polygon fill="white" stroke="#bfbfbf" points="755.5,-112.5 755.5,-131.5 881.5,-131.5 881.5,-112.5 755.5,-112.5"/>
<text text-anchor="middle" x="818.5" y="-119.5" font-family="Helvetica,sans-Serif" font-size="10.00">SFML/Window/Event.hpp</text>
</a>
</g>
</g>
<!-- Node2&#45;&gt;Node10 -->
<g id="edge9" class="edge">
<title>Node2&#45;&gt;Node10</title>
<path fill="none" stroke="midnightblue" d="M873.54,-224.21C864.42,-215.72 851.07,-202.09 842.5,-188 833.71,-173.55 827.34,-155.36 823.38,-141.9"/>
<polygon fill="midnightblue" stroke="midnightblue" points="826.65,-140.6 820.62,-131.89 819.9,-142.46 826.65,-140.6"/>
</g>
<!-- Node11 -->
<g id="node11" class="node">
<title>Node11</title>
<g id="a_node11"><a xlink:title=" ">
<polygon fill="white" stroke="#bfbfbf" points="1078,-56.5 1078,-75.5 1227,-75.5 1227,-56.5 1078,-56.5"/>
<text text-anchor="middle" x="1152.5" y="-63.5" font-family="Helvetica,sans-Serif" font-size="10.00">SFML/Graphics/Transform.hpp</text>
</a>
</g>
</g>
<!-- Node2&#45;&gt;Node11 -->
<g id="edge10" class="edge">
<title>Node2&#45;&gt;Node11</title>
<path fill="none" stroke="midnightblue" d="M959.6,-228.71C1023.75,-223.45 1108.8,-212.06 1132.5,-188 1159.3,-160.79 1158.36,-112.31 1155.4,-85.72"/>
<polygon fill="midnightblue" stroke="midnightblue" points="1158.87,-85.24 1154.08,-75.79 1151.93,-86.16 1158.87,-85.24"/>
</g>
<!-- Node12 -->
<g id="node12" class="node">
<title>Node12</title>
<g id="a_node12"><a xlink:href="../../db/de8/Scene_8hpp.html" target="_top" xlink:title="The base scene class and the scene states are defined here.">
<polygon fill="white" stroke="black" points="484.5,-168.5 484.5,-187.5 598.5,-187.5 598.5,-168.5 484.5,-168.5"/>
<text text-anchor="middle" x="541.5" y="-175.5" font-family="Helvetica,sans-Serif" font-size="10.00">Small/Core/Scene.hpp</text>
</a>
</g>
</g>
<!-- Node2&#45;&gt;Node12 -->
<g id="edge11" class="edge">
<title>Node2&#45;&gt;Node12</title>
<path fill="none" stroke="midnightblue" d="M829.31,-224.44C768.52,-214.85 670.01,-199.29 605.49,-189.1"/>
<polygon fill="midnightblue" stroke="midnightblue" points="605.86,-185.62 595.44,-187.52 604.77,-192.53 605.86,-185.62"/>
</g>
<!-- Node14 -->
<g id="node14" class="node">
<title>Node14</title>
<g id="a_node14"><a xlink:href="../../df/db4/Config_8hpp.html" target="_top" xlink:title=" ">
<polygon fill="white" stroke="black" points="0,-112.5 0,-131.5 131,-131.5 131,-112.5 0,-112.5"/>
<text text-anchor="middle" x="65.5" y="-119.5" font-family="Helvetica,sans-Serif" font-size="10.00">Small/Scripting/Config.hpp</text>
</a>
</g>
</g>
<!-- Node2&#45;&gt;Node14 -->
<g id="edge35" class="edge">
<title>Node2&#45;&gt;Node14</title>
<path fill="none" stroke="midnightblue" d="M807.44,-232.28C651.1,-230.13 298.65,-221.59 183.5,-188 146.4,-177.18 108.03,-153.25 85.49,-137.64"/>
<polygon fill="midnightblue" stroke="midnightblue" points="87.3,-134.63 77.12,-131.72 83.26,-140.35 87.3,-134.63"/>
</g>
<!-- Node2&#45;&gt;Node23 -->
<g id="edge36" class="edge">
<title>Node2&#45;&gt;Node23</title>
<path fill="none" stroke="midnightblue" d="M946.59,-224.48C1011.35,-215.67 1115.03,-201.33 1204.5,-188 1205.96,-187.78 1207.43,-187.56 1208.92,-187.34"/>
<polygon fill="midnightblue" stroke="midnightblue" points="1209.52,-190.79 1218.87,-185.81 1208.46,-183.87 1209.52,-190.79"/>
</g>
<!-- Node24 -->
<g id="node24" class="node">
<title>Node24</title>
<g id="a_node24"><a xlink:title=" ">
<polygon fill="white" stroke="#bfbfbf" points="1029,-168.5 1029,-187.5 1124,-187.5 1124,-168.5 1029,-168.5"/>
<text text-anchor="middle" x="1076.5" y="-175.5" font-family="Helvetica,sans-Serif" font-size="10.00">SceneManager.inl</text>
</a>
</g>
</g>
<!-- Node2&#45;&gt;Node24 -->
<g id="edge37" class="edge">
<title>Node2&#45;&gt;Node24</title>
<path fill="none" stroke="midnightblue" d="M914.08,-224.44C947.11,-215.2 999.89,-200.44 1036.27,-190.26"/>
<polygon fill="midnightblue" stroke="midnightblue" points="1037.37,-193.58 1046.06,-187.52 1035.49,-186.84 1037.37,-193.58"/>
</g>
<!-- Node12&#45;&gt;Node8 -->
<g id="edge13" class="edge">
<title>Node12&#45;&gt;Node8</title>
<path fill="none" stroke="midnightblue" d="M541.5,-168.08C541.5,-161.01 541.5,-150.86 541.5,-141.99"/>
<polygon fill="midnightblue" stroke="midnightblue" points="545,-141.75 541.5,-131.75 538,-141.75 545,-141.75"/>
</g>
<!-- Node12&#45;&gt;Node9 -->
<g id="edge14" class="edge">
<title>Node12&#45;&gt;Node9</title>
<path fill="none" stroke="midnightblue" d="M562.57,-168.44C584.56,-159.52 619.23,-145.44 644.16,-135.32"/>
<polygon fill="midnightblue" stroke="midnightblue" points="645.58,-138.52 653.52,-131.52 642.94,-132.04 645.58,-138.52"/>
</g>
<!-- Node12&#45;&gt;Node10 -->
<g id="edge15" class="edge">
<title>Node12&#45;&gt;Node10</title>
<path fill="none" stroke="midnightblue" d="M585.39,-168.44C634.02,-158.96 712.45,-143.67 764.72,-133.48"/>
<polygon fill="midnightblue" stroke="midnightblue" points="765.67,-136.87 774.81,-131.52 764.33,-129.99 765.67,-136.87"/>
</g>
<!-- Node13 -->
<g id="node13" class="node">
<title>Node13</title>
<g id="a_node13"><a xlink:title=" ">
<polygon fill="white" stroke="#bfbfbf" points="198,-0.5 198,-19.5 239,-19.5 239,-0.5 198,-0.5"/>
<text text-anchor="middle" x="218.5" y="-7.5" font-family="Helvetica,sans-Serif" font-size="10.00">string</text>
</a>
</g>
</g>
<!-- Node12&#45;&gt;Node13 -->
<g id="edge12" class="edge">
<title>Node12&#45;&gt;Node13</title>
<path fill="none" stroke="midnightblue" d="M484.43,-174.63C403.43,-170.35 260.1,-159.1 216.5,-132 184.43,-112.07 165.08,-91.3 178.5,-56 182.84,-44.6 191.53,-34.24 199.71,-26.34"/>
<polygon fill="midnightblue" stroke="midnightblue" points="202.14,-28.86 207.23,-19.57 197.46,-23.66 202.14,-28.86"/>
</g>
<!-- Node12&#45;&gt;Node14 -->
<g id="edge16" class="edge">
<title>Node12&#45;&gt;Node14</title>
<path fill="none" stroke="midnightblue" d="M484.08,-170.49C398.32,-160.76 236.65,-142.42 141.28,-131.6"/>
<polygon fill="midnightblue" stroke="midnightblue" points="141.46,-128.09 131.12,-130.44 140.67,-135.05 141.46,-128.09"/>
</g>
<!-- Node15 -->
<g id="node15" class="node">
<title>Node15</title>
<g id="a_node15"><a xlink:href="../../d7/dc6/Node_8hpp.html" target="_top" xlink:title="A scene graph node.">
<polygon fill="white" stroke="black" points="937.5,-112.5 937.5,-131.5 1065.5,-131.5 1065.5,-112.5 937.5,-112.5"/>
<text text-anchor="middle" x="1001.5" y="-119.5" font-family="Helvetica,sans-Serif" font-size="10.00">Small/Graphics/Node.hpp</text>
</a>
</g>
</g>
<!-- Node12&#45;&gt;Node15 -->
<g id="edge18" class="edge">
<title>Node12&#45;&gt;Node15</title>
<path fill="none" stroke="midnightblue" d="M598.83,-170.27C681.82,-160.53 835.49,-142.49 927.11,-131.73"/>
<polygon fill="midnightblue" stroke="midnightblue" points="927.63,-135.2 937.15,-130.55 926.81,-128.24 927.63,-135.2"/>
</g>
<!-- Node18 -->
<g id="node18" class="node">
<title>Node18</title>
<g id="a_node18"><a xlink:href="../../dc/d6f/RessourceManager_8hpp.html" target="_top" xlink:title=" ">
<polygon fill="white" stroke="black" points="301.5,-112.5 301.5,-131.5 471.5,-131.5 471.5,-112.5 301.5,-112.5"/>
<text text-anchor="middle" x="386.5" y="-119.5" font-family="Helvetica,sans-Serif" font-size="10.00">Small/Core/RessourceManager.hpp</text>
</a>
</g>
</g>
<!-- Node12&#45;&gt;Node18 -->
<g id="edge24" class="edge">
<title>Node12&#45;&gt;Node18</title>
<path fill="none" stroke="midnightblue" d="M516.94,-168.44C490.98,-159.4 449.83,-145.06 420.7,-134.92"/>
<polygon fill="midnightblue" stroke="midnightblue" points="421.54,-131.5 410.95,-131.52 419.24,-138.11 421.54,-131.5"/>
</g>
<!-- Node22 -->
<g id="node22" class="node">
<title>Node22</title>
<g id="a_node22"><a xlink:title=" ">
<polygon fill="white" stroke="#bfbfbf" points="226,-112.5 226,-131.5 283,-131.5 283,-112.5 226,-112.5"/>
<text text-anchor="middle" x="254.5" y="-119.5" font-family="Helvetica,sans-Serif" font-size="10.00">Scene.inl</text>
</a>
</g>
</g>
<!-- Node12&#45;&gt;Node22 -->
<g id="edge34" class="edge">
<title>Node12&#45;&gt;Node22</title>
<path fill="none" stroke="midnightblue" d="M489.84,-168.5C441.54,-160.36 367.18,-147.35 293.07,-132.03"/>
<polygon fill="midnightblue" stroke="midnightblue" points="293.6,-128.56 283.1,-129.95 292.17,-135.41 293.6,-128.56"/>
</g>
<!-- Node14&#45;&gt;Node13 -->
<g id="edge17" class="edge">
<title>Node14&#45;&gt;Node13</title>
<path fill="none" stroke="midnightblue" d="M75.52,-112.15C90.35,-99.21 119.23,-74.65 145.5,-56 161.33,-44.76 179.98,-33.29 194.47,-24.75"/>
<polygon fill="midnightblue" stroke="midnightblue" points="196.44,-27.65 203.31,-19.58 192.91,-21.6 196.44,-27.65"/>
</g>
<!-- Node15&#45;&gt;Node3 -->
<g id="edge22" class="edge">
<title>Node15&#45;&gt;Node3</title>
<path fill="none" stroke="midnightblue" d="M1053.38,-112.44C1100.99,-104.25 1173.36,-90.96 1235.5,-76 1235.6,-75.98 1235.7,-75.95 1235.8,-75.93"/>
<polygon fill="midnightblue" stroke="midnightblue" points="1236.44,-79.38 1245.22,-73.46 1234.66,-72.61 1236.44,-79.38"/>
</g>
<!-- Node15&#45;&gt;Node4 -->
<g id="edge23" class="edge">
<title>Node15&#45;&gt;Node4</title>
<path fill="none" stroke="midnightblue" d="M941.88,-112.48C889.62,-104.68 811.43,-92.18 734.66,-76.11"/>
<polygon fill="midnightblue" stroke="midnightblue" points="735.32,-72.67 724.82,-74.02 733.88,-79.52 735.32,-72.67"/>
</g>
<!-- Node15&#45;&gt;Node11 -->
<g id="edge20" class="edge">
<title>Node15&#45;&gt;Node11</title>
<path fill="none" stroke="midnightblue" d="M1025.43,-112.44C1050.72,-103.4 1090.8,-89.06 1119.18,-78.92"/>
<polygon fill="midnightblue" stroke="midnightblue" points="1120.45,-82.18 1128.69,-75.52 1118.09,-75.59 1120.45,-82.18"/>
</g>
<!-- Node16 -->
<g id="node16" class="node">
<title>Node16</title>
<g id="a_node16"><a xlink:title=" ">
<polygon fill="white" stroke="#bfbfbf" points="742.5,-56.5 742.5,-75.5 906.5,-75.5 906.5,-56.5 742.5,-56.5"/>
<text text-anchor="middle" x="824.5" y="-63.5" font-family="Helvetica,sans-Serif" font-size="10.00">SFML/Graphics/RenderTarget.hpp</text>
</a>
</g>
</g>
<!-- Node15&#45;&gt;Node16 -->
<g id="edge19" class="edge">
<title>Node15&#45;&gt;Node16</title>
<path fill="none" stroke="midnightblue" d="M973.45,-112.44C943.42,-103.28 895.59,-88.69 862.26,-78.52"/>
<polygon fill="midnightblue" stroke="midnightblue" points="863,-75.09 852.41,-75.52 860.96,-81.78 863,-75.09"/>
</g>
<!-- Node17 -->
<g id="node17" class="node">
<title>Node17</title>
<g id="a_node17"><a xlink:title=" ">
<polygon fill="white" stroke="#bfbfbf" points="925,-56.5 925,-75.5 1060,-75.5 1060,-56.5 925,-56.5"/>
<text text-anchor="middle" x="992.5" y="-63.5" font-family="Helvetica,sans-Serif" font-size="10.00">SFML/System/Vector2.hpp</text>
</a>
</g>
</g>
<!-- Node15&#45;&gt;Node17 -->
<g id="edge21" class="edge">
<title>Node15&#45;&gt;Node17</title>
<path fill="none" stroke="midnightblue" d="M1000.01,-112.08C998.82,-104.93 997.11,-94.64 995.62,-85.69"/>
<polygon fill="midnightblue" stroke="midnightblue" points="999.05,-85.04 993.96,-75.75 992.15,-86.19 999.05,-85.04"/>
</g>
<!-- Node18&#45;&gt;Node4 -->
<g id="edge26" class="edge">
<title>Node18&#45;&gt;Node4</title>
<path fill="none" stroke="midnightblue" d="M435.94,-112.44C498.89,-101.55 606.2,-82.98 662.14,-73.29"/>
<polygon fill="midnightblue" stroke="midnightblue" points="663.04,-76.69 672.3,-71.54 661.85,-69.79 663.04,-76.69"/>
</g>
<!-- Node18&#45;&gt;Node7 -->
<g id="edge27" class="edge">
<title>Node18&#45;&gt;Node7</title>
<path fill="none" stroke="midnightblue" d="M361.62,-112.44C335.21,-103.36 293.28,-88.94 263.76,-78.78"/>
<polygon fill="midnightblue" stroke="midnightblue" points="264.86,-75.46 254.26,-75.52 262.58,-82.08 264.86,-75.46"/>
</g>
<!-- Node18&#45;&gt;Node13 -->
<g id="edge25" class="edge">
<title>Node18&#45;&gt;Node13</title>
<path fill="none" stroke="midnightblue" d="M373.32,-112.37C344.49,-93.49 275.6,-48.38 240.24,-25.24"/>
<polygon fill="midnightblue" stroke="midnightblue" points="241.9,-22.14 231.62,-19.59 238.07,-28 241.9,-22.14"/>
</g>
<!-- Node19 -->
<g id="node19" class="node">
<title>Node19</title>
<g id="a_node19"><a xlink:title=" ">
<polygon fill="white" stroke="#bfbfbf" points="316,-0.5 316,-19.5 455,-19.5 455,-0.5 316,-0.5"/>
<text text-anchor="middle" x="385.5" y="-7.5" font-family="Helvetica,sans-Serif" font-size="10.00">SFML/Graphics/Texture.hpp</text>
</a>
</g>
</g>
<!-- Node18&#45;&gt;Node19 -->
<g id="edge28" class="edge">
<title>Node18&#45;&gt;Node19</title>
<path fill="none" stroke="midnightblue" d="M415.05,-112.5C444.86,-102.01 485.25,-82.3 469.5,-56 460.35,-40.72 444.04,-30.33 428.21,-23.43"/>
<polygon fill="midnightblue" stroke="midnightblue" points="429.07,-20 418.49,-19.56 426.49,-26.51 429.07,-20"/>
</g>
<!-- Node20 -->
<g id="node20" class="node">
<title>Node20</title>
<g id="a_node20"><a xlink:title=" ">
<polygon fill="white" stroke="#bfbfbf" points="473.5,-0.5 473.5,-19.5 599.5,-19.5 599.5,-0.5 473.5,-0.5"/>
<text text-anchor="middle" x="536.5" y="-7.5" font-family="Helvetica,sans-Serif" font-size="10.00">SFML/Graphics/Font.hpp</text>
</a>
</g>
</g>
<!-- Node18&#45;&gt;Node20 -->
<g id="edge29" class="edge">
<title>Node18&#45;&gt;Node20</title>
<path fill="none" stroke="midnightblue" d="M414.06,-112.5C435.07,-105.11 463.98,-92.92 485.5,-76 502.36,-62.75 516.92,-42.81 526.12,-28.51"/>
<polygon fill="midnightblue" stroke="midnightblue" points="529.31,-30.01 531.59,-19.66 523.35,-26.33 529.31,-30.01"/>
</g>
<!-- Node21 -->
<g id="node21" class="node">
<title>Node21</title>
<g id="a_node21"><a xlink:href="../../db/d73/Ressource_8hpp.html" target="_top" xlink:title=" ">
<polygon fill="white" stroke="black" points="328,-56.5 328,-75.5 461,-75.5 461,-56.5 328,-56.5"/>
<text text-anchor="middle" x="394.5" y="-63.5" font-family="Helvetica,sans-Serif" font-size="10.00">Small/Core/Ressource.hpp</text>
</a>
</g>
</g>
<!-- Node18&#45;&gt;Node21 -->
<g id="edge30" class="edge">
<title>Node18&#45;&gt;Node21</title>
<path fill="none" stroke="midnightblue" d="M387.82,-112.08C388.88,-104.93 390.41,-94.64 391.73,-85.69"/>
<polygon fill="midnightblue" stroke="midnightblue" points="395.2,-86.16 393.2,-75.75 388.28,-85.13 395.2,-86.16"/>
</g>
<!-- Node21&#45;&gt;Node13 -->
<g id="edge31" class="edge">
<title>Node21&#45;&gt;Node13</title>
<path fill="none" stroke="midnightblue" d="M366.61,-56.44C334.46,-46.58 281.81,-30.42 248.71,-20.27"/>
<polygon fill="midnightblue" stroke="midnightblue" points="249.69,-16.91 239.11,-17.32 247.64,-23.6 249.69,-16.91"/>
</g>
<!-- Node21&#45;&gt;Node19 -->
<g id="edge32" class="edge">
<title>Node21&#45;&gt;Node19</title>
<path fill="none" stroke="midnightblue" d="M393.01,-56.08C391.82,-48.93 390.11,-38.64 388.62,-29.69"/>
<polygon fill="midnightblue" stroke="midnightblue" points="392.05,-29.04 386.96,-19.75 385.15,-30.19 392.05,-29.04"/>
</g>
<!-- Node21&#45;&gt;Node20 -->
<g id="edge33" class="edge">
<title>Node21&#45;&gt;Node20</title>
<path fill="none" stroke="midnightblue" d="M417,-56.44C440.58,-47.48 477.82,-33.31 504.46,-23.18"/>
<polygon fill="midnightblue" stroke="midnightblue" points="506,-26.34 514.1,-19.52 503.51,-19.8 506,-26.34"/>
</g>
<!-- Node26 -->
<g id="node26" class="node">
<title>Node26</title>
<g id="a_node26"><a xlink:title=" ">
<polygon fill="white" stroke="#bfbfbf" points="1322,-168.5 1322,-187.5 1417,-187.5 1417,-168.5 1322,-168.5"/>
<text text-anchor="middle" x="1369.5" y="-175.5" font-family="Helvetica,sans-Serif" font-size="10.00">Ark/VM/State.hpp</text>
</a>
</g>
</g>
<!-- Node25&#45;&gt;Node26 -->
<g id="edge39" class="edge">
<title>Node25&#45;&gt;Node26</title>
<path fill="none" stroke="midnightblue" d="M1361.99,-224.08C1363.18,-216.93 1364.89,-206.64 1366.38,-197.69"/>
<polygon fill="midnightblue" stroke="midnightblue" points="1369.85,-198.19 1368.04,-187.75 1362.95,-197.04 1369.85,-198.19"/>
</g>
</g>
</svg>
