<?xml version="1.0" encoding="UTF-8" standalone="no"?>
<!DOCTYPE svg PUBLIC "-//W3C//DTD SVG 1.1//EN"
 "http://www.w3.org/Graphics/SVG/1.1/DTD/svg11.dtd">
<!-- Generated by graphviz version 2.38.0 (20140413.2041)
 -->
<!-- Title: sgl::Scenes::Zone Pages: 1 -->
<!--zoomable 229 -->
<svg id="main" version="1.1" xmlns="http://www.w3.org/2000/svg" xmlns:xlink="http://www.w3.org/1999/xlink" xml:space="preserve" onload="init(evt)">
<style type="text/css"><![CDATA[
.edge:hover path { stroke: red; }
.edge:hover polygon { stroke: red; fill: red; }
]]></style>
<script type="text/javascript"><![CDATA[
var edges = document.getElementsByTagName('g');
if (edges && edges.length) {
  for (var i=0;i<edges.length;i++) {
    if (edges[i].id.substr(0,4)=='edge') {
      edges[i].setAttribute('class','edge');
    }
  }
}
]]></script>
        <defs>
                <circle id="rim" cx="0" cy="0" r="7"/>
                <circle id="rim2" cx="0" cy="0" r="3.5"/>
                <g id="zoomPlus">
                        <use xlink:href="#rim" fill="#404040">
                                <set attributeName="fill" to="#808080" begin="zoomplus.mouseover" end="zoomplus.mouseout"/>
                        </use>
                        <path d="M-4,0h8M0,-4v8" fill="none" stroke="white" stroke-width="1.5" pointer-events="none"/>
                </g>
                <g id="zoomMin">
                        <use xlink:href="#rim" fill="#404040">
                                <set attributeName="fill" to="#808080" begin="zoomminus.mouseover" end="zoomminus.mouseout"/>
                        </use>
                        <path d="M-4,0h8" fill="none" stroke="white" stroke-width="1.5" pointer-events="none"/>
                </g>
                <g id="dirArrow">
                        <path fill="none" stroke="white" stroke-width="1.5" d="M0,-3.0v7 M-2.5,-0.5L0,-3.0L2.5,-0.5"/>
                </g>
               <g id="resetDef">
                       <use xlink:href="#rim2" fill="#404040">
                               <set attributeName="fill" to="#808080" begin="reset.mouseover" end="reset.mouseout"/>
                       </use>
               </g>
        </defs>

<script type="text/javascript">
var viewWidth = 1653;
var viewHeight = 229;
var sectionId = 'dynsection-1';
</script>
<script xlink:href="../../svgpan.js"/>
<svg id="graph" class="graph">
<g id="viewport">
<title>sgl::Scenes::Zone</title>
<polygon fill="white" stroke="none" points="-4,4 -4,-225 1649,-225 1649,4 -4,4"/>
<!-- Node1 -->
<g id="node1" class="node"><title>Node1</title>
<polygon fill="#bfbfbf" stroke="black" points="1124,-87.5 1124,-106.5 1219,-106.5 1219,-87.5 1124,-87.5"/>
<text text-anchor="middle" x="1171.5" y="-94.5" font-family="Helvetica,sans-Serif" font-size="10.00">sgl::Scenes::Zone</text>
</g>
<!-- Node2 -->
<g id="node2" class="node"><title>Node2</title>
<g id="a_node2"><a xlink:href="../../d8/dcf/classsgl_1_1Scene.html" target="_top" xlink:title="Base class which every user scene must derive from. ">
<polygon fill="white" stroke="black" points="888.5,-136.5 888.5,-155.5 951.5,-155.5 951.5,-136.5 888.5,-136.5"/>
<text text-anchor="middle" x="920" y="-143.5" font-family="Helvetica,sans-Serif" font-size="10.00">sgl::Scene</text>
</a>
</g>
</g>
<!-- Node2&#45;&gt;Node1 -->
<g id="edge1" class="edge"><title>Node2&#45;&gt;Node1</title>
<path fill="none" stroke="midnightblue" d="M961.468,-138.052C1005.92,-129.323 1077.18,-115.328 1123.92,-106.148"/>
<polygon fill="midnightblue" stroke="midnightblue" points="960.732,-134.63 951.594,-139.992 962.081,-141.499 960.732,-134.63"/>
</g>
<!-- Node12 -->
<g id="node12" class="node"><title>Node12</title>
<polygon fill="white" stroke="#bfbfbf" points="1120,-126 1120,-156 1223,-156 1223,-126 1120,-126"/>
<text text-anchor="start" x="1128" y="-144" font-family="Helvetica,sans-Serif" font-size="10.00">std::unique_ptr&lt; sgl</text>
<text text-anchor="middle" x="1171.5" y="-133" font-family="Helvetica,sans-Serif" font-size="10.00">::Scene &gt;</text>
</g>
<!-- Node2&#45;&gt;Node12 -->
<g id="edge13" class="edge"><title>Node2&#45;&gt;Node12</title>
<path fill="none" stroke="#9a32cd" stroke-dasharray="5,2" d="M961.732,-145.184C1004.89,-144.319 1073.12,-142.952 1119.75,-142.017"/>
<polygon fill="#9a32cd" stroke="#9a32cd" points="961.521,-141.687 951.594,-145.387 961.662,-148.686 961.521,-141.687"/>
<text text-anchor="middle" x="1049" y="-148" font-family="Helvetica,sans-Serif" font-size="10.00"> ptr</text>
</g>
<!-- Node3 -->
<g id="node3" class="node"><title>Node3</title>
<g id="a_node3"><a xlink:href="../../dc/dee/classsgl_1_1Graphics_1_1Node.html" target="_top" xlink:title="Abstract base class for a scene graph node. ">
<polygon fill="white" stroke="black" points="640,-104.5 640,-123.5 743,-123.5 743,-104.5 640,-104.5"/>
<text text-anchor="middle" x="691.5" y="-111.5" font-family="Helvetica,sans-Serif" font-size="10.00">sgl::Graphics::Node</text>
</a>
</g>
</g>
<!-- Node3&#45;&gt;Node2 -->
<g id="edge2" class="edge"><title>Node3&#45;&gt;Node2</title>
<path fill="none" stroke="midnightblue" d="M752.996,-122.547C796.684,-128.719 853.859,-136.797 888.436,-141.682"/>
<polygon fill="midnightblue" stroke="midnightblue" points="753.44,-119.075 743.049,-121.142 752.461,-126.006 753.44,-119.075"/>
</g>
<!-- Node4 -->
<g id="node4" class="node"><title>Node4</title>
<polygon fill="white" stroke="#bfbfbf" points="355,-91 355,-121 501,-121 501,-91 355,-91"/>
<text text-anchor="start" x="363" y="-109" font-family="Helvetica,sans-Serif" font-size="10.00">std::vector&lt; std::shared</text>
<text text-anchor="middle" x="428" y="-98" font-family="Helvetica,sans-Serif" font-size="10.00">_ptr&lt; sgl::Graphics::Node &gt; &gt;</text>
</g>
<!-- Node4&#45;&gt;Node3 -->
<g id="edge3" class="edge"><title>Node4&#45;&gt;Node3</title>
<path fill="none" stroke="#9a32cd" stroke-dasharray="5,2" d="M511.384,-108.52C553.451,-109.807 603.295,-111.332 639.708,-112.446"/>
<polygon fill="#9a32cd" stroke="#9a32cd" points="511.251,-105.015 501.148,-108.207 511.037,-112.011 511.251,-105.015"/>
<text text-anchor="middle" x="570.5" y="-115" font-family="Helvetica,sans-Serif" font-size="10.00"> m_children</text>
</g>
<!-- Node5 -->
<g id="node5" class="node"><title>Node5</title>
<g id="a_node5"><a xlink:title="STL class. ">
<polygon fill="white" stroke="#bfbfbf" points="117,-87.5 117,-106.5 202,-106.5 202,-87.5 117,-87.5"/>
<text text-anchor="middle" x="159.5" y="-94.5" font-family="Helvetica,sans-Serif" font-size="10.00">std::vector&lt; T &gt;</text>
</a>
</g>
</g>
<!-- Node5&#45;&gt;Node4 -->
<g id="edge4" class="edge"><title>Node5&#45;&gt;Node4</title>
<path fill="none" stroke="orange" stroke-dasharray="5,2" d="M212.343,-98.7508C252.903,-100.121 309.777,-102.041 354.793,-103.562"/>
<polygon fill="orange" stroke="orange" points="212.253,-95.2459 202.141,-98.4063 212.017,-102.242 212.253,-95.2459"/>
<text text-anchor="start" x="229" y="-117" font-family="Helvetica,sans-Serif" font-size="10.00"> &lt; std::shared_ptr&lt;</text>
<text text-anchor="middle" x="283" y="-106" font-family="Helvetica,sans-Serif" font-size="10.00"> sgl::Graphics::Node &gt; &gt;</text>
</g>
<!-- Node11 -->
<g id="node11" class="node"><title>Node11</title>
<polygon fill="white" stroke="#bfbfbf" points="1340,-76 1340,-106 1459,-106 1459,-76 1340,-76"/>
<text text-anchor="start" x="1348" y="-94" font-family="Helvetica,sans-Serif" font-size="10.00">std::vector&lt; std::unique</text>
<text text-anchor="middle" x="1399.5" y="-83" font-family="Helvetica,sans-Serif" font-size="10.00">_ptr&lt; sgl::Scene &gt; &gt;</text>
</g>
<!-- Node5&#45;&gt;Node11 -->
<g id="edge16" class="edge"><title>Node5&#45;&gt;Node11</title>
<path fill="none" stroke="orange" stroke-dasharray="5,2" d="M211.693,-85.3065C265.122,-74.1395 351.482,-59 427,-59 427,-59 427,-59 1172.5,-59 1229.76,-59 1294.39,-69.1954 1339.82,-78.0766"/>
<polygon fill="orange" stroke="orange" points="210.84,-81.9096 201.785,-87.411 212.294,-88.7569 210.84,-81.9096"/>
<text text-anchor="start" x="761" y="-73" font-family="Helvetica,sans-Serif" font-size="10.00"> &lt; std::unique_ptr&lt;</text>
<text text-anchor="middle" x="802.5" y="-62" font-family="Helvetica,sans-Serif" font-size="10.00"> sgl::Scene &gt; &gt;</text>
</g>
<!-- Node6 -->
<g id="node6" class="node"><title>Node6</title>
<polygon fill="white" stroke="#bfbfbf" points="0,-87.5 0,-106.5 29,-106.5 29,-87.5 0,-87.5"/>
<text text-anchor="middle" x="14.5" y="-94.5" font-family="Helvetica,sans-Serif" font-size="10.00">T</text>
</g>
<!-- Node6&#45;&gt;Node5 -->
<g id="edge5" class="edge"><title>Node6&#45;&gt;Node5</title>
<path fill="none" stroke="#9a32cd" stroke-dasharray="5,2" d="M39.2186,-97C60.3014,-97 91.6043,-97 116.853,-97"/>
<polygon fill="#9a32cd" stroke="#9a32cd" points="39.2115,-93.5001 29.2114,-97 39.2114,-100.5 39.2115,-93.5001"/>
<text text-anchor="middle" x="68.5" y="-100" font-family="Helvetica,sans-Serif" font-size="10.00"> elements</text>
</g>
<!-- Node9 -->
<g id="node9" class="node"><title>Node9</title>
<g id="a_node9"><a xlink:title="STL class. ">
<polygon fill="white" stroke="#bfbfbf" points="108,-11 108,-41 211,-41 211,-11 108,-11"/>
<text text-anchor="start" x="116" y="-29" font-family="Helvetica,sans-Serif" font-size="10.00">std::unordered_map</text>
<text text-anchor="middle" x="159.5" y="-18" font-family="Helvetica,sans-Serif" font-size="10.00">&lt; K, T &gt;</text>
</a>
</g>
</g>
<!-- Node6&#45;&gt;Node9 -->
<g id="edge10" class="edge"><title>Node6&#45;&gt;Node9</title>
<path fill="none" stroke="#9a32cd" stroke-dasharray="5,2" d="M38.3881,-85.636C62.7198,-73.5552 101.318,-54.3912 128.168,-41.06"/>
<polygon fill="#9a32cd" stroke="#9a32cd" points="36.6117,-82.6102 29.2114,-90.1922 39.7247,-88.88 36.6117,-82.6102"/>
<text text-anchor="middle" x="68.5" y="-83" font-family="Helvetica,sans-Serif" font-size="10.00"> elements</text>
</g>
<!-- Node13 -->
<g id="node13" class="node"><title>Node13</title>
<g id="a_node13"><a xlink:title="STL class. ">
<polygon fill="white" stroke="#bfbfbf" points="231,-163.5 231,-182.5 335,-182.5 335,-163.5 231,-163.5"/>
<text text-anchor="middle" x="283" y="-170.5" font-family="Helvetica,sans-Serif" font-size="10.00">std::unique_ptr&lt; T &gt;</text>
</a>
</g>
</g>
<!-- Node6&#45;&gt;Node13 -->
<g id="edge15" class="edge"><title>Node6&#45;&gt;Node13</title>
<path fill="none" stroke="#9a32cd" stroke-dasharray="5,2" d="M38.3904,-108.518C41.2551,-109.775 44.172,-110.97 47,-112 110.371,-135.074 186.325,-153.134 234.379,-163.434"/>
<polygon fill="#9a32cd" stroke="#9a32cd" points="39.5977,-105.219 29.0567,-104.152 36.6319,-111.559 39.5977,-105.219"/>
<text text-anchor="middle" x="68.5" y="-129" font-family="Helvetica,sans-Serif" font-size="10.00"> ptr</text>
</g>
<!-- Node7 -->
<g id="node7" class="node"><title>Node7</title>
<g id="a_node7"><a xlink:href="../../de/dd2/classsgl_1_1SceneManager.html" target="_top" xlink:title="Scene manager, in charge of creating, handling and destroying scenes. ">
<polygon fill="white" stroke="black" points="1544,-81.5 1544,-100.5 1645,-100.5 1645,-81.5 1544,-81.5"/>
<text text-anchor="middle" x="1594.5" y="-88.5" font-family="Helvetica,sans-Serif" font-size="10.00">sgl::SceneManager</text>
</a>
</g>
</g>
<!-- Node7&#45;&gt;Node2 -->
<g id="edge6" class="edge"><title>Node7&#45;&gt;Node2</title>
<path fill="none" stroke="#9a32cd" stroke-dasharray="5,2" d="M1541.44,-102.712C1536.23,-103.842 1531.01,-104.955 1526,-106 1391.69,-133.995 1359.56,-151.828 1223,-165 1177.43,-169.395 1165.77,-165.922 1120,-165 1064.86,-163.889 1050.81,-166.188 996,-160 981.258,-158.336 965.06,-155.448 951.502,-152.726"/>
<polygon fill="#9a32cd" stroke="#9a32cd" points="1542.39,-106.089 1551.41,-100.533 1540.89,-99.2502 1542.39,-106.089"/>
<text text-anchor="middle" x="1281.5" y="-167" font-family="Helvetica,sans-Serif" font-size="10.00"> m_sceneManager</text>
</g>
<!-- Node8 -->
<g id="node8" class="node"><title>Node8</title>
<polygon fill="white" stroke="#bfbfbf" points="519,-0.5 519,-41.5 622,-41.5 622,-0.5 519,-0.5"/>
<text text-anchor="start" x="527" y="-29.5" font-family="Helvetica,sans-Serif" font-size="10.00">std::unordered_map</text>
<text text-anchor="start" x="527" y="-18.5" font-family="Helvetica,sans-Serif" font-size="10.00">&lt; std::size_t, std::</text>
<text text-anchor="middle" x="570.5" y="-7.5" font-family="Helvetica,sans-Serif" font-size="10.00">size_t &gt;</text>
</g>
<!-- Node8&#45;&gt;Node7 -->
<g id="edge7" class="edge"><title>Node8&#45;&gt;Node7</title>
<path fill="none" stroke="#9a32cd" stroke-dasharray="5,2" d="M632.384,-21C678.745,-21 744.145,-21 801.5,-21 801.5,-21 801.5,-21 1400.5,-21 1470.36,-21 1546.38,-62.0327 1578.18,-81.2668"/>
<polygon fill="#9a32cd" stroke="#9a32cd" points="632.203,-17.5001 622.203,-21 632.203,-24.5001 632.203,-17.5001"/>
<text text-anchor="middle" x="1049" y="-24" font-family="Helvetica,sans-Serif" font-size="10.00"> m_hashCodeToSceneId</text>
</g>
<!-- Node9&#45;&gt;Node8 -->
<g id="edge8" class="edge"><title>Node9&#45;&gt;Node8</title>
<path fill="none" stroke="orange" stroke-dasharray="5,2" d="M221.375,-23.2141C223.951,-23.1341 226.501,-23.062 229,-23 331.829,-20.4472 452.178,-20.4407 518.725,-20.6984"/>
<polygon fill="orange" stroke="orange" points="221.24,-19.7166 211.366,-23.5577 221.48,-26.7125 221.24,-19.7166"/>
<text text-anchor="start" x="244" y="-37" font-family="Helvetica,sans-Serif" font-size="10.00"> &lt; std::size_t, std</text>
<text text-anchor="middle" x="283" y="-26" font-family="Helvetica,sans-Serif" font-size="10.00">::size_t &gt;</text>
</g>
<!-- Node10 -->
<g id="node10" class="node"><title>Node10</title>
<polygon fill="white" stroke="#bfbfbf" points="0,-16.5 0,-35.5 29,-35.5 29,-16.5 0,-16.5"/>
<text text-anchor="middle" x="14.5" y="-23.5" font-family="Helvetica,sans-Serif" font-size="10.00">K</text>
</g>
<!-- Node10&#45;&gt;Node9 -->
<g id="edge9" class="edge"><title>Node10&#45;&gt;Node9</title>
<path fill="none" stroke="#9a32cd" stroke-dasharray="5,2" d="M39.4483,-26C58.0959,-26 84.6375,-26 107.929,-26"/>
<polygon fill="#9a32cd" stroke="#9a32cd" points="39.2115,-22.5001 29.2114,-26 39.2114,-29.5001 39.2115,-22.5001"/>
<text text-anchor="middle" x="68.5" y="-29" font-family="Helvetica,sans-Serif" font-size="10.00"> keys</text>
</g>
<!-- Node11&#45;&gt;Node7 -->
<g id="edge11" class="edge"><title>Node11&#45;&gt;Node7</title>
<path fill="none" stroke="#9a32cd" stroke-dasharray="5,2" d="M1469.21,-91C1493.86,-91 1521.15,-91 1543.87,-91"/>
<polygon fill="#9a32cd" stroke="#9a32cd" points="1469.19,-87.5001 1459.19,-91 1469.19,-94.5001 1469.19,-87.5001"/>
<text text-anchor="middle" x="1501.5" y="-94" font-family="Helvetica,sans-Serif" font-size="10.00"> m_scenes</text>
</g>
<!-- Node12&#45;&gt;Node11 -->
<g id="edge12" class="edge"><title>Node12&#45;&gt;Node11</title>
<path fill="none" stroke="#9a32cd" stroke-dasharray="5,2" d="M1233.24,-127.563C1266.37,-120.233 1307.19,-111.202 1339.97,-103.95"/>
<polygon fill="#9a32cd" stroke="#9a32cd" points="1232.23,-124.201 1223.22,-129.779 1233.74,-131.036 1232.23,-124.201"/>
<text text-anchor="middle" x="1281.5" y="-128" font-family="Helvetica,sans-Serif" font-size="10.00"> elements</text>
</g>
<!-- Node13&#45;&gt;Node12 -->
<g id="edge14" class="edge"><title>Node13&#45;&gt;Node12</title>
<path fill="none" stroke="orange" stroke-dasharray="5,2" d="M339.189,-184.441C396.495,-195.308 488.874,-210 569.5,-210 569.5,-210 569.5,-210 921,-210 1001.22,-210 1090.87,-176.454 1137.8,-156.142"/>
<polygon fill="orange" stroke="orange" points="339.738,-180.982 329.257,-182.528 338.415,-187.856 339.738,-180.982"/>
<text text-anchor="middle" x="691.5" y="-213" font-family="Helvetica,sans-Serif" font-size="10.00"> &lt; sgl::Scene &gt;</text>
</g>
<!-- Node14 -->
<g id="node14" class="node"><title>Node14</title>
<g id="a_node14"><a xlink:href="../../d2/d2a/classsgl_1_1Graphics_1_1TileView.html" target="_top" xlink:title="Wrapper around sf::View to manipule views using tiles coordinates. ">
<polygon fill="white" stroke="black" points="862,-87.5 862,-106.5 978,-106.5 978,-87.5 862,-87.5"/>
<text text-anchor="middle" x="920" y="-94.5" font-family="Helvetica,sans-Serif" font-size="10.00">sgl::Graphics::TileView</text>
</a>
</g>
</g>
<!-- Node14&#45;&gt;Node1 -->
<g id="edge17" class="edge"><title>Node14&#45;&gt;Node1</title>
<path fill="none" stroke="#9a32cd" stroke-dasharray="5,2" d="M988.327,-97C1031.26,-97 1085.79,-97 1123.96,-97"/>
<polygon fill="#9a32cd" stroke="#9a32cd" points="988.24,-93.5001 978.24,-97 988.24,-100.5 988.24,-93.5001"/>
<text text-anchor="middle" x="1049" y="-100" font-family="Helvetica,sans-Serif" font-size="10.00"> m_view</text>
</g>
</g>
</svg>
        <g id="navigator" transform="translate(0 0)" fill="#404254">
                <rect fill="#f2f5e9" fill-opacity="0.5" stroke="#606060" stroke-width=".5" x="0" y="0" width="60" height="60"/>
                <use id="zoomplus" xlink:href="#zoomPlus" x="17" y="9" onmousedown="handleZoom(evt,'in')"/>
                <use id="zoomminus" xlink:href="#zoomMin" x="42" y="9" onmousedown="handleZoom(evt,'out')"/>
                <use id="reset" xlink:href="#resetDef" x="30" y="36" onmousedown="handleReset()"/>
                <g id="arrowUp" xlink:href="#dirArrow" transform="translate(30 24)" onmousedown="handlePan(0,-1)">
                  <use xlink:href="#rim" fill="#404040">
                        <set attributeName="fill" to="#808080" begin="arrowUp.mouseover" end="arrowUp.mouseout"/>
                  </use>
                  <path fill="none" stroke="white" stroke-width="1.5" d="M0,-3.0v7 M-2.5,-0.5L0,-3.0L2.5,-0.5"/>
                </g>
                <g id="arrowRight" xlink:href="#dirArrow" transform="rotate(90) translate(36 -43)" onmousedown="handlePan(1,0)">
                  <use xlink:href="#rim" fill="#404040">
                        <set attributeName="fill" to="#808080" begin="arrowRight.mouseover" end="arrowRight.mouseout"/>
                  </use>
                  <path fill="none" stroke="white" stroke-width="1.5" d="M0,-3.0v7 M-2.5,-0.5L0,-3.0L2.5,-0.5"/>
                </g>
                <g id="arrowDown" xlink:href="#dirArrow" transform="rotate(180) translate(-30 -48)" onmousedown="handlePan(0,1)">
                  <use xlink:href="#rim" fill="#404040">
                        <set attributeName="fill" to="#808080" begin="arrowDown.mouseover" end="arrowDown.mouseout"/>
                  </use>
                  <path fill="none" stroke="white" stroke-width="1.5" d="M0,-3.0v7 M-2.5,-0.5L0,-3.0L2.5,-0.5"/>
                </g>
                <g id="arrowLeft" xlink:href="#dirArrow" transform="rotate(270) translate(-36 17)" onmousedown="handlePan(-1,0)">
                  <use xlink:href="#rim" fill="#404040">
                        <set attributeName="fill" to="#808080" begin="arrowLeft.mouseover" end="arrowLeft.mouseout"/>
                  </use>
                  <path fill="none" stroke="white" stroke-width="1.5" d="M0,-3.0v7 M-2.5,-0.5L0,-3.0L2.5,-0.5"/>
                </g>
        </g>
        <svg viewBox="0 0 15 15" width="100%" height="30px" preserveAspectRatio="xMaxYMin meet">
         <g id="arrow_out" transform="scale(0.3 0.3)">
          <a xlink:href="classsgl_1_1Scenes_1_1Zone__coll__graph_org.svg" target="_base">
           <rect id="button" ry="5" rx="5" y="6" x="6" height="38" width="38"
                fill="#f2f5e9" fill-opacity="0.5" stroke="#606060" stroke-width="1.0"/>
           <path id="arrow"
             d="M 11.500037,31.436501 C 11.940474,20.09759 22.043105,11.32322 32.158766,21.979434 L 37.068811,17.246167 C 37.068811,17.246167 37.088388,32 37.088388,32 L 22.160133,31.978069 C 22.160133,31.978069 26.997745,27.140456 26.997745,27.140456 C 18.528582,18.264221 13.291696,25.230495 11.500037,31.436501 z"
             style="fill:#404040;"/>
          </a>
         </g>
        </svg>
</svg>
