<?xml version="1.0" encoding="UTF-8" standalone="no"?>
<!DOCTYPE svg PUBLIC "-//W3C//DTD SVG 1.1//EN"
 "http://www.w3.org/Graphics/SVG/1.1/DTD/svg11.dtd">
<!-- Generated by graphviz version 2.38.0 (20140413.2041)
 -->
<!-- Title: sgl::Scenes::Zone Pages: 1 -->
<svg width="1653pt" height="224pt"
 viewBox="0.00 0.00 1653.00 223.50" xmlns="http://www.w3.org/2000/svg" xmlns:xlink="http://www.w3.org/1999/xlink">
<g id="graph0" class="graph" transform="scale(1 1) rotate(0) translate(4 219.5)">
<title>sgl::Scenes::Zone</title>
<polygon fill="white" stroke="none" points="-4,4 -4,-219.5 1649,-219.5 1649,4 -4,4"/>
<!-- Node1 -->
<g id="node1" class="node"><title>Node1</title>
<polygon fill="#bfbfbf" stroke="black" points="1124,-82 1124,-101 1219,-101 1219,-82 1124,-82"/>
<text text-anchor="middle" x="1171.5" y="-89" font-family="Helvetica,sans-Serif" font-size="10.00">sgl::Scenes::Zone</text>
</g>
<!-- Node2 -->
<g id="node2" class="node"><title>Node2</title>
<g id="a_node2"><a xlink:href="../../d8/dcf/classsgl_1_1Scene.html" target="_top" xlink:title="Base class which every user scene must derive from. ">
<polygon fill="white" stroke="black" points="888.5,-131 888.5,-150 951.5,-150 951.5,-131 888.5,-131"/>
<text text-anchor="middle" x="920" y="-138" font-family="Helvetica,sans-Serif" font-size="10.00">sgl::Scene</text>
</a>
</g>
</g>
<!-- Node2&#45;&gt;Node1 -->
<g id="edge1" class="edge"><title>Node2&#45;&gt;Node1</title>
<path fill="none" stroke="midnightblue" d="M961.468,-132.552C1005.92,-123.823 1077.18,-109.828 1123.92,-100.648"/>
<polygon fill="midnightblue" stroke="midnightblue" points="960.732,-129.13 951.594,-134.492 962.081,-135.999 960.732,-129.13"/>
</g>
<!-- Node12 -->
<g id="node12" class="node"><title>Node12</title>
<polygon fill="white" stroke="#bfbfbf" points="1120,-120.5 1120,-150.5 1223,-150.5 1223,-120.5 1120,-120.5"/>
<text text-anchor="start" x="1128" y="-138.5" font-family="Helvetica,sans-Serif" font-size="10.00">std::unique_ptr&lt; sgl</text>
<text text-anchor="middle" x="1171.5" y="-127.5" font-family="Helvetica,sans-Serif" font-size="10.00">::Scene &gt;</text>
</g>
<!-- Node2&#45;&gt;Node12 -->
<g id="edge13" class="edge"><title>Node2&#45;&gt;Node12</title>
<path fill="none" stroke="#9a32cd" stroke-dasharray="5,2" d="M961.732,-139.684C1004.89,-138.819 1073.12,-137.452 1119.75,-136.517"/>
<polygon fill="#9a32cd" stroke="#9a32cd" points="961.521,-136.187 951.594,-139.887 961.662,-143.186 961.521,-136.187"/>
<text text-anchor="middle" x="1049" y="-142.5" font-family="Helvetica,sans-Serif" font-size="10.00"> ptr</text>
</g>
<!-- Node3 -->
<g id="node3" class="node"><title>Node3</title>
<g id="a_node3"><a xlink:href="../../dc/dee/classsgl_1_1Graphics_1_1Node.html" target="_top" xlink:title="Abstract base class for a scene graph node. ">
<polygon fill="white" stroke="black" points="640,-99 640,-118 743,-118 743,-99 640,-99"/>
<text text-anchor="middle" x="691.5" y="-106" font-family="Helvetica,sans-Serif" font-size="10.00">sgl::Graphics::Node</text>
</a>
</g>
</g>
<!-- Node3&#45;&gt;Node2 -->
<g id="edge2" class="edge"><title>Node3&#45;&gt;Node2</title>
<path fill="none" stroke="midnightblue" d="M752.996,-117.047C796.684,-123.219 853.859,-131.297 888.436,-136.182"/>
<polygon fill="midnightblue" stroke="midnightblue" points="753.44,-113.575 743.049,-115.642 752.461,-120.506 753.44,-113.575"/>
</g>
<!-- Node4 -->
<g id="node4" class="node"><title>Node4</title>
<polygon fill="white" stroke="#bfbfbf" points="355,-85.5 355,-115.5 501,-115.5 501,-85.5 355,-85.5"/>
<text text-anchor="start" x="363" y="-103.5" font-family="Helvetica,sans-Serif" font-size="10.00">std::vector&lt; std::shared</text>
<text text-anchor="middle" x="428" y="-92.5" font-family="Helvetica,sans-Serif" font-size="10.00">_ptr&lt; sgl::Graphics::Node &gt; &gt;</text>
</g>
<!-- Node4&#45;&gt;Node3 -->
<g id="edge3" class="edge"><title>Node4&#45;&gt;Node3</title>
<path fill="none" stroke="#9a32cd" stroke-dasharray="5,2" d="M511.384,-103.02C553.451,-104.307 603.295,-105.832 639.708,-106.946"/>
<polygon fill="#9a32cd" stroke="#9a32cd" points="511.251,-99.5147 501.148,-102.707 511.037,-106.511 511.251,-99.5147"/>
<text text-anchor="middle" x="570.5" y="-109.5" font-family="Helvetica,sans-Serif" font-size="10.00"> m_children</text>
</g>
<!-- Node5 -->
<g id="node5" class="node"><title>Node5</title>
<g id="a_node5"><a xlink:title="STL class. ">
<polygon fill="white" stroke="#bfbfbf" points="117,-77 117,-96 202,-96 202,-77 117,-77"/>
<text text-anchor="middle" x="159.5" y="-84" font-family="Helvetica,sans-Serif" font-size="10.00">std::vector&lt; T &gt;</text>
</a>
</g>
</g>
<!-- Node5&#45;&gt;Node4 -->
<g id="edge4" class="edge"><title>Node5&#45;&gt;Node4</title>
<path fill="none" stroke="orange" stroke-dasharray="5,2" d="M212.323,-85.9572C247.526,-85.9379 295.121,-86.5928 337,-89.5 342.81,-89.9033 348.821,-90.4199 354.853,-91.0085"/>
<polygon fill="orange" stroke="orange" points="212.269,-82.4572 202.277,-85.9811 212.285,-89.4572 212.269,-82.4572"/>
<text text-anchor="start" x="229" y="-103.5" font-family="Helvetica,sans-Serif" font-size="10.00"> &lt; std::shared_ptr&lt;</text>
<text text-anchor="middle" x="283" y="-92.5" font-family="Helvetica,sans-Serif" font-size="10.00"> sgl::Graphics::Node &gt; &gt;</text>
</g>
<!-- Node11 -->
<g id="node11" class="node"><title>Node11</title>
<polygon fill="white" stroke="#bfbfbf" points="1340,-70.5 1340,-100.5 1459,-100.5 1459,-70.5 1340,-70.5"/>
<text text-anchor="start" x="1348" y="-88.5" font-family="Helvetica,sans-Serif" font-size="10.00">std::vector&lt; std::unique</text>
<text text-anchor="middle" x="1399.5" y="-77.5" font-family="Helvetica,sans-Serif" font-size="10.00">_ptr&lt; sgl::Scene &gt; &gt;</text>
</g>
<!-- Node5&#45;&gt;Node11 -->
<g id="edge16" class="edge"><title>Node5&#45;&gt;Node11</title>
<path fill="none" stroke="orange" stroke-dasharray="5,2" d="M212.236,-76.2605C265.761,-66.5711 351.886,-53.5 427,-53.5 427,-53.5 427,-53.5 1172.5,-53.5 1229.76,-53.5 1294.39,-63.6954 1339.82,-72.5766"/>
<polygon fill="orange" stroke="orange" points="211.507,-72.8358 202.305,-78.0873 212.773,-79.7203 211.507,-72.8358"/>
<text text-anchor="start" x="761" y="-67.5" font-family="Helvetica,sans-Serif" font-size="10.00"> &lt; std::unique_ptr&lt;</text>
<text text-anchor="middle" x="802.5" y="-56.5" font-family="Helvetica,sans-Serif" font-size="10.00"> sgl::Scene &gt; &gt;</text>
</g>
<!-- Node6 -->
<g id="node6" class="node"><title>Node6</title>
<polygon fill="white" stroke="#bfbfbf" points="0,-77 0,-96 29,-96 29,-77 0,-77"/>
<text text-anchor="middle" x="14.5" y="-84" font-family="Helvetica,sans-Serif" font-size="10.00">T</text>
</g>
<!-- Node6&#45;&gt;Node5 -->
<g id="edge5" class="edge"><title>Node6&#45;&gt;Node5</title>
<path fill="none" stroke="#9a32cd" stroke-dasharray="5,2" d="M39.2186,-86.5C60.3014,-86.5 91.6043,-86.5 116.853,-86.5"/>
<polygon fill="#9a32cd" stroke="#9a32cd" points="39.2115,-83.0001 29.2114,-86.5 39.2114,-90.0001 39.2115,-83.0001"/>
<text text-anchor="middle" x="68.5" y="-89.5" font-family="Helvetica,sans-Serif" font-size="10.00"> elements</text>
</g>
<!-- Node9 -->
<g id="node9" class="node"><title>Node9</title>
<g id="a_node9"><a xlink:title="STL class. ">
<polygon fill="white" stroke="#bfbfbf" points="108,-1.5 108,-31.5 211,-31.5 211,-1.5 108,-1.5"/>
<text text-anchor="start" x="116" y="-19.5" font-family="Helvetica,sans-Serif" font-size="10.00">std::unordered_map</text>
<text text-anchor="middle" x="159.5" y="-8.5" font-family="Helvetica,sans-Serif" font-size="10.00">&lt; K, T &gt;</text>
</a>
</g>
</g>
<!-- Node6&#45;&gt;Node9 -->
<g id="edge10" class="edge"><title>Node6&#45;&gt;Node9</title>
<path fill="none" stroke="#9a32cd" stroke-dasharray="5,2" d="M38.326,-75.3264C62.4834,-63.5011 100.753,-44.7676 127.6,-31.6257"/>
<polygon fill="#9a32cd" stroke="#9a32cd" points="36.6543,-72.2479 29.2114,-79.7881 39.7319,-78.535 36.6543,-72.2479"/>
<text text-anchor="middle" x="68.5" y="-73.5" font-family="Helvetica,sans-Serif" font-size="10.00"> elements</text>
</g>
<!-- Node13 -->
<g id="node13" class="node"><title>Node13</title>
<g id="a_node13"><a xlink:title="STL class. ">
<polygon fill="white" stroke="#bfbfbf" points="231,-121 231,-140 335,-140 335,-121 231,-121"/>
<text text-anchor="middle" x="283" y="-128" font-family="Helvetica,sans-Serif" font-size="10.00">std::unique_ptr&lt; T &gt;</text>
</a>
</g>
</g>
<!-- Node6&#45;&gt;Node13 -->
<g id="edge15" class="edge"><title>Node6&#45;&gt;Node13</title>
<path fill="none" stroke="#9a32cd" stroke-dasharray="5,2" d="M38.4341,-98.4507C41.2676,-99.6182 44.1651,-100.674 47,-101.5 108.567,-119.444 182.364,-126.288 230.623,-128.896"/>
<polygon fill="#9a32cd" stroke="#9a32cd" points="39.7794,-95.2171 29.2315,-94.2204 36.8557,-101.577 39.7794,-95.2171"/>
<text text-anchor="middle" x="68.5" y="-114.5" font-family="Helvetica,sans-Serif" font-size="10.00"> ptr</text>
</g>
<!-- Node7 -->
<g id="node7" class="node"><title>Node7</title>
<g id="a_node7"><a xlink:href="../../de/dd2/classsgl_1_1SceneManager.html" target="_top" xlink:title="Scene manager, in charge of creating, handling and destroying scenes. ">
<polygon fill="white" stroke="black" points="1544,-76 1544,-95 1645,-95 1645,-76 1544,-76"/>
<text text-anchor="middle" x="1594.5" y="-83" font-family="Helvetica,sans-Serif" font-size="10.00">sgl::SceneManager</text>
</a>
</g>
</g>
<!-- Node7&#45;&gt;Node2 -->
<g id="edge6" class="edge"><title>Node7&#45;&gt;Node2</title>
<path fill="none" stroke="#9a32cd" stroke-dasharray="5,2" d="M1541.44,-97.2124C1536.23,-98.342 1531.01,-99.4551 1526,-100.5 1391.69,-128.495 1359.56,-146.328 1223,-159.5 1177.43,-163.895 1165.77,-160.422 1120,-159.5 1064.86,-158.389 1050.81,-160.688 996,-154.5 981.258,-152.836 965.06,-149.948 951.502,-147.226"/>
<polygon fill="#9a32cd" stroke="#9a32cd" points="1542.39,-100.589 1551.41,-95.0333 1540.89,-93.7502 1542.39,-100.589"/>
<text text-anchor="middle" x="1281.5" y="-161.5" font-family="Helvetica,sans-Serif" font-size="10.00"> m_sceneManager</text>
</g>
<!-- Node8 -->
<g id="node8" class="node"><title>Node8</title>
<polygon fill="white" stroke="#bfbfbf" points="519,-0.5 519,-30.5 622,-30.5 622,-0.5 519,-0.5"/>
<text text-anchor="start" x="527" y="-18.5" font-family="Helvetica,sans-Serif" font-size="10.00">std::unordered_map</text>
<text text-anchor="middle" x="570.5" y="-7.5" font-family="Helvetica,sans-Serif" font-size="10.00">&lt; std::size_t, int &gt;</text>
</g>
<!-- Node8&#45;&gt;Node7 -->
<g id="edge7" class="edge"><title>Node8&#45;&gt;Node7</title>
<path fill="none" stroke="#9a32cd" stroke-dasharray="5,2" d="M632.384,-15.5C678.745,-15.5 744.145,-15.5 801.5,-15.5 801.5,-15.5 801.5,-15.5 1400.5,-15.5 1470.36,-15.5 1546.38,-56.5327 1578.18,-75.7668"/>
<polygon fill="#9a32cd" stroke="#9a32cd" points="632.203,-12.0001 622.203,-15.5 632.203,-19.0001 632.203,-12.0001"/>
<text text-anchor="middle" x="1049" y="-18.5" font-family="Helvetica,sans-Serif" font-size="10.00"> m_hashCodeToSceneId</text>
</g>
<!-- Node9&#45;&gt;Node8 -->
<g id="edge8" class="edge"><title>Node9&#45;&gt;Node8</title>
<path fill="none" stroke="orange" stroke-dasharray="5,2" d="M221.079,-16.3519C301.828,-16.1545 443.29,-15.8086 518.733,-15.6241"/>
<polygon fill="orange" stroke="orange" points="221.053,-12.8518 211.062,-16.3764 221.07,-19.8518 221.053,-12.8518"/>
<text text-anchor="middle" x="283" y="-19.5" font-family="Helvetica,sans-Serif" font-size="10.00"> &lt; std::size_t, int &gt;</text>
</g>
<!-- Node10 -->
<g id="node10" class="node"><title>Node10</title>
<polygon fill="white" stroke="#bfbfbf" points="0,-7 0,-26 29,-26 29,-7 0,-7"/>
<text text-anchor="middle" x="14.5" y="-14" font-family="Helvetica,sans-Serif" font-size="10.00">K</text>
</g>
<!-- Node10&#45;&gt;Node9 -->
<g id="edge9" class="edge"><title>Node10&#45;&gt;Node9</title>
<path fill="none" stroke="#9a32cd" stroke-dasharray="5,2" d="M39.4483,-16.5C58.0959,-16.5 84.6375,-16.5 107.929,-16.5"/>
<polygon fill="#9a32cd" stroke="#9a32cd" points="39.2115,-13.0001 29.2114,-16.5 39.2114,-20.0001 39.2115,-13.0001"/>
<text text-anchor="middle" x="68.5" y="-19.5" font-family="Helvetica,sans-Serif" font-size="10.00"> keys</text>
</g>
<!-- Node11&#45;&gt;Node7 -->
<g id="edge11" class="edge"><title>Node11&#45;&gt;Node7</title>
<path fill="none" stroke="#9a32cd" stroke-dasharray="5,2" d="M1469.21,-85.5C1493.86,-85.5 1521.15,-85.5 1543.87,-85.5"/>
<polygon fill="#9a32cd" stroke="#9a32cd" points="1469.19,-82.0001 1459.19,-85.5 1469.19,-89.0001 1469.19,-82.0001"/>
<text text-anchor="middle" x="1501.5" y="-88.5" font-family="Helvetica,sans-Serif" font-size="10.00"> m_scenes</text>
</g>
<!-- Node12&#45;&gt;Node11 -->
<g id="edge12" class="edge"><title>Node12&#45;&gt;Node11</title>
<path fill="none" stroke="#9a32cd" stroke-dasharray="5,2" d="M1233.24,-122.063C1266.37,-114.733 1307.19,-105.702 1339.97,-98.4499"/>
<polygon fill="#9a32cd" stroke="#9a32cd" points="1232.23,-118.701 1223.22,-124.279 1233.74,-125.536 1232.23,-118.701"/>
<text text-anchor="middle" x="1281.5" y="-122.5" font-family="Helvetica,sans-Serif" font-size="10.00"> elements</text>
</g>
<!-- Node13&#45;&gt;Node12 -->
<g id="edge14" class="edge"><title>Node13&#45;&gt;Node12</title>
<path fill="none" stroke="orange" stroke-dasharray="5,2" d="M314.602,-143.907C366.146,-165.233 474.014,-204.5 569.5,-204.5 569.5,-204.5 569.5,-204.5 921,-204.5 1001.22,-204.5 1090.87,-170.954 1137.8,-150.642"/>
<polygon fill="orange" stroke="orange" points="315.932,-140.669 305.357,-140.023 313.22,-147.123 315.932,-140.669"/>
<text text-anchor="middle" x="691.5" y="-207.5" font-family="Helvetica,sans-Serif" font-size="10.00"> &lt; sgl::Scene &gt;</text>
</g>
<!-- Node14 -->
<g id="node14" class="node"><title>Node14</title>
<g id="a_node14"><a xlink:href="../../d2/d2a/classsgl_1_1Graphics_1_1TileView.html" target="_top" xlink:title="Wrapper around sf::View to manipule views using tiles coordinates. ">
<polygon fill="white" stroke="black" points="862,-82 862,-101 978,-101 978,-82 862,-82"/>
<text text-anchor="middle" x="920" y="-89" font-family="Helvetica,sans-Serif" font-size="10.00">sgl::Graphics::TileView</text>
</a>
</g>
</g>
<!-- Node14&#45;&gt;Node1 -->
<g id="edge17" class="edge"><title>Node14&#45;&gt;Node1</title>
<path fill="none" stroke="#9a32cd" stroke-dasharray="5,2" d="M988.327,-91.5C1031.26,-91.5 1085.79,-91.5 1123.96,-91.5"/>
<polygon fill="#9a32cd" stroke="#9a32cd" points="988.24,-88.0001 978.24,-91.5 988.24,-95.0001 988.24,-88.0001"/>
<text text-anchor="middle" x="1049" y="-94.5" font-family="Helvetica,sans-Serif" font-size="10.00"> m_view</text>
</g>
</g>
</svg>
