<?xml version="1.0" encoding="UTF-8" standalone="no"?>
<!DOCTYPE svg PUBLIC "-//W3C//DTD SVG 1.1//EN"
 "http://www.w3.org/Graphics/SVG/1.1/DTD/svg11.dtd">
<!-- Generated by graphviz version 2.38.0 (20140413.2041)
 -->
<!-- Title: sgl::Scenes::Zone Pages: 1 -->
<svg width="1512pt" height="178pt"
 viewBox="0.00 0.00 1512.00 178.00" xmlns="http://www.w3.org/2000/svg" xmlns:xlink="http://www.w3.org/1999/xlink">
<g id="graph0" class="graph" transform="scale(1 1) rotate(0) translate(4 174)">
<title>sgl::Scenes::Zone</title>
<polygon fill="white" stroke="none" points="-4,4 -4,-174 1508,-174 1508,4 -4,4"/>
<!-- Node1 -->
<g id="node1" class="node"><title>Node1</title>
<polygon fill="#bfbfbf" stroke="black" points="983,-140.5 983,-159.5 1078,-159.5 1078,-140.5 983,-140.5"/>
<text text-anchor="middle" x="1030.5" y="-147.5" font-family="Helvetica,sans-Serif" font-size="10.00">sgl::Scenes::Zone</text>
</g>
<!-- Node2 -->
<g id="node2" class="node"><title>Node2</title>
<g id="a_node2"><a xlink:href="../../d8/dcf/classsgl_1_1Scene.html" target="_top" xlink:title="Base class which every user scene must derive from. ">
<polygon fill="white" stroke="black" points="818.5,-94.5 818.5,-113.5 881.5,-113.5 881.5,-94.5 818.5,-94.5"/>
<text text-anchor="middle" x="850" y="-101.5" font-family="Helvetica,sans-Serif" font-size="10.00">sgl::Scene</text>
</a>
</g>
</g>
<!-- Node2&#45;&gt;Node1 -->
<g id="edge1" class="edge"><title>Node2&#45;&gt;Node1</title>
<path fill="none" stroke="midnightblue" d="M891.519,-114.442C921.836,-122.255 962.971,-132.855 992.423,-140.445"/>
<polygon fill="midnightblue" stroke="midnightblue" points="892.242,-111.014 881.685,-111.908 890.495,-117.793 892.242,-111.014"/>
</g>
<!-- Node9 -->
<g id="node9" class="node"><title>Node9</title>
<polygon fill="white" stroke="#bfbfbf" points="979,-4 979,-34 1082,-34 1082,-4 979,-4"/>
<text text-anchor="start" x="987" y="-22" font-family="Helvetica,sans-Serif" font-size="10.00">std::unique_ptr&lt; sgl</text>
<text text-anchor="middle" x="1030.5" y="-11" font-family="Helvetica,sans-Serif" font-size="10.00">::Scene &gt;</text>
</g>
<!-- Node2&#45;&gt;Node9 -->
<g id="edge9" class="edge"><title>Node2&#45;&gt;Node9</title>
<path fill="none" stroke="#9a32cd" stroke-dasharray="5,2" d="M880.502,-89.9515C912.839,-74.5527 964.53,-49.9382 997.737,-34.1251"/>
<polygon fill="#9a32cd" stroke="#9a32cd" points="878.653,-86.9552 871.129,-94.4146 881.663,-93.2753 878.653,-86.9552"/>
<text text-anchor="middle" x="943.5" y="-70" font-family="Helvetica,sans-Serif" font-size="10.00"> ptr</text>
</g>
<!-- Node3 -->
<g id="node3" class="node"><title>Node3</title>
<g id="a_node3"><a xlink:href="../../dc/dee/classsgl_1_1Graphics_1_1Node.html" target="_top" xlink:title="Abstract base class for a scene graph node. ">
<polygon fill="white" stroke="black" points="570,-96.5 570,-115.5 673,-115.5 673,-96.5 570,-96.5"/>
<text text-anchor="middle" x="621.5" y="-103.5" font-family="Helvetica,sans-Serif" font-size="10.00">sgl::Graphics::Node</text>
</a>
</g>
</g>
<!-- Node3&#45;&gt;Node2 -->
<g id="edge2" class="edge"><title>Node3&#45;&gt;Node2</title>
<path fill="none" stroke="midnightblue" d="M683.272,-105.463C726.924,-105.078 783.932,-104.575 818.436,-104.27"/>
<polygon fill="midnightblue" stroke="midnightblue" points="683.018,-101.965 673.049,-105.554 683.08,-108.965 683.018,-101.965"/>
</g>
<!-- Node4 -->
<g id="node4" class="node"><title>Node4</title>
<polygon fill="white" stroke="#bfbfbf" points="337,-92 337,-122 483,-122 483,-92 337,-92"/>
<text text-anchor="start" x="345" y="-110" font-family="Helvetica,sans-Serif" font-size="10.00">std::vector&lt; std::shared</text>
<text text-anchor="middle" x="410" y="-99" font-family="Helvetica,sans-Serif" font-size="10.00">_ptr&lt; sgl::Graphics::Node &gt; &gt;</text>
</g>
<!-- Node4&#45;&gt;Node3 -->
<g id="edge3" class="edge"><title>Node4&#45;&gt;Node3</title>
<path fill="none" stroke="#9a32cd" stroke-dasharray="5,2" d="M493.259,-106.607C519.066,-106.484 546.785,-106.352 569.742,-106.242"/>
<polygon fill="#9a32cd" stroke="#9a32cd" points="493.081,-103.108 483.098,-106.656 493.115,-110.108 493.081,-103.108"/>
<text text-anchor="middle" x="526.5" y="-110" font-family="Helvetica,sans-Serif" font-size="10.00"> m_children</text>
</g>
<!-- Node5 -->
<g id="node5" class="node"><title>Node5</title>
<g id="a_node5"><a xlink:title="STL class. ">
<polygon fill="white" stroke="#bfbfbf" points="108,-53.5 108,-72.5 193,-72.5 193,-53.5 108,-53.5"/>
<text text-anchor="middle" x="150.5" y="-60.5" font-family="Helvetica,sans-Serif" font-size="10.00">std::vector&lt; T &gt;</text>
</a>
</g>
</g>
<!-- Node5&#45;&gt;Node4 -->
<g id="edge4" class="edge"><title>Node5&#45;&gt;Node4</title>
<path fill="none" stroke="orange" stroke-dasharray="5,2" d="M199.966,-74.7448C203.692,-75.5433 207.402,-76.3053 211,-77 252.476,-85.0082 299.183,-92.1724 336.812,-97.49"/>
<polygon fill="orange" stroke="orange" points="200.65,-71.3116 190.13,-72.5669 199.137,-78.1461 200.65,-71.3116"/>
<text text-anchor="start" x="211" y="-109" font-family="Helvetica,sans-Serif" font-size="10.00"> &lt; std::shared_ptr&lt;</text>
<text text-anchor="middle" x="265" y="-98" font-family="Helvetica,sans-Serif" font-size="10.00"> sgl::Graphics::Node &gt; &gt;</text>
</g>
<!-- Node8 -->
<g id="node8" class="node"><title>Node8</title>
<polygon fill="white" stroke="#bfbfbf" points="1199,-43 1199,-73 1318,-73 1318,-43 1199,-43"/>
<text text-anchor="start" x="1207" y="-61" font-family="Helvetica,sans-Serif" font-size="10.00">std::vector&lt; std::unique</text>
<text text-anchor="middle" x="1258.5" y="-50" font-family="Helvetica,sans-Serif" font-size="10.00">_ptr&lt; sgl::Scene &gt; &gt;</text>
</g>
<!-- Node5&#45;&gt;Node8 -->
<g id="edge12" class="edge"><title>Node5&#45;&gt;Node8</title>
<path fill="none" stroke="orange" stroke-dasharray="5,2" d="M203.735,-63C255.757,-63 337.9,-63 409,-63 409,-63 409,-63 1031.5,-63 1088.41,-63 1153.35,-61.3959 1198.98,-60.0049"/>
<polygon fill="orange" stroke="orange" points="203.425,-59.5001 193.425,-63 203.425,-66.5001 203.425,-59.5001"/>
<text text-anchor="start" x="691" y="-77" font-family="Helvetica,sans-Serif" font-size="10.00"> &lt; std::unique_ptr&lt;</text>
<text text-anchor="middle" x="732.5" y="-66" font-family="Helvetica,sans-Serif" font-size="10.00"> sgl::Scene &gt; &gt;</text>
</g>
<!-- Node6 -->
<g id="node6" class="node"><title>Node6</title>
<polygon fill="white" stroke="#bfbfbf" points="0,-29.5 0,-48.5 29,-48.5 29,-29.5 0,-29.5"/>
<text text-anchor="middle" x="14.5" y="-36.5" font-family="Helvetica,sans-Serif" font-size="10.00">T</text>
</g>
<!-- Node6&#45;&gt;Node5 -->
<g id="edge5" class="edge"><title>Node6&#45;&gt;Node5</title>
<path fill="none" stroke="#9a32cd" stroke-dasharray="5,2" d="M39.2308,-43.2503C58.2268,-46.6526 85.332,-51.5072 107.915,-55.5519"/>
<polygon fill="#9a32cd" stroke="#9a32cd" points="39.7961,-39.7959 29.3356,-41.478 38.5619,-46.6863 39.7961,-39.7959"/>
<text text-anchor="middle" x="68.5" y="-55" font-family="Helvetica,sans-Serif" font-size="10.00"> elements</text>
</g>
<!-- Node10 -->
<g id="node10" class="node"><title>Node10</title>
<g id="a_node10"><a xlink:title="STL class. ">
<polygon fill="white" stroke="#bfbfbf" points="213,-0.5 213,-19.5 317,-19.5 317,-0.5 213,-0.5"/>
<text text-anchor="middle" x="265" y="-7.5" font-family="Helvetica,sans-Serif" font-size="10.00">std::unique_ptr&lt; T &gt;</text>
</a>
</g>
</g>
<!-- Node6&#45;&gt;Node10 -->
<g id="edge11" class="edge"><title>Node6&#45;&gt;Node10</title>
<path fill="none" stroke="#9a32cd" stroke-dasharray="5,2" d="M39.0584,-31.7555C41.7205,-31.0904 44.4074,-30.4854 47,-30 103.152,-19.4857 168.56,-14.4167 212.769,-12.0273"/>
<polygon fill="#9a32cd" stroke="#9a32cd" points="37.8706,-28.4526 29.1671,-34.4941 39.7385,-35.1988 37.8706,-28.4526"/>
<text text-anchor="middle" x="68.5" y="-33" font-family="Helvetica,sans-Serif" font-size="10.00"> ptr</text>
</g>
<!-- Node7 -->
<g id="node7" class="node"><title>Node7</title>
<g id="a_node7"><a xlink:href="../../de/dd2/classsgl_1_1SceneManager.html" target="_top" xlink:title="Scene manager, in charge of creating, handling and destroying scenes. ">
<polygon fill="white" stroke="black" points="1403,-74.5 1403,-93.5 1504,-93.5 1504,-74.5 1403,-74.5"/>
<text text-anchor="middle" x="1453.5" y="-81.5" font-family="Helvetica,sans-Serif" font-size="10.00">sgl::SceneManager</text>
</a>
</g>
</g>
<!-- Node7&#45;&gt;Node2 -->
<g id="edge6" class="edge"><title>Node7&#45;&gt;Node2</title>
<path fill="none" stroke="#9a32cd" stroke-dasharray="5,2" d="M1392.67,-87.6381C1390.08,-87.7665 1387.51,-87.8879 1385,-88 1193.66,-96.534 963.549,-101.711 881.713,-103.394"/>
<polygon fill="#9a32cd" stroke="#9a32cd" points="1392.94,-91.1291 1402.74,-87.1137 1392.58,-84.1386 1392.94,-91.1291"/>
<text text-anchor="middle" x="1140.5" y="-101" font-family="Helvetica,sans-Serif" font-size="10.00"> m_sceneManager</text>
</g>
<!-- Node8&#45;&gt;Node7 -->
<g id="edge7" class="edge"><title>Node8&#45;&gt;Node7</title>
<path fill="none" stroke="#9a32cd" stroke-dasharray="5,2" d="M1328.21,-67.2564C1352.86,-70.577 1380.15,-74.2538 1402.87,-77.3141"/>
<polygon fill="#9a32cd" stroke="#9a32cd" points="1328.57,-63.7733 1318.19,-65.9068 1327.64,-70.7106 1328.57,-63.7733"/>
<text text-anchor="middle" x="1360.5" y="-78" font-family="Helvetica,sans-Serif" font-size="10.00"> m_scenes</text>
</g>
<!-- Node9&#45;&gt;Node8 -->
<g id="edge8" class="edge"><title>Node9&#45;&gt;Node8</title>
<path fill="none" stroke="#9a32cd" stroke-dasharray="5,2" d="M1092.44,-24.9387C1119.67,-28.0555 1152.07,-32.4047 1181,-38 1188.28,-39.4077 1195.89,-41.1115 1203.37,-42.9237"/>
<polygon fill="#9a32cd" stroke="#9a32cd" points="1092.6,-21.4353 1082.27,-23.8045 1091.82,-28.3921 1092.6,-21.4353"/>
<text text-anchor="middle" x="1140.5" y="-41" font-family="Helvetica,sans-Serif" font-size="10.00"> elements</text>
</g>
<!-- Node10&#45;&gt;Node9 -->
<g id="edge10" class="edge"><title>Node10&#45;&gt;Node9</title>
<path fill="none" stroke="orange" stroke-dasharray="5,2" d="M327.368,-7.7818C379.945,-6.07283 457.693,-4 525.5,-4 525.5,-4 525.5,-4 851,-4 894.227,-4 943.137,-8.42223 978.814,-12.4644"/>
<polygon fill="orange" stroke="orange" points="327.078,-4.2894 317.199,-8.11802 327.309,-11.2856 327.078,-4.2894"/>
<text text-anchor="middle" x="621.5" y="-7" font-family="Helvetica,sans-Serif" font-size="10.00"> &lt; sgl::Scene &gt;</text>
</g>
<!-- Node11 -->
<g id="node11" class="node"><title>Node11</title>
<g id="a_node11"><a xlink:href="../../d2/d2a/classsgl_1_1Graphics_1_1TileView.html" target="_top" xlink:title="Wrapper around sf::View to manipule views using tiles coordinates. ">
<polygon fill="white" stroke="black" points="792,-150.5 792,-169.5 908,-169.5 908,-150.5 792,-150.5"/>
<text text-anchor="middle" x="850" y="-157.5" font-family="Helvetica,sans-Serif" font-size="10.00">sgl::Graphics::TileView</text>
</a>
</g>
</g>
<!-- Node11&#45;&gt;Node1 -->
<g id="edge13" class="edge"><title>Node11&#45;&gt;Node1</title>
<path fill="none" stroke="#9a32cd" stroke-dasharray="5,2" d="M918.504,-156.218C939.969,-155.016 963.221,-153.713 982.871,-152.612"/>
<polygon fill="#9a32cd" stroke="#9a32cd" points="918.25,-152.727 908.461,-156.781 918.641,-159.716 918.25,-152.727"/>
<text text-anchor="middle" x="943.5" y="-159" font-family="Helvetica,sans-Serif" font-size="10.00"> m_view</text>
</g>
</g>
</svg>
