<?xml version="1.0" encoding="UTF-8" standalone="no"?>
<!DOCTYPE svg PUBLIC "-//W3C//DTD SVG 1.1//EN"
 "http://www.w3.org/Graphics/SVG/1.1/DTD/svg11.dtd">
<!-- Generated by graphviz version 2.38.0 (20140413.2041)
 -->
<!-- Title: sgl::SceneManager Pages: 1 -->
<svg width="1322pt" height="171pt"
 viewBox="0.00 0.00 1322.00 171.00" xmlns="http://www.w3.org/2000/svg" xmlns:xlink="http://www.w3.org/1999/xlink">
<g id="graph0" class="graph" transform="scale(1 1) rotate(0) translate(4 167)">
<title>sgl::SceneManager</title>
<polygon fill="white" stroke="none" points="-4,4 -4,-167 1318,-167 1318,4 -4,4"/>
<!-- Node1 -->
<g id="node1" class="node"><title>Node1</title>
<polygon fill="#bfbfbf" stroke="black" points="644,-122.5 644,-141.5 745,-141.5 745,-122.5 644,-122.5"/>
<text text-anchor="middle" x="694.5" y="-129.5" font-family="Helvetica,sans-Serif" font-size="10.00">sgl::SceneManager</text>
</g>
<!-- Node8 -->
<g id="node8" class="node"><title>Node8</title>
<g id="a_node8"><a xlink:href="../../d8/dcf/classsgl_1_1Scene.html" target="_top" xlink:title="Base class which every user scene must derive from. ">
<polygon fill="white" stroke="black" points="865,-116.5 865,-135.5 928,-135.5 928,-116.5 865,-116.5"/>
<text text-anchor="middle" x="896.5" y="-123.5" font-family="Helvetica,sans-Serif" font-size="10.00">sgl::Scene</text>
</a>
</g>
</g>
<!-- Node1&#45;&gt;Node8 -->
<g id="edge12" class="edge"><title>Node1&#45;&gt;Node8</title>
<path fill="none" stroke="#9a32cd" stroke-dasharray="5,2" d="M755.584,-130.197C791.556,-129.118 835.772,-127.792 864.748,-126.923"/>
<polygon fill="#9a32cd" stroke="#9a32cd" points="755.086,-126.711 745.195,-130.509 755.296,-133.708 755.086,-126.711"/>
<text text-anchor="middle" x="805.5" y="-133" font-family="Helvetica,sans-Serif" font-size="10.00"> m_sceneManager</text>
</g>
<!-- Node2 -->
<g id="node2" class="node"><title>Node2</title>
<polygon fill="white" stroke="#bfbfbf" points="376.5,-117 376.5,-147 479.5,-147 479.5,-117 376.5,-117"/>
<text text-anchor="start" x="384.5" y="-135" font-family="Helvetica,sans-Serif" font-size="10.00">std::unordered_map</text>
<text text-anchor="middle" x="428" y="-124" font-family="Helvetica,sans-Serif" font-size="10.00">&lt; std::size_t, int &gt;</text>
</g>
<!-- Node2&#45;&gt;Node1 -->
<g id="edge1" class="edge"><title>Node2&#45;&gt;Node1</title>
<path fill="none" stroke="#9a32cd" stroke-dasharray="5,2" d="M489.974,-132C536.672,-132 600.276,-132 643.882,-132"/>
<polygon fill="#9a32cd" stroke="#9a32cd" points="489.685,-128.5 479.685,-132 489.685,-135.5 489.685,-128.5"/>
<text text-anchor="middle" x="572" y="-135" font-family="Helvetica,sans-Serif" font-size="10.00"> m_hashCodeToSceneId</text>
</g>
<!-- Node3 -->
<g id="node3" class="node"><title>Node3</title>
<g id="a_node3"><a xlink:title="STL class. ">
<polygon fill="white" stroke="#bfbfbf" points="108,-117 108,-147 211,-147 211,-117 108,-117"/>
<text text-anchor="start" x="116" y="-135" font-family="Helvetica,sans-Serif" font-size="10.00">std::unordered_map</text>
<text text-anchor="middle" x="159.5" y="-124" font-family="Helvetica,sans-Serif" font-size="10.00">&lt; K, T &gt;</text>
</a>
</g>
</g>
<!-- Node3&#45;&gt;Node2 -->
<g id="edge2" class="edge"><title>Node3&#45;&gt;Node2</title>
<path fill="none" stroke="orange" stroke-dasharray="5,2" d="M221.286,-132C268.192,-132 332.313,-132 376.435,-132"/>
<polygon fill="orange" stroke="orange" points="221.254,-128.5 211.254,-132 221.254,-135.5 221.254,-128.5"/>
<text text-anchor="middle" x="283" y="-135" font-family="Helvetica,sans-Serif" font-size="10.00"> &lt; std::size_t, int &gt;</text>
</g>
<!-- Node4 -->
<g id="node4" class="node"><title>Node4</title>
<polygon fill="white" stroke="#bfbfbf" points="0,-143.5 0,-162.5 29,-162.5 29,-143.5 0,-143.5"/>
<text text-anchor="middle" x="14.5" y="-150.5" font-family="Helvetica,sans-Serif" font-size="10.00">K</text>
</g>
<!-- Node4&#45;&gt;Node3 -->
<g id="edge3" class="edge"><title>Node4&#45;&gt;Node3</title>
<path fill="none" stroke="#9a32cd" stroke-dasharray="5,2" d="M39.1861,-149.522C57.8466,-146.781 84.5282,-142.863 107.929,-139.426"/>
<polygon fill="#9a32cd" stroke="#9a32cd" points="38.5968,-146.071 29.2114,-150.986 39.6139,-152.996 38.5968,-146.071"/>
<text text-anchor="middle" x="68.5" y="-151" font-family="Helvetica,sans-Serif" font-size="10.00"> keys</text>
</g>
<!-- Node5 -->
<g id="node5" class="node"><title>Node5</title>
<polygon fill="white" stroke="#bfbfbf" points="0,-75.5 0,-94.5 29,-94.5 29,-75.5 0,-75.5"/>
<text text-anchor="middle" x="14.5" y="-82.5" font-family="Helvetica,sans-Serif" font-size="10.00">T</text>
</g>
<!-- Node5&#45;&gt;Node3 -->
<g id="edge4" class="edge"><title>Node5&#45;&gt;Node3</title>
<path fill="none" stroke="#9a32cd" stroke-dasharray="5,2" d="M38.832,-94.0665C41.5767,-95.0801 44.3445,-96.0783 47,-97 66.934,-103.919 89.0734,-110.992 108.337,-116.953"/>
<polygon fill="#9a32cd" stroke="#9a32cd" points="39.8262,-90.7006 29.2346,-90.4367 37.3499,-97.248 39.8262,-90.7006"/>
<text text-anchor="middle" x="68.5" y="-115" font-family="Helvetica,sans-Serif" font-size="10.00"> elements</text>
</g>
<!-- Node11 -->
<g id="node11" class="node"><title>Node11</title>
<g id="a_node11"><a xlink:title="STL class. ">
<polygon fill="white" stroke="#bfbfbf" points="117,-34.5 117,-53.5 202,-53.5 202,-34.5 117,-34.5"/>
<text text-anchor="middle" x="159.5" y="-41.5" font-family="Helvetica,sans-Serif" font-size="10.00">std::vector&lt; T &gt;</text>
</a>
</g>
</g>
<!-- Node5&#45;&gt;Node11 -->
<g id="edge11" class="edge"><title>Node5&#45;&gt;Node11</title>
<path fill="none" stroke="#9a32cd" stroke-dasharray="5,2" d="M28.2337,-67.0671C33.3611,-61.2385 39.7786,-55.4009 47,-52 68.596,-41.8294 95.1794,-39.5853 116.972,-39.9987"/>
<polygon fill="#9a32cd" stroke="#9a32cd" points="25.166,-65.3032 21.7012,-75.3155 30.6535,-69.6492 25.166,-65.3032"/>
<text text-anchor="middle" x="68.5" y="-55" font-family="Helvetica,sans-Serif" font-size="10.00"> elements</text>
</g>
<!-- Node12 -->
<g id="node12" class="node"><title>Node12</title>
<g id="a_node12"><a xlink:title="STL class. ">
<polygon fill="white" stroke="#bfbfbf" points="231,-78.5 231,-97.5 335,-97.5 335,-78.5 231,-78.5"/>
<text text-anchor="middle" x="283" y="-85.5" font-family="Helvetica,sans-Serif" font-size="10.00">std::unique_ptr&lt; T &gt;</text>
</a>
</g>
</g>
<!-- Node5&#45;&gt;Node12 -->
<g id="edge14" class="edge"><title>Node5&#45;&gt;Node12</title>
<path fill="none" stroke="#9a32cd" stroke-dasharray="5,2" d="M39.453,-84.1602C42.0006,-84.0946 44.5535,-84.0388 47,-84 66.1087,-83.6968 70.8899,-83.801 90,-84 137.674,-84.4966 191.997,-85.6865 230.664,-86.6402"/>
<polygon fill="#9a32cd" stroke="#9a32cd" points="39.1874,-80.6665 29.2977,-84.4671 39.3989,-87.6634 39.1874,-80.6665"/>
<text text-anchor="middle" x="68.5" y="-87" font-family="Helvetica,sans-Serif" font-size="10.00"> ptr</text>
</g>
<!-- Node6 -->
<g id="node6" class="node"><title>Node6</title>
<polygon fill="white" stroke="#bfbfbf" points="1195,-89 1195,-119 1314,-119 1314,-89 1195,-89"/>
<text text-anchor="start" x="1203" y="-107" font-family="Helvetica,sans-Serif" font-size="10.00">std::vector&lt; std::unique</text>
<text text-anchor="middle" x="1254.5" y="-96" font-family="Helvetica,sans-Serif" font-size="10.00">_ptr&lt; sgl::Scene &gt; &gt;</text>
</g>
<!-- Node6&#45;&gt;Node1 -->
<g id="edge5" class="edge"><title>Node6&#45;&gt;Node1</title>
<path fill="none" stroke="#9a32cd" stroke-dasharray="5,2" d="M1184.64,-117.659C1182.06,-118.121 1179.51,-118.569 1177,-119 1149.99,-123.638 1143.21,-124.765 1116,-128 960.469,-146.491 919.939,-159.666 764,-145 755.926,-144.241 747.386,-142.988 739.177,-141.553"/>
<polygon fill="#9a32cd" stroke="#9a32cd" points="1185.45,-121.069 1194.66,-115.827 1184.2,-114.183 1185.45,-121.069"/>
<text text-anchor="middle" x="970.5" y="-152" font-family="Helvetica,sans-Serif" font-size="10.00"> m_scenes</text>
</g>
<!-- Node7 -->
<g id="node7" class="node"><title>Node7</title>
<polygon fill="white" stroke="#bfbfbf" points="1013,-89 1013,-119 1116,-119 1116,-89 1013,-89"/>
<text text-anchor="start" x="1021" y="-107" font-family="Helvetica,sans-Serif" font-size="10.00">std::unique_ptr&lt; sgl</text>
<text text-anchor="middle" x="1064.5" y="-96" font-family="Helvetica,sans-Serif" font-size="10.00">::Scene &gt;</text>
</g>
<!-- Node7&#45;&gt;Node6 -->
<g id="edge6" class="edge"><title>Node7&#45;&gt;Node6</title>
<path fill="none" stroke="#9a32cd" stroke-dasharray="5,2" d="M1126.57,-104C1148.52,-104 1173.21,-104 1194.93,-104"/>
<polygon fill="#9a32cd" stroke="#9a32cd" points="1126.38,-100.5 1116.38,-104 1126.38,-107.5 1126.38,-100.5"/>
<text text-anchor="middle" x="1155.5" y="-107" font-family="Helvetica,sans-Serif" font-size="10.00"> elements</text>
</g>
<!-- Node8&#45;&gt;Node7 -->
<g id="edge7" class="edge"><title>Node8&#45;&gt;Node7</title>
<path fill="none" stroke="#9a32cd" stroke-dasharray="5,2" d="M938.256,-120.599C960.796,-117.611 989.004,-113.873 1012.94,-110.701"/>
<polygon fill="#9a32cd" stroke="#9a32cd" points="937.788,-117.13 928.334,-121.914 938.707,-124.069 937.788,-117.13"/>
<text text-anchor="middle" x="970.5" y="-123" font-family="Helvetica,sans-Serif" font-size="10.00"> ptr</text>
</g>
<!-- Node9 -->
<g id="node9" class="node"><title>Node9</title>
<g id="a_node9"><a xlink:href="../../dc/dee/classsgl_1_1Graphics_1_1Node.html" target="_top" xlink:title="Abstract base class for a scene graph node. ">
<polygon fill="white" stroke="black" points="643,-32.5 643,-51.5 746,-51.5 746,-32.5 643,-32.5"/>
<text text-anchor="middle" x="694.5" y="-39.5" font-family="Helvetica,sans-Serif" font-size="10.00">sgl::Graphics::Node</text>
</a>
</g>
</g>
<!-- Node9&#45;&gt;Node8 -->
<g id="edge8" class="edge"><title>Node9&#45;&gt;Node8</title>
<path fill="none" stroke="midnightblue" d="M727.9,-55.608C768.588,-72.6968 837.351,-101.577 872.825,-116.477"/>
<polygon fill="midnightblue" stroke="midnightblue" points="729.018,-52.2813 718.443,-51.6359 726.307,-58.7352 729.018,-52.2813"/>
</g>
<!-- Node10 -->
<g id="node10" class="node"><title>Node10</title>
<polygon fill="white" stroke="#bfbfbf" points="355,-29 355,-59 501,-59 501,-29 355,-29"/>
<text text-anchor="start" x="363" y="-47" font-family="Helvetica,sans-Serif" font-size="10.00">std::vector&lt; std::shared</text>
<text text-anchor="middle" x="428" y="-36" font-family="Helvetica,sans-Serif" font-size="10.00">_ptr&lt; sgl::Graphics::Node &gt; &gt;</text>
</g>
<!-- Node10&#45;&gt;Node9 -->
<g id="edge9" class="edge"><title>Node10&#45;&gt;Node9</title>
<path fill="none" stroke="#9a32cd" stroke-dasharray="5,2" d="M511.436,-43.3767C554.385,-43.0519 605.543,-42.6651 642.678,-42.3843"/>
<polygon fill="#9a32cd" stroke="#9a32cd" points="511.249,-39.8779 501.276,-43.4535 511.302,-46.8777 511.249,-39.8779"/>
<text text-anchor="middle" x="572" y="-47" font-family="Helvetica,sans-Serif" font-size="10.00"> m_children</text>
</g>
<!-- Node11&#45;&gt;Node6 -->
<g id="edge15" class="edge"><title>Node11&#45;&gt;Node6</title>
<path fill="none" stroke="orange" stroke-dasharray="5,2" d="M205.571,-31.9332C258.267,-18.9069 348.306,-0 427,-0 427,-0 427,-0 1065.5,-0 1137.86,-0 1208.52,-59.7251 1238.49,-88.6544"/>
<polygon fill="orange" stroke="orange" points="204.39,-28.6211 195.545,-34.4527 206.096,-35.4101 204.39,-28.6211"/>
<text text-anchor="start" x="764" y="-14" font-family="Helvetica,sans-Serif" font-size="10.00"> &lt; std::unique_ptr&lt;</text>
<text text-anchor="middle" x="805.5" y="-3" font-family="Helvetica,sans-Serif" font-size="10.00"> sgl::Scene &gt; &gt;</text>
</g>
<!-- Node11&#45;&gt;Node10 -->
<g id="edge10" class="edge"><title>Node11&#45;&gt;Node10</title>
<path fill="none" stroke="orange" stroke-dasharray="5,2" d="M212.343,-44C252.903,-44 309.777,-44 354.793,-44"/>
<polygon fill="orange" stroke="orange" points="212.141,-40.5001 202.141,-44 212.141,-47.5001 212.141,-40.5001"/>
<text text-anchor="start" x="229" y="-58" font-family="Helvetica,sans-Serif" font-size="10.00"> &lt; std::shared_ptr&lt;</text>
<text text-anchor="middle" x="283" y="-47" font-family="Helvetica,sans-Serif" font-size="10.00"> sgl::Graphics::Node &gt; &gt;</text>
</g>
<!-- Node12&#45;&gt;Node7 -->
<g id="edge13" class="edge"><title>Node12&#45;&gt;Node7</title>
<path fill="none" stroke="orange" stroke-dasharray="5,2" d="M345.18,-88C403.285,-88 493.091,-88 571,-88 571,-88 571,-88 897.5,-88 936.297,-88 979.96,-92.3838 1012.77,-96.5621"/>
<polygon fill="orange" stroke="orange" points="345.066,-84.5001 335.066,-88 345.066,-91.5001 345.066,-84.5001"/>
<text text-anchor="middle" x="694.5" y="-91" font-family="Helvetica,sans-Serif" font-size="10.00"> &lt; sgl::Scene &gt;</text>
</g>
</g>
</svg>
