<?xml version="1.0" encoding="UTF-8" standalone="no"?>
<!DOCTYPE svg PUBLIC "-//W3C//DTD SVG 1.1//EN"
 "http://www.w3.org/Graphics/SVG/1.1/DTD/svg11.dtd">
<!-- Generated by graphviz version 2.49.0 (20210828.1703)
 -->
<!-- Title: C:/Users/folae/Documents/Code/Big&#45;Projects/ScriptWizards/SmallGameLibrary/source/Core/Scene.cpp Pages: 1 -->
<!--zoomable 341 -->
<svg id="main" version="1.1" xmlns="http://www.w3.org/2000/svg" xmlns:xlink="http://www.w3.org/1999/xlink" xml:space="preserve" onload="init(evt)">
<style type="text/css"><![CDATA[
.edge:hover path { stroke: red; }
.edge:hover polygon { stroke: red; fill: red; }
]]></style>
<script type="text/javascript"><![CDATA[
var edges = document.getElementsByTagName('g');
if (edges && edges.length) {
  for (var i=0;i<edges.length;i++) {
    if (edges[i].id.substr(0,4)=='edge') {
      edges[i].setAttribute('class','edge');
    }
  }
}
]]></script>
        <defs>
                <circle id="rim" cx="0" cy="0" r="7"/>
                <circle id="rim2" cx="0" cy="0" r="3.5"/>
                <g id="zoomPlus">
                        <use xlink:href="#rim" fill="#404040">
                                <set attributeName="fill" to="#808080" begin="zoomplus.mouseover" end="zoomplus.mouseout"/>
                        </use>
                        <path d="M-4,0h8M0,-4v8" fill="none" stroke="white" stroke-width="1.5" pointer-events="none"/>
                </g>
                <g id="zoomMin">
                        <use xlink:href="#rim" fill="#404040">
                                <set attributeName="fill" to="#808080" begin="zoomminus.mouseover" end="zoomminus.mouseout"/>
                        </use>
                        <path d="M-4,0h8" fill="none" stroke="white" stroke-width="1.5" pointer-events="none"/>
                </g>
                <g id="dirArrow">
                        <path fill="none" stroke="white" stroke-width="1.5" d="M0,-3.0v7 M-2.5,-0.5L0,-3.0L2.5,-0.5"/>
                </g>
               <g id="resetDef">
                       <use xlink:href="#rim2" fill="#404040">
                               <set attributeName="fill" to="#808080" begin="reset.mouseover" end="reset.mouseout"/>
                       </use>
               </g>
        </defs>

<script type="text/javascript">
var viewWidth = 1375;
var viewHeight = 341;
var sectionId = 'dynsection-0';
</script>
<script xlink:href="../../svgpan.js"/>
<svg id="graph" class="graph">
<g id="viewport">
<title>C:/Users/folae/Documents/Code/Big&#45;Projects/ScriptWizards/SmallGameLibrary/source/Core/Scene.cpp</title>
<polygon fill="white" stroke="transparent" points="-4,4 -4,-337 1370.5,-337 1370.5,4 -4,4"/>
<!-- Node1 -->
<g id="node1" class="node">
<title>Node1</title>
<g id="a_node1"><a xlink:title=" ">
<polygon fill="#bfbfbf" stroke="black" points="632,-280.5 632,-332.5 795,-332.5 795,-280.5 632,-280.5"/>
<text text-anchor="start" x="640" y="-320.5" font-family="Helvetica,sans-Serif" font-size="10.00">C:/Users/folae/Documents</text>
<text text-anchor="start" x="640" y="-309.5" font-family="Helvetica,sans-Serif" font-size="10.00">/Code/Big&#45;Projects/ScriptWizards</text>
<text text-anchor="start" x="640" y="-298.5" font-family="Helvetica,sans-Serif" font-size="10.00">/SmallGameLibrary/source/Core</text>
<text text-anchor="middle" x="713.5" y="-287.5" font-family="Helvetica,sans-Serif" font-size="10.00">/Scene.cpp</text>
</a>
</g>
</g>
<!-- Node2 -->
<g id="node2" class="node">
<title>Node2</title>
<g id="a_node2"><a xlink:href="../../db/de8/Scene_8hpp.html" target="_top" xlink:title="The base scene class and the scene states are defined here.">
<polygon fill="white" stroke="black" points="486.5,-168.5 486.5,-187.5 600.5,-187.5 600.5,-168.5 486.5,-168.5"/>
<text text-anchor="middle" x="543.5" y="-175.5" font-family="Helvetica,sans-Serif" font-size="10.00">Small/Core/Scene.hpp</text>
</a>
</g>
</g>
<!-- Node1&#45;&gt;Node2 -->
<g id="edge1" class="edge">
<title>Node1&#45;&gt;Node2</title>
<path fill="none" stroke="midnightblue" d="M679.51,-280.2C644.71,-254.31 591.81,-214.95 563.33,-193.75"/>
<polygon fill="midnightblue" stroke="midnightblue" points="565.1,-190.71 554.99,-187.55 560.92,-196.33 565.1,-190.71"/>
</g>
<!-- Node20 -->
<g id="node20" class="node">
<title>Node20</title>
<g id="a_node20"><a xlink:href="../../df/d74/SceneManager_8hpp.html" target="_top" xlink:title="Define the scene manager (creating, handling and destroying them)">
<polygon fill="white" stroke="black" points="813.5,-224.5 813.5,-243.5 965.5,-243.5 965.5,-224.5 813.5,-224.5"/>
<text text-anchor="middle" x="889.5" y="-231.5" font-family="Helvetica,sans-Serif" font-size="10.00">Small/Core/SceneManager.hpp</text>
</a>
</g>
</g>
<!-- Node1&#45;&gt;Node20 -->
<g id="edge25" class="edge">
<title>Node1&#45;&gt;Node20</title>
<path fill="none" stroke="midnightblue" d="M776.05,-280.45C804.1,-269.21 835.94,-256.45 858.73,-247.33"/>
<polygon fill="midnightblue" stroke="midnightblue" points="860.23,-250.49 868.21,-243.53 857.63,-244 860.23,-250.49"/>
</g>
<!-- Node3 -->
<g id="node3" class="node">
<title>Node3</title>
<g id="a_node3"><a xlink:title=" ">
<polygon fill="white" stroke="#bfbfbf" points="226,-0.5 226,-19.5 267,-19.5 267,-0.5 226,-0.5"/>
<text text-anchor="middle" x="246.5" y="-7.5" font-family="Helvetica,sans-Serif" font-size="10.00">string</text>
</a>
</g>
</g>
<!-- Node2&#45;&gt;Node3 -->
<g id="edge2" class="edge">
<title>Node2&#45;&gt;Node3</title>
<path fill="none" stroke="midnightblue" d="M486.41,-171.98C406.4,-164.37 268.94,-149 253.5,-132 228.12,-104.06 234.87,-55.87 241.19,-29.52"/>
<polygon fill="midnightblue" stroke="midnightblue" points="244.61,-30.25 243.77,-19.69 237.84,-28.47 244.61,-30.25"/>
</g>
<!-- Node4 -->
<g id="node4" class="node">
<title>Node4</title>
<g id="a_node4"><a xlink:title=" ">
<polygon fill="white" stroke="#bfbfbf" points="450.5,-112.5 450.5,-131.5 554.5,-131.5 554.5,-112.5 450.5,-112.5"/>
<text text-anchor="middle" x="502.5" y="-119.5" font-family="Helvetica,sans-Serif" font-size="10.00">SFML/Graphics.hpp</text>
</a>
</g>
</g>
<!-- Node2&#45;&gt;Node4 -->
<g id="edge3" class="edge">
<title>Node2&#45;&gt;Node4</title>
<path fill="none" stroke="midnightblue" d="M536.73,-168.08C530.94,-160.46 522.44,-149.26 515.36,-139.94"/>
<polygon fill="midnightblue" stroke="midnightblue" points="517.98,-137.6 509.14,-131.75 512.4,-141.83 517.98,-137.6"/>
</g>
<!-- Node5 -->
<g id="node5" class="node">
<title>Node5</title>
<g id="a_node5"><a xlink:title=" ">
<polygon fill="white" stroke="#bfbfbf" points="572.5,-112.5 572.5,-131.5 698.5,-131.5 698.5,-112.5 572.5,-112.5"/>
<text text-anchor="middle" x="635.5" y="-119.5" font-family="Helvetica,sans-Serif" font-size="10.00">SFML/System/Clock.hpp</text>
</a>
</g>
</g>
<!-- Node2&#45;&gt;Node5 -->
<g id="edge4" class="edge">
<title>Node2&#45;&gt;Node5</title>
<path fill="none" stroke="midnightblue" d="M558.28,-168.32C572.77,-159.82 595.07,-146.73 611.99,-136.8"/>
<polygon fill="midnightblue" stroke="midnightblue" points="613.9,-139.74 620.76,-131.65 610.36,-133.7 613.9,-139.74"/>
</g>
<!-- Node6 -->
<g id="node6" class="node">
<title>Node6</title>
<g id="a_node6"><a xlink:title=" ">
<polygon fill="white" stroke="#bfbfbf" points="716.5,-112.5 716.5,-131.5 842.5,-131.5 842.5,-112.5 716.5,-112.5"/>
<text text-anchor="middle" x="779.5" y="-119.5" font-family="Helvetica,sans-Serif" font-size="10.00">SFML/Window/Event.hpp</text>
</a>
</g>
</g>
<!-- Node2&#45;&gt;Node6 -->
<g id="edge5" class="edge">
<title>Node2&#45;&gt;Node6</title>
<path fill="none" stroke="midnightblue" d="M580.89,-168.44C621.89,-159.06 687.75,-143.99 732.28,-133.8"/>
<polygon fill="midnightblue" stroke="midnightblue" points="733.31,-137.16 742.28,-131.52 731.75,-130.34 733.31,-137.16"/>
</g>
<!-- Node7 -->
<g id="node7" class="node">
<title>Node7</title>
<g id="a_node7"><a xlink:href="../../df/db4/Config_8hpp.html" target="_top" xlink:title=" ">
<polygon fill="white" stroke="black" points="0,-112.5 0,-131.5 131,-131.5 131,-112.5 0,-112.5"/>
<text text-anchor="middle" x="65.5" y="-119.5" font-family="Helvetica,sans-Serif" font-size="10.00">Small/Scripting/Config.hpp</text>
</a>
</g>
</g>
<!-- Node2&#45;&gt;Node7 -->
<g id="edge6" class="edge">
<title>Node2&#45;&gt;Node7</title>
<path fill="none" stroke="midnightblue" d="M486.28,-170.81C409.96,-162.51 270.37,-147.2 141.33,-132.2"/>
<polygon fill="midnightblue" stroke="midnightblue" points="141.6,-128.71 131.26,-131.03 140.79,-135.67 141.6,-128.71"/>
</g>
<!-- Node8 -->
<g id="node8" class="node">
<title>Node8</title>
<g id="a_node8"><a xlink:href="../../d7/dc6/Node_8hpp.html" target="_top" xlink:title="A scene graph node.">
<polygon fill="white" stroke="black" points="972.5,-112.5 972.5,-131.5 1100.5,-131.5 1100.5,-112.5 972.5,-112.5"/>
<text text-anchor="middle" x="1036.5" y="-119.5" font-family="Helvetica,sans-Serif" font-size="10.00">Small/Graphics/Node.hpp</text>
</a>
</g>
</g>
<!-- Node2&#45;&gt;Node8 -->
<g id="edge8" class="edge">
<title>Node2&#45;&gt;Node8</title>
<path fill="none" stroke="midnightblue" d="M600.53,-170.75C689.89,-160.97 862.87,-142.02 961.97,-131.16"/>
<polygon fill="midnightblue" stroke="midnightblue" points="962.64,-134.61 972.2,-130.04 961.88,-127.65 962.64,-134.61"/>
</g>
<!-- Node14 -->
<g id="node14" class="node">
<title>Node14</title>
<g id="a_node14"><a xlink:href="../../dc/d6f/RessourceManager_8hpp.html" target="_top" xlink:title=" ">
<polygon fill="white" stroke="black" points="262.5,-112.5 262.5,-131.5 432.5,-131.5 432.5,-112.5 262.5,-112.5"/>
<text text-anchor="middle" x="347.5" y="-119.5" font-family="Helvetica,sans-Serif" font-size="10.00">Small/Core/RessourceManager.hpp</text>
</a>
</g>
</g>
<!-- Node2&#45;&gt;Node14 -->
<g id="edge14" class="edge">
<title>Node2&#45;&gt;Node14</title>
<path fill="none" stroke="midnightblue" d="M512.44,-168.44C478.9,-159.2 425.3,-144.44 388.36,-134.26"/>
<polygon fill="midnightblue" stroke="midnightblue" points="388.98,-130.8 378.41,-131.52 387.12,-137.55 388.98,-130.8"/>
</g>
<!-- Node19 -->
<g id="node19" class="node">
<title>Node19</title>
<g id="a_node19"><a xlink:title=" ">
<polygon fill="white" stroke="#bfbfbf" points="149,-112.5 149,-131.5 206,-131.5 206,-112.5 149,-112.5"/>
<text text-anchor="middle" x="177.5" y="-119.5" font-family="Helvetica,sans-Serif" font-size="10.00">Scene.inl</text>
</a>
</g>
</g>
<!-- Node2&#45;&gt;Node19 -->
<g id="edge24" class="edge">
<title>Node2&#45;&gt;Node19</title>
<path fill="none" stroke="midnightblue" d="M486.43,-170.24C421.74,-162.3 313.23,-148.15 220.5,-132 219.04,-131.75 217.56,-131.48 216.07,-131.2"/>
<polygon fill="midnightblue" stroke="midnightblue" points="216.61,-127.74 206.13,-129.27 215.28,-134.62 216.61,-127.74"/>
</g>
<!-- Node7&#45;&gt;Node3 -->
<g id="edge7" class="edge">
<title>Node7&#45;&gt;Node3</title>
<path fill="none" stroke="midnightblue" d="M79.7,-112.37C110.89,-93.41 185.62,-48 223.56,-24.94"/>
<polygon fill="midnightblue" stroke="midnightblue" points="225.64,-27.78 232.36,-19.59 222,-21.79 225.64,-27.78"/>
</g>
<!-- Node9 -->
<g id="node9" class="node">
<title>Node9</title>
<g id="a_node9"><a xlink:title=" ">
<polygon fill="white" stroke="#bfbfbf" points="821.5,-56.5 821.5,-75.5 985.5,-75.5 985.5,-56.5 821.5,-56.5"/>
<text text-anchor="middle" x="903.5" y="-63.5" font-family="Helvetica,sans-Serif" font-size="10.00">SFML/Graphics/RenderTarget.hpp</text>
</a>
</g>
</g>
<!-- Node8&#45;&gt;Node9 -->
<g id="edge9" class="edge">
<title>Node8&#45;&gt;Node9</title>
<path fill="none" stroke="midnightblue" d="M1015.43,-112.44C993.44,-103.52 958.77,-89.44 933.84,-79.32"/>
<polygon fill="midnightblue" stroke="midnightblue" points="935.06,-76.04 924.48,-75.52 932.42,-82.52 935.06,-76.04"/>
</g>
<!-- Node10 -->
<g id="node10" class="node">
<title>Node10</title>
<g id="a_node10"><a xlink:title=" ">
<polygon fill="white" stroke="#bfbfbf" points="1157,-56.5 1157,-75.5 1306,-75.5 1306,-56.5 1157,-56.5"/>
<text text-anchor="middle" x="1231.5" y="-63.5" font-family="Helvetica,sans-Serif" font-size="10.00">SFML/Graphics/Transform.hpp</text>
</a>
</g>
</g>
<!-- Node8&#45;&gt;Node10 -->
<g id="edge10" class="edge">
<title>Node8&#45;&gt;Node10</title>
<path fill="none" stroke="midnightblue" d="M1067.4,-112.44C1100.77,-103.2 1154.09,-88.44 1190.85,-78.26"/>
<polygon fill="midnightblue" stroke="midnightblue" points="1192.04,-81.56 1200.75,-75.52 1190.17,-74.81 1192.04,-81.56"/>
</g>
<!-- Node11 -->
<g id="node11" class="node">
<title>Node11</title>
<g id="a_node11"><a xlink:title=" ">
<polygon fill="white" stroke="#bfbfbf" points="1004,-56.5 1004,-75.5 1139,-75.5 1139,-56.5 1004,-56.5"/>
<text text-anchor="middle" x="1071.5" y="-63.5" font-family="Helvetica,sans-Serif" font-size="10.00">SFML/System/Vector2.hpp</text>
</a>
</g>
</g>
<!-- Node8&#45;&gt;Node11 -->
<g id="edge11" class="edge">
<title>Node8&#45;&gt;Node11</title>
<path fill="none" stroke="midnightblue" d="M1042.28,-112.08C1047.17,-104.53 1054.33,-93.49 1060.33,-84.23"/>
<polygon fill="midnightblue" stroke="midnightblue" points="1063.33,-86.05 1065.83,-75.75 1057.45,-82.24 1063.33,-86.05"/>
</g>
<!-- Node12 -->
<g id="node12" class="node">
<title>Node12</title>
<g id="a_node12"><a xlink:title=" ">
<polygon fill="white" stroke="#bfbfbf" points="1324.5,-56.5 1324.5,-75.5 1366.5,-75.5 1366.5,-56.5 1324.5,-56.5"/>
<text text-anchor="middle" x="1345.5" y="-63.5" font-family="Helvetica,sans-Serif" font-size="10.00">vector</text>
</a>
</g>
</g>
<!-- Node8&#45;&gt;Node12 -->
<g id="edge12" class="edge">
<title>Node8&#45;&gt;Node12</title>
<path fill="none" stroke="midnightblue" d="M1100.68,-113.09C1155.2,-105.82 1235.65,-93.78 1314.22,-76.05"/>
<polygon fill="midnightblue" stroke="midnightblue" points="1315.32,-79.39 1324.29,-73.74 1313.76,-72.56 1315.32,-79.39"/>
</g>
<!-- Node13 -->
<g id="node13" class="node">
<title>Node13</title>
<g id="a_node13"><a xlink:title=" ">
<polygon fill="white" stroke="#bfbfbf" points="751.5,-56.5 751.5,-75.5 803.5,-75.5 803.5,-56.5 751.5,-56.5"/>
<text text-anchor="middle" x="777.5" y="-63.5" font-family="Helvetica,sans-Serif" font-size="10.00">memory</text>
</a>
</g>
</g>
<!-- Node8&#45;&gt;Node13 -->
<g id="edge13" class="edge">
<title>Node8&#45;&gt;Node13</title>
<path fill="none" stroke="midnightblue" d="M990.44,-112.49C947.18,-104.33 880.41,-91.32 813.68,-76.18"/>
<polygon fill="midnightblue" stroke="midnightblue" points="814.36,-72.75 803.84,-73.93 812.81,-79.57 814.36,-72.75"/>
</g>
<!-- Node14&#45;&gt;Node3 -->
<g id="edge15" class="edge">
<title>Node14&#45;&gt;Node3</title>
<path fill="none" stroke="midnightblue" d="M334.61,-112.28C322.65,-103.84 304.76,-90.24 291.5,-76 277.8,-61.29 265.05,-42.14 256.64,-28.44"/>
<polygon fill="midnightblue" stroke="midnightblue" points="259.48,-26.36 251.34,-19.57 253.47,-29.95 259.48,-26.36"/>
</g>
<!-- Node14&#45;&gt;Node13 -->
<g id="edge16" class="edge">
<title>Node14&#45;&gt;Node13</title>
<path fill="none" stroke="midnightblue" d="M415.63,-112.44C507.95,-100.85 669.47,-80.57 741.29,-71.55"/>
<polygon fill="midnightblue" stroke="midnightblue" points="741.73,-75.02 751.22,-70.3 740.86,-68.07 741.73,-75.02"/>
</g>
<!-- Node15 -->
<g id="node15" class="node">
<title>Node15</title>
<g id="a_node15"><a xlink:title=" ">
<polygon fill="white" stroke="#bfbfbf" points="594,-56.5 594,-75.5 677,-75.5 677,-56.5 594,-56.5"/>
<text text-anchor="middle" x="635.5" y="-63.5" font-family="Helvetica,sans-Serif" font-size="10.00">unordered_map</text>
</a>
</g>
</g>
<!-- Node14&#45;&gt;Node15 -->
<g id="edge17" class="edge">
<title>Node14&#45;&gt;Node15</title>
<path fill="none" stroke="midnightblue" d="M393.13,-112.44C444.99,-102.72 529.44,-86.89 583.72,-76.71"/>
<polygon fill="midnightblue" stroke="midnightblue" points="584.64,-80.1 593.82,-74.82 583.35,-73.22 584.64,-80.1"/>
</g>
<!-- Node16 -->
<g id="node16" class="node">
<title>Node16</title>
<g id="a_node16"><a xlink:title=" ">
<polygon fill="white" stroke="#bfbfbf" points="293,-0.5 293,-19.5 432,-19.5 432,-0.5 293,-0.5"/>
<text text-anchor="middle" x="362.5" y="-7.5" font-family="Helvetica,sans-Serif" font-size="10.00">SFML/Graphics/Texture.hpp</text>
</a>
</g>
</g>
<!-- Node14&#45;&gt;Node16 -->
<g id="edge18" class="edge">
<title>Node14&#45;&gt;Node16</title>
<path fill="none" stroke="midnightblue" d="M388.55,-112.38C408.46,-105.92 430.59,-94.81 442.5,-76 456.97,-53.14 426.45,-34.61 399.03,-23.27"/>
<polygon fill="midnightblue" stroke="midnightblue" points="400.13,-19.94 389.54,-19.56 397.58,-26.46 400.13,-19.94"/>
</g>
<!-- Node17 -->
<g id="node17" class="node">
<title>Node17</title>
<g id="a_node17"><a xlink:title=" ">
<polygon fill="white" stroke="#bfbfbf" points="450.5,-0.5 450.5,-19.5 576.5,-19.5 576.5,-0.5 450.5,-0.5"/>
<text text-anchor="middle" x="513.5" y="-7.5" font-family="Helvetica,sans-Serif" font-size="10.00">SFML/Graphics/Font.hpp</text>
</a>
</g>
</g>
<!-- Node14&#45;&gt;Node17 -->
<g id="edge19" class="edge">
<title>Node14&#45;&gt;Node17</title>
<path fill="none" stroke="midnightblue" d="M379.7,-112.48C403.05,-105.27 434.59,-93.32 458.5,-76 476.57,-62.91 492.45,-42.66 502.44,-28.24"/>
<polygon fill="midnightblue" stroke="midnightblue" points="505.48,-30.01 508.12,-19.75 499.66,-26.12 505.48,-30.01"/>
</g>
<!-- Node18 -->
<g id="node18" class="node">
<title>Node18</title>
<g id="a_node18"><a xlink:href="../../db/d73/Ressource_8hpp.html" target="_top" xlink:title=" ">
<polygon fill="white" stroke="black" points="301,-56.5 301,-75.5 434,-75.5 434,-56.5 301,-56.5"/>
<text text-anchor="middle" x="367.5" y="-63.5" font-family="Helvetica,sans-Serif" font-size="10.00">Small/Core/Ressource.hpp</text>
</a>
</g>
</g>
<!-- Node14&#45;&gt;Node18 -->
<g id="edge20" class="edge">
<title>Node14&#45;&gt;Node18</title>
<path fill="none" stroke="midnightblue" d="M350.8,-112.08C353.48,-104.85 357.35,-94.41 360.69,-85.4"/>
<polygon fill="midnightblue" stroke="midnightblue" points="364.07,-86.34 364.26,-75.75 357.5,-83.91 364.07,-86.34"/>
</g>
<!-- Node18&#45;&gt;Node3 -->
<g id="edge21" class="edge">
<title>Node18&#45;&gt;Node3</title>
<path fill="none" stroke="midnightblue" d="M348.33,-56.44C328.59,-47.64 297.61,-33.81 275.01,-23.72"/>
<polygon fill="midnightblue" stroke="midnightblue" points="276.14,-20.4 265.58,-19.52 273.29,-26.79 276.14,-20.4"/>
</g>
<!-- Node18&#45;&gt;Node16 -->
<g id="edge22" class="edge">
<title>Node18&#45;&gt;Node16</title>
<path fill="none" stroke="midnightblue" d="M366.67,-56.08C366.02,-49.01 365.08,-38.86 364.26,-29.99"/>
<polygon fill="midnightblue" stroke="midnightblue" points="367.72,-29.39 363.31,-19.75 360.75,-30.03 367.72,-29.39"/>
</g>
<!-- Node18&#45;&gt;Node17 -->
<g id="edge23" class="edge">
<title>Node18&#45;&gt;Node17</title>
<path fill="none" stroke="midnightblue" d="M390.63,-56.44C414.98,-47.44 453.51,-33.19 480.92,-23.05"/>
<polygon fill="midnightblue" stroke="midnightblue" points="482.31,-26.27 490.47,-19.52 479.88,-19.7 482.31,-26.27"/>
</g>
<!-- Node20&#45;&gt;Node2 -->
<g id="edge35" class="edge">
<title>Node20&#45;&gt;Node2</title>
<path fill="none" stroke="midnightblue" d="M834.68,-224.44C773.18,-214.85 673.52,-199.29 608.24,-189.1"/>
<polygon fill="midnightblue" stroke="midnightblue" points="608.49,-185.6 598.07,-187.52 607.41,-192.52 608.49,-185.6"/>
</g>
<!-- Node20&#45;&gt;Node4 -->
<g id="edge31" class="edge">
<title>Node20&#45;&gt;Node4</title>
<path fill="none" stroke="midnightblue" d="M859.45,-224.46C790.37,-204.82 620.18,-156.45 542.42,-134.35"/>
<polygon fill="midnightblue" stroke="midnightblue" points="543.1,-130.9 532.53,-131.53 541.19,-137.64 543.1,-130.9"/>
</g>
<!-- Node20&#45;&gt;Node5 -->
<g id="edge32" class="edge">
<title>Node20&#45;&gt;Node5</title>
<path fill="none" stroke="midnightblue" d="M869.57,-224.37C824.96,-205.05 716.92,-158.26 664.71,-135.65"/>
<polygon fill="midnightblue" stroke="midnightblue" points="665.91,-132.35 655.34,-131.59 663.12,-138.78 665.91,-132.35"/>
</g>
<!-- Node20&#45;&gt;Node6 -->
<g id="edge33" class="edge">
<title>Node20&#45;&gt;Node6</title>
<path fill="none" stroke="midnightblue" d="M880.87,-224.37C862.39,-205.89 818.79,-162.29 795.24,-138.74"/>
<polygon fill="midnightblue" stroke="midnightblue" points="797.64,-136.19 788.09,-131.59 792.69,-141.14 797.64,-136.19"/>
</g>
<!-- Node20&#45;&gt;Node7 -->
<g id="edge36" class="edge">
<title>Node20&#45;&gt;Node7</title>
<path fill="none" stroke="midnightblue" d="M813.43,-225.79C730.65,-217.68 594.47,-203.61 477.5,-188 351.36,-171.17 204.26,-146.82 124.41,-133.2"/>
<polygon fill="midnightblue" stroke="midnightblue" points="124.99,-129.75 114.54,-131.51 123.81,-136.65 124.99,-129.75"/>
</g>
<!-- Node20&#45;&gt;Node10 -->
<g id="edge34" class="edge">
<title>Node20&#45;&gt;Node10</title>
<path fill="none" stroke="midnightblue" d="M965.85,-229.78C1075.67,-224.35 1267.42,-211.59 1288.5,-188 1317.1,-155.99 1274.67,-107.11 1248.88,-82.42"/>
<polygon fill="midnightblue" stroke="midnightblue" points="1251.22,-79.81 1241.51,-75.58 1246.46,-84.94 1251.22,-79.81"/>
</g>
<!-- Node20&#45;&gt;Node12 -->
<g id="edge26" class="edge">
<title>Node20&#45;&gt;Node12</title>
<path fill="none" stroke="midnightblue" d="M965.58,-229.24C1078.68,-222.99 1280.66,-209.03 1306.5,-188 1337.35,-162.88 1344.09,-113.15 1345.38,-85.92"/>
<polygon fill="midnightblue" stroke="midnightblue" points="1348.88,-85.85 1345.65,-75.76 1341.89,-85.66 1348.88,-85.85"/>
</g>
<!-- Node20&#45;&gt;Node13 -->
<g id="edge27" class="edge">
<title>Node20&#45;&gt;Node13</title>
<path fill="none" stroke="midnightblue" d="M891.99,-224.41C897.61,-203.15 908.96,-147.23 884.5,-112 875.93,-99.65 841.01,-86.42 813.36,-77.52"/>
<polygon fill="midnightblue" stroke="midnightblue" points="814.16,-74.1 803.57,-74.45 812.06,-80.78 814.16,-74.1"/>
</g>
<!-- Node20&#45;&gt;Node15 -->
<g id="edge30" class="edge">
<title>Node20&#45;&gt;Node15</title>
<path fill="none" stroke="midnightblue" d="M889.56,-224.44C889.24,-202.24 885.12,-142.45 851.5,-112 827.85,-90.58 743.47,-77.98 687.45,-71.79"/>
<polygon fill="midnightblue" stroke="midnightblue" points="687.65,-68.29 677.34,-70.71 686.91,-75.25 687.65,-68.29"/>
</g>
<!-- Node21 -->
<g id="node21" class="node">
<title>Node21</title>
<g id="a_node21"><a xlink:title=" ">
<polygon fill="white" stroke="#bfbfbf" points="936.5,-168.5 936.5,-187.5 986.5,-187.5 986.5,-168.5 936.5,-168.5"/>
<text text-anchor="middle" x="961.5" y="-175.5" font-family="Helvetica,sans-Serif" font-size="10.00">typeinfo</text>
</a>
</g>
</g>
<!-- Node20&#45;&gt;Node21 -->
<g id="edge28" class="edge">
<title>Node20&#45;&gt;Node21</title>
<path fill="none" stroke="midnightblue" d="M901.07,-224.32C911.92,-216.18 928.38,-203.84 941.38,-194.09"/>
<polygon fill="midnightblue" stroke="midnightblue" points="943.82,-196.63 949.72,-187.83 939.62,-191.03 943.82,-196.63"/>
</g>
<!-- Node22 -->
<g id="node22" class="node">
<title>Node22</title>
<g id="a_node22"><a xlink:title=" ">
<polygon fill="white" stroke="#bfbfbf" points="1004.5,-168.5 1004.5,-187.5 1062.5,-187.5 1062.5,-168.5 1004.5,-168.5"/>
<text text-anchor="middle" x="1033.5" y="-175.5" font-family="Helvetica,sans-Serif" font-size="10.00">functional</text>
</a>
</g>
</g>
<!-- Node20&#45;&gt;Node22 -->
<g id="edge29" class="edge">
<title>Node20&#45;&gt;Node22</title>
<path fill="none" stroke="midnightblue" d="M912.32,-224.44C936.33,-215.44 974.33,-201.19 1001.37,-191.05"/>
<polygon fill="midnightblue" stroke="midnightblue" points="1002.66,-194.3 1010.79,-187.52 1000.2,-187.75 1002.66,-194.3"/>
</g>
<!-- Node23 -->
<g id="node23" class="node">
<title>Node23</title>
<g id="a_node23"><a xlink:title=" ">
<polygon fill="white" stroke="#bfbfbf" points="1081,-168.5 1081,-187.5 1166,-187.5 1166,-168.5 1081,-168.5"/>
<text text-anchor="middle" x="1123.5" y="-175.5" font-family="Helvetica,sans-Serif" font-size="10.00">spdlog/spdlog.h</text>
</a>
</g>
</g>
<!-- Node20&#45;&gt;Node23 -->
<g id="edge37" class="edge">
<title>Node20&#45;&gt;Node23</title>
<path fill="none" stroke="midnightblue" d="M926.58,-224.44C967.23,-215.06 1032.53,-199.99 1076.68,-189.8"/>
<polygon fill="midnightblue" stroke="midnightblue" points="1077.64,-193.18 1086.6,-187.52 1076.06,-186.35 1077.64,-193.18"/>
</g>
<!-- Node24 -->
<g id="node24" class="node">
<title>Node24</title>
<g id="a_node24"><a xlink:title=" ">
<polygon fill="white" stroke="#bfbfbf" points="1184,-168.5 1184,-187.5 1279,-187.5 1279,-168.5 1184,-168.5"/>
<text text-anchor="middle" x="1231.5" y="-175.5" font-family="Helvetica,sans-Serif" font-size="10.00">SceneManager.inl</text>
</a>
</g>
</g>
<!-- Node20&#45;&gt;Node24 -->
<g id="edge38" class="edge">
<title>Node20&#45;&gt;Node24</title>
<path fill="none" stroke="midnightblue" d="M944.07,-224.47C999.49,-215.79 1088.08,-201.89 1173.93,-188.25"/>
<polygon fill="midnightblue" stroke="midnightblue" points="1174.52,-191.7 1183.84,-186.67 1173.42,-184.78 1174.52,-191.7"/>
</g>
</g>
</svg>
        <g id="navigator" transform="translate(0 0)" fill="#404254">
                <rect fill="#f2f5e9" fill-opacity="0.5" stroke="#606060" stroke-width=".5" x="0" y="0" width="60" height="60"/>
                <use id="zoomplus" xlink:href="#zoomPlus" x="17" y="9" onmousedown="handleZoom(evt,'in')"/>
                <use id="zoomminus" xlink:href="#zoomMin" x="42" y="9" onmousedown="handleZoom(evt,'out')"/>
                <use id="reset" xlink:href="#resetDef" x="30" y="36" onmousedown="handleReset()"/>
                <g id="arrowUp" xlink:href="#dirArrow" transform="translate(30 24)" onmousedown="handlePan(0,-1)">
                  <use xlink:href="#rim" fill="#404040">
                        <set attributeName="fill" to="#808080" begin="arrowUp.mouseover" end="arrowUp.mouseout"/>
                  </use>
                  <path fill="none" stroke="white" stroke-width="1.5" d="M0,-3.0v7 M-2.5,-0.5L0,-3.0L2.5,-0.5"/>
                </g>
                <g id="arrowRight" xlink:href="#dirArrow" transform="rotate(90) translate(36 -43)" onmousedown="handlePan(1,0)">
                  <use xlink:href="#rim" fill="#404040">
                        <set attributeName="fill" to="#808080" begin="arrowRight.mouseover" end="arrowRight.mouseout"/>
                  </use>
                  <path fill="none" stroke="white" stroke-width="1.5" d="M0,-3.0v7 M-2.5,-0.5L0,-3.0L2.5,-0.5"/>
                </g>
                <g id="arrowDown" xlink:href="#dirArrow" transform="rotate(180) translate(-30 -48)" onmousedown="handlePan(0,1)">
                  <use xlink:href="#rim" fill="#404040">
                        <set attributeName="fill" to="#808080" begin="arrowDown.mouseover" end="arrowDown.mouseout"/>
                  </use>
                  <path fill="none" stroke="white" stroke-width="1.5" d="M0,-3.0v7 M-2.5,-0.5L0,-3.0L2.5,-0.5"/>
                </g>
                <g id="arrowLeft" xlink:href="#dirArrow" transform="rotate(270) translate(-36 17)" onmousedown="handlePan(-1,0)">
                  <use xlink:href="#rim" fill="#404040">
                        <set attributeName="fill" to="#808080" begin="arrowLeft.mouseover" end="arrowLeft.mouseout"/>
                  </use>
                  <path fill="none" stroke="white" stroke-width="1.5" d="M0,-3.0v7 M-2.5,-0.5L0,-3.0L2.5,-0.5"/>
                </g>
        </g>
        <svg viewBox="0 0 15 15" width="100%" height="30px" preserveAspectRatio="xMaxYMin meet">
         <g id="arrow_out" transform="scale(0.3 0.3)">
          <a xlink:href="Scene_8cpp__incl_org.svg" target="_base">
           <rect id="button" ry="5" rx="5" y="6" x="6" height="38" width="38"
                fill="#f2f5e9" fill-opacity="0.5" stroke="#606060" stroke-width="1.0"/>
           <path id="arrow"
             d="M 11.500037,31.436501 C 11.940474,20.09759 22.043105,11.32322 32.158766,21.979434 L 37.068811,17.246167 C 37.068811,17.246167 37.088388,32 37.088388,32 L 22.160133,31.978069 C 22.160133,31.978069 26.997745,27.140456 26.997745,27.140456 C 18.528582,18.264221 13.291696,25.230495 11.500037,31.436501 z"
             style="fill:#404040;"/>
          </a>
         </g>
        </svg>
</svg>
