<?xml version="1.0" encoding="UTF-8" standalone="no"?>
<!DOCTYPE svg PUBLIC "-//W3C//DTD SVG 1.1//EN"
 "http://www.w3.org/Graphics/SVG/1.1/DTD/svg11.dtd">
<!-- Generated by graphviz version 2.49.0 (20210828.1703)
 -->
<!-- Title: C:/Users/folae/Documents/Code/Big&#45;Projects/ScriptWizards/SmallGameLibrary/include/Small/System.hpp Pages: 1 -->
<svg width="447pt" height="173pt"
 viewBox="0.00 0.00 446.50 173.00" xmlns="http://www.w3.org/2000/svg" xmlns:xlink="http://www.w3.org/1999/xlink">
<g id="graph0" class="graph" transform="scale(1 1) rotate(0) translate(4 169)">
<title>C:/Users/folae/Documents/Code/Big&#45;Projects/ScriptWizards/SmallGameLibrary/include/Small/System.hpp</title>
<polygon fill="white" stroke="transparent" points="-4,4 -4,-169 442.5,-169 442.5,4 -4,4"/>
<!-- Node1 -->
<g id="node1" class="node">
<title>Node1</title>
<g id="a_node1"><a xlink:title="Include all the files from the System folder.">
<polygon fill="#bfbfbf" stroke="black" points="109.5,-112.5 109.5,-164.5 272.5,-164.5 272.5,-112.5 109.5,-112.5"/>
<text text-anchor="start" x="117.5" y="-152.5" font-family="Helvetica,sans-Serif" font-size="10.00">C:/Users/folae/Documents</text>
<text text-anchor="start" x="117.5" y="-141.5" font-family="Helvetica,sans-Serif" font-size="10.00">/Code/Big&#45;Projects/ScriptWizards</text>
<text text-anchor="start" x="117.5" y="-130.5" font-family="Helvetica,sans-Serif" font-size="10.00">/SmallGameLibrary/include/Small</text>
<text text-anchor="middle" x="191" y="-119.5" font-family="Helvetica,sans-Serif" font-size="10.00">/System.hpp</text>
</a>
</g>
</g>
<!-- Node2 -->
<g id="node2" class="node">
<title>Node2</title>
<g id="a_node2"><a xlink:href="../../d5/d40/Platform_8hpp.html" target="_top" xlink:title="Defines to identify the running operating system.">
<polygon fill="white" stroke="black" points="0,-0.5 0,-19.5 136,-19.5 136,-0.5 0,-0.5"/>
<text text-anchor="middle" x="68" y="-7.5" font-family="Helvetica,sans-Serif" font-size="10.00">Small/System/Platform.hpp</text>
</a>
</g>
</g>
<!-- Node1&#45;&gt;Node2 -->
<g id="edge1" class="edge">
<title>Node1&#45;&gt;Node2</title>
<path fill="none" stroke="midnightblue" d="M145.99,-112.5C130.74,-102.53 114.44,-90.07 102,-76 89.77,-62.16 80.48,-43.14 74.73,-29.25"/>
<polygon fill="midnightblue" stroke="midnightblue" points="77.94,-27.84 71.03,-19.8 71.42,-30.39 77.94,-27.84"/>
</g>
<!-- Node3 -->
<g id="node3" class="node">
<title>Node3</title>
<g id="a_node3"><a xlink:href="../../d4/da5/SharedLibrary_8hpp.html" target="_top" xlink:title="Utility to easily load shared libraries and retrieve their functions.">
<polygon fill="white" stroke="black" points="111,-56.5 111,-75.5 271,-75.5 271,-56.5 111,-56.5"/>
<text text-anchor="middle" x="191" y="-63.5" font-family="Helvetica,sans-Serif" font-size="10.00">Small/System/SharedLibrary.hpp</text>
</a>
</g>
</g>
<!-- Node1&#45;&gt;Node3 -->
<g id="edge2" class="edge">
<title>Node1&#45;&gt;Node3</title>
<path fill="none" stroke="midnightblue" d="M191,-112.45C191,-103.73 191,-94.1 191,-85.96"/>
<polygon fill="midnightblue" stroke="midnightblue" points="194.5,-85.7 191,-75.7 187.5,-85.7 194.5,-85.7"/>
</g>
<!-- Node7 -->
<g id="node7" class="node">
<title>Node7</title>
<g id="a_node7"><a xlink:href="../../d2/dbb/FileSystem_8hpp.html" target="_top" xlink:title="Useful functionalities related to the filesystem.">
<polygon fill="white" stroke="black" points="289.5,-56.5 289.5,-75.5 438.5,-75.5 438.5,-56.5 289.5,-56.5"/>
<text text-anchor="middle" x="364" y="-63.5" font-family="Helvetica,sans-Serif" font-size="10.00">Small/System/FileSystem.hpp</text>
</a>
</g>
</g>
<!-- Node1&#45;&gt;Node7 -->
<g id="edge7" class="edge">
<title>Node1&#45;&gt;Node7</title>
<path fill="none" stroke="midnightblue" d="M252.48,-112.45C280.06,-101.21 311.35,-88.45 333.76,-79.33"/>
<polygon fill="midnightblue" stroke="midnightblue" points="335.14,-82.54 343.08,-75.53 332.49,-76.06 335.14,-82.54"/>
</g>
<!-- Node3&#45;&gt;Node2 -->
<g id="edge3" class="edge">
<title>Node3&#45;&gt;Node2</title>
<path fill="none" stroke="midnightblue" d="M171.51,-56.44C151.36,-47.6 119.68,-33.69 96.67,-23.59"/>
<polygon fill="midnightblue" stroke="midnightblue" points="97.96,-20.33 87.4,-19.52 95.15,-26.74 97.96,-20.33"/>
</g>
<!-- Node4 -->
<g id="node4" class="node">
<title>Node4</title>
<g id="a_node4"><a xlink:title=" ">
<polygon fill="white" stroke="#bfbfbf" points="323.5,-0.5 323.5,-19.5 364.5,-19.5 364.5,-0.5 323.5,-0.5"/>
<text text-anchor="middle" x="344" y="-7.5" font-family="Helvetica,sans-Serif" font-size="10.00">string</text>
</a>
</g>
</g>
<!-- Node3&#45;&gt;Node4 -->
<g id="edge4" class="edge">
<title>Node3&#45;&gt;Node4</title>
<path fill="none" stroke="midnightblue" d="M215.24,-56.44C241.93,-47.03 284.86,-31.87 313.73,-21.68"/>
<polygon fill="midnightblue" stroke="midnightblue" points="315.04,-24.93 323.3,-18.3 312.71,-18.33 315.04,-24.93"/>
</g>
<!-- Node5 -->
<g id="node5" class="node">
<title>Node5</title>
<g id="a_node5"><a xlink:title=" ">
<polygon fill="white" stroke="#bfbfbf" points="154,-0.5 154,-19.5 228,-19.5 228,-0.5 154,-0.5"/>
<text text-anchor="middle" x="191" y="-7.5" font-family="Helvetica,sans-Serif" font-size="10.00">system_error</text>
</a>
</g>
</g>
<!-- Node3&#45;&gt;Node5 -->
<g id="edge5" class="edge">
<title>Node3&#45;&gt;Node5</title>
<path fill="none" stroke="midnightblue" d="M191,-56.08C191,-49.01 191,-38.86 191,-29.99"/>
<polygon fill="midnightblue" stroke="midnightblue" points="194.5,-29.75 191,-19.75 187.5,-29.75 194.5,-29.75"/>
</g>
<!-- Node6 -->
<g id="node6" class="node">
<title>Node6</title>
<g id="a_node6"><a xlink:title=" ">
<polygon fill="white" stroke="#bfbfbf" points="246.5,-0.5 246.5,-19.5 305.5,-19.5 305.5,-0.5 246.5,-0.5"/>
<text text-anchor="middle" x="276" y="-7.5" font-family="Helvetica,sans-Serif" font-size="10.00">exception</text>
</a>
</g>
</g>
<!-- Node3&#45;&gt;Node6 -->
<g id="edge6" class="edge">
<title>Node3&#45;&gt;Node6</title>
<path fill="none" stroke="midnightblue" d="M204.66,-56.32C217.92,-47.9 238.27,-34.97 253.85,-25.07"/>
<polygon fill="midnightblue" stroke="midnightblue" points="255.81,-27.97 262.38,-19.65 252.06,-22.06 255.81,-27.97"/>
</g>
<!-- Node7&#45;&gt;Node4 -->
<g id="edge8" class="edge">
<title>Node7&#45;&gt;Node4</title>
<path fill="none" stroke="midnightblue" d="M360.7,-56.08C358.02,-48.85 354.15,-38.41 350.81,-29.4"/>
<polygon fill="midnightblue" stroke="midnightblue" points="354,-27.91 347.24,-19.75 347.43,-30.34 354,-27.91"/>
</g>
<!-- Node8 -->
<g id="node8" class="node">
<title>Node8</title>
<g id="a_node8"><a xlink:title=" ">
<polygon fill="white" stroke="#bfbfbf" points="383,-0.5 383,-19.5 425,-19.5 425,-0.5 383,-0.5"/>
<text text-anchor="middle" x="404" y="-7.5" font-family="Helvetica,sans-Serif" font-size="10.00">vector</text>
</a>
</g>
</g>
<!-- Node7&#45;&gt;Node8 -->
<g id="edge9" class="edge">
<title>Node7&#45;&gt;Node8</title>
<path fill="none" stroke="midnightblue" d="M370.61,-56.08C376.26,-48.46 384.54,-37.26 391.45,-27.94"/>
<polygon fill="midnightblue" stroke="midnightblue" points="394.38,-29.87 397.52,-19.75 388.75,-25.7 394.38,-29.87"/>
</g>
</g>
</svg>
