<?xml version="1.0" encoding="UTF-8" standalone="no"?>
<!DOCTYPE svg PUBLIC "-//W3C//DTD SVG 1.1//EN"
 "http://www.w3.org/Graphics/SVG/1.1/DTD/svg11.dtd">
<!-- Generated by graphviz version 2.49.0 (20210828.1703)
 -->
<!-- Title: C:/Users/folae/Documents/Code/Big&#45;Projects/ScriptWizards/SmallGameLibrary/include/Small/Core/Application.hpp Pages: 1 -->
<svg width="583pt" height="228pt"
 viewBox="0.00 0.00 583.00 228.00" xmlns="http://www.w3.org/2000/svg" xmlns:xlink="http://www.w3.org/1999/xlink">
<g id="graph0" class="graph" transform="scale(1 1) rotate(0) translate(4 224)">
<title>C:/Users/folae/Documents/Code/Big&#45;Projects/ScriptWizards/SmallGameLibrary/include/Small/Core/Application.hpp</title>
<polygon fill="white" stroke="transparent" points="-4,4 -4,-224 579,-224 579,4 -4,4"/>
<!-- Node1 -->
<g id="node1" class="node">
<title>Node1</title>
<g id="a_node1"><a xlink:title="Define the application hosting the scenes for the game.">
<polygon fill="#bfbfbf" stroke="black" points="221,-167.5 221,-219.5 384,-219.5 384,-167.5 221,-167.5"/>
<text text-anchor="start" x="229" y="-207.5" font-family="Helvetica,sans-Serif" font-size="10.00">C:/Users/folae/Documents</text>
<text text-anchor="start" x="229" y="-196.5" font-family="Helvetica,sans-Serif" font-size="10.00">/Code/Big&#45;Projects/ScriptWizards</text>
<text text-anchor="start" x="229" y="-185.5" font-family="Helvetica,sans-Serif" font-size="10.00">/SmallGameLibrary/include/Small</text>
<text text-anchor="middle" x="302.5" y="-174.5" font-family="Helvetica,sans-Serif" font-size="10.00">/Core/Application.hpp</text>
</a>
</g>
</g>
<!-- Node2 -->
<g id="node2" class="node">
<title>Node2</title>
<g id="a_node2"><a xlink:href="../../d7/d38/Core_8hpp.html" target="_top" xlink:title="Include all the files from the Core folder.">
<polygon fill="white" stroke="black" points="0,-84 0,-125 203,-125 203,-84 0,-84"/>
<text text-anchor="start" x="8" y="-113" font-family="Helvetica,sans-Serif" font-size="10.00">C:/Users/folae/Documents</text>
<text text-anchor="start" x="8" y="-102" font-family="Helvetica,sans-Serif" font-size="10.00">/Code/Big&#45;Projects/ScriptWizards</text>
<text text-anchor="middle" x="101.5" y="-91" font-family="Helvetica,sans-Serif" font-size="10.00">/SmallGameLibrary/include/Small/Core.hpp</text>
</a>
</g>
</g>
<!-- Node1&#45;&gt;Node2 -->
<g id="edge1" class="edge">
<title>Node1&#45;&gt;Node2</title>
<path fill="none" stroke="midnightblue" d="M235.35,-163.43C206.26,-150.84 172.97,-136.43 146.86,-125.13"/>
<polygon fill="midnightblue" stroke="midnightblue" points="234.06,-166.69 244.63,-167.45 236.85,-160.27 234.06,-166.69"/>
</g>
<!-- Node4 -->
<g id="node4" class="node">
<title>Node4</title>
<g id="a_node4"><a xlink:href="../../d2/db6/Application_8cpp.html" target="_top" xlink:title=" ">
<polygon fill="white" stroke="black" points="221,-78.5 221,-130.5 384,-130.5 384,-78.5 221,-78.5"/>
<text text-anchor="start" x="229" y="-118.5" font-family="Helvetica,sans-Serif" font-size="10.00">C:/Users/folae/Documents</text>
<text text-anchor="start" x="229" y="-107.5" font-family="Helvetica,sans-Serif" font-size="10.00">/Code/Big&#45;Projects/ScriptWizards</text>
<text text-anchor="start" x="229" y="-96.5" font-family="Helvetica,sans-Serif" font-size="10.00">/SmallGameLibrary/source/Core</text>
<text text-anchor="middle" x="302.5" y="-85.5" font-family="Helvetica,sans-Serif" font-size="10.00">/Application.cpp</text>
</a>
</g>
</g>
<!-- Node1&#45;&gt;Node4 -->
<g id="edge3" class="edge">
<title>Node1&#45;&gt;Node4</title>
<path fill="none" stroke="midnightblue" d="M302.5,-157.19C302.5,-148.28 302.5,-138.9 302.5,-130.61"/>
<polygon fill="midnightblue" stroke="midnightblue" points="299,-157.34 302.5,-167.34 306,-157.34 299,-157.34"/>
</g>
<!-- Node5 -->
<g id="node5" class="node">
<title>Node5</title>
<g id="a_node5"><a xlink:href="../../db/da3/Bindings_8cpp.html" target="_top" xlink:title=" ">
<polygon fill="white" stroke="black" points="402,-78.5 402,-130.5 575,-130.5 575,-78.5 402,-78.5"/>
<text text-anchor="start" x="410" y="-118.5" font-family="Helvetica,sans-Serif" font-size="10.00">C:/Users/folae/Documents</text>
<text text-anchor="start" x="410" y="-107.5" font-family="Helvetica,sans-Serif" font-size="10.00">/Code/Big&#45;Projects/ScriptWizards</text>
<text text-anchor="start" x="410" y="-96.5" font-family="Helvetica,sans-Serif" font-size="10.00">/SmallGameLibrary/source/Scripting</text>
<text text-anchor="middle" x="488.5" y="-85.5" font-family="Helvetica,sans-Serif" font-size="10.00">/Bindings.cpp</text>
</a>
</g>
</g>
<!-- Node1&#45;&gt;Node5 -->
<g id="edge4" class="edge">
<title>Node1&#45;&gt;Node5</title>
<path fill="none" stroke="midnightblue" d="M365.45,-163.06C387.98,-152.52 413.15,-140.75 434.82,-130.61"/>
<polygon fill="midnightblue" stroke="midnightblue" points="363.87,-159.93 356.3,-167.34 366.84,-166.27 363.87,-159.93"/>
</g>
<!-- Node3 -->
<g id="node3" class="node">
<title>Node3</title>
<g id="a_node3"><a xlink:href="../../da/d41/All_8hpp.html" target="_top" xlink:title="Include the needed files to start a project using the library.">
<polygon fill="white" stroke="black" points="4.5,-0.5 4.5,-41.5 198.5,-41.5 198.5,-0.5 4.5,-0.5"/>
<text text-anchor="start" x="12.5" y="-29.5" font-family="Helvetica,sans-Serif" font-size="10.00">C:/Users/folae/Documents</text>
<text text-anchor="start" x="12.5" y="-18.5" font-family="Helvetica,sans-Serif" font-size="10.00">/Code/Big&#45;Projects/ScriptWizards</text>
<text text-anchor="middle" x="101.5" y="-7.5" font-family="Helvetica,sans-Serif" font-size="10.00">/SmallGameLibrary/include/Small/All.hpp</text>
</a>
</g>
</g>
<!-- Node2&#45;&gt;Node3 -->
<g id="edge2" class="edge">
<title>Node2&#45;&gt;Node3</title>
<path fill="none" stroke="midnightblue" d="M101.5,-73.56C101.5,-62.88 101.5,-51.13 101.5,-41.55"/>
<polygon fill="midnightblue" stroke="midnightblue" points="98,-73.77 101.5,-83.77 105,-73.77 98,-73.77"/>
</g>
</g>
</svg>
