<?xml version="1.0" encoding="UTF-8" standalone="no"?>
<!DOCTYPE svg PUBLIC "-//W3C//DTD SVG 1.1//EN"
 "http://www.w3.org/Graphics/SVG/1.1/DTD/svg11.dtd">
<!-- Generated by graphviz version 2.49.0 (20210828.1703)
 -->
<!-- Title: C:/Users/folae/Documents/Code/Big&#45;Projects/ScriptWizards/SmallGameLibrary/source/Scenes/ArkScene.cpp Pages: 1 -->
<!--zoomable 341 -->
<svg id="main" version="1.1" xmlns="http://www.w3.org/2000/svg" xmlns:xlink="http://www.w3.org/1999/xlink" xml:space="preserve" onload="init(evt)">
<style type="text/css"><![CDATA[
.edge:hover path { stroke: red; }
.edge:hover polygon { stroke: red; fill: red; }
]]></style>
<script type="text/javascript"><![CDATA[
var edges = document.getElementsByTagName('g');
if (edges && edges.length) {
  for (var i=0;i<edges.length;i++) {
    if (edges[i].id.substr(0,4)=='edge') {
      edges[i].setAttribute('class','edge');
    }
  }
}
]]></script>
        <defs>
                <circle id="rim" cx="0" cy="0" r="7"/>
                <circle id="rim2" cx="0" cy="0" r="3.5"/>
                <g id="zoomPlus">
                        <use xlink:href="#rim" fill="#404040">
                                <set attributeName="fill" to="#808080" begin="zoomplus.mouseover" end="zoomplus.mouseout"/>
                        </use>
                        <path d="M-4,0h8M0,-4v8" fill="none" stroke="white" stroke-width="1.5" pointer-events="none"/>
                </g>
                <g id="zoomMin">
                        <use xlink:href="#rim" fill="#404040">
                                <set attributeName="fill" to="#808080" begin="zoomminus.mouseover" end="zoomminus.mouseout"/>
                        </use>
                        <path d="M-4,0h8" fill="none" stroke="white" stroke-width="1.5" pointer-events="none"/>
                </g>
                <g id="dirArrow">
                        <path fill="none" stroke="white" stroke-width="1.5" d="M0,-3.0v7 M-2.5,-0.5L0,-3.0L2.5,-0.5"/>
                </g>
               <g id="resetDef">
                       <use xlink:href="#rim2" fill="#404040">
                               <set attributeName="fill" to="#808080" begin="reset.mouseover" end="reset.mouseout"/>
                       </use>
               </g>
        </defs>

<script type="text/javascript">
var viewWidth = 1244;
var viewHeight = 341;
var sectionId = 'dynsection-0';
</script>
<script xlink:href="../../svgpan.js"/>
<svg id="graph" class="graph">
<g id="viewport">
<title>C:/Users/folae/Documents/Code/Big&#45;Projects/ScriptWizards/SmallGameLibrary/source/Scenes/ArkScene.cpp</title>
<polygon fill="white" stroke="transparent" points="-4,4 -4,-337 1239.5,-337 1239.5,4 -4,4"/>
<!-- Node1 -->
<g id="node1" class="node">
<title>Node1</title>
<g id="a_node1"><a xlink:title=" ">
<polygon fill="#bfbfbf" stroke="black" points="795.5,-280.5 795.5,-332.5 963.5,-332.5 963.5,-280.5 795.5,-280.5"/>
<text text-anchor="start" x="803.5" y="-320.5" font-family="Helvetica,sans-Serif" font-size="10.00">C:/Users/folae/Documents</text>
<text text-anchor="start" x="803.5" y="-309.5" font-family="Helvetica,sans-Serif" font-size="10.00">/Code/Big&#45;Projects/ScriptWizards</text>
<text text-anchor="start" x="803.5" y="-298.5" font-family="Helvetica,sans-Serif" font-size="10.00">/SmallGameLibrary/source/Scenes</text>
<text text-anchor="middle" x="879.5" y="-287.5" font-family="Helvetica,sans-Serif" font-size="10.00">/ArkScene.cpp</text>
</a>
</g>
</g>
<!-- Node2 -->
<g id="node2" class="node">
<title>Node2</title>
<g id="a_node2"><a xlink:href="../../de/de7/ArkScene_8hpp.html" target="_top" xlink:title="Define a scene scriptable through ArkScript.">
<polygon fill="white" stroke="black" points="593.5,-224.5 593.5,-243.5 735.5,-243.5 735.5,-224.5 593.5,-224.5"/>
<text text-anchor="middle" x="664.5" y="-231.5" font-family="Helvetica,sans-Serif" font-size="10.00">Small/Scenes/ArkScene.hpp</text>
</a>
</g>
</g>
<!-- Node1&#45;&gt;Node2 -->
<g id="edge1" class="edge">
<title>Node1&#45;&gt;Node2</title>
<path fill="none" stroke="midnightblue" d="M803.09,-280.45C768.05,-268.95 728.18,-255.88 700.23,-246.72"/>
<polygon fill="midnightblue" stroke="midnightblue" points="701.1,-243.32 690.5,-243.53 698.92,-249.97 701.1,-243.32"/>
</g>
<!-- Node22 -->
<g id="node22" class="node">
<title>Node22</title>
<g id="a_node22"><a xlink:href="../../d2/d12/Bindings_8hpp.html" target="_top" xlink:title="Binding the small game library in ArkScript.">
<polygon fill="white" stroke="black" points="1064.5,-224.5 1064.5,-243.5 1206.5,-243.5 1206.5,-224.5 1064.5,-224.5"/>
<text text-anchor="middle" x="1135.5" y="-231.5" font-family="Helvetica,sans-Serif" font-size="10.00">Small/Scripting/Bindings.hpp</text>
</a>
</g>
</g>
<!-- Node1&#45;&gt;Node22 -->
<g id="edge29" class="edge">
<title>Node1&#45;&gt;Node22</title>
<path fill="none" stroke="midnightblue" d="M963.68,-282.32C1007.58,-270.23 1059.31,-255.98 1094.45,-246.31"/>
<polygon fill="midnightblue" stroke="midnightblue" points="1095.64,-249.61 1104.35,-243.58 1093.78,-242.86 1095.64,-249.61"/>
</g>
<!-- Node24 -->
<g id="node24" class="node">
<title>Node24</title>
<g id="a_node24"><a xlink:href="../../d8/d82/SFMLtoArk_8hpp.html" target="_top" xlink:title="Convert SFML values to ArkScript values.">
<polygon fill="white" stroke="black" points="802.5,-224.5 802.5,-243.5 956.5,-243.5 956.5,-224.5 802.5,-224.5"/>
<text text-anchor="middle" x="879.5" y="-231.5" font-family="Helvetica,sans-Serif" font-size="10.00">Small/Scripting/SFMLtoArk.hpp</text>
</a>
</g>
</g>
<!-- Node1&#45;&gt;Node24 -->
<g id="edge31" class="edge">
<title>Node1&#45;&gt;Node24</title>
<path fill="none" stroke="midnightblue" d="M879.5,-280.45C879.5,-271.73 879.5,-262.1 879.5,-253.96"/>
<polygon fill="midnightblue" stroke="midnightblue" points="883,-253.7 879.5,-243.7 876,-253.7 883,-253.7"/>
</g>
<!-- Node3 -->
<g id="node3" class="node">
<title>Node3</title>
<g id="a_node3"><a xlink:href="../../db/de8/Scene_8hpp.html" target="_top" xlink:title="The base scene class and the scene states are defined here.">
<polygon fill="white" stroke="black" points="607.5,-168.5 607.5,-187.5 721.5,-187.5 721.5,-168.5 607.5,-168.5"/>
<text text-anchor="middle" x="664.5" y="-175.5" font-family="Helvetica,sans-Serif" font-size="10.00">Small/Core/Scene.hpp</text>
</a>
</g>
</g>
<!-- Node2&#45;&gt;Node3 -->
<g id="edge2" class="edge">
<title>Node2&#45;&gt;Node3</title>
<path fill="none" stroke="midnightblue" d="M664.5,-224.08C664.5,-217.01 664.5,-206.86 664.5,-197.99"/>
<polygon fill="midnightblue" stroke="midnightblue" points="668,-197.75 664.5,-187.75 661,-197.75 668,-197.75"/>
</g>
<!-- Node4 -->
<g id="node4" class="node">
<title>Node4</title>
<g id="a_node4"><a xlink:title=" ">
<polygon fill="white" stroke="#bfbfbf" points="0,-0.5 0,-19.5 41,-19.5 41,-0.5 0,-0.5"/>
<text text-anchor="middle" x="20.5" y="-7.5" font-family="Helvetica,sans-Serif" font-size="10.00">string</text>
</a>
</g>
</g>
<!-- Node2&#45;&gt;Node4 -->
<g id="edge28" class="edge">
<title>Node2&#45;&gt;Node4</title>
<path fill="none" stroke="midnightblue" d="M593.43,-232.85C479.09,-230.03 249.58,-213.62 76.5,-132 42.01,-115.74 27.39,-110.66 11.5,-76 4.76,-61.29 8.27,-42.9 12.73,-29.43"/>
<polygon fill="midnightblue" stroke="midnightblue" points="16.09,-30.45 16.33,-19.86 9.53,-27.98 16.09,-30.45"/>
</g>
<!-- Node8 -->
<g id="node8" class="node">
<title>Node8</title>
<g id="a_node8"><a xlink:href="../../df/db4/Config_8hpp.html" target="_top" xlink:title=" ">
<polygon fill="white" stroke="black" points="284,-112.5 284,-131.5 415,-131.5 415,-112.5 284,-112.5"/>
<text text-anchor="middle" x="349.5" y="-119.5" font-family="Helvetica,sans-Serif" font-size="10.00">Small/Scripting/Config.hpp</text>
</a>
</g>
</g>
<!-- Node2&#45;&gt;Node8 -->
<g id="edge27" class="edge">
<title>Node2&#45;&gt;Node8</title>
<path fill="none" stroke="midnightblue" d="M640.04,-224.46C584.34,-205.01 447.88,-157.36 383.8,-134.98"/>
<polygon fill="midnightblue" stroke="midnightblue" points="384.75,-131.6 374.16,-131.61 382.44,-138.21 384.75,-131.6"/>
</g>
<!-- Node21 -->
<g id="node21" class="node">
<title>Node21</title>
<g id="a_node21"><a xlink:title=" ">
<polygon fill="white" stroke="#bfbfbf" points="739.5,-168.5 739.5,-187.5 807.5,-187.5 807.5,-168.5 739.5,-168.5"/>
<text text-anchor="middle" x="773.5" y="-175.5" font-family="Helvetica,sans-Serif" font-size="10.00">Ark/Ark.hpp</text>
</a>
</g>
</g>
<!-- Node2&#45;&gt;Node21 -->
<g id="edge26" class="edge">
<title>Node2&#45;&gt;Node21</title>
<path fill="none" stroke="midnightblue" d="M682.01,-224.32C699.57,-215.62 726.83,-202.12 747.03,-192.11"/>
<polygon fill="midnightblue" stroke="midnightblue" points="748.62,-195.23 756.03,-187.65 745.52,-188.96 748.62,-195.23"/>
</g>
<!-- Node3&#45;&gt;Node4 -->
<g id="edge3" class="edge">
<title>Node3&#45;&gt;Node4</title>
<path fill="none" stroke="midnightblue" d="M607.42,-177.1C464.58,-176.01 97.82,-164.47 23.5,-76 12.95,-63.44 13.4,-44.22 15.77,-29.93"/>
<polygon fill="midnightblue" stroke="midnightblue" points="19.28,-30.26 17.91,-19.76 12.43,-28.82 19.28,-30.26"/>
</g>
<!-- Node5 -->
<g id="node5" class="node">
<title>Node5</title>
<g id="a_node5"><a xlink:title=" ">
<polygon fill="white" stroke="#bfbfbf" points="767.5,-112.5 767.5,-131.5 871.5,-131.5 871.5,-112.5 767.5,-112.5"/>
<text text-anchor="middle" x="819.5" y="-119.5" font-family="Helvetica,sans-Serif" font-size="10.00">SFML/Graphics.hpp</text>
</a>
</g>
</g>
<!-- Node3&#45;&gt;Node5 -->
<g id="edge4" class="edge">
<title>Node3&#45;&gt;Node5</title>
<path fill="none" stroke="midnightblue" d="M689.06,-168.44C715.02,-159.4 756.17,-145.06 785.3,-134.92"/>
<polygon fill="midnightblue" stroke="midnightblue" points="786.76,-138.11 795.05,-131.52 784.46,-131.5 786.76,-138.11"/>
</g>
<!-- Node6 -->
<g id="node6" class="node">
<title>Node6</title>
<g id="a_node6"><a xlink:title=" ">
<polygon fill="white" stroke="#bfbfbf" points="889.5,-112.5 889.5,-131.5 1015.5,-131.5 1015.5,-112.5 889.5,-112.5"/>
<text text-anchor="middle" x="952.5" y="-119.5" font-family="Helvetica,sans-Serif" font-size="10.00">SFML/System/Clock.hpp</text>
</a>
</g>
</g>
<!-- Node3&#45;&gt;Node6 -->
<g id="edge5" class="edge">
<title>Node3&#45;&gt;Node6</title>
<path fill="none" stroke="midnightblue" d="M710.13,-168.44C760.8,-158.94 842.57,-143.61 896.93,-133.42"/>
<polygon fill="midnightblue" stroke="midnightblue" points="897.9,-136.8 907.08,-131.52 896.61,-129.92 897.9,-136.8"/>
</g>
<!-- Node7 -->
<g id="node7" class="node">
<title>Node7</title>
<g id="a_node7"><a xlink:title=" ">
<polygon fill="white" stroke="#bfbfbf" points="1109.5,-112.5 1109.5,-131.5 1235.5,-131.5 1235.5,-112.5 1109.5,-112.5"/>
<text text-anchor="middle" x="1172.5" y="-119.5" font-family="Helvetica,sans-Serif" font-size="10.00">SFML/Window/Event.hpp</text>
</a>
</g>
</g>
<!-- Node3&#45;&gt;Node7 -->
<g id="edge6" class="edge">
<title>Node3&#45;&gt;Node7</title>
<path fill="none" stroke="midnightblue" d="M721.72,-169.06C724.69,-168.69 727.63,-168.34 730.5,-168 891.4,-149.21 934.61,-150.2 1099.31,-132.1"/>
<polygon fill="midnightblue" stroke="midnightblue" points="1099.74,-135.58 1109.3,-131 1098.97,-128.62 1099.74,-135.58"/>
</g>
<!-- Node3&#45;&gt;Node8 -->
<g id="edge7" class="edge">
<title>Node3&#45;&gt;Node8</title>
<path fill="none" stroke="midnightblue" d="M614.59,-168.44C558.83,-158.89 468.61,-143.42 409.17,-133.23"/>
<polygon fill="midnightblue" stroke="midnightblue" points="409.63,-129.76 399.18,-131.52 408.44,-136.66 409.63,-129.76"/>
</g>
<!-- Node9 -->
<g id="node9" class="node">
<title>Node9</title>
<g id="a_node9"><a xlink:href="../../d7/dc6/Node_8hpp.html" target="_top" xlink:title="A scene graph node.">
<polygon fill="white" stroke="black" points="433.5,-112.5 433.5,-131.5 561.5,-131.5 561.5,-112.5 433.5,-112.5"/>
<text text-anchor="middle" x="497.5" y="-119.5" font-family="Helvetica,sans-Serif" font-size="10.00">Small/Graphics/Node.hpp</text>
</a>
</g>
</g>
<!-- Node3&#45;&gt;Node9 -->
<g id="edge9" class="edge">
<title>Node3&#45;&gt;Node9</title>
<path fill="none" stroke="midnightblue" d="M638.04,-168.44C609.82,-159.32 564.96,-144.81 533.53,-134.65"/>
<polygon fill="midnightblue" stroke="midnightblue" points="534.43,-131.26 523.84,-131.52 532.28,-137.92 534.43,-131.26"/>
</g>
<!-- Node15 -->
<g id="node15" class="node">
<title>Node15</title>
<g id="a_node15"><a xlink:href="../../dc/d6f/RessourceManager_8hpp.html" target="_top" xlink:title=" ">
<polygon fill="white" stroke="black" points="579.5,-112.5 579.5,-131.5 749.5,-131.5 749.5,-112.5 579.5,-112.5"/>
<text text-anchor="middle" x="664.5" y="-119.5" font-family="Helvetica,sans-Serif" font-size="10.00">Small/Core/RessourceManager.hpp</text>
</a>
</g>
</g>
<!-- Node3&#45;&gt;Node15 -->
<g id="edge15" class="edge">
<title>Node3&#45;&gt;Node15</title>
<path fill="none" stroke="midnightblue" d="M664.5,-168.08C664.5,-161.01 664.5,-150.86 664.5,-141.99"/>
<polygon fill="midnightblue" stroke="midnightblue" points="668,-141.75 664.5,-131.75 661,-141.75 668,-141.75"/>
</g>
<!-- Node20 -->
<g id="node20" class="node">
<title>Node20</title>
<g id="a_node20"><a xlink:title=" ">
<polygon fill="white" stroke="#bfbfbf" points="1034,-112.5 1034,-131.5 1091,-131.5 1091,-112.5 1034,-112.5"/>
<text text-anchor="middle" x="1062.5" y="-119.5" font-family="Helvetica,sans-Serif" font-size="10.00">Scene.inl</text>
</a>
</g>
</g>
<!-- Node3&#45;&gt;Node20 -->
<g id="edge25" class="edge">
<title>Node3&#45;&gt;Node20</title>
<path fill="none" stroke="midnightblue" d="M721.73,-169.15C724.7,-168.76 727.63,-168.37 730.5,-168 857.87,-151.52 893.21,-155.02 1023.94,-131.91"/>
<polygon fill="midnightblue" stroke="midnightblue" points="1024.71,-135.33 1033.94,-130.12 1023.48,-128.44 1024.71,-135.33"/>
</g>
<!-- Node8&#45;&gt;Node4 -->
<g id="edge8" class="edge">
<title>Node8&#45;&gt;Node4</title>
<path fill="none" stroke="midnightblue" d="M283.72,-119.59C203.73,-116.53 74.96,-106.81 39.5,-76 26.34,-64.57 22.05,-44.59 20.77,-29.79"/>
<polygon fill="midnightblue" stroke="midnightblue" points="24.26,-29.52 20.28,-19.71 17.27,-29.86 24.26,-29.52"/>
</g>
<!-- Node10 -->
<g id="node10" class="node">
<title>Node10</title>
<g id="a_node10"><a xlink:title=" ">
<polygon fill="white" stroke="#bfbfbf" points="48.5,-56.5 48.5,-75.5 212.5,-75.5 212.5,-56.5 48.5,-56.5"/>
<text text-anchor="middle" x="130.5" y="-63.5" font-family="Helvetica,sans-Serif" font-size="10.00">SFML/Graphics/RenderTarget.hpp</text>
</a>
</g>
</g>
<!-- Node9&#45;&gt;Node10 -->
<g id="edge10" class="edge">
<title>Node9&#45;&gt;Node10</title>
<path fill="none" stroke="midnightblue" d="M439.35,-112.44C373.85,-102.81 267.54,-87.16 198.31,-76.98"/>
<polygon fill="midnightblue" stroke="midnightblue" points="198.78,-73.51 188.38,-75.52 197.76,-80.43 198.78,-73.51"/>
</g>
<!-- Node11 -->
<g id="node11" class="node">
<title>Node11</title>
<g id="a_node11"><a xlink:title=" ">
<polygon fill="white" stroke="#bfbfbf" points="231,-56.5 231,-75.5 380,-75.5 380,-56.5 231,-56.5"/>
<text text-anchor="middle" x="305.5" y="-63.5" font-family="Helvetica,sans-Serif" font-size="10.00">SFML/Graphics/Transform.hpp</text>
</a>
</g>
</g>
<!-- Node9&#45;&gt;Node11 -->
<g id="edge11" class="edge">
<title>Node9&#45;&gt;Node11</title>
<path fill="none" stroke="midnightblue" d="M467.08,-112.44C434.22,-103.2 381.72,-88.44 345.53,-78.26"/>
<polygon fill="midnightblue" stroke="midnightblue" points="346.35,-74.85 335.78,-75.52 344.46,-81.59 346.35,-74.85"/>
</g>
<!-- Node12 -->
<g id="node12" class="node">
<title>Node12</title>
<g id="a_node12"><a xlink:title=" ">
<polygon fill="white" stroke="#bfbfbf" points="398,-56.5 398,-75.5 533,-75.5 533,-56.5 398,-56.5"/>
<text text-anchor="middle" x="465.5" y="-63.5" font-family="Helvetica,sans-Serif" font-size="10.00">SFML/System/Vector2.hpp</text>
</a>
</g>
</g>
<!-- Node9&#45;&gt;Node12 -->
<g id="edge12" class="edge">
<title>Node9&#45;&gt;Node12</title>
<path fill="none" stroke="midnightblue" d="M492.22,-112.08C487.79,-104.61 481.34,-93.72 475.88,-84.52"/>
<polygon fill="midnightblue" stroke="midnightblue" points="478.79,-82.57 470.69,-75.75 472.77,-86.14 478.79,-82.57"/>
</g>
<!-- Node13 -->
<g id="node13" class="node">
<title>Node13</title>
<g id="a_node13"><a xlink:title=" ">
<polygon fill="white" stroke="#bfbfbf" points="551.5,-56.5 551.5,-75.5 593.5,-75.5 593.5,-56.5 551.5,-56.5"/>
<text text-anchor="middle" x="572.5" y="-63.5" font-family="Helvetica,sans-Serif" font-size="10.00">vector</text>
</a>
</g>
</g>
<!-- Node9&#45;&gt;Node13 -->
<g id="edge13" class="edge">
<title>Node9&#45;&gt;Node13</title>
<path fill="none" stroke="midnightblue" d="M509.55,-112.32C520.96,-104.11 538.33,-91.6 551.93,-81.81"/>
<polygon fill="midnightblue" stroke="midnightblue" points="554.16,-84.52 560.23,-75.83 550.07,-78.84 554.16,-84.52"/>
</g>
<!-- Node14 -->
<g id="node14" class="node">
<title>Node14</title>
<g id="a_node14"><a xlink:title=" ">
<polygon fill="white" stroke="#bfbfbf" points="611.5,-56.5 611.5,-75.5 663.5,-75.5 663.5,-56.5 611.5,-56.5"/>
<text text-anchor="middle" x="637.5" y="-63.5" font-family="Helvetica,sans-Serif" font-size="10.00">memory</text>
</a>
</g>
</g>
<!-- Node9&#45;&gt;Node14 -->
<g id="edge14" class="edge">
<title>Node9&#45;&gt;Node14</title>
<path fill="none" stroke="midnightblue" d="M519.68,-112.44C542.93,-103.48 579.65,-89.31 605.92,-79.18"/>
<polygon fill="midnightblue" stroke="midnightblue" points="607.35,-82.38 615.42,-75.52 604.83,-75.85 607.35,-82.38"/>
</g>
<!-- Node15&#45;&gt;Node4 -->
<g id="edge16" class="edge">
<title>Node15&#45;&gt;Node4</title>
<path fill="none" stroke="midnightblue" d="M669.43,-112.1C676.4,-98.18 686.77,-71.29 672.5,-56 629.76,-10.21 175.58,-9.93 51.61,-10.72"/>
<polygon fill="midnightblue" stroke="midnightblue" points="51.28,-7.22 41.31,-10.79 51.33,-14.22 51.28,-7.22"/>
</g>
<!-- Node15&#45;&gt;Node14 -->
<g id="edge17" class="edge">
<title>Node15&#45;&gt;Node14</title>
<path fill="none" stroke="midnightblue" d="M660.04,-112.08C656.35,-104.69 650.98,-93.95 646.41,-84.81"/>
<polygon fill="midnightblue" stroke="midnightblue" points="649.48,-83.13 641.88,-75.75 643.22,-86.26 649.48,-83.13"/>
</g>
<!-- Node16 -->
<g id="node16" class="node">
<title>Node16</title>
<g id="a_node16"><a xlink:title=" ">
<polygon fill="white" stroke="#bfbfbf" points="871,-56.5 871,-75.5 954,-75.5 954,-56.5 871,-56.5"/>
<text text-anchor="middle" x="912.5" y="-63.5" font-family="Helvetica,sans-Serif" font-size="10.00">unordered_map</text>
</a>
</g>
</g>
<!-- Node15&#45;&gt;Node16 -->
<g id="edge18" class="edge">
<title>Node15&#45;&gt;Node16</title>
<path fill="none" stroke="midnightblue" d="M703.8,-112.44C747.06,-103.02 816.67,-87.87 863.47,-77.68"/>
<polygon fill="midnightblue" stroke="midnightblue" points="864.36,-81.06 873.39,-75.52 862.87,-74.22 864.36,-81.06"/>
</g>
<!-- Node17 -->
<g id="node17" class="node">
<title>Node17</title>
<g id="a_node17"><a xlink:title=" ">
<polygon fill="white" stroke="#bfbfbf" points="738,-0.5 738,-19.5 877,-19.5 877,-0.5 738,-0.5"/>
<text text-anchor="middle" x="807.5" y="-7.5" font-family="Helvetica,sans-Serif" font-size="10.00">SFML/Graphics/Texture.hpp</text>
</a>
</g>
</g>
<!-- Node15&#45;&gt;Node17 -->
<g id="edge19" class="edge">
<title>Node15&#45;&gt;Node17</title>
<path fill="none" stroke="midnightblue" d="M736.58,-112.49C822.39,-102.01 955.14,-84.55 962.5,-76 989.71,-44.37 938.18,-27.8 887.38,-19.33"/>
<polygon fill="midnightblue" stroke="midnightblue" points="887.67,-15.83 877.25,-17.74 886.59,-22.75 887.67,-15.83"/>
</g>
<!-- Node18 -->
<g id="node18" class="node">
<title>Node18</title>
<g id="a_node18"><a xlink:title=" ">
<polygon fill="white" stroke="#bfbfbf" points="936.5,-0.5 936.5,-19.5 1062.5,-19.5 1062.5,-0.5 936.5,-0.5"/>
<text text-anchor="middle" x="999.5" y="-7.5" font-family="Helvetica,sans-Serif" font-size="10.00">SFML/Graphics/Font.hpp</text>
</a>
</g>
</g>
<!-- Node15&#45;&gt;Node18 -->
<g id="edge20" class="edge">
<title>Node15&#45;&gt;Node18</title>
<path fill="none" stroke="midnightblue" d="M738.58,-112.49C829.09,-101.79 971.4,-83.88 980.5,-76 993.67,-64.59 997.96,-44.6 999.24,-29.8"/>
<polygon fill="midnightblue" stroke="midnightblue" points="1002.74,-29.87 999.72,-19.71 995.74,-29.53 1002.74,-29.87"/>
</g>
<!-- Node19 -->
<g id="node19" class="node">
<title>Node19</title>
<g id="a_node19"><a xlink:href="../../db/d73/Ressource_8hpp.html" target="_top" xlink:title=" ">
<polygon fill="white" stroke="black" points="720,-56.5 720,-75.5 853,-75.5 853,-56.5 720,-56.5"/>
<text text-anchor="middle" x="786.5" y="-63.5" font-family="Helvetica,sans-Serif" font-size="10.00">Small/Core/Ressource.hpp</text>
</a>
</g>
</g>
<!-- Node15&#45;&gt;Node19 -->
<g id="edge21" class="edge">
<title>Node15&#45;&gt;Node19</title>
<path fill="none" stroke="midnightblue" d="M683.83,-112.44C703.82,-103.6 735.24,-89.69 758.06,-79.59"/>
<polygon fill="midnightblue" stroke="midnightblue" points="759.53,-82.76 767.26,-75.52 756.7,-76.36 759.53,-82.76"/>
</g>
<!-- Node19&#45;&gt;Node4 -->
<g id="edge22" class="edge">
<title>Node19&#45;&gt;Node4</title>
<path fill="none" stroke="midnightblue" d="M719.78,-57.35C714.95,-56.87 710.15,-56.41 705.5,-56 453.44,-33.73 148.31,-17.45 51.51,-12.54"/>
<polygon fill="midnightblue" stroke="midnightblue" points="51.43,-9.03 41.26,-12.02 51.07,-16.02 51.43,-9.03"/>
</g>
<!-- Node19&#45;&gt;Node17 -->
<g id="edge23" class="edge">
<title>Node19&#45;&gt;Node17</title>
<path fill="none" stroke="midnightblue" d="M789.97,-56.08C792.81,-48.77 796.93,-38.18 800.46,-29.1"/>
<polygon fill="midnightblue" stroke="midnightblue" points="803.73,-30.34 804.1,-19.75 797.21,-27.8 803.73,-30.34"/>
</g>
<!-- Node19&#45;&gt;Node18 -->
<g id="edge24" class="edge">
<title>Node19&#45;&gt;Node18</title>
<path fill="none" stroke="midnightblue" d="M820.25,-56.44C857.02,-47.12 915.95,-32.18 956.12,-22"/>
<polygon fill="midnightblue" stroke="midnightblue" points="957.07,-25.37 965.91,-19.52 955.35,-18.58 957.07,-25.37"/>
</g>
<!-- Node23 -->
<g id="node23" class="node">
<title>Node23</title>
<g id="a_node23"><a xlink:title=" ">
<polygon fill="white" stroke="#bfbfbf" points="1135,-168.5 1135,-187.5 1230,-187.5 1230,-168.5 1135,-168.5"/>
<text text-anchor="middle" x="1182.5" y="-175.5" font-family="Helvetica,sans-Serif" font-size="10.00">Ark/VM/State.hpp</text>
</a>
</g>
</g>
<!-- Node22&#45;&gt;Node23 -->
<g id="edge30" class="edge">
<title>Node22&#45;&gt;Node23</title>
<path fill="none" stroke="midnightblue" d="M1143.26,-224.08C1150.04,-216.3 1160.04,-204.8 1168.26,-195.37"/>
<polygon fill="midnightblue" stroke="midnightblue" points="1170.96,-197.59 1174.88,-187.75 1165.68,-193 1170.96,-197.59"/>
</g>
<!-- Node24&#45;&gt;Node7 -->
<g id="edge33" class="edge">
<title>Node24&#45;&gt;Node7</title>
<path fill="none" stroke="midnightblue" d="M871.22,-224.45C859.21,-211.03 839.91,-184.8 854.5,-168 858.51,-163.38 1006.35,-143.96 1099.01,-132.2"/>
<polygon fill="midnightblue" stroke="midnightblue" points="1099.71,-135.64 1109.19,-130.91 1098.83,-128.69 1099.71,-135.64"/>
</g>
<!-- Node24&#45;&gt;Node21 -->
<g id="edge32" class="edge">
<title>Node24&#45;&gt;Node21</title>
<path fill="none" stroke="midnightblue" d="M862.47,-224.32C845.47,-215.66 819.12,-202.24 799.51,-192.25"/>
<polygon fill="midnightblue" stroke="midnightblue" points="800.99,-189.08 790.49,-187.65 797.81,-195.31 800.99,-189.08"/>
</g>
<!-- Node25 -->
<g id="node25" class="node">
<title>Node25</title>
<g id="a_node25"><a xlink:title=" ">
<polygon fill="white" stroke="#bfbfbf" points="863.5,-168.5 863.5,-187.5 985.5,-187.5 985.5,-168.5 863.5,-168.5"/>
<text text-anchor="middle" x="924.5" y="-175.5" font-family="Helvetica,sans-Serif" font-size="10.00">SFML/System/Time.hpp</text>
</a>
</g>
</g>
<!-- Node24&#45;&gt;Node25 -->
<g id="edge34" class="edge">
<title>Node24&#45;&gt;Node25</title>
<path fill="none" stroke="midnightblue" d="M886.93,-224.08C893.35,-216.38 902.81,-205.03 910.62,-195.65"/>
<polygon fill="midnightblue" stroke="midnightblue" points="913.49,-197.67 917.21,-187.75 908.12,-193.19 913.49,-197.67"/>
</g>
<!-- Node26 -->
<g id="node26" class="node">
<title>Node26</title>
<g id="a_node26"><a xlink:title=" ">
<polygon fill="white" stroke="#bfbfbf" points="1004,-168.5 1004,-187.5 1117,-187.5 1117,-168.5 1004,-168.5"/>
<text text-anchor="middle" x="1060.5" y="-175.5" font-family="Helvetica,sans-Serif" font-size="10.00">SFML/System/Utf.hpp</text>
</a>
</g>
</g>
<!-- Node24&#45;&gt;Node26 -->
<g id="edge35" class="edge">
<title>Node24&#45;&gt;Node26</title>
<path fill="none" stroke="midnightblue" d="M908.18,-224.44C939.03,-215.24 988.23,-200.56 1022.33,-190.39"/>
<polygon fill="midnightblue" stroke="midnightblue" points="1023.37,-193.73 1031.95,-187.52 1021.37,-187.02 1023.37,-193.73"/>
</g>
</g>
</svg>
        <g id="navigator" transform="translate(0 0)" fill="#404254">
                <rect fill="#f2f5e9" fill-opacity="0.5" stroke="#606060" stroke-width=".5" x="0" y="0" width="60" height="60"/>
                <use id="zoomplus" xlink:href="#zoomPlus" x="17" y="9" onmousedown="handleZoom(evt,'in')"/>
                <use id="zoomminus" xlink:href="#zoomMin" x="42" y="9" onmousedown="handleZoom(evt,'out')"/>
                <use id="reset" xlink:href="#resetDef" x="30" y="36" onmousedown="handleReset()"/>
                <g id="arrowUp" xlink:href="#dirArrow" transform="translate(30 24)" onmousedown="handlePan(0,-1)">
                  <use xlink:href="#rim" fill="#404040">
                        <set attributeName="fill" to="#808080" begin="arrowUp.mouseover" end="arrowUp.mouseout"/>
                  </use>
                  <path fill="none" stroke="white" stroke-width="1.5" d="M0,-3.0v7 M-2.5,-0.5L0,-3.0L2.5,-0.5"/>
                </g>
                <g id="arrowRight" xlink:href="#dirArrow" transform="rotate(90) translate(36 -43)" onmousedown="handlePan(1,0)">
                  <use xlink:href="#rim" fill="#404040">
                        <set attributeName="fill" to="#808080" begin="arrowRight.mouseover" end="arrowRight.mouseout"/>
                  </use>
                  <path fill="none" stroke="white" stroke-width="1.5" d="M0,-3.0v7 M-2.5,-0.5L0,-3.0L2.5,-0.5"/>
                </g>
                <g id="arrowDown" xlink:href="#dirArrow" transform="rotate(180) translate(-30 -48)" onmousedown="handlePan(0,1)">
                  <use xlink:href="#rim" fill="#404040">
                        <set attributeName="fill" to="#808080" begin="arrowDown.mouseover" end="arrowDown.mouseout"/>
                  </use>
                  <path fill="none" stroke="white" stroke-width="1.5" d="M0,-3.0v7 M-2.5,-0.5L0,-3.0L2.5,-0.5"/>
                </g>
                <g id="arrowLeft" xlink:href="#dirArrow" transform="rotate(270) translate(-36 17)" onmousedown="handlePan(-1,0)">
                  <use xlink:href="#rim" fill="#404040">
                        <set attributeName="fill" to="#808080" begin="arrowLeft.mouseover" end="arrowLeft.mouseout"/>
                  </use>
                  <path fill="none" stroke="white" stroke-width="1.5" d="M0,-3.0v7 M-2.5,-0.5L0,-3.0L2.5,-0.5"/>
                </g>
        </g>
        <svg viewBox="0 0 15 15" width="100%" height="30px" preserveAspectRatio="xMaxYMin meet">
         <g id="arrow_out" transform="scale(0.3 0.3)">
          <a xlink:href="ArkScene_8cpp__incl_org.svg" target="_base">
           <rect id="button" ry="5" rx="5" y="6" x="6" height="38" width="38"
                fill="#f2f5e9" fill-opacity="0.5" stroke="#606060" stroke-width="1.0"/>
           <path id="arrow"
             d="M 11.500037,31.436501 C 11.940474,20.09759 22.043105,11.32322 32.158766,21.979434 L 37.068811,17.246167 C 37.068811,17.246167 37.088388,32 37.088388,32 L 22.160133,31.978069 C 22.160133,31.978069 26.997745,27.140456 26.997745,27.140456 C 18.528582,18.264221 13.291696,25.230495 11.500037,31.436501 z"
             style="fill:#404040;"/>
          </a>
         </g>
        </svg>
</svg>
