<?xml version="1.0" encoding="UTF-8" standalone="no"?>
<!DOCTYPE svg PUBLIC "-//W3C//DTD SVG 1.1//EN"
 "http://www.w3.org/Graphics/SVG/1.1/DTD/svg11.dtd">
<!-- Generated by graphviz version 2.38.0 (20140413.2041)
 -->
<!-- Title: sgl::GameObjects::UpdateTrigger Pages: 1 -->
<svg width="140pt" height="231pt"
 viewBox="0.00 0.00 140.00 231.00" xmlns="http://www.w3.org/2000/svg" xmlns:xlink="http://www.w3.org/1999/xlink">
<g id="graph0" class="graph" transform="scale(1 1) rotate(0) translate(4 227)">
<title>sgl::GameObjects::UpdateTrigger</title>
<polygon fill="white" stroke="none" points="-4,4 -4,-227 136,-227 136,4 -4,4"/>
<!-- Node1 -->
<g id="node1" class="node"><title>Node1</title>
<polygon fill="#bfbfbf" stroke="black" points="0,-0.5 0,-30.5 132,-30.5 132,-0.5 0,-0.5"/>
<text text-anchor="start" x="8" y="-18.5" font-family="Helvetica,sans-Serif" font-size="10.00">sgl::GameObjects::Update</text>
<text text-anchor="middle" x="66" y="-7.5" font-family="Helvetica,sans-Serif" font-size="10.00">Trigger</text>
</g>
<!-- Node2 -->
<g id="node2" class="node"><title>Node2</title>
<g id="a_node2"><a xlink:href="../../d9/d1c/classsgl_1_1GameObjects_1_1Trigger.html" target="_top" xlink:title="A base trigger class to implement your own type of triggers. ">
<polygon fill="white" stroke="black" points="0.5,-68.5 0.5,-87.5 131.5,-87.5 131.5,-68.5 0.5,-68.5"/>
<text text-anchor="middle" x="66" y="-75.5" font-family="Helvetica,sans-Serif" font-size="10.00">sgl::GameObjects::Trigger</text>
</a>
</g>
</g>
<!-- Node2&#45;&gt;Node1 -->
<g id="edge1" class="edge"><title>Node2&#45;&gt;Node1</title>
<path fill="none" stroke="midnightblue" d="M66,-58.2154C66,-49.3565 66,-38.9577 66,-30.7587"/>
<polygon fill="midnightblue" stroke="midnightblue" points="62.5001,-58.3318 66,-68.3318 69.5001,-58.3319 62.5001,-58.3318"/>
</g>
<!-- Node3 -->
<g id="node3" class="node"><title>Node3</title>
<g id="a_node3"><a xlink:title="STL class. ">
<polygon fill="white" stroke="#bfbfbf" points="36,-135.5 36,-154.5 96,-154.5 96,-135.5 36,-135.5"/>
<text text-anchor="middle" x="66" y="-142.5" font-family="Helvetica,sans-Serif" font-size="10.00">std::string</text>
</a>
</g>
</g>
<!-- Node3&#45;&gt;Node2 -->
<g id="edge2" class="edge"><title>Node3&#45;&gt;Node2</title>
<path fill="none" stroke="#9a32cd" stroke-dasharray="5,2" d="M66,-125.037C66,-112.67 66,-97.1198 66,-87.6273"/>
<polygon fill="#9a32cd" stroke="#9a32cd" points="62.5001,-125.234 66,-135.234 69.5001,-125.234 62.5001,-125.234"/>
<text text-anchor="middle" x="98.5" y="-109" font-family="Helvetica,sans-Serif" font-size="10.00"> m_triggerType</text>
</g>
<!-- Node4 -->
<g id="node4" class="node"><title>Node4</title>
<g id="a_node4"><a xlink:title="STL class. ">
<polygon fill="white" stroke="#bfbfbf" points="18.5,-192.5 18.5,-222.5 113.5,-222.5 113.5,-192.5 18.5,-192.5"/>
<text text-anchor="start" x="26.5" y="-210.5" font-family="Helvetica,sans-Serif" font-size="10.00">std::basic_string&lt;</text>
<text text-anchor="middle" x="66" y="-199.5" font-family="Helvetica,sans-Serif" font-size="10.00"> char &gt;</text>
</a>
</g>
</g>
<!-- Node4&#45;&gt;Node3 -->
<g id="edge3" class="edge"><title>Node4&#45;&gt;Node3</title>
<path fill="none" stroke="midnightblue" d="M66,-182.352C66,-172.513 66,-161.775 66,-154.54"/>
<polygon fill="midnightblue" stroke="midnightblue" points="62.5001,-182.468 66,-192.468 69.5001,-182.468 62.5001,-182.468"/>
</g>
</g>
</svg>
