<?xml version="1.0" encoding="UTF-8" standalone="no"?>
<!DOCTYPE svg PUBLIC "-//W3C//DTD SVG 1.1//EN"
 "http://www.w3.org/Graphics/SVG/1.1/DTD/svg11.dtd">
<!-- Generated by graphviz version 2.49.0 (20210828.1703)
 -->
<!-- Title: C:/Users/folae/Documents/Code/Big&#45;Projects/ScriptWizards/SmallGameLibrary/source/Graphics/Sprite.cpp Pages: 1 -->
<svg width="1029pt" height="229pt"
 viewBox="0.00 0.00 1029.00 229.00" xmlns="http://www.w3.org/2000/svg" xmlns:xlink="http://www.w3.org/1999/xlink">
<g id="graph0" class="graph" transform="scale(1 1) rotate(0) translate(4 225)">
<title>C:/Users/folae/Documents/Code/Big&#45;Projects/ScriptWizards/SmallGameLibrary/source/Graphics/Sprite.cpp</title>
<polygon fill="white" stroke="transparent" points="-4,4 -4,-225 1025,-225 1025,4 -4,4"/>
<!-- Node1 -->
<g id="node1" class="node">
<title>Node1</title>
<g id="a_node1"><a xlink:title=" ">
<polygon fill="#bfbfbf" stroke="black" points="650.5,-168.5 650.5,-220.5 824.5,-220.5 824.5,-168.5 650.5,-168.5"/>
<text text-anchor="start" x="658.5" y="-208.5" font-family="Helvetica,sans-Serif" font-size="10.00">C:/Users/folae/Documents</text>
<text text-anchor="start" x="658.5" y="-197.5" font-family="Helvetica,sans-Serif" font-size="10.00">/Code/Big&#45;Projects/ScriptWizards</text>
<text text-anchor="start" x="658.5" y="-186.5" font-family="Helvetica,sans-Serif" font-size="10.00">/SmallGameLibrary/source/Graphics</text>
<text text-anchor="middle" x="737.5" y="-175.5" font-family="Helvetica,sans-Serif" font-size="10.00">/Sprite.cpp</text>
</a>
</g>
</g>
<!-- Node2 -->
<g id="node2" class="node">
<title>Node2</title>
<g id="a_node2"><a xlink:href="../../da/da5/Sprite_8hpp.html" target="_top" xlink:title=" ">
<polygon fill="white" stroke="black" points="495,-112.5 495,-131.5 626,-131.5 626,-112.5 495,-112.5"/>
<text text-anchor="middle" x="560.5" y="-119.5" font-family="Helvetica,sans-Serif" font-size="10.00">Small/Graphics/Sprite.hpp</text>
</a>
</g>
</g>
<!-- Node1&#45;&gt;Node2 -->
<g id="edge1" class="edge">
<title>Node1&#45;&gt;Node2</title>
<path fill="none" stroke="midnightblue" d="M674.6,-168.45C646.38,-157.21 614.36,-144.45 591.44,-135.33"/>
<polygon fill="midnightblue" stroke="midnightblue" points="592.49,-131.98 581.91,-131.53 589.9,-138.48 592.49,-131.98"/>
</g>
<!-- Node14 -->
<g id="node14" class="node">
<title>Node14</title>
<g id="a_node14"><a xlink:title=" ">
<polygon fill="white" stroke="#bfbfbf" points="882,-0.5 882,-19.5 1021,-19.5 1021,-0.5 882,-0.5"/>
<text text-anchor="middle" x="951.5" y="-7.5" font-family="Helvetica,sans-Serif" font-size="10.00">SFML/Graphics/Texture.hpp</text>
</a>
</g>
</g>
<!-- Node1&#45;&gt;Node14 -->
<g id="edge17" class="edge">
<title>Node1&#45;&gt;Node14</title>
<path fill="none" stroke="midnightblue" d="M793.42,-168.48C833.37,-148.27 886.11,-116.55 921.5,-76 933.23,-62.55 941.24,-43.74 946.02,-29.81"/>
<polygon fill="midnightblue" stroke="midnightblue" points="949.48,-30.47 949.16,-19.88 942.8,-28.36 949.48,-30.47"/>
</g>
<!-- Node3 -->
<g id="node3" class="node">
<title>Node3</title>
<g id="a_node3"><a xlink:title=" ">
<polygon fill="white" stroke="#bfbfbf" points="561.5,-56.5 561.5,-75.5 611.5,-75.5 611.5,-56.5 561.5,-56.5"/>
<text text-anchor="middle" x="586.5" y="-63.5" font-family="Helvetica,sans-Serif" font-size="10.00">optional</text>
</a>
</g>
</g>
<!-- Node2&#45;&gt;Node3 -->
<g id="edge2" class="edge">
<title>Node2&#45;&gt;Node3</title>
<path fill="none" stroke="midnightblue" d="M564.79,-112.08C568.35,-104.69 573.52,-93.95 577.92,-84.81"/>
<polygon fill="midnightblue" stroke="midnightblue" points="581.1,-86.28 582.29,-75.75 574.79,-83.24 581.1,-86.28"/>
</g>
<!-- Node4 -->
<g id="node4" class="node">
<title>Node4</title>
<g id="a_node4"><a xlink:title=" ">
<polygon fill="white" stroke="#bfbfbf" points="629.5,-56.5 629.5,-75.5 761.5,-75.5 761.5,-56.5 629.5,-56.5"/>
<text text-anchor="middle" x="695.5" y="-63.5" font-family="Helvetica,sans-Serif" font-size="10.00">SFML/Graphics/Sprite.hpp</text>
</a>
</g>
</g>
<!-- Node2&#45;&gt;Node4 -->
<g id="edge3" class="edge">
<title>Node2&#45;&gt;Node4</title>
<path fill="none" stroke="midnightblue" d="M581.89,-112.44C604.21,-103.52 639.4,-89.44 664.71,-79.32"/>
<polygon fill="midnightblue" stroke="midnightblue" points="666.22,-82.48 674.21,-75.52 663.62,-75.98 666.22,-82.48"/>
</g>
<!-- Node5 -->
<g id="node5" class="node">
<title>Node5</title>
<g id="a_node5"><a xlink:title=" ">
<polygon fill="white" stroke="#bfbfbf" points="451.5,-0.5 451.5,-19.5 615.5,-19.5 615.5,-0.5 451.5,-0.5"/>
<text text-anchor="middle" x="533.5" y="-7.5" font-family="Helvetica,sans-Serif" font-size="10.00">SFML/Graphics/RenderTarget.hpp</text>
</a>
</g>
</g>
<!-- Node2&#45;&gt;Node5 -->
<g id="edge4" class="edge">
<title>Node2&#45;&gt;Node5</title>
<path fill="none" stroke="midnightblue" d="M558.38,-112.37C554.02,-94.62 543.97,-53.67 538.06,-29.6"/>
<polygon fill="midnightblue" stroke="midnightblue" points="541.39,-28.47 535.61,-19.59 534.59,-30.14 541.39,-28.47"/>
</g>
<!-- Node6 -->
<g id="node6" class="node">
<title>Node6</title>
<g id="a_node6"><a xlink:title=" ">
<polygon fill="white" stroke="#bfbfbf" points="0,-0.5 0,-19.5 149,-19.5 149,-0.5 0,-0.5"/>
<text text-anchor="middle" x="74.5" y="-7.5" font-family="Helvetica,sans-Serif" font-size="10.00">SFML/Graphics/Transform.hpp</text>
</a>
</g>
</g>
<!-- Node2&#45;&gt;Node6 -->
<g id="edge5" class="edge">
<title>Node2&#45;&gt;Node6</title>
<path fill="none" stroke="midnightblue" d="M494.92,-117.74C426.01,-113.05 314.99,-101.91 222.5,-76 177.1,-63.28 127.55,-39.26 98.84,-24.25"/>
<polygon fill="midnightblue" stroke="midnightblue" points="100.42,-21.13 89.95,-19.54 97.14,-27.31 100.42,-21.13"/>
</g>
<!-- Node7 -->
<g id="node7" class="node">
<title>Node7</title>
<g id="a_node7"><a xlink:title=" ">
<polygon fill="white" stroke="#bfbfbf" points="378,-56.5 378,-75.5 505,-75.5 505,-56.5 378,-56.5"/>
<text text-anchor="middle" x="441.5" y="-63.5" font-family="Helvetica,sans-Serif" font-size="10.00">SFML/Graphics/Rect.hpp</text>
</a>
</g>
</g>
<!-- Node2&#45;&gt;Node7 -->
<g id="edge6" class="edge">
<title>Node2&#45;&gt;Node7</title>
<path fill="none" stroke="midnightblue" d="M541.64,-112.44C522.23,-103.64 491.77,-89.81 469.54,-79.72"/>
<polygon fill="midnightblue" stroke="midnightblue" points="470.82,-76.46 460.27,-75.52 467.93,-82.84 470.82,-76.46"/>
</g>
<!-- Node8 -->
<g id="node8" class="node">
<title>Node8</title>
<g id="a_node8"><a xlink:href="../../d7/dc6/Node_8hpp.html" target="_top" xlink:title="A scene graph node.">
<polygon fill="white" stroke="black" points="231.5,-56.5 231.5,-75.5 359.5,-75.5 359.5,-56.5 231.5,-56.5"/>
<text text-anchor="middle" x="295.5" y="-63.5" font-family="Helvetica,sans-Serif" font-size="10.00">Small/Graphics/Node.hpp</text>
</a>
</g>
</g>
<!-- Node2&#45;&gt;Node8 -->
<g id="edge7" class="edge">
<title>Node2&#45;&gt;Node8</title>
<path fill="none" stroke="midnightblue" d="M518.51,-112.44C472.09,-102.98 397.27,-87.74 347.26,-77.55"/>
<polygon fill="midnightblue" stroke="midnightblue" points="347.79,-74.08 337.29,-75.52 346.39,-80.94 347.79,-74.08"/>
</g>
<!-- Node12 -->
<g id="node12" class="node">
<title>Node12</title>
<g id="a_node12"><a xlink:href="../../db/d73/Ressource_8hpp.html" target="_top" xlink:title=" ">
<polygon fill="white" stroke="black" points="780,-56.5 780,-75.5 913,-75.5 913,-56.5 780,-56.5"/>
<text text-anchor="middle" x="846.5" y="-63.5" font-family="Helvetica,sans-Serif" font-size="10.00">Small/Core/Ressource.hpp</text>
</a>
</g>
</g>
<!-- Node2&#45;&gt;Node12 -->
<g id="edge13" class="edge">
<title>Node2&#45;&gt;Node12</title>
<path fill="none" stroke="midnightblue" d="M605.82,-112.44C656.13,-102.94 737.34,-87.61 791.31,-77.42"/>
<polygon fill="midnightblue" stroke="midnightblue" points="792.22,-80.81 801.39,-75.52 790.92,-73.93 792.22,-80.81"/>
</g>
<!-- Node8&#45;&gt;Node5 -->
<g id="edge8" class="edge">
<title>Node8&#45;&gt;Node5</title>
<path fill="none" stroke="midnightblue" d="M333.21,-56.44C374.64,-47.04 441.26,-31.93 486.17,-21.74"/>
<polygon fill="midnightblue" stroke="midnightblue" points="486.99,-25.14 495.96,-19.52 485.44,-18.32 486.99,-25.14"/>
</g>
<!-- Node8&#45;&gt;Node6 -->
<g id="edge9" class="edge">
<title>Node8&#45;&gt;Node6</title>
<path fill="none" stroke="midnightblue" d="M260.48,-56.44C222.25,-47.1 160.93,-32.12 119.24,-21.93"/>
<polygon fill="midnightblue" stroke="midnightblue" points="119.9,-18.49 109.35,-19.52 118.24,-25.29 119.9,-18.49"/>
</g>
<!-- Node9 -->
<g id="node9" class="node">
<title>Node9</title>
<g id="a_node9"><a xlink:title=" ">
<polygon fill="white" stroke="#bfbfbf" points="238,-0.5 238,-19.5 373,-19.5 373,-0.5 238,-0.5"/>
<text text-anchor="middle" x="305.5" y="-7.5" font-family="Helvetica,sans-Serif" font-size="10.00">SFML/System/Vector2.hpp</text>
</a>
</g>
</g>
<!-- Node8&#45;&gt;Node9 -->
<g id="edge10" class="edge">
<title>Node8&#45;&gt;Node9</title>
<path fill="none" stroke="midnightblue" d="M297.15,-56.08C298.48,-48.93 300.38,-38.64 302.04,-29.69"/>
<polygon fill="midnightblue" stroke="midnightblue" points="305.5,-30.22 303.88,-19.75 298.62,-28.95 305.5,-30.22"/>
</g>
<!-- Node10 -->
<g id="node10" class="node">
<title>Node10</title>
<g id="a_node10"><a xlink:title=" ">
<polygon fill="white" stroke="#bfbfbf" points="391.5,-0.5 391.5,-19.5 433.5,-19.5 433.5,-0.5 391.5,-0.5"/>
<text text-anchor="middle" x="412.5" y="-7.5" font-family="Helvetica,sans-Serif" font-size="10.00">vector</text>
</a>
</g>
</g>
<!-- Node8&#45;&gt;Node10 -->
<g id="edge11" class="edge">
<title>Node8&#45;&gt;Node10</title>
<path fill="none" stroke="midnightblue" d="M314.04,-56.44C333.12,-47.64 363.07,-33.81 384.94,-23.72"/>
<polygon fill="midnightblue" stroke="midnightblue" points="386.43,-26.88 394.05,-19.52 383.5,-20.53 386.43,-26.88"/>
</g>
<!-- Node11 -->
<g id="node11" class="node">
<title>Node11</title>
<g id="a_node11"><a xlink:title=" ">
<polygon fill="white" stroke="#bfbfbf" points="167.5,-0.5 167.5,-19.5 219.5,-19.5 219.5,-0.5 167.5,-0.5"/>
<text text-anchor="middle" x="193.5" y="-7.5" font-family="Helvetica,sans-Serif" font-size="10.00">memory</text>
</a>
</g>
</g>
<!-- Node8&#45;&gt;Node11 -->
<g id="edge12" class="edge">
<title>Node8&#45;&gt;Node11</title>
<path fill="none" stroke="midnightblue" d="M279.11,-56.32C262.83,-47.7 237.63,-34.36 218.78,-24.39"/>
<polygon fill="midnightblue" stroke="midnightblue" points="220.32,-21.24 209.85,-19.65 217.05,-27.43 220.32,-21.24"/>
</g>
<!-- Node13 -->
<g id="node13" class="node">
<title>Node13</title>
<g id="a_node13"><a xlink:title=" ">
<polygon fill="white" stroke="#bfbfbf" points="823,-0.5 823,-19.5 864,-19.5 864,-0.5 823,-0.5"/>
<text text-anchor="middle" x="843.5" y="-7.5" font-family="Helvetica,sans-Serif" font-size="10.00">string</text>
</a>
</g>
</g>
<!-- Node12&#45;&gt;Node13 -->
<g id="edge14" class="edge">
<title>Node12&#45;&gt;Node13</title>
<path fill="none" stroke="midnightblue" d="M846,-56.08C845.61,-49.01 845.05,-38.86 844.55,-29.99"/>
<polygon fill="midnightblue" stroke="midnightblue" points="848.04,-29.54 843.99,-19.75 841.05,-29.93 848.04,-29.54"/>
</g>
<!-- Node12&#45;&gt;Node14 -->
<g id="edge15" class="edge">
<title>Node12&#45;&gt;Node14</title>
<path fill="none" stroke="midnightblue" d="M863.37,-56.32C880.21,-47.66 906.31,-34.24 925.74,-24.25"/>
<polygon fill="midnightblue" stroke="midnightblue" points="927.38,-27.34 934.67,-19.65 924.18,-21.12 927.38,-27.34"/>
</g>
<!-- Node15 -->
<g id="node15" class="node">
<title>Node15</title>
<g id="a_node15"><a xlink:title=" ">
<polygon fill="white" stroke="#bfbfbf" points="678.5,-0.5 678.5,-19.5 804.5,-19.5 804.5,-0.5 678.5,-0.5"/>
<text text-anchor="middle" x="741.5" y="-7.5" font-family="Helvetica,sans-Serif" font-size="10.00">SFML/Graphics/Font.hpp</text>
</a>
</g>
</g>
<!-- Node12&#45;&gt;Node15 -->
<g id="edge16" class="edge">
<title>Node12&#45;&gt;Node15</title>
<path fill="none" stroke="midnightblue" d="M829.63,-56.32C812.79,-47.66 786.69,-34.24 767.26,-24.25"/>
<polygon fill="midnightblue" stroke="midnightblue" points="768.82,-21.12 758.33,-19.65 765.62,-27.34 768.82,-21.12"/>
</g>
</g>
</svg>
