<?xml version="1.0" encoding="UTF-8" standalone="no"?>
<!DOCTYPE svg PUBLIC "-//W3C//DTD SVG 1.1//EN"
 "http://www.w3.org/Graphics/SVG/1.1/DTD/svg11.dtd">
<!-- Generated by graphviz version 2.38.0 (20140413.2041)
 -->
<!-- Title: C:/Users/Folaefolc/Documents/Code/Big&#45;Projects/ScriptWizards/SmallGameLibrary/include/Small/Core.hpp Pages: 1 -->
<svg width="1737pt" height="352pt"
 viewBox="0.00 0.00 1737.26 352.00" xmlns="http://www.w3.org/2000/svg" xmlns:xlink="http://www.w3.org/1999/xlink">
<g id="graph0" class="graph" transform="scale(1 1) rotate(0) translate(4 348)">
<title>C:/Users/Folaefolc/Documents/Code/Big&#45;Projects/ScriptWizards/SmallGameLibrary/include/Small/Core.hpp</title>
<polygon fill="white" stroke="none" points="-4,4 -4,-348 1733.26,-348 1733.26,4 -4,4"/>
<!-- Node1 -->
<g id="node1" class="node"><title>Node1</title>
<polygon fill="#bfbfbf" stroke="black" points="1090.76,-280.5 1090.76,-343.5 1224.76,-343.5 1224.76,-280.5 1090.76,-280.5"/>
<text text-anchor="start" x="1098.76" y="-331.5" font-family="Helvetica,sans-Serif" font-size="10.00">C:/Users/Folaefolc</text>
<text text-anchor="start" x="1098.76" y="-320.5" font-family="Helvetica,sans-Serif" font-size="10.00">/Documents/Code/Big</text>
<text text-anchor="start" x="1098.76" y="-309.5" font-family="Helvetica,sans-Serif" font-size="10.00">&#45;Projects/ScriptWizards</text>
<text text-anchor="start" x="1098.76" y="-298.5" font-family="Helvetica,sans-Serif" font-size="10.00">/SmallGameLibrary/include</text>
<text text-anchor="middle" x="1157.76" y="-287.5" font-family="Helvetica,sans-Serif" font-size="10.00">/Small/Core.hpp</text>
</g>
<!-- Node2 -->
<g id="node2" class="node"><title>Node2</title>
<g id="a_node2"><a xlink:href="../../df/d3c/Application_8hpp.html" target="_top" xlink:title="Define the application hosting the scenes for the game. ">
<polygon fill="white" stroke="black" points="727.764,-224.5 727.764,-243.5 861.764,-243.5 861.764,-224.5 727.764,-224.5"/>
<text text-anchor="middle" x="794.764" y="-231.5" font-family="Helvetica,sans-Serif" font-size="10.00">Small/Core/Application.hpp</text>
</a>
</g>
</g>
<!-- Node1&#45;&gt;Node2 -->
<g id="edge1" class="edge"><title>Node1&#45;&gt;Node2</title>
<path fill="none" stroke="midnightblue" d="M1090.76,-296.972C1019.79,-282.112 909.327,-258.986 845.322,-245.585"/>
<polygon fill="midnightblue" stroke="midnightblue" points="845.966,-242.144 835.461,-243.521 844.532,-248.996 845.966,-242.144"/>
</g>
<!-- Node11 -->
<g id="node11" class="node"><title>Node11</title>
<g id="a_node11"><a xlink:href="../../df/d74/SceneManager_8hpp.html" target="_top" xlink:title="Define the scene manager (creating, handling and destroying them) ">
<polygon fill="white" stroke="black" points="1223.76,-168.5 1223.76,-187.5 1375.76,-187.5 1375.76,-168.5 1223.76,-168.5"/>
<text text-anchor="middle" x="1299.76" y="-175.5" font-family="Helvetica,sans-Serif" font-size="10.00">Small/Core/SceneManager.hpp</text>
</a>
</g>
</g>
<!-- Node1&#45;&gt;Node11 -->
<g id="edge47" class="edge"><title>Node1&#45;&gt;Node11</title>
<path fill="none" stroke="midnightblue" d="M1190.7,-280.385C1219.59,-253.524 1260.43,-215.561 1283.05,-194.537"/>
<polygon fill="midnightblue" stroke="midnightblue" points="1285.56,-196.982 1290.5,-187.61 1280.79,-191.855 1285.56,-196.982"/>
</g>
<!-- Node14 -->
<g id="node14" class="node"><title>Node14</title>
<g id="a_node14"><a xlink:href="../../db/de8/Scene_8hpp.html" target="_top" xlink:title="The base scene class and the scene states are defined here. ">
<polygon fill="white" stroke="black" points="1015.76,-112.5 1015.76,-131.5 1129.76,-131.5 1129.76,-112.5 1015.76,-112.5"/>
<text text-anchor="middle" x="1072.76" y="-119.5" font-family="Helvetica,sans-Serif" font-size="10.00">Small/Core/Scene.hpp</text>
</a>
</g>
</g>
<!-- Node1&#45;&gt;Node14 -->
<g id="edge48" class="edge"><title>Node1&#45;&gt;Node14</title>
<path fill="none" stroke="midnightblue" d="M1143.92,-280.376C1126.08,-240.928 1095.64,-173.605 1081.05,-141.323"/>
<polygon fill="midnightblue" stroke="midnightblue" points="1084.06,-139.479 1076.75,-131.809 1077.68,-142.363 1084.06,-139.479"/>
</g>
<!-- Node3 -->
<g id="node3" class="node"><title>Node3</title>
<polygon fill="white" stroke="#bfbfbf" points="887.264,-0.5 887.264,-19.5 928.264,-19.5 928.264,-0.5 887.264,-0.5"/>
<text text-anchor="middle" x="907.764" y="-7.5" font-family="Helvetica,sans-Serif" font-size="10.00">string</text>
</g>
<!-- Node2&#45;&gt;Node3 -->
<g id="edge2" class="edge"><title>Node2&#45;&gt;Node3</title>
<path fill="none" stroke="midnightblue" d="M727.564,-233.162C520.674,-232.505 -86.9762,-221.363 10.764,-112 69.8545,-45.8827 725.622,-17.7279 876.803,-12.0908"/>
<polygon fill="midnightblue" stroke="midnightblue" points="877.323,-15.5742 887.188,-11.7097 877.066,-8.57891 877.323,-15.5742"/>
</g>
<!-- Node4 -->
<g id="node4" class="node"><title>Node4</title>
<polygon fill="white" stroke="#bfbfbf" points="514.764,-168.5 514.764,-187.5 564.764,-187.5 564.764,-168.5 514.764,-168.5"/>
<text text-anchor="middle" x="539.764" y="-175.5" font-family="Helvetica,sans-Serif" font-size="10.00">optional</text>
</g>
<!-- Node2&#45;&gt;Node4 -->
<g id="edge3" class="edge"><title>Node2&#45;&gt;Node4</title>
<path fill="none" stroke="midnightblue" d="M748.884,-224.461C706.256,-216.348 640.785,-203.432 575.09,-188.209"/>
<polygon fill="midnightblue" stroke="midnightblue" points="575.508,-184.713 564.974,-185.847 573.916,-191.529 575.508,-184.713"/>
</g>
<!-- Node5 -->
<g id="node5" class="node"><title>Node5</title>
<polygon fill="white" stroke="#bfbfbf" points="1250.76,-56.5 1250.76,-75.5 1354.76,-75.5 1354.76,-56.5 1250.76,-56.5"/>
<text text-anchor="middle" x="1302.76" y="-63.5" font-family="Helvetica,sans-Serif" font-size="10.00">SFML/Graphics.hpp</text>
</g>
<!-- Node2&#45;&gt;Node5 -->
<g id="edge4" class="edge"><title>Node2&#45;&gt;Node5</title>
<path fill="none" stroke="midnightblue" d="M846.974,-224.472C889.668,-216.854 951.329,-204.372 1003.76,-188 1065.77,-168.64 1079.3,-158.148 1138.76,-132 1158.06,-123.516 1162.32,-120.124 1181.76,-112 1210.66,-99.9272 1244.07,-87.6256 1268.45,-78.9425"/>
<polygon fill="midnightblue" stroke="midnightblue" points="1269.72,-82.2063 1277.98,-75.5697 1267.38,-75.6076 1269.72,-82.2063"/>
</g>
<!-- Node6 -->
<g id="node6" class="node"><title>Node6</title>
<polygon fill="white" stroke="#bfbfbf" points="697.764,-56.5 697.764,-75.5 823.764,-75.5 823.764,-56.5 697.764,-56.5"/>
<text text-anchor="middle" x="760.764" y="-63.5" font-family="Helvetica,sans-Serif" font-size="10.00">SFML/Window/Event.hpp</text>
</g>
<!-- Node2&#45;&gt;Node6 -->
<g id="edge5" class="edge"><title>Node2&#45;&gt;Node6</title>
<path fill="none" stroke="midnightblue" d="M813.748,-224.398C827.65,-216.954 845.478,-204.741 853.764,-188 857.707,-180.034 856.996,-176.281 853.764,-168 839.241,-130.787 803.876,-99.0118 781.182,-81.503"/>
<polygon fill="midnightblue" stroke="midnightblue" points="783.278,-78.6997 773.175,-75.5094 779.083,-84.3037 783.278,-78.6997"/>
</g>
<!-- Node7 -->
<g id="node7" class="node"><title>Node7</title>
<polygon fill="white" stroke="#bfbfbf" points="1372.76,-56.5 1372.76,-75.5 1498.76,-75.5 1498.76,-56.5 1372.76,-56.5"/>
<text text-anchor="middle" x="1435.76" y="-63.5" font-family="Helvetica,sans-Serif" font-size="10.00">SFML/System/Clock.hpp</text>
</g>
<!-- Node2&#45;&gt;Node7 -->
<g id="edge6" class="edge"><title>Node2&#45;&gt;Node7</title>
<path fill="none" stroke="midnightblue" d="M855.348,-224.493C906.491,-216.751 981.449,-204.087 1045.76,-188 1152.25,-161.365 1175.82,-144.195 1280.76,-112 1319.68,-100.061 1364.35,-87.1801 1395.7,-78.2718"/>
<polygon fill="midnightblue" stroke="midnightblue" points="1396.72,-81.62 1405.39,-75.5252 1394.81,-74.8854 1396.72,-81.62"/>
</g>
<!-- Node8 -->
<g id="node8" class="node"><title>Node8</title>
<polygon fill="white" stroke="#bfbfbf" points="582.764,-168.5 582.764,-187.5 630.764,-187.5 630.764,-168.5 582.764,-168.5"/>
<text text-anchor="middle" x="606.764" y="-175.5" font-family="Helvetica,sans-Serif" font-size="10.00">imgui.h</text>
</g>
<!-- Node2&#45;&gt;Node8 -->
<g id="edge7" class="edge"><title>Node2&#45;&gt;Node8</title>
<path fill="none" stroke="midnightblue" d="M764.975,-224.444C731.239,-214.753 676.366,-198.992 640.923,-188.811"/>
<polygon fill="midnightblue" stroke="midnightblue" points="641.611,-185.368 631.033,-185.971 639.678,-192.096 641.611,-185.368"/>
</g>
<!-- Node9 -->
<g id="node9" class="node"><title>Node9</title>
<polygon fill="white" stroke="#bfbfbf" points="649.264,-168.5 649.264,-187.5 726.264,-187.5 726.264,-168.5 649.264,-168.5"/>
<text text-anchor="middle" x="687.764" y="-175.5" font-family="Helvetica,sans-Serif" font-size="10.00">imgui&#45;SFML.h</text>
</g>
<!-- Node2&#45;&gt;Node9 -->
<g id="edge8" class="edge"><title>Node2&#45;&gt;Node9</title>
<path fill="none" stroke="midnightblue" d="M777.573,-224.324C760.413,-215.664 733.818,-202.242 714.017,-192.249"/>
<polygon fill="midnightblue" stroke="midnightblue" points="715.417,-189.035 704.913,-187.655 712.263,-195.285 715.417,-189.035"/>
</g>
<!-- Node10 -->
<g id="node10" class="node"><title>Node10</title>
<polygon fill="white" stroke="#bfbfbf" points="744.264,-168.5 744.264,-187.5 845.264,-187.5 845.264,-168.5 744.264,-168.5"/>
<text text-anchor="middle" x="794.764" y="-175.5" font-family="Helvetica,sans-Serif" font-size="10.00">SFML/OpenGL.hpp</text>
</g>
<!-- Node2&#45;&gt;Node10 -->
<g id="edge9" class="edge"><title>Node2&#45;&gt;Node10</title>
<path fill="none" stroke="midnightblue" d="M794.764,-224.083C794.764,-217.006 794.764,-206.861 794.764,-197.986"/>
<polygon fill="midnightblue" stroke="midnightblue" points="798.264,-197.751 794.764,-187.751 791.264,-197.751 798.264,-197.751"/>
</g>
<!-- Node2&#45;&gt;Node11 -->
<g id="edge10" class="edge"><title>Node2&#45;&gt;Node11</title>
<path fill="none" stroke="midnightblue" d="M861.824,-225.829C952.482,-216.135 1114.22,-198.84 1213.73,-188.199"/>
<polygon fill="midnightblue" stroke="midnightblue" points="1214.19,-191.671 1223.76,-187.127 1213.44,-184.71 1214.19,-191.671"/>
</g>
<!-- Node15 -->
<g id="node15" class="node"><title>Node15</title>
<g id="a_node15"><a xlink:href="../../df/db4/Config_8hpp.html" target="_top" xlink:title="Small/Scripting/Config.hpp">
<polygon fill="white" stroke="black" points="842.264,-56.5 842.264,-75.5 973.264,-75.5 973.264,-56.5 842.264,-56.5"/>
<text text-anchor="middle" x="907.764" y="-63.5" font-family="Helvetica,sans-Serif" font-size="10.00">Small/Scripting/Config.hpp</text>
</a>
</g>
</g>
<!-- Node2&#45;&gt;Node15 -->
<g id="edge40" class="edge"><title>Node2&#45;&gt;Node15</title>
<path fill="none" stroke="midnightblue" d="M861.89,-226.179C911.156,-219.624 972.097,-207.74 987.764,-188 993.29,-181.037 990.686,-176.395 987.764,-168 981.121,-148.913 943.999,-106.452 922.734,-83.1222"/>
<polygon fill="midnightblue" stroke="midnightblue" points="925.293,-80.7338 915.95,-75.7378 920.138,-85.4697 925.293,-80.7338"/>
</g>
<!-- Node24 -->
<g id="node24" class="node"><title>Node24</title>
<g id="a_node24"><a xlink:href="../../dc/dbc/Profiler_8hpp.html" target="_top" xlink:title="Profiler from https://github.com/bwrsandman/imgui&#45;flame&#45;graph/ (example/main.cpp), updated for the project needs. ">
<polygon fill="white" stroke="black" points="372.764,-168.5 372.764,-187.5 496.764,-187.5 496.764,-168.5 372.764,-168.5"/>
<text text-anchor="middle" x="434.764" y="-175.5" font-family="Helvetica,sans-Serif" font-size="10.00">Small/Debug/Profiler.hpp</text>
</a>
</g>
</g>
<!-- Node2&#45;&gt;Node24 -->
<g id="edge35" class="edge"><title>Node2&#45;&gt;Node24</title>
<path fill="none" stroke="midnightblue" d="M737.721,-224.444C673.603,-214.826 569.614,-199.228 501.703,-189.041"/>
<polygon fill="midnightblue" stroke="midnightblue" points="501.949,-185.539 491.54,-187.516 500.91,-192.461 501.949,-185.539"/>
</g>
<!-- Node28 -->
<g id="node28" class="node"><title>Node28</title>
<polygon fill="white" stroke="#bfbfbf" points="329.764,-112.5 329.764,-131.5 397.764,-131.5 397.764,-112.5 329.764,-112.5"/>
<text text-anchor="middle" x="363.764" y="-119.5" font-family="Helvetica,sans-Serif" font-size="10.00">Ark/Ark.hpp</text>
</g>
<!-- Node2&#45;&gt;Node28 -->
<g id="edge39" class="edge"><title>Node2&#45;&gt;Node28</title>
<path fill="none" stroke="midnightblue" d="M727.454,-230.828C612.324,-226.414 387.622,-214.479 363.764,-188 352.688,-175.708 354.3,-156.173 357.699,-141.725"/>
<polygon fill="midnightblue" stroke="midnightblue" points="361.132,-142.446 360.466,-131.872 354.392,-140.553 361.132,-142.446"/>
</g>
<!-- Node29 -->
<g id="node29" class="node"><title>Node29</title>
<g id="a_node29"><a xlink:href="../../d8/d82/SFMLtoArk_8hpp.html" target="_top" xlink:title="Convert SFML values to ArkScript values. ">
<polygon fill="white" stroke="black" points="162.764,-168.5 162.764,-187.5 316.764,-187.5 316.764,-168.5 162.764,-168.5"/>
<text text-anchor="middle" x="239.764" y="-175.5" font-family="Helvetica,sans-Serif" font-size="10.00">Small/Scripting/SFMLtoArk.hpp</text>
</a>
</g>
</g>
<!-- Node2&#45;&gt;Node29 -->
<g id="edge41" class="edge"><title>Node2&#45;&gt;Node29</title>
<path fill="none" stroke="midnightblue" d="M727.525,-226.519C637.264,-217.811 471.925,-201.826 330.764,-188 329.658,-187.892 328.544,-187.783 327.425,-187.673"/>
<polygon fill="midnightblue" stroke="midnightblue" points="327.503,-184.164 317.209,-186.669 326.819,-191.13 327.503,-184.164"/>
</g>
<!-- Node32 -->
<g id="node32" class="node"><title>Node32</title>
<polygon fill="white" stroke="#bfbfbf" points="902.264,-168.5 902.264,-187.5 979.264,-187.5 979.264,-168.5 902.264,-168.5"/>
<text text-anchor="middle" x="940.764" y="-175.5" font-family="Helvetica,sans-Serif" font-size="10.00">Application.inl</text>
</g>
<!-- Node2&#45;&gt;Node32 -->
<g id="edge46" class="edge"><title>Node2&#45;&gt;Node32</title>
<path fill="none" stroke="midnightblue" d="M817.898,-224.444C842.246,-215.438 880.771,-201.189 908.187,-191.049"/>
<polygon fill="midnightblue" stroke="midnightblue" points="909.573,-194.268 917.738,-187.516 907.145,-187.703 909.573,-194.268"/>
</g>
<!-- Node11&#45;&gt;Node5 -->
<g id="edge13" class="edge"><title>Node11&#45;&gt;Node5</title>
<path fill="none" stroke="midnightblue" d="M1287.37,-168.325C1271.96,-156.377 1248.71,-133.847 1257.76,-112 1262.68,-100.121 1272.43,-89.7428 1281.6,-81.9557"/>
<polygon fill="midnightblue" stroke="midnightblue" points="1284.02,-84.5058 1289.7,-75.5641 1279.68,-79.0101 1284.02,-84.5058"/>
</g>
<!-- Node11&#45;&gt;Node6 -->
<g id="edge15" class="edge"><title>Node11&#45;&gt;Node6</title>
<path fill="none" stroke="midnightblue" d="M1223.49,-170.516C1155.36,-163.828 1053.12,-151.578 965.764,-132 903.293,-117.999 832.539,-93.5924 792.624,-79.0011"/>
<polygon fill="midnightblue" stroke="midnightblue" points="793.758,-75.6889 783.164,-75.5153 791.337,-82.2572 793.758,-75.6889"/>
</g>
<!-- Node11&#45;&gt;Node7 -->
<g id="edge14" class="edge"><title>Node11&#45;&gt;Node7</title>
<path fill="none" stroke="midnightblue" d="M1295.08,-168.472C1288.42,-155.072 1278.33,-128.877 1290.76,-112 1301.48,-97.452 1342.31,-85.5791 1377.93,-77.6889"/>
<polygon fill="midnightblue" stroke="midnightblue" points="1378.76,-81.0898 1387.8,-75.5702 1377.29,-74.2455 1378.76,-81.0898"/>
</g>
<!-- Node12 -->
<g id="node12" class="node"><title>Node12</title>
<polygon fill="white" stroke="#bfbfbf" points="1410.76,-0.5 1410.76,-19.5 1452.76,-19.5 1452.76,-0.5 1410.76,-0.5"/>
<text text-anchor="middle" x="1431.76" y="-7.5" font-family="Helvetica,sans-Serif" font-size="10.00">vector</text>
</g>
<!-- Node11&#45;&gt;Node12 -->
<g id="edge11" class="edge"><title>Node11&#45;&gt;Node12</title>
<path fill="none" stroke="midnightblue" d="M1375.93,-175.163C1448.01,-171.626 1548.8,-161.397 1573.76,-132 1613.75,-84.9164 1515.35,-40.8331 1462.56,-21.4094"/>
<polygon fill="midnightblue" stroke="midnightblue" points="1463.57,-18.0517 1452.98,-17.967 1461.2,-24.64 1463.57,-18.0517"/>
</g>
<!-- Node13 -->
<g id="node13" class="node"><title>Node13</title>
<polygon fill="white" stroke="#bfbfbf" points="1496.76,-0.5 1496.76,-19.5 1548.76,-19.5 1548.76,-0.5 1496.76,-0.5"/>
<text text-anchor="middle" x="1522.76" y="-7.5" font-family="Helvetica,sans-Serif" font-size="10.00">memory</text>
</g>
<!-- Node11&#45;&gt;Node13 -->
<g id="edge12" class="edge"><title>Node11&#45;&gt;Node13</title>
<path fill="none" stroke="midnightblue" d="M1375.89,-176.087C1452.93,-173.357 1564.46,-163.828 1591.76,-132 1620.85,-98.0857 1572.01,-50.0976 1542.58,-26.0161"/>
<polygon fill="midnightblue" stroke="midnightblue" points="1544.53,-23.0971 1534.52,-19.6201 1540.18,-28.5793 1544.53,-23.0971"/>
</g>
<!-- Node11&#45;&gt;Node14 -->
<g id="edge16" class="edge"><title>Node11&#45;&gt;Node14</title>
<path fill="none" stroke="midnightblue" d="M1263.8,-168.444C1224.44,-159.083 1161.28,-144.056 1118.45,-133.868"/>
<polygon fill="midnightblue" stroke="midnightblue" points="1119.1,-130.426 1108.56,-131.516 1117.48,-137.236 1119.1,-130.426"/>
</g>
<!-- Node11&#45;&gt;Node15 -->
<g id="edge30" class="edge"><title>Node11&#45;&gt;Node15</title>
<path fill="none" stroke="midnightblue" d="M1223.74,-174.203C1163.22,-169.898 1077.27,-159.077 1006.76,-132 975.638,-120.046 944.221,-97.1544 925.371,-81.979"/>
<polygon fill="midnightblue" stroke="midnightblue" points="927.586,-79.2691 917.641,-75.6164 923.137,-84.6738 927.586,-79.2691"/>
</g>
<!-- Node18 -->
<g id="node18" class="node"><title>Node18</title>
<polygon fill="white" stroke="#bfbfbf" points="1580.26,-0.5 1580.26,-19.5 1729.26,-19.5 1729.26,-0.5 1580.26,-0.5"/>
<text text-anchor="middle" x="1654.76" y="-7.5" font-family="Helvetica,sans-Serif" font-size="10.00">SFML/Graphics/Transform.hpp</text>
</g>
<!-- Node11&#45;&gt;Node18 -->
<g id="edge31" class="edge"><title>Node11&#45;&gt;Node18</title>
<path fill="none" stroke="midnightblue" d="M1375.84,-174.689C1455.81,-170.769 1574.81,-160.235 1609.76,-132 1641.19,-106.615 1650.67,-56.9903 1653.53,-29.8453"/>
<polygon fill="midnightblue" stroke="midnightblue" points="1657.03,-29.9858 1654.4,-19.7242 1650.06,-29.39 1657.03,-29.9858"/>
</g>
<!-- Node21 -->
<g id="node21" class="node"><title>Node21</title>
<polygon fill="white" stroke="#bfbfbf" points="1299.76,-112.5 1299.76,-131.5 1349.76,-131.5 1349.76,-112.5 1299.76,-112.5"/>
<text text-anchor="middle" x="1324.76" y="-119.5" font-family="Helvetica,sans-Serif" font-size="10.00">typeinfo</text>
</g>
<!-- Node11&#45;&gt;Node21 -->
<g id="edge32" class="edge"><title>Node11&#45;&gt;Node21</title>
<path fill="none" stroke="midnightblue" d="M1303.89,-168.083C1307.28,-160.77 1312.18,-150.181 1316.38,-141.103"/>
<polygon fill="midnightblue" stroke="midnightblue" points="1319.69,-142.296 1320.71,-131.751 1313.34,-139.355 1319.69,-142.296"/>
</g>
<!-- Node22 -->
<g id="node22" class="node"><title>Node22</title>
<polygon fill="white" stroke="#bfbfbf" points="1368.26,-112.5 1368.26,-131.5 1451.26,-131.5 1451.26,-112.5 1368.26,-112.5"/>
<text text-anchor="middle" x="1409.76" y="-119.5" font-family="Helvetica,sans-Serif" font-size="10.00">unordered_map</text>
</g>
<!-- Node11&#45;&gt;Node22 -->
<g id="edge33" class="edge"><title>Node11&#45;&gt;Node22</title>
<path fill="none" stroke="midnightblue" d="M1317.44,-168.324C1335.16,-159.625 1362.67,-146.12 1383.05,-136.113"/>
<polygon fill="midnightblue" stroke="midnightblue" points="1384.7,-139.203 1392.13,-131.655 1381.62,-132.919 1384.7,-139.203"/>
</g>
<!-- Node23 -->
<g id="node23" class="node"><title>Node23</title>
<polygon fill="white" stroke="#bfbfbf" points="1469.26,-112.5 1469.26,-131.5 1564.26,-131.5 1564.26,-112.5 1469.26,-112.5"/>
<text text-anchor="middle" x="1516.76" y="-119.5" font-family="Helvetica,sans-Serif" font-size="10.00">SceneManager.inl</text>
</g>
<!-- Node11&#45;&gt;Node23 -->
<g id="edge34" class="edge"><title>Node11&#45;&gt;Node23</title>
<path fill="none" stroke="midnightblue" d="M1334.15,-168.444C1371.69,-159.102 1431.9,-144.119 1472.83,-133.933"/>
<polygon fill="midnightblue" stroke="midnightblue" points="1473.68,-137.328 1482.54,-131.516 1471.99,-130.535 1473.68,-137.328"/>
</g>
<!-- Node14&#45;&gt;Node3 -->
<g id="edge20" class="edge"><title>Node14&#45;&gt;Node3</title>
<path fill="none" stroke="midnightblue" d="M1073.17,-112.148C1073.31,-98.3024 1071.49,-71.5082 1056.76,-56 1025.87,-23.4624 972.378,-14.2016 938.592,-11.7111"/>
<polygon fill="midnightblue" stroke="midnightblue" points="938.555,-8.20317 928.369,-11.1195 938.15,-15.1915 938.555,-8.20317"/>
</g>
<!-- Node14&#45;&gt;Node5 -->
<g id="edge17" class="edge"><title>Node14&#45;&gt;Node5</title>
<path fill="none" stroke="midnightblue" d="M1109.21,-112.444C1149.16,-103.063 1213.35,-87.9926 1256.75,-77.8036"/>
<polygon fill="midnightblue" stroke="midnightblue" points="1257.56,-81.2095 1266.49,-75.5164 1255.96,-74.3948 1257.56,-81.2095"/>
</g>
<!-- Node14&#45;&gt;Node6 -->
<g id="edge19" class="edge"><title>Node14&#45;&gt;Node6</title>
<path fill="none" stroke="midnightblue" d="M1023.33,-112.444C968.1,-102.885 878.743,-87.4195 819.869,-77.2298"/>
<polygon fill="midnightblue" stroke="midnightblue" points="820.42,-73.7732 809.97,-75.5164 819.227,-80.6707 820.42,-73.7732"/>
</g>
<!-- Node14&#45;&gt;Node7 -->
<g id="edge18" class="edge"><title>Node14&#45;&gt;Node7</title>
<path fill="none" stroke="midnightblue" d="M1129.88,-112.503C1194.45,-102.898 1299.49,-87.2724 1368.11,-77.0642"/>
<polygon fill="midnightblue" stroke="midnightblue" points="1369,-80.4698 1378.38,-75.5364 1367.97,-73.546 1369,-80.4698"/>
</g>
<!-- Node14&#45;&gt;Node15 -->
<g id="edge21" class="edge"><title>Node14&#45;&gt;Node15</title>
<path fill="none" stroke="midnightblue" d="M1046.62,-112.444C1018.74,-103.32 974.416,-88.8133 943.364,-78.6509"/>
<polygon fill="midnightblue" stroke="midnightblue" points="944.379,-75.3005 933.786,-75.5164 942.202,-81.9533 944.379,-75.3005"/>
</g>
<!-- Node16 -->
<g id="node16" class="node"><title>Node16</title>
<g id="a_node16"><a xlink:href="../../d7/dc6/Node_8hpp.html" target="_top" xlink:title="A scene graph node. ">
<polygon fill="white" stroke="black" points="1104.76,-56.5 1104.76,-75.5 1232.76,-75.5 1232.76,-56.5 1104.76,-56.5"/>
<text text-anchor="middle" x="1168.76" y="-63.5" font-family="Helvetica,sans-Serif" font-size="10.00">Small/Graphics/Node.hpp</text>
</a>
</g>
</g>
<!-- Node14&#45;&gt;Node16 -->
<g id="edge23" class="edge"><title>Node14&#45;&gt;Node16</title>
<path fill="none" stroke="midnightblue" d="M1088.19,-112.324C1103.3,-103.822 1126.58,-90.7288 1144.24,-80.7975"/>
<polygon fill="midnightblue" stroke="midnightblue" points="1146.38,-83.6077 1153.38,-75.6545 1142.95,-77.5066 1146.38,-83.6077"/>
</g>
<!-- Node20 -->
<g id="node20" class="node"><title>Node20</title>
<polygon fill="white" stroke="#bfbfbf" points="991.264,-56.5 991.264,-75.5 1048.26,-75.5 1048.26,-56.5 991.264,-56.5"/>
<text text-anchor="middle" x="1019.76" y="-63.5" font-family="Helvetica,sans-Serif" font-size="10.00">Scene.inl</text>
</g>
<!-- Node14&#45;&gt;Node20 -->
<g id="edge29" class="edge"><title>Node14&#45;&gt;Node20</title>
<path fill="none" stroke="midnightblue" d="M1064.01,-112.083C1056.29,-104.22 1044.86,-92.5688 1035.55,-83.0813"/>
<polygon fill="midnightblue" stroke="midnightblue" points="1037.86,-80.4363 1028.35,-75.7511 1032.86,-85.3396 1037.86,-80.4363"/>
</g>
<!-- Node15&#45;&gt;Node3 -->
<g id="edge22" class="edge"><title>Node15&#45;&gt;Node3</title>
<path fill="none" stroke="midnightblue" d="M907.764,-56.083C907.764,-49.0059 907.764,-38.8611 907.764,-29.9865"/>
<polygon fill="midnightblue" stroke="midnightblue" points="911.264,-29.751 907.764,-19.7511 904.264,-29.7511 911.264,-29.751"/>
</g>
<!-- Node16&#45;&gt;Node12 -->
<g id="edge27" class="edge"><title>Node16&#45;&gt;Node12</title>
<path fill="none" stroke="midnightblue" d="M1210.44,-56.4435C1263.36,-45.5778 1353.46,-27.0783 1400.72,-17.3733"/>
<polygon fill="midnightblue" stroke="midnightblue" points="1401.59,-20.7692 1410.68,-15.3294 1400.18,-13.9122 1401.59,-20.7692"/>
</g>
<!-- Node16&#45;&gt;Node13 -->
<g id="edge28" class="edge"><title>Node16&#45;&gt;Node13</title>
<path fill="none" stroke="midnightblue" d="M1224.86,-56.4435C1298.21,-45.2546 1424.62,-25.9711 1486.5,-16.5311"/>
<polygon fill="midnightblue" stroke="midnightblue" points="1487.22,-19.9631 1496.57,-14.9951 1486.16,-13.0432 1487.22,-19.9631"/>
</g>
<!-- Node17 -->
<g id="node17" class="node"><title>Node17</title>
<polygon fill="white" stroke="#bfbfbf" points="1176.76,-0.5 1176.76,-19.5 1340.76,-19.5 1340.76,-0.5 1176.76,-0.5"/>
<text text-anchor="middle" x="1258.76" y="-7.5" font-family="Helvetica,sans-Serif" font-size="10.00">SFML/Graphics/RenderTarget.hpp</text>
</g>
<!-- Node16&#45;&gt;Node17 -->
<g id="edge24" class="edge"><title>Node16&#45;&gt;Node17</title>
<path fill="none" stroke="midnightblue" d="M1183.22,-56.324C1197.26,-47.9002 1218.81,-34.9709 1235.31,-25.0741"/>
<polygon fill="midnightblue" stroke="midnightblue" points="1237.57,-27.8007 1244.34,-19.6545 1233.96,-21.7983 1237.57,-27.8007"/>
</g>
<!-- Node16&#45;&gt;Node18 -->
<g id="edge25" class="edge"><title>Node16&#45;&gt;Node18</title>
<path fill="none" stroke="midnightblue" d="M1232.85,-57.0468C1235.86,-56.6893 1238.85,-56.3388 1241.76,-56 1355.24,-42.823 1486.4,-28.725 1569.92,-19.89"/>
<polygon fill="midnightblue" stroke="midnightblue" points="1570.54,-23.3441 1580.12,-18.8125 1569.81,-16.3828 1570.54,-23.3441"/>
</g>
<!-- Node19 -->
<g id="node19" class="node"><title>Node19</title>
<polygon fill="white" stroke="#bfbfbf" points="1023.26,-0.5 1023.26,-19.5 1158.26,-19.5 1158.26,-0.5 1023.26,-0.5"/>
<text text-anchor="middle" x="1090.76" y="-7.5" font-family="Helvetica,sans-Serif" font-size="10.00">SFML/System/Vector2.hpp</text>
</g>
<!-- Node16&#45;&gt;Node19 -->
<g id="edge26" class="edge"><title>Node16&#45;&gt;Node19</title>
<path fill="none" stroke="midnightblue" d="M1156.23,-56.324C1144.18,-47.979 1125.74,-35.2122 1111.5,-25.3524"/>
<polygon fill="midnightblue" stroke="midnightblue" points="1113.48,-22.469 1103.26,-19.6545 1109.49,-28.2243 1113.48,-22.469"/>
</g>
<!-- Node25 -->
<g id="node25" class="node"><title>Node25</title>
<polygon fill="white" stroke="#bfbfbf" points="415.764,-112.5 415.764,-131.5 453.764,-131.5 453.764,-112.5 415.764,-112.5"/>
<text text-anchor="middle" x="434.764" y="-119.5" font-family="Helvetica,sans-Serif" font-size="10.00">array</text>
</g>
<!-- Node24&#45;&gt;Node25 -->
<g id="edge36" class="edge"><title>Node24&#45;&gt;Node25</title>
<path fill="none" stroke="midnightblue" d="M434.764,-168.083C434.764,-161.006 434.764,-150.861 434.764,-141.986"/>
<polygon fill="midnightblue" stroke="midnightblue" points="438.264,-141.751 434.764,-131.751 431.264,-141.751 438.264,-141.751"/>
</g>
<!-- Node26 -->
<g id="node26" class="node"><title>Node26</title>
<polygon fill="white" stroke="#bfbfbf" points="471.764,-112.5 471.764,-131.5 517.764,-131.5 517.764,-112.5 471.764,-112.5"/>
<text text-anchor="middle" x="494.764" y="-119.5" font-family="Helvetica,sans-Serif" font-size="10.00">chrono</text>
</g>
<!-- Node24&#45;&gt;Node26 -->
<g id="edge37" class="edge"><title>Node24&#45;&gt;Node26</title>
<path fill="none" stroke="midnightblue" d="M444.404,-168.324C453.274,-160.341 466.639,-148.313 477.372,-138.653"/>
<polygon fill="midnightblue" stroke="midnightblue" points="479.857,-141.125 484.949,-131.834 475.174,-135.922 479.857,-141.125"/>
</g>
<!-- Node27 -->
<g id="node27" class="node"><title>Node27</title>
<polygon fill="white" stroke="#bfbfbf" points="535.764,-112.5 535.764,-131.5 679.764,-131.5 679.764,-112.5 535.764,-112.5"/>
<text text-anchor="middle" x="607.764" y="-119.5" font-family="Helvetica,sans-Serif" font-size="10.00">imgui_widget_flamegraph.hpp</text>
</g>
<!-- Node24&#45;&gt;Node27 -->
<g id="edge38" class="edge"><title>Node24&#45;&gt;Node27</title>
<path fill="none" stroke="midnightblue" d="M462.176,-168.444C491.533,-159.28 538.284,-144.688 570.86,-134.519"/>
<polygon fill="midnightblue" stroke="midnightblue" points="571.977,-137.837 580.48,-131.516 569.891,-131.155 571.977,-137.837"/>
</g>
<!-- Node29&#45;&gt;Node6 -->
<g id="edge43" class="edge"><title>Node29&#45;&gt;Node6</title>
<path fill="none" stroke="midnightblue" d="M247.234,-168.4C260.418,-153.886 289.4,-124.859 320.764,-112 385.29,-85.5455 579.762,-73.977 687.293,-69.4885"/>
<polygon fill="midnightblue" stroke="midnightblue" points="687.571,-72.9801 697.421,-69.0759 687.286,-65.9859 687.571,-72.9801"/>
</g>
<!-- Node29&#45;&gt;Node28 -->
<g id="edge42" class="edge"><title>Node29&#45;&gt;Node28</title>
<path fill="none" stroke="midnightblue" d="M259.412,-168.444C279.729,-159.596 311.667,-145.687 334.862,-135.586"/>
<polygon fill="midnightblue" stroke="midnightblue" points="336.437,-138.718 344.208,-131.516 333.642,-132.3 336.437,-138.718"/>
</g>
<!-- Node30 -->
<g id="node30" class="node"><title>Node30</title>
<polygon fill="white" stroke="#bfbfbf" points="19.764,-112.5 19.764,-131.5 141.764,-131.5 141.764,-112.5 19.764,-112.5"/>
<text text-anchor="middle" x="80.764" y="-119.5" font-family="Helvetica,sans-Serif" font-size="10.00">SFML/System/Time.hpp</text>
</g>
<!-- Node29&#45;&gt;Node30 -->
<g id="edge44" class="edge"><title>Node29&#45;&gt;Node30</title>
<path fill="none" stroke="midnightblue" d="M214.57,-168.444C187.821,-159.359 145.361,-144.939 115.459,-134.783"/>
<polygon fill="midnightblue" stroke="midnightblue" points="116.435,-131.418 105.84,-131.516 114.183,-138.046 116.435,-131.418"/>
</g>
<!-- Node31 -->
<g id="node31" class="node"><title>Node31</title>
<polygon fill="white" stroke="#bfbfbf" points="160.264,-112.5 160.264,-131.5 273.264,-131.5 273.264,-112.5 160.264,-112.5"/>
<text text-anchor="middle" x="216.764" y="-119.5" font-family="Helvetica,sans-Serif" font-size="10.00">SFML/System/Utf.hpp</text>
</g>
<!-- Node29&#45;&gt;Node31 -->
<g id="edge45" class="edge"><title>Node29&#45;&gt;Node31</title>
<path fill="none" stroke="midnightblue" d="M235.966,-168.083C232.851,-160.77 228.341,-150.181 224.475,-141.103"/>
<polygon fill="midnightblue" stroke="midnightblue" points="227.63,-139.58 220.491,-131.751 221.19,-142.323 227.63,-139.58"/>
</g>
</g>
</svg>
