<?xml version="1.0" encoding="UTF-8" standalone="no"?>
<!DOCTYPE svg PUBLIC "-//W3C//DTD SVG 1.1//EN"
 "http://www.w3.org/Graphics/SVG/1.1/DTD/svg11.dtd">
<!-- Generated by graphviz version 2.38.0 (20140413.2041)
 -->
<!-- Title: C:/Users/Folaefolc/Documents/Code/Big&#45;Projects/ScriptWizards/SmallGameLibrary/include/Small/Core.hpp Pages: 1 -->
<!--zoomable 352 -->
<svg id="main" version="1.1" xmlns="http://www.w3.org/2000/svg" xmlns:xlink="http://www.w3.org/1999/xlink" xml:space="preserve" onload="init(evt)">
<style type="text/css"><![CDATA[
.edge:hover path { stroke: red; }
.edge:hover polygon { stroke: red; fill: red; }
]]></style>
<script type="text/javascript"><![CDATA[
var edges = document.getElementsByTagName('g');
if (edges && edges.length) {
  for (var i=0;i<edges.length;i++) {
    if (edges[i].id.substr(0,4)=='edge') {
      edges[i].setAttribute('class','edge');
    }
  }
}
]]></script>
        <defs>
                <circle id="rim" cx="0" cy="0" r="7"/>
                <circle id="rim2" cx="0" cy="0" r="3.5"/>
                <g id="zoomPlus">
                        <use xlink:href="#rim" fill="#404040">
                                <set attributeName="fill" to="#808080" begin="zoomplus.mouseover" end="zoomplus.mouseout"/>
                        </use>
                        <path d="M-4,0h8M0,-4v8" fill="none" stroke="white" stroke-width="1.5" pointer-events="none"/>
                </g>
                <g id="zoomMin">
                        <use xlink:href="#rim" fill="#404040">
                                <set attributeName="fill" to="#808080" begin="zoomminus.mouseover" end="zoomminus.mouseout"/>
                        </use>
                        <path d="M-4,0h8" fill="none" stroke="white" stroke-width="1.5" pointer-events="none"/>
                </g>
                <g id="dirArrow">
                        <path fill="none" stroke="white" stroke-width="1.5" d="M0,-3.0v7 M-2.5,-0.5L0,-3.0L2.5,-0.5"/>
                </g>
               <g id="resetDef">
                       <use xlink:href="#rim2" fill="#404040">
                               <set attributeName="fill" to="#808080" begin="reset.mouseover" end="reset.mouseout"/>
                       </use>
               </g>
        </defs>

<script type="text/javascript">
var viewWidth = 1635;
var viewHeight = 352;
var sectionId = 'dynsection-0';
</script>
<script xlink:href="../../svgpan.js"/>
<svg id="graph" class="graph">
<g id="viewport">
<title>C:/Users/Folaefolc/Documents/Code/Big&#45;Projects/ScriptWizards/SmallGameLibrary/include/Small/Core.hpp</title>
<polygon fill="white" stroke="none" points="-4,4 -4,-348 1630.56,-348 1630.56,4 -4,4"/>
<!-- Node1 -->
<g id="node1" class="node"><title>Node1</title>
<polygon fill="#bfbfbf" stroke="black" points="964.061,-280.5 964.061,-343.5 1098.06,-343.5 1098.06,-280.5 964.061,-280.5"/>
<text text-anchor="start" x="972.061" y="-331.5" font-family="Helvetica,sans-Serif" font-size="10.00">C:/Users/Folaefolc</text>
<text text-anchor="start" x="972.061" y="-320.5" font-family="Helvetica,sans-Serif" font-size="10.00">/Documents/Code/Big</text>
<text text-anchor="start" x="972.061" y="-309.5" font-family="Helvetica,sans-Serif" font-size="10.00">&#45;Projects/ScriptWizards</text>
<text text-anchor="start" x="972.061" y="-298.5" font-family="Helvetica,sans-Serif" font-size="10.00">/SmallGameLibrary/include</text>
<text text-anchor="middle" x="1031.06" y="-287.5" font-family="Helvetica,sans-Serif" font-size="10.00">/Small/Core.hpp</text>
</g>
<!-- Node2 -->
<g id="node2" class="node"><title>Node2</title>
<g id="a_node2"><a xlink:href="../../df/d3c/Application_8hpp.html" target="_top" xlink:title="Define the application hosting the scenes for the game. ">
<polygon fill="white" stroke="black" points="579.061,-224.5 579.061,-243.5 713.061,-243.5 713.061,-224.5 579.061,-224.5"/>
<text text-anchor="middle" x="646.061" y="-231.5" font-family="Helvetica,sans-Serif" font-size="10.00">Small/Core/Application.hpp</text>
</a>
</g>
</g>
<!-- Node1&#45;&gt;Node2 -->
<g id="edge1" class="edge"><title>Node1&#45;&gt;Node2</title>
<path fill="none" stroke="midnightblue" d="M963.999,-297.762C888.896,-282.936 768.673,-259.204 699.588,-245.566"/>
<polygon fill="midnightblue" stroke="midnightblue" points="699.855,-242.052 689.366,-243.549 698.499,-248.919 699.855,-242.052"/>
</g>
<!-- Node10 -->
<g id="node10" class="node"><title>Node10</title>
<g id="a_node10"><a xlink:href="../../df/d74/SceneManager_8hpp.html" target="_top" xlink:title="Define the scene manager (creating, handling and destroying them) ">
<polygon fill="white" stroke="black" points="1059.06,-168.5 1059.06,-187.5 1211.06,-187.5 1211.06,-168.5 1059.06,-168.5"/>
<text text-anchor="middle" x="1135.06" y="-175.5" font-family="Helvetica,sans-Serif" font-size="10.00">Small/Core/SceneManager.hpp</text>
</a>
</g>
</g>
<!-- Node1&#45;&gt;Node10 -->
<g id="edge46" class="edge"><title>Node1&#45;&gt;Node10</title>
<path fill="none" stroke="midnightblue" d="M1055.18,-280.385C1075.97,-253.995 1105.21,-216.89 1121.94,-195.659"/>
<polygon fill="midnightblue" stroke="midnightblue" points="1124.84,-197.631 1128.28,-187.61 1119.34,-193.299 1124.84,-197.631"/>
</g>
<!-- Node13 -->
<g id="node13" class="node"><title>Node13</title>
<g id="a_node13"><a xlink:href="../../db/de8/Scene_8hpp.html" target="_top" xlink:title="The base scene class and the scene states are defined here. ">
<polygon fill="white" stroke="black" points="976.061,-112.5 976.061,-131.5 1090.06,-131.5 1090.06,-112.5 976.061,-112.5"/>
<text text-anchor="middle" x="1033.06" y="-119.5" font-family="Helvetica,sans-Serif" font-size="10.00">Small/Core/Scene.hpp</text>
</a>
</g>
</g>
<!-- Node1&#45;&gt;Node13 -->
<g id="edge47" class="edge"><title>Node1&#45;&gt;Node13</title>
<path fill="none" stroke="midnightblue" d="M1031.39,-280.376C1031.8,-241.271 1032.51,-174.774 1032.86,-142.173"/>
<polygon fill="midnightblue" stroke="midnightblue" points="1036.36,-141.845 1032.97,-131.809 1029.36,-141.771 1036.36,-141.845"/>
</g>
<!-- Node3 -->
<g id="node3" class="node"><title>Node3</title>
<polygon fill="white" stroke="#bfbfbf" points="751.061,-56.5 751.061,-75.5 855.061,-75.5 855.061,-56.5 751.061,-56.5"/>
<text text-anchor="middle" x="803.061" y="-63.5" font-family="Helvetica,sans-Serif" font-size="10.00">SFML/Graphics.hpp</text>
</g>
<!-- Node2&#45;&gt;Node3 -->
<g id="edge2" class="edge"><title>Node2&#45;&gt;Node3</title>
<path fill="none" stroke="midnightblue" d="M713.115,-227.334C766.399,-221.277 834.757,-209.492 852.061,-188 877.983,-155.803 842.099,-108.068 819.317,-83.2759"/>
<polygon fill="midnightblue" stroke="midnightblue" points="821.633,-80.6318 812.202,-75.8034 816.563,-85.459 821.633,-80.6318"/>
</g>
<!-- Node4 -->
<g id="node4" class="node"><title>Node4</title>
<polygon fill="white" stroke="#bfbfbf" points="499.061,-56.5 499.061,-75.5 625.061,-75.5 625.061,-56.5 499.061,-56.5"/>
<text text-anchor="middle" x="562.061" y="-63.5" font-family="Helvetica,sans-Serif" font-size="10.00">SFML/Window/Event.hpp</text>
</g>
<!-- Node2&#45;&gt;Node4 -->
<g id="edge3" class="edge"><title>Node2&#45;&gt;Node4</title>
<path fill="none" stroke="midnightblue" d="M578.711,-233.161C496.642,-231.754 365.053,-223.783 334.061,-188 328.241,-181.281 329.429,-175.587 334.061,-168 334.948,-166.547 441.505,-112.691 443.061,-112 470.967,-99.6026 503.438,-87.4715 527.404,-78.9346"/>
<polygon fill="midnightblue" stroke="midnightblue" points="528.852,-82.1352 537.117,-75.5057 526.522,-75.5344 528.852,-82.1352"/>
</g>
<!-- Node5 -->
<g id="node5" class="node"><title>Node5</title>
<polygon fill="white" stroke="#bfbfbf" points="1323.06,-56.5 1323.06,-75.5 1449.06,-75.5 1449.06,-56.5 1323.06,-56.5"/>
<text text-anchor="middle" x="1386.06" y="-63.5" font-family="Helvetica,sans-Serif" font-size="10.00">SFML/System/Clock.hpp</text>
</g>
<!-- Node2&#45;&gt;Node5 -->
<g id="edge4" class="edge"><title>Node2&#45;&gt;Node5</title>
<path fill="none" stroke="midnightblue" d="M713.433,-232.571C821.344,-230.8 1039.2,-222.77 1220.06,-188 1302.34,-172.183 1350.39,-199.471 1400.06,-132 1410.08,-118.385 1404.06,-99.0751 1397.06,-85.0416"/>
<polygon fill="midnightblue" stroke="midnightblue" points="1399.92,-82.9706 1392.02,-75.9126 1393.79,-86.3576 1399.92,-82.9706"/>
</g>
<!-- Node6 -->
<g id="node6" class="node"><title>Node6</title>
<polygon fill="white" stroke="#bfbfbf" points="918.561,-0.5 918.561,-19.5 959.561,-19.5 959.561,-0.5 918.561,-0.5"/>
<text text-anchor="middle" x="939.061" y="-7.5" font-family="Helvetica,sans-Serif" font-size="10.00">string</text>
</g>
<!-- Node2&#45;&gt;Node6 -->
<g id="edge5" class="edge"><title>Node2&#45;&gt;Node6</title>
<path fill="none" stroke="midnightblue" d="M578.601,-231.895C450.804,-229.089 178.304,-219.496 90.0608,-188 43.5682,-171.406 -23.7654,-148.87 9.06079,-112 70.296,-43.2219 753.013,-17.0355 907.926,-11.9575"/>
<polygon fill="midnightblue" stroke="midnightblue" points="908.27,-15.4484 918.152,-11.6281 908.044,-8.45198 908.27,-15.4484"/>
</g>
<!-- Node7 -->
<g id="node7" class="node"><title>Node7</title>
<polygon fill="white" stroke="#bfbfbf" points="581.061,-168.5 581.061,-187.5 629.061,-187.5 629.061,-168.5 581.061,-168.5"/>
<text text-anchor="middle" x="605.061" y="-175.5" font-family="Helvetica,sans-Serif" font-size="10.00">imgui.h</text>
</g>
<!-- Node2&#45;&gt;Node7 -->
<g id="edge6" class="edge"><title>Node2&#45;&gt;Node7</title>
<path fill="none" stroke="midnightblue" d="M639.29,-224.083C633.499,-216.455 625.002,-205.264 617.923,-195.941"/>
<polygon fill="midnightblue" stroke="midnightblue" points="620.54,-193.599 611.705,-187.751 614.965,-197.832 620.54,-193.599"/>
</g>
<!-- Node8 -->
<g id="node8" class="node"><title>Node8</title>
<polygon fill="white" stroke="#bfbfbf" points="647.561,-168.5 647.561,-187.5 724.561,-187.5 724.561,-168.5 647.561,-168.5"/>
<text text-anchor="middle" x="686.061" y="-175.5" font-family="Helvetica,sans-Serif" font-size="10.00">imgui&#45;SFML.h</text>
</g>
<!-- Node2&#45;&gt;Node8 -->
<g id="edge7" class="edge"><title>Node2&#45;&gt;Node8</title>
<path fill="none" stroke="midnightblue" d="M652.666,-224.083C658.316,-216.455 666.606,-205.264 673.512,-195.941"/>
<polygon fill="midnightblue" stroke="midnightblue" points="676.439,-197.87 679.579,-187.751 670.814,-193.703 676.439,-197.87"/>
</g>
<!-- Node9 -->
<g id="node9" class="node"><title>Node9</title>
<polygon fill="white" stroke="#bfbfbf" points="742.561,-168.5 742.561,-187.5 843.561,-187.5 843.561,-168.5 742.561,-168.5"/>
<text text-anchor="middle" x="793.061" y="-175.5" font-family="Helvetica,sans-Serif" font-size="10.00">SFML/OpenGL.hpp</text>
</g>
<!-- Node2&#45;&gt;Node9 -->
<g id="edge8" class="edge"><title>Node2&#45;&gt;Node9</title>
<path fill="none" stroke="midnightblue" d="M669.353,-224.444C693.868,-215.438 732.657,-201.189 760.261,-191.049"/>
<polygon fill="midnightblue" stroke="midnightblue" points="761.697,-194.25 769.877,-187.516 759.284,-187.679 761.697,-194.25"/>
</g>
<!-- Node2&#45;&gt;Node10 -->
<g id="edge9" class="edge"><title>Node2&#45;&gt;Node10</title>
<path fill="none" stroke="midnightblue" d="M713.285,-225.577C800.641,-215.93 953.286,-199.073 1049.01,-188.502"/>
<polygon fill="midnightblue" stroke="midnightblue" points="1049.4,-191.981 1058.95,-187.404 1048.63,-185.023 1049.4,-191.981"/>
</g>
<!-- Node14 -->
<g id="node14" class="node"><title>Node14</title>
<g id="a_node14"><a xlink:href="../../df/db4/Config_8hpp.html" target="_top" xlink:title="Small/Scripting/Config.hpp">
<polygon fill="white" stroke="black" points="873.561,-56.5 873.561,-75.5 1004.56,-75.5 1004.56,-56.5 873.561,-56.5"/>
<text text-anchor="middle" x="939.061" y="-63.5" font-family="Helvetica,sans-Serif" font-size="10.00">Small/Scripting/Config.hpp</text>
</a>
</g>
</g>
<!-- Node2&#45;&gt;Node14 -->
<g id="edge39" class="edge"><title>Node2&#45;&gt;Node14</title>
<path fill="none" stroke="midnightblue" d="M713.212,-225.81C770.108,-218.606 846.281,-205.995 871.061,-188 906.363,-162.364 925.744,-112.466 934.066,-85.4476"/>
<polygon fill="midnightblue" stroke="midnightblue" points="937.467,-86.2853 936.889,-75.7062 930.744,-84.337 937.467,-86.2853"/>
</g>
<!-- Node23 -->
<g id="node23" class="node"><title>Node23</title>
<g id="a_node23"><a xlink:href="../../dc/dbc/Profiler_8hpp.html" target="_top" xlink:title="Profiler from https://github.com/bwrsandman/imgui&#45;flame&#45;graph/ (example/main.cpp), updated for the project needs. ">
<polygon fill="white" stroke="black" points="439.061,-168.5 439.061,-187.5 563.061,-187.5 563.061,-168.5 439.061,-168.5"/>
<text text-anchor="middle" x="501.061" y="-175.5" font-family="Helvetica,sans-Serif" font-size="10.00">Small/Debug/Profiler.hpp</text>
</a>
</g>
</g>
<!-- Node2&#45;&gt;Node23 -->
<g id="edge34" class="edge"><title>Node2&#45;&gt;Node23</title>
<path fill="none" stroke="midnightblue" d="M623.085,-224.444C598.904,-215.438 560.643,-201.189 533.415,-191.049"/>
<polygon fill="midnightblue" stroke="midnightblue" points="534.522,-187.727 523.929,-187.516 532.079,-194.286 534.522,-187.727"/>
</g>
<!-- Node27 -->
<g id="node27" class="node"><title>Node27</title>
<polygon fill="white" stroke="#bfbfbf" points="18.0608,-112.5 18.0608,-131.5 86.0608,-131.5 86.0608,-112.5 18.0608,-112.5"/>
<text text-anchor="middle" x="52.0608" y="-119.5" font-family="Helvetica,sans-Serif" font-size="10.00">Ark/Ark.hpp</text>
</g>
<!-- Node2&#45;&gt;Node27 -->
<g id="edge38" class="edge"><title>Node2&#45;&gt;Node27</title>
<path fill="none" stroke="midnightblue" d="M579.037,-232.491C457.065,-230.703 204.036,-222.776 124.061,-188 99.5637,-177.348 77.7811,-154.94 64.7545,-139.435"/>
<polygon fill="midnightblue" stroke="midnightblue" points="67.4671,-137.223 58.4567,-131.65 62.0248,-141.626 67.4671,-137.223"/>
</g>
<!-- Node28 -->
<g id="node28" class="node"><title>Node28</title>
<g id="a_node28"><a xlink:href="../../d8/d82/SFMLtoArk_8hpp.html" target="_top" xlink:title="Convert SFML values to ArkScript values. ">
<polygon fill="white" stroke="black" points="133.061,-168.5 133.061,-187.5 287.061,-187.5 287.061,-168.5 133.061,-168.5"/>
<text text-anchor="middle" x="210.061" y="-175.5" font-family="Helvetica,sans-Serif" font-size="10.00">Small/Scripting/SFMLtoArk.hpp</text>
</a>
</g>
</g>
<!-- Node2&#45;&gt;Node28 -->
<g id="edge40" class="edge"><title>Node2&#45;&gt;Node28</title>
<path fill="none" stroke="midnightblue" d="M578.891,-224.681C500.698,-214.996 371.724,-199.023 288.866,-188.76"/>
<polygon fill="midnightblue" stroke="midnightblue" points="289.101,-185.263 278.746,-187.507 288.24,-192.21 289.101,-185.263"/>
</g>
<!-- Node31 -->
<g id="node31" class="node"><title>Node31</title>
<polygon fill="white" stroke="#bfbfbf" points="343.561,-168.5 343.561,-187.5 420.561,-187.5 420.561,-168.5 343.561,-168.5"/>
<text text-anchor="middle" x="382.061" y="-175.5" font-family="Helvetica,sans-Serif" font-size="10.00">Application.inl</text>
</g>
<!-- Node2&#45;&gt;Node31 -->
<g id="edge45" class="edge"><title>Node2&#45;&gt;Node31</title>
<path fill="none" stroke="midnightblue" d="M604.229,-224.444C557.03,-214.789 480.368,-199.108 430.58,-188.924"/>
<polygon fill="midnightblue" stroke="midnightblue" points="431.189,-185.477 420.69,-186.902 429.786,-192.335 431.189,-185.477"/>
</g>
<!-- Node10&#45;&gt;Node3 -->
<g id="edge12" class="edge"><title>Node10&#45;&gt;Node3</title>
<path fill="none" stroke="midnightblue" d="M1089.68,-168.426C1051.62,-160.664 996.08,-148.006 949.061,-132 905.641,-117.219 857.416,-94.4229 828.699,-80.1269"/>
<polygon fill="midnightblue" stroke="midnightblue" points="830.25,-76.9893 819.742,-75.6285 827.108,-83.2446 830.25,-76.9893"/>
</g>
<!-- Node10&#45;&gt;Node4 -->
<g id="edge14" class="edge"><title>Node10&#45;&gt;Node4</title>
<path fill="none" stroke="midnightblue" d="M1089.23,-168.456C1041.1,-159.465 963.241,-144.861 896.061,-132 797.065,-113.048 681.662,-90.4848 615.698,-77.5429"/>
<polygon fill="midnightblue" stroke="midnightblue" points="616.033,-74.0419 605.546,-75.5505 614.684,-80.9109 616.033,-74.0419"/>
</g>
<!-- Node10&#45;&gt;Node5 -->
<g id="edge13" class="edge"><title>Node10&#45;&gt;Node5</title>
<path fill="none" stroke="midnightblue" d="M1211.15,-173.191C1275.2,-168.249 1359.81,-157.058 1382.06,-132 1393.07,-119.603 1392.78,-100.084 1390.52,-85.6677"/>
<polygon fill="midnightblue" stroke="midnightblue" points="1393.95,-84.9662 1388.57,-75.8409 1387.08,-86.3315 1393.95,-84.9662"/>
</g>
<!-- Node11 -->
<g id="node11" class="node"><title>Node11</title>
<polygon fill="white" stroke="#bfbfbf" points="1344.06,-0.5 1344.06,-19.5 1386.06,-19.5 1386.06,-0.5 1344.06,-0.5"/>
<text text-anchor="middle" x="1365.06" y="-7.5" font-family="Helvetica,sans-Serif" font-size="10.00">vector</text>
</g>
<!-- Node10&#45;&gt;Node11 -->
<g id="edge10" class="edge"><title>Node10&#45;&gt;Node11</title>
<path fill="none" stroke="midnightblue" d="M1211.31,-175.924C1266.38,-172.395 1341.13,-161.789 1400.06,-132 1437.98,-112.831 1480.63,-91.9987 1458.06,-56 1450.9,-44.5805 1420.09,-31.0595 1395.87,-21.8403"/>
<polygon fill="midnightblue" stroke="midnightblue" points="1396.91,-18.4915 1386.32,-18.2915 1394.47,-25.0537 1396.91,-18.4915"/>
</g>
<!-- Node12 -->
<g id="node12" class="node"><title>Node12</title>
<polygon fill="white" stroke="#bfbfbf" points="1406.06,-0.5 1406.06,-19.5 1458.06,-19.5 1458.06,-0.5 1406.06,-0.5"/>
<text text-anchor="middle" x="1432.06" y="-7.5" font-family="Helvetica,sans-Serif" font-size="10.00">memory</text>
</g>
<!-- Node10&#45;&gt;Node12 -->
<g id="edge11" class="edge"><title>Node10&#45;&gt;Node12</title>
<path fill="none" stroke="midnightblue" d="M1211.07,-171.938C1286.41,-165.788 1395.68,-153.47 1432.06,-132 1465.48,-112.275 1489.5,-92.0217 1475.06,-56 1470.38,-44.328 1461.07,-33.9687 1452.31,-26.1405"/>
<polygon fill="midnightblue" stroke="midnightblue" points="1454.48,-23.4011 1444.56,-19.698 1450.01,-28.7832 1454.48,-23.4011"/>
</g>
<!-- Node10&#45;&gt;Node13 -->
<g id="edge15" class="edge"><title>Node10&#45;&gt;Node13</title>
<path fill="none" stroke="midnightblue" d="M1118.67,-168.324C1102.39,-159.703 1077.19,-146.364 1058.34,-136.386"/>
<polygon fill="midnightblue" stroke="midnightblue" points="1059.88,-133.24 1049.41,-131.655 1056.61,-139.427 1059.88,-133.24"/>
</g>
<!-- Node10&#45;&gt;Node14 -->
<g id="edge29" class="edge"><title>Node10&#45;&gt;Node14</title>
<path fill="none" stroke="midnightblue" d="M1058.83,-171.141C1027.37,-165.292 992.415,-153.92 967.061,-132 953.284,-120.089 946.074,-100.181 942.445,-85.5296"/>
<polygon fill="midnightblue" stroke="midnightblue" points="945.829,-84.6181 940.318,-75.5693 938.984,-86.0797 945.829,-84.6181"/>
</g>
<!-- Node17 -->
<g id="node17" class="node"><title>Node17</title>
<polygon fill="white" stroke="#bfbfbf" points="1477.56,-0.5 1477.56,-19.5 1626.56,-19.5 1626.56,-0.5 1477.56,-0.5"/>
<text text-anchor="middle" x="1552.06" y="-7.5" font-family="Helvetica,sans-Serif" font-size="10.00">SFML/Graphics/Transform.hpp</text>
</g>
<!-- Node10&#45;&gt;Node17 -->
<g id="edge30" class="edge"><title>Node10&#45;&gt;Node17</title>
<path fill="none" stroke="midnightblue" d="M1211.19,-173.06C1293.43,-167.654 1418.19,-155.768 1459.06,-132 1501.1,-107.551 1530.67,-55.958 1544.03,-28.7137"/>
<polygon fill="midnightblue" stroke="midnightblue" points="1547.24,-30.1081 1548.35,-19.5716 1540.92,-27.1161 1547.24,-30.1081"/>
</g>
<!-- Node20 -->
<g id="node20" class="node"><title>Node20</title>
<polygon fill="white" stroke="#bfbfbf" points="1108.06,-112.5 1108.06,-131.5 1158.06,-131.5 1158.06,-112.5 1108.06,-112.5"/>
<text text-anchor="middle" x="1133.06" y="-119.5" font-family="Helvetica,sans-Serif" font-size="10.00">typeinfo</text>
</g>
<!-- Node10&#45;&gt;Node20 -->
<g id="edge31" class="edge"><title>Node10&#45;&gt;Node20</title>
<path fill="none" stroke="midnightblue" d="M1134.73,-168.083C1134.47,-161.006 1134.09,-150.861 1133.76,-141.986"/>
<polygon fill="midnightblue" stroke="midnightblue" points="1137.25,-141.615 1133.38,-131.751 1130.26,-141.874 1137.25,-141.615"/>
</g>
<!-- Node21 -->
<g id="node21" class="node"><title>Node21</title>
<polygon fill="white" stroke="#bfbfbf" points="1176.56,-112.5 1176.56,-131.5 1259.56,-131.5 1259.56,-112.5 1176.56,-112.5"/>
<text text-anchor="middle" x="1218.06" y="-119.5" font-family="Helvetica,sans-Serif" font-size="10.00">unordered_map</text>
</g>
<!-- Node10&#45;&gt;Node21 -->
<g id="edge32" class="edge"><title>Node10&#45;&gt;Node21</title>
<path fill="none" stroke="midnightblue" d="M1148.4,-168.324C1161.22,-159.979 1180.85,-147.212 1196,-137.352"/>
<polygon fill="midnightblue" stroke="midnightblue" points="1198.29,-140.042 1204.76,-131.655 1194.47,-134.174 1198.29,-140.042"/>
</g>
<!-- Node22 -->
<g id="node22" class="node"><title>Node22</title>
<polygon fill="white" stroke="#bfbfbf" points="1277.56,-112.5 1277.56,-131.5 1372.56,-131.5 1372.56,-112.5 1277.56,-112.5"/>
<text text-anchor="middle" x="1325.06" y="-119.5" font-family="Helvetica,sans-Serif" font-size="10.00">SceneManager.inl</text>
</g>
<!-- Node10&#45;&gt;Node22 -->
<g id="edge33" class="edge"><title>Node10&#45;&gt;Node22</title>
<path fill="none" stroke="midnightblue" d="M1165.17,-168.444C1197.69,-159.201 1249.64,-144.436 1285.45,-134.257"/>
<polygon fill="midnightblue" stroke="midnightblue" points="1286.43,-137.617 1295.1,-131.516 1284.52,-130.884 1286.43,-137.617"/>
</g>
<!-- Node13&#45;&gt;Node3 -->
<g id="edge16" class="edge"><title>Node13&#45;&gt;Node3</title>
<path fill="none" stroke="midnightblue" d="M996.617,-112.444C956.662,-103.063 892.474,-87.9926 849.076,-77.8036"/>
<polygon fill="midnightblue" stroke="midnightblue" points="849.87,-74.3948 839.334,-75.5164 848.27,-81.2095 849.87,-74.3948"/>
</g>
<!-- Node13&#45;&gt;Node4 -->
<g id="edge18" class="edge"><title>Node13&#45;&gt;Node4</title>
<path fill="none" stroke="midnightblue" d="M975.778,-114.433C890.268,-104.629 729.265,-86.17 635.31,-75.398"/>
<polygon fill="midnightblue" stroke="midnightblue" points="635.647,-71.9138 625.313,-74.2519 634.849,-78.8682 635.647,-71.9138"/>
</g>
<!-- Node13&#45;&gt;Node5 -->
<g id="edge17" class="edge"><title>Node13&#45;&gt;Node5</title>
<path fill="none" stroke="midnightblue" d="M1088.99,-112.444C1151.87,-102.826 1253.83,-87.2275 1320.42,-77.0409"/>
<polygon fill="midnightblue" stroke="midnightblue" points="1321.03,-80.4884 1330.39,-75.5164 1319.97,-73.5689 1321.03,-80.4884"/>
</g>
<!-- Node13&#45;&gt;Node6 -->
<g id="edge19" class="edge"><title>Node13&#45;&gt;Node6</title>
<path fill="none" stroke="midnightblue" d="M1032.32,-112.097C1030.8,-98.656 1026.26,-72.9563 1013.06,-56 1001.77,-41.4979 984.394,-30.5858 969.314,-23.1414"/>
<polygon fill="midnightblue" stroke="midnightblue" points="970.369,-19.773 959.824,-18.7473 967.428,-26.1251 970.369,-19.773"/>
</g>
<!-- Node13&#45;&gt;Node14 -->
<g id="edge20" class="edge"><title>Node13&#45;&gt;Node14</title>
<path fill="none" stroke="midnightblue" d="M1017.96,-112.324C1003.16,-103.822 980.367,-90.7288 963.079,-80.7975"/>
<polygon fill="midnightblue" stroke="midnightblue" points="964.541,-77.6009 954.126,-75.6545 961.054,-83.6707 964.541,-77.6009"/>
</g>
<!-- Node15 -->
<g id="node15" class="node"><title>Node15</title>
<g id="a_node15"><a xlink:href="../../d7/dc6/Node_8hpp.html" target="_top" xlink:title="A scene graph node. ">
<polygon fill="white" stroke="black" points="1177.06,-56.5 1177.06,-75.5 1305.06,-75.5 1305.06,-56.5 1177.06,-56.5"/>
<text text-anchor="middle" x="1241.06" y="-63.5" font-family="Helvetica,sans-Serif" font-size="10.00">Small/Graphics/Node.hpp</text>
</a>
</g>
</g>
<!-- Node13&#45;&gt;Node15 -->
<g id="edge22" class="edge"><title>Node13&#45;&gt;Node15</title>
<path fill="none" stroke="midnightblue" d="M1066.02,-112.444C1101.85,-103.142 1159.22,-88.246 1198.45,-78.062"/>
<polygon fill="midnightblue" stroke="midnightblue" points="1199.46,-81.4171 1208.26,-75.5164 1197.7,-74.6417 1199.46,-81.4171"/>
</g>
<!-- Node19 -->
<g id="node19" class="node"><title>Node19</title>
<polygon fill="white" stroke="#bfbfbf" points="1061.56,-56.5 1061.56,-75.5 1118.56,-75.5 1118.56,-56.5 1061.56,-56.5"/>
<text text-anchor="middle" x="1090.06" y="-63.5" font-family="Helvetica,sans-Serif" font-size="10.00">Scene.inl</text>
</g>
<!-- Node13&#45;&gt;Node19 -->
<g id="edge28" class="edge"><title>Node13&#45;&gt;Node19</title>
<path fill="none" stroke="midnightblue" d="M1042.22,-112.324C1050.56,-104.42 1063.09,-92.5482 1073.24,-82.9377"/>
<polygon fill="midnightblue" stroke="midnightblue" points="1075.88,-85.2522 1080.74,-75.8339 1071.07,-80.1705 1075.88,-85.2522"/>
</g>
<!-- Node14&#45;&gt;Node6 -->
<g id="edge21" class="edge"><title>Node14&#45;&gt;Node6</title>
<path fill="none" stroke="midnightblue" d="M939.061,-56.083C939.061,-49.0059 939.061,-38.8611 939.061,-29.9865"/>
<polygon fill="midnightblue" stroke="midnightblue" points="942.561,-29.751 939.061,-19.7511 935.561,-29.7511 942.561,-29.751"/>
</g>
<!-- Node15&#45;&gt;Node11 -->
<g id="edge26" class="edge"><title>Node15&#45;&gt;Node11</title>
<path fill="none" stroke="midnightblue" d="M1260.71,-56.4435C1281.03,-47.5961 1312.96,-33.6875 1336.16,-23.5865"/>
<polygon fill="midnightblue" stroke="midnightblue" points="1337.73,-26.7181 1345.5,-19.5164 1334.94,-20.3002 1337.73,-26.7181"/>
</g>
<!-- Node15&#45;&gt;Node12 -->
<g id="edge27" class="edge"><title>Node15&#45;&gt;Node12</title>
<path fill="none" stroke="midnightblue" d="M1271.33,-56.4435C1305.27,-46.8477 1360.26,-31.2984 1396.3,-21.1104"/>
<polygon fill="midnightblue" stroke="midnightblue" points="1397.26,-24.4771 1405.93,-18.3884 1395.35,-17.7411 1397.26,-24.4771"/>
</g>
<!-- Node16 -->
<g id="node16" class="node"><title>Node16</title>
<polygon fill="white" stroke="#bfbfbf" points="1159.06,-0.5 1159.06,-19.5 1323.06,-19.5 1323.06,-0.5 1159.06,-0.5"/>
<text text-anchor="middle" x="1241.06" y="-7.5" font-family="Helvetica,sans-Serif" font-size="10.00">SFML/Graphics/RenderTarget.hpp</text>
</g>
<!-- Node15&#45;&gt;Node16 -->
<g id="edge23" class="edge"><title>Node15&#45;&gt;Node16</title>
<path fill="none" stroke="midnightblue" d="M1241.06,-56.083C1241.06,-49.0059 1241.06,-38.8611 1241.06,-29.9865"/>
<polygon fill="midnightblue" stroke="midnightblue" points="1244.56,-29.751 1241.06,-19.7511 1237.56,-29.7511 1244.56,-29.751"/>
</g>
<!-- Node15&#45;&gt;Node17 -->
<g id="edge24" class="edge"><title>Node15&#45;&gt;Node17</title>
<path fill="none" stroke="midnightblue" d="M1290.34,-56.4435C1345.39,-46.8851 1434.46,-31.4195 1493.14,-21.2298"/>
<polygon fill="midnightblue" stroke="midnightblue" points="1493.76,-24.6757 1503.01,-19.5164 1492.56,-17.7788 1493.76,-24.6757"/>
</g>
<!-- Node18 -->
<g id="node18" class="node"><title>Node18</title>
<polygon fill="white" stroke="#bfbfbf" points="1005.56,-0.5 1005.56,-19.5 1140.56,-19.5 1140.56,-0.5 1005.56,-0.5"/>
<text text-anchor="middle" x="1073.06" y="-7.5" font-family="Helvetica,sans-Serif" font-size="10.00">SFML/System/Vector2.hpp</text>
</g>
<!-- Node15&#45;&gt;Node18 -->
<g id="edge25" class="edge"><title>Node15&#45;&gt;Node18</title>
<path fill="none" stroke="midnightblue" d="M1214.44,-56.4435C1186.06,-47.3196 1140.92,-32.8133 1109.31,-22.6509"/>
<polygon fill="midnightblue" stroke="midnightblue" points="1110.15,-19.2445 1099.56,-19.5164 1108.01,-25.9087 1110.15,-19.2445"/>
</g>
<!-- Node24 -->
<g id="node24" class="node"><title>Node24</title>
<polygon fill="white" stroke="#bfbfbf" points="452.061,-112.5 452.061,-131.5 490.061,-131.5 490.061,-112.5 452.061,-112.5"/>
<text text-anchor="middle" x="471.061" y="-119.5" font-family="Helvetica,sans-Serif" font-size="10.00">array</text>
</g>
<!-- Node23&#45;&gt;Node24 -->
<g id="edge35" class="edge"><title>Node23&#45;&gt;Node24</title>
<path fill="none" stroke="midnightblue" d="M496.107,-168.083C491.957,-160.613 485.908,-149.724 480.794,-140.52"/>
<polygon fill="midnightblue" stroke="midnightblue" points="483.839,-138.793 475.922,-131.751 477.719,-142.192 483.839,-138.793"/>
</g>
<!-- Node25 -->
<g id="node25" class="node"><title>Node25</title>
<polygon fill="white" stroke="#bfbfbf" points="508.061,-112.5 508.061,-131.5 554.061,-131.5 554.061,-112.5 508.061,-112.5"/>
<text text-anchor="middle" x="531.061" y="-119.5" font-family="Helvetica,sans-Serif" font-size="10.00">chrono</text>
</g>
<!-- Node23&#45;&gt;Node25 -->
<g id="edge36" class="edge"><title>Node23&#45;&gt;Node25</title>
<path fill="none" stroke="midnightblue" d="M506.015,-168.083C510.165,-160.613 516.214,-149.724 521.328,-140.52"/>
<polygon fill="midnightblue" stroke="midnightblue" points="524.402,-142.192 526.199,-131.751 518.283,-138.793 524.402,-142.192"/>
</g>
<!-- Node26 -->
<g id="node26" class="node"><title>Node26</title>
<polygon fill="white" stroke="#bfbfbf" points="572.061,-112.5 572.061,-131.5 716.061,-131.5 716.061,-112.5 572.061,-112.5"/>
<text text-anchor="middle" x="644.061" y="-119.5" font-family="Helvetica,sans-Serif" font-size="10.00">imgui_widget_flamegraph.hpp</text>
</g>
<!-- Node23&#45;&gt;Node26 -->
<g id="edge37" class="edge"><title>Node23&#45;&gt;Node26</title>
<path fill="none" stroke="midnightblue" d="M523.72,-168.444C547.463,-159.478 584.97,-145.314 611.799,-135.183"/>
<polygon fill="midnightblue" stroke="midnightblue" points="613.389,-138.324 621.508,-131.516 610.916,-131.775 613.389,-138.324"/>
</g>
<!-- Node28&#45;&gt;Node4 -->
<g id="edge42" class="edge"><title>Node28&#45;&gt;Node4</title>
<path fill="none" stroke="midnightblue" d="M245.802,-168.455C277.962,-160.367 326.285,-147.22 367.061,-132 386.807,-124.629 390.347,-119.456 410.061,-112 445.792,-98.4856 487.463,-86.3967 518.128,-78.1606"/>
<polygon fill="midnightblue" stroke="midnightblue" points="519.314,-81.4672 528.081,-75.5187 517.518,-74.7015 519.314,-81.4672"/>
</g>
<!-- Node28&#45;&gt;Node27 -->
<g id="edge41" class="edge"><title>Node28&#45;&gt;Node27</title>
<path fill="none" stroke="midnightblue" d="M185.025,-168.444C158.445,-159.359 116.252,-144.939 86.5374,-134.783"/>
<polygon fill="midnightblue" stroke="midnightblue" points="87.5738,-131.439 76.9792,-131.516 85.3099,-138.062 87.5738,-131.439"/>
</g>
<!-- Node29 -->
<g id="node29" class="node"><title>Node29</title>
<polygon fill="white" stroke="#bfbfbf" points="236.061,-112.5 236.061,-131.5 358.061,-131.5 358.061,-112.5 236.061,-112.5"/>
<text text-anchor="middle" x="297.061" y="-119.5" font-family="Helvetica,sans-Serif" font-size="10.00">SFML/System/Time.hpp</text>
</g>
<!-- Node28&#45;&gt;Node29 -->
<g id="edge43" class="edge"><title>Node28&#45;&gt;Node29</title>
<path fill="none" stroke="midnightblue" d="M224.039,-168.324C237.61,-159.9 258.441,-146.971 274.386,-137.074"/>
<polygon fill="midnightblue" stroke="midnightblue" points="276.467,-139.902 283.117,-131.655 272.775,-133.954 276.467,-139.902"/>
</g>
<!-- Node30 -->
<g id="node30" class="node"><title>Node30</title>
<polygon fill="white" stroke="#bfbfbf" points="104.561,-112.5 104.561,-131.5 217.561,-131.5 217.561,-112.5 104.561,-112.5"/>
<text text-anchor="middle" x="161.061" y="-119.5" font-family="Helvetica,sans-Serif" font-size="10.00">SFML/System/Utf.hpp</text>
</g>
<!-- Node28&#45;&gt;Node30 -->
<g id="edge44" class="edge"><title>Node28&#45;&gt;Node30</title>
<path fill="none" stroke="midnightblue" d="M201.969,-168.083C194.905,-160.298 184.473,-148.801 175.912,-139.367"/>
<polygon fill="midnightblue" stroke="midnightblue" points="178.313,-136.805 169.002,-131.751 173.13,-141.509 178.313,-136.805"/>
</g>
</g>
</svg>
        <g id="navigator" transform="translate(0 0)" fill="#404254">
                <rect fill="#f2f5e9" fill-opacity="0.5" stroke="#606060" stroke-width=".5" x="0" y="0" width="60" height="60"/>
                <use id="zoomplus" xlink:href="#zoomPlus" x="17" y="9" onmousedown="handleZoom(evt,'in')"/>
                <use id="zoomminus" xlink:href="#zoomMin" x="42" y="9" onmousedown="handleZoom(evt,'out')"/>
                <use id="reset" xlink:href="#resetDef" x="30" y="36" onmousedown="handleReset()"/>
                <g id="arrowUp" xlink:href="#dirArrow" transform="translate(30 24)" onmousedown="handlePan(0,-1)">
                  <use xlink:href="#rim" fill="#404040">
                        <set attributeName="fill" to="#808080" begin="arrowUp.mouseover" end="arrowUp.mouseout"/>
                  </use>
                  <path fill="none" stroke="white" stroke-width="1.5" d="M0,-3.0v7 M-2.5,-0.5L0,-3.0L2.5,-0.5"/>
                </g>
                <g id="arrowRight" xlink:href="#dirArrow" transform="rotate(90) translate(36 -43)" onmousedown="handlePan(1,0)">
                  <use xlink:href="#rim" fill="#404040">
                        <set attributeName="fill" to="#808080" begin="arrowRight.mouseover" end="arrowRight.mouseout"/>
                  </use>
                  <path fill="none" stroke="white" stroke-width="1.5" d="M0,-3.0v7 M-2.5,-0.5L0,-3.0L2.5,-0.5"/>
                </g>
                <g id="arrowDown" xlink:href="#dirArrow" transform="rotate(180) translate(-30 -48)" onmousedown="handlePan(0,1)">
                  <use xlink:href="#rim" fill="#404040">
                        <set attributeName="fill" to="#808080" begin="arrowDown.mouseover" end="arrowDown.mouseout"/>
                  </use>
                  <path fill="none" stroke="white" stroke-width="1.5" d="M0,-3.0v7 M-2.5,-0.5L0,-3.0L2.5,-0.5"/>
                </g>
                <g id="arrowLeft" xlink:href="#dirArrow" transform="rotate(270) translate(-36 17)" onmousedown="handlePan(-1,0)">
                  <use xlink:href="#rim" fill="#404040">
                        <set attributeName="fill" to="#808080" begin="arrowLeft.mouseover" end="arrowLeft.mouseout"/>
                  </use>
                  <path fill="none" stroke="white" stroke-width="1.5" d="M0,-3.0v7 M-2.5,-0.5L0,-3.0L2.5,-0.5"/>
                </g>
        </g>
        <svg viewBox="0 0 15 15" width="100%" height="30px" preserveAspectRatio="xMaxYMin meet">
         <g id="arrow_out" transform="scale(0.3 0.3)">
          <a xlink:href="Core_8hpp__incl_org.svg" target="_base">
           <rect id="button" ry="5" rx="5" y="6" x="6" height="38" width="38"
                fill="#f2f5e9" fill-opacity="0.5" stroke="#606060" stroke-width="1.0"/>
           <path id="arrow"
             d="M 11.500037,31.436501 C 11.940474,20.09759 22.043105,11.32322 32.158766,21.979434 L 37.068811,17.246167 C 37.068811,17.246167 37.088388,32 37.088388,32 L 22.160133,31.978069 C 22.160133,31.978069 26.997745,27.140456 26.997745,27.140456 C 18.528582,18.264221 13.291696,25.230495 11.500037,31.436501 z"
             style="fill:#404040;"/>
          </a>
         </g>
        </svg>
</svg>
