<?xml version="1.0" encoding="UTF-8" standalone="no"?>
<!DOCTYPE svg PUBLIC "-//W3C//DTD SVG 1.1//EN"
 "http://www.w3.org/Graphics/SVG/1.1/DTD/svg11.dtd">
<!-- Generated by graphviz version 2.49.0 (20210828.1703)
 -->
<!-- Title: C:/Users/folae/Documents/Code/Big&#45;Projects/ScriptWizards/SmallGameLibrary/include/Small/Core.hpp Pages: 1 -->
<svg width="2092pt" height="386pt"
 viewBox="0.00 0.00 2092.00 386.00" xmlns="http://www.w3.org/2000/svg" xmlns:xlink="http://www.w3.org/1999/xlink">
<g id="graph0" class="graph" transform="scale(1 1) rotate(0) translate(4 382)">
<title>C:/Users/folae/Documents/Code/Big&#45;Projects/ScriptWizards/SmallGameLibrary/include/Small/Core.hpp</title>
<polygon fill="white" stroke="transparent" points="-4,4 -4,-382 2088,-382 2088,4 -4,4"/>
<!-- Node1 -->
<g id="node1" class="node">
<title>Node1</title>
<g id="a_node1"><a xlink:title="Include all the files from the Core folder.">
<polygon fill="#bfbfbf" stroke="black" points="1202,-336.5 1202,-377.5 1405,-377.5 1405,-336.5 1202,-336.5"/>
<text text-anchor="start" x="1210" y="-365.5" font-family="Helvetica,sans-Serif" font-size="10.00">C:/Users/folae/Documents</text>
<text text-anchor="start" x="1210" y="-354.5" font-family="Helvetica,sans-Serif" font-size="10.00">/Code/Big&#45;Projects/ScriptWizards</text>
<text text-anchor="middle" x="1303.5" y="-343.5" font-family="Helvetica,sans-Serif" font-size="10.00">/SmallGameLibrary/include/Small/Core.hpp</text>
</a>
</g>
</g>
<!-- Node2 -->
<g id="node2" class="node">
<title>Node2</title>
<g id="a_node2"><a xlink:href="../../df/d3c/Application_8hpp.html" target="_top" xlink:title="Define the application hosting the scenes for the game.">
<polygon fill="white" stroke="black" points="567.5,-280.5 567.5,-299.5 701.5,-299.5 701.5,-280.5 567.5,-280.5"/>
<text text-anchor="middle" x="634.5" y="-287.5" font-family="Helvetica,sans-Serif" font-size="10.00">Small/Core/Application.hpp</text>
</a>
</g>
</g>
<!-- Node1&#45;&gt;Node2 -->
<g id="edge1" class="edge">
<title>Node1&#45;&gt;Node2</title>
<path fill="none" stroke="midnightblue" d="M1201.89,-346.13C1067.46,-333.07 833.39,-310.32 712.19,-298.55"/>
<polygon fill="midnightblue" stroke="midnightblue" points="712.18,-295.03 701.89,-297.55 711.51,-302 712.18,-295.03"/>
</g>
<!-- Node11 -->
<g id="node11" class="node">
<title>Node11</title>
<g id="a_node11"><a xlink:href="../../df/d74/SceneManager_8hpp.html" target="_top" xlink:title="Define the scene manager (creating, handling and destroying them)">
<polygon fill="white" stroke="black" points="1279.5,-224.5 1279.5,-243.5 1431.5,-243.5 1431.5,-224.5 1279.5,-224.5"/>
<text text-anchor="middle" x="1355.5" y="-231.5" font-family="Helvetica,sans-Serif" font-size="10.00">Small/Core/SceneManager.hpp</text>
</a>
</g>
</g>
<!-- Node1&#45;&gt;Node11 -->
<g id="edge60" class="edge">
<title>Node1&#45;&gt;Node11</title>
<path fill="none" stroke="midnightblue" d="M1311.97,-336.29C1321.91,-313.17 1338.24,-275.16 1347.82,-252.86"/>
<polygon fill="midnightblue" stroke="midnightblue" points="1351.08,-254.14 1351.81,-243.57 1344.65,-251.38 1351.08,-254.14"/>
</g>
<!-- Node18 -->
<g id="node18" class="node">
<title>Node18</title>
<g id="a_node18"><a xlink:href="../../db/de8/Scene_8hpp.html" target="_top" xlink:title="The base scene class and the scene states are defined here.">
<polygon fill="white" stroke="black" points="1071.5,-168.5 1071.5,-187.5 1185.5,-187.5 1185.5,-168.5 1071.5,-168.5"/>
<text text-anchor="middle" x="1128.5" y="-175.5" font-family="Helvetica,sans-Serif" font-size="10.00">Small/Core/Scene.hpp</text>
</a>
</g>
</g>
<!-- Node1&#45;&gt;Node18 -->
<g id="edge61" class="edge">
<title>Node1&#45;&gt;Node18</title>
<path fill="none" stroke="midnightblue" d="M1284.1,-336.38C1249.15,-301.03 1176.27,-227.32 1144.21,-194.89"/>
<polygon fill="midnightblue" stroke="midnightblue" points="1146.51,-192.23 1136.99,-187.58 1141.53,-197.16 1146.51,-192.23"/>
</g>
<!-- Node23 -->
<g id="node23" class="node">
<title>Node23</title>
<g id="a_node23"><a xlink:href="../../dc/d6f/RessourceManager_8hpp.html" target="_top" xlink:title=" ">
<polygon fill="white" stroke="black" points="1754.5,-112.5 1754.5,-131.5 1924.5,-131.5 1924.5,-112.5 1754.5,-112.5"/>
<text text-anchor="middle" x="1839.5" y="-119.5" font-family="Helvetica,sans-Serif" font-size="10.00">Small/Core/RessourceManager.hpp</text>
</a>
</g>
</g>
<!-- Node1&#45;&gt;Node23 -->
<g id="edge59" class="edge">
<title>Node1&#45;&gt;Node23</title>
<path fill="none" stroke="midnightblue" d="M1348.74,-336.34C1455.67,-289.85 1721.67,-174.22 1810.27,-135.71"/>
<polygon fill="midnightblue" stroke="midnightblue" points="1811.93,-138.8 1819.7,-131.61 1809.14,-132.38 1811.93,-138.8"/>
</g>
<!-- Node3 -->
<g id="node3" class="node">
<title>Node3</title>
<g id="a_node3"><a xlink:title=" ">
<polygon fill="white" stroke="#bfbfbf" points="1052,-0.5 1052,-19.5 1093,-19.5 1093,-0.5 1052,-0.5"/>
<text text-anchor="middle" x="1072.5" y="-7.5" font-family="Helvetica,sans-Serif" font-size="10.00">string</text>
</a>
</g>
</g>
<!-- Node2&#45;&gt;Node3 -->
<g id="edge2" class="edge">
<title>Node2&#45;&gt;Node3</title>
<path fill="none" stroke="midnightblue" d="M634.63,-280.4C634.33,-266.41 631.6,-238.8 615.5,-224 554.77,-168.15 387.65,-232.98 438.5,-168 515.08,-70.15 925.19,-24.77 1041.65,-13.74"/>
<polygon fill="midnightblue" stroke="midnightblue" points="1042.04,-17.22 1051.67,-12.81 1041.39,-10.25 1042.04,-17.22"/>
</g>
<!-- Node4 -->
<g id="node4" class="node">
<title>Node4</title>
<g id="a_node4"><a xlink:title=" ">
<polygon fill="white" stroke="#bfbfbf" points="95.5,-224.5 95.5,-243.5 145.5,-243.5 145.5,-224.5 95.5,-224.5"/>
<text text-anchor="middle" x="120.5" y="-231.5" font-family="Helvetica,sans-Serif" font-size="10.00">optional</text>
</a>
</g>
</g>
<!-- Node2&#45;&gt;Node4 -->
<g id="edge3" class="edge">
<title>Node2&#45;&gt;Node4</title>
<path fill="none" stroke="midnightblue" d="M567.25,-286.2C475.98,-281.63 307.78,-270.45 155.64,-243.92"/>
<polygon fill="midnightblue" stroke="midnightblue" points="156.1,-240.45 145.65,-242.15 154.88,-247.34 156.1,-240.45"/>
</g>
<!-- Node5 -->
<g id="node5" class="node">
<title>Node5</title>
<g id="a_node5"><a xlink:title=" ">
<polygon fill="white" stroke="#bfbfbf" points="846.5,-112.5 846.5,-131.5 950.5,-131.5 950.5,-112.5 846.5,-112.5"/>
<text text-anchor="middle" x="898.5" y="-119.5" font-family="Helvetica,sans-Serif" font-size="10.00">SFML/Graphics.hpp</text>
</a>
</g>
</g>
<!-- Node2&#45;&gt;Node5 -->
<g id="edge4" class="edge">
<title>Node2&#45;&gt;Node5</title>
<path fill="none" stroke="midnightblue" d="M701.52,-280.93C753.46,-273.51 820.06,-261.06 841.5,-244 874.25,-217.93 889.14,-168.59 895.08,-141.67"/>
<polygon fill="midnightblue" stroke="midnightblue" points="898.56,-142.13 897.11,-131.63 891.7,-140.74 898.56,-142.13"/>
</g>
<!-- Node6 -->
<g id="node6" class="node">
<title>Node6</title>
<g id="a_node6"><a xlink:title=" ">
<polygon fill="white" stroke="#bfbfbf" points="702.5,-112.5 702.5,-131.5 828.5,-131.5 828.5,-112.5 702.5,-112.5"/>
<text text-anchor="middle" x="765.5" y="-119.5" font-family="Helvetica,sans-Serif" font-size="10.00">SFML/Window/Event.hpp</text>
</a>
</g>
</g>
<!-- Node2&#45;&gt;Node6 -->
<g id="edge5" class="edge">
<title>Node2&#45;&gt;Node6</title>
<path fill="none" stroke="midnightblue" d="M701.69,-281.98C750.31,-275.35 810.09,-263.46 825.5,-244 837.49,-228.86 825.28,-192.02 811.5,-168 804.95,-156.57 794.67,-146.13 785.49,-138.18"/>
<polygon fill="midnightblue" stroke="midnightblue" points="787.46,-135.27 777.51,-131.63 783.02,-140.68 787.46,-135.27"/>
</g>
<!-- Node7 -->
<g id="node7" class="node">
<title>Node7</title>
<g id="a_node7"><a xlink:title=" ">
<polygon fill="white" stroke="#bfbfbf" points="1378.5,-112.5 1378.5,-131.5 1504.5,-131.5 1504.5,-112.5 1378.5,-112.5"/>
<text text-anchor="middle" x="1441.5" y="-119.5" font-family="Helvetica,sans-Serif" font-size="10.00">SFML/System/Clock.hpp</text>
</a>
</g>
</g>
<!-- Node2&#45;&gt;Node7 -->
<g id="edge6" class="edge">
<title>Node2&#45;&gt;Node7</title>
<path fill="none" stroke="midnightblue" d="M685.55,-280.42C738.19,-271.52 822.64,-257.1 895.5,-244 1028.56,-220.07 1063.1,-219.82 1194.5,-188 1224.7,-180.69 1231.53,-176.22 1261.5,-168 1306.79,-155.59 1358.88,-142.72 1395.33,-133.94"/>
<polygon fill="midnightblue" stroke="midnightblue" points="1396.27,-137.31 1405.17,-131.57 1394.63,-130.5 1396.27,-137.31"/>
</g>
<!-- Node8 -->
<g id="node8" class="node">
<title>Node8</title>
<g id="a_node8"><a xlink:title=" ">
<polygon fill="white" stroke="#bfbfbf" points="343.5,-224.5 343.5,-243.5 391.5,-243.5 391.5,-224.5 343.5,-224.5"/>
<text text-anchor="middle" x="367.5" y="-231.5" font-family="Helvetica,sans-Serif" font-size="10.00">imgui.h</text>
</a>
</g>
</g>
<!-- Node2&#45;&gt;Node8 -->
<g id="edge7" class="edge">
<title>Node2&#45;&gt;Node8</title>
<path fill="none" stroke="midnightblue" d="M585.2,-280.48C537.9,-272.08 464.56,-258.42 401.5,-244 401.4,-243.98 401.3,-243.95 401.2,-243.93"/>
<polygon fill="midnightblue" stroke="midnightblue" points="402.14,-240.56 391.6,-241.59 400.49,-247.36 402.14,-240.56"/>
</g>
<!-- Node9 -->
<g id="node9" class="node">
<title>Node9</title>
<g id="a_node9"><a xlink:title=" ">
<polygon fill="white" stroke="#bfbfbf" points="410,-224.5 410,-243.5 487,-243.5 487,-224.5 410,-224.5"/>
<text text-anchor="middle" x="448.5" y="-231.5" font-family="Helvetica,sans-Serif" font-size="10.00">imgui&#45;SFML.h</text>
</a>
</g>
</g>
<!-- Node2&#45;&gt;Node9 -->
<g id="edge8" class="edge">
<title>Node2&#45;&gt;Node9</title>
<path fill="none" stroke="midnightblue" d="M605.03,-280.44C573.33,-271.24 522.77,-256.56 487.73,-246.39"/>
<polygon fill="midnightblue" stroke="midnightblue" points="488.41,-242.94 477.83,-243.52 486.46,-249.67 488.41,-242.94"/>
</g>
<!-- Node10 -->
<g id="node10" class="node">
<title>Node10</title>
<g id="a_node10"><a xlink:title=" ">
<polygon fill="white" stroke="#bfbfbf" points="505,-224.5 505,-243.5 606,-243.5 606,-224.5 505,-224.5"/>
<text text-anchor="middle" x="555.5" y="-231.5" font-family="Helvetica,sans-Serif" font-size="10.00">SFML/OpenGL.hpp</text>
</a>
</g>
</g>
<!-- Node2&#45;&gt;Node10 -->
<g id="edge9" class="edge">
<title>Node2&#45;&gt;Node10</title>
<path fill="none" stroke="midnightblue" d="M621.81,-280.32C609.6,-271.98 590.92,-259.21 576.5,-249.35"/>
<polygon fill="midnightblue" stroke="midnightblue" points="578.39,-246.41 568.16,-243.65 574.44,-252.19 578.39,-246.41"/>
</g>
<!-- Node2&#45;&gt;Node11 -->
<g id="edge10" class="edge">
<title>Node2&#45;&gt;Node11</title>
<path fill="none" stroke="midnightblue" d="M701.68,-283.97C833.03,-274.13 1123.71,-252.36 1269.13,-241.47"/>
<polygon fill="midnightblue" stroke="midnightblue" points="1269.63,-244.94 1279.34,-240.7 1269.11,-237.96 1269.63,-244.94"/>
</g>
<!-- Node19 -->
<g id="node19" class="node">
<title>Node19</title>
<g id="a_node19"><a xlink:href="../../df/db4/Config_8hpp.html" target="_top" xlink:title=" ">
<polygon fill="white" stroke="black" points="969,-112.5 969,-131.5 1100,-131.5 1100,-112.5 969,-112.5"/>
<text text-anchor="middle" x="1034.5" y="-119.5" font-family="Helvetica,sans-Serif" font-size="10.00">Small/Scripting/Config.hpp</text>
</a>
</g>
</g>
<!-- Node2&#45;&gt;Node19 -->
<g id="edge52" class="edge">
<title>Node2&#45;&gt;Node19</title>
<path fill="none" stroke="midnightblue" d="M701.59,-283.33C748.44,-277.59 811.64,-266.23 863.5,-244 926.17,-217.14 988.77,-164.72 1017.78,-138.59"/>
<polygon fill="midnightblue" stroke="midnightblue" points="1020.33,-140.99 1025.36,-131.67 1015.61,-135.83 1020.33,-140.99"/>
</g>
<!-- Node30 -->
<g id="node30" class="node">
<title>Node30</title>
<g id="a_node30"><a xlink:href="../../dc/dbc/Profiler_8hpp.html" target="_top" xlink:title="Profiler from https://github.com/bwrsandman/imgui&#45;flame&#45;graph/ (example/main.cpp),...">
<polygon fill="white" stroke="black" points="163.5,-224.5 163.5,-243.5 287.5,-243.5 287.5,-224.5 163.5,-224.5"/>
<text text-anchor="middle" x="225.5" y="-231.5" font-family="Helvetica,sans-Serif" font-size="10.00">Small/Debug/Profiler.hpp</text>
</a>
</g>
</g>
<!-- Node2&#45;&gt;Node30 -->
<g id="edge47" class="edge">
<title>Node2&#45;&gt;Node30</title>
<path fill="none" stroke="midnightblue" d="M569.69,-280.44C495.64,-270.67 374.79,-254.71 297.76,-244.54"/>
<polygon fill="midnightblue" stroke="midnightblue" points="298.03,-241.05 287.66,-243.21 297.11,-247.99 298.03,-241.05"/>
</g>
<!-- Node34 -->
<g id="node34" class="node">
<title>Node34</title>
<g id="a_node34"><a xlink:title=" ">
<polygon fill="white" stroke="#bfbfbf" points="447.5,-168.5 447.5,-187.5 515.5,-187.5 515.5,-168.5 447.5,-168.5"/>
<text text-anchor="middle" x="481.5" y="-175.5" font-family="Helvetica,sans-Serif" font-size="10.00">Ark/Ark.hpp</text>
</a>
</g>
</g>
<!-- Node2&#45;&gt;Node34 -->
<g id="edge51" class="edge">
<title>Node2&#45;&gt;Node34</title>
<path fill="none" stroke="midnightblue" d="M567.31,-288.7C488.23,-286.76 363.93,-278.17 334.5,-244 302.6,-206.95 383.22,-190.17 437.29,-183.27"/>
<polygon fill="midnightblue" stroke="midnightblue" points="437.86,-186.72 447.37,-182.05 437.02,-179.77 437.86,-186.72"/>
</g>
<!-- Node35 -->
<g id="node35" class="node">
<title>Node35</title>
<g id="a_node35"><a xlink:href="../../d8/d82/SFMLtoArk_8hpp.html" target="_top" xlink:title="Convert SFML values to ArkScript values.">
<polygon fill="white" stroke="black" points="662.5,-224.5 662.5,-243.5 816.5,-243.5 816.5,-224.5 662.5,-224.5"/>
<text text-anchor="middle" x="739.5" y="-231.5" font-family="Helvetica,sans-Serif" font-size="10.00">Small/Scripting/SFMLtoArk.hpp</text>
</a>
</g>
</g>
<!-- Node2&#45;&gt;Node35 -->
<g id="edge53" class="edge">
<title>Node2&#45;&gt;Node35</title>
<path fill="none" stroke="midnightblue" d="M651.37,-280.32C668.21,-271.66 694.31,-258.24 713.74,-248.25"/>
<polygon fill="midnightblue" stroke="midnightblue" points="715.38,-251.34 722.67,-243.65 712.18,-245.12 715.38,-251.34"/>
</g>
<!-- Node38 -->
<g id="node38" class="node">
<title>Node38</title>
<g id="a_node38"><a xlink:title=" ">
<polygon fill="white" stroke="#bfbfbf" points="0,-224.5 0,-243.5 77,-243.5 77,-224.5 0,-224.5"/>
<text text-anchor="middle" x="38.5" y="-231.5" font-family="Helvetica,sans-Serif" font-size="10.00">Application.inl</text>
</a>
</g>
</g>
<!-- Node2&#45;&gt;Node38 -->
<g id="edge58" class="edge">
<title>Node2&#45;&gt;Node38</title>
<path fill="none" stroke="midnightblue" d="M567.19,-285.72C465.51,-280.27 266.48,-267.66 87.35,-243.97"/>
<polygon fill="midnightblue" stroke="midnightblue" points="87.59,-240.47 77.22,-242.62 86.66,-247.41 87.59,-240.47"/>
</g>
<!-- Node11&#45;&gt;Node5 -->
<g id="edge16" class="edge">
<title>Node11&#45;&gt;Node5</title>
<path fill="none" stroke="midnightblue" d="M1279.3,-228.06C1215.12,-222.48 1121.43,-210.99 1042.5,-188 998.68,-175.24 951,-151.61 922.98,-136.63"/>
<polygon fill="midnightblue" stroke="midnightblue" points="924.38,-133.41 913.92,-131.72 921.05,-139.56 924.38,-133.41"/>
</g>
<!-- Node11&#45;&gt;Node6 -->
<g id="edge18" class="edge">
<title>Node11&#45;&gt;Node6</title>
<path fill="none" stroke="midnightblue" d="M1279.43,-227.47C1204.21,-221.13 1086.09,-208.83 985.5,-188 918.34,-174.1 841.99,-149.49 799.2,-134.87"/>
<polygon fill="midnightblue" stroke="midnightblue" points="800.18,-131.5 789.58,-131.55 797.9,-138.12 800.18,-131.5"/>
</g>
<!-- Node11&#45;&gt;Node7 -->
<g id="edge17" class="edge">
<title>Node11&#45;&gt;Node7</title>
<path fill="none" stroke="midnightblue" d="M1326.92,-224.49C1295.29,-213.59 1251.16,-193.09 1270.5,-168 1282.84,-152 1327.71,-140.55 1368.38,-133.21"/>
<polygon fill="midnightblue" stroke="midnightblue" points="1369.09,-136.64 1378.34,-131.48 1367.89,-129.74 1369.09,-136.64"/>
</g>
<!-- Node12 -->
<g id="node12" class="node">
<title>Node12</title>
<g id="a_node12"><a xlink:title=" ">
<polygon fill="white" stroke="#bfbfbf" points="1436.5,-56.5 1436.5,-75.5 1478.5,-75.5 1478.5,-56.5 1436.5,-56.5"/>
<text text-anchor="middle" x="1457.5" y="-63.5" font-family="Helvetica,sans-Serif" font-size="10.00">vector</text>
</a>
</g>
</g>
<!-- Node11&#45;&gt;Node12 -->
<g id="edge11" class="edge">
<title>Node11&#45;&gt;Node12</title>
<path fill="none" stroke="midnightblue" d="M1431.54,-231.28C1504.18,-227.83 1606.26,-217.68 1631.5,-188 1637.26,-181.23 1635.94,-175.7 1631.5,-168 1615.42,-140.08 1532.17,-99.96 1486.9,-79.71"/>
<polygon fill="midnightblue" stroke="midnightblue" points="1488.15,-76.44 1477.59,-75.59 1485.32,-82.84 1488.15,-76.44"/>
</g>
<!-- Node13 -->
<g id="node13" class="node">
<title>Node13</title>
<g id="a_node13"><a xlink:title=" ">
<polygon fill="white" stroke="#bfbfbf" points="1664.5,-56.5 1664.5,-75.5 1716.5,-75.5 1716.5,-56.5 1664.5,-56.5"/>
<text text-anchor="middle" x="1690.5" y="-63.5" font-family="Helvetica,sans-Serif" font-size="10.00">memory</text>
</a>
</g>
</g>
<!-- Node11&#45;&gt;Node13 -->
<g id="edge12" class="edge">
<title>Node11&#45;&gt;Node13</title>
<path fill="none" stroke="midnightblue" d="M1431.76,-231.59C1512.19,-228.47 1631.73,-218.64 1664.5,-188 1692.79,-161.55 1694.13,-112.36 1692.45,-85.56"/>
<polygon fill="midnightblue" stroke="midnightblue" points="1695.93,-85.26 1691.61,-75.58 1688.96,-85.84 1695.93,-85.26"/>
</g>
<!-- Node14 -->
<g id="node14" class="node">
<title>Node14</title>
<g id="a_node14"><a xlink:title=" ">
<polygon fill="white" stroke="#bfbfbf" points="1279.5,-168.5 1279.5,-187.5 1329.5,-187.5 1329.5,-168.5 1279.5,-168.5"/>
<text text-anchor="middle" x="1304.5" y="-175.5" font-family="Helvetica,sans-Serif" font-size="10.00">typeinfo</text>
</a>
</g>
</g>
<!-- Node11&#45;&gt;Node14 -->
<g id="edge13" class="edge">
<title>Node11&#45;&gt;Node14</title>
<path fill="none" stroke="midnightblue" d="M1347.08,-224.08C1339.65,-216.22 1328.65,-204.57 1319.69,-195.08"/>
<polygon fill="midnightblue" stroke="midnightblue" points="1322.18,-192.62 1312.76,-187.75 1317.09,-197.42 1322.18,-192.62"/>
</g>
<!-- Node15 -->
<g id="node15" class="node">
<title>Node15</title>
<g id="a_node15"><a xlink:title=" ">
<polygon fill="white" stroke="#bfbfbf" points="1347.5,-168.5 1347.5,-187.5 1405.5,-187.5 1405.5,-168.5 1347.5,-168.5"/>
<text text-anchor="middle" x="1376.5" y="-175.5" font-family="Helvetica,sans-Serif" font-size="10.00">functional</text>
</a>
</g>
</g>
<!-- Node11&#45;&gt;Node15 -->
<g id="edge14" class="edge">
<title>Node11&#45;&gt;Node15</title>
<path fill="none" stroke="midnightblue" d="M1358.97,-224.08C1361.81,-216.77 1365.93,-206.18 1369.46,-197.1"/>
<polygon fill="midnightblue" stroke="midnightblue" points="1372.73,-198.34 1373.1,-187.75 1366.21,-195.8 1372.73,-198.34"/>
</g>
<!-- Node16 -->
<g id="node16" class="node">
<title>Node16</title>
<g id="a_node16"><a xlink:title=" ">
<polygon fill="white" stroke="#bfbfbf" points="2001,-56.5 2001,-75.5 2084,-75.5 2084,-56.5 2001,-56.5"/>
<text text-anchor="middle" x="2042.5" y="-63.5" font-family="Helvetica,sans-Serif" font-size="10.00">unordered_map</text>
</a>
</g>
</g>
<!-- Node11&#45;&gt;Node16 -->
<g id="edge15" class="edge">
<title>Node11&#45;&gt;Node16</title>
<path fill="none" stroke="midnightblue" d="M1431.64,-229.65C1544.83,-222.49 1762.5,-200.28 1933.5,-132 1966.65,-118.76 2001.5,-96.24 2022.62,-81.5"/>
<polygon fill="midnightblue" stroke="midnightblue" points="2024.92,-84.16 2031.04,-75.51 2020.86,-78.45 2024.92,-84.16"/>
</g>
<!-- Node17 -->
<g id="node17" class="node">
<title>Node17</title>
<g id="a_node17"><a xlink:title=" ">
<polygon fill="white" stroke="#bfbfbf" points="1497,-56.5 1497,-75.5 1646,-75.5 1646,-56.5 1497,-56.5"/>
<text text-anchor="middle" x="1571.5" y="-63.5" font-family="Helvetica,sans-Serif" font-size="10.00">SFML/Graphics/Transform.hpp</text>
</a>
</g>
</g>
<!-- Node11&#45;&gt;Node17 -->
<g id="edge19" class="edge">
<title>Node11&#45;&gt;Node17</title>
<path fill="none" stroke="midnightblue" d="M1431.72,-232.04C1508.48,-229.26 1619.34,-219.68 1646.5,-188 1676.35,-153.18 1623.52,-105.27 1592.19,-81.54"/>
<polygon fill="midnightblue" stroke="midnightblue" points="1594.14,-78.62 1584.01,-75.51 1589.99,-84.26 1594.14,-78.62"/>
</g>
<!-- Node11&#45;&gt;Node18 -->
<g id="edge20" class="edge">
<title>Node11&#45;&gt;Node18</title>
<path fill="none" stroke="midnightblue" d="M1319.53,-224.44C1280.18,-215.08 1217.01,-200.06 1174.19,-189.87"/>
<polygon fill="midnightblue" stroke="midnightblue" points="1174.84,-186.43 1164.3,-187.52 1173.22,-193.24 1174.84,-186.43"/>
</g>
<!-- Node11&#45;&gt;Node19 -->
<g id="edge44" class="edge">
<title>Node11&#45;&gt;Node19</title>
<path fill="none" stroke="midnightblue" d="M1279.34,-229.57C1204.05,-224.75 1095.48,-213.5 1062.5,-188 1048.09,-176.86 1040.98,-156.83 1037.55,-141.94"/>
<polygon fill="midnightblue" stroke="midnightblue" points="1040.92,-140.94 1035.58,-131.79 1034.05,-142.27 1040.92,-140.94"/>
</g>
<!-- Node28 -->
<g id="node28" class="node">
<title>Node28</title>
<g id="a_node28"><a xlink:title=" ">
<polygon fill="white" stroke="#bfbfbf" points="1424,-168.5 1424,-187.5 1509,-187.5 1509,-168.5 1424,-168.5"/>
<text text-anchor="middle" x="1466.5" y="-175.5" font-family="Helvetica,sans-Serif" font-size="10.00">spdlog/spdlog.h</text>
</a>
</g>
</g>
<!-- Node11&#45;&gt;Node28 -->
<g id="edge45" class="edge">
<title>Node11&#45;&gt;Node28</title>
<path fill="none" stroke="midnightblue" d="M1373.33,-224.32C1391.22,-215.62 1418.98,-202.12 1439.55,-192.11"/>
<polygon fill="midnightblue" stroke="midnightblue" points="1441.25,-195.18 1448.71,-187.65 1438.19,-188.88 1441.25,-195.18"/>
</g>
<!-- Node29 -->
<g id="node29" class="node">
<title>Node29</title>
<g id="a_node29"><a xlink:title=" ">
<polygon fill="white" stroke="#bfbfbf" points="1527,-168.5 1527,-187.5 1622,-187.5 1622,-168.5 1527,-168.5"/>
<text text-anchor="middle" x="1574.5" y="-175.5" font-family="Helvetica,sans-Serif" font-size="10.00">SceneManager.inl</text>
</a>
</g>
</g>
<!-- Node11&#45;&gt;Node29 -->
<g id="edge46" class="edge">
<title>Node11&#45;&gt;Node29</title>
<path fill="none" stroke="midnightblue" d="M1390.2,-224.44C1428.08,-215.1 1488.85,-200.12 1530.16,-189.93"/>
<polygon fill="midnightblue" stroke="midnightblue" points="1531.09,-193.31 1539.96,-187.52 1529.41,-186.51 1531.09,-193.31"/>
</g>
<!-- Node18&#45;&gt;Node3 -->
<g id="edge21" class="edge">
<title>Node18&#45;&gt;Node3</title>
<path fill="none" stroke="midnightblue" d="M1126.46,-168.45C1123.35,-155.88 1117.01,-131.79 1109.5,-112 1103.22,-95.46 1098.9,-92.5 1092.5,-76 1086.5,-60.52 1081.06,-42.43 1077.37,-29.27"/>
<polygon fill="midnightblue" stroke="midnightblue" points="1080.72,-28.27 1074.71,-19.55 1073.97,-30.11 1080.72,-28.27"/>
</g>
<!-- Node18&#45;&gt;Node5 -->
<g id="edge22" class="edge">
<title>Node18&#45;&gt;Node5</title>
<path fill="none" stroke="midnightblue" d="M1092.06,-168.44C1052.1,-159.06 987.91,-143.99 944.52,-133.8"/>
<polygon fill="midnightblue" stroke="midnightblue" points="945.31,-130.39 934.77,-131.52 943.71,-137.21 945.31,-130.39"/>
</g>
<!-- Node18&#45;&gt;Node6 -->
<g id="edge24" class="edge">
<title>Node18&#45;&gt;Node6</title>
<path fill="none" stroke="midnightblue" d="M1071.38,-168.5C1006.81,-158.9 901.78,-143.27 833.15,-133.06"/>
<polygon fill="midnightblue" stroke="midnightblue" points="833.29,-129.55 822.88,-131.54 832.26,-136.47 833.29,-129.55"/>
</g>
<!-- Node18&#45;&gt;Node7 -->
<g id="edge23" class="edge">
<title>Node18&#45;&gt;Node7</title>
<path fill="none" stroke="midnightblue" d="M1178.1,-168.44C1233.5,-158.89 1323.14,-143.42 1382.21,-133.23"/>
<polygon fill="midnightblue" stroke="midnightblue" points="1382.88,-136.67 1392.14,-131.52 1381.69,-129.77 1382.88,-136.67"/>
</g>
<!-- Node18&#45;&gt;Node19 -->
<g id="edge25" class="edge">
<title>Node18&#45;&gt;Node19</title>
<path fill="none" stroke="midnightblue" d="M1113.4,-168.32C1098.6,-159.82 1075.81,-146.73 1058.52,-136.8"/>
<polygon fill="midnightblue" stroke="midnightblue" points="1059.98,-133.6 1049.57,-131.65 1056.49,-139.67 1059.98,-133.6"/>
</g>
<!-- Node20 -->
<g id="node20" class="node">
<title>Node20</title>
<g id="a_node20"><a xlink:href="../../d7/dc6/Node_8hpp.html" target="_top" xlink:title="A scene graph node.">
<polygon fill="white" stroke="black" points="1156.5,-112.5 1156.5,-131.5 1284.5,-131.5 1284.5,-112.5 1156.5,-112.5"/>
<text text-anchor="middle" x="1220.5" y="-119.5" font-family="Helvetica,sans-Serif" font-size="10.00">Small/Graphics/Node.hpp</text>
</a>
</g>
</g>
<!-- Node18&#45;&gt;Node20 -->
<g id="edge27" class="edge">
<title>Node18&#45;&gt;Node20</title>
<path fill="none" stroke="midnightblue" d="M1143.28,-168.32C1157.77,-159.82 1180.07,-146.73 1196.99,-136.8"/>
<polygon fill="midnightblue" stroke="midnightblue" points="1198.9,-139.74 1205.76,-131.65 1195.36,-133.7 1198.9,-139.74"/>
</g>
<!-- Node18&#45;&gt;Node23 -->
<g id="edge33" class="edge">
<title>Node18&#45;&gt;Node23</title>
<path fill="none" stroke="midnightblue" d="M1185.78,-172.65C1307.74,-163.39 1594.15,-141.63 1744.13,-130.24"/>
<polygon fill="midnightblue" stroke="midnightblue" points="1744.54,-133.72 1754.24,-129.48 1744.01,-126.74 1744.54,-133.72"/>
</g>
<!-- Node27 -->
<g id="node27" class="node">
<title>Node27</title>
<g id="a_node27"><a xlink:title=" ">
<polygon fill="white" stroke="#bfbfbf" points="1303,-112.5 1303,-131.5 1360,-131.5 1360,-112.5 1303,-112.5"/>
<text text-anchor="middle" x="1331.5" y="-119.5" font-family="Helvetica,sans-Serif" font-size="10.00">Scene.inl</text>
</a>
</g>
</g>
<!-- Node18&#45;&gt;Node27 -->
<g id="edge43" class="edge">
<title>Node18&#45;&gt;Node27</title>
<path fill="none" stroke="midnightblue" d="M1160.67,-168.44C1196.59,-158.89 1254.7,-143.43 1293,-133.24"/>
<polygon fill="midnightblue" stroke="midnightblue" points="1294,-136.6 1302.77,-130.64 1292.2,-129.83 1294,-136.6"/>
</g>
<!-- Node19&#45;&gt;Node3 -->
<g id="edge26" class="edge">
<title>Node19&#45;&gt;Node3</title>
<path fill="none" stroke="midnightblue" d="M1037.48,-112.37C1043.64,-94.54 1057.89,-53.3 1066.19,-29.27"/>
<polygon fill="midnightblue" stroke="midnightblue" points="1069.57,-30.19 1069.53,-19.59 1062.96,-27.9 1069.57,-30.19"/>
</g>
<!-- Node20&#45;&gt;Node12 -->
<g id="edge31" class="edge">
<title>Node20&#45;&gt;Node12</title>
<path fill="none" stroke="midnightblue" d="M1264.35,-112.49C1304.27,-104.52 1365.03,-91.81 1426.4,-76.14"/>
<polygon fill="midnightblue" stroke="midnightblue" points="1427.44,-79.48 1436.25,-73.6 1425.69,-72.7 1427.44,-79.48"/>
</g>
<!-- Node20&#45;&gt;Node13 -->
<g id="edge32" class="edge">
<title>Node20&#45;&gt;Node13</title>
<path fill="none" stroke="midnightblue" d="M1284.67,-113.11C1287.99,-112.73 1291.28,-112.36 1294.5,-112 1451.48,-94.63 1494.97,-103.77 1654.07,-76.01"/>
<polygon fill="midnightblue" stroke="midnightblue" points="1654.98,-79.4 1664.22,-74.22 1653.76,-72.51 1654.98,-79.4"/>
</g>
<!-- Node20&#45;&gt;Node17 -->
<g id="edge29" class="edge">
<title>Node20&#45;&gt;Node17</title>
<path fill="none" stroke="midnightblue" d="M1276.12,-112.44C1338.63,-102.83 1440.02,-87.23 1506.23,-77.04"/>
<polygon fill="midnightblue" stroke="midnightblue" points="1506.79,-80.5 1516.14,-75.52 1505.73,-73.58 1506.79,-80.5"/>
</g>
<!-- Node21 -->
<g id="node21" class="node">
<title>Node21</title>
<g id="a_node21"><a xlink:title=" ">
<polygon fill="white" stroke="#bfbfbf" points="1254.5,-56.5 1254.5,-75.5 1418.5,-75.5 1418.5,-56.5 1254.5,-56.5"/>
<text text-anchor="middle" x="1336.5" y="-63.5" font-family="Helvetica,sans-Serif" font-size="10.00">SFML/Graphics/RenderTarget.hpp</text>
</a>
</g>
</g>
<!-- Node20&#45;&gt;Node21 -->
<g id="edge28" class="edge">
<title>Node20&#45;&gt;Node21</title>
<path fill="none" stroke="midnightblue" d="M1238.88,-112.44C1257.72,-103.68 1287.23,-89.94 1308.88,-79.86"/>
<polygon fill="midnightblue" stroke="midnightblue" points="1310.62,-82.91 1318.21,-75.52 1307.66,-76.56 1310.62,-82.91"/>
</g>
<!-- Node22 -->
<g id="node22" class="node">
<title>Node22</title>
<g id="a_node22"><a xlink:title=" ">
<polygon fill="white" stroke="#bfbfbf" points="1101,-56.5 1101,-75.5 1236,-75.5 1236,-56.5 1101,-56.5"/>
<text text-anchor="middle" x="1168.5" y="-63.5" font-family="Helvetica,sans-Serif" font-size="10.00">SFML/System/Vector2.hpp</text>
</a>
</g>
</g>
<!-- Node20&#45;&gt;Node22 -->
<g id="edge30" class="edge">
<title>Node20&#45;&gt;Node22</title>
<path fill="none" stroke="midnightblue" d="M1211.91,-112.08C1204.34,-104.22 1193.12,-92.57 1183.99,-83.08"/>
<polygon fill="midnightblue" stroke="midnightblue" points="1186.38,-80.53 1176.93,-75.75 1181.34,-85.38 1186.38,-80.53"/>
</g>
<!-- Node23&#45;&gt;Node3 -->
<g id="edge34" class="edge">
<title>Node23&#45;&gt;Node3</title>
<path fill="none" stroke="midnightblue" d="M1825.41,-112.49C1797.33,-95.62 1736.19,-59.23 1725.5,-56 1606.82,-20.13 1216.02,-12.72 1103.23,-11.31"/>
<polygon fill="midnightblue" stroke="midnightblue" points="1103.24,-7.81 1093.2,-11.19 1103.16,-14.81 1103.24,-7.81"/>
</g>
<!-- Node23&#45;&gt;Node13 -->
<g id="edge35" class="edge">
<title>Node23&#45;&gt;Node13</title>
<path fill="none" stroke="midnightblue" d="M1815.89,-112.44C1791.04,-103.44 1751.73,-89.19 1723.75,-79.05"/>
<polygon fill="midnightblue" stroke="midnightblue" points="1724.59,-75.63 1714,-75.52 1722.21,-82.21 1724.59,-75.63"/>
</g>
<!-- Node23&#45;&gt;Node16 -->
<g id="edge36" class="edge">
<title>Node23&#45;&gt;Node16</title>
<path fill="none" stroke="midnightblue" d="M1871.67,-112.44C1906.56,-103.16 1962.39,-88.31 2000.67,-78.13"/>
<polygon fill="midnightblue" stroke="midnightblue" points="2001.72,-81.47 2010.48,-75.52 1999.92,-74.7 2001.72,-81.47"/>
</g>
<!-- Node24 -->
<g id="node24" class="node">
<title>Node24</title>
<g id="a_node24"><a xlink:title=" ">
<polygon fill="white" stroke="#bfbfbf" points="1761,-0.5 1761,-19.5 1900,-19.5 1900,-0.5 1761,-0.5"/>
<text text-anchor="middle" x="1830.5" y="-7.5" font-family="Helvetica,sans-Serif" font-size="10.00">SFML/Graphics/Texture.hpp</text>
</a>
</g>
</g>
<!-- Node23&#45;&gt;Node24 -->
<g id="edge37" class="edge">
<title>Node23&#45;&gt;Node24</title>
<path fill="none" stroke="midnightblue" d="M1864.62,-112.48C1892.21,-101.65 1930.72,-81.29 1915.5,-56 1906.21,-40.57 1889.67,-30.16 1873.63,-23.27"/>
<polygon fill="midnightblue" stroke="midnightblue" points="1874.89,-20.01 1864.3,-19.61 1872.33,-26.52 1874.89,-20.01"/>
</g>
<!-- Node25 -->
<g id="node25" class="node">
<title>Node25</title>
<g id="a_node25"><a xlink:title=" ">
<polygon fill="white" stroke="#bfbfbf" points="1918.5,-0.5 1918.5,-19.5 2044.5,-19.5 2044.5,-0.5 1918.5,-0.5"/>
<text text-anchor="middle" x="1981.5" y="-7.5" font-family="Helvetica,sans-Serif" font-size="10.00">SFML/Graphics/Font.hpp</text>
</a>
</g>
</g>
<!-- Node23&#45;&gt;Node25 -->
<g id="edge38" class="edge">
<title>Node23&#45;&gt;Node25</title>
<path fill="none" stroke="midnightblue" d="M1864.01,-112.36C1883.37,-104.75 1910.39,-92.34 1930.5,-76 1947.14,-62.48 1961.74,-42.58 1971.01,-28.37"/>
<polygon fill="midnightblue" stroke="midnightblue" points="1974.17,-29.91 1976.53,-19.58 1968.24,-26.19 1974.17,-29.91"/>
</g>
<!-- Node26 -->
<g id="node26" class="node">
<title>Node26</title>
<g id="a_node26"><a xlink:href="../../db/d73/Ressource_8hpp.html" target="_top" xlink:title=" ">
<polygon fill="white" stroke="black" points="1773,-56.5 1773,-75.5 1906,-75.5 1906,-56.5 1773,-56.5"/>
<text text-anchor="middle" x="1839.5" y="-63.5" font-family="Helvetica,sans-Serif" font-size="10.00">Small/Core/Ressource.hpp</text>
</a>
</g>
</g>
<!-- Node23&#45;&gt;Node26 -->
<g id="edge39" class="edge">
<title>Node23&#45;&gt;Node26</title>
<path fill="none" stroke="midnightblue" d="M1839.5,-112.08C1839.5,-105.01 1839.5,-94.86 1839.5,-85.99"/>
<polygon fill="midnightblue" stroke="midnightblue" points="1843,-85.75 1839.5,-75.75 1836,-85.75 1843,-85.75"/>
</g>
<!-- Node26&#45;&gt;Node3 -->
<g id="edge40" class="edge">
<title>Node26&#45;&gt;Node3</title>
<path fill="none" stroke="midnightblue" d="M1772.78,-57.35C1767.95,-56.87 1763.15,-56.41 1758.5,-56 1505.79,-33.68 1199.8,-17.4 1103.23,-12.52"/>
<polygon fill="midnightblue" stroke="midnightblue" points="1103.17,-9.01 1093.01,-12.01 1102.82,-16 1103.17,-9.01"/>
</g>
<!-- Node26&#45;&gt;Node24 -->
<g id="edge41" class="edge">
<title>Node26&#45;&gt;Node24</title>
<path fill="none" stroke="midnightblue" d="M1838.01,-56.08C1836.82,-48.93 1835.11,-38.64 1833.62,-29.69"/>
<polygon fill="midnightblue" stroke="midnightblue" points="1837.05,-29.04 1831.96,-19.75 1830.15,-30.19 1837.05,-29.04"/>
</g>
<!-- Node26&#45;&gt;Node25 -->
<g id="edge42" class="edge">
<title>Node26&#45;&gt;Node25</title>
<path fill="none" stroke="midnightblue" d="M1862,-56.44C1885.58,-47.48 1922.82,-33.31 1949.46,-23.18"/>
<polygon fill="midnightblue" stroke="midnightblue" points="1951,-26.34 1959.1,-19.52 1948.51,-19.8 1951,-26.34"/>
</g>
<!-- Node31 -->
<g id="node31" class="node">
<title>Node31</title>
<g id="a_node31"><a xlink:title=" ">
<polygon fill="white" stroke="#bfbfbf" points="127.5,-168.5 127.5,-187.5 165.5,-187.5 165.5,-168.5 127.5,-168.5"/>
<text text-anchor="middle" x="146.5" y="-175.5" font-family="Helvetica,sans-Serif" font-size="10.00">array</text>
</a>
</g>
</g>
<!-- Node30&#45;&gt;Node31 -->
<g id="edge48" class="edge">
<title>Node30&#45;&gt;Node31</title>
<path fill="none" stroke="midnightblue" d="M212.81,-224.32C200.6,-215.98 181.92,-203.21 167.5,-193.35"/>
<polygon fill="midnightblue" stroke="midnightblue" points="169.39,-190.41 159.16,-187.65 165.44,-196.19 169.39,-190.41"/>
</g>
<!-- Node32 -->
<g id="node32" class="node">
<title>Node32</title>
<g id="a_node32"><a xlink:title=" ">
<polygon fill="white" stroke="#bfbfbf" points="183.5,-168.5 183.5,-187.5 229.5,-187.5 229.5,-168.5 183.5,-168.5"/>
<text text-anchor="middle" x="206.5" y="-175.5" font-family="Helvetica,sans-Serif" font-size="10.00">chrono</text>
</a>
</g>
</g>
<!-- Node30&#45;&gt;Node32 -->
<g id="edge49" class="edge">
<title>Node30&#45;&gt;Node32</title>
<path fill="none" stroke="midnightblue" d="M222.36,-224.08C219.82,-216.85 216.14,-206.41 212.97,-197.4"/>
<polygon fill="midnightblue" stroke="midnightblue" points="216.2,-196.02 209.58,-187.75 209.6,-198.35 216.2,-196.02"/>
</g>
<!-- Node33 -->
<g id="node33" class="node">
<title>Node33</title>
<g id="a_node33"><a xlink:title=" ">
<polygon fill="white" stroke="#bfbfbf" points="247.5,-168.5 247.5,-187.5 391.5,-187.5 391.5,-168.5 247.5,-168.5"/>
<text text-anchor="middle" x="319.5" y="-175.5" font-family="Helvetica,sans-Serif" font-size="10.00">imgui_widget_flamegraph.hpp</text>
</a>
</g>
</g>
<!-- Node30&#45;&gt;Node33 -->
<g id="edge50" class="edge">
<title>Node30&#45;&gt;Node33</title>
<path fill="none" stroke="midnightblue" d="M240.6,-224.32C255.4,-215.82 278.19,-202.73 295.48,-192.8"/>
<polygon fill="midnightblue" stroke="midnightblue" points="297.51,-195.67 304.43,-187.65 294.02,-189.6 297.51,-195.67"/>
</g>
<!-- Node35&#45;&gt;Node6 -->
<g id="edge55" class="edge">
<title>Node35&#45;&gt;Node6</title>
<path fill="none" stroke="midnightblue" d="M757.58,-224.39C771.06,-216.87 788.47,-204.57 796.5,-188 804.46,-171.57 793.26,-152.74 782.16,-139.59"/>
<polygon fill="midnightblue" stroke="midnightblue" points="784.41,-136.87 775.08,-131.85 779.25,-141.59 784.41,-136.87"/>
</g>
<!-- Node35&#45;&gt;Node34 -->
<g id="edge54" class="edge">
<title>Node35&#45;&gt;Node34</title>
<path fill="none" stroke="midnightblue" d="M698.62,-224.44C651.39,-214.56 573.99,-198.36 525.49,-188.21"/>
<polygon fill="midnightblue" stroke="midnightblue" points="526.1,-184.76 515.6,-186.14 524.67,-191.61 526.1,-184.76"/>
</g>
<!-- Node36 -->
<g id="node36" class="node">
<title>Node36</title>
<g id="a_node36"><a xlink:title=" ">
<polygon fill="white" stroke="#bfbfbf" points="533.5,-168.5 533.5,-187.5 655.5,-187.5 655.5,-168.5 533.5,-168.5"/>
<text text-anchor="middle" x="594.5" y="-175.5" font-family="Helvetica,sans-Serif" font-size="10.00">SFML/System/Time.hpp</text>
</a>
</g>
</g>
<!-- Node35&#45;&gt;Node36 -->
<g id="edge56" class="edge">
<title>Node35&#45;&gt;Node36</title>
<path fill="none" stroke="midnightblue" d="M716.52,-224.44C692.34,-215.44 654.08,-201.19 626.85,-191.05"/>
<polygon fill="midnightblue" stroke="midnightblue" points="627.96,-187.73 617.37,-187.52 625.52,-194.29 627.96,-187.73"/>
</g>
<!-- Node37 -->
<g id="node37" class="node">
<title>Node37</title>
<g id="a_node37"><a xlink:title=" ">
<polygon fill="white" stroke="#bfbfbf" points="674,-168.5 674,-187.5 787,-187.5 787,-168.5 674,-168.5"/>
<text text-anchor="middle" x="730.5" y="-175.5" font-family="Helvetica,sans-Serif" font-size="10.00">SFML/System/Utf.hpp</text>
</a>
</g>
</g>
<!-- Node35&#45;&gt;Node37 -->
<g id="edge57" class="edge">
<title>Node35&#45;&gt;Node37</title>
<path fill="none" stroke="midnightblue" d="M738.01,-224.08C736.82,-216.93 735.11,-206.64 733.62,-197.69"/>
<polygon fill="midnightblue" stroke="midnightblue" points="737.05,-197.04 731.96,-187.75 730.15,-198.19 737.05,-197.04"/>
</g>
</g>
</svg>
