<?xml version="1.0" encoding="UTF-8" standalone="no"?>
<!DOCTYPE svg PUBLIC "-//W3C//DTD SVG 1.1//EN"
 "http://www.w3.org/Graphics/SVG/1.1/DTD/svg11.dtd">
<!-- Generated by graphviz version 2.38.0 (20140413.2041)
 -->
<!-- Title: include/Small/System/FileSystem.hpp Pages: 1 -->
<svg width="120pt" height="95pt"
 viewBox="0.00 0.00 120.00 95.00" xmlns="http://www.w3.org/2000/svg" xmlns:xlink="http://www.w3.org/1999/xlink">
<g id="graph0" class="graph" transform="scale(1 1) rotate(0) translate(4 91)">
<title>include/Small/System/FileSystem.hpp</title>
<polygon fill="white" stroke="none" points="-4,4 -4,-91 116,-91 116,4 -4,4"/>
<!-- Node1 -->
<g id="node1" class="node"><title>Node1</title>
<polygon fill="#bfbfbf" stroke="black" points="0,-56.5 0,-86.5 112,-86.5 112,-56.5 0,-56.5"/>
<text text-anchor="start" x="8" y="-74.5" font-family="Helvetica,sans-Serif" font-size="10.00">include/Small/System</text>
<text text-anchor="middle" x="56" y="-63.5" font-family="Helvetica,sans-Serif" font-size="10.00">/FileSystem.hpp</text>
</g>
<!-- Node2 -->
<g id="node2" class="node"><title>Node2</title>
<polygon fill="white" stroke="#bfbfbf" points="5.5,-0.5 5.5,-19.5 46.5,-19.5 46.5,-0.5 5.5,-0.5"/>
<text text-anchor="middle" x="26" y="-7.5" font-family="Helvetica,sans-Serif" font-size="10.00">string</text>
</g>
<!-- Node1&#45;&gt;Node2 -->
<g id="edge1" class="edge"><title>Node1&#45;&gt;Node2</title>
<path fill="none" stroke="midnightblue" d="M48.8904,-56.3993C44.7108,-48.1098 39.3887,-37.5542 34.9282,-28.7077"/>
<polygon fill="midnightblue" stroke="midnightblue" points="37.9927,-27.0112 30.3653,-19.6578 31.7422,-30.1628 37.9927,-27.0112"/>
</g>
<!-- Node3 -->
<g id="node3" class="node"><title>Node3</title>
<polygon fill="white" stroke="#bfbfbf" points="65,-0.5 65,-19.5 107,-19.5 107,-0.5 65,-0.5"/>
<text text-anchor="middle" x="86" y="-7.5" font-family="Helvetica,sans-Serif" font-size="10.00">vector</text>
</g>
<!-- Node1&#45;&gt;Node3 -->
<g id="edge2" class="edge"><title>Node1&#45;&gt;Node3</title>
<path fill="none" stroke="midnightblue" d="M63.1096,-56.3993C67.2892,-48.1098 72.6113,-37.5542 77.0718,-28.7077"/>
<polygon fill="midnightblue" stroke="midnightblue" points="80.2578,-30.1628 81.6347,-19.6578 74.0073,-27.0112 80.2578,-30.1628"/>
</g>
</g>
</svg>
