<?xml version="1.0" encoding="UTF-8" standalone="no"?>
<!DOCTYPE svg PUBLIC "-//W3C//DTD SVG 1.1//EN"
 "http://www.w3.org/Graphics/SVG/1.1/DTD/svg11.dtd">
<!-- Generated by graphviz version 2.49.0 (20210828.1703)
 -->
<!-- Title: sgl::Application Pages: 1 -->
<svg width="625pt" height="142pt"
 viewBox="0.00 0.00 625.00 142.00" xmlns="http://www.w3.org/2000/svg" xmlns:xlink="http://www.w3.org/1999/xlink">
<g id="graph0" class="graph" transform="scale(1 1) rotate(0) translate(4 138)">
<title>sgl::Application</title>
<polygon fill="white" stroke="transparent" points="-4,4 -4,-138 621,-138 621,4 -4,4"/>
<!-- Node1 -->
<g id="node1" class="node">
<title>Node1</title>
<g id="a_node1"><a xlink:title="The main component of the library, handling the scenes and running the app.">
<polygon fill="#bfbfbf" stroke="black" points="534,-59.5 534,-78.5 617,-78.5 617,-59.5 534,-59.5"/>
<text text-anchor="middle" x="575.5" y="-66.5" font-family="Helvetica,sans-Serif" font-size="10.00">sgl::Application</text>
</a>
</g>
</g>
<!-- Node2 -->
<g id="node2" class="node">
<title>Node2</title>
<g id="a_node2"><a xlink:href="../../d5/dac/structsgl_1_1Settings_1_1Keys.html" target="_top" xlink:title="Default keys configuration.">
<polygon fill="white" stroke="black" points="313.5,-114.5 313.5,-133.5 413.5,-133.5 413.5,-114.5 313.5,-114.5"/>
<text text-anchor="middle" x="363.5" y="-121.5" font-family="Helvetica,sans-Serif" font-size="10.00">sgl::Settings::Keys</text>
</a>
</g>
</g>
<!-- Node2&#45;&gt;Node1 -->
<g id="edge1" class="edge">
<title>Node2&#45;&gt;Node1</title>
<path fill="none" stroke="#9a32cd" stroke-dasharray="5,2" d="M423.79,-115.88C452.08,-111.19 486.19,-104.34 516,-95 529.79,-90.68 544.66,-84.04 555.96,-78.56"/>
<polygon fill="#9a32cd" stroke="#9a32cd" points="422.96,-112.47 413.64,-117.51 424.07,-119.38 422.96,-112.47"/>
<text text-anchor="middle" x="475.5" y="-116" font-family="Helvetica,sans-Serif" font-size="10.00"> m_keys</text>
</g>
<!-- Node3 -->
<g id="node3" class="node">
<title>Node3</title>
<g id="a_node3"><a xlink:href="../../de/dd2/classsgl_1_1SceneManager.html" target="_top" xlink:title="Scene manager, in charge of creating, handling and destroying scenes.">
<polygon fill="white" stroke="black" points="313,-76.5 313,-95.5 414,-95.5 414,-76.5 313,-76.5"/>
<text text-anchor="middle" x="363.5" y="-83.5" font-family="Helvetica,sans-Serif" font-size="10.00">sgl::SceneManager</text>
</a>
</g>
</g>
<!-- Node3&#45;&gt;Node1 -->
<g id="edge2" class="edge">
<title>Node3&#45;&gt;Node1</title>
<path fill="none" stroke="#9a32cd" stroke-dasharray="5,2" d="M424.12,-81.17C459.2,-78.33 502.63,-74.82 533.79,-72.3"/>
<polygon fill="#9a32cd" stroke="#9a32cd" points="423.69,-77.7 414,-81.99 424.25,-84.67 423.69,-77.7"/>
<text text-anchor="middle" x="475.5" y="-83" font-family="Helvetica,sans-Serif" font-size="10.00"> m_sceneManager</text>
</g>
<!-- Node4 -->
<g id="node4" class="node">
<title>Node4</title>
<g id="a_node4"><a xlink:href="../../d3/dcc/structsgl_1_1Scripting_1_1Config.html" target="_top" xlink:title="Host the scripting engine configuration.">
<polygon fill="white" stroke="black" points="310,-38.5 310,-57.5 417,-57.5 417,-38.5 310,-38.5"/>
<text text-anchor="middle" x="363.5" y="-45.5" font-family="Helvetica,sans-Serif" font-size="10.00">sgl::Scripting::Config</text>
</a>
</g>
</g>
<!-- Node4&#45;&gt;Node1 -->
<g id="edge3" class="edge">
<title>Node4&#45;&gt;Node1</title>
<path fill="none" stroke="#9a32cd" stroke-dasharray="5,2" d="M427.4,-51.2C454.69,-52.94 486.98,-55.47 516,-59 521.83,-59.71 527.96,-60.6 533.98,-61.55"/>
<polygon fill="#9a32cd" stroke="#9a32cd" points="427.4,-47.69 417.21,-50.57 426.97,-54.68 427.4,-47.69"/>
<text text-anchor="middle" x="475.5" y="-62" font-family="Helvetica,sans-Serif" font-size="10.00"> m_scriptingConfig</text>
</g>
<!-- Node5 -->
<g id="node5" class="node">
<title>Node5</title>
<g id="a_node5"><a xlink:title=" ">
<polygon fill="white" stroke="#bfbfbf" points="132,-38.5 132,-57.5 192,-57.5 192,-38.5 132,-38.5"/>
<text text-anchor="middle" x="162" y="-45.5" font-family="Helvetica,sans-Serif" font-size="10.00">std::string</text>
</a>
</g>
</g>
<!-- Node5&#45;&gt;Node4 -->
<g id="edge4" class="edge">
<title>Node5&#45;&gt;Node4</title>
<path fill="none" stroke="#9a32cd" stroke-dasharray="5,2" d="M202.34,-48C233.09,-48 276.12,-48 309.84,-48"/>
<polygon fill="#9a32cd" stroke="#9a32cd" points="202.01,-44.5 192.01,-48 202.01,-51.5 202.01,-44.5"/>
<text text-anchor="middle" x="251" y="-73" font-family="Helvetica,sans-Serif" font-size="10.00"> arkscriptLibDir</text>
<text text-anchor="middle" x="251" y="-62" font-family="Helvetica,sans-Serif" font-size="10.00">compiledScriptsDir</text>
<text text-anchor="middle" x="251" y="-51" font-family="Helvetica,sans-Serif" font-size="10.00">scriptsDirectory</text>
</g>
<!-- Node6 -->
<g id="node6" class="node">
<title>Node6</title>
<g id="a_node6"><a xlink:title=" ">
<polygon fill="white" stroke="#bfbfbf" points="0,-33 0,-63 95,-63 95,-33 0,-33"/>
<text text-anchor="start" x="8" y="-51" font-family="Helvetica,sans-Serif" font-size="10.00">std::basic_string&lt;</text>
<text text-anchor="middle" x="47.5" y="-40" font-family="Helvetica,sans-Serif" font-size="10.00"> Char &gt;</text>
</a>
</g>
</g>
<!-- Node6&#45;&gt;Node5 -->
<g id="edge5" class="edge">
<title>Node6&#45;&gt;Node5</title>
<path fill="none" stroke="midnightblue" d="M105.53,-48C114.68,-48 123.8,-48 131.93,-48"/>
<polygon fill="midnightblue" stroke="midnightblue" points="105.23,-44.5 95.23,-48 105.23,-51.5 105.23,-44.5"/>
</g>
<!-- Node7 -->
<g id="node7" class="node">
<title>Node7</title>
<g id="a_node7"><a xlink:href="../../d6/d13/classsgl_1_1internal_1_1Profiler.html" target="_top" xlink:title="Profiler used to display the time spent in each section of the application.">
<polygon fill="white" stroke="black" points="312,-0.5 312,-19.5 415,-19.5 415,-0.5 312,-0.5"/>
<text text-anchor="middle" x="363.5" y="-7.5" font-family="Helvetica,sans-Serif" font-size="10.00">sgl::internal::Profiler</text>
</a>
</g>
</g>
<!-- Node7&#45;&gt;Node1 -->
<g id="edge6" class="edge">
<title>Node7&#45;&gt;Node1</title>
<path fill="none" stroke="#9a32cd" stroke-dasharray="5,2" d="M425.19,-15.58C453.38,-19.39 487,-25.68 516,-36 532.26,-41.78 549.27,-51.91 560.73,-59.42"/>
<polygon fill="#9a32cd" stroke="#9a32cd" points="425.43,-12.08 415.07,-14.29 424.54,-19.03 425.43,-12.08"/>
<text text-anchor="middle" x="475.5" y="-39" font-family="Helvetica,sans-Serif" font-size="10.00"> m_profiler</text>
</g>
</g>
</svg>
