<?xml version="1.0" encoding="UTF-8" standalone="no"?>
<!DOCTYPE svg PUBLIC "-//W3C//DTD SVG 1.1//EN"
 "http://www.w3.org/Graphics/SVG/1.1/DTD/svg11.dtd">
<!-- Generated by graphviz version 2.38.0 (20140413.2041)
 -->
<!-- Title: sgl::Application Pages: 1 -->
<!--zoomable 373 -->
<svg id="main" version="1.1" xmlns="http://www.w3.org/2000/svg" xmlns:xlink="http://www.w3.org/1999/xlink" xml:space="preserve" onload="init(evt)">
<style type="text/css"><![CDATA[
.edge:hover path { stroke: red; }
.edge:hover polygon { stroke: red; fill: red; }
]]></style>
<script type="text/javascript"><![CDATA[
var edges = document.getElementsByTagName('g');
if (edges && edges.length) {
  for (var i=0;i<edges.length;i++) {
    if (edges[i].id.substr(0,4)=='edge') {
      edges[i].setAttribute('class','edge');
    }
  }
}
]]></script>
        <defs>
                <circle id="rim" cx="0" cy="0" r="7"/>
                <circle id="rim2" cx="0" cy="0" r="3.5"/>
                <g id="zoomPlus">
                        <use xlink:href="#rim" fill="#404040">
                                <set attributeName="fill" to="#808080" begin="zoomplus.mouseover" end="zoomplus.mouseout"/>
                        </use>
                        <path d="M-4,0h8M0,-4v8" fill="none" stroke="white" stroke-width="1.5" pointer-events="none"/>
                </g>
                <g id="zoomMin">
                        <use xlink:href="#rim" fill="#404040">
                                <set attributeName="fill" to="#808080" begin="zoomminus.mouseover" end="zoomminus.mouseout"/>
                        </use>
                        <path d="M-4,0h8" fill="none" stroke="white" stroke-width="1.5" pointer-events="none"/>
                </g>
                <g id="dirArrow">
                        <path fill="none" stroke="white" stroke-width="1.5" d="M0,-3.0v7 M-2.5,-0.5L0,-3.0L2.5,-0.5"/>
                </g>
               <g id="resetDef">
                       <use xlink:href="#rim2" fill="#404040">
                               <set attributeName="fill" to="#808080" begin="reset.mouseover" end="reset.mouseout"/>
                       </use>
               </g>
        </defs>

<script type="text/javascript">
var viewWidth = 1491;
var viewHeight = 373;
var sectionId = 'dynsection-0';
</script>
<script xlink:href="../../svgpan.js"/>
<svg id="graph" class="graph">
<g id="viewport">
<title>sgl::Application</title>
<polygon fill="white" stroke="none" points="-4,4 -4,-368.5 1487,-368.5 1487,4 -4,4"/>
<!-- Node1 -->
<g id="node1" class="node"><title>Node1</title>
<polygon fill="#bfbfbf" stroke="black" points="1382,-250.5 1382,-269.5 1465,-269.5 1465,-250.5 1382,-250.5"/>
<text text-anchor="middle" x="1423.5" y="-257.5" font-family="Helvetica,sans-Serif" font-size="10.00">sgl::Application</text>
</g>
<!-- Node2 -->
<g id="node2" class="node"><title>Node2</title>
<g id="a_node2"><a xlink:href="../../de/dd2/classsgl_1_1SceneManager.html" target="_top" xlink:title="Scene manager, in charge of creating, handling and destroying scenes. ">
<polygon fill="white" stroke="black" points="656,-154.5 656,-173.5 757,-173.5 757,-154.5 656,-154.5"/>
<text text-anchor="middle" x="706.5" y="-161.5" font-family="Helvetica,sans-Serif" font-size="10.00">sgl::SceneManager</text>
</a>
</g>
</g>
<!-- Node2&#45;&gt;Node1 -->
<g id="edge1" class="edge"><title>Node2&#45;&gt;Node1</title>
<path fill="none" stroke="#9a32cd" stroke-dasharray="5,2" d="M767.304,-171.029C770.244,-171.361 773.155,-171.686 776,-172 985.192,-195.096 1039.1,-188.23 1247,-221 1295.41,-228.63 1350.45,-241.57 1385.78,-250.437"/>
<polygon fill="#9a32cd" stroke="#9a32cd" points="767.583,-167.538 757.251,-169.885 766.791,-174.493 767.583,-167.538"/>
<text text-anchor="middle" x="1081" y="-207" font-family="Helvetica,sans-Serif" font-size="10.00"> m_sceneManager</text>
</g>
<!-- Node9 -->
<g id="node9" class="node"><title>Node9</title>
<g id="a_node9"><a xlink:href="../../d8/dcf/classsgl_1_1Scene.html" target="_top" xlink:title="Base class which every user scene must derive from. ">
<polygon fill="white" stroke="black" points="918,-116.5 918,-135.5 981,-135.5 981,-116.5 918,-116.5"/>
<text text-anchor="middle" x="949.5" y="-123.5" font-family="Helvetica,sans-Serif" font-size="10.00">sgl::Scene</text>
</a>
</g>
</g>
<!-- Node2&#45;&gt;Node9 -->
<g id="edge13" class="edge"><title>Node2&#45;&gt;Node9</title>
<path fill="none" stroke="#9a32cd" stroke-dasharray="5,2" d="M738.571,-150.612C750.118,-146.186 763.462,-141.706 776,-139 824.879,-128.45 883.146,-126.124 917.913,-125.787"/>
<polygon fill="#9a32cd" stroke="#9a32cd" points="736.948,-147.492 728.951,-154.442 739.537,-153.995 736.948,-147.492"/>
<text text-anchor="middle" x="817.5" y="-142" font-family="Helvetica,sans-Serif" font-size="10.00"> m_sceneManager</text>
</g>
<!-- Node3 -->
<g id="node3" class="node"><title>Node3</title>
<polygon fill="white" stroke="#bfbfbf" points="382.5,-149 382.5,-179 485.5,-179 485.5,-149 382.5,-149"/>
<text text-anchor="start" x="390.5" y="-167" font-family="Helvetica,sans-Serif" font-size="10.00">std::unordered_map</text>
<text text-anchor="middle" x="434" y="-156" font-family="Helvetica,sans-Serif" font-size="10.00">&lt; std::size_t, int &gt;</text>
</g>
<!-- Node3&#45;&gt;Node2 -->
<g id="edge2" class="edge"><title>Node3&#45;&gt;Node2</title>
<path fill="none" stroke="#9a32cd" stroke-dasharray="5,2" d="M495.861,-164C544.063,-164 610.562,-164 655.644,-164"/>
<polygon fill="#9a32cd" stroke="#9a32cd" points="495.562,-160.5 485.562,-164 495.562,-167.5 495.562,-160.5"/>
<text text-anchor="middle" x="584" y="-167" font-family="Helvetica,sans-Serif" font-size="10.00"> m_hashCodeToSceneId</text>
</g>
<!-- Node4 -->
<g id="node4" class="node"><title>Node4</title>
<g id="a_node4"><a xlink:title="STL class. ">
<polygon fill="white" stroke="#bfbfbf" points="108,-149 108,-179 211,-179 211,-149 108,-149"/>
<text text-anchor="start" x="116" y="-167" font-family="Helvetica,sans-Serif" font-size="10.00">std::unordered_map</text>
<text text-anchor="middle" x="159.5" y="-156" font-family="Helvetica,sans-Serif" font-size="10.00">&lt; K, T &gt;</text>
</a>
</g>
</g>
<!-- Node4&#45;&gt;Node3 -->
<g id="edge3" class="edge"><title>Node4&#45;&gt;Node3</title>
<path fill="none" stroke="orange" stroke-dasharray="5,2" d="M221.148,-164C269.552,-164 336.582,-164 382.193,-164"/>
<polygon fill="orange" stroke="orange" points="221.117,-160.5 211.117,-164 221.116,-167.5 221.117,-160.5"/>
<text text-anchor="middle" x="283" y="-167" font-family="Helvetica,sans-Serif" font-size="10.00"> &lt; std::size_t, int &gt;</text>
</g>
<!-- Node5 -->
<g id="node5" class="node"><title>Node5</title>
<polygon fill="white" stroke="#bfbfbf" points="0,-180.5 0,-199.5 29,-199.5 29,-180.5 0,-180.5"/>
<text text-anchor="middle" x="14.5" y="-187.5" font-family="Helvetica,sans-Serif" font-size="10.00">K</text>
</g>
<!-- Node5&#45;&gt;Node4 -->
<g id="edge4" class="edge"><title>Node5&#45;&gt;Node4</title>
<path fill="none" stroke="#9a32cd" stroke-dasharray="5,2" d="M39.1861,-185.693C57.8466,-182.301 84.5282,-177.449 107.929,-173.195"/>
<polygon fill="#9a32cd" stroke="#9a32cd" points="38.424,-182.275 29.2114,-187.507 39.6763,-189.162 38.424,-182.275"/>
<text text-anchor="middle" x="68.5" y="-187" font-family="Helvetica,sans-Serif" font-size="10.00"> keys</text>
</g>
<!-- Node6 -->
<g id="node6" class="node"><title>Node6</title>
<polygon fill="white" stroke="#bfbfbf" points="0,-95.5 0,-114.5 29,-114.5 29,-95.5 0,-95.5"/>
<text text-anchor="middle" x="14.5" y="-102.5" font-family="Helvetica,sans-Serif" font-size="10.00">T</text>
</g>
<!-- Node6&#45;&gt;Node4 -->
<g id="edge5" class="edge"><title>Node6&#45;&gt;Node4</title>
<path fill="none" stroke="#9a32cd" stroke-dasharray="5,2" d="M39.0299,-108.796C53.9817,-111.664 73.5484,-116.272 90,-123 106.677,-129.82 124.081,-140.286 137.173,-148.937"/>
<polygon fill="#9a32cd" stroke="#9a32cd" points="39.5296,-105.33 29.0688,-107.01 38.2938,-112.22 39.5296,-105.33"/>
<text text-anchor="middle" x="68.5" y="-126" font-family="Helvetica,sans-Serif" font-size="10.00"> elements</text>
</g>
<!-- Node12 -->
<g id="node12" class="node"><title>Node12</title>
<g id="a_node12"><a xlink:title="STL class. ">
<polygon fill="white" stroke="#bfbfbf" points="117,-34.5 117,-53.5 202,-53.5 202,-34.5 117,-34.5"/>
<text text-anchor="middle" x="159.5" y="-41.5" font-family="Helvetica,sans-Serif" font-size="10.00">std::vector&lt; T &gt;</text>
</a>
</g>
</g>
<!-- Node6&#45;&gt;Node12 -->
<g id="edge12" class="edge"><title>Node6&#45;&gt;Node12</title>
<path fill="none" stroke="#9a32cd" stroke-dasharray="5,2" d="M22.439,-86.1039C27.5023,-75.1278 35.5065,-62.1018 47,-55 67.6017,-42.2703 94.5365,-39.3206 116.772,-39.649"/>
<polygon fill="#9a32cd" stroke="#9a32cd" points="19.1905,-84.8006 18.5999,-95.379 25.6584,-87.4777 19.1905,-84.8006"/>
<text text-anchor="middle" x="68.5" y="-58" font-family="Helvetica,sans-Serif" font-size="10.00"> elements</text>
</g>
<!-- Node13 -->
<g id="node13" class="node"><title>Node13</title>
<g id="a_node13"><a xlink:title="STL class. ">
<polygon fill="white" stroke="#bfbfbf" points="231,-78.5 231,-97.5 335,-97.5 335,-78.5 231,-78.5"/>
<text text-anchor="middle" x="283" y="-85.5" font-family="Helvetica,sans-Serif" font-size="10.00">std::unique_ptr&lt; T &gt;</text>
</a>
</g>
</g>
<!-- Node6&#45;&gt;Node13 -->
<g id="edge15" class="edge"><title>Node6&#45;&gt;Node13</title>
<path fill="none" stroke="#9a32cd" stroke-dasharray="5,2" d="M39.0323,-97.6042C41.6992,-96.9672 44.3945,-96.4102 47,-96 109.706,-86.1271 182.94,-85.2966 230.776,-86.166"/>
<polygon fill="#9a32cd" stroke="#9a32cd" points="37.8554,-94.2976 29.1366,-100.317 39.7062,-101.049 37.8554,-94.2976"/>
<text text-anchor="middle" x="68.5" y="-99" font-family="Helvetica,sans-Serif" font-size="10.00"> ptr</text>
</g>
<!-- Node23 -->
<g id="node23" class="node"><title>Node23</title>
<g id="a_node23"><a xlink:title="STL class. ">
<polygon fill="white" stroke="#bfbfbf" points="119,-261.5 119,-280.5 200,-280.5 200,-261.5 119,-261.5"/>
<text text-anchor="middle" x="159.5" y="-268.5" font-family="Helvetica,sans-Serif" font-size="10.00">std::array&lt; T &gt;</text>
</a>
</g>
</g>
<!-- Node6&#45;&gt;Node23 -->
<g id="edge27" class="edge"><title>Node6&#45;&gt;Node23</title>
<path fill="none" stroke="#9a32cd" stroke-dasharray="5,2" d="M32.6217,-121.72C37.165,-125.887 42.1577,-130.237 47,-134 65.0073,-147.994 74.0045,-145.744 90,-162 98.1124,-170.244 137.892,-236.423 152.824,-261.455"/>
<polygon fill="#9a32cd" stroke="#9a32cd" points="34.7336,-118.901 25.0588,-114.583 29.9291,-123.992 34.7336,-118.901"/>
<text text-anchor="middle" x="68.5" y="-165" font-family="Helvetica,sans-Serif" font-size="10.00"> elements</text>
</g>
<!-- Node7 -->
<g id="node7" class="node"><title>Node7</title>
<polygon fill="white" stroke="#bfbfbf" points="1364,-89 1364,-119 1483,-119 1483,-89 1364,-89"/>
<text text-anchor="start" x="1372" y="-107" font-family="Helvetica,sans-Serif" font-size="10.00">std::vector&lt; std::unique</text>
<text text-anchor="middle" x="1423.5" y="-96" font-family="Helvetica,sans-Serif" font-size="10.00">_ptr&lt; sgl::Scene &gt; &gt;</text>
</g>
<!-- Node7&#45;&gt;Node2 -->
<g id="edge6" class="edge"><title>Node7&#45;&gt;Node2</title>
<path fill="none" stroke="#9a32cd" stroke-dasharray="5,2" d="M1353.67,-117.84C1351.08,-118.251 1348.52,-118.639 1346,-119 1302.26,-125.259 1291.03,-124.336 1247,-128 1147.06,-136.318 1122.05,-138.198 1022,-145 928.405,-151.363 819.067,-157.727 757.083,-161.236"/>
<polygon fill="#9a32cd" stroke="#9a32cd" points="1354.43,-121.262 1363.71,-116.16 1353.27,-114.358 1354.43,-121.262"/>
<text text-anchor="middle" x="1081" y="-147" font-family="Helvetica,sans-Serif" font-size="10.00"> m_scenes</text>
</g>
<!-- Node8 -->
<g id="node8" class="node"><title>Node8</title>
<polygon fill="white" stroke="#bfbfbf" points="1142,-89 1142,-119 1245,-119 1245,-89 1142,-89"/>
<text text-anchor="start" x="1150" y="-107" font-family="Helvetica,sans-Serif" font-size="10.00">std::unique_ptr&lt; sgl</text>
<text text-anchor="middle" x="1193.5" y="-96" font-family="Helvetica,sans-Serif" font-size="10.00">::Scene &gt;</text>
</g>
<!-- Node8&#45;&gt;Node7 -->
<g id="edge7" class="edge"><title>Node8&#45;&gt;Node7</title>
<path fill="none" stroke="#9a32cd" stroke-dasharray="5,2" d="M1255.28,-104C1288.98,-104 1330.66,-104 1363.99,-104"/>
<polygon fill="#9a32cd" stroke="#9a32cd" points="1255.1,-100.5 1245.1,-104 1255.1,-107.5 1255.1,-100.5"/>
<text text-anchor="middle" x="1305.5" y="-107" font-family="Helvetica,sans-Serif" font-size="10.00"> elements</text>
</g>
<!-- Node9&#45;&gt;Node8 -->
<g id="edge8" class="edge"><title>Node9&#45;&gt;Node8</title>
<path fill="none" stroke="#9a32cd" stroke-dasharray="5,2" d="M991.176,-122.302C1032.66,-118.531 1097.12,-112.671 1141.88,-108.601"/>
<polygon fill="#9a32cd" stroke="#9a32cd" points="990.791,-118.823 981.149,-123.214 991.425,-125.794 990.791,-118.823"/>
<text text-anchor="middle" x="1081" y="-121" font-family="Helvetica,sans-Serif" font-size="10.00"> ptr</text>
</g>
<!-- Node10 -->
<g id="node10" class="node"><title>Node10</title>
<g id="a_node10"><a xlink:href="../../dc/dee/classsgl_1_1Graphics_1_1Node.html" target="_top" xlink:title="Abstract base class for a scene graph node. ">
<polygon fill="white" stroke="black" points="655,-32.5 655,-51.5 758,-51.5 758,-32.5 655,-32.5"/>
<text text-anchor="middle" x="706.5" y="-39.5" font-family="Helvetica,sans-Serif" font-size="10.00">sgl::Graphics::Node</text>
</a>
</g>
</g>
<!-- Node10&#45;&gt;Node9 -->
<g id="edge9" class="edge"><title>Node10&#45;&gt;Node9</title>
<path fill="none" stroke="midnightblue" d="M744.693,-54.9634C793.462,-71.9618 877.888,-101.388 921.177,-116.477"/>
<polygon fill="midnightblue" stroke="midnightblue" points="745.741,-51.6222 735.146,-51.6359 743.437,-58.2322 745.741,-51.6222"/>
</g>
<!-- Node11 -->
<g id="node11" class="node"><title>Node11</title>
<polygon fill="white" stroke="#bfbfbf" points="361,-29 361,-59 507,-59 507,-29 361,-29"/>
<text text-anchor="start" x="369" y="-47" font-family="Helvetica,sans-Serif" font-size="10.00">std::vector&lt; std::shared</text>
<text text-anchor="middle" x="434" y="-36" font-family="Helvetica,sans-Serif" font-size="10.00">_ptr&lt; sgl::Graphics::Node &gt; &gt;</text>
</g>
<!-- Node11&#45;&gt;Node10 -->
<g id="edge10" class="edge"><title>Node11&#45;&gt;Node10</title>
<path fill="none" stroke="#9a32cd" stroke-dasharray="5,2" d="M517.152,-43.3926C562.058,-43.0606 616.247,-42.6599 654.949,-42.3738"/>
<polygon fill="#9a32cd" stroke="#9a32cd" points="517.108,-39.8927 507.134,-43.4667 517.159,-46.8925 517.108,-39.8927"/>
<text text-anchor="middle" x="584" y="-47" font-family="Helvetica,sans-Serif" font-size="10.00"> m_children</text>
</g>
<!-- Node12&#45;&gt;Node7 -->
<g id="edge16" class="edge"><title>Node12&#45;&gt;Node7</title>
<path fill="none" stroke="orange" stroke-dasharray="5,2" d="M206.266,-32.0145C260.116,-18.9858 352.414,-0 433,-0 433,-0 433,-0 1194.5,-0 1279.12,-0 1366.77,-60.0334 1404,-88.8775"/>
<polygon fill="orange" stroke="orange" points="205.223,-28.6668 196.347,-34.4527 206.893,-35.4645 205.223,-28.6668"/>
<text text-anchor="start" x="776" y="-14" font-family="Helvetica,sans-Serif" font-size="10.00"> &lt; std::unique_ptr&lt;</text>
<text text-anchor="middle" x="817.5" y="-3" font-family="Helvetica,sans-Serif" font-size="10.00"> sgl::Scene &gt; &gt;</text>
</g>
<!-- Node12&#45;&gt;Node11 -->
<g id="edge11" class="edge"><title>Node12&#45;&gt;Node11</title>
<path fill="none" stroke="orange" stroke-dasharray="5,2" d="M212.205,-44C254.254,-44 314.067,-44 360.835,-44"/>
<polygon fill="orange" stroke="orange" points="212.184,-40.5001 202.184,-44 212.183,-47.5001 212.184,-40.5001"/>
<text text-anchor="start" x="229" y="-58" font-family="Helvetica,sans-Serif" font-size="10.00"> &lt; std::shared_ptr&lt;</text>
<text text-anchor="middle" x="283" y="-47" font-family="Helvetica,sans-Serif" font-size="10.00"> sgl::Graphics::Node &gt; &gt;</text>
</g>
<!-- Node13&#45;&gt;Node8 -->
<g id="edge14" class="edge"><title>Node13&#45;&gt;Node8</title>
<path fill="none" stroke="orange" stroke-dasharray="5,2" d="M345.186,-88C405.62,-88 500.684,-88 583,-88 583,-88 583,-88 950.5,-88 1016.61,-88 1092.65,-94.0178 1141.58,-98.6722"/>
<polygon fill="orange" stroke="orange" points="345.054,-84.5001 335.054,-88 345.054,-91.5001 345.054,-84.5001"/>
<text text-anchor="middle" x="706.5" y="-91" font-family="Helvetica,sans-Serif" font-size="10.00"> &lt; sgl::Scene &gt;</text>
</g>
<!-- Node14 -->
<g id="node14" class="node"><title>Node14</title>
<g id="a_node14"><a xlink:href="../../d3/dcc/structsgl_1_1Scripting_1_1Config.html" target="_top" xlink:title="Host the scripting engine configuration. ">
<polygon fill="white" stroke="black" points="1140,-230.5 1140,-249.5 1247,-249.5 1247,-230.5 1140,-230.5"/>
<text text-anchor="middle" x="1193.5" y="-237.5" font-family="Helvetica,sans-Serif" font-size="10.00">sgl::Scripting::Config</text>
</a>
</g>
</g>
<!-- Node14&#45;&gt;Node1 -->
<g id="edge17" class="edge"><title>Node14&#45;&gt;Node1</title>
<path fill="none" stroke="#9a32cd" stroke-dasharray="5,2" d="M1257.3,-244.619C1284.57,-246.716 1316.88,-249.324 1346,-252 1357.57,-253.063 1370.11,-254.327 1381.63,-255.534"/>
<polygon fill="#9a32cd" stroke="#9a32cd" points="1257.35,-241.112 1247.11,-243.84 1256.82,-248.092 1257.35,-241.112"/>
<text text-anchor="middle" x="1305.5" y="-255" font-family="Helvetica,sans-Serif" font-size="10.00"> m_scriptingConfig</text>
</g>
<!-- Node15 -->
<g id="node15" class="node"><title>Node15</title>
<g id="a_node15"><a xlink:title="STL class. ">
<polygon fill="white" stroke="#bfbfbf" points="919.5,-230.5 919.5,-249.5 979.5,-249.5 979.5,-230.5 919.5,-230.5"/>
<text text-anchor="middle" x="949.5" y="-237.5" font-family="Helvetica,sans-Serif" font-size="10.00">std::string</text>
</a>
</g>
</g>
<!-- Node15&#45;&gt;Node14 -->
<g id="edge18" class="edge"><title>Node15&#45;&gt;Node14</title>
<path fill="none" stroke="#9a32cd" stroke-dasharray="5,2" d="M989.788,-240C1030.59,-240 1094.65,-240 1139.82,-240"/>
<polygon fill="#9a32cd" stroke="#9a32cd" points="989.691,-236.5 979.691,-240 989.691,-243.5 989.691,-236.5"/>
<text text-anchor="middle" x="1081" y="-265" font-family="Helvetica,sans-Serif" font-size="10.00"> arkscriptLibDir</text>
<text text-anchor="middle" x="1081" y="-254" font-family="Helvetica,sans-Serif" font-size="10.00">compiledScriptsDir</text>
<text text-anchor="middle" x="1081" y="-243" font-family="Helvetica,sans-Serif" font-size="10.00">scriptsDirectory</text>
</g>
<!-- Node16 -->
<g id="node16" class="node"><title>Node16</title>
<g id="a_node16"><a xlink:title="STL class. ">
<polygon fill="white" stroke="#bfbfbf" points="659,-212 659,-242 754,-242 754,-212 659,-212"/>
<text text-anchor="start" x="667" y="-230" font-family="Helvetica,sans-Serif" font-size="10.00">std::basic_string&lt;</text>
<text text-anchor="middle" x="706.5" y="-219" font-family="Helvetica,sans-Serif" font-size="10.00"> char &gt;</text>
</a>
</g>
</g>
<!-- Node16&#45;&gt;Node15 -->
<g id="edge19" class="edge"><title>Node16&#45;&gt;Node15</title>
<path fill="none" stroke="midnightblue" d="M764.318,-230.065C812.952,-232.688 881.004,-236.359 919.307,-238.425"/>
<polygon fill="midnightblue" stroke="midnightblue" points="764.427,-226.566 754.253,-229.522 764.05,-233.556 764.427,-226.566"/>
</g>
<!-- Node17 -->
<g id="node17" class="node"><title>Node17</title>
<g id="a_node17"><a xlink:href="../../d5/dac/structsgl_1_1Settings_1_1Keys.html" target="_top" xlink:title="Default keys configuration. ">
<polygon fill="white" stroke="black" points="1143.5,-268.5 1143.5,-287.5 1243.5,-287.5 1243.5,-268.5 1143.5,-268.5"/>
<text text-anchor="middle" x="1193.5" y="-275.5" font-family="Helvetica,sans-Serif" font-size="10.00">sgl::Settings::Keys</text>
</a>
</g>
</g>
<!-- Node17&#45;&gt;Node1 -->
<g id="edge20" class="edge"><title>Node17&#45;&gt;Node1</title>
<path fill="none" stroke="#9a32cd" stroke-dasharray="5,2" d="M1253.91,-273.31C1294.12,-270.135 1346.2,-266.024 1381.77,-263.215"/>
<polygon fill="#9a32cd" stroke="#9a32cd" points="1253.39,-269.84 1243.69,-274.116 1253.94,-276.818 1253.39,-269.84"/>
<text text-anchor="middle" x="1305.5" y="-276" font-family="Helvetica,sans-Serif" font-size="10.00"> m_keys</text>
</g>
<!-- Node18 -->
<g id="node18" class="node"><title>Node18</title>
<g id="a_node18"><a xlink:href="../../d6/d13/classsgl_1_1internal_1_1Profiler.html" target="_top" xlink:title="Profiler used to display the time spent in each section of the application. ">
<polygon fill="white" stroke="black" points="1142,-306.5 1142,-325.5 1245,-325.5 1245,-306.5 1142,-306.5"/>
<text text-anchor="middle" x="1193.5" y="-313.5" font-family="Helvetica,sans-Serif" font-size="10.00">sgl::internal::Profiler</text>
</a>
</g>
</g>
<!-- Node18&#45;&gt;Node1 -->
<g id="edge21" class="edge"><title>Node18&#45;&gt;Node1</title>
<path fill="none" stroke="#9a32cd" stroke-dasharray="5,2" d="M1255.15,-307.188C1283.07,-302.522 1316.47,-296.071 1346,-288 1364.28,-283.003 1384.38,-275.566 1399.39,-269.612"/>
<polygon fill="#9a32cd" stroke="#9a32cd" points="1254.44,-303.758 1245.13,-308.826 1255.57,-310.666 1254.44,-303.758"/>
<text text-anchor="middle" x="1305.5" y="-308" font-family="Helvetica,sans-Serif" font-size="10.00"> m_profiler</text>
</g>
<!-- Node19 -->
<g id="node19" class="node"><title>Node19</title>
<polygon fill="white" stroke="#bfbfbf" points="877,-301 877,-331 1022,-331 1022,-301 877,-301"/>
<text text-anchor="start" x="885" y="-319" font-family="Helvetica,sans-Serif" font-size="10.00">std::array&lt; sgl::internal</text>
<text text-anchor="middle" x="949.5" y="-308" font-family="Helvetica,sans-Serif" font-size="10.00">::Profiler::Entry, _bufferSize &gt;</text>
</g>
<!-- Node19&#45;&gt;Node18 -->
<g id="edge22" class="edge"><title>Node19&#45;&gt;Node18</title>
<path fill="none" stroke="#9a32cd" stroke-dasharray="5,2" d="M1032.21,-316C1068.5,-316 1110.08,-316 1141.79,-316"/>
<polygon fill="#9a32cd" stroke="#9a32cd" points="1032.13,-312.5 1022.13,-316 1032.13,-319.5 1032.13,-312.5"/>
<text text-anchor="middle" x="1081" y="-319" font-family="Helvetica,sans-Serif" font-size="10.00"> _entries</text>
</g>
<!-- Node20 -->
<g id="node20" class="node"><title>Node20</title>
<g id="a_node20"><a xlink:href="../../de/d66/structsgl_1_1internal_1_1Profiler_1_1Entry.html" target="_top" xlink:title="sgl::internal::Profiler\l::Entry">
<polygon fill="white" stroke="black" points="655,-301 655,-331 758,-331 758,-301 655,-301"/>
<text text-anchor="start" x="663" y="-319" font-family="Helvetica,sans-Serif" font-size="10.00">sgl::internal::Profiler</text>
<text text-anchor="middle" x="706.5" y="-308" font-family="Helvetica,sans-Serif" font-size="10.00">::Entry</text>
</a>
</g>
</g>
<!-- Node20&#45;&gt;Node19 -->
<g id="edge23" class="edge"><title>Node20&#45;&gt;Node19</title>
<path fill="none" stroke="#9a32cd" stroke-dasharray="5,2" d="M768.405,-316C801.298,-316 842.109,-316 876.561,-316"/>
<polygon fill="#9a32cd" stroke="#9a32cd" points="768.022,-312.5 758.021,-316 768.021,-319.5 768.022,-312.5"/>
<text text-anchor="middle" x="817.5" y="-319" font-family="Helvetica,sans-Serif" font-size="10.00"> elements</text>
</g>
<!-- Node21 -->
<g id="node21" class="node"><title>Node21</title>
<polygon fill="white" stroke="#bfbfbf" points="355,-301 355,-331 513,-331 513,-301 355,-301"/>
<text text-anchor="start" x="363" y="-319" font-family="Helvetica,sans-Serif" font-size="10.00">std::array&lt; sgl::internal</text>
<text text-anchor="middle" x="434" y="-308" font-family="Helvetica,sans-Serif" font-size="10.00">::Profiler::Scope, _StageCount &gt;</text>
</g>
<!-- Node21&#45;&gt;Node20 -->
<g id="edge24" class="edge"><title>Node21&#45;&gt;Node20</title>
<path fill="none" stroke="#9a32cd" stroke-dasharray="5,2" d="M523.273,-316C566.828,-316 617.806,-316 654.75,-316"/>
<polygon fill="#9a32cd" stroke="#9a32cd" points="523.24,-312.5 513.24,-316 523.24,-319.5 523.24,-312.5"/>
<text text-anchor="middle" x="584" y="-319" font-family="Helvetica,sans-Serif" font-size="10.00"> _stages</text>
</g>
<!-- Node22 -->
<g id="node22" class="node"><title>Node22</title>
<g id="a_node22"><a xlink:href="../../d2/d0d/structsgl_1_1internal_1_1Profiler_1_1Scope.html" target="_top" xlink:title="sgl::internal::Profiler\l::Scope">
<polygon fill="white" stroke="black" points="108,-334 108,-364 211,-364 211,-334 108,-334"/>
<text text-anchor="start" x="116" y="-352" font-family="Helvetica,sans-Serif" font-size="10.00">sgl::internal::Profiler</text>
<text text-anchor="middle" x="159.5" y="-341" font-family="Helvetica,sans-Serif" font-size="10.00">::Scope</text>
</a>
</g>
</g>
<!-- Node22&#45;&gt;Node21 -->
<g id="edge25" class="edge"><title>Node22&#45;&gt;Node21</title>
<path fill="none" stroke="#9a32cd" stroke-dasharray="5,2" d="M221.114,-341.66C260.526,-336.887 312.299,-330.617 354.801,-325.47"/>
<polygon fill="#9a32cd" stroke="#9a32cd" points="220.623,-338.193 211.117,-342.87 221.465,-345.143 220.623,-338.193"/>
<text text-anchor="middle" x="283" y="-344" font-family="Helvetica,sans-Serif" font-size="10.00"> elements</text>
</g>
<!-- Node23&#45;&gt;Node19 -->
<g id="edge28" class="edge"><title>Node23&#45;&gt;Node19</title>
<path fill="none" stroke="orange" stroke-dasharray="5,2" d="M210.14,-271.036C312.674,-271.468 555.235,-274.341 758,-291 797.395,-294.237 841.137,-299.834 876.76,-304.912"/>
<polygon fill="orange" stroke="orange" points="210.091,-267.536 200.078,-270.999 210.066,-274.536 210.091,-267.536"/>
<text text-anchor="start" x="534.5" y="-297" font-family="Helvetica,sans-Serif" font-size="10.00"> &lt; sgl::internal::Profiler</text>
<text text-anchor="middle" x="584" y="-286" font-family="Helvetica,sans-Serif" font-size="10.00">::Entry, _bufferSize &gt;</text>
</g>
<!-- Node23&#45;&gt;Node21 -->
<g id="edge26" class="edge"><title>Node23&#45;&gt;Node21</title>
<path fill="none" stroke="orange" stroke-dasharray="5,2" d="M209.996,-279.174C250.367,-285.84 308.138,-295.381 354.763,-303.08"/>
<polygon fill="orange" stroke="orange" points="210.561,-275.72 200.124,-277.543 209.42,-282.626 210.561,-275.72"/>
<text text-anchor="start" x="230" y="-313" font-family="Helvetica,sans-Serif" font-size="10.00"> &lt; sgl::internal::Profiler</text>
<text text-anchor="middle" x="283" y="-302" font-family="Helvetica,sans-Serif" font-size="10.00">::Scope, _StageCount &gt;</text>
</g>
</g>
</svg>
        <g id="navigator" transform="translate(0 0)" fill="#404254">
                <rect fill="#f2f5e9" fill-opacity="0.5" stroke="#606060" stroke-width=".5" x="0" y="0" width="60" height="60"/>
                <use id="zoomplus" xlink:href="#zoomPlus" x="17" y="9" onmousedown="handleZoom(evt,'in')"/>
                <use id="zoomminus" xlink:href="#zoomMin" x="42" y="9" onmousedown="handleZoom(evt,'out')"/>
                <use id="reset" xlink:href="#resetDef" x="30" y="36" onmousedown="handleReset()"/>
                <g id="arrowUp" xlink:href="#dirArrow" transform="translate(30 24)" onmousedown="handlePan(0,-1)">
                  <use xlink:href="#rim" fill="#404040">
                        <set attributeName="fill" to="#808080" begin="arrowUp.mouseover" end="arrowUp.mouseout"/>
                  </use>
                  <path fill="none" stroke="white" stroke-width="1.5" d="M0,-3.0v7 M-2.5,-0.5L0,-3.0L2.5,-0.5"/>
                </g>
                <g id="arrowRight" xlink:href="#dirArrow" transform="rotate(90) translate(36 -43)" onmousedown="handlePan(1,0)">
                  <use xlink:href="#rim" fill="#404040">
                        <set attributeName="fill" to="#808080" begin="arrowRight.mouseover" end="arrowRight.mouseout"/>
                  </use>
                  <path fill="none" stroke="white" stroke-width="1.5" d="M0,-3.0v7 M-2.5,-0.5L0,-3.0L2.5,-0.5"/>
                </g>
                <g id="arrowDown" xlink:href="#dirArrow" transform="rotate(180) translate(-30 -48)" onmousedown="handlePan(0,1)">
                  <use xlink:href="#rim" fill="#404040">
                        <set attributeName="fill" to="#808080" begin="arrowDown.mouseover" end="arrowDown.mouseout"/>
                  </use>
                  <path fill="none" stroke="white" stroke-width="1.5" d="M0,-3.0v7 M-2.5,-0.5L0,-3.0L2.5,-0.5"/>
                </g>
                <g id="arrowLeft" xlink:href="#dirArrow" transform="rotate(270) translate(-36 17)" onmousedown="handlePan(-1,0)">
                  <use xlink:href="#rim" fill="#404040">
                        <set attributeName="fill" to="#808080" begin="arrowLeft.mouseover" end="arrowLeft.mouseout"/>
                  </use>
                  <path fill="none" stroke="white" stroke-width="1.5" d="M0,-3.0v7 M-2.5,-0.5L0,-3.0L2.5,-0.5"/>
                </g>
        </g>
        <svg viewBox="0 0 15 15" width="100%" height="30px" preserveAspectRatio="xMaxYMin meet">
         <g id="arrow_out" transform="scale(0.3 0.3)">
          <a xlink:href="classsgl_1_1Application__coll__graph_org.svg" target="_base">
           <rect id="button" ry="5" rx="5" y="6" x="6" height="38" width="38"
                fill="#f2f5e9" fill-opacity="0.5" stroke="#606060" stroke-width="1.0"/>
           <path id="arrow"
             d="M 11.500037,31.436501 C 11.940474,20.09759 22.043105,11.32322 32.158766,21.979434 L 37.068811,17.246167 C 37.068811,17.246167 37.088388,32 37.088388,32 L 22.160133,31.978069 C 22.160133,31.978069 26.997745,27.140456 26.997745,27.140456 C 18.528582,18.264221 13.291696,25.230495 11.500037,31.436501 z"
             style="fill:#404040;"/>
          </a>
         </g>
        </svg>
</svg>
