<?xml version="1.0" encoding="UTF-8" standalone="no"?>
<!DOCTYPE svg PUBLIC "-//W3C//DTD SVG 1.1//EN"
 "http://www.w3.org/Graphics/SVG/1.1/DTD/svg11.dtd">
<!-- Generated by graphviz version 2.38.0 (20140413.2041)
 -->
<!-- Title: C:/Users/Folaefolc/Documents/Code/Big&#45;Projects/ScriptWizards/SmallGameLibrary/include/Small/Core/Scene.hpp Pages: 1 -->
<svg width="1055pt" height="184pt"
 viewBox="0.00 0.00 1055.00 184.00" xmlns="http://www.w3.org/2000/svg" xmlns:xlink="http://www.w3.org/1999/xlink">
<g id="graph0" class="graph" transform="scale(1 1) rotate(0) translate(4 180)">
<title>C:/Users/Folaefolc/Documents/Code/Big&#45;Projects/ScriptWizards/SmallGameLibrary/include/Small/Core/Scene.hpp</title>
<polygon fill="white" stroke="none" points="-4,4 -4,-180 1051,-180 1051,4 -4,4"/>
<!-- Node1 -->
<g id="node1" class="node"><title>Node1</title>
<polygon fill="#bfbfbf" stroke="black" points="353,-112.5 353,-175.5 487,-175.5 487,-112.5 353,-112.5"/>
<text text-anchor="start" x="361" y="-163.5" font-family="Helvetica,sans-Serif" font-size="10.00">C:/Users/Folaefolc</text>
<text text-anchor="start" x="361" y="-152.5" font-family="Helvetica,sans-Serif" font-size="10.00">/Documents/Code/Big</text>
<text text-anchor="start" x="361" y="-141.5" font-family="Helvetica,sans-Serif" font-size="10.00">&#45;Projects/ScriptWizards</text>
<text text-anchor="start" x="361" y="-130.5" font-family="Helvetica,sans-Serif" font-size="10.00">/SmallGameLibrary/include</text>
<text text-anchor="middle" x="420" y="-119.5" font-family="Helvetica,sans-Serif" font-size="10.00">/Small/Core/Scene.hpp</text>
</g>
<!-- Node2 -->
<g id="node2" class="node"><title>Node2</title>
<polygon fill="white" stroke="#bfbfbf" points="0,-56.5 0,-75.5 104,-75.5 104,-56.5 0,-56.5"/>
<text text-anchor="middle" x="52" y="-63.5" font-family="Helvetica,sans-Serif" font-size="10.00">SFML/Graphics.hpp</text>
</g>
<!-- Node1&#45;&gt;Node2 -->
<g id="edge1" class="edge"><title>Node1&#45;&gt;Node2</title>
<path fill="none" stroke="midnightblue" d="M352.931,-129.149C281.006,-114.295 168.38,-91.0349 103.237,-77.5815"/>
<polygon fill="midnightblue" stroke="midnightblue" points="103.704,-74.1043 93.2031,-75.5093 102.289,-80.9596 103.704,-74.1043"/>
</g>
<!-- Node3 -->
<g id="node3" class="node"><title>Node3</title>
<polygon fill="white" stroke="#bfbfbf" points="122,-56.5 122,-75.5 248,-75.5 248,-56.5 122,-56.5"/>
<text text-anchor="middle" x="185" y="-63.5" font-family="Helvetica,sans-Serif" font-size="10.00">SFML/System/Clock.hpp</text>
</g>
<!-- Node1&#45;&gt;Node3 -->
<g id="edge2" class="edge"><title>Node1&#45;&gt;Node3</title>
<path fill="none" stroke="midnightblue" d="M352.973,-121.323C310.127,-107.467 256.227,-90.035 221.212,-78.7111"/>
<polygon fill="midnightblue" stroke="midnightblue" points="222.016,-75.2926 211.424,-75.5456 219.862,-81.9529 222.016,-75.2926"/>
</g>
<!-- Node4 -->
<g id="node4" class="node"><title>Node4</title>
<polygon fill="white" stroke="#bfbfbf" points="266,-56.5 266,-75.5 392,-75.5 392,-56.5 266,-56.5"/>
<text text-anchor="middle" x="329" y="-63.5" font-family="Helvetica,sans-Serif" font-size="10.00">SFML/Window/Event.hpp</text>
</g>
<!-- Node1&#45;&gt;Node4 -->
<g id="edge3" class="edge"><title>Node1&#45;&gt;Node4</title>
<path fill="none" stroke="midnightblue" d="M383.249,-112.307C370.917,-102.008 357.694,-90.9643 347.39,-82.359"/>
<polygon fill="midnightblue" stroke="midnightblue" points="349.424,-79.4976 339.506,-75.7738 344.937,-84.8704 349.424,-79.4976"/>
</g>
<!-- Node5 -->
<g id="node5" class="node"><title>Node5</title>
<polygon fill="white" stroke="#bfbfbf" points="372.5,-0.5 372.5,-19.5 413.5,-19.5 413.5,-0.5 372.5,-0.5"/>
<text text-anchor="middle" x="393" y="-7.5" font-family="Helvetica,sans-Serif" font-size="10.00">string</text>
</g>
<!-- Node1&#45;&gt;Node5 -->
<g id="edge4" class="edge"><title>Node1&#45;&gt;Node5</title>
<path fill="none" stroke="midnightblue" d="M413.738,-112.385C408.509,-86.8199 401.222,-51.1986 396.824,-29.6954"/>
<polygon fill="midnightblue" stroke="midnightblue" points="400.194,-28.7057 394.761,-19.61 393.336,-30.1085 400.194,-28.7057"/>
</g>
<!-- Node6 -->
<g id="node6" class="node"><title>Node6</title>
<g id="a_node6"><a xlink:href="../../df/db4/Config_8hpp.html" target="_top" xlink:title="Small/Scripting/Config.hpp">
<polygon fill="white" stroke="black" points="448.5,-56.5 448.5,-75.5 579.5,-75.5 579.5,-56.5 448.5,-56.5"/>
<text text-anchor="middle" x="514" y="-63.5" font-family="Helvetica,sans-Serif" font-size="10.00">Small/Scripting/Config.hpp</text>
</a>
</g>
</g>
<!-- Node1&#45;&gt;Node6 -->
<g id="edge5" class="edge"><title>Node1&#45;&gt;Node6</title>
<path fill="none" stroke="midnightblue" d="M457.962,-112.307C470.828,-101.905 484.633,-90.7434 495.322,-82.1016"/>
<polygon fill="midnightblue" stroke="midnightblue" points="497.572,-84.7828 503.148,-75.7738 493.171,-79.3394 497.572,-84.7828"/>
</g>
<!-- Node7 -->
<g id="node7" class="node"><title>Node7</title>
<g id="a_node7"><a xlink:href="../../d7/dc6/Node_8hpp.html" target="_top" xlink:title="A scene graph node. ">
<polygon fill="white" stroke="black" points="625,-56.5 625,-75.5 753,-75.5 753,-56.5 625,-56.5"/>
<text text-anchor="middle" x="689" y="-63.5" font-family="Helvetica,sans-Serif" font-size="10.00">Small/Graphics/Node.hpp</text>
</a>
</g>
</g>
<!-- Node1&#45;&gt;Node7 -->
<g id="edge7" class="edge"><title>Node1&#45;&gt;Node7</title>
<path fill="none" stroke="midnightblue" d="M487.186,-124.018C538.042,-109.65 606.197,-90.3942 648.849,-78.3439"/>
<polygon fill="midnightblue" stroke="midnightblue" points="649.921,-81.6779 658.593,-75.5909 648.018,-74.9416 649.921,-81.6779"/>
</g>
<!-- Node13 -->
<g id="node13" class="node"><title>Node13</title>
<polygon fill="white" stroke="#bfbfbf" points="771.5,-56.5 771.5,-75.5 828.5,-75.5 828.5,-56.5 771.5,-56.5"/>
<text text-anchor="middle" x="800" y="-63.5" font-family="Helvetica,sans-Serif" font-size="10.00">Scene.inl</text>
</g>
<!-- Node1&#45;&gt;Node13 -->
<g id="edge13" class="edge"><title>Node1&#45;&gt;Node13</title>
<path fill="none" stroke="midnightblue" d="M487.002,-130.676C553.91,-118.187 659.911,-97.909 761.57,-76.0244"/>
<polygon fill="midnightblue" stroke="midnightblue" points="762.358,-79.435 771.393,-73.9017 760.88,-72.5929 762.358,-79.435"/>
</g>
<!-- Node6&#45;&gt;Node5 -->
<g id="edge6" class="edge"><title>Node6&#45;&gt;Node5</title>
<path fill="none" stroke="midnightblue" d="M494.827,-56.4435C475.091,-47.6356 444.115,-33.8116 421.507,-23.722"/>
<polygon fill="midnightblue" stroke="midnightblue" points="422.641,-20.3957 412.083,-19.5164 419.789,-26.788 422.641,-20.3957"/>
</g>
<!-- Node8 -->
<g id="node8" class="node"><title>Node8</title>
<polygon fill="white" stroke="#bfbfbf" points="432,-0.5 432,-19.5 596,-19.5 596,-0.5 432,-0.5"/>
<text text-anchor="middle" x="514" y="-7.5" font-family="Helvetica,sans-Serif" font-size="10.00">SFML/Graphics/RenderTarget.hpp</text>
</g>
<!-- Node7&#45;&gt;Node8 -->
<g id="edge8" class="edge"><title>Node7&#45;&gt;Node8</title>
<path fill="none" stroke="midnightblue" d="M661.271,-56.4435C631.574,-47.2801 584.284,-32.6876 551.331,-22.5192"/>
<polygon fill="midnightblue" stroke="midnightblue" points="552.187,-19.1206 541.6,-19.5164 550.123,-25.8094 552.187,-19.1206"/>
</g>
<!-- Node9 -->
<g id="node9" class="node"><title>Node9</title>
<polygon fill="white" stroke="#bfbfbf" points="614.5,-0.5 614.5,-19.5 763.5,-19.5 763.5,-0.5 614.5,-0.5"/>
<text text-anchor="middle" x="689" y="-7.5" font-family="Helvetica,sans-Serif" font-size="10.00">SFML/Graphics/Transform.hpp</text>
</g>
<!-- Node7&#45;&gt;Node9 -->
<g id="edge9" class="edge"><title>Node7&#45;&gt;Node9</title>
<path fill="none" stroke="midnightblue" d="M689,-56.083C689,-49.0059 689,-38.8611 689,-29.9865"/>
<polygon fill="midnightblue" stroke="midnightblue" points="692.5,-29.751 689,-19.7511 685.5,-29.7511 692.5,-29.751"/>
</g>
<!-- Node10 -->
<g id="node10" class="node"><title>Node10</title>
<polygon fill="white" stroke="#bfbfbf" points="781.5,-0.5 781.5,-19.5 916.5,-19.5 916.5,-0.5 781.5,-0.5"/>
<text text-anchor="middle" x="849" y="-7.5" font-family="Helvetica,sans-Serif" font-size="10.00">SFML/System/Vector2.hpp</text>
</g>
<!-- Node7&#45;&gt;Node10 -->
<g id="edge10" class="edge"><title>Node7&#45;&gt;Node10</title>
<path fill="none" stroke="midnightblue" d="M714.352,-56.4435C741.269,-47.3591 783.996,-32.9388 814.087,-22.7831"/>
<polygon fill="midnightblue" stroke="midnightblue" points="815.41,-26.0305 823.766,-19.5164 813.172,-19.3981 815.41,-26.0305"/>
</g>
<!-- Node11 -->
<g id="node11" class="node"><title>Node11</title>
<polygon fill="white" stroke="#bfbfbf" points="935,-0.5 935,-19.5 977,-19.5 977,-0.5 935,-0.5"/>
<text text-anchor="middle" x="956" y="-7.5" font-family="Helvetica,sans-Serif" font-size="10.00">vector</text>
</g>
<!-- Node7&#45;&gt;Node11 -->
<g id="edge11" class="edge"><title>Node7&#45;&gt;Node11</title>
<path fill="none" stroke="midnightblue" d="M742.522,-56.4705C788.519,-48.7719 856.78,-36.4738 924.746,-20.11"/>
<polygon fill="midnightblue" stroke="midnightblue" points="925.883,-23.4355 934.769,-17.6663 924.225,-16.6347 925.883,-23.4355"/>
</g>
<!-- Node12 -->
<g id="node12" class="node"><title>Node12</title>
<polygon fill="white" stroke="#bfbfbf" points="995,-0.5 995,-19.5 1047,-19.5 1047,-0.5 995,-0.5"/>
<text text-anchor="middle" x="1021" y="-7.5" font-family="Helvetica,sans-Serif" font-size="10.00">memory</text>
</g>
<!-- Node7&#45;&gt;Node12 -->
<g id="edge12" class="edge"><title>Node7&#45;&gt;Node12</title>
<path fill="none" stroke="midnightblue" d="M753.059,-57.2014C811.193,-49.6911 899.436,-37.2141 984.834,-20.072"/>
<polygon fill="midnightblue" stroke="midnightblue" points="985.59,-23.49 994.693,-18.0693 984.196,-16.6301 985.59,-23.49"/>
</g>
</g>
</svg>
