<?xml version="1.0" encoding="UTF-8" standalone="no"?>
<!DOCTYPE svg PUBLIC "-//W3C//DTD SVG 1.1//EN"
 "http://www.w3.org/Graphics/SVG/1.1/DTD/svg11.dtd">
<!-- Generated by graphviz version 2.49.0 (20210828.1703)
 -->
<!-- Title: C:/Users/folae/Documents/Code/Big&#45;Projects/ScriptWizards/SmallGameLibrary/include/Small/Core/Scene.hpp Pages: 1 -->
<!--zoomable 229 -->
<svg id="main" version="1.1" xmlns="http://www.w3.org/2000/svg" xmlns:xlink="http://www.w3.org/1999/xlink" xml:space="preserve" onload="init(evt)">
<style type="text/css"><![CDATA[
.edge:hover path { stroke: red; }
.edge:hover polygon { stroke: red; fill: red; }
]]></style>
<script type="text/javascript"><![CDATA[
var edges = document.getElementsByTagName('g');
if (edges && edges.length) {
  for (var i=0;i<edges.length;i++) {
    if (edges[i].id.substr(0,4)=='edge') {
      edges[i].setAttribute('class','edge');
    }
  }
}
]]></script>
        <defs>
                <circle id="rim" cx="0" cy="0" r="7"/>
                <circle id="rim2" cx="0" cy="0" r="3.5"/>
                <g id="zoomPlus">
                        <use xlink:href="#rim" fill="#404040">
                                <set attributeName="fill" to="#808080" begin="zoomplus.mouseover" end="zoomplus.mouseout"/>
                        </use>
                        <path d="M-4,0h8M0,-4v8" fill="none" stroke="white" stroke-width="1.5" pointer-events="none"/>
                </g>
                <g id="zoomMin">
                        <use xlink:href="#rim" fill="#404040">
                                <set attributeName="fill" to="#808080" begin="zoomminus.mouseover" end="zoomminus.mouseout"/>
                        </use>
                        <path d="M-4,0h8" fill="none" stroke="white" stroke-width="1.5" pointer-events="none"/>
                </g>
                <g id="dirArrow">
                        <path fill="none" stroke="white" stroke-width="1.5" d="M0,-3.0v7 M-2.5,-0.5L0,-3.0L2.5,-0.5"/>
                </g>
               <g id="resetDef">
                       <use xlink:href="#rim2" fill="#404040">
                               <set attributeName="fill" to="#808080" begin="reset.mouseover" end="reset.mouseout"/>
                       </use>
               </g>
        </defs>

<script type="text/javascript">
var viewWidth = 1409;
var viewHeight = 229;
var sectionId = 'dynsection-0';
</script>
<script xlink:href="../../svgpan.js"/>
<svg id="graph" class="graph">
<g id="viewport">
<title>C:/Users/folae/Documents/Code/Big&#45;Projects/ScriptWizards/SmallGameLibrary/include/Small/Core/Scene.hpp</title>
<polygon fill="white" stroke="transparent" points="-4,4 -4,-225 1405,-225 1405,4 -4,4"/>
<!-- Node1 -->
<g id="node1" class="node">
<title>Node1</title>
<g id="a_node1"><a xlink:title="The base scene class and the scene states are defined here.">
<polygon fill="#bfbfbf" stroke="black" points="826,-168.5 826,-220.5 989,-220.5 989,-168.5 826,-168.5"/>
<text text-anchor="start" x="834" y="-208.5" font-family="Helvetica,sans-Serif" font-size="10.00">C:/Users/folae/Documents</text>
<text text-anchor="start" x="834" y="-197.5" font-family="Helvetica,sans-Serif" font-size="10.00">/Code/Big&#45;Projects/ScriptWizards</text>
<text text-anchor="start" x="834" y="-186.5" font-family="Helvetica,sans-Serif" font-size="10.00">/SmallGameLibrary/include/Small</text>
<text text-anchor="middle" x="907.5" y="-175.5" font-family="Helvetica,sans-Serif" font-size="10.00">/Core/Scene.hpp</text>
</a>
</g>
</g>
<!-- Node2 -->
<g id="node2" class="node">
<title>Node2</title>
<g id="a_node2"><a xlink:title=" ">
<polygon fill="white" stroke="#bfbfbf" points="475,-0.5 475,-19.5 516,-19.5 516,-0.5 475,-0.5"/>
<text text-anchor="middle" x="495.5" y="-7.5" font-family="Helvetica,sans-Serif" font-size="10.00">string</text>
</a>
</g>
</g>
<!-- Node1&#45;&gt;Node2 -->
<g id="edge1" class="edge">
<title>Node1&#45;&gt;Node2</title>
<path fill="none" stroke="midnightblue" d="M825.85,-193.03C653.36,-190.14 260.95,-172.8 178.5,-76 172.74,-69.23 172.67,-62.71 178.5,-56 215.41,-13.48 392.44,-10.08 464.69,-10.51"/>
<polygon fill="midnightblue" stroke="midnightblue" points="464.93,-14.01 474.96,-10.6 464.99,-7.01 464.93,-14.01"/>
</g>
<!-- Node3 -->
<g id="node3" class="node">
<title>Node3</title>
<g id="a_node3"><a xlink:title=" ">
<polygon fill="white" stroke="#bfbfbf" points="933.5,-112.5 933.5,-131.5 1037.5,-131.5 1037.5,-112.5 933.5,-112.5"/>
<text text-anchor="middle" x="985.5" y="-119.5" font-family="Helvetica,sans-Serif" font-size="10.00">SFML/Graphics.hpp</text>
</a>
</g>
</g>
<!-- Node1&#45;&gt;Node3 -->
<g id="edge2" class="edge">
<title>Node1&#45;&gt;Node3</title>
<path fill="none" stroke="midnightblue" d="M935.22,-168.45C946.3,-158.43 958.72,-147.21 968.44,-138.42"/>
<polygon fill="midnightblue" stroke="midnightblue" points="970.81,-141 975.88,-131.7 966.11,-135.8 970.81,-141"/>
</g>
<!-- Node4 -->
<g id="node4" class="node">
<title>Node4</title>
<g id="a_node4"><a xlink:title=" ">
<polygon fill="white" stroke="#bfbfbf" points="1055.5,-112.5 1055.5,-131.5 1181.5,-131.5 1181.5,-112.5 1055.5,-112.5"/>
<text text-anchor="middle" x="1118.5" y="-119.5" font-family="Helvetica,sans-Serif" font-size="10.00">SFML/System/Clock.hpp</text>
</a>
</g>
</g>
<!-- Node1&#45;&gt;Node4 -->
<g id="edge3" class="edge">
<title>Node1&#45;&gt;Node4</title>
<path fill="none" stroke="midnightblue" d="M982.48,-168.45C1016.88,-156.95 1056,-143.88 1083.43,-134.72"/>
<polygon fill="midnightblue" stroke="midnightblue" points="1084.6,-138.02 1092.98,-131.53 1082.39,-131.38 1084.6,-138.02"/>
</g>
<!-- Node5 -->
<g id="node5" class="node">
<title>Node5</title>
<g id="a_node5"><a xlink:title=" ">
<polygon fill="white" stroke="#bfbfbf" points="1199.5,-112.5 1199.5,-131.5 1325.5,-131.5 1325.5,-112.5 1199.5,-112.5"/>
<text text-anchor="middle" x="1262.5" y="-119.5" font-family="Helvetica,sans-Serif" font-size="10.00">SFML/Window/Event.hpp</text>
</a>
</g>
</g>
<!-- Node1&#45;&gt;Node5 -->
<g id="edge4" class="edge">
<title>Node1&#45;&gt;Node5</title>
<path fill="none" stroke="midnightblue" d="M989.39,-177.24C1057,-163.81 1150.99,-145.15 1209.21,-133.58"/>
<polygon fill="midnightblue" stroke="midnightblue" points="1210.17,-136.96 1219.3,-131.58 1208.81,-130.09 1210.17,-136.96"/>
</g>
<!-- Node6 -->
<g id="node6" class="node">
<title>Node6</title>
<g id="a_node6"><a xlink:href="../../df/db4/Config_8hpp.html" target="_top" xlink:title=" ">
<polygon fill="white" stroke="black" points="0,-112.5 0,-131.5 131,-131.5 131,-112.5 0,-112.5"/>
<text text-anchor="middle" x="65.5" y="-119.5" font-family="Helvetica,sans-Serif" font-size="10.00">Small/Scripting/Config.hpp</text>
</a>
</g>
</g>
<!-- Node1&#45;&gt;Node6 -->
<g id="edge5" class="edge">
<title>Node1&#45;&gt;Node6</title>
<path fill="none" stroke="midnightblue" d="M825.95,-187.77C686.44,-177.76 393.04,-155.91 145.5,-132 144.21,-131.88 142.91,-131.75 141.59,-131.62"/>
<polygon fill="midnightblue" stroke="midnightblue" points="141.71,-128.11 131.4,-130.58 141,-135.08 141.71,-128.11"/>
</g>
<!-- Node7 -->
<g id="node7" class="node">
<title>Node7</title>
<g id="a_node7"><a xlink:href="../../d7/dc6/Node_8hpp.html" target="_top" xlink:title="A scene graph node.">
<polygon fill="white" stroke="black" points="570.5,-112.5 570.5,-131.5 698.5,-131.5 698.5,-112.5 570.5,-112.5"/>
<text text-anchor="middle" x="634.5" y="-119.5" font-family="Helvetica,sans-Serif" font-size="10.00">Small/Graphics/Node.hpp</text>
</a>
</g>
</g>
<!-- Node1&#45;&gt;Node7 -->
<g id="edge7" class="edge">
<title>Node1&#45;&gt;Node7</title>
<path fill="none" stroke="midnightblue" d="M825.96,-172.44C777.25,-159.86 717.34,-144.39 677.64,-134.14"/>
<polygon fill="midnightblue" stroke="midnightblue" points="678.31,-130.7 667.75,-131.59 676.56,-137.48 678.31,-130.7"/>
</g>
<!-- Node13 -->
<g id="node13" class="node">
<title>Node13</title>
<g id="a_node13"><a xlink:href="../../dc/d6f/RessourceManager_8hpp.html" target="_top" xlink:title=" ">
<polygon fill="white" stroke="black" points="745.5,-112.5 745.5,-131.5 915.5,-131.5 915.5,-112.5 745.5,-112.5"/>
<text text-anchor="middle" x="830.5" y="-119.5" font-family="Helvetica,sans-Serif" font-size="10.00">Small/Core/RessourceManager.hpp</text>
</a>
</g>
</g>
<!-- Node1&#45;&gt;Node13 -->
<g id="edge13" class="edge">
<title>Node1&#45;&gt;Node13</title>
<path fill="none" stroke="midnightblue" d="M880.14,-168.45C869.3,-158.53 857.18,-147.43 847.63,-138.69"/>
<polygon fill="midnightblue" stroke="midnightblue" points="849.74,-135.87 840,-131.7 845.01,-141.03 849.74,-135.87"/>
</g>
<!-- Node18 -->
<g id="node18" class="node">
<title>Node18</title>
<g id="a_node18"><a xlink:title=" ">
<polygon fill="white" stroke="#bfbfbf" points="1344,-112.5 1344,-131.5 1401,-131.5 1401,-112.5 1344,-112.5"/>
<text text-anchor="middle" x="1372.5" y="-119.5" font-family="Helvetica,sans-Serif" font-size="10.00">Scene.inl</text>
</a>
</g>
</g>
<!-- Node1&#45;&gt;Node18 -->
<g id="edge23" class="edge">
<title>Node1&#45;&gt;Node18</title>
<path fill="none" stroke="midnightblue" d="M989.32,-183.93C1073.35,-173.59 1208.06,-155.63 1334.09,-131.92"/>
<polygon fill="midnightblue" stroke="midnightblue" points="1334.75,-135.36 1343.92,-130.06 1333.45,-128.48 1334.75,-135.36"/>
</g>
<!-- Node6&#45;&gt;Node2 -->
<g id="edge6" class="edge">
<title>Node6&#45;&gt;Node2</title>
<path fill="none" stroke="midnightblue" d="M72.89,-112.48C85.93,-98.1 114.58,-69.26 145.5,-56 202.79,-31.43 390.15,-17.49 464.6,-12.8"/>
<polygon fill="midnightblue" stroke="midnightblue" points="464.97,-16.29 474.73,-12.18 464.54,-9.3 464.97,-16.29"/>
</g>
<!-- Node8 -->
<g id="node8" class="node">
<title>Node8</title>
<g id="a_node8"><a xlink:title=" ">
<polygon fill="white" stroke="#bfbfbf" points="187.5,-56.5 187.5,-75.5 351.5,-75.5 351.5,-56.5 187.5,-56.5"/>
<text text-anchor="middle" x="269.5" y="-63.5" font-family="Helvetica,sans-Serif" font-size="10.00">SFML/Graphics/RenderTarget.hpp</text>
</a>
</g>
</g>
<!-- Node7&#45;&gt;Node8 -->
<g id="edge8" class="edge">
<title>Node7&#45;&gt;Node8</title>
<path fill="none" stroke="midnightblue" d="M576.66,-112.44C511.66,-102.83 406.22,-87.23 337.37,-77.04"/>
<polygon fill="midnightblue" stroke="midnightblue" points="337.47,-73.52 327.06,-75.52 336.44,-80.44 337.47,-73.52"/>
</g>
<!-- Node9 -->
<g id="node9" class="node">
<title>Node9</title>
<g id="a_node9"><a xlink:title=" ">
<polygon fill="white" stroke="#bfbfbf" points="370,-56.5 370,-75.5 519,-75.5 519,-56.5 370,-56.5"/>
<text text-anchor="middle" x="444.5" y="-63.5" font-family="Helvetica,sans-Serif" font-size="10.00">SFML/Graphics/Transform.hpp</text>
</a>
</g>
</g>
<!-- Node7&#45;&gt;Node9 -->
<g id="edge9" class="edge">
<title>Node7&#45;&gt;Node9</title>
<path fill="none" stroke="midnightblue" d="M604.39,-112.44C571.87,-103.2 519.92,-88.44 484.11,-78.26"/>
<polygon fill="midnightblue" stroke="midnightblue" points="485.04,-74.88 474.47,-75.52 483.13,-81.62 485.04,-74.88"/>
</g>
<!-- Node10 -->
<g id="node10" class="node">
<title>Node10</title>
<g id="a_node10"><a xlink:title=" ">
<polygon fill="white" stroke="#bfbfbf" points="537,-56.5 537,-75.5 672,-75.5 672,-56.5 537,-56.5"/>
<text text-anchor="middle" x="604.5" y="-63.5" font-family="Helvetica,sans-Serif" font-size="10.00">SFML/System/Vector2.hpp</text>
</a>
</g>
</g>
<!-- Node7&#45;&gt;Node10 -->
<g id="edge10" class="edge">
<title>Node7&#45;&gt;Node10</title>
<path fill="none" stroke="midnightblue" d="M629.55,-112.08C625.4,-104.61 619.35,-93.72 614.23,-84.52"/>
<polygon fill="midnightblue" stroke="midnightblue" points="617.28,-82.79 609.36,-75.75 611.16,-86.19 617.28,-82.79"/>
</g>
<!-- Node11 -->
<g id="node11" class="node">
<title>Node11</title>
<g id="a_node11"><a xlink:title=" ">
<polygon fill="white" stroke="#bfbfbf" points="690.5,-56.5 690.5,-75.5 732.5,-75.5 732.5,-56.5 690.5,-56.5"/>
<text text-anchor="middle" x="711.5" y="-63.5" font-family="Helvetica,sans-Serif" font-size="10.00">vector</text>
</a>
</g>
</g>
<!-- Node7&#45;&gt;Node11 -->
<g id="edge11" class="edge">
<title>Node7&#45;&gt;Node11</title>
<path fill="none" stroke="midnightblue" d="M646.87,-112.32C658.66,-104.06 676.63,-91.45 690.64,-81.63"/>
<polygon fill="midnightblue" stroke="midnightblue" points="692.98,-84.26 699.16,-75.65 688.96,-78.53 692.98,-84.26"/>
</g>
<!-- Node12 -->
<g id="node12" class="node">
<title>Node12</title>
<g id="a_node12"><a xlink:title=" ">
<polygon fill="white" stroke="#bfbfbf" points="750.5,-56.5 750.5,-75.5 802.5,-75.5 802.5,-56.5 750.5,-56.5"/>
<text text-anchor="middle" x="776.5" y="-63.5" font-family="Helvetica,sans-Serif" font-size="10.00">memory</text>
</a>
</g>
</g>
<!-- Node7&#45;&gt;Node12 -->
<g id="edge12" class="edge">
<title>Node7&#45;&gt;Node12</title>
<path fill="none" stroke="midnightblue" d="M657,-112.44C680.58,-103.48 717.82,-89.31 744.46,-79.18"/>
<polygon fill="midnightblue" stroke="midnightblue" points="746,-82.34 754.1,-75.52 743.51,-75.8 746,-82.34"/>
</g>
<!-- Node13&#45;&gt;Node2 -->
<g id="edge14" class="edge">
<title>Node13&#45;&gt;Node2</title>
<path fill="none" stroke="midnightblue" d="M830.72,-112.29C830.57,-98.14 828.03,-70.32 811.5,-56 769.27,-19.41 597.51,-12.54 526.47,-11.28"/>
<polygon fill="midnightblue" stroke="midnightblue" points="526.41,-7.78 516.36,-11.12 526.31,-14.77 526.41,-7.78"/>
</g>
<!-- Node13&#45;&gt;Node12 -->
<g id="edge15" class="edge">
<title>Node13&#45;&gt;Node12</title>
<path fill="none" stroke="midnightblue" d="M821.58,-112.08C813.72,-104.22 802.07,-92.57 792.58,-83.08"/>
<polygon fill="midnightblue" stroke="midnightblue" points="794.8,-80.35 785.25,-75.75 789.85,-85.3 794.8,-80.35"/>
</g>
<!-- Node14 -->
<g id="node14" class="node">
<title>Node14</title>
<g id="a_node14"><a xlink:title=" ">
<polygon fill="white" stroke="#bfbfbf" points="1048,-56.5 1048,-75.5 1131,-75.5 1131,-56.5 1048,-56.5"/>
<text text-anchor="middle" x="1089.5" y="-63.5" font-family="Helvetica,sans-Serif" font-size="10.00">unordered_map</text>
</a>
</g>
</g>
<!-- Node13&#45;&gt;Node14 -->
<g id="edge16" class="edge">
<title>Node13&#45;&gt;Node14</title>
<path fill="none" stroke="midnightblue" d="M871.54,-112.44C916.82,-103 989.73,-87.8 1038.61,-77.61"/>
<polygon fill="midnightblue" stroke="midnightblue" points="1039.58,-80.98 1048.65,-75.52 1038.15,-74.13 1039.58,-80.98"/>
</g>
<!-- Node15 -->
<g id="node15" class="node">
<title>Node15</title>
<g id="a_node15"><a xlink:title=" ">
<polygon fill="white" stroke="#bfbfbf" points="834,-0.5 834,-19.5 973,-19.5 973,-0.5 834,-0.5"/>
<text text-anchor="middle" x="903.5" y="-7.5" font-family="Helvetica,sans-Serif" font-size="10.00">SFML/Graphics/Texture.hpp</text>
</a>
</g>
</g>
<!-- Node13&#45;&gt;Node15 -->
<g id="edge17" class="edge">
<title>Node13&#45;&gt;Node15</title>
<path fill="none" stroke="midnightblue" d="M836.23,-112.37C848.28,-94.22 876.42,-51.8 892.22,-27.99"/>
<polygon fill="midnightblue" stroke="midnightblue" points="895.19,-29.86 897.8,-19.59 889.35,-25.99 895.19,-29.86"/>
</g>
<!-- Node16 -->
<g id="node16" class="node">
<title>Node16</title>
<g id="a_node16"><a xlink:title=" ">
<polygon fill="white" stroke="#bfbfbf" points="1061.5,-0.5 1061.5,-19.5 1187.5,-19.5 1187.5,-0.5 1061.5,-0.5"/>
<text text-anchor="middle" x="1124.5" y="-7.5" font-family="Helvetica,sans-Serif" font-size="10.00">SFML/Graphics/Font.hpp</text>
</a>
</g>
</g>
<!-- Node13&#45;&gt;Node16 -->
<g id="edge18" class="edge">
<title>Node13&#45;&gt;Node16</title>
<path fill="none" stroke="midnightblue" d="M906.64,-112.46C995.94,-102.07 1132.86,-84.83 1140.5,-76 1151.87,-62.86 1144.5,-42.9 1136.41,-28.57"/>
<polygon fill="midnightblue" stroke="midnightblue" points="1139.15,-26.35 1130.91,-19.7 1133.2,-30.04 1139.15,-26.35"/>
</g>
<!-- Node17 -->
<g id="node17" class="node">
<title>Node17</title>
<g id="a_node17"><a xlink:href="../../db/d73/Ressource_8hpp.html" target="_top" xlink:title=" ">
<polygon fill="white" stroke="black" points="897,-56.5 897,-75.5 1030,-75.5 1030,-56.5 897,-56.5"/>
<text text-anchor="middle" x="963.5" y="-63.5" font-family="Helvetica,sans-Serif" font-size="10.00">Small/Core/Ressource.hpp</text>
</a>
</g>
</g>
<!-- Node13&#45;&gt;Node17 -->
<g id="edge19" class="edge">
<title>Node13&#45;&gt;Node17</title>
<path fill="none" stroke="midnightblue" d="M851.57,-112.44C873.56,-103.52 908.23,-89.44 933.16,-79.32"/>
<polygon fill="midnightblue" stroke="midnightblue" points="934.58,-82.52 942.52,-75.52 931.94,-76.04 934.58,-82.52"/>
</g>
<!-- Node17&#45;&gt;Node2 -->
<g id="edge20" class="edge">
<title>Node17&#45;&gt;Node2</title>
<path fill="none" stroke="midnightblue" d="M896.94,-57.32C794.24,-45.47 601.16,-23.19 526.28,-14.55"/>
<polygon fill="midnightblue" stroke="midnightblue" points="526.44,-11.05 516.11,-13.38 525.64,-18 526.44,-11.05"/>
</g>
<!-- Node17&#45;&gt;Node15 -->
<g id="edge21" class="edge">
<title>Node17&#45;&gt;Node15</title>
<path fill="none" stroke="midnightblue" d="M953.86,-56.32C944.99,-48.34 931.63,-36.31 920.89,-26.65"/>
<polygon fill="midnightblue" stroke="midnightblue" points="923.09,-23.92 913.32,-19.83 918.41,-29.13 923.09,-23.92"/>
</g>
<!-- Node17&#45;&gt;Node16 -->
<g id="edge22" class="edge">
<title>Node17&#45;&gt;Node16</title>
<path fill="none" stroke="midnightblue" d="M989.01,-56.44C1016.1,-47.36 1059.09,-32.94 1089.37,-22.78"/>
<polygon fill="midnightblue" stroke="midnightblue" points="1090.74,-26.01 1099.11,-19.52 1088.51,-19.38 1090.74,-26.01"/>
</g>
</g>
</svg>
        <g id="navigator" transform="translate(0 0)" fill="#404254">
                <rect fill="#f2f5e9" fill-opacity="0.5" stroke="#606060" stroke-width=".5" x="0" y="0" width="60" height="60"/>
                <use id="zoomplus" xlink:href="#zoomPlus" x="17" y="9" onmousedown="handleZoom(evt,'in')"/>
                <use id="zoomminus" xlink:href="#zoomMin" x="42" y="9" onmousedown="handleZoom(evt,'out')"/>
                <use id="reset" xlink:href="#resetDef" x="30" y="36" onmousedown="handleReset()"/>
                <g id="arrowUp" xlink:href="#dirArrow" transform="translate(30 24)" onmousedown="handlePan(0,-1)">
                  <use xlink:href="#rim" fill="#404040">
                        <set attributeName="fill" to="#808080" begin="arrowUp.mouseover" end="arrowUp.mouseout"/>
                  </use>
                  <path fill="none" stroke="white" stroke-width="1.5" d="M0,-3.0v7 M-2.5,-0.5L0,-3.0L2.5,-0.5"/>
                </g>
                <g id="arrowRight" xlink:href="#dirArrow" transform="rotate(90) translate(36 -43)" onmousedown="handlePan(1,0)">
                  <use xlink:href="#rim" fill="#404040">
                        <set attributeName="fill" to="#808080" begin="arrowRight.mouseover" end="arrowRight.mouseout"/>
                  </use>
                  <path fill="none" stroke="white" stroke-width="1.5" d="M0,-3.0v7 M-2.5,-0.5L0,-3.0L2.5,-0.5"/>
                </g>
                <g id="arrowDown" xlink:href="#dirArrow" transform="rotate(180) translate(-30 -48)" onmousedown="handlePan(0,1)">
                  <use xlink:href="#rim" fill="#404040">
                        <set attributeName="fill" to="#808080" begin="arrowDown.mouseover" end="arrowDown.mouseout"/>
                  </use>
                  <path fill="none" stroke="white" stroke-width="1.5" d="M0,-3.0v7 M-2.5,-0.5L0,-3.0L2.5,-0.5"/>
                </g>
                <g id="arrowLeft" xlink:href="#dirArrow" transform="rotate(270) translate(-36 17)" onmousedown="handlePan(-1,0)">
                  <use xlink:href="#rim" fill="#404040">
                        <set attributeName="fill" to="#808080" begin="arrowLeft.mouseover" end="arrowLeft.mouseout"/>
                  </use>
                  <path fill="none" stroke="white" stroke-width="1.5" d="M0,-3.0v7 M-2.5,-0.5L0,-3.0L2.5,-0.5"/>
                </g>
        </g>
        <svg viewBox="0 0 15 15" width="100%" height="30px" preserveAspectRatio="xMaxYMin meet">
         <g id="arrow_out" transform="scale(0.3 0.3)">
          <a xlink:href="Scene_8hpp__incl_org.svg" target="_base">
           <rect id="button" ry="5" rx="5" y="6" x="6" height="38" width="38"
                fill="#f2f5e9" fill-opacity="0.5" stroke="#606060" stroke-width="1.0"/>
           <path id="arrow"
             d="M 11.500037,31.436501 C 11.940474,20.09759 22.043105,11.32322 32.158766,21.979434 L 37.068811,17.246167 C 37.068811,17.246167 37.088388,32 37.088388,32 L 22.160133,31.978069 C 22.160133,31.978069 26.997745,27.140456 26.997745,27.140456 C 18.528582,18.264221 13.291696,25.230495 11.500037,31.436501 z"
             style="fill:#404040;"/>
          </a>
         </g>
        </svg>
</svg>
