<?xml version="1.0" encoding="UTF-8" standalone="no"?>
<!DOCTYPE svg PUBLIC "-//W3C//DTD SVG 1.1//EN"
 "http://www.w3.org/Graphics/SVG/1.1/DTD/svg11.dtd">
<!-- Generated by graphviz version 2.38.0 (20140413.2041)
 -->
<!-- Title: sgl::SceneManager Pages: 1 -->
<svg width="1322pt" height="170pt"
 viewBox="0.00 0.00 1322.00 170.00" xmlns="http://www.w3.org/2000/svg" xmlns:xlink="http://www.w3.org/1999/xlink">
<g id="graph0" class="graph" transform="scale(1 1) rotate(0) translate(4 166)">
<title>sgl::SceneManager</title>
<polygon fill="white" stroke="none" points="-4,4 -4,-166 1318,-166 1318,4 -4,4"/>
<!-- Node1 -->
<g id="node1" class="node"><title>Node1</title>
<polygon fill="#bfbfbf" stroke="black" points="644,-130.5 644,-149.5 745,-149.5 745,-130.5 644,-130.5"/>
<text text-anchor="middle" x="694.5" y="-137.5" font-family="Helvetica,sans-Serif" font-size="10.00">sgl::SceneManager</text>
</g>
<!-- Node8 -->
<g id="node8" class="node"><title>Node8</title>
<g id="a_node8"><a xlink:href="../../d8/dcf/classsgl_1_1Scene.html" target="_top" xlink:title="Base class which every user scene must derive from. ">
<polygon fill="white" stroke="black" points="865,-116.5 865,-135.5 928,-135.5 928,-116.5 865,-116.5"/>
<text text-anchor="middle" x="896.5" y="-123.5" font-family="Helvetica,sans-Serif" font-size="10.00">sgl::Scene</text>
</a>
</g>
</g>
<!-- Node1&#45;&gt;Node8 -->
<g id="edge12" class="edge"><title>Node1&#45;&gt;Node8</title>
<path fill="none" stroke="#9a32cd" stroke-dasharray="5,2" d="M755.584,-135.794C791.556,-133.276 835.772,-130.181 864.748,-128.153"/>
<polygon fill="#9a32cd" stroke="#9a32cd" points="754.926,-132.332 745.195,-136.521 755.415,-139.314 754.926,-132.332"/>
<text text-anchor="middle" x="805.5" y="-139" font-family="Helvetica,sans-Serif" font-size="10.00"> m_sceneManager</text>
</g>
<!-- Node2 -->
<g id="node2" class="node"><title>Node2</title>
<polygon fill="white" stroke="#bfbfbf" points="376.5,-119.5 376.5,-160.5 479.5,-160.5 479.5,-119.5 376.5,-119.5"/>
<text text-anchor="start" x="384.5" y="-148.5" font-family="Helvetica,sans-Serif" font-size="10.00">std::unordered_map</text>
<text text-anchor="start" x="384.5" y="-137.5" font-family="Helvetica,sans-Serif" font-size="10.00">&lt; std::size_t, std::</text>
<text text-anchor="middle" x="428" y="-126.5" font-family="Helvetica,sans-Serif" font-size="10.00">size_t &gt;</text>
</g>
<!-- Node2&#45;&gt;Node1 -->
<g id="edge1" class="edge"><title>Node2&#45;&gt;Node1</title>
<path fill="none" stroke="#9a32cd" stroke-dasharray="5,2" d="M489.974,-140C536.672,-140 600.276,-140 643.882,-140"/>
<polygon fill="#9a32cd" stroke="#9a32cd" points="489.685,-136.5 479.685,-140 489.685,-143.5 489.685,-136.5"/>
<text text-anchor="middle" x="572" y="-143" font-family="Helvetica,sans-Serif" font-size="10.00"> m_hashCodeToSceneId</text>
</g>
<!-- Node3 -->
<g id="node3" class="node"><title>Node3</title>
<g id="a_node3"><a xlink:title="STL class. ">
<polygon fill="white" stroke="#bfbfbf" points="108,-125 108,-155 211,-155 211,-125 108,-125"/>
<text text-anchor="start" x="116" y="-143" font-family="Helvetica,sans-Serif" font-size="10.00">std::unordered_map</text>
<text text-anchor="middle" x="159.5" y="-132" font-family="Helvetica,sans-Serif" font-size="10.00">&lt; K, T &gt;</text>
</a>
</g>
</g>
<!-- Node3&#45;&gt;Node2 -->
<g id="edge2" class="edge"><title>Node3&#45;&gt;Node2</title>
<path fill="none" stroke="orange" stroke-dasharray="5,2" d="M221.286,-140C268.192,-140 332.313,-140 376.435,-140"/>
<polygon fill="orange" stroke="orange" points="221.254,-136.5 211.254,-140 221.254,-143.5 221.254,-136.5"/>
<text text-anchor="start" x="244" y="-154" font-family="Helvetica,sans-Serif" font-size="10.00"> &lt; std::size_t, std</text>
<text text-anchor="middle" x="283" y="-143" font-family="Helvetica,sans-Serif" font-size="10.00">::size_t &gt;</text>
</g>
<!-- Node4 -->
<g id="node4" class="node"><title>Node4</title>
<polygon fill="white" stroke="#bfbfbf" points="0,-142.5 0,-161.5 29,-161.5 29,-142.5 0,-142.5"/>
<text text-anchor="middle" x="14.5" y="-149.5" font-family="Helvetica,sans-Serif" font-size="10.00">K</text>
</g>
<!-- Node4&#45;&gt;Node3 -->
<g id="edge3" class="edge"><title>Node4&#45;&gt;Node3</title>
<path fill="none" stroke="#9a32cd" stroke-dasharray="5,2" d="M39.1861,-150.012C57.8466,-148.446 84.5282,-146.207 107.929,-144.244"/>
<polygon fill="#9a32cd" stroke="#9a32cd" points="38.8837,-146.525 29.2114,-150.849 39.4691,-153.501 38.8837,-146.525"/>
<text text-anchor="middle" x="68.5" y="-153" font-family="Helvetica,sans-Serif" font-size="10.00"> keys</text>
</g>
<!-- Node5 -->
<g id="node5" class="node"><title>Node5</title>
<polygon fill="white" stroke="#bfbfbf" points="0,-74.5 0,-93.5 29,-93.5 29,-74.5 0,-74.5"/>
<text text-anchor="middle" x="14.5" y="-81.5" font-family="Helvetica,sans-Serif" font-size="10.00">T</text>
</g>
<!-- Node5&#45;&gt;Node3 -->
<g id="edge4" class="edge"><title>Node5&#45;&gt;Node3</title>
<path fill="none" stroke="#9a32cd" stroke-dasharray="5,2" d="M38.7053,-93.0874C60.6496,-101.681 93.9906,-114.738 119.932,-124.896"/>
<polygon fill="#9a32cd" stroke="#9a32cd" points="39.7992,-89.757 29.2114,-89.3695 37.2466,-96.275 39.7992,-89.757"/>
<text text-anchor="middle" x="68.5" y="-115" font-family="Helvetica,sans-Serif" font-size="10.00"> elements</text>
</g>
<!-- Node11 -->
<g id="node11" class="node"><title>Node11</title>
<g id="a_node11"><a xlink:title="STL class. ">
<polygon fill="white" stroke="#bfbfbf" points="117,-34.5 117,-53.5 202,-53.5 202,-34.5 117,-34.5"/>
<text text-anchor="middle" x="159.5" y="-41.5" font-family="Helvetica,sans-Serif" font-size="10.00">std::vector&lt; T &gt;</text>
</a>
</g>
</g>
<!-- Node5&#45;&gt;Node11 -->
<g id="edge11" class="edge"><title>Node5&#45;&gt;Node11</title>
<path fill="none" stroke="#9a32cd" stroke-dasharray="5,2" d="M28.217,-66.0315C33.3428,-60.1993 39.7635,-54.3686 47,-51 68.6282,-40.9319 95.2129,-38.9227 116.998,-39.5525"/>
<polygon fill="#9a32cd" stroke="#9a32cd" points="25.1442,-64.275 21.6897,-74.2908 30.6361,-68.6153 25.1442,-64.275"/>
<text text-anchor="middle" x="68.5" y="-54" font-family="Helvetica,sans-Serif" font-size="10.00"> elements</text>
</g>
<!-- Node12 -->
<g id="node12" class="node"><title>Node12</title>
<g id="a_node12"><a xlink:title="STL class. ">
<polygon fill="white" stroke="#bfbfbf" points="231,-75.5 231,-94.5 335,-94.5 335,-75.5 231,-75.5"/>
<text text-anchor="middle" x="283" y="-82.5" font-family="Helvetica,sans-Serif" font-size="10.00">std::unique_ptr&lt; T &gt;</text>
</a>
</g>
</g>
<!-- Node5&#45;&gt;Node12 -->
<g id="edge14" class="edge"><title>Node5&#45;&gt;Node12</title>
<path fill="none" stroke="#9a32cd" stroke-dasharray="5,2" d="M39.453,-83.1602C42.0006,-83.0946 44.5535,-83.0388 47,-83 66.1087,-82.6968 70.8891,-82.9005 90,-83 137.669,-83.2483 191.992,-83.8432 230.661,-84.3201"/>
<polygon fill="#9a32cd" stroke="#9a32cd" points="39.1874,-79.6665 29.2977,-83.4671 39.3989,-86.6634 39.1874,-79.6665"/>
<text text-anchor="middle" x="68.5" y="-86" font-family="Helvetica,sans-Serif" font-size="10.00"> ptr</text>
</g>
<!-- Node6 -->
<g id="node6" class="node"><title>Node6</title>
<polygon fill="white" stroke="#bfbfbf" points="1195,-89 1195,-119 1314,-119 1314,-89 1195,-89"/>
<text text-anchor="start" x="1203" y="-107" font-family="Helvetica,sans-Serif" font-size="10.00">std::vector&lt; std::unique</text>
<text text-anchor="middle" x="1254.5" y="-96" font-family="Helvetica,sans-Serif" font-size="10.00">_ptr&lt; sgl::Scene &gt; &gt;</text>
</g>
<!-- Node6&#45;&gt;Node1 -->
<g id="edge5" class="edge"><title>Node6&#45;&gt;Node1</title>
<path fill="none" stroke="#9a32cd" stroke-dasharray="5,2" d="M1184.64,-117.659C1182.06,-118.121 1179.51,-118.569 1177,-119 1149.99,-123.638 1143.21,-124.765 1116,-128 960.346,-146.505 920.338,-161.351 764,-150 757.887,-149.556 751.491,-148.892 745.167,-148.114"/>
<polygon fill="#9a32cd" stroke="#9a32cd" points="1185.45,-121.069 1194.66,-115.827 1184.2,-114.183 1185.45,-121.069"/>
<text text-anchor="middle" x="970.5" y="-153" font-family="Helvetica,sans-Serif" font-size="10.00"> m_scenes</text>
</g>
<!-- Node7 -->
<g id="node7" class="node"><title>Node7</title>
<polygon fill="white" stroke="#bfbfbf" points="1013,-89 1013,-119 1116,-119 1116,-89 1013,-89"/>
<text text-anchor="start" x="1021" y="-107" font-family="Helvetica,sans-Serif" font-size="10.00">std::unique_ptr&lt; sgl</text>
<text text-anchor="middle" x="1064.5" y="-96" font-family="Helvetica,sans-Serif" font-size="10.00">::Scene &gt;</text>
</g>
<!-- Node7&#45;&gt;Node6 -->
<g id="edge6" class="edge"><title>Node7&#45;&gt;Node6</title>
<path fill="none" stroke="#9a32cd" stroke-dasharray="5,2" d="M1126.57,-104C1148.52,-104 1173.21,-104 1194.93,-104"/>
<polygon fill="#9a32cd" stroke="#9a32cd" points="1126.38,-100.5 1116.38,-104 1126.38,-107.5 1126.38,-100.5"/>
<text text-anchor="middle" x="1155.5" y="-107" font-family="Helvetica,sans-Serif" font-size="10.00"> elements</text>
</g>
<!-- Node8&#45;&gt;Node7 -->
<g id="edge7" class="edge"><title>Node8&#45;&gt;Node7</title>
<path fill="none" stroke="#9a32cd" stroke-dasharray="5,2" d="M938.256,-120.599C960.796,-117.611 989.004,-113.873 1012.94,-110.701"/>
<polygon fill="#9a32cd" stroke="#9a32cd" points="937.788,-117.13 928.334,-121.914 938.707,-124.069 937.788,-117.13"/>
<text text-anchor="middle" x="970.5" y="-123" font-family="Helvetica,sans-Serif" font-size="10.00"> ptr</text>
</g>
<!-- Node9 -->
<g id="node9" class="node"><title>Node9</title>
<g id="a_node9"><a xlink:href="../../dc/dee/classsgl_1_1Graphics_1_1Node.html" target="_top" xlink:title="Abstract base class for a scene graph node. ">
<polygon fill="white" stroke="black" points="643,-32.5 643,-51.5 746,-51.5 746,-32.5 643,-32.5"/>
<text text-anchor="middle" x="694.5" y="-39.5" font-family="Helvetica,sans-Serif" font-size="10.00">sgl::Graphics::Node</text>
</a>
</g>
</g>
<!-- Node9&#45;&gt;Node8 -->
<g id="edge8" class="edge"><title>Node9&#45;&gt;Node8</title>
<path fill="none" stroke="midnightblue" d="M727.9,-55.608C768.588,-72.6968 837.351,-101.577 872.825,-116.477"/>
<polygon fill="midnightblue" stroke="midnightblue" points="729.018,-52.2813 718.443,-51.6359 726.307,-58.7352 729.018,-52.2813"/>
</g>
<!-- Node10 -->
<g id="node10" class="node"><title>Node10</title>
<polygon fill="white" stroke="#bfbfbf" points="355,-29 355,-59 501,-59 501,-29 355,-29"/>
<text text-anchor="start" x="363" y="-47" font-family="Helvetica,sans-Serif" font-size="10.00">std::vector&lt; std::shared</text>
<text text-anchor="middle" x="428" y="-36" font-family="Helvetica,sans-Serif" font-size="10.00">_ptr&lt; sgl::Graphics::Node &gt; &gt;</text>
</g>
<!-- Node10&#45;&gt;Node9 -->
<g id="edge9" class="edge"><title>Node10&#45;&gt;Node9</title>
<path fill="none" stroke="#9a32cd" stroke-dasharray="5,2" d="M511.436,-43.3767C554.385,-43.0519 605.543,-42.6651 642.678,-42.3843"/>
<polygon fill="#9a32cd" stroke="#9a32cd" points="511.249,-39.8779 501.276,-43.4535 511.302,-46.8777 511.249,-39.8779"/>
<text text-anchor="middle" x="572" y="-47" font-family="Helvetica,sans-Serif" font-size="10.00"> m_children</text>
</g>
<!-- Node11&#45;&gt;Node6 -->
<g id="edge15" class="edge"><title>Node11&#45;&gt;Node6</title>
<path fill="none" stroke="orange" stroke-dasharray="5,2" d="M205.571,-31.9332C258.267,-18.9069 348.306,-0 427,-0 427,-0 427,-0 1065.5,-0 1137.86,-0 1208.52,-59.7251 1238.49,-88.6544"/>
<polygon fill="orange" stroke="orange" points="204.39,-28.6211 195.545,-34.4527 206.096,-35.4101 204.39,-28.6211"/>
<text text-anchor="start" x="764" y="-14" font-family="Helvetica,sans-Serif" font-size="10.00"> &lt; std::unique_ptr&lt;</text>
<text text-anchor="middle" x="805.5" y="-3" font-family="Helvetica,sans-Serif" font-size="10.00"> sgl::Scene &gt; &gt;</text>
</g>
<!-- Node11&#45;&gt;Node10 -->
<g id="edge10" class="edge"><title>Node11&#45;&gt;Node10</title>
<path fill="none" stroke="orange" stroke-dasharray="5,2" d="M212.343,-44C252.903,-44 309.777,-44 354.793,-44"/>
<polygon fill="orange" stroke="orange" points="212.141,-40.5001 202.141,-44 212.141,-47.5001 212.141,-40.5001"/>
<text text-anchor="start" x="229" y="-58" font-family="Helvetica,sans-Serif" font-size="10.00"> &lt; std::shared_ptr&lt;</text>
<text text-anchor="middle" x="283" y="-47" font-family="Helvetica,sans-Serif" font-size="10.00"> sgl::Graphics::Node &gt; &gt;</text>
</g>
<!-- Node12&#45;&gt;Node7 -->
<g id="edge13" class="edge"><title>Node12&#45;&gt;Node7</title>
<path fill="none" stroke="orange" stroke-dasharray="5,2" d="M345.178,-86.0096C403.281,-86.8808 493.086,-88 571,-88 571,-88 571,-88 897.5,-88 936.297,-88 979.96,-92.3838 1012.77,-96.5621"/>
<polygon fill="orange" stroke="orange" points="345.116,-82.5084 335.064,-85.8557 345.01,-89.5076 345.116,-82.5084"/>
<text text-anchor="middle" x="694.5" y="-91" font-family="Helvetica,sans-Serif" font-size="10.00"> &lt; sgl::Scene &gt;</text>
</g>
</g>
</svg>
