<?xml version="1.0" encoding="UTF-8" standalone="no"?>
<!DOCTYPE svg PUBLIC "-//W3C//DTD SVG 1.1//EN"
 "http://www.w3.org/Graphics/SVG/1.1/DTD/svg11.dtd">
<!-- Generated by graphviz version 2.38.0 (20140413.2041)
 -->
<!-- Title: sgl::SceneManager Pages: 1 -->
<!--zoomable 485 -->
<svg id="main" version="1.1" xmlns="http://www.w3.org/2000/svg" xmlns:xlink="http://www.w3.org/1999/xlink" xml:space="preserve" onload="init(evt)">
<style type="text/css"><![CDATA[
.edge:hover path { stroke: red; }
.edge:hover polygon { stroke: red; fill: red; }
]]></style>
<script type="text/javascript"><![CDATA[
var edges = document.getElementsByTagName('g');
if (edges && edges.length) {
  for (var i=0;i<edges.length;i++) {
    if (edges[i].id.substr(0,4)=='edge') {
      edges[i].setAttribute('class','edge');
    }
  }
}
]]></script>
        <defs>
                <circle id="rim" cx="0" cy="0" r="7"/>
                <circle id="rim2" cx="0" cy="0" r="3.5"/>
                <g id="zoomPlus">
                        <use xlink:href="#rim" fill="#404040">
                                <set attributeName="fill" to="#808080" begin="zoomplus.mouseover" end="zoomplus.mouseout"/>
                        </use>
                        <path d="M-4,0h8M0,-4v8" fill="none" stroke="white" stroke-width="1.5" pointer-events="none"/>
                </g>
                <g id="zoomMin">
                        <use xlink:href="#rim" fill="#404040">
                                <set attributeName="fill" to="#808080" begin="zoomminus.mouseover" end="zoomminus.mouseout"/>
                        </use>
                        <path d="M-4,0h8" fill="none" stroke="white" stroke-width="1.5" pointer-events="none"/>
                </g>
                <g id="dirArrow">
                        <path fill="none" stroke="white" stroke-width="1.5" d="M0,-3.0v7 M-2.5,-0.5L0,-3.0L2.5,-0.5"/>
                </g>
               <g id="resetDef">
                       <use xlink:href="#rim2" fill="#404040">
                               <set attributeName="fill" to="#808080" begin="reset.mouseover" end="reset.mouseout"/>
                       </use>
               </g>
        </defs>

<script type="text/javascript">
var viewWidth = 382;
var viewHeight = 485;
var sectionId = 'dynsection-0';
</script>
<script xlink:href="../../svgpan.js"/>
<svg id="graph" class="graph">
<g id="viewport">
<title>sgl::SceneManager</title>
<polygon fill="white" stroke="none" points="-4,4 -4,-481 378,-481 378,4 -4,4"/>
<!-- Node1 -->
<g id="node1" class="node"><title>Node1</title>
<polygon fill="#bfbfbf" stroke="black" points="47.5,-234.5 47.5,-253.5 148.5,-253.5 148.5,-234.5 47.5,-234.5"/>
<text text-anchor="middle" x="98" y="-241.5" font-family="Helvetica,sans-Serif" font-size="10.00">sgl::SceneManager</text>
</g>
<!-- Node4 -->
<g id="node4" class="node"><title>Node4</title>
<g id="a_node4"><a xlink:href="../../d8/dcf/classsgl_1_1Scene.html" target="_top" xlink:title="Base class which every user scene must derive from. ">
<polygon fill="white" stroke="black" points="171.5,-156.5 171.5,-175.5 234.5,-175.5 234.5,-156.5 171.5,-156.5"/>
<text text-anchor="middle" x="203" y="-163.5" font-family="Helvetica,sans-Serif" font-size="10.00">sgl::Scene</text>
</a>
</g>
</g>
<!-- Node1&#45;&gt;Node4 -->
<g id="edge8" class="edge"><title>Node1&#45;&gt;Node4</title>
<path fill="none" stroke="#9a32cd" stroke-dasharray="5,2" d="M105.458,-224.787C110.483,-214.504 118.023,-202.126 128,-194 140.447,-183.862 157.013,-177.368 171.41,-173.297"/>
<polygon fill="#9a32cd" stroke="#9a32cd" points="102.165,-223.577 101.274,-234.135 108.554,-226.437 102.165,-223.577"/>
<text text-anchor="middle" x="168.5" y="-202.5" font-family="Helvetica,sans-Serif" font-size="10.00"> m_sceneManager</text>
</g>
<!-- Node2 -->
<g id="node2" class="node"><title>Node2</title>
<polygon fill="white" stroke="#bfbfbf" points="38.5,-0.5 38.5,-30.5 157.5,-30.5 157.5,-0.5 38.5,-0.5"/>
<text text-anchor="start" x="46.5" y="-18.5" font-family="Helvetica,sans-Serif" font-size="10.00">std::vector&lt; std::unique</text>
<text text-anchor="middle" x="98" y="-7.5" font-family="Helvetica,sans-Serif" font-size="10.00">_ptr&lt; sgl::Scene &gt; &gt;</text>
</g>
<!-- Node2&#45;&gt;Node1 -->
<g id="edge1" class="edge"><title>Node2&#45;&gt;Node1</title>
<path fill="none" stroke="#9a32cd" stroke-dasharray="5,2" d="M98,-40.7422C98,-90.5816 98,-202.545 98,-234.398"/>
<polygon fill="#9a32cd" stroke="#9a32cd" points="101.5,-40.5616 98,-30.5617 94.5001,-40.5617 101.5,-40.5616"/>
<text text-anchor="middle" x="122.5" y="-130" font-family="Helvetica,sans-Serif" font-size="10.00"> m_scenes</text>
</g>
<!-- Node3 -->
<g id="node3" class="node"><title>Node3</title>
<polygon fill="white" stroke="#bfbfbf" points="151.5,-78.5 151.5,-108.5 254.5,-108.5 254.5,-78.5 151.5,-78.5"/>
<text text-anchor="start" x="159.5" y="-96.5" font-family="Helvetica,sans-Serif" font-size="10.00">std::unique_ptr&lt; sgl</text>
<text text-anchor="middle" x="203" y="-85.5" font-family="Helvetica,sans-Serif" font-size="10.00">::Scene &gt;</text>
</g>
<!-- Node3&#45;&gt;Node2 -->
<g id="edge2" class="edge"><title>Node3&#45;&gt;Node2</title>
<path fill="none" stroke="#9a32cd" stroke-dasharray="5,2" d="M174.831,-72.1108C156.767,-59.0359 133.768,-42.3895 117.661,-30.7309"/>
<polygon fill="#9a32cd" stroke="#9a32cd" points="173.097,-75.1768 183.25,-78.205 177.202,-69.5063 173.097,-75.1768"/>
<text text-anchor="middle" x="178.5" y="-52" font-family="Helvetica,sans-Serif" font-size="10.00"> elements</text>
</g>
<!-- Node4&#45;&gt;Node3 -->
<g id="edge3" class="edge"><title>Node4&#45;&gt;Node3</title>
<path fill="none" stroke="#9a32cd" stroke-dasharray="5,2" d="M203,-146.236C203,-134.408 203,-119.383 203,-108.576"/>
<polygon fill="#9a32cd" stroke="#9a32cd" points="199.5,-146.355 203,-156.355 206.5,-146.355 199.5,-146.355"/>
<text text-anchor="middle" x="210.5" y="-130" font-family="Helvetica,sans-Serif" font-size="10.00"> ptr</text>
</g>
<!-- Node5 -->
<g id="node5" class="node"><title>Node5</title>
<g id="a_node5"><a xlink:href="../../dc/dee/classsgl_1_1Graphics_1_1Node.html" target="_top" xlink:title="Abstract base class for a scene graph node. ">
<polygon fill="white" stroke="black" points="166.5,-234.5 166.5,-253.5 269.5,-253.5 269.5,-234.5 166.5,-234.5"/>
<text text-anchor="middle" x="218" y="-241.5" font-family="Helvetica,sans-Serif" font-size="10.00">sgl::Graphics::Node</text>
</a>
</g>
</g>
<!-- Node5&#45;&gt;Node4 -->
<g id="edge4" class="edge"><title>Node5&#45;&gt;Node4</title>
<path fill="none" stroke="midnightblue" d="M217.198,-224.207C216.524,-215.01 215.283,-203.83 213,-194 211.553,-187.768 209.053,-181.018 206.914,-175.826"/>
<polygon fill="midnightblue" stroke="midnightblue" points="213.705,-224.433 217.771,-234.216 220.694,-224.033 213.705,-224.433"/>
</g>
<!-- Node6 -->
<g id="node6" class="node"><title>Node6</title>
<polygon fill="white" stroke="#bfbfbf" points="100,-301.5 100,-331.5 246,-331.5 246,-301.5 100,-301.5"/>
<text text-anchor="start" x="108" y="-319.5" font-family="Helvetica,sans-Serif" font-size="10.00">std::vector&lt; std::shared</text>
<text text-anchor="middle" x="173" y="-308.5" font-family="Helvetica,sans-Serif" font-size="10.00">_ptr&lt; sgl::Graphics::Node &gt; &gt;</text>
</g>
<!-- Node6&#45;&gt;Node5 -->
<g id="edge5" class="edge"><title>Node6&#45;&gt;Node5</title>
<path fill="none" stroke="#9a32cd" stroke-dasharray="5,2" d="M187.6,-292.626C196.027,-279.424 206.147,-263.57 212.324,-253.893"/>
<polygon fill="#9a32cd" stroke="#9a32cd" points="184.537,-290.921 182.106,-301.233 190.437,-294.687 184.537,-290.921"/>
<text text-anchor="middle" x="225.5" y="-275" font-family="Helvetica,sans-Serif" font-size="10.00"> m_children</text>
</g>
<!-- Node7 -->
<g id="node7" class="node"><title>Node7</title>
<g id="a_node7"><a xlink:title="STL class. ">
<polygon fill="white" stroke="#bfbfbf" points="98.5,-390.5 98.5,-409.5 183.5,-409.5 183.5,-390.5 98.5,-390.5"/>
<text text-anchor="middle" x="141" y="-397.5" font-family="Helvetica,sans-Serif" font-size="10.00">std::vector&lt; T &gt;</text>
</a>
</g>
</g>
<!-- Node7&#45;&gt;Node2 -->
<g id="edge11" class="edge"><title>Node7&#45;&gt;Node2</title>
<path fill="none" stroke="orange" stroke-dasharray="5,2" d="M88.3402,-390.428C48.2825,-380.549 0,-359.856 0,-317.5 0,-317.5 0,-317.5 0,-92.5 0,-62.3572 29.3091,-42.4536 55.8704,-30.6049"/>
<polygon fill="orange" stroke="orange" points="87.7836,-393.891 98.3127,-392.713 89.3472,-387.068 87.7836,-393.891"/>
<text text-anchor="start" x="0" y="-208" font-family="Helvetica,sans-Serif" font-size="10.00"> &lt; std::unique_ptr&lt;</text>
<text text-anchor="middle" x="41.5" y="-197" font-family="Helvetica,sans-Serif" font-size="10.00"> sgl::Scene &gt; &gt;</text>
</g>
<!-- Node7&#45;&gt;Node6 -->
<g id="edge6" class="edge"><title>Node7&#45;&gt;Node6</title>
<path fill="none" stroke="orange" stroke-dasharray="5,2" d="M135.325,-380.307C133.467,-370.853 132.814,-359.418 137,-350 140.146,-342.921 145.68,-336.733 151.48,-331.709"/>
<polygon fill="orange" stroke="orange" points="131.996,-381.42 137.843,-390.256 138.782,-379.703 131.996,-381.42"/>
<text text-anchor="start" x="137" y="-364" font-family="Helvetica,sans-Serif" font-size="10.00"> &lt; std::shared_ptr&lt;</text>
<text text-anchor="middle" x="191" y="-353" font-family="Helvetica,sans-Serif" font-size="10.00"> sgl::Graphics::Node &gt; &gt;</text>
</g>
<!-- Node8 -->
<g id="node8" class="node"><title>Node8</title>
<polygon fill="white" stroke="#bfbfbf" points="198.5,-457.5 198.5,-476.5 227.5,-476.5 227.5,-457.5 198.5,-457.5"/>
<text text-anchor="middle" x="213" y="-464.5" font-family="Helvetica,sans-Serif" font-size="10.00">T</text>
</g>
<!-- Node8&#45;&gt;Node7 -->
<g id="edge7" class="edge"><title>Node8&#45;&gt;Node7</title>
<path fill="none" stroke="#9a32cd" stroke-dasharray="5,2" d="M195.672,-450.356C181.517,-437.578 162.037,-419.992 150.556,-409.627"/>
<polygon fill="#9a32cd" stroke="#9a32cd" points="193.522,-453.131 203.29,-457.234 198.212,-447.935 193.522,-453.131"/>
<text text-anchor="middle" x="203.5" y="-431" font-family="Helvetica,sans-Serif" font-size="10.00"> elements</text>
</g>
<!-- Node9 -->
<g id="node9" class="node"><title>Node9</title>
<g id="a_node9"><a xlink:title="STL class. ">
<polygon fill="white" stroke="#bfbfbf" points="254,-351.5 254,-370.5 358,-370.5 358,-351.5 254,-351.5"/>
<text text-anchor="middle" x="306" y="-358.5" font-family="Helvetica,sans-Serif" font-size="10.00">std::unique_ptr&lt; T &gt;</text>
</a>
</g>
</g>
<!-- Node8&#45;&gt;Node9 -->
<g id="edge10" class="edge"><title>Node8&#45;&gt;Node9</title>
<path fill="none" stroke="#9a32cd" stroke-dasharray="5,2" d="M227.436,-449.856C247.4,-427.531 282.731,-388.021 298.284,-370.628"/>
<polygon fill="#9a32cd" stroke="#9a32cd" points="224.667,-447.702 220.611,-457.489 229.885,-452.368 224.667,-447.702"/>
<text text-anchor="middle" x="253.5" y="-431" font-family="Helvetica,sans-Serif" font-size="10.00"> ptr</text>
</g>
<!-- Node9&#45;&gt;Node3 -->
<g id="edge9" class="edge"><title>Node9&#45;&gt;Node3</title>
<path fill="none" stroke="orange" stroke-dasharray="5,2" d="M306,-340.99C306,-324.473 306,-299.905 306,-278.5 306,-278.5 306,-278.5 306,-165 306,-136.938 279.643,-119.226 253.595,-108.574"/>
<polygon fill="orange" stroke="orange" points="302.5,-341.434 306,-351.434 309.5,-341.434 302.5,-341.434"/>
<text text-anchor="middle" x="340" y="-241.5" font-family="Helvetica,sans-Serif" font-size="10.00"> &lt; sgl::Scene &gt;</text>
</g>
</g>
</svg>
        <g id="navigator" transform="translate(0 0)" fill="#404254">
                <rect fill="#f2f5e9" fill-opacity="0.5" stroke="#606060" stroke-width=".5" x="0" y="0" width="60" height="60"/>
                <use id="zoomplus" xlink:href="#zoomPlus" x="17" y="9" onmousedown="handleZoom(evt,'in')"/>
                <use id="zoomminus" xlink:href="#zoomMin" x="42" y="9" onmousedown="handleZoom(evt,'out')"/>
                <use id="reset" xlink:href="#resetDef" x="30" y="36" onmousedown="handleReset()"/>
                <g id="arrowUp" xlink:href="#dirArrow" transform="translate(30 24)" onmousedown="handlePan(0,-1)">
                  <use xlink:href="#rim" fill="#404040">
                        <set attributeName="fill" to="#808080" begin="arrowUp.mouseover" end="arrowUp.mouseout"/>
                  </use>
                  <path fill="none" stroke="white" stroke-width="1.5" d="M0,-3.0v7 M-2.5,-0.5L0,-3.0L2.5,-0.5"/>
                </g>
                <g id="arrowRight" xlink:href="#dirArrow" transform="rotate(90) translate(36 -43)" onmousedown="handlePan(1,0)">
                  <use xlink:href="#rim" fill="#404040">
                        <set attributeName="fill" to="#808080" begin="arrowRight.mouseover" end="arrowRight.mouseout"/>
                  </use>
                  <path fill="none" stroke="white" stroke-width="1.5" d="M0,-3.0v7 M-2.5,-0.5L0,-3.0L2.5,-0.5"/>
                </g>
                <g id="arrowDown" xlink:href="#dirArrow" transform="rotate(180) translate(-30 -48)" onmousedown="handlePan(0,1)">
                  <use xlink:href="#rim" fill="#404040">
                        <set attributeName="fill" to="#808080" begin="arrowDown.mouseover" end="arrowDown.mouseout"/>
                  </use>
                  <path fill="none" stroke="white" stroke-width="1.5" d="M0,-3.0v7 M-2.5,-0.5L0,-3.0L2.5,-0.5"/>
                </g>
                <g id="arrowLeft" xlink:href="#dirArrow" transform="rotate(270) translate(-36 17)" onmousedown="handlePan(-1,0)">
                  <use xlink:href="#rim" fill="#404040">
                        <set attributeName="fill" to="#808080" begin="arrowLeft.mouseover" end="arrowLeft.mouseout"/>
                  </use>
                  <path fill="none" stroke="white" stroke-width="1.5" d="M0,-3.0v7 M-2.5,-0.5L0,-3.0L2.5,-0.5"/>
                </g>
        </g>
        <svg viewBox="0 0 15 15" width="100%" height="30px" preserveAspectRatio="xMaxYMin meet">
         <g id="arrow_out" transform="scale(0.3 0.3)">
          <a xlink:href="classsgl_1_1SceneManager__coll__graph_org.svg" target="_base">
           <rect id="button" ry="5" rx="5" y="6" x="6" height="38" width="38"
                fill="#f2f5e9" fill-opacity="0.5" stroke="#606060" stroke-width="1.0"/>
           <path id="arrow"
             d="M 11.500037,31.436501 C 11.940474,20.09759 22.043105,11.32322 32.158766,21.979434 L 37.068811,17.246167 C 37.068811,17.246167 37.088388,32 37.088388,32 L 22.160133,31.978069 C 22.160133,31.978069 26.997745,27.140456 26.997745,27.140456 C 18.528582,18.264221 13.291696,25.230495 11.500037,31.436501 z"
             style="fill:#404040;"/>
          </a>
         </g>
        </svg>
</svg>
