<?xml version="1.0" encoding="UTF-8" standalone="no"?>
<!DOCTYPE svg PUBLIC "-//W3C//DTD SVG 1.1//EN"
 "http://www.w3.org/Graphics/SVG/1.1/DTD/svg11.dtd">
<!-- Generated by graphviz version 2.38.0 (20140413.2041)
 -->
<!-- Title: C:/Users/Folaefolc/Documents/Code/Big&#45;Projects/ScriptWizards/SmallGameLibrary/include/Small/GameObjects/Triggers/Update.hpp Pages: 1 -->
<svg width="290pt" height="206pt"
 viewBox="0.00 0.00 290.00 206.00" xmlns="http://www.w3.org/2000/svg" xmlns:xlink="http://www.w3.org/1999/xlink">
<g id="graph0" class="graph" transform="scale(1 1) rotate(0) translate(4 202)">
<title>C:/Users/Folaefolc/Documents/Code/Big&#45;Projects/ScriptWizards/SmallGameLibrary/include/Small/GameObjects/Triggers/Update.hpp</title>
<polygon fill="white" stroke="none" points="-4,4 -4,-202 286,-202 286,4 -4,4"/>
<!-- Node1 -->
<g id="node1" class="node"><title>Node1</title>
<polygon fill="#bfbfbf" stroke="black" points="73.5,-123.5 73.5,-197.5 218.5,-197.5 218.5,-123.5 73.5,-123.5"/>
<text text-anchor="start" x="81.5" y="-185.5" font-family="Helvetica,sans-Serif" font-size="10.00">C:/Users/Folaefolc</text>
<text text-anchor="start" x="81.5" y="-174.5" font-family="Helvetica,sans-Serif" font-size="10.00">/Documents/Code/Big</text>
<text text-anchor="start" x="81.5" y="-163.5" font-family="Helvetica,sans-Serif" font-size="10.00">&#45;Projects/ScriptWizards</text>
<text text-anchor="start" x="81.5" y="-152.5" font-family="Helvetica,sans-Serif" font-size="10.00">/SmallGameLibrary/include</text>
<text text-anchor="start" x="81.5" y="-141.5" font-family="Helvetica,sans-Serif" font-size="10.00">/Small/GameObjects/Triggers</text>
<text text-anchor="middle" x="146" y="-130.5" font-family="Helvetica,sans-Serif" font-size="10.00">/Update.hpp</text>
</g>
<!-- Node2 -->
<g id="node2" class="node"><title>Node2</title>
<g id="a_node2"><a xlink:href="../../d2/d29/Trigger_8hpp.html" target="_top" xlink:title="Define a base trigger class. ">
<polygon fill="white" stroke="black" points="0,-56.5 0,-86.5 142,-86.5 142,-56.5 0,-56.5"/>
<text text-anchor="start" x="8" y="-74.5" font-family="Helvetica,sans-Serif" font-size="10.00">Small/GameObjects/Triggers</text>
<text text-anchor="middle" x="71" y="-63.5" font-family="Helvetica,sans-Serif" font-size="10.00">/Trigger.hpp</text>
</a>
</g>
</g>
<!-- Node1&#45;&gt;Node2 -->
<g id="edge1" class="edge"><title>Node1&#45;&gt;Node2</title>
<path fill="none" stroke="midnightblue" d="M114.845,-123.36C106.427,-113.595 97.5699,-103.321 90.0372,-94.5832"/>
<polygon fill="midnightblue" stroke="midnightblue" points="92.4588,-92.0318 83.2785,-86.743 87.157,-96.6024 92.4588,-92.0318"/>
</g>
<!-- Node5 -->
<g id="node5" class="node"><title>Node5</title>
<polygon fill="white" stroke="#bfbfbf" points="160,-62 160,-81 282,-81 282,-62 160,-62"/>
<text text-anchor="middle" x="221" y="-69" font-family="Helvetica,sans-Serif" font-size="10.00">SFML/System/Time.hpp</text>
</g>
<!-- Node1&#45;&gt;Node5 -->
<g id="edge4" class="edge"><title>Node1&#45;&gt;Node5</title>
<path fill="none" stroke="midnightblue" d="M177.155,-123.36C187.49,-111.372 198.486,-98.6158 206.882,-88.8773"/>
<polygon fill="midnightblue" stroke="midnightblue" points="209.629,-91.0507 213.508,-81.1913 204.327,-86.4801 209.629,-91.0507"/>
</g>
<!-- Node3 -->
<g id="node3" class="node"><title>Node3</title>
<polygon fill="white" stroke="#bfbfbf" points="8,-0.5 8,-19.5 66,-19.5 66,-0.5 8,-0.5"/>
<text text-anchor="middle" x="37" y="-7.5" font-family="Helvetica,sans-Serif" font-size="10.00">functional</text>
</g>
<!-- Node2&#45;&gt;Node3 -->
<g id="edge2" class="edge"><title>Node2&#45;&gt;Node3</title>
<path fill="none" stroke="midnightblue" d="M62.9425,-56.3993C58.1547,-48.0207 52.0439,-37.3269 46.9559,-28.4229"/>
<polygon fill="midnightblue" stroke="midnightblue" points="49.9476,-26.6037 41.9473,-19.6578 43.8699,-30.0767 49.9476,-26.6037"/>
</g>
<!-- Node4 -->
<g id="node4" class="node"><title>Node4</title>
<polygon fill="white" stroke="#bfbfbf" points="84.5,-0.5 84.5,-19.5 125.5,-19.5 125.5,-0.5 84.5,-0.5"/>
<text text-anchor="middle" x="105" y="-7.5" font-family="Helvetica,sans-Serif" font-size="10.00">string</text>
</g>
<!-- Node2&#45;&gt;Node4 -->
<g id="edge3" class="edge"><title>Node2&#45;&gt;Node4</title>
<path fill="none" stroke="midnightblue" d="M79.0575,-56.3993C83.8453,-48.0207 89.9561,-37.3269 95.0441,-28.4229"/>
<polygon fill="midnightblue" stroke="midnightblue" points="98.1301,-30.0767 100.053,-19.6578 92.0524,-26.6037 98.1301,-30.0767"/>
</g>
</g>
</svg>
