<?xml version="1.0" encoding="UTF-8" standalone="no"?>
<!DOCTYPE svg PUBLIC "-//W3C//DTD SVG 1.1//EN"
 "http://www.w3.org/Graphics/SVG/1.1/DTD/svg11.dtd">
<!-- Generated by graphviz version 2.38.0 (20140413.2041)
 -->
<!-- Title: include/Small/Scripting/Engine.hpp Pages: 1 -->
<svg width="136pt" height="95pt"
 viewBox="0.00 0.00 136.00 95.00" xmlns="http://www.w3.org/2000/svg" xmlns:xlink="http://www.w3.org/1999/xlink">
<g id="graph0" class="graph" transform="scale(1 1) rotate(0) translate(4 91)">
<title>include/Small/Scripting/Engine.hpp</title>
<polygon fill="white" stroke="none" points="-4,4 -4,-91 132,-91 132,4 -4,4"/>
<!-- Node1 -->
<g id="node1" class="node"><title>Node1</title>
<polygon fill="#bfbfbf" stroke="black" points="12,-56.5 12,-86.5 128,-86.5 128,-56.5 12,-56.5"/>
<text text-anchor="start" x="20" y="-74.5" font-family="Helvetica,sans-Serif" font-size="10.00">include/Small/Scripting</text>
<text text-anchor="middle" x="70" y="-63.5" font-family="Helvetica,sans-Serif" font-size="10.00">/Engine.hpp</text>
</g>
<!-- Node2 -->
<g id="node2" class="node"><title>Node2</title>
<polygon fill="white" stroke="#bfbfbf" points="0,-0.5 0,-19.5 68,-19.5 68,-0.5 0,-0.5"/>
<text text-anchor="middle" x="34" y="-7.5" font-family="Helvetica,sans-Serif" font-size="10.00">Ark/Ark.hpp</text>
</g>
<!-- Node1&#45;&gt;Node2 -->
<g id="edge1" class="edge"><title>Node1&#45;&gt;Node2</title>
<path fill="none" stroke="midnightblue" d="M61.4685,-56.3993C56.3991,-48.0207 49.9289,-37.3269 44.5416,-28.4229"/>
<polygon fill="midnightblue" stroke="midnightblue" points="47.4096,-26.4018 39.2383,-19.6578 41.4205,-30.0255 47.4096,-26.4018"/>
</g>
<!-- Node3 -->
<g id="node3" class="node"><title>Node3</title>
<polygon fill="white" stroke="#bfbfbf" points="86.5,-0.5 86.5,-19.5 127.5,-19.5 127.5,-0.5 86.5,-0.5"/>
<text text-anchor="middle" x="107" y="-7.5" font-family="Helvetica,sans-Serif" font-size="10.00">string</text>
</g>
<!-- Node1&#45;&gt;Node3 -->
<g id="edge2" class="edge"><title>Node1&#45;&gt;Node3</title>
<path fill="none" stroke="midnightblue" d="M78.7685,-56.3993C83.9787,-48.0207 90.6286,-37.3269 96.1656,-28.4229"/>
<polygon fill="midnightblue" stroke="midnightblue" points="99.3076,-29.9981 101.616,-19.6578 93.3632,-26.3015 99.3076,-29.9981"/>
</g>
</g>
</svg>
