<?xml version="1.0" encoding="UTF-8" standalone="no"?>
<!DOCTYPE svg PUBLIC "-//W3C//DTD SVG 1.1//EN"
 "http://www.w3.org/Graphics/SVG/1.1/DTD/svg11.dtd">
<!-- Generated by graphviz version 2.49.0 (20210828.1703)
 -->
<!-- Title: C:/Users/folae/Documents/Code/Big&#45;Projects/ScriptWizards/SmallGameLibrary/include/Small/Scenes.hpp Pages: 1 -->
<svg width="1398pt" height="341pt"
 viewBox="0.00 0.00 1397.58 341.00" xmlns="http://www.w3.org/2000/svg" xmlns:xlink="http://www.w3.org/1999/xlink">
<g id="graph0" class="graph" transform="scale(1 1) rotate(0) translate(4 337)">
<title>C:/Users/folae/Documents/Code/Big&#45;Projects/ScriptWizards/SmallGameLibrary/include/Small/Scenes.hpp</title>
<polygon fill="white" stroke="transparent" points="-4,4 -4,-337 1393.58,-337 1393.58,4 -4,4"/>
<!-- Node1 -->
<g id="node1" class="node">
<title>Node1</title>
<g id="a_node1"><a xlink:title="Include all the files from the Scenes folder.">
<polygon fill="#bfbfbf" stroke="black" points="972.5,-280.5 972.5,-332.5 1135.5,-332.5 1135.5,-280.5 972.5,-280.5"/>
<text text-anchor="start" x="980.5" y="-320.5" font-family="Helvetica,sans-Serif" font-size="10.00">C:/Users/folae/Documents</text>
<text text-anchor="start" x="980.5" y="-309.5" font-family="Helvetica,sans-Serif" font-size="10.00">/Code/Big&#45;Projects/ScriptWizards</text>
<text text-anchor="start" x="980.5" y="-298.5" font-family="Helvetica,sans-Serif" font-size="10.00">/SmallGameLibrary/include/Small</text>
<text text-anchor="middle" x="1054" y="-287.5" font-family="Helvetica,sans-Serif" font-size="10.00">/Scenes.hpp</text>
</a>
</g>
</g>
<!-- Node2 -->
<g id="node2" class="node">
<title>Node2</title>
<g id="a_node2"><a xlink:href="../../d2/d50/Zone_8hpp.html" target="_top" xlink:title="A specialized scene to handle zones and transitions on a tilemap.">
<polygon fill="white" stroke="black" points="920,-224.5 920,-243.5 1040,-243.5 1040,-224.5 920,-224.5"/>
<text text-anchor="middle" x="980" y="-231.5" font-family="Helvetica,sans-Serif" font-size="10.00">Small/Scenes/Zone.hpp</text>
</a>
</g>
</g>
<!-- Node1&#45;&gt;Node2 -->
<g id="edge1" class="edge">
<title>Node1&#45;&gt;Node2</title>
<path fill="none" stroke="midnightblue" d="M1027.7,-280.45C1017.29,-270.53 1005.64,-259.43 996.47,-250.69"/>
<polygon fill="midnightblue" stroke="midnightblue" points="998.78,-248.06 989.13,-243.7 993.95,-253.13 998.78,-248.06"/>
</g>
<!-- Node23 -->
<g id="node23" class="node">
<title>Node23</title>
<g id="a_node23"><a xlink:href="../../de/de7/ArkScene_8hpp.html" target="_top" xlink:title="Define a scene scriptable through ArkScript.">
<polygon fill="white" stroke="black" points="1133,-224.5 1133,-243.5 1275,-243.5 1275,-224.5 1133,-224.5"/>
<text text-anchor="middle" x="1204" y="-231.5" font-family="Helvetica,sans-Serif" font-size="10.00">Small/Scenes/ArkScene.hpp</text>
</a>
</g>
</g>
<!-- Node1&#45;&gt;Node23 -->
<g id="edge29" class="edge">
<title>Node1&#45;&gt;Node23</title>
<path fill="none" stroke="midnightblue" d="M1107.31,-280.45C1130.79,-269.41 1157.38,-256.91 1176.72,-247.82"/>
<polygon fill="midnightblue" stroke="midnightblue" points="1178.3,-250.95 1185.86,-243.53 1175.32,-244.61 1178.3,-250.95"/>
</g>
<!-- Node3 -->
<g id="node3" class="node">
<title>Node3</title>
<g id="a_node3"><a xlink:href="../../db/de8/Scene_8hpp.html" target="_top" xlink:title="The base scene class and the scene states are defined here.">
<polygon fill="white" stroke="black" points="923,-168.5 923,-187.5 1037,-187.5 1037,-168.5 923,-168.5"/>
<text text-anchor="middle" x="980" y="-175.5" font-family="Helvetica,sans-Serif" font-size="10.00">Small/Core/Scene.hpp</text>
</a>
</g>
</g>
<!-- Node2&#45;&gt;Node3 -->
<g id="edge2" class="edge">
<title>Node2&#45;&gt;Node3</title>
<path fill="none" stroke="midnightblue" d="M980,-224.08C980,-217.01 980,-206.86 980,-197.99"/>
<polygon fill="midnightblue" stroke="midnightblue" points="983.5,-197.75 980,-187.75 976.5,-197.75 983.5,-197.75"/>
</g>
<!-- Node21 -->
<g id="node21" class="node">
<title>Node21</title>
<g id="a_node21"><a xlink:href="../../d8/d67/TileView_8hpp.html" target="_top" xlink:title="Utility to build and manipulate views based on tiles.">
<polygon fill="white" stroke="black" points="160.5,-168.5 160.5,-187.5 301.5,-187.5 301.5,-168.5 160.5,-168.5"/>
<text text-anchor="middle" x="231" y="-175.5" font-family="Helvetica,sans-Serif" font-size="10.00">Small/Graphics/TileView.hpp</text>
</a>
</g>
</g>
<!-- Node2&#45;&gt;Node21 -->
<g id="edge26" class="edge">
<title>Node2&#45;&gt;Node21</title>
<path fill="none" stroke="midnightblue" d="M919.97,-228.67C786.1,-219.02 463.03,-195.73 311.72,-184.82"/>
<polygon fill="midnightblue" stroke="midnightblue" points="311.79,-181.32 301.57,-184.09 311.29,-188.3 311.79,-181.32"/>
</g>
<!-- Node4 -->
<g id="node4" class="node">
<title>Node4</title>
<g id="a_node4"><a xlink:title=" ">
<polygon fill="white" stroke="#bfbfbf" points="1194.5,-0.5 1194.5,-19.5 1235.5,-19.5 1235.5,-0.5 1194.5,-0.5"/>
<text text-anchor="middle" x="1215" y="-7.5" font-family="Helvetica,sans-Serif" font-size="10.00">string</text>
</a>
</g>
</g>
<!-- Node3&#45;&gt;Node4 -->
<g id="edge3" class="edge">
<title>Node3&#45;&gt;Node4</title>
<path fill="none" stroke="midnightblue" d="M1037.07,-172.37C1093.55,-166.56 1174.58,-154.51 1196,-132 1222.18,-104.49 1221.08,-56.48 1218.02,-29.96"/>
<polygon fill="midnightblue" stroke="midnightblue" points="1221.44,-29.16 1216.62,-19.73 1214.51,-30.12 1221.44,-29.16"/>
</g>
<!-- Node5 -->
<g id="node5" class="node">
<title>Node5</title>
<g id="a_node5"><a xlink:title=" ">
<polygon fill="white" stroke="#bfbfbf" points="795,-112.5 795,-131.5 899,-131.5 899,-112.5 795,-112.5"/>
<text text-anchor="middle" x="847" y="-119.5" font-family="Helvetica,sans-Serif" font-size="10.00">SFML/Graphics.hpp</text>
</a>
</g>
</g>
<!-- Node3&#45;&gt;Node5 -->
<g id="edge4" class="edge">
<title>Node3&#45;&gt;Node5</title>
<path fill="none" stroke="midnightblue" d="M958.93,-168.44C936.94,-159.52 902.27,-145.44 877.34,-135.32"/>
<polygon fill="midnightblue" stroke="midnightblue" points="878.56,-132.04 867.98,-131.52 875.92,-138.52 878.56,-132.04"/>
</g>
<!-- Node6 -->
<g id="node6" class="node">
<title>Node6</title>
<g id="a_node6"><a xlink:title=" ">
<polygon fill="white" stroke="#bfbfbf" points="917,-112.5 917,-131.5 1043,-131.5 1043,-112.5 917,-112.5"/>
<text text-anchor="middle" x="980" y="-119.5" font-family="Helvetica,sans-Serif" font-size="10.00">SFML/System/Clock.hpp</text>
</a>
</g>
</g>
<!-- Node3&#45;&gt;Node6 -->
<g id="edge5" class="edge">
<title>Node3&#45;&gt;Node6</title>
<path fill="none" stroke="midnightblue" d="M980,-168.08C980,-161.01 980,-150.86 980,-141.99"/>
<polygon fill="midnightblue" stroke="midnightblue" points="983.5,-141.75 980,-131.75 976.5,-141.75 983.5,-141.75"/>
</g>
<!-- Node7 -->
<g id="node7" class="node">
<title>Node7</title>
<g id="a_node7"><a xlink:title=" ">
<polygon fill="white" stroke="#bfbfbf" points="1061,-112.5 1061,-131.5 1187,-131.5 1187,-112.5 1061,-112.5"/>
<text text-anchor="middle" x="1124" y="-119.5" font-family="Helvetica,sans-Serif" font-size="10.00">SFML/Window/Event.hpp</text>
</a>
</g>
</g>
<!-- Node3&#45;&gt;Node7 -->
<g id="edge6" class="edge">
<title>Node3&#45;&gt;Node7</title>
<path fill="none" stroke="midnightblue" d="M1002.82,-168.44C1026.83,-159.44 1064.83,-145.19 1091.87,-135.05"/>
<polygon fill="midnightblue" stroke="midnightblue" points="1093.16,-138.3 1101.29,-131.52 1090.7,-131.75 1093.16,-138.3"/>
</g>
<!-- Node8 -->
<g id="node8" class="node">
<title>Node8</title>
<g id="a_node8"><a xlink:href="../../df/db4/Config_8hpp.html" target="_top" xlink:title=" ">
<polygon fill="white" stroke="black" points="1243.5,-112.5 1243.5,-131.5 1374.5,-131.5 1374.5,-112.5 1243.5,-112.5"/>
<text text-anchor="middle" x="1309" y="-119.5" font-family="Helvetica,sans-Serif" font-size="10.00">Small/Scripting/Config.hpp</text>
</a>
</g>
</g>
<!-- Node3&#45;&gt;Node8 -->
<g id="edge7" class="edge">
<title>Node3&#45;&gt;Node8</title>
<path fill="none" stroke="midnightblue" d="M1032.13,-168.44C1090.49,-158.87 1184.98,-143.36 1247.06,-133.17"/>
<polygon fill="midnightblue" stroke="midnightblue" points="1247.81,-136.59 1257.11,-131.52 1246.68,-129.68 1247.81,-136.59"/>
</g>
<!-- Node9 -->
<g id="node9" class="node">
<title>Node9</title>
<g id="a_node9"><a xlink:href="../../d7/dc6/Node_8hpp.html" target="_top" xlink:title="A scene graph node.">
<polygon fill="white" stroke="black" points="383,-112.5 383,-131.5 511,-131.5 511,-112.5 383,-112.5"/>
<text text-anchor="middle" x="447" y="-119.5" font-family="Helvetica,sans-Serif" font-size="10.00">Small/Graphics/Node.hpp</text>
</a>
</g>
</g>
<!-- Node3&#45;&gt;Node9 -->
<g id="edge9" class="edge">
<title>Node3&#45;&gt;Node9</title>
<path fill="none" stroke="midnightblue" d="M922.84,-171.78C836.12,-163.77 666.16,-147.73 522,-132 521.78,-131.98 521.56,-131.95 521.34,-131.93"/>
<polygon fill="midnightblue" stroke="midnightblue" points="521.55,-128.43 511.22,-130.8 520.77,-135.39 521.55,-128.43"/>
</g>
<!-- Node15 -->
<g id="node15" class="node">
<title>Node15</title>
<g id="a_node15"><a xlink:href="../../dc/d6f/RessourceManager_8hpp.html" target="_top" xlink:title=" ">
<polygon fill="white" stroke="black" points="531,-112.5 531,-131.5 701,-131.5 701,-112.5 531,-112.5"/>
<text text-anchor="middle" x="616" y="-119.5" font-family="Helvetica,sans-Serif" font-size="10.00">Small/Core/RessourceManager.hpp</text>
</a>
</g>
</g>
<!-- Node3&#45;&gt;Node15 -->
<g id="edge15" class="edge">
<title>Node3&#45;&gt;Node15</title>
<path fill="none" stroke="midnightblue" d="M922.72,-168.5C857.98,-158.9 752.65,-143.27 683.84,-133.06"/>
<polygon fill="midnightblue" stroke="midnightblue" points="683.95,-129.54 673.54,-131.54 682.92,-136.47 683.95,-129.54"/>
</g>
<!-- Node20 -->
<g id="node20" class="node">
<title>Node20</title>
<g id="a_node20"><a xlink:title=" ">
<polygon fill="white" stroke="#bfbfbf" points="719.5,-112.5 719.5,-131.5 776.5,-131.5 776.5,-112.5 719.5,-112.5"/>
<text text-anchor="middle" x="748" y="-119.5" font-family="Helvetica,sans-Serif" font-size="10.00">Scene.inl</text>
</a>
</g>
</g>
<!-- Node3&#45;&gt;Node20 -->
<g id="edge25" class="edge">
<title>Node3&#45;&gt;Node20</title>
<path fill="none" stroke="midnightblue" d="M942.8,-168.42C905.8,-159.88 847.13,-146.31 786.73,-132.16"/>
<polygon fill="midnightblue" stroke="midnightblue" points="787.17,-128.67 776.63,-129.8 785.57,-135.49 787.17,-128.67"/>
</g>
<!-- Node8&#45;&gt;Node4 -->
<g id="edge8" class="edge">
<title>Node8&#45;&gt;Node4</title>
<path fill="none" stroke="midnightblue" d="M1301.62,-112.37C1285.97,-94.05 1249.22,-51.05 1228.98,-27.36"/>
<polygon fill="midnightblue" stroke="midnightblue" points="1231.5,-24.92 1222.34,-19.59 1226.18,-29.47 1231.5,-24.92"/>
</g>
<!-- Node10 -->
<g id="node10" class="node">
<title>Node10</title>
<g id="a_node10"><a xlink:title=" ">
<polygon fill="white" stroke="#bfbfbf" points="0,-56.5 0,-75.5 164,-75.5 164,-56.5 0,-56.5"/>
<text text-anchor="middle" x="82" y="-63.5" font-family="Helvetica,sans-Serif" font-size="10.00">SFML/Graphics/RenderTarget.hpp</text>
</a>
</g>
</g>
<!-- Node9&#45;&gt;Node10 -->
<g id="edge10" class="edge">
<title>Node9&#45;&gt;Node10</title>
<path fill="none" stroke="midnightblue" d="M389.16,-112.44C324.16,-102.83 218.72,-87.23 149.87,-77.04"/>
<polygon fill="midnightblue" stroke="midnightblue" points="149.97,-73.52 139.56,-75.52 148.94,-80.44 149.97,-73.52"/>
</g>
<!-- Node11 -->
<g id="node11" class="node">
<title>Node11</title>
<g id="a_node11"><a xlink:title=" ">
<polygon fill="white" stroke="#bfbfbf" points="182.5,-56.5 182.5,-75.5 331.5,-75.5 331.5,-56.5 182.5,-56.5"/>
<text text-anchor="middle" x="257" y="-63.5" font-family="Helvetica,sans-Serif" font-size="10.00">SFML/Graphics/Transform.hpp</text>
</a>
</g>
</g>
<!-- Node9&#45;&gt;Node11 -->
<g id="edge11" class="edge">
<title>Node9&#45;&gt;Node11</title>
<path fill="none" stroke="midnightblue" d="M416.89,-112.44C384.37,-103.2 332.42,-88.44 296.61,-78.26"/>
<polygon fill="midnightblue" stroke="midnightblue" points="297.54,-74.88 286.97,-75.52 295.63,-81.62 297.54,-74.88"/>
</g>
<!-- Node12 -->
<g id="node12" class="node">
<title>Node12</title>
<g id="a_node12"><a xlink:title=" ">
<polygon fill="white" stroke="#bfbfbf" points="349.5,-56.5 349.5,-75.5 484.5,-75.5 484.5,-56.5 349.5,-56.5"/>
<text text-anchor="middle" x="417" y="-63.5" font-family="Helvetica,sans-Serif" font-size="10.00">SFML/System/Vector2.hpp</text>
</a>
</g>
</g>
<!-- Node9&#45;&gt;Node12 -->
<g id="edge12" class="edge">
<title>Node9&#45;&gt;Node12</title>
<path fill="none" stroke="midnightblue" d="M442.05,-112.08C437.9,-104.61 431.85,-93.72 426.73,-84.52"/>
<polygon fill="midnightblue" stroke="midnightblue" points="429.78,-82.79 421.86,-75.75 423.66,-86.19 429.78,-82.79"/>
</g>
<!-- Node13 -->
<g id="node13" class="node">
<title>Node13</title>
<g id="a_node13"><a xlink:title=" ">
<polygon fill="white" stroke="#bfbfbf" points="503,-56.5 503,-75.5 545,-75.5 545,-56.5 503,-56.5"/>
<text text-anchor="middle" x="524" y="-63.5" font-family="Helvetica,sans-Serif" font-size="10.00">vector</text>
</a>
</g>
</g>
<!-- Node9&#45;&gt;Node13 -->
<g id="edge13" class="edge">
<title>Node9&#45;&gt;Node13</title>
<path fill="none" stroke="midnightblue" d="M459.37,-112.32C471.16,-104.06 489.13,-91.45 503.14,-81.63"/>
<polygon fill="midnightblue" stroke="midnightblue" points="505.48,-84.26 511.66,-75.65 501.46,-78.53 505.48,-84.26"/>
</g>
<!-- Node14 -->
<g id="node14" class="node">
<title>Node14</title>
<g id="a_node14"><a xlink:title=" ">
<polygon fill="white" stroke="#bfbfbf" points="563,-56.5 563,-75.5 615,-75.5 615,-56.5 563,-56.5"/>
<text text-anchor="middle" x="589" y="-63.5" font-family="Helvetica,sans-Serif" font-size="10.00">memory</text>
</a>
</g>
</g>
<!-- Node9&#45;&gt;Node14 -->
<g id="edge14" class="edge">
<title>Node9&#45;&gt;Node14</title>
<path fill="none" stroke="midnightblue" d="M469.5,-112.44C493.08,-103.48 530.32,-89.31 556.96,-79.18"/>
<polygon fill="midnightblue" stroke="midnightblue" points="558.5,-82.34 566.6,-75.52 556.01,-75.8 558.5,-82.34"/>
</g>
<!-- Node15&#45;&gt;Node4 -->
<g id="edge16" class="edge">
<title>Node15&#45;&gt;Node4</title>
<path fill="none" stroke="midnightblue" d="M664.62,-112.48C708.45,-104.41 774.49,-91.28 831,-76 858.13,-68.66 863.63,-62.4 891,-56 996.97,-31.2 1125.86,-18.31 1183.96,-13.4"/>
<polygon fill="midnightblue" stroke="midnightblue" points="1184.61,-16.86 1194.29,-12.55 1184.04,-9.88 1184.61,-16.86"/>
</g>
<!-- Node15&#45;&gt;Node14 -->
<g id="edge17" class="edge">
<title>Node15&#45;&gt;Node14</title>
<path fill="none" stroke="midnightblue" d="M611.54,-112.08C607.85,-104.69 602.48,-93.95 597.91,-84.81"/>
<polygon fill="midnightblue" stroke="midnightblue" points="600.98,-83.13 593.38,-75.75 594.72,-86.26 600.98,-83.13"/>
</g>
<!-- Node16 -->
<g id="node16" class="node">
<title>Node16</title>
<g id="a_node16"><a xlink:title=" ">
<polygon fill="white" stroke="#bfbfbf" points="899.5,-56.5 899.5,-75.5 982.5,-75.5 982.5,-56.5 899.5,-56.5"/>
<text text-anchor="middle" x="941" y="-63.5" font-family="Helvetica,sans-Serif" font-size="10.00">unordered_map</text>
</a>
</g>
</g>
<!-- Node15&#45;&gt;Node16 -->
<g id="edge18" class="edge">
<title>Node15&#45;&gt;Node16</title>
<path fill="none" stroke="midnightblue" d="M667.5,-112.44C728.07,-102.38 828.06,-85.77 888.9,-75.66"/>
<polygon fill="midnightblue" stroke="midnightblue" points="889.75,-79.06 899.05,-73.97 888.61,-72.16 889.75,-79.06"/>
</g>
<!-- Node17 -->
<g id="node17" class="node">
<title>Node17</title>
<g id="a_node17"><a xlink:title=" ">
<polygon fill="white" stroke="#bfbfbf" points="583.5,-0.5 583.5,-19.5 722.5,-19.5 722.5,-0.5 583.5,-0.5"/>
<text text-anchor="middle" x="653" y="-7.5" font-family="Helvetica,sans-Serif" font-size="10.00">SFML/Graphics/Texture.hpp</text>
</a>
</g>
</g>
<!-- Node15&#45;&gt;Node17 -->
<g id="edge19" class="edge">
<title>Node15&#45;&gt;Node17</title>
<path fill="none" stroke="midnightblue" d="M618.9,-112.37C624.9,-94.54 638.77,-53.3 646.85,-29.27"/>
<polygon fill="midnightblue" stroke="midnightblue" points="650.24,-30.19 650.11,-19.59 643.6,-27.95 650.24,-30.19"/>
</g>
<!-- Node18 -->
<g id="node18" class="node">
<title>Node18</title>
<g id="a_node18"><a xlink:title=" ">
<polygon fill="white" stroke="#bfbfbf" points="751,-0.5 751,-19.5 877,-19.5 877,-0.5 751,-0.5"/>
<text text-anchor="middle" x="814" y="-7.5" font-family="Helvetica,sans-Serif" font-size="10.00">SFML/Graphics/Font.hpp</text>
</a>
</g>
</g>
<!-- Node15&#45;&gt;Node18 -->
<g id="edge20" class="edge">
<title>Node15&#45;&gt;Node18</title>
<path fill="none" stroke="midnightblue" d="M699.34,-112.47C746.7,-105.71 799.4,-94.29 814,-76 824.32,-63.07 822.82,-43.63 819.65,-29.37"/>
<polygon fill="midnightblue" stroke="midnightblue" points="823.03,-28.45 817.07,-19.68 816.26,-30.25 823.03,-28.45"/>
</g>
<!-- Node19 -->
<g id="node19" class="node">
<title>Node19</title>
<g id="a_node19"><a xlink:href="../../db/d73/Ressource_8hpp.html" target="_top" xlink:title=" ">
<polygon fill="white" stroke="black" points="671.5,-56.5 671.5,-75.5 804.5,-75.5 804.5,-56.5 671.5,-56.5"/>
<text text-anchor="middle" x="738" y="-63.5" font-family="Helvetica,sans-Serif" font-size="10.00">Small/Core/Ressource.hpp</text>
</a>
</g>
</g>
<!-- Node15&#45;&gt;Node19 -->
<g id="edge21" class="edge">
<title>Node15&#45;&gt;Node19</title>
<path fill="none" stroke="midnightblue" d="M635.33,-112.44C655.32,-103.6 686.74,-89.69 709.56,-79.59"/>
<polygon fill="midnightblue" stroke="midnightblue" points="711.03,-82.76 718.76,-75.52 708.2,-76.36 711.03,-82.76"/>
</g>
<!-- Node19&#45;&gt;Node4 -->
<g id="edge22" class="edge">
<title>Node19&#45;&gt;Node4</title>
<path fill="none" stroke="midnightblue" d="M804.58,-57.46C909.09,-45.63 1107.6,-23.16 1183.98,-14.51"/>
<polygon fill="midnightblue" stroke="midnightblue" points="1184.79,-17.94 1194.34,-13.34 1184.01,-10.99 1184.79,-17.94"/>
</g>
<!-- Node19&#45;&gt;Node17 -->
<g id="edge23" class="edge">
<title>Node19&#45;&gt;Node17</title>
<path fill="none" stroke="midnightblue" d="M724.34,-56.32C711.08,-47.9 690.73,-34.97 675.15,-25.07"/>
<polygon fill="midnightblue" stroke="midnightblue" points="676.94,-22.06 666.62,-19.65 673.19,-27.97 676.94,-22.06"/>
</g>
<!-- Node19&#45;&gt;Node18 -->
<g id="edge24" class="edge">
<title>Node19&#45;&gt;Node18</title>
<path fill="none" stroke="midnightblue" d="M750.21,-56.32C761.78,-48.11 779.38,-35.6 793.16,-25.81"/>
<polygon fill="midnightblue" stroke="midnightblue" points="795.44,-28.48 801.57,-19.83 791.39,-22.77 795.44,-28.48"/>
</g>
<!-- Node21&#45;&gt;Node10 -->
<g id="edge28" class="edge">
<title>Node21&#45;&gt;Node10</title>
<path fill="none" stroke="midnightblue" d="M230.88,-168.18C230.21,-154.39 226.92,-127.67 212,-112 196.22,-95.43 174.04,-84.96 152.46,-78.34"/>
<polygon fill="midnightblue" stroke="midnightblue" points="153.18,-74.91 142.61,-75.56 151.28,-81.65 153.18,-74.91"/>
</g>
<!-- Node22 -->
<g id="node22" class="node">
<title>Node22</title>
<g id="a_node22"><a xlink:title=" ">
<polygon fill="white" stroke="#bfbfbf" points="75,-112.5 75,-131.5 203,-131.5 203,-112.5 75,-112.5"/>
<text text-anchor="middle" x="139" y="-119.5" font-family="Helvetica,sans-Serif" font-size="10.00">SFML/Graphics/View.hpp</text>
</a>
</g>
</g>
<!-- Node21&#45;&gt;Node22 -->
<g id="edge27" class="edge">
<title>Node21&#45;&gt;Node22</title>
<path fill="none" stroke="midnightblue" d="M216.22,-168.32C201.73,-159.82 179.43,-146.73 162.51,-136.8"/>
<polygon fill="midnightblue" stroke="midnightblue" points="164.14,-133.7 153.74,-131.65 160.6,-139.74 164.14,-133.7"/>
</g>
<!-- Node23&#45;&gt;Node3 -->
<g id="edge30" class="edge">
<title>Node23&#45;&gt;Node3</title>
<path fill="none" stroke="midnightblue" d="M1168.51,-224.44C1129.68,-215.08 1067.34,-200.06 1025.08,-189.87"/>
<polygon fill="midnightblue" stroke="midnightblue" points="1025.87,-186.46 1015.33,-187.52 1024.23,-193.26 1025.87,-186.46"/>
</g>
<!-- Node23&#45;&gt;Node4 -->
<g id="edge33" class="edge">
<title>Node23&#45;&gt;Node4</title>
<path fill="none" stroke="midnightblue" d="M1243.62,-224.48C1287.93,-212.5 1357.02,-185.82 1384,-132 1415.36,-69.44 1302.23,-32.23 1245.52,-17.86"/>
<polygon fill="midnightblue" stroke="midnightblue" points="1246.18,-14.42 1235.63,-15.44 1244.52,-21.22 1246.18,-14.42"/>
</g>
<!-- Node23&#45;&gt;Node8 -->
<g id="edge32" class="edge">
<title>Node23&#45;&gt;Node8</title>
<path fill="none" stroke="midnightblue" d="M1204.41,-224.44C1205.47,-210.99 1209.29,-184.73 1223,-168 1235.23,-153.07 1253.73,-142.5 1270.44,-135.36"/>
<polygon fill="midnightblue" stroke="midnightblue" points="1272.02,-138.51 1280.01,-131.56 1269.43,-132 1272.02,-138.51"/>
</g>
<!-- Node24 -->
<g id="node24" class="node">
<title>Node24</title>
<g id="a_node24"><a xlink:title=" ">
<polygon fill="white" stroke="#bfbfbf" points="1232,-168.5 1232,-187.5 1300,-187.5 1300,-168.5 1232,-168.5"/>
<text text-anchor="middle" x="1266" y="-175.5" font-family="Helvetica,sans-Serif" font-size="10.00">Ark/Ark.hpp</text>
</a>
</g>
</g>
<!-- Node23&#45;&gt;Node24 -->
<g id="edge31" class="edge">
<title>Node23&#45;&gt;Node24</title>
<path fill="none" stroke="midnightblue" d="M1213.96,-224.32C1223.13,-216.34 1236.94,-204.31 1248.03,-194.65"/>
<polygon fill="midnightblue" stroke="midnightblue" points="1250.62,-197.04 1255.86,-187.83 1246.02,-191.76 1250.62,-197.04"/>
</g>
</g>
</svg>
