<?xml version="1.0" encoding="UTF-8" standalone="no"?>
<!DOCTYPE svg PUBLIC "-//W3C//DTD SVG 1.1//EN"
 "http://www.w3.org/Graphics/SVG/1.1/DTD/svg11.dtd">
<!-- Generated by graphviz version 2.38.0 (20140413.2041)
 -->
<!-- Title: C:/Users/Folaefolc/Documents/Code/Big&#45;Projects/ScriptWizards/SmallGameLibrary/include/Small/Core/SceneManager.hpp Pages: 1 -->
<!--zoomable 240 -->
<svg id="main" version="1.1" xmlns="http://www.w3.org/2000/svg" xmlns:xlink="http://www.w3.org/1999/xlink" xml:space="preserve" onload="init(evt)">
<style type="text/css"><![CDATA[
.edge:hover path { stroke: red; }
.edge:hover polygon { stroke: red; fill: red; }
]]></style>
<script type="text/javascript"><![CDATA[
var edges = document.getElementsByTagName('g');
if (edges && edges.length) {
  for (var i=0;i<edges.length;i++) {
    if (edges[i].id.substr(0,4)=='edge') {
      edges[i].setAttribute('class','edge');
    }
  }
}
]]></script>
        <defs>
                <circle id="rim" cx="0" cy="0" r="7"/>
                <circle id="rim2" cx="0" cy="0" r="3.5"/>
                <g id="zoomPlus">
                        <use xlink:href="#rim" target="_top" fill="#404040">
                                <set attributeName="fill" to="#808080" begin="zoomplus.mouseover" end="zoomplus.mouseout"/>
                        </use>
                        <path d="M-4,0h8M0,-4v8" fill="none" stroke="white" stroke-width="1.5" pointer-events="none"/>
                </g>
                <g id="zoomMin">
                        <use xlink:href="#rim" target="_top" fill="#404040">
                                <set attributeName="fill" to="#808080" begin="zoomminus.mouseover" end="zoomminus.mouseout"/>
                        </use>
                        <path d="M-4,0h8" fill="none" stroke="white" stroke-width="1.5" pointer-events="none"/>
                </g>
                <g id="dirArrow">
                        <path fill="none" stroke="white" stroke-width="1.5" d="M0,-3.0v7 M-2.5,-0.5L0,-3.0L2.5,-0.5"/>
                </g>
               <g id="resetDef">
                       <use xlink:href="#rim2" target="_top" fill="#404040">
                               <set attributeName="fill" to="#808080" begin="reset.mouseover" end="reset.mouseout"/>
                       </use>
               </g>
        </defs>

<script type="text/javascript">
var viewWidth = 898;
var viewHeight = 240;
var sectionId = 'dynsection-0';
</script>
<script xlink:href="../../svgpan.js" target="_top"/>
<svg id="graph" class="graph">
<g id="viewport">
<title>C:/Users/Folaefolc/Documents/Code/Big&#45;Projects/ScriptWizards/SmallGameLibrary/include/Small/Core/SceneManager.hpp</title>
<polygon fill="white" stroke="none" points="-4,4 -4,-236 893.5,-236 893.5,4 -4,4"/>
<!-- Node1 -->
<g id="node1" class="node"><title>Node1</title>
<polygon fill="#bfbfbf" stroke="black" points="325.5,-168.5 325.5,-231.5 480.5,-231.5 480.5,-168.5 325.5,-168.5"/>
<text text-anchor="start" x="333.5" y="-219.5" font-family="Helvetica,sans-Serif" font-size="10.00">C:/Users/Folaefolc</text>
<text text-anchor="start" x="333.5" y="-208.5" font-family="Helvetica,sans-Serif" font-size="10.00">/Documents/Code/Big</text>
<text text-anchor="start" x="333.5" y="-197.5" font-family="Helvetica,sans-Serif" font-size="10.00">&#45;Projects/ScriptWizards</text>
<text text-anchor="start" x="333.5" y="-186.5" font-family="Helvetica,sans-Serif" font-size="10.00">/SmallGameLibrary/include</text>
<text text-anchor="middle" x="403" y="-175.5" font-family="Helvetica,sans-Serif" font-size="10.00">/Small/Core/SceneManager.hpp</text>
</g>
<!-- Node2 -->
<g id="node2" class="node"><title>Node2</title>
<polygon fill="white" stroke="#bfbfbf" points="0,-0.5 0,-19.5 42,-19.5 42,-0.5 0,-0.5"/>
<text text-anchor="middle" x="21" y="-7.5" font-family="Helvetica,sans-Serif" font-size="10.00">vector</text>
</g>
<!-- Node1&#45;&gt;Node2 -->
<g id="edge1" class="edge"><title>Node1&#45;&gt;Node2</title>
<path fill="none" stroke="midnightblue" d="M325.495,-190.723C242.762,-180.545 118.504,-160.975 81,-132 47.5544,-106.16 31.4615,-56.7213 24.8661,-29.7259"/>
<polygon fill="midnightblue" stroke="midnightblue" points="28.2115,-28.6503 22.5981,-19.6647 21.3829,-30.1896 28.2115,-28.6503"/>
</g>
<!-- Node3 -->
<g id="node3" class="node"><title>Node3</title>
<polygon fill="white" stroke="#bfbfbf" points="79,-0.5 79,-19.5 131,-19.5 131,-0.5 79,-0.5"/>
<text text-anchor="middle" x="105" y="-7.5" font-family="Helvetica,sans-Serif" font-size="10.00">memory</text>
</g>
<!-- Node1&#45;&gt;Node3 -->
<g id="edge2" class="edge"><title>Node1&#45;&gt;Node3</title>
<path fill="none" stroke="midnightblue" d="M325.27,-195.887C262.845,-190.106 175.296,-174.326 111,-132 78.943,-110.897 57.5444,-92.3022 70,-56 73.719,-45.161 81.2332,-34.9216 88.349,-26.9566"/>
<polygon fill="midnightblue" stroke="midnightblue" points="91.0542,-29.1922 95.4444,-19.5497 85.9993,-24.3498 91.0542,-29.1922"/>
</g>
<!-- Node4 -->
<g id="node4" class="node"><title>Node4</title>
<polygon fill="white" stroke="#bfbfbf" points="88,-56.5 88,-75.5 192,-75.5 192,-56.5 88,-56.5"/>
<text text-anchor="middle" x="140" y="-63.5" font-family="Helvetica,sans-Serif" font-size="10.00">SFML/Graphics.hpp</text>
</g>
<!-- Node1&#45;&gt;Node4 -->
<g id="edge3" class="edge"><title>Node1&#45;&gt;Node4</title>
<path fill="none" stroke="midnightblue" d="M342.001,-168.385C286.371,-140.464 206.84,-100.547 166.158,-80.1286"/>
<polygon fill="midnightblue" stroke="midnightblue" points="167.662,-76.9676 157.155,-75.61 164.522,-83.2239 167.662,-76.9676"/>
</g>
<!-- Node5 -->
<g id="node5" class="node"><title>Node5</title>
<polygon fill="white" stroke="#bfbfbf" points="210,-56.5 210,-75.5 336,-75.5 336,-56.5 210,-56.5"/>
<text text-anchor="middle" x="273" y="-63.5" font-family="Helvetica,sans-Serif" font-size="10.00">SFML/System/Clock.hpp</text>
</g>
<!-- Node1&#45;&gt;Node5 -->
<g id="edge4" class="edge"><title>Node1&#45;&gt;Node5</title>
<path fill="none" stroke="midnightblue" d="M372.849,-168.385C346.511,-141.642 309.335,-103.894 288.575,-82.815"/>
<polygon fill="midnightblue" stroke="midnightblue" points="290.99,-80.2789 281.48,-75.61 286.003,-85.1908 290.99,-80.2789"/>
</g>
<!-- Node6 -->
<g id="node6" class="node"><title>Node6</title>
<polygon fill="white" stroke="#bfbfbf" points="614,-56.5 614,-75.5 740,-75.5 740,-56.5 614,-56.5"/>
<text text-anchor="middle" x="677" y="-63.5" font-family="Helvetica,sans-Serif" font-size="10.00">SFML/Window/Event.hpp</text>
</g>
<!-- Node1&#45;&gt;Node6 -->
<g id="edge5" class="edge"><title>Node1&#45;&gt;Node6</title>
<path fill="none" stroke="midnightblue" d="M434.424,-168.146C454.989,-149.495 483.288,-126.582 512,-112 544.129,-95.6819 582.879,-84.7221 614.751,-77.7076"/>
<polygon fill="midnightblue" stroke="midnightblue" points="615.785,-81.0664 624.84,-75.567 614.332,-74.2188 615.785,-81.0664"/>
</g>
<!-- Node7 -->
<g id="node7" class="node"><title>Node7</title>
<g id="a_node7"><a xlink:href="../../db/de8/Scene_8hpp.html" target="_top" xlink:title="The base scene class and the scene states are defined here. ">
<polygon fill="white" stroke="black" points="346,-112.5 346,-131.5 460,-131.5 460,-112.5 346,-112.5"/>
<text text-anchor="middle" x="403" y="-119.5" font-family="Helvetica,sans-Serif" font-size="10.00">Small/Core/Scene.hpp</text>
</a>
</g>
</g>
<!-- Node1&#45;&gt;Node7 -->
<g id="edge6" class="edge"><title>Node1&#45;&gt;Node7</title>
<path fill="none" stroke="midnightblue" d="M403,-168.088C403,-159.15 403,-149.669 403,-141.719"/>
<polygon fill="midnightblue" stroke="midnightblue" points="406.5,-141.718 403,-131.718 399.5,-141.718 406.5,-141.718"/>
</g>
<!-- Node9 -->
<g id="node9" class="node"><title>Node9</title>
<g id="a_node9"><a xlink:href="../../df/db4/Config_8hpp.html" target="_top" xlink:title="Small/Scripting/Config.hpp">
<polygon fill="white" stroke="black" points="758.5,-56.5 758.5,-75.5 889.5,-75.5 889.5,-56.5 758.5,-56.5"/>
<text text-anchor="middle" x="824" y="-63.5" font-family="Helvetica,sans-Serif" font-size="10.00">Small/Scripting/Config.hpp</text>
</a>
</g>
</g>
<!-- Node1&#45;&gt;Node9 -->
<g id="edge20" class="edge"><title>Node1&#45;&gt;Node9</title>
<path fill="none" stroke="midnightblue" d="M452.1,-168.296C491.077,-144.022 539.866,-113.902 545,-112 564.208,-104.884 677.087,-87.9018 753.25,-76.9543"/>
<polygon fill="midnightblue" stroke="midnightblue" points="753.873,-80.401 763.275,-75.5177 752.88,-73.4718 753.873,-80.401"/>
</g>
<!-- Node12 -->
<g id="node12" class="node"><title>Node12</title>
<polygon fill="white" stroke="#bfbfbf" points="158.5,-0.5 158.5,-19.5 307.5,-19.5 307.5,-0.5 158.5,-0.5"/>
<text text-anchor="middle" x="233" y="-7.5" font-family="Helvetica,sans-Serif" font-size="10.00">SFML/Graphics/Transform.hpp</text>
</g>
<!-- Node1&#45;&gt;Node12 -->
<g id="edge21" class="edge"><title>Node1&#45;&gt;Node12</title>
<path fill="none" stroke="midnightblue" d="M325.347,-193.741C248.335,-183.912 134.1,-155.854 79,-76 56.6121,-43.5541 101.342,-27.2398 148.266,-19.0731"/>
<polygon fill="midnightblue" stroke="midnightblue" points="148.977,-22.5037 158.289,-17.4512 147.858,-15.5936 148.977,-22.5037"/>
</g>
<!-- Node15 -->
<g id="node15" class="node"><title>Node15</title>
<polygon fill="white" stroke="#bfbfbf" points="554,-112.5 554,-131.5 604,-131.5 604,-112.5 554,-112.5"/>
<text text-anchor="middle" x="579" y="-119.5" font-family="Helvetica,sans-Serif" font-size="10.00">typeinfo</text>
</g>
<!-- Node1&#45;&gt;Node15 -->
<g id="edge22" class="edge"><title>Node1&#45;&gt;Node15</title>
<path fill="none" stroke="midnightblue" d="M473.825,-168.416C500.377,-156.951 529.1,-144.548 549.809,-135.605"/>
<polygon fill="midnightblue" stroke="midnightblue" points="551.212,-138.812 559.005,-131.634 548.437,-132.385 551.212,-138.812"/>
</g>
<!-- Node16 -->
<g id="node16" class="node"><title>Node16</title>
<polygon fill="white" stroke="#bfbfbf" points="622.5,-112.5 622.5,-131.5 705.5,-131.5 705.5,-112.5 622.5,-112.5"/>
<text text-anchor="middle" x="664" y="-119.5" font-family="Helvetica,sans-Serif" font-size="10.00">unordered_map</text>
</g>
<!-- Node1&#45;&gt;Node16 -->
<g id="edge23" class="edge"><title>Node1&#45;&gt;Node16</title>
<path fill="none" stroke="midnightblue" d="M480.602,-176.403C528.191,-162.546 587.077,-145.399 625.076,-134.334"/>
<polygon fill="midnightblue" stroke="midnightblue" points="626.117,-137.676 634.74,-131.52 624.16,-130.956 626.117,-137.676"/>
</g>
<!-- Node17 -->
<g id="node17" class="node"><title>Node17</title>
<polygon fill="white" stroke="#bfbfbf" points="723.5,-112.5 723.5,-131.5 818.5,-131.5 818.5,-112.5 723.5,-112.5"/>
<text text-anchor="middle" x="771" y="-119.5" font-family="Helvetica,sans-Serif" font-size="10.00">SceneManager.inl</text>
</g>
<!-- Node1&#45;&gt;Node17 -->
<g id="edge24" class="edge"><title>Node1&#45;&gt;Node17</title>
<path fill="none" stroke="midnightblue" d="M480.594,-182.975C552.505,-168.124 657.453,-146.45 719.529,-133.63"/>
<polygon fill="midnightblue" stroke="midnightblue" points="720.399,-137.024 729.484,-131.574 718.983,-130.169 720.399,-137.024"/>
</g>
<!-- Node7&#45;&gt;Node4 -->
<g id="edge7" class="edge"><title>Node7&#45;&gt;Node4</title>
<path fill="none" stroke="midnightblue" d="M361.327,-112.444C315.255,-102.984 241.004,-87.7384 191.369,-77.5472"/>
<polygon fill="midnightblue" stroke="midnightblue" points="191.978,-74.0993 181.478,-75.5164 190.57,-80.9563 191.978,-74.0993"/>
</g>
<!-- Node7&#45;&gt;Node5 -->
<g id="edge8" class="edge"><title>Node7&#45;&gt;Node5</title>
<path fill="none" stroke="midnightblue" d="M382.401,-112.444C361.007,-103.557 327.319,-89.5632 302.976,-79.4514"/>
<polygon fill="midnightblue" stroke="midnightblue" points="304.08,-76.1203 293.503,-75.5164 301.395,-82.5848 304.08,-76.1203"/>
</g>
<!-- Node7&#45;&gt;Node6 -->
<g id="edge9" class="edge"><title>Node7&#45;&gt;Node6</title>
<path fill="none" stroke="midnightblue" d="M446.416,-112.444C494.515,-102.964 572.095,-87.6747 623.806,-77.4835"/>
<polygon fill="midnightblue" stroke="midnightblue" points="624.653,-80.8841 633.787,-75.5164 623.299,-74.0162 624.653,-80.8841"/>
</g>
<!-- Node8 -->
<g id="node8" class="node"><title>Node8</title>
<polygon fill="white" stroke="#bfbfbf" points="734.5,-0.5 734.5,-19.5 775.5,-19.5 775.5,-0.5 734.5,-0.5"/>
<text text-anchor="middle" x="755" y="-7.5" font-family="Helvetica,sans-Serif" font-size="10.00">string</text>
</g>
<!-- Node7&#45;&gt;Node8 -->
<g id="edge10" class="edge"><title>Node7&#45;&gt;Node8</title>
<path fill="none" stroke="midnightblue" d="M419.901,-112.432C437.64,-103.422 466.325,-88.8018 491,-76 507.941,-67.2107 511.011,-62.3739 529,-56 596.41,-32.116 679.875,-19.6456 724.104,-14.2948"/>
<polygon fill="midnightblue" stroke="midnightblue" points="724.687,-17.7506 734.213,-13.114 723.875,-10.7979 724.687,-17.7506"/>
</g>
<!-- Node7&#45;&gt;Node9 -->
<g id="edge11" class="edge"><title>Node7&#45;&gt;Node9</title>
<path fill="none" stroke="midnightblue" d="M460.216,-113.661C534.782,-104.097 665.396,-87.3435 748.154,-76.7285"/>
<polygon fill="midnightblue" stroke="midnightblue" points="748.778,-80.1772 758.252,-75.4333 747.888,-73.234 748.778,-80.1772"/>
</g>
<!-- Node10 -->
<g id="node10" class="node"><title>Node10</title>
<g id="a_node10"><a xlink:href="../../d7/dc6/Node_8hpp.html" target="_top" xlink:title="A scene graph node. ">
<polygon fill="white" stroke="black" points="354,-56.5 354,-75.5 482,-75.5 482,-56.5 354,-56.5"/>
<text text-anchor="middle" x="418" y="-63.5" font-family="Helvetica,sans-Serif" font-size="10.00">Small/Graphics/Node.hpp</text>
</a>
</g>
</g>
<!-- Node7&#45;&gt;Node10 -->
<g id="edge13" class="edge"><title>Node7&#45;&gt;Node10</title>
<path fill="none" stroke="midnightblue" d="M405.477,-112.083C407.486,-104.849 410.386,-94.4087 412.89,-85.3968"/>
<polygon fill="midnightblue" stroke="midnightblue" points="416.265,-86.323 415.569,-75.7511 409.52,-84.4495 416.265,-86.323"/>
</g>
<!-- Node14 -->
<g id="node14" class="node"><title>Node14</title>
<polygon fill="white" stroke="#bfbfbf" points="538.5,-56.5 538.5,-75.5 595.5,-75.5 595.5,-56.5 538.5,-56.5"/>
<text text-anchor="middle" x="567" y="-63.5" font-family="Helvetica,sans-Serif" font-size="10.00">Scene.inl</text>
</g>
<!-- Node7&#45;&gt;Node14 -->
<g id="edge19" class="edge"><title>Node7&#45;&gt;Node14</title>
<path fill="none" stroke="midnightblue" d="M428.986,-112.444C456.696,-103.32 500.752,-88.8133 531.616,-78.6509"/>
<polygon fill="midnightblue" stroke="midnightblue" points="532.732,-81.9684 541.135,-75.5164 530.542,-75.3196 532.732,-81.9684"/>
</g>
<!-- Node9&#45;&gt;Node8 -->
<g id="edge12" class="edge"><title>Node9&#45;&gt;Node8</title>
<path fill="none" stroke="midnightblue" d="M812.914,-56.324C802.514,-48.1849 786.739,-35.8395 774.278,-26.0874"/>
<polygon fill="midnightblue" stroke="midnightblue" points="776.32,-23.2407 766.288,-19.8339 772.006,-28.7533 776.32,-23.2407"/>
</g>
<!-- Node10&#45;&gt;Node2 -->
<g id="edge17" class="edge"><title>Node10&#45;&gt;Node2</title>
<path fill="none" stroke="midnightblue" d="M353.676,-56.8701C260.821,-45.1054 97.3104,-24.2708 70,-20 64.3387,-19.1147 58.3259,-18.0848 52.5228,-17.0446"/>
<polygon fill="midnightblue" stroke="midnightblue" points="52.8924,-13.554 42.4246,-15.1898 51.6278,-20.4388 52.8924,-13.554"/>
</g>
<!-- Node10&#45;&gt;Node3 -->
<g id="edge18" class="edge"><title>Node10&#45;&gt;Node3</title>
<path fill="none" stroke="midnightblue" d="M363.543,-56.48C309.132,-47.8283 223.136,-33.7784 149,-20 146.36,-19.5094 143.634,-18.9879 140.893,-18.4527"/>
<polygon fill="midnightblue" stroke="midnightblue" points="141.519,-15.0087 131.028,-16.4854 140.15,-21.8735 141.519,-15.0087"/>
</g>
<!-- Node11 -->
<g id="node11" class="node"><title>Node11</title>
<polygon fill="white" stroke="#bfbfbf" points="331,-0.5 331,-19.5 495,-19.5 495,-0.5 331,-0.5"/>
<text text-anchor="middle" x="413" y="-7.5" font-family="Helvetica,sans-Serif" font-size="10.00">SFML/Graphics/RenderTarget.hpp</text>
</g>
<!-- Node10&#45;&gt;Node11 -->
<g id="edge14" class="edge"><title>Node10&#45;&gt;Node11</title>
<path fill="none" stroke="midnightblue" d="M417.174,-56.083C416.519,-49.0059 415.58,-38.8611 414.758,-29.9865"/>
<polygon fill="midnightblue" stroke="midnightblue" points="418.217,-29.3858 413.81,-19.7511 411.247,-30.0312 418.217,-29.3858"/>
</g>
<!-- Node10&#45;&gt;Node12 -->
<g id="edge15" class="edge"><title>Node10&#45;&gt;Node12</title>
<path fill="none" stroke="midnightblue" d="M388.686,-56.4435C357.158,-47.2406 306.869,-32.5617 272.014,-22.3879"/>
<polygon fill="midnightblue" stroke="midnightblue" points="272.757,-18.9587 262.177,-19.5164 270.795,-25.6783 272.757,-18.9587"/>
</g>
<!-- Node13 -->
<g id="node13" class="node"><title>Node13</title>
<polygon fill="white" stroke="#bfbfbf" points="513.5,-0.5 513.5,-19.5 648.5,-19.5 648.5,-0.5 513.5,-0.5"/>
<text text-anchor="middle" x="581" y="-7.5" font-family="Helvetica,sans-Serif" font-size="10.00">SFML/System/Vector2.hpp</text>
</g>
<!-- Node10&#45;&gt;Node13 -->
<g id="edge16" class="edge"><title>Node10&#45;&gt;Node13</title>
<path fill="none" stroke="midnightblue" d="M443.828,-56.4435C471.249,-47.3591 514.777,-32.9388 545.432,-22.7831"/>
<polygon fill="midnightblue" stroke="midnightblue" points="546.901,-25.9837 555.293,-19.5164 544.7,-19.3389 546.901,-25.9837"/>
</g>
</g>
</svg>
        <g id="navigator" transform="translate(0 0)" fill="#404254">
                <rect fill="#f2f5e9" fill-opacity="0.5" stroke="#606060" stroke-width=".5" x="0" y="0" width="60" height="60"/>
                <use id="zoomplus" xlink:href="#zoomPlus" target="_top" x="17" y="9" onmousedown="handleZoom(evt,'in')"/>
                <use id="zoomminus" xlink:href="#zoomMin" target="_top" x="42" y="9" onmousedown="handleZoom(evt,'out')"/>
                <use id="reset" xlink:href="#resetDef" target="_top" x="30" y="36" onmousedown="handleReset()"/>
                <g id="arrowUp" xlink:href="#dirArrow" target="_top" transform="translate(30 24)" onmousedown="handlePan(0,-1)">
                  <use xlink:href="#rim" target="_top" fill="#404040">
                        <set attributeName="fill" to="#808080" begin="arrowUp.mouseover" end="arrowUp.mouseout"/>
                  </use>
                  <path fill="none" stroke="white" stroke-width="1.5" d="M0,-3.0v7 M-2.5,-0.5L0,-3.0L2.5,-0.5"/>
                </g>
                <g id="arrowRight" xlink:href="#dirArrow" target="_top" transform="rotate(90) translate(36 -43)" onmousedown="handlePan(1,0)">
                  <use xlink:href="#rim" target="_top" fill="#404040">
                        <set attributeName="fill" to="#808080" begin="arrowRight.mouseover" end="arrowRight.mouseout"/>
                  </use>
                  <path fill="none" stroke="white" stroke-width="1.5" d="M0,-3.0v7 M-2.5,-0.5L0,-3.0L2.5,-0.5"/>
                </g>
                <g id="arrowDown" xlink:href="#dirArrow" target="_top" transform="rotate(180) translate(-30 -48)" onmousedown="handlePan(0,1)">
                  <use xlink:href="#rim" target="_top" fill="#404040">
                        <set attributeName="fill" to="#808080" begin="arrowDown.mouseover" end="arrowDown.mouseout"/>
                  </use>
                  <path fill="none" stroke="white" stroke-width="1.5" d="M0,-3.0v7 M-2.5,-0.5L0,-3.0L2.5,-0.5"/>
                </g>
                <g id="arrowLeft" xlink:href="#dirArrow" target="_top" transform="rotate(270) translate(-36 17)" onmousedown="handlePan(-1,0)">
                  <use xlink:href="#rim" target="_top" fill="#404040">
                        <set attributeName="fill" to="#808080" begin="arrowLeft.mouseover" end="arrowLeft.mouseout"/>
                  </use>
                  <path fill="none" stroke="white" stroke-width="1.5" d="M0,-3.0v7 M-2.5,-0.5L0,-3.0L2.5,-0.5"/>
                </g>
        </g>
        <svg viewBox="0 0 15 15" width="100%" height="30px" preserveAspectRatio="xMaxYMin meet">
         <g id="arrow_out" transform="scale(0.3 0.3)">
          <a xlink:href="SceneManager_8hpp__incl_org.svg" target="_base">
           <rect id="button" ry="5" rx="5" y="6" x="6" height="38" width="38"
                fill="#f2f5e9" fill-opacity="0.5" stroke="#606060" stroke-width="1.0"/>
           <path id="arrow"
             d="M 11.500037,31.436501 C 11.940474,20.09759 22.043105,11.32322 32.158766,21.979434 L 37.068811,17.246167 C 37.068811,17.246167 37.088388,32 37.088388,32 L 22.160133,31.978069 C 22.160133,31.978069 26.997745,27.140456 26.997745,27.140456 C 18.528582,18.264221 13.291696,25.230495 11.500037,31.436501 z"
             style="fill:#404040;"/>
          </a>
         </g>
        </svg>
</svg>
