<?xml version="1.0" encoding="UTF-8" standalone="no"?>
<!DOCTYPE svg PUBLIC "-//W3C//DTD SVG 1.1//EN"
 "http://www.w3.org/Graphics/SVG/1.1/DTD/svg11.dtd">
<!-- Generated by graphviz version 2.49.0 (20210828.1703)
 -->
<!-- Title: C:/Users/folae/Documents/Code/Big&#45;Projects/ScriptWizards/SmallGameLibrary/include/Small/Core/SceneManager.hpp Pages: 1 -->
<!--zoomable 285 -->
<svg id="main" version="1.1" xmlns="http://www.w3.org/2000/svg" xmlns:xlink="http://www.w3.org/1999/xlink" xml:space="preserve" onload="init(evt)">
<style type="text/css"><![CDATA[
.edge:hover path { stroke: red; }
.edge:hover polygon { stroke: red; fill: red; }
]]></style>
<script type="text/javascript"><![CDATA[
var edges = document.getElementsByTagName('g');
if (edges && edges.length) {
  for (var i=0;i<edges.length;i++) {
    if (edges[i].id.substr(0,4)=='edge') {
      edges[i].setAttribute('class','edge');
    }
  }
}
]]></script>
        <defs>
                <circle id="rim" cx="0" cy="0" r="7"/>
                <circle id="rim2" cx="0" cy="0" r="3.5"/>
                <g id="zoomPlus">
                        <use xlink:href="#rim" fill="#404040">
                                <set attributeName="fill" to="#808080" begin="zoomplus.mouseover" end="zoomplus.mouseout"/>
                        </use>
                        <path d="M-4,0h8M0,-4v8" fill="none" stroke="white" stroke-width="1.5" pointer-events="none"/>
                </g>
                <g id="zoomMin">
                        <use xlink:href="#rim" fill="#404040">
                                <set attributeName="fill" to="#808080" begin="zoomminus.mouseover" end="zoomminus.mouseout"/>
                        </use>
                        <path d="M-4,0h8" fill="none" stroke="white" stroke-width="1.5" pointer-events="none"/>
                </g>
                <g id="dirArrow">
                        <path fill="none" stroke="white" stroke-width="1.5" d="M0,-3.0v7 M-2.5,-0.5L0,-3.0L2.5,-0.5"/>
                </g>
               <g id="resetDef">
                       <use xlink:href="#rim2" fill="#404040">
                               <set attributeName="fill" to="#808080" begin="reset.mouseover" end="reset.mouseout"/>
                       </use>
               </g>
        </defs>

<script type="text/javascript">
var viewWidth = 1318;
var viewHeight = 285;
var sectionId = 'dynsection-0';
</script>
<script xlink:href="../../svgpan.js"/>
<svg id="graph" class="graph">
<g id="viewport">
<title>C:/Users/folae/Documents/Code/Big&#45;Projects/ScriptWizards/SmallGameLibrary/include/Small/Core/SceneManager.hpp</title>
<polygon fill="white" stroke="transparent" points="-4,4 -4,-281 1313.87,-281 1313.87,4 -4,4"/>
<!-- Node1 -->
<g id="node1" class="node">
<title>Node1</title>
<g id="a_node1"><a xlink:title="Define the scene manager (creating, handling and destroying them)">
<polygon fill="#bfbfbf" stroke="black" points="781.87,-224.5 781.87,-276.5 944.87,-276.5 944.87,-224.5 781.87,-224.5"/>
<text text-anchor="start" x="789.87" y="-264.5" font-family="Helvetica,sans-Serif" font-size="10.00">C:/Users/folae/Documents</text>
<text text-anchor="start" x="789.87" y="-253.5" font-family="Helvetica,sans-Serif" font-size="10.00">/Code/Big&#45;Projects/ScriptWizards</text>
<text text-anchor="start" x="789.87" y="-242.5" font-family="Helvetica,sans-Serif" font-size="10.00">/SmallGameLibrary/include/Small</text>
<text text-anchor="middle" x="863.37" y="-231.5" font-family="Helvetica,sans-Serif" font-size="10.00">/Core/SceneManager.hpp</text>
</a>
</g>
</g>
<!-- Node2 -->
<g id="node2" class="node">
<title>Node2</title>
<g id="a_node2"><a xlink:title=" ">
<polygon fill="white" stroke="#bfbfbf" points="530.37,-56.5 530.37,-75.5 572.37,-75.5 572.37,-56.5 530.37,-56.5"/>
<text text-anchor="middle" x="551.37" y="-63.5" font-family="Helvetica,sans-Serif" font-size="10.00">vector</text>
</a>
</g>
</g>
<!-- Node1&#45;&gt;Node2 -->
<g id="edge1" class="edge">
<title>Node1&#45;&gt;Node2</title>
<path fill="none" stroke="midnightblue" d="M781.8,-237.66C677.05,-220.46 504.74,-184.77 471.37,-132 455.89,-107.51 491.99,-88 520.62,-76.96"/>
<polygon fill="midnightblue" stroke="midnightblue" points="522.15,-80.13 530.34,-73.42 519.75,-73.56 522.15,-80.13"/>
</g>
<!-- Node3 -->
<g id="node3" class="node">
<title>Node3</title>
<g id="a_node3"><a xlink:title=" ">
<polygon fill="white" stroke="#bfbfbf" points="460.37,-56.5 460.37,-75.5 512.37,-75.5 512.37,-56.5 460.37,-56.5"/>
<text text-anchor="middle" x="486.37" y="-63.5" font-family="Helvetica,sans-Serif" font-size="10.00">memory</text>
</a>
</g>
</g>
<!-- Node1&#45;&gt;Node3 -->
<g id="edge2" class="edge">
<title>Node1&#45;&gt;Node3</title>
<path fill="none" stroke="midnightblue" d="M781.52,-241.2C693.46,-231.19 560.04,-212.61 515.37,-188 485.89,-171.76 476.53,-163.39 464.37,-132 458.21,-116.09 465.83,-97.63 473.74,-84.46"/>
<polygon fill="midnightblue" stroke="midnightblue" points="476.79,-86.2 479.36,-75.92 470.94,-82.35 476.79,-86.2"/>
</g>
<!-- Node4 -->
<g id="node4" class="node">
<title>Node4</title>
<g id="a_node4"><a xlink:title=" ">
<polygon fill="white" stroke="#bfbfbf" points="967.37,-168.5 967.37,-187.5 1017.37,-187.5 1017.37,-168.5 967.37,-168.5"/>
<text text-anchor="middle" x="992.37" y="-175.5" font-family="Helvetica,sans-Serif" font-size="10.00">typeinfo</text>
</a>
</g>
</g>
<!-- Node1&#45;&gt;Node4 -->
<g id="edge3" class="edge">
<title>Node1&#45;&gt;Node4</title>
<path fill="none" stroke="midnightblue" d="M909.22,-224.45C928.95,-213.66 951.24,-201.48 967.77,-192.45"/>
<polygon fill="midnightblue" stroke="midnightblue" points="969.68,-195.39 976.77,-187.53 966.32,-189.25 969.68,-195.39"/>
</g>
<!-- Node5 -->
<g id="node5" class="node">
<title>Node5</title>
<g id="a_node5"><a xlink:title=" ">
<polygon fill="white" stroke="#bfbfbf" points="1035.37,-168.5 1035.37,-187.5 1093.37,-187.5 1093.37,-168.5 1035.37,-168.5"/>
<text text-anchor="middle" x="1064.37" y="-175.5" font-family="Helvetica,sans-Serif" font-size="10.00">functional</text>
</a>
</g>
</g>
<!-- Node1&#45;&gt;Node5 -->
<g id="edge4" class="edge">
<title>Node1&#45;&gt;Node5</title>
<path fill="none" stroke="midnightblue" d="M934.81,-224.45C967.42,-213.01 1004.51,-200 1030.63,-190.84"/>
<polygon fill="midnightblue" stroke="midnightblue" points="1031.79,-194.14 1040.06,-187.53 1029.47,-187.53 1031.79,-194.14"/>
</g>
<!-- Node6 -->
<g id="node6" class="node">
<title>Node6</title>
<g id="a_node6"><a xlink:title=" ">
<polygon fill="white" stroke="#bfbfbf" points="54.87,-56.5 54.87,-75.5 137.87,-75.5 137.87,-56.5 54.87,-56.5"/>
<text text-anchor="middle" x="96.37" y="-63.5" font-family="Helvetica,sans-Serif" font-size="10.00">unordered_map</text>
</a>
</g>
</g>
<!-- Node1&#45;&gt;Node6 -->
<g id="edge5" class="edge">
<title>Node1&#45;&gt;Node6</title>
<path fill="none" stroke="midnightblue" d="M781.74,-244.52C576.99,-231.19 54.44,-191.6 5.37,-132 -13.58,-108.97 22.98,-90.18 55.25,-78.83"/>
<polygon fill="midnightblue" stroke="midnightblue" points="56.69,-82.04 65.06,-75.55 54.47,-75.4 56.69,-82.04"/>
</g>
<!-- Node7 -->
<g id="node7" class="node">
<title>Node7</title>
<g id="a_node7"><a xlink:title=" ">
<polygon fill="white" stroke="#bfbfbf" points="702.37,-112.5 702.37,-131.5 806.37,-131.5 806.37,-112.5 702.37,-112.5"/>
<text text-anchor="middle" x="754.37" y="-119.5" font-family="Helvetica,sans-Serif" font-size="10.00">SFML/Graphics.hpp</text>
</a>
</g>
</g>
<!-- Node1&#45;&gt;Node7 -->
<g id="edge6" class="edge">
<title>Node1&#45;&gt;Node7</title>
<path fill="none" stroke="midnightblue" d="M841.58,-224.2C819.75,-198.87 786.81,-160.65 768.29,-139.15"/>
<polygon fill="midnightblue" stroke="midnightblue" points="770.92,-136.84 761.74,-131.55 765.62,-141.41 770.92,-136.84"/>
</g>
<!-- Node8 -->
<g id="node8" class="node">
<title>Node8</title>
<g id="a_node8"><a xlink:title=" ">
<polygon fill="white" stroke="#bfbfbf" points="824.37,-112.5 824.37,-131.5 950.37,-131.5 950.37,-112.5 824.37,-112.5"/>
<text text-anchor="middle" x="887.37" y="-119.5" font-family="Helvetica,sans-Serif" font-size="10.00">SFML/System/Clock.hpp</text>
</a>
</g>
</g>
<!-- Node1&#45;&gt;Node8 -->
<g id="edge7" class="edge">
<title>Node1&#45;&gt;Node8</title>
<path fill="none" stroke="midnightblue" d="M868.17,-224.2C872.81,-199.77 879.72,-163.34 883.87,-141.5"/>
<polygon fill="midnightblue" stroke="midnightblue" points="887.33,-142.03 885.75,-131.55 880.45,-140.72 887.33,-142.03"/>
</g>
<!-- Node9 -->
<g id="node9" class="node">
<title>Node9</title>
<g id="a_node9"><a xlink:title=" ">
<polygon fill="white" stroke="#bfbfbf" points="968.37,-112.5 968.37,-131.5 1094.37,-131.5 1094.37,-112.5 968.37,-112.5"/>
<text text-anchor="middle" x="1031.37" y="-119.5" font-family="Helvetica,sans-Serif" font-size="10.00">SFML/Window/Event.hpp</text>
</a>
</g>
</g>
<!-- Node1&#45;&gt;Node9 -->
<g id="edge8" class="edge">
<title>Node1&#45;&gt;Node9</title>
<path fill="none" stroke="midnightblue" d="M877.69,-224.25C888.79,-206.55 905.59,-183.39 925.37,-168 944.58,-153.06 969.49,-142.15 990.33,-134.82"/>
<polygon fill="midnightblue" stroke="midnightblue" points="991.53,-138.11 999.89,-131.61 989.3,-131.48 991.53,-138.11"/>
</g>
<!-- Node10 -->
<g id="node10" class="node">
<title>Node10</title>
<g id="a_node10"><a xlink:title=" ">
<polygon fill="white" stroke="#bfbfbf" points="989.87,-56.5 989.87,-75.5 1138.87,-75.5 1138.87,-56.5 989.87,-56.5"/>
<text text-anchor="middle" x="1064.37" y="-63.5" font-family="Helvetica,sans-Serif" font-size="10.00">SFML/Graphics/Transform.hpp</text>
</a>
</g>
</g>
<!-- Node1&#45;&gt;Node10 -->
<g id="edge9" class="edge">
<title>Node1&#45;&gt;Node10</title>
<path fill="none" stroke="midnightblue" d="M886.42,-224.21C904.35,-206.01 930.76,-182.25 958.37,-168 1017.39,-137.56 1062.47,-184.3 1103.37,-132 1115.87,-116.02 1099.18,-95.72 1083.92,-82.1"/>
<polygon fill="midnightblue" stroke="midnightblue" points="1086.14,-79.39 1076.23,-75.64 1081.64,-84.75 1086.14,-79.39"/>
</g>
<!-- Node11 -->
<g id="node11" class="node">
<title>Node11</title>
<g id="a_node11"><a xlink:href="../../db/de8/Scene_8hpp.html" target="_top" xlink:title="The base scene class and the scene states are defined here.">
<polygon fill="white" stroke="black" points="598.37,-168.5 598.37,-187.5 712.37,-187.5 712.37,-168.5 598.37,-168.5"/>
<text text-anchor="middle" x="655.37" y="-175.5" font-family="Helvetica,sans-Serif" font-size="10.00">Small/Core/Scene.hpp</text>
</a>
</g>
</g>
<!-- Node1&#45;&gt;Node11 -->
<g id="edge10" class="edge">
<title>Node1&#45;&gt;Node11</title>
<path fill="none" stroke="midnightblue" d="M789.46,-224.45C755.7,-213.01 717.32,-200 690.3,-190.84"/>
<polygon fill="midnightblue" stroke="midnightblue" points="691.13,-187.42 680.53,-187.53 688.88,-194.05 691.13,-187.42"/>
</g>
<!-- Node13 -->
<g id="node13" class="node">
<title>Node13</title>
<g id="a_node13"><a xlink:href="../../df/db4/Config_8hpp.html" target="_top" xlink:title=" ">
<polygon fill="white" stroke="black" points="14.87,-112.5 14.87,-131.5 145.87,-131.5 145.87,-112.5 14.87,-112.5"/>
<text text-anchor="middle" x="80.37" y="-119.5" font-family="Helvetica,sans-Serif" font-size="10.00">Small/Scripting/Config.hpp</text>
</a>
</g>
</g>
<!-- Node1&#45;&gt;Node13 -->
<g id="edge34" class="edge">
<title>Node1&#45;&gt;Node13</title>
<path fill="none" stroke="midnightblue" d="M781.58,-240.35C688.86,-229.58 533.33,-210.31 400.37,-188 303.19,-171.7 190.45,-147.56 128.08,-133.75"/>
<polygon fill="midnightblue" stroke="midnightblue" points="128.67,-130.3 118.15,-131.55 127.15,-137.13 128.67,-130.3"/>
</g>
<!-- Node22 -->
<g id="node22" class="node">
<title>Node22</title>
<g id="a_node22"><a xlink:title=" ">
<polygon fill="white" stroke="#bfbfbf" points="1111.87,-168.5 1111.87,-187.5 1196.87,-187.5 1196.87,-168.5 1111.87,-168.5"/>
<text text-anchor="middle" x="1154.37" y="-175.5" font-family="Helvetica,sans-Serif" font-size="10.00">spdlog/spdlog.h</text>
</a>
</g>
</g>
<!-- Node1&#45;&gt;Node22 -->
<g id="edge35" class="edge">
<title>Node1&#45;&gt;Node22</title>
<path fill="none" stroke="midnightblue" d="M945.21,-229.67C998.39,-216.79 1065.71,-200.48 1109.39,-189.9"/>
<polygon fill="midnightblue" stroke="midnightblue" points="1110.25,-193.29 1119.15,-187.53 1108.6,-186.49 1110.25,-193.29"/>
</g>
<!-- Node23 -->
<g id="node23" class="node">
<title>Node23</title>
<g id="a_node23"><a xlink:title=" ">
<polygon fill="white" stroke="#bfbfbf" points="1214.87,-168.5 1214.87,-187.5 1309.87,-187.5 1309.87,-168.5 1214.87,-168.5"/>
<text text-anchor="middle" x="1262.37" y="-175.5" font-family="Helvetica,sans-Serif" font-size="10.00">SceneManager.inl</text>
</a>
</g>
</g>
<!-- Node1&#45;&gt;Node23 -->
<g id="edge36" class="edge">
<title>Node1&#45;&gt;Node23</title>
<path fill="none" stroke="midnightblue" d="M945.08,-235.06C1022.39,-221.4 1136.47,-201.25 1204.71,-189.19"/>
<polygon fill="midnightblue" stroke="midnightblue" points="1205.6,-192.59 1214.84,-187.4 1204.39,-185.69 1205.6,-192.59"/>
</g>
<!-- Node11&#45;&gt;Node7 -->
<g id="edge12" class="edge">
<title>Node11&#45;&gt;Node7</title>
<path fill="none" stroke="midnightblue" d="M671.28,-168.32C687.01,-159.74 711.32,-146.49 729.58,-136.52"/>
<polygon fill="midnightblue" stroke="midnightblue" points="731.41,-139.52 738.51,-131.65 728.05,-133.37 731.41,-139.52"/>
</g>
<!-- Node11&#45;&gt;Node8 -->
<g id="edge13" class="edge">
<title>Node11&#45;&gt;Node8</title>
<path fill="none" stroke="midnightblue" d="M692.14,-168.44C732.44,-159.06 797.18,-143.99 840.96,-133.8"/>
<polygon fill="midnightblue" stroke="midnightblue" points="841.84,-137.19 850.79,-131.52 840.25,-130.37 841.84,-137.19"/>
</g>
<!-- Node11&#45;&gt;Node9 -->
<g id="edge14" class="edge">
<title>Node11&#45;&gt;Node9</title>
<path fill="none" stroke="midnightblue" d="M712.48,-168.8C779.35,-159.2 890.08,-143.29 961.88,-132.98"/>
<polygon fill="midnightblue" stroke="midnightblue" points="962.78,-136.39 972.18,-131.5 961.78,-129.46 962.78,-136.39"/>
</g>
<!-- Node12 -->
<g id="node12" class="node">
<title>Node12</title>
<g id="a_node12"><a xlink:title=" ">
<polygon fill="white" stroke="#bfbfbf" points="148.87,-0.5 148.87,-19.5 189.87,-19.5 189.87,-0.5 148.87,-0.5"/>
<text text-anchor="middle" x="169.37" y="-7.5" font-family="Helvetica,sans-Serif" font-size="10.00">string</text>
</a>
</g>
</g>
<!-- Node11&#45;&gt;Node12 -->
<g id="edge11" class="edge">
<title>Node11&#45;&gt;Node12</title>
<path fill="none" stroke="midnightblue" d="M597.98,-174.73C483.91,-169.71 237.08,-156.18 207.37,-132 176.6,-106.94 170.32,-57.18 169.3,-29.93"/>
<polygon fill="midnightblue" stroke="midnightblue" points="172.8,-29.71 169.13,-19.77 165.8,-29.82 172.8,-29.71"/>
</g>
<!-- Node11&#45;&gt;Node13 -->
<g id="edge15" class="edge">
<title>Node11&#45;&gt;Node13</title>
<path fill="none" stroke="midnightblue" d="M598.17,-172.2C505.96,-164.37 318.77,-148.11 160.37,-132 159.08,-131.87 157.78,-131.74 156.47,-131.6"/>
<polygon fill="midnightblue" stroke="midnightblue" points="156.6,-128.09 146.28,-130.53 155.86,-135.06 156.6,-128.09"/>
</g>
<!-- Node14 -->
<g id="node14" class="node">
<title>Node14</title>
<g id="a_node14"><a xlink:href="../../d7/dc6/Node_8hpp.html" target="_top" xlink:title="A scene graph node.">
<polygon fill="white" stroke="black" points="480.37,-112.5 480.37,-131.5 608.37,-131.5 608.37,-112.5 480.37,-112.5"/>
<text text-anchor="middle" x="544.37" y="-119.5" font-family="Helvetica,sans-Serif" font-size="10.00">Small/Graphics/Node.hpp</text>
</a>
</g>
</g>
<!-- Node11&#45;&gt;Node14 -->
<g id="edge17" class="edge">
<title>Node11&#45;&gt;Node14</title>
<path fill="none" stroke="midnightblue" d="M637.54,-168.32C619.66,-159.62 591.9,-146.12 571.33,-136.11"/>
<polygon fill="midnightblue" stroke="midnightblue" points="572.69,-132.88 562.16,-131.65 569.63,-139.18 572.69,-132.88"/>
</g>
<!-- Node17 -->
<g id="node17" class="node">
<title>Node17</title>
<g id="a_node17"><a xlink:href="../../dc/d6f/RessourceManager_8hpp.html" target="_top" xlink:title=" ">
<polygon fill="white" stroke="black" points="216.37,-112.5 216.37,-131.5 386.37,-131.5 386.37,-112.5 216.37,-112.5"/>
<text text-anchor="middle" x="301.37" y="-119.5" font-family="Helvetica,sans-Serif" font-size="10.00">Small/Core/RessourceManager.hpp</text>
</a>
</g>
</g>
<!-- Node11&#45;&gt;Node17 -->
<g id="edge23" class="edge">
<title>Node11&#45;&gt;Node17</title>
<path fill="none" stroke="midnightblue" d="M599.28,-168.44C536.23,-158.83 433.98,-143.23 367.2,-133.04"/>
<polygon fill="midnightblue" stroke="midnightblue" points="367.62,-129.56 357.2,-131.52 366.56,-136.48 367.62,-129.56"/>
</g>
<!-- Node21 -->
<g id="node21" class="node">
<title>Node21</title>
<g id="a_node21"><a xlink:title=" ">
<polygon fill="white" stroke="#bfbfbf" points="626.87,-112.5 626.87,-131.5 683.87,-131.5 683.87,-112.5 626.87,-112.5"/>
<text text-anchor="middle" x="655.37" y="-119.5" font-family="Helvetica,sans-Serif" font-size="10.00">Scene.inl</text>
</a>
</g>
</g>
<!-- Node11&#45;&gt;Node21 -->
<g id="edge33" class="edge">
<title>Node11&#45;&gt;Node21</title>
<path fill="none" stroke="midnightblue" d="M655.37,-168.08C655.37,-161.01 655.37,-150.86 655.37,-141.99"/>
<polygon fill="midnightblue" stroke="midnightblue" points="658.87,-141.75 655.37,-131.75 651.87,-141.75 658.87,-141.75"/>
</g>
<!-- Node13&#45;&gt;Node12 -->
<g id="edge16" class="edge">
<title>Node13&#45;&gt;Node12</title>
<path fill="none" stroke="midnightblue" d="M69.45,-112.21C54.82,-99.35 32.13,-74.89 45.37,-56 66.33,-26.1 109.27,-15.99 138.69,-12.62"/>
<polygon fill="midnightblue" stroke="midnightblue" points="139.23,-16.08 148.85,-11.65 138.57,-9.11 139.23,-16.08"/>
</g>
<!-- Node14&#45;&gt;Node2 -->
<g id="edge21" class="edge">
<title>Node14&#45;&gt;Node2</title>
<path fill="none" stroke="midnightblue" d="M545.53,-112.08C546.46,-104.93 547.79,-94.64 548.95,-85.69"/>
<polygon fill="midnightblue" stroke="midnightblue" points="552.43,-86.12 550.24,-75.75 545.48,-85.22 552.43,-86.12"/>
</g>
<!-- Node14&#45;&gt;Node3 -->
<g id="edge22" class="edge">
<title>Node14&#45;&gt;Node3</title>
<path fill="none" stroke="midnightblue" d="M535.06,-112.32C526.48,-104.34 513.56,-92.31 503.19,-82.65"/>
<polygon fill="midnightblue" stroke="midnightblue" points="505.57,-80.09 495.86,-75.83 500.8,-85.21 505.57,-80.09"/>
</g>
<!-- Node14&#45;&gt;Node10 -->
<g id="edge19" class="edge">
<title>Node14&#45;&gt;Node10</title>
<path fill="none" stroke="midnightblue" d="M608.46,-113.02C611.47,-112.67 614.46,-112.33 617.37,-112 743.32,-97.9 889.47,-83.57 979.43,-74.98"/>
<polygon fill="midnightblue" stroke="midnightblue" points="979.96,-78.45 989.58,-74.01 979.29,-71.48 979.96,-78.45"/>
</g>
<!-- Node15 -->
<g id="node15" class="node">
<title>Node15</title>
<g id="a_node15"><a xlink:title=" ">
<polygon fill="white" stroke="#bfbfbf" points="590.37,-56.5 590.37,-75.5 754.37,-75.5 754.37,-56.5 590.37,-56.5"/>
<text text-anchor="middle" x="672.37" y="-63.5" font-family="Helvetica,sans-Serif" font-size="10.00">SFML/Graphics/RenderTarget.hpp</text>
</a>
</g>
</g>
<!-- Node14&#45;&gt;Node15 -->
<g id="edge18" class="edge">
<title>Node14&#45;&gt;Node15</title>
<path fill="none" stroke="midnightblue" d="M564.66,-112.44C585.72,-103.56 618.89,-89.56 642.86,-79.45"/>
<polygon fill="midnightblue" stroke="midnightblue" points="644.33,-82.63 652.19,-75.52 641.61,-76.18 644.33,-82.63"/>
</g>
<!-- Node16 -->
<g id="node16" class="node">
<title>Node16</title>
<g id="a_node16"><a xlink:title=" ">
<polygon fill="white" stroke="#bfbfbf" points="772.87,-56.5 772.87,-75.5 907.87,-75.5 907.87,-56.5 772.87,-56.5"/>
<text text-anchor="middle" x="840.37" y="-63.5" font-family="Helvetica,sans-Serif" font-size="10.00">SFML/System/Vector2.hpp</text>
</a>
</g>
</g>
<!-- Node14&#45;&gt;Node16 -->
<g id="edge20" class="edge">
<title>Node14&#45;&gt;Node16</title>
<path fill="none" stroke="midnightblue" d="M591.28,-112.44C643.45,-102.92 727.75,-87.55 783.61,-77.36"/>
<polygon fill="midnightblue" stroke="midnightblue" points="784.48,-80.75 793.69,-75.52 783.23,-73.87 784.48,-80.75"/>
</g>
<!-- Node17&#45;&gt;Node3 -->
<g id="edge25" class="edge">
<title>Node17&#45;&gt;Node3</title>
<path fill="none" stroke="midnightblue" d="M330.69,-112.44C363.14,-102.97 415.48,-87.69 450.39,-77.5"/>
<polygon fill="midnightblue" stroke="midnightblue" points="451.57,-80.81 460.19,-74.64 449.61,-74.09 451.57,-80.81"/>
</g>
<!-- Node17&#45;&gt;Node6 -->
<g id="edge26" class="edge">
<title>Node17&#45;&gt;Node6</title>
<path fill="none" stroke="midnightblue" d="M268.89,-112.44C233.65,-103.16 177.27,-88.31 138.62,-78.13"/>
<polygon fill="midnightblue" stroke="midnightblue" points="139.27,-74.68 128.71,-75.52 137.48,-81.45 139.27,-74.68"/>
</g>
<!-- Node17&#45;&gt;Node12 -->
<g id="edge24" class="edge">
<title>Node17&#45;&gt;Node12</title>
<path fill="none" stroke="midnightblue" d="M291.02,-112.37C268.65,-93.73 215.61,-49.53 187.54,-26.13"/>
<polygon fill="midnightblue" stroke="midnightblue" points="189.61,-23.3 179.68,-19.59 185.13,-28.68 189.61,-23.3"/>
</g>
<!-- Node18 -->
<g id="node18" class="node">
<title>Node18</title>
<g id="a_node18"><a xlink:title=" ">
<polygon fill="white" stroke="#bfbfbf" points="209.87,-0.5 209.87,-19.5 348.87,-19.5 348.87,-0.5 209.87,-0.5"/>
<text text-anchor="middle" x="279.37" y="-7.5" font-family="Helvetica,sans-Serif" font-size="10.00">SFML/Graphics/Texture.hpp</text>
</a>
</g>
</g>
<!-- Node17&#45;&gt;Node18 -->
<g id="edge27" class="edge">
<title>Node17&#45;&gt;Node18</title>
<path fill="none" stroke="midnightblue" d="M290.11,-112.43C280.41,-104.27 267.1,-91.05 261.37,-76 255.41,-60.3 261.78,-41.79 268.53,-28.54"/>
<polygon fill="midnightblue" stroke="midnightblue" points="271.73,-30.01 273.58,-19.58 265.62,-26.58 271.73,-30.01"/>
</g>
<!-- Node19 -->
<g id="node19" class="node">
<title>Node19</title>
<g id="a_node19"><a xlink:title=" ">
<polygon fill="white" stroke="#bfbfbf" points="368.37,-0.5 368.37,-19.5 494.37,-19.5 494.37,-0.5 368.37,-0.5"/>
<text text-anchor="middle" x="431.37" y="-7.5" font-family="Helvetica,sans-Serif" font-size="10.00">SFML/Graphics/Font.hpp</text>
</a>
</g>
</g>
<!-- Node17&#45;&gt;Node19 -->
<g id="edge28" class="edge">
<title>Node17&#45;&gt;Node19</title>
<path fill="none" stroke="midnightblue" d="M346.51,-112.47C369.14,-106.01 395.29,-94.9 412.37,-76 423.82,-63.34 428.4,-44.13 430.21,-29.88"/>
<polygon fill="midnightblue" stroke="midnightblue" points="433.71,-30.01 431.15,-19.72 426.74,-29.36 433.71,-30.01"/>
</g>
<!-- Node20 -->
<g id="node20" class="node">
<title>Node20</title>
<g id="a_node20"><a xlink:href="../../db/d73/Ressource_8hpp.html" target="_top" xlink:title=" ">
<polygon fill="white" stroke="black" points="270.87,-56.5 270.87,-75.5 403.87,-75.5 403.87,-56.5 270.87,-56.5"/>
<text text-anchor="middle" x="337.37" y="-63.5" font-family="Helvetica,sans-Serif" font-size="10.00">Small/Core/Ressource.hpp</text>
</a>
</g>
</g>
<!-- Node17&#45;&gt;Node20 -->
<g id="edge29" class="edge">
<title>Node17&#45;&gt;Node20</title>
<path fill="none" stroke="midnightblue" d="M307.32,-112.08C312.35,-104.53 319.71,-93.49 325.89,-84.23"/>
<polygon fill="midnightblue" stroke="midnightblue" points="328.91,-86.01 331.54,-75.75 323.08,-82.13 328.91,-86.01"/>
</g>
<!-- Node20&#45;&gt;Node12 -->
<g id="edge30" class="edge">
<title>Node20&#45;&gt;Node12</title>
<path fill="none" stroke="midnightblue" d="M310.75,-56.44C280.53,-46.73 231.33,-30.91 199.66,-20.74"/>
<polygon fill="midnightblue" stroke="midnightblue" points="200.64,-17.37 190.04,-17.64 198.49,-24.04 200.64,-17.37"/>
</g>
<!-- Node20&#45;&gt;Node18 -->
<g id="edge31" class="edge">
<title>Node20&#45;&gt;Node18</title>
<path fill="none" stroke="midnightblue" d="M328.06,-56.32C319.48,-48.34 306.56,-36.31 296.19,-26.65"/>
<polygon fill="midnightblue" stroke="midnightblue" points="298.57,-24.09 288.86,-19.83 293.8,-29.21 298.57,-24.09"/>
</g>
<!-- Node20&#45;&gt;Node19 -->
<g id="edge32" class="edge">
<title>Node20&#45;&gt;Node19</title>
<path fill="none" stroke="midnightblue" d="M352.48,-56.32C367.28,-47.82 390.07,-34.73 407.36,-24.8"/>
<polygon fill="midnightblue" stroke="midnightblue" points="409.38,-27.67 416.31,-19.65 405.89,-21.6 409.38,-27.67"/>
</g>
</g>
</svg>
        <g id="navigator" transform="translate(0 0)" fill="#404254">
                <rect fill="#f2f5e9" fill-opacity="0.5" stroke="#606060" stroke-width=".5" x="0" y="0" width="60" height="60"/>
                <use id="zoomplus" xlink:href="#zoomPlus" x="17" y="9" onmousedown="handleZoom(evt,'in')"/>
                <use id="zoomminus" xlink:href="#zoomMin" x="42" y="9" onmousedown="handleZoom(evt,'out')"/>
                <use id="reset" xlink:href="#resetDef" x="30" y="36" onmousedown="handleReset()"/>
                <g id="arrowUp" xlink:href="#dirArrow" transform="translate(30 24)" onmousedown="handlePan(0,-1)">
                  <use xlink:href="#rim" fill="#404040">
                        <set attributeName="fill" to="#808080" begin="arrowUp.mouseover" end="arrowUp.mouseout"/>
                  </use>
                  <path fill="none" stroke="white" stroke-width="1.5" d="M0,-3.0v7 M-2.5,-0.5L0,-3.0L2.5,-0.5"/>
                </g>
                <g id="arrowRight" xlink:href="#dirArrow" transform="rotate(90) translate(36 -43)" onmousedown="handlePan(1,0)">
                  <use xlink:href="#rim" fill="#404040">
                        <set attributeName="fill" to="#808080" begin="arrowRight.mouseover" end="arrowRight.mouseout"/>
                  </use>
                  <path fill="none" stroke="white" stroke-width="1.5" d="M0,-3.0v7 M-2.5,-0.5L0,-3.0L2.5,-0.5"/>
                </g>
                <g id="arrowDown" xlink:href="#dirArrow" transform="rotate(180) translate(-30 -48)" onmousedown="handlePan(0,1)">
                  <use xlink:href="#rim" fill="#404040">
                        <set attributeName="fill" to="#808080" begin="arrowDown.mouseover" end="arrowDown.mouseout"/>
                  </use>
                  <path fill="none" stroke="white" stroke-width="1.5" d="M0,-3.0v7 M-2.5,-0.5L0,-3.0L2.5,-0.5"/>
                </g>
                <g id="arrowLeft" xlink:href="#dirArrow" transform="rotate(270) translate(-36 17)" onmousedown="handlePan(-1,0)">
                  <use xlink:href="#rim" fill="#404040">
                        <set attributeName="fill" to="#808080" begin="arrowLeft.mouseover" end="arrowLeft.mouseout"/>
                  </use>
                  <path fill="none" stroke="white" stroke-width="1.5" d="M0,-3.0v7 M-2.5,-0.5L0,-3.0L2.5,-0.5"/>
                </g>
        </g>
        <svg viewBox="0 0 15 15" width="100%" height="30px" preserveAspectRatio="xMaxYMin meet">
         <g id="arrow_out" transform="scale(0.3 0.3)">
          <a xlink:href="SceneManager_8hpp__incl_org.svg" target="_base">
           <rect id="button" ry="5" rx="5" y="6" x="6" height="38" width="38"
                fill="#f2f5e9" fill-opacity="0.5" stroke="#606060" stroke-width="1.0"/>
           <path id="arrow"
             d="M 11.500037,31.436501 C 11.940474,20.09759 22.043105,11.32322 32.158766,21.979434 L 37.068811,17.246167 C 37.068811,17.246167 37.088388,32 37.088388,32 L 22.160133,31.978069 C 22.160133,31.978069 26.997745,27.140456 26.997745,27.140456 C 18.528582,18.264221 13.291696,25.230495 11.500037,31.436501 z"
             style="fill:#404040;"/>
          </a>
         </g>
        </svg>
</svg>
