<?xml version="1.0" encoding="UTF-8" standalone="no"?>
<!DOCTYPE svg PUBLIC "-//W3C//DTD SVG 1.1//EN"
 "http://www.w3.org/Graphics/SVG/1.1/DTD/svg11.dtd">
<!-- Generated by graphviz version 2.38.0 (20140413.2041)
 -->
<!-- Title: include/Small/GameObjects Pages: 1 -->
<svg width="206pt" height="159pt"
 viewBox="0.00 0.00 206.00 159.00" xmlns="http://www.w3.org/2000/svg" xmlns:xlink="http://www.w3.org/1999/xlink">
<g id="graph0" class="graph" transform="scale(1 1) rotate(0) translate(4 155)">
<title>include/Small/GameObjects</title>
<polygon fill="white" stroke="none" points="-4,4 -4,-155 202,-155 202,4 -4,4"/>
<g id="clust1" class="cluster"><title>clusterdir_bccf9de9576cfd43a752576f669ec707</title>
<g id="a_clust1"><a xlink:href="dir_bccf9de9576cfd43a752576f669ec707.html" target="_top" xlink:title="Small">
<polygon fill="#ddddee" stroke="black" points="8,-56 8,-143 190,-143 190,-56 8,-56"/>
<text text-anchor="middle" x="99" y="-131" font-family="Helvetica,sans-Serif" font-size="10.00">Small</text>
</a>
</g>
</g>
<g id="clust2" class="cluster"><title>clusterdir_93a9b13fd1faea679b8404f52a1184a5</title>
<g id="a_clust2"><a xlink:href="dir_93a9b13fd1faea679b8404f52a1184a5.html" target="_top">
<polygon fill="#eeeeff" stroke="black" points="16,-64 16,-116 182,-116 182,-64 16,-64"/>
</a>
</g>
</g>
<!-- dir_93a9b13fd1faea679b8404f52a1184a5 -->
<g id="node1" class="node"><title>dir_93a9b13fd1faea679b8404f52a1184a5</title>
<text text-anchor="middle" x="135" y="-87.5" font-family="Helvetica,sans-Serif" font-size="10.00">GameObjects</text>
</g>
<!-- dir_1e32cf0ae7c9740a651d31fd7036c32f -->
<g id="node3" class="node"><title>dir_1e32cf0ae7c9740a651d31fd7036c32f</title>
<g id="a_node3"><a xlink:href="dir_1e32cf0ae7c9740a651d31fd7036c32f.html" target="_top" xlink:title="Graphics">
<polygon fill="none" stroke="black" points="163,-36 107,-36 107,-0 163,-0 163,-36"/>
<text text-anchor="middle" x="135" y="-15.5" font-family="Helvetica,sans-Serif" font-size="10.00">Graphics</text>
</a>
</g>
</g>
<!-- dir_93a9b13fd1faea679b8404f52a1184a5&#45;&gt;dir_1e32cf0ae7c9740a651d31fd7036c32f -->
<g id="edge1" class="edge"><title>dir_93a9b13fd1faea679b8404f52a1184a5&#45;&gt;dir_1e32cf0ae7c9740a651d31fd7036c32f</title>
<path fill="none" stroke="black" d="M135,-71.6966C135,-63.9827 135,-54.7125 135,-46.1124"/>
<polygon fill="black" stroke="black" points="138.5,-46.1043 135,-36.1043 131.5,-46.1044 138.5,-46.1043"/>
<g id="a_edge1&#45;headlabel"><a xlink:href="dir_000004_000006.html" target="_top" xlink:title="1">
<text text-anchor="middle" x="141.339" y="-47.199" font-family="Helvetica,sans-Serif" font-size="10.00">1</text>
</a>
</g>
</g>
<!-- dir_a30cd426650ab6563d9cbd0dad44b31a -->
<g id="node2" class="node"><title>dir_a30cd426650ab6563d9cbd0dad44b31a</title>
<g id="a_node2"><a xlink:href="dir_a30cd426650ab6563d9cbd0dad44b31a.html" target="_top" xlink:title="Triggers">
<polygon fill="white" stroke="black" points="78,-108 24,-108 24,-72 78,-72 78,-108"/>
<text text-anchor="middle" x="51" y="-87.5" font-family="Helvetica,sans-Serif" font-size="10.00">Triggers</text>
</a>
</g>
</g>
</g>
</svg>
