<?xml version="1.0" encoding="UTF-8" standalone="no"?>
<!DOCTYPE svg PUBLIC "-//W3C//DTD SVG 1.1//EN"
 "http://www.w3.org/Graphics/SVG/1.1/DTD/svg11.dtd">
<!-- Generated by graphviz version 2.38.0 (20140413.2041)
 -->
<!-- Title: include/Small/Core Pages: 1 -->
<svg width="210pt" height="151pt"
 viewBox="0.00 0.00 209.50 151.00" xmlns="http://www.w3.org/2000/svg" xmlns:xlink="http://www.w3.org/1999/xlink">
<g id="graph0" class="graph" transform="scale(1 1) rotate(0) translate(4 147)">
<title>include/Small/Core</title>
<polygon fill="white" stroke="none" points="-4,4 -4,-147 205.5,-147 205.5,4 -4,4"/>
<g id="clust1" class="cluster"><title>clusterdir_bccf9de9576cfd43a752576f669ec707</title>
<g id="a_clust1"><a xlink:href="dir_bccf9de9576cfd43a752576f669ec707.html" target="_top" xlink:title="Small">
<polygon fill="#ddddee" stroke="black" points="65.5,-64 65.5,-135 135.5,-135 135.5,-64 65.5,-64"/>
<text text-anchor="middle" x="100.5" y="-123" font-family="Helvetica,sans-Serif" font-size="10.00">Small</text>
</a>
</g>
</g>
<!-- dir_28fb12f25184f93ef1999017e259726d -->
<g id="node1" class="node"><title>dir_28fb12f25184f93ef1999017e259726d</title>
<g id="a_node1"><a xlink:href="dir_28fb12f25184f93ef1999017e259726d.html" target="_top" xlink:title="Core">
<polygon fill="#eeeeff" stroke="black" points="127.5,-108 73.5,-108 73.5,-72 127.5,-72 127.5,-108"/>
<text text-anchor="middle" x="100.5" y="-87.5" font-family="Helvetica,sans-Serif" font-size="10.00">Core</text>
</a>
</g>
</g>
<!-- dir_83b6773e5da43a082e3b0b578f795f5d -->
<g id="node2" class="node"><title>dir_83b6773e5da43a082e3b0b578f795f5d</title>
<g id="a_node2"><a xlink:href="dir_83b6773e5da43a082e3b0b578f795f5d.html" target="_top" xlink:title="Scripting">
<polygon fill="none" stroke="black" points="55,-36 0,-36 0,-0 55,-0 55,-36"/>
<text text-anchor="middle" x="27.5" y="-15.5" font-family="Helvetica,sans-Serif" font-size="10.00">Scripting</text>
</a>
</g>
</g>
<!-- dir_28fb12f25184f93ef1999017e259726d&#45;&gt;dir_83b6773e5da43a082e3b0b578f795f5d -->
<g id="edge1" class="edge"><title>dir_28fb12f25184f93ef1999017e259726d&#45;&gt;dir_83b6773e5da43a082e3b0b578f795f5d</title>
<path fill="none" stroke="black" d="M82.4551,-71.6966C73.4381,-63.0503 62.3821,-52.4486 52.5568,-43.027"/>
<polygon fill="black" stroke="black" points="54.9777,-40.4993 45.3374,-36.1043 50.1328,-45.5518 54.9777,-40.4993"/>
<g id="a_edge1&#45;headlabel"><a xlink:href="dir_000002_000007.html" target="_top" xlink:title="4">
<text text-anchor="middle" x="59.5373" y="-38.4379" font-family="Helvetica,sans-Serif" font-size="10.00">4</text>
</a>
</g>
</g>
<!-- dir_7f4e8556346902d5437514d20633b51f -->
<g id="node3" class="node"><title>dir_7f4e8556346902d5437514d20633b51f</title>
<g id="a_node3"><a xlink:href="dir_7f4e8556346902d5437514d20633b51f.html" target="_top" xlink:title="Debug">
<polygon fill="none" stroke="black" points="127.5,-36 73.5,-36 73.5,-0 127.5,-0 127.5,-36"/>
<text text-anchor="middle" x="100.5" y="-15.5" font-family="Helvetica,sans-Serif" font-size="10.00">Debug</text>
</a>
</g>
</g>
<!-- dir_28fb12f25184f93ef1999017e259726d&#45;&gt;dir_7f4e8556346902d5437514d20633b51f -->
<g id="edge2" class="edge"><title>dir_28fb12f25184f93ef1999017e259726d&#45;&gt;dir_7f4e8556346902d5437514d20633b51f</title>
<path fill="none" stroke="black" d="M100.5,-71.6966C100.5,-63.9827 100.5,-54.7125 100.5,-46.1124"/>
<polygon fill="black" stroke="black" points="104,-46.1043 100.5,-36.1043 97.0001,-46.1044 104,-46.1043"/>
<g id="a_edge2&#45;headlabel"><a xlink:href="dir_000002_000003.html" target="_top" xlink:title="1">
<text text-anchor="middle" x="106.839" y="-47.199" font-family="Helvetica,sans-Serif" font-size="10.00">1</text>
</a>
</g>
</g>
<!-- dir_1e32cf0ae7c9740a651d31fd7036c32f -->
<g id="node4" class="node"><title>dir_1e32cf0ae7c9740a651d31fd7036c32f</title>
<g id="a_node4"><a xlink:href="dir_1e32cf0ae7c9740a651d31fd7036c32f.html" target="_top" xlink:title="Graphics">
<polygon fill="none" stroke="black" points="201.5,-36 145.5,-36 145.5,-0 201.5,-0 201.5,-36"/>
<text text-anchor="middle" x="173.5" y="-15.5" font-family="Helvetica,sans-Serif" font-size="10.00">Graphics</text>
</a>
</g>
</g>
<!-- dir_28fb12f25184f93ef1999017e259726d&#45;&gt;dir_1e32cf0ae7c9740a651d31fd7036c32f -->
<g id="edge3" class="edge"><title>dir_28fb12f25184f93ef1999017e259726d&#45;&gt;dir_1e32cf0ae7c9740a651d31fd7036c32f</title>
<path fill="none" stroke="black" d="M118.545,-71.6966C127.562,-63.0503 138.618,-52.4486 148.443,-43.027"/>
<polygon fill="black" stroke="black" points="150.867,-45.5518 155.663,-36.1043 146.022,-40.4993 150.867,-45.5518"/>
<g id="a_edge3&#45;headlabel"><a xlink:href="dir_000002_000005.html" target="_top" xlink:title="1">
<text text-anchor="middle" x="150.238" y="-47.589" font-family="Helvetica,sans-Serif" font-size="10.00">1</text>
</a>
</g>
</g>
</g>
</svg>
