<?xml version="1.0" encoding="UTF-8" standalone="no"?>
<!DOCTYPE svg PUBLIC "-//W3C//DTD SVG 1.1//EN"
 "http://www.w3.org/Graphics/SVG/1.1/DTD/svg11.dtd">
<!-- Generated by graphviz version 2.38.0 (20140413.2041)
 -->
<!-- Title: include/Small Pages: 1 -->
<svg width="318pt" height="327pt"
 viewBox="0.00 0.00 318.00 327.00" xmlns="http://www.w3.org/2000/svg" xmlns:xlink="http://www.w3.org/1999/xlink">
<g id="graph0" class="graph" transform="scale(1 1) rotate(0) translate(4 323)">
<title>include/Small</title>
<polygon fill="white" stroke="none" points="-4,4 -4,-323 314,-323 314,4 -4,4"/>
<g id="clust1" class="cluster"><title>clusterdir_8e4a18c814930dece8feb93b1f20a8ba</title>
<g id="a_clust1"><a xlink:href="dir_8e4a18c814930dece8feb93b1f20a8ba.html" target="_top" xlink:title="include">
<polygon fill="#ddddee" stroke="black" points="8,-8 8,-311 302,-311 302,-8 8,-8"/>
<text text-anchor="middle" x="155" y="-299" font-family="Helvetica,sans-Serif" font-size="10.00">include</text>
</a>
</g>
</g>
<g id="clust2" class="cluster"><title>clusterdir_bccf9de9576cfd43a752576f669ec707</title>
<g id="a_clust2"><a xlink:href="dir_bccf9de9576cfd43a752576f669ec707.html" target="_top">
<polygon fill="#eeeeff" stroke="black" points="16,-16 16,-284 294,-284 294,-16 16,-16"/>
</a>
</g>
</g>
<!-- dir_bccf9de9576cfd43a752576f669ec707 -->
<g id="node1" class="node"><title>dir_bccf9de9576cfd43a752576f669ec707</title>
<text text-anchor="middle" x="178" y="-255.5" font-family="Helvetica,sans-Serif" font-size="10.00">Small</text>
</g>
<!-- dir_93a9b13fd1faea679b8404f52a1184a5 -->
<g id="node4" class="node"><title>dir_93a9b13fd1faea679b8404f52a1184a5</title>
<g id="a_node4"><a xlink:href="dir_93a9b13fd1faea679b8404f52a1184a5.html" target="_top" xlink:title="GameObjects">
<polygon fill="white" stroke="black" points="285.5,-132 208.5,-132 208.5,-96 285.5,-96 285.5,-132"/>
<text text-anchor="middle" x="247" y="-111.5" font-family="Helvetica,sans-Serif" font-size="10.00">GameObjects</text>
</a>
</g>
</g>
<!-- dir_bccf9de9576cfd43a752576f669ec707&#45;&gt;dir_93a9b13fd1faea679b8404f52a1184a5 -->
<g id="edge1" class="edge"><title>dir_bccf9de9576cfd43a752576f669ec707&#45;&gt;dir_93a9b13fd1faea679b8404f52a1184a5</title>
<path fill="none" stroke="black" d="M204.467,-239.994C216.447,-230.835 229.564,-218.446 237,-204 246.816,-184.932 248.957,-160.575 248.845,-142.164"/>
<polygon fill="black" stroke="black" points="252.341,-141.992 248.559,-132.096 245.344,-142.191 252.341,-141.992"/>
<g id="a_edge1&#45;headlabel"><a xlink:href="dir_000001_000004.html" target="_top" xlink:title="2">
<text text-anchor="middle" x="255.281" y="-143.005" font-family="Helvetica,sans-Serif" font-size="10.00">2</text>
</a>
</g>
</g>
<!-- dir_08a504847c5d5d11f9a6f924aa83786a -->
<g id="node6" class="node"><title>dir_08a504847c5d5d11f9a6f924aa83786a</title>
<g id="a_node6"><a xlink:href="dir_08a504847c5d5d11f9a6f924aa83786a.html" target="_top" xlink:title="Scenes">
<polygon fill="white" stroke="black" points="117,-204 63,-204 63,-168 117,-168 117,-204"/>
<text text-anchor="middle" x="90" y="-183.5" font-family="Helvetica,sans-Serif" font-size="10.00">Scenes</text>
</a>
</g>
</g>
<!-- dir_bccf9de9576cfd43a752576f669ec707&#45;&gt;dir_08a504847c5d5d11f9a6f924aa83786a -->
<g id="edge2" class="edge"><title>dir_bccf9de9576cfd43a752576f669ec707&#45;&gt;dir_08a504847c5d5d11f9a6f924aa83786a</title>
<path fill="none" stroke="black" d="M156.247,-239.697C145.164,-230.881 131.526,-220.032 119.51,-210.474"/>
<polygon fill="black" stroke="black" points="121.507,-207.59 111.503,-204.104 117.15,-213.069 121.507,-207.59"/>
<g id="a_edge2&#45;headlabel"><a xlink:href="dir_000001_000006.html" target="_top" xlink:title="2">
<text text-anchor="middle" x="126.088" y="-205.106" font-family="Helvetica,sans-Serif" font-size="10.00">2</text>
</a>
</g>
</g>
<!-- dir_ee49f823e1d6d52dedd8522691ce7cb9 -->
<g id="node8" class="node"><title>dir_ee49f823e1d6d52dedd8522691ce7cb9</title>
<g id="a_node8"><a xlink:href="dir_ee49f823e1d6d52dedd8522691ce7cb9.html" target="_top" xlink:title="System">
<polygon fill="white" stroke="black" points="228,-204 174,-204 174,-168 228,-168 228,-204"/>
<text text-anchor="middle" x="201" y="-183.5" font-family="Helvetica,sans-Serif" font-size="10.00">System</text>
</a>
</g>
</g>
<!-- dir_bccf9de9576cfd43a752576f669ec707&#45;&gt;dir_ee49f823e1d6d52dedd8522691ce7cb9 -->
<g id="edge4" class="edge"><title>dir_bccf9de9576cfd43a752576f669ec707&#45;&gt;dir_ee49f823e1d6d52dedd8522691ce7cb9</title>
<path fill="none" stroke="black" d="M183.685,-239.697C186.248,-231.898 189.333,-222.509 192.185,-213.829"/>
<polygon fill="black" stroke="black" points="195.584,-214.697 195.38,-204.104 188.933,-212.512 195.584,-214.697"/>
<g id="a_edge4&#45;headlabel"><a xlink:href="dir_000001_000008.html" target="_top" xlink:title="3">
<text text-anchor="middle" x="197.159" y="-216.498" font-family="Helvetica,sans-Serif" font-size="10.00">3</text>
</a>
</g>
</g>
<!-- dir_db89475db93d8c9ea59250fb4006acd2 -->
<g id="node9" class="node"><title>dir_db89475db93d8c9ea59250fb4006acd2</title>
<g id="a_node9"><a xlink:href="dir_db89475db93d8c9ea59250fb4006acd2.html" target="_top" xlink:title="Widgets">
<polygon fill="white" stroke="black" points="190,-132 136,-132 136,-96 190,-96 190,-132"/>
<text text-anchor="middle" x="163" y="-111.5" font-family="Helvetica,sans-Serif" font-size="10.00">Widgets</text>
</a>
</g>
</g>
<!-- dir_bccf9de9576cfd43a752576f669ec707&#45;&gt;dir_db89475db93d8c9ea59250fb4006acd2 -->
<g id="edge3" class="edge"><title>dir_bccf9de9576cfd43a752576f669ec707&#45;&gt;dir_db89475db93d8c9ea59250fb4006acd2</title>
<path fill="none" stroke="black" d="M172.826,-239.995C169.942,-229.687 166.615,-216.21 165,-204 162.281,-183.445 161.863,-159.992 162.08,-142.323"/>
<polygon fill="black" stroke="black" points="165.583,-142.215 162.283,-132.147 158.584,-142.075 165.583,-142.215"/>
<g id="a_edge3&#45;headlabel"><a xlink:href="dir_000001_000009.html" target="_top" xlink:title="7">
<text text-anchor="middle" x="168.35" y="-143.365" font-family="Helvetica,sans-Serif" font-size="10.00">7</text>
</a>
</g>
</g>
<!-- dir_28fb12f25184f93ef1999017e259726d -->
<g id="node2" class="node"><title>dir_28fb12f25184f93ef1999017e259726d</title>
<g id="a_node2"><a xlink:href="dir_28fb12f25184f93ef1999017e259726d.html" target="_top" xlink:title="Core">
<polygon fill="white" stroke="black" points="98,-132 44,-132 44,-96 98,-96 98,-132"/>
<text text-anchor="middle" x="71" y="-111.5" font-family="Helvetica,sans-Serif" font-size="10.00">Core</text>
</a>
</g>
</g>
<!-- dir_7f4e8556346902d5437514d20633b51f -->
<g id="node3" class="node"><title>dir_7f4e8556346902d5437514d20633b51f</title>
<g id="a_node3"><a xlink:href="dir_7f4e8556346902d5437514d20633b51f.html" target="_top" xlink:title="Debug">
<polygon fill="white" stroke="black" points="152,-60 98,-60 98,-24 152,-24 152,-60"/>
<text text-anchor="middle" x="125" y="-39.5" font-family="Helvetica,sans-Serif" font-size="10.00">Debug</text>
</a>
</g>
</g>
<!-- dir_28fb12f25184f93ef1999017e259726d&#45;&gt;dir_7f4e8556346902d5437514d20633b51f -->
<g id="edge11" class="edge"><title>dir_28fb12f25184f93ef1999017e259726d&#45;&gt;dir_7f4e8556346902d5437514d20633b51f</title>
<path fill="none" stroke="black" d="M84.3483,-95.6966C90.7568,-87.3893 98.5577,-77.2771 105.606,-68.1407"/>
<polygon fill="black" stroke="black" points="108.468,-70.16 111.805,-60.1043 102.926,-65.8844 108.468,-70.16"/>
<g id="a_edge11&#45;headlabel"><a xlink:href="dir_000002_000003.html" target="_top" xlink:title="1">
<text text-anchor="middle" x="108.521" y="-72.2404" font-family="Helvetica,sans-Serif" font-size="10.00">1</text>
</a>
</g>
</g>
<!-- dir_1e32cf0ae7c9740a651d31fd7036c32f -->
<g id="node5" class="node"><title>dir_1e32cf0ae7c9740a651d31fd7036c32f</title>
<g id="a_node5"><a xlink:href="dir_1e32cf0ae7c9740a651d31fd7036c32f.html" target="_top" xlink:title="Graphics">
<polygon fill="white" stroke="black" points="226,-60 170,-60 170,-24 226,-24 226,-60"/>
<text text-anchor="middle" x="198" y="-39.5" font-family="Helvetica,sans-Serif" font-size="10.00">Graphics</text>
</a>
</g>
</g>
<!-- dir_28fb12f25184f93ef1999017e259726d&#45;&gt;dir_1e32cf0ae7c9740a651d31fd7036c32f -->
<g id="edge12" class="edge"><title>dir_28fb12f25184f93ef1999017e259726d&#45;&gt;dir_1e32cf0ae7c9740a651d31fd7036c32f</title>
<path fill="none" stroke="black" d="M98.2447,-97.9832C116.574,-87.8805 140.964,-74.4371 161.039,-63.3722"/>
<polygon fill="black" stroke="black" points="162.853,-66.3687 169.922,-58.4762 159.474,-60.2382 162.853,-66.3687"/>
<g id="a_edge12&#45;headlabel"><a xlink:href="dir_000002_000005.html" target="_top" xlink:title="1">
<text text-anchor="middle" x="161.076" y="-68.0903" font-family="Helvetica,sans-Serif" font-size="10.00">1</text>
</a>
</g>
</g>
<!-- dir_83b6773e5da43a082e3b0b578f795f5d -->
<g id="node7" class="node"><title>dir_83b6773e5da43a082e3b0b578f795f5d</title>
<g id="a_node7"><a xlink:href="dir_83b6773e5da43a082e3b0b578f795f5d.html" target="_top" xlink:title="Scripting">
<polygon fill="white" stroke="black" points="79.5,-60 24.5,-60 24.5,-24 79.5,-24 79.5,-60"/>
<text text-anchor="middle" x="52" y="-39.5" font-family="Helvetica,sans-Serif" font-size="10.00">Scripting</text>
</a>
</g>
</g>
<!-- dir_28fb12f25184f93ef1999017e259726d&#45;&gt;dir_83b6773e5da43a082e3b0b578f795f5d -->
<g id="edge10" class="edge"><title>dir_28fb12f25184f93ef1999017e259726d&#45;&gt;dir_83b6773e5da43a082e3b0b578f795f5d</title>
<path fill="none" stroke="black" d="M66.3034,-95.6966C64.1866,-87.8979 61.638,-78.5085 59.2822,-69.8292"/>
<polygon fill="black" stroke="black" points="62.64,-68.8383 56.6426,-60.1043 55.8844,-70.672 62.64,-68.8383"/>
<g id="a_edge10&#45;headlabel"><a xlink:href="dir_000002_000007.html" target="_top" xlink:title="4">
<text text-anchor="middle" x="66.3216" y="-69.0637" font-family="Helvetica,sans-Serif" font-size="10.00">4</text>
</a>
</g>
</g>
<!-- dir_93a9b13fd1faea679b8404f52a1184a5&#45;&gt;dir_1e32cf0ae7c9740a651d31fd7036c32f -->
<g id="edge5" class="edge"><title>dir_93a9b13fd1faea679b8404f52a1184a5&#45;&gt;dir_1e32cf0ae7c9740a651d31fd7036c32f</title>
<path fill="none" stroke="black" d="M234.888,-95.6966C229.132,-87.4741 222.138,-77.4832 215.794,-68.4207"/>
<polygon fill="black" stroke="black" points="218.575,-66.2895 209.973,-60.1043 212.84,-70.3038 218.575,-66.2895"/>
<g id="a_edge5&#45;headlabel"><a xlink:href="dir_000004_000005.html" target="_top" xlink:title="1">
<text text-anchor="middle" x="222.962" y="-65.1061" font-family="Helvetica,sans-Serif" font-size="10.00">1</text>
</a>
</g>
</g>
<!-- dir_08a504847c5d5d11f9a6f924aa83786a&#45;&gt;dir_28fb12f25184f93ef1999017e259726d -->
<g id="edge8" class="edge"><title>dir_08a504847c5d5d11f9a6f924aa83786a&#45;&gt;dir_28fb12f25184f93ef1999017e259726d</title>
<path fill="none" stroke="black" d="M85.3034,-167.697C83.1866,-159.898 80.638,-150.509 78.2822,-141.829"/>
<polygon fill="black" stroke="black" points="81.64,-140.838 75.6426,-132.104 74.8844,-142.672 81.64,-140.838"/>
<g id="a_edge8&#45;headlabel"><a xlink:href="dir_000006_000002.html" target="_top" xlink:title="2">
<text text-anchor="middle" x="85.3216" y="-141.064" font-family="Helvetica,sans-Serif" font-size="10.00">2</text>
</a>
</g>
</g>
<!-- dir_08a504847c5d5d11f9a6f924aa83786a&#45;&gt;dir_1e32cf0ae7c9740a651d31fd7036c32f -->
<g id="edge7" class="edge"><title>dir_08a504847c5d5d11f9a6f924aa83786a&#45;&gt;dir_1e32cf0ae7c9740a651d31fd7036c32f</title>
<path fill="none" stroke="black" d="M95.9305,-167.761C103.856,-145.327 117.951,-107.617 127,-96 136.356,-83.9893 149.09,-73.3434 161.192,-64.8024"/>
<polygon fill="black" stroke="black" points="163.507,-67.4628 169.835,-58.9658 159.589,-61.6617 163.507,-67.4628"/>
<g id="a_edge7&#45;headlabel"><a xlink:href="dir_000006_000005.html" target="_top" xlink:title="1">
<text text-anchor="middle" x="162.117" y="-69.3275" font-family="Helvetica,sans-Serif" font-size="10.00">1</text>
</a>
</g>
</g>
<!-- dir_08a504847c5d5d11f9a6f924aa83786a&#45;&gt;dir_83b6773e5da43a082e3b0b578f795f5d -->
<g id="edge6" class="edge"><title>dir_08a504847c5d5d11f9a6f924aa83786a&#45;&gt;dir_83b6773e5da43a082e3b0b578f795f5d</title>
<path fill="none" stroke="black" d="M64.6205,-167.955C53.2853,-158.786 41.1216,-146.4 35,-132 26.4841,-111.968 32.1413,-87.5881 39.1377,-69.414"/>
<polygon fill="black" stroke="black" points="42.4366,-70.5979 43.0809,-60.0226 35.9824,-67.8879 42.4366,-70.5979"/>
<g id="a_edge6&#45;headlabel"><a xlink:href="dir_000006_000007.html" target="_top" xlink:title="1">
<text text-anchor="middle" x="43.6629" y="-72.5113" font-family="Helvetica,sans-Serif" font-size="10.00">1</text>
</a>
</g>
</g>
<!-- dir_db89475db93d8c9ea59250fb4006acd2&#45;&gt;dir_1e32cf0ae7c9740a651d31fd7036c32f -->
<g id="edge9" class="edge"><title>dir_db89475db93d8c9ea59250fb4006acd2&#45;&gt;dir_1e32cf0ae7c9740a651d31fd7036c32f</title>
<path fill="none" stroke="black" d="M171.652,-95.6966C175.636,-87.7284 180.45,-78.0995 184.868,-69.2641"/>
<polygon fill="black" stroke="black" points="188.106,-70.6139 189.448,-60.1043 181.845,-67.4833 188.106,-70.6139"/>
<g id="a_edge9&#45;headlabel"><a xlink:href="dir_000009_000005.html" target="_top" xlink:title="1">
<text text-anchor="middle" x="189.038" y="-72.5987" font-family="Helvetica,sans-Serif" font-size="10.00">1</text>
</a>
</g>
</g>
</g>
</svg>
