<?xml version="1.0" encoding="UTF-8" standalone="no"?>
<!DOCTYPE svg PUBLIC "-//W3C//DTD SVG 1.1//EN"
 "http://www.w3.org/Graphics/SVG/1.1/DTD/svg11.dtd">
<!-- Generated by graphviz version 2.38.0 (20140413.2041)
 -->
<!-- Title: include/Small/Scenes Pages: 1 -->
<svg width="147pt" height="223pt"
 viewBox="0.00 0.00 146.50 223.00" xmlns="http://www.w3.org/2000/svg" xmlns:xlink="http://www.w3.org/1999/xlink">
<g id="graph0" class="graph" transform="scale(1 1) rotate(0) translate(4 219)">
<title>include/Small/Scenes</title>
<polygon fill="white" stroke="none" points="-4,4 -4,-219 142.5,-219 142.5,4 -4,4"/>
<g id="clust1" class="cluster"><title>clusterdir_bccf9de9576cfd43a752576f669ec707</title>
<g id="a_clust1"><a xlink:href="dir_bccf9de9576cfd43a752576f669ec707.html" target="_top" xlink:title="Small">
<polygon fill="#ddddee" stroke="black" points="29.5,-136 29.5,-207 99.5,-207 99.5,-136 29.5,-136"/>
<text text-anchor="middle" x="64.5" y="-195" font-family="Helvetica,sans-Serif" font-size="10.00">Small</text>
</a>
</g>
</g>
<!-- dir_08a504847c5d5d11f9a6f924aa83786a -->
<g id="node1" class="node"><title>dir_08a504847c5d5d11f9a6f924aa83786a</title>
<g id="a_node1"><a xlink:href="dir_08a504847c5d5d11f9a6f924aa83786a.html" target="_top" xlink:title="Scenes">
<polygon fill="#eeeeff" stroke="black" points="91.5,-180 37.5,-180 37.5,-144 91.5,-144 91.5,-180"/>
<text text-anchor="middle" x="64.5" y="-159.5" font-family="Helvetica,sans-Serif" font-size="10.00">Scenes</text>
</a>
</g>
</g>
<!-- dir_83b6773e5da43a082e3b0b578f795f5d -->
<g id="node2" class="node"><title>dir_83b6773e5da43a082e3b0b578f795f5d</title>
<g id="a_node2"><a xlink:href="dir_83b6773e5da43a082e3b0b578f795f5d.html" target="_top" xlink:title="Scripting">
<polygon fill="none" stroke="black" points="55,-36 0,-36 0,-0 55,-0 55,-36"/>
<text text-anchor="middle" x="27.5" y="-15.5" font-family="Helvetica,sans-Serif" font-size="10.00">Scripting</text>
</a>
</g>
</g>
<!-- dir_08a504847c5d5d11f9a6f924aa83786a&#45;&gt;dir_83b6773e5da43a082e3b0b578f795f5d -->
<g id="edge1" class="edge"><title>dir_08a504847c5d5d11f9a6f924aa83786a&#45;&gt;dir_83b6773e5da43a082e3b0b578f795f5d</title>
<path fill="none" stroke="black" d="M48.9491,-143.755C41.2034,-134.007 32.6281,-121.161 28.5,-108 22.2279,-88.0039 22.3207,-64.2161 23.7948,-46.266"/>
<polygon fill="black" stroke="black" points="27.29,-46.4897 24.8155,-36.1879 20.3256,-45.7843 27.29,-46.4897"/>
<g id="a_edge1&#45;headlabel"><a xlink:href="dir_000006_000007.html" target="_top" xlink:title="1">
<text text-anchor="middle" x="29.7527" y="-47.852" font-family="Helvetica,sans-Serif" font-size="10.00">1</text>
</a>
</g>
</g>
<!-- dir_1e32cf0ae7c9740a651d31fd7036c32f -->
<g id="node3" class="node"><title>dir_1e32cf0ae7c9740a651d31fd7036c32f</title>
<g id="a_node3"><a xlink:href="dir_1e32cf0ae7c9740a651d31fd7036c32f.html" target="_top" xlink:title="Graphics">
<polygon fill="none" stroke="black" points="138.5,-36 82.5,-36 82.5,-0 138.5,-0 138.5,-36"/>
<text text-anchor="middle" x="110.5" y="-15.5" font-family="Helvetica,sans-Serif" font-size="10.00">Graphics</text>
</a>
</g>
</g>
<!-- dir_08a504847c5d5d11f9a6f924aa83786a&#45;&gt;dir_1e32cf0ae7c9740a651d31fd7036c32f -->
<g id="edge2" class="edge"><title>dir_08a504847c5d5d11f9a6f924aa83786a&#45;&gt;dir_1e32cf0ae7c9740a651d31fd7036c32f</title>
<path fill="none" stroke="black" d="M79.527,-143.576C87.1193,-133.775 95.7151,-120.936 100.5,-108 107.815,-88.2223 110.186,-64.4215 110.799,-46.4109"/>
<polygon fill="black" stroke="black" points="114.3,-46.3532 110.981,-36.2918 107.301,-46.2272 114.3,-46.3532"/>
<g id="a_edge2&#45;headlabel"><a xlink:href="dir_000006_000005.html" target="_top" xlink:title="1">
<text text-anchor="middle" x="117.074" y="-47.4982" font-family="Helvetica,sans-Serif" font-size="10.00">1</text>
</a>
</g>
</g>
<!-- dir_28fb12f25184f93ef1999017e259726d -->
<g id="node4" class="node"><title>dir_28fb12f25184f93ef1999017e259726d</title>
<g id="a_node4"><a xlink:href="dir_28fb12f25184f93ef1999017e259726d.html" target="_top" xlink:title="Core">
<polygon fill="none" stroke="black" points="91.5,-108 37.5,-108 37.5,-72 91.5,-72 91.5,-108"/>
<text text-anchor="middle" x="64.5" y="-87.5" font-family="Helvetica,sans-Serif" font-size="10.00">Core</text>
</a>
</g>
</g>
<!-- dir_08a504847c5d5d11f9a6f924aa83786a&#45;&gt;dir_28fb12f25184f93ef1999017e259726d -->
<g id="edge3" class="edge"><title>dir_08a504847c5d5d11f9a6f924aa83786a&#45;&gt;dir_28fb12f25184f93ef1999017e259726d</title>
<path fill="none" stroke="black" d="M64.5,-143.697C64.5,-135.983 64.5,-126.712 64.5,-118.112"/>
<polygon fill="black" stroke="black" points="68.0001,-118.104 64.5,-108.104 61.0001,-118.104 68.0001,-118.104"/>
<g id="a_edge3&#45;headlabel"><a xlink:href="dir_000006_000002.html" target="_top" xlink:title="2">
<text text-anchor="middle" x="70.8393" y="-119.199" font-family="Helvetica,sans-Serif" font-size="10.00">2</text>
</a>
</g>
</g>
<!-- dir_28fb12f25184f93ef1999017e259726d&#45;&gt;dir_83b6773e5da43a082e3b0b578f795f5d -->
<g id="edge4" class="edge"><title>dir_28fb12f25184f93ef1999017e259726d&#45;&gt;dir_83b6773e5da43a082e3b0b578f795f5d</title>
<path fill="none" stroke="black" d="M55.3539,-71.6966C51.0974,-63.6436 45.9442,-53.8945 41.2336,-44.9824"/>
<polygon fill="black" stroke="black" points="44.3083,-43.3097 36.5409,-36.1043 38.1197,-46.5809 44.3083,-43.3097"/>
<g id="a_edge4&#45;headlabel"><a xlink:href="dir_000002_000007.html" target="_top" xlink:title="4">
<text text-anchor="middle" x="48.4982" y="-42.6609" font-family="Helvetica,sans-Serif" font-size="10.00">4</text>
</a>
</g>
</g>
<!-- dir_28fb12f25184f93ef1999017e259726d&#45;&gt;dir_1e32cf0ae7c9740a651d31fd7036c32f -->
<g id="edge5" class="edge"><title>dir_28fb12f25184f93ef1999017e259726d&#45;&gt;dir_1e32cf0ae7c9740a651d31fd7036c32f</title>
<path fill="none" stroke="black" d="M75.8708,-71.6966C81.2185,-63.5589 87.7043,-53.689 93.6106,-44.7013"/>
<polygon fill="black" stroke="black" points="96.6932,-46.3835 99.26,-36.1043 90.8432,-42.5393 96.6932,-46.3835"/>
<g id="a_edge5&#45;headlabel"><a xlink:href="dir_000002_000005.html" target="_top" xlink:title="1">
<text text-anchor="middle" x="97.0919" y="-48.4468" font-family="Helvetica,sans-Serif" font-size="10.00">1</text>
</a>
</g>
</g>
</g>
</svg>
