<?xml version="1.0" encoding="UTF-8" standalone="no"?>
<!DOCTYPE svg PUBLIC "-//W3C//DTD SVG 1.1//EN"
 "http://www.w3.org/Graphics/SVG/1.1/DTD/svg11.dtd">
<!-- Generated by graphviz version 2.38.0 (20140413.2041)
 -->
<!-- Title: include/Small/GameObjects Pages: 1 -->
<svg width="118pt" height="151pt"
 viewBox="0.00 0.00 118.00 151.00" xmlns="http://www.w3.org/2000/svg" xmlns:xlink="http://www.w3.org/1999/xlink">
<g id="graph0" class="graph" transform="scale(1 1) rotate(0) translate(4 147)">
<title>include/Small/GameObjects</title>
<polygon fill="white" stroke="none" points="-4,4 -4,-147 114,-147 114,4 -4,4"/>
<g id="clust1" class="cluster"><title>clusterdir_bccf9de9576cfd43a752576f669ec707</title>
<g id="a_clust1"><a xlink:href="dir_bccf9de9576cfd43a752576f669ec707.html" target="_top" xlink:title="Small">
<polygon fill="#ddddee" stroke="black" points="8,-64 8,-135 102,-135 102,-64 8,-64"/>
<text text-anchor="middle" x="55" y="-123" font-family="Helvetica,sans-Serif" font-size="10.00">Small</text>
</a>
</g>
</g>
<!-- dir_93a9b13fd1faea679b8404f52a1184a5 -->
<g id="node1" class="node"><title>dir_93a9b13fd1faea679b8404f52a1184a5</title>
<g id="a_node1"><a xlink:href="dir_93a9b13fd1faea679b8404f52a1184a5.html" target="_top" xlink:title="GameObjects">
<polygon fill="#eeeeff" stroke="black" points="93.5,-108 16.5,-108 16.5,-72 93.5,-72 93.5,-108"/>
<text text-anchor="middle" x="55" y="-87.5" font-family="Helvetica,sans-Serif" font-size="10.00">GameObjects</text>
</a>
</g>
</g>
<!-- dir_1e32cf0ae7c9740a651d31fd7036c32f -->
<g id="node2" class="node"><title>dir_1e32cf0ae7c9740a651d31fd7036c32f</title>
<g id="a_node2"><a xlink:href="dir_1e32cf0ae7c9740a651d31fd7036c32f.html" target="_top" xlink:title="Graphics">
<polygon fill="none" stroke="black" points="83,-36 27,-36 27,-0 83,-0 83,-36"/>
<text text-anchor="middle" x="55" y="-15.5" font-family="Helvetica,sans-Serif" font-size="10.00">Graphics</text>
</a>
</g>
</g>
<!-- dir_93a9b13fd1faea679b8404f52a1184a5&#45;&gt;dir_1e32cf0ae7c9740a651d31fd7036c32f -->
<g id="edge1" class="edge"><title>dir_93a9b13fd1faea679b8404f52a1184a5&#45;&gt;dir_1e32cf0ae7c9740a651d31fd7036c32f</title>
<path fill="none" stroke="black" d="M55,-71.6966C55,-63.9827 55,-54.7125 55,-46.1124"/>
<polygon fill="black" stroke="black" points="58.5001,-46.1043 55,-36.1043 51.5001,-46.1044 58.5001,-46.1043"/>
<g id="a_edge1&#45;headlabel"><a xlink:href="dir_000004_000005.html" target="_top" xlink:title="1">
<text text-anchor="middle" x="61.3393" y="-47.199" font-family="Helvetica,sans-Serif" font-size="10.00">1</text>
</a>
</g>
</g>
</g>
</svg>
