<?xml version="1.0" encoding="UTF-8" standalone="no"?>
<!DOCTYPE svg PUBLIC "-//W3C//DTD SVG 1.1//EN"
 "http://www.w3.org/Graphics/SVG/1.1/DTD/svg11.dtd">
<!-- Generated by graphviz version 2.38.0 (20140413.2041)
 -->
<!-- Title: Graphical Class Hierarchy Pages: 1 -->
<svg width="268pt" height="66pt"
 viewBox="0.00 0.00 268.00 66.00" xmlns="http://www.w3.org/2000/svg" xmlns:xlink="http://www.w3.org/1999/xlink">
<g id="graph0" class="graph" transform="scale(1 1) rotate(0) translate(4 62)">
<title>Graphical Class Hierarchy</title>
<polygon fill="white" stroke="none" points="-4,4 -4,-62 264,-62 264,4 -4,4"/>
<!-- Node1 -->
<g id="node1" class="node"><title>Node1</title>
<polygon fill="white" stroke="#bfbfbf" points="10.5,-38.5 10.5,-57.5 66.5,-57.5 66.5,-38.5 10.5,-38.5"/>
<text text-anchor="middle" x="38.5" y="-45.5" font-family="Helvetica,sans-Serif" font-size="10.00">Drawable</text>
</g>
<!-- Node2 -->
<g id="node2" class="node"><title>Node2</title>
<g id="a_node2"><a xlink:href="d4/db6/classsgl_1_1Graphics_1_1AnimatedSprite.html" target="_top" xlink:title="Animated sprite based on the animation class. ">
<polygon fill="white" stroke="black" points="113,-38.5 113,-57.5 260,-57.5 260,-38.5 113,-38.5"/>
<text text-anchor="middle" x="186.5" y="-45.5" font-family="Helvetica,sans-Serif" font-size="10.00">sgl::Graphics::AnimatedSprite</text>
</a>
</g>
</g>
<!-- Node1&#45;&gt;Node2 -->
<g id="edge1" class="edge"><title>Node1&#45;&gt;Node2</title>
<path fill="none" stroke="midnightblue" d="M76.7495,-48C87.8321,-48 100.374,-48 112.901,-48"/>
<polygon fill="midnightblue" stroke="midnightblue" points="76.6194,-44.5001 66.6193,-48 76.6193,-51.5001 76.6194,-44.5001"/>
</g>
<!-- Node3 -->
<g id="node3" class="node"><title>Node3</title>
<g id="a_node3"><a xlink:href="dc/d99/classsgl_1_1Graphics_1_1Tilemap.html" target="_top" xlink:title="A tilemap wrapper. ">
<polygon fill="white" stroke="black" points="129.5,-0.5 129.5,-19.5 243.5,-19.5 243.5,-0.5 129.5,-0.5"/>
<text text-anchor="middle" x="186.5" y="-7.5" font-family="Helvetica,sans-Serif" font-size="10.00">sgl::Graphics::Tilemap</text>
</a>
</g>
</g>
<!-- Node1&#45;&gt;Node3 -->
<g id="edge2" class="edge"><title>Node1&#45;&gt;Node3</title>
<path fill="none" stroke="midnightblue" d="M76.3581,-38.4068C98.5615,-32.6278 126.731,-25.296 148.89,-19.5287"/>
<polygon fill="midnightblue" stroke="midnightblue" points="75.4153,-35.0355 66.6193,-40.9415 77.1785,-41.8098 75.4153,-35.0355"/>
</g>
<!-- Node4 -->
<g id="node4" class="node"><title>Node4</title>
<polygon fill="white" stroke="#bfbfbf" points="0,-0.5 0,-19.5 77,-19.5 77,-0.5 0,-0.5"/>
<text text-anchor="middle" x="38.5" y="-7.5" font-family="Helvetica,sans-Serif" font-size="10.00">Transformable</text>
</g>
<!-- Node4&#45;&gt;Node2 -->
<g id="edge3" class="edge"><title>Node4&#45;&gt;Node2</title>
<path fill="none" stroke="midnightblue" d="M86.036,-22.1121C106.37,-27.4044 129.871,-33.5213 148.923,-38.4799"/>
<polygon fill="midnightblue" stroke="midnightblue" points="86.9012,-18.7207 76.342,-19.589 85.1379,-25.4951 86.9012,-18.7207"/>
</g>
<!-- Node4&#45;&gt;Node3 -->
<g id="edge4" class="edge"><title>Node4&#45;&gt;Node3</title>
<path fill="none" stroke="midnightblue" d="M87.1071,-10C100.578,-10 115.367,-10 129.294,-10"/>
<polygon fill="midnightblue" stroke="midnightblue" points="87.0987,-6.5001 77.0986,-10 87.0986,-13.5001 87.0987,-6.5001"/>
</g>
</g>
</svg>
