<?xml version="1.0" encoding="UTF-8" standalone="no"?>
<!DOCTYPE svg PUBLIC "-//W3C//DTD SVG 1.1//EN"
 "http://www.w3.org/Graphics/SVG/1.1/DTD/svg11.dtd">
<!-- Generated by graphviz version 2.49.0 (20210828.1703)
 -->
<!-- Title: sgl::Graphics::AnimatedSprite Pages: 1 -->
<svg width="330pt" height="95pt"
 viewBox="0.00 0.00 330.00 95.00" xmlns="http://www.w3.org/2000/svg" xmlns:xlink="http://www.w3.org/1999/xlink">
<g id="graph0" class="graph" transform="scale(1 1) rotate(0) translate(4 91)">
<title>sgl::Graphics::AnimatedSprite</title>
<polygon fill="white" stroke="transparent" points="-4,4 -4,-91 326,-91 326,4 -4,4"/>
<!-- Node1 -->
<g id="node1" class="node">
<title>Node1</title>
<g id="a_node1"><a xlink:title="Animated sprite based on the animation class.">
<polygon fill="#bfbfbf" stroke="black" points="60.5,-0.5 60.5,-19.5 207.5,-19.5 207.5,-0.5 60.5,-0.5"/>
<text text-anchor="middle" x="134" y="-7.5" font-family="Helvetica,sans-Serif" font-size="10.00">sgl::Graphics::AnimatedSprite</text>
</a>
</g>
</g>
<!-- Node2 -->
<g id="node2" class="node">
<title>Node2</title>
<g id="a_node2"><a xlink:title=" ">
<polygon fill="white" stroke="#bfbfbf" points="0,-67.5 0,-86.5 70,-86.5 70,-67.5 0,-67.5"/>
<text text-anchor="middle" x="35" y="-74.5" font-family="Helvetica,sans-Serif" font-size="10.00">sf::Drawable</text>
</a>
</g>
</g>
<!-- Node2&#45;&gt;Node1 -->
<g id="edge1" class="edge">
<title>Node2&#45;&gt;Node1</title>
<path fill="none" stroke="midnightblue" d="M56.94,-61.59C76.53,-48.74 104.56,-30.33 120.86,-19.63"/>
<polygon fill="midnightblue" stroke="midnightblue" points="54.79,-58.82 48.35,-67.23 58.63,-64.67 54.79,-58.82"/>
</g>
<!-- Node3 -->
<g id="node3" class="node">
<title>Node3</title>
<g id="a_node3"><a xlink:title=" ">
<polygon fill="white" stroke="#bfbfbf" points="88.5,-67.5 88.5,-86.5 179.5,-86.5 179.5,-67.5 88.5,-67.5"/>
<text text-anchor="middle" x="134" y="-74.5" font-family="Helvetica,sans-Serif" font-size="10.00">sf::Transformable</text>
</a>
</g>
</g>
<!-- Node3&#45;&gt;Node1 -->
<g id="edge2" class="edge">
<title>Node3&#45;&gt;Node1</title>
<path fill="none" stroke="midnightblue" d="M134,-57.04C134,-44.67 134,-29.12 134,-19.63"/>
<polygon fill="midnightblue" stroke="midnightblue" points="130.5,-57.23 134,-67.23 137.5,-57.23 130.5,-57.23"/>
</g>
<!-- Node4 -->
<g id="node4" class="node">
<title>Node4</title>
<g id="a_node4"><a xlink:href="../../d0/db1/classsgl_1_1Graphics_1_1Animation.html" target="_top" xlink:title="Handling animated sprites.">
<polygon fill="white" stroke="black" points="198,-67.5 198,-86.5 322,-86.5 322,-67.5 198,-67.5"/>
<text text-anchor="middle" x="260" y="-74.5" font-family="Helvetica,sans-Serif" font-size="10.00">sgl::Graphics::Animation</text>
</a>
</g>
</g>
<!-- Node4&#45;&gt;Node1 -->
<g id="edge3" class="edge">
<title>Node4&#45;&gt;Node1</title>
<path fill="none" stroke="#9a32cd" stroke-dasharray="5,2" d="M234.36,-62.77C209.41,-49.9 172.2,-30.71 150.8,-19.67"/>
<polygon fill="#9a32cd" stroke="#9a32cd" points="232.78,-65.89 243.27,-67.37 235.99,-59.67 232.78,-65.89"/>
<text text-anchor="middle" x="233.5" y="-41" font-family="Helvetica,sans-Serif" font-size="10.00"> m_animation</text>
</g>
</g>
</svg>
