<?xml version="1.0" encoding="UTF-8" standalone="no"?>
<!DOCTYPE svg PUBLIC "-//W3C//DTD SVG 1.1//EN"
 "http://www.w3.org/Graphics/SVG/1.1/DTD/svg11.dtd">
<!-- Generated by graphviz version 2.49.0 (20210828.1703)
 -->
<!-- Title: C:/Users/folae/Documents/Code/Big&#45;Projects/ScriptWizards/SmallGameLibrary/include/Small/Widgets.hpp Pages: 1 -->
<svg width="1122pt" height="285pt"
 viewBox="0.00 0.00 1121.50 285.00" xmlns="http://www.w3.org/2000/svg" xmlns:xlink="http://www.w3.org/1999/xlink">
<g id="graph0" class="graph" transform="scale(1 1) rotate(0) translate(4 281)">
<title>C:/Users/folae/Documents/Code/Big&#45;Projects/ScriptWizards/SmallGameLibrary/include/Small/Widgets.hpp</title>
<polygon fill="white" stroke="transparent" points="-4,4 -4,-281 1117.5,-281 1117.5,4 -4,4"/>
<!-- Node1 -->
<g id="node1" class="node">
<title>Node1</title>
<g id="a_node1"><a xlink:title="Include all the files from the Widgets folder.">
<polygon fill="#bfbfbf" stroke="black" points="399,-224.5 399,-276.5 562,-276.5 562,-224.5 399,-224.5"/>
<text text-anchor="start" x="407" y="-264.5" font-family="Helvetica,sans-Serif" font-size="10.00">C:/Users/folae/Documents</text>
<text text-anchor="start" x="407" y="-253.5" font-family="Helvetica,sans-Serif" font-size="10.00">/Code/Big&#45;Projects/ScriptWizards</text>
<text text-anchor="start" x="407" y="-242.5" font-family="Helvetica,sans-Serif" font-size="10.00">/SmallGameLibrary/include/Small</text>
<text text-anchor="middle" x="480.5" y="-231.5" font-family="Helvetica,sans-Serif" font-size="10.00">/Widgets.hpp</text>
</a>
</g>
</g>
<!-- Node2 -->
<g id="node2" class="node">
<title>Node2</title>
<g id="a_node2"><a xlink:href="../../d3/db2/Base_8hpp.html" target="_top" xlink:title="Contain base classes to create interoperable SFML widgets.">
<polygon fill="white" stroke="black" points="364,-112.5 364,-131.5 489,-131.5 489,-112.5 364,-112.5"/>
<text text-anchor="middle" x="426.5" y="-119.5" font-family="Helvetica,sans-Serif" font-size="10.00">Small/Widgets/Base.hpp</text>
</a>
</g>
</g>
<!-- Node1&#45;&gt;Node2 -->
<g id="edge1" class="edge">
<title>Node1&#45;&gt;Node2</title>
<path fill="none" stroke="midnightblue" d="M477.5,-224.32C474.84,-207.72 470.01,-185.83 461.5,-168 456.5,-157.52 448.74,-147.2 441.79,-139.09"/>
<polygon fill="midnightblue" stroke="midnightblue" points="444.29,-136.63 435,-131.53 439.08,-141.31 444.29,-136.63"/>
</g>
<!-- Node12 -->
<g id="node12" class="node">
<title>Node12</title>
<g id="a_node12"><a xlink:href="../../d4/df9/Layout_8hpp.html" target="_top" xlink:title="A widget acting as a collection of widgets.">
<polygon fill="white" stroke="black" points="0,-168.5 0,-187.5 131,-187.5 131,-168.5 0,-168.5"/>
<text text-anchor="middle" x="65.5" y="-175.5" font-family="Helvetica,sans-Serif" font-size="10.00">Small/Widgets/Layout.hpp</text>
</a>
</g>
</g>
<!-- Node1&#45;&gt;Node12 -->
<g id="edge12" class="edge">
<title>Node1&#45;&gt;Node12</title>
<path fill="none" stroke="midnightblue" d="M398.51,-235.57C318.25,-221.94 197.85,-201.48 125.94,-189.27"/>
<polygon fill="midnightblue" stroke="midnightblue" points="126.13,-185.75 115.69,-187.53 124.96,-192.65 126.13,-185.75"/>
</g>
<!-- Node13 -->
<g id="node13" class="node">
<title>Node13</title>
<g id="a_node13"><a xlink:href="../../d4/db3/Button_8hpp.html" target="_top" xlink:title="Basic button widget.">
<polygon fill="white" stroke="black" points="799,-168.5 799,-187.5 930,-187.5 930,-168.5 799,-168.5"/>
<text text-anchor="middle" x="864.5" y="-175.5" font-family="Helvetica,sans-Serif" font-size="10.00">Small/Widgets/Button.hpp</text>
</a>
</g>
</g>
<!-- Node1&#45;&gt;Node13 -->
<g id="edge14" class="edge">
<title>Node1&#45;&gt;Node13</title>
<path fill="none" stroke="midnightblue" d="M562.41,-234.46C636.32,-220.89 743.1,-201.29 807.93,-189.39"/>
<polygon fill="midnightblue" stroke="midnightblue" points="808.75,-192.79 817.96,-187.54 807.49,-185.91 808.75,-192.79"/>
</g>
<!-- Node18 -->
<g id="node18" class="node">
<title>Node18</title>
<g id="a_node18"><a xlink:href="../../d5/d28/CheckBox_8hpp.html" target="_top" xlink:title="Basic checkbox widget.">
<polygon fill="white" stroke="black" points="149,-168.5 149,-187.5 296,-187.5 296,-168.5 149,-168.5"/>
<text text-anchor="middle" x="222.5" y="-175.5" font-family="Helvetica,sans-Serif" font-size="10.00">Small/Widgets/CheckBox.hpp</text>
</a>
</g>
</g>
<!-- Node1&#45;&gt;Node18 -->
<g id="edge20" class="edge">
<title>Node1&#45;&gt;Node18</title>
<path fill="none" stroke="midnightblue" d="M398.87,-227.19C353.8,-214.88 299.77,-200.11 263.49,-190.2"/>
<polygon fill="midnightblue" stroke="midnightblue" points="264.32,-186.8 253.75,-187.54 262.47,-193.55 264.32,-186.8"/>
</g>
<!-- Node19 -->
<g id="node19" class="node">
<title>Node19</title>
<g id="a_node19"><a xlink:href="../../d6/dc2/TextBox_8hpp.html" target="_top" xlink:title="Basic textbox widget.">
<polygon fill="white" stroke="black" points="314.5,-168.5 314.5,-187.5 452.5,-187.5 452.5,-168.5 314.5,-168.5"/>
<text text-anchor="middle" x="383.5" y="-175.5" font-family="Helvetica,sans-Serif" font-size="10.00">Small/Widgets/TextBox.hpp</text>
</a>
</g>
</g>
<!-- Node1&#45;&gt;Node19 -->
<g id="edge22" class="edge">
<title>Node1&#45;&gt;Node19</title>
<path fill="none" stroke="midnightblue" d="M446.03,-224.45C431.83,-214.13 415.88,-202.53 403.64,-193.64"/>
<polygon fill="midnightblue" stroke="midnightblue" points="405.61,-190.74 395.46,-187.7 401.5,-196.41 405.61,-190.74"/>
</g>
<!-- Node20 -->
<g id="node20" class="node">
<title>Node20</title>
<g id="a_node20"><a xlink:href="../../da/d44/Label_8hpp.html" target="_top" xlink:title="Basic label widget.">
<polygon fill="white" stroke="black" points="509,-168.5 509,-187.5 634,-187.5 634,-168.5 509,-168.5"/>
<text text-anchor="middle" x="571.5" y="-175.5" font-family="Helvetica,sans-Serif" font-size="10.00">Small/Widgets/Label.hpp</text>
</a>
</g>
</g>
<!-- Node1&#45;&gt;Node20 -->
<g id="edge24" class="edge">
<title>Node1&#45;&gt;Node20</title>
<path fill="none" stroke="midnightblue" d="M512.84,-224.45C526.03,-214.23 540.83,-202.76 552.27,-193.9"/>
<polygon fill="midnightblue" stroke="midnightblue" points="554.51,-196.59 560.28,-187.7 550.23,-191.05 554.51,-196.59"/>
</g>
<!-- Node22 -->
<g id="node22" class="node">
<title>Node22</title>
<g id="a_node22"><a xlink:href="../../d8/dde/Image_8hpp.html" target="_top" xlink:title="Basic image widget.">
<polygon fill="white" stroke="black" points="652.5,-168.5 652.5,-187.5 780.5,-187.5 780.5,-168.5 652.5,-168.5"/>
<text text-anchor="middle" x="716.5" y="-175.5" font-family="Helvetica,sans-Serif" font-size="10.00">Small/Widgets/Image.hpp</text>
</a>
</g>
</g>
<!-- Node1&#45;&gt;Node22 -->
<g id="edge28" class="edge">
<title>Node1&#45;&gt;Node22</title>
<path fill="none" stroke="midnightblue" d="M562.05,-225.14C601.48,-213.36 646.94,-199.78 678.27,-190.42"/>
<polygon fill="midnightblue" stroke="midnightblue" points="679.35,-193.75 687.93,-187.54 677.34,-187.04 679.35,-193.75"/>
</g>
<!-- Node3 -->
<g id="node3" class="node">
<title>Node3</title>
<g id="a_node3"><a xlink:title=" ">
<polygon fill="white" stroke="#bfbfbf" points="167,-56.5 167,-75.5 306,-75.5 306,-56.5 167,-56.5"/>
<text text-anchor="middle" x="236.5" y="-63.5" font-family="Helvetica,sans-Serif" font-size="10.00">SFML/Graphics/Texture.hpp</text>
</a>
</g>
</g>
<!-- Node2&#45;&gt;Node3 -->
<g id="edge2" class="edge">
<title>Node2&#45;&gt;Node3</title>
<path fill="none" stroke="midnightblue" d="M396.39,-112.44C363.87,-103.2 311.92,-88.44 276.11,-78.26"/>
<polygon fill="midnightblue" stroke="midnightblue" points="277.04,-74.88 266.47,-75.52 275.13,-81.62 277.04,-74.88"/>
</g>
<!-- Node4 -->
<g id="node4" class="node">
<title>Node4</title>
<g id="a_node4"><a xlink:title=" ">
<polygon fill="white" stroke="#bfbfbf" points="159.5,-0.5 159.5,-19.5 323.5,-19.5 323.5,-0.5 159.5,-0.5"/>
<text text-anchor="middle" x="241.5" y="-7.5" font-family="Helvetica,sans-Serif" font-size="10.00">SFML/Graphics/RenderTarget.hpp</text>
</a>
</g>
</g>
<!-- Node2&#45;&gt;Node4 -->
<g id="edge3" class="edge">
<title>Node2&#45;&gt;Node4</title>
<path fill="none" stroke="midnightblue" d="M411.98,-112.37C380.1,-93.41 303.73,-48 264.95,-24.94"/>
<polygon fill="midnightblue" stroke="midnightblue" points="266.33,-21.69 255.95,-19.59 262.76,-27.71 266.33,-21.69"/>
</g>
<!-- Node5 -->
<g id="node5" class="node">
<title>Node5</title>
<g id="a_node5"><a xlink:title=" ">
<polygon fill="white" stroke="#bfbfbf" points="508.5,-56.5 508.5,-75.5 630.5,-75.5 630.5,-56.5 508.5,-56.5"/>
<text text-anchor="middle" x="569.5" y="-63.5" font-family="Helvetica,sans-Serif" font-size="10.00">SFML/System/Time.hpp</text>
</a>
</g>
</g>
<!-- Node2&#45;&gt;Node5 -->
<g id="edge4" class="edge">
<title>Node2&#45;&gt;Node5</title>
<path fill="none" stroke="midnightblue" d="M449.16,-112.44C472.9,-103.48 510.41,-89.31 537.24,-79.18"/>
<polygon fill="midnightblue" stroke="midnightblue" points="538.83,-82.32 546.95,-75.52 536.36,-75.77 538.83,-82.32"/>
</g>
<!-- Node6 -->
<g id="node6" class="node">
<title>Node6</title>
<g id="a_node6"><a xlink:title=" ">
<polygon fill="white" stroke="#bfbfbf" points="648.5,-56.5 648.5,-75.5 774.5,-75.5 774.5,-56.5 648.5,-56.5"/>
<text text-anchor="middle" x="711.5" y="-63.5" font-family="Helvetica,sans-Serif" font-size="10.00">SFML/Window/Event.hpp</text>
</a>
</g>
</g>
<!-- Node2&#45;&gt;Node6 -->
<g id="edge5" class="edge">
<title>Node2&#45;&gt;Node6</title>
<path fill="none" stroke="midnightblue" d="M471.66,-112.44C521.79,-102.94 602.72,-87.61 656.51,-77.42"/>
<polygon fill="midnightblue" stroke="midnightblue" points="657.38,-80.82 666.55,-75.52 656.08,-73.94 657.38,-80.82"/>
</g>
<!-- Node7 -->
<g id="node7" class="node">
<title>Node7</title>
<g id="a_node7"><a xlink:href="../../d7/dc6/Node_8hpp.html" target="_top" xlink:title="A scene graph node.">
<polygon fill="white" stroke="black" points="362.5,-56.5 362.5,-75.5 490.5,-75.5 490.5,-56.5 362.5,-56.5"/>
<text text-anchor="middle" x="426.5" y="-63.5" font-family="Helvetica,sans-Serif" font-size="10.00">Small/Graphics/Node.hpp</text>
</a>
</g>
</g>
<!-- Node2&#45;&gt;Node7 -->
<g id="edge6" class="edge">
<title>Node2&#45;&gt;Node7</title>
<path fill="none" stroke="midnightblue" d="M426.5,-112.08C426.5,-105.01 426.5,-94.86 426.5,-85.99"/>
<polygon fill="midnightblue" stroke="midnightblue" points="430,-85.75 426.5,-75.75 423,-85.75 430,-85.75"/>
</g>
<!-- Node7&#45;&gt;Node4 -->
<g id="edge7" class="edge">
<title>Node7&#45;&gt;Node4</title>
<path fill="none" stroke="midnightblue" d="M397.19,-56.44C365.66,-47.24 315.37,-32.56 280.51,-22.39"/>
<polygon fill="midnightblue" stroke="midnightblue" points="281.26,-18.96 270.68,-19.52 279.3,-25.68 281.26,-18.96"/>
</g>
<!-- Node8 -->
<g id="node8" class="node">
<title>Node8</title>
<g id="a_node8"><a xlink:title=" ">
<polygon fill="white" stroke="#bfbfbf" points="412,-0.5 412,-19.5 561,-19.5 561,-0.5 412,-0.5"/>
<text text-anchor="middle" x="486.5" y="-7.5" font-family="Helvetica,sans-Serif" font-size="10.00">SFML/Graphics/Transform.hpp</text>
</a>
</g>
</g>
<!-- Node7&#45;&gt;Node8 -->
<g id="edge8" class="edge">
<title>Node7&#45;&gt;Node8</title>
<path fill="none" stroke="midnightblue" d="M436.14,-56.32C445.01,-48.34 458.37,-36.31 469.11,-26.65"/>
<polygon fill="midnightblue" stroke="midnightblue" points="471.59,-29.13 476.68,-19.83 466.91,-23.92 471.59,-29.13"/>
</g>
<!-- Node9 -->
<g id="node9" class="node">
<title>Node9</title>
<g id="a_node9"><a xlink:title=" ">
<polygon fill="white" stroke="#bfbfbf" points="579,-0.5 579,-19.5 714,-19.5 714,-0.5 579,-0.5"/>
<text text-anchor="middle" x="646.5" y="-7.5" font-family="Helvetica,sans-Serif" font-size="10.00">SFML/System/Vector2.hpp</text>
</a>
</g>
</g>
<!-- Node7&#45;&gt;Node9 -->
<g id="edge9" class="edge">
<title>Node7&#45;&gt;Node9</title>
<path fill="none" stroke="midnightblue" d="M461.36,-56.44C499.42,-47.1 560.46,-32.12 601.96,-21.93"/>
<polygon fill="midnightblue" stroke="midnightblue" points="602.93,-25.3 611.8,-19.52 601.26,-18.5 602.93,-25.3"/>
</g>
<!-- Node10 -->
<g id="node10" class="node">
<title>Node10</title>
<g id="a_node10"><a xlink:title=" ">
<polygon fill="white" stroke="#bfbfbf" points="732.5,-0.5 732.5,-19.5 774.5,-19.5 774.5,-0.5 732.5,-0.5"/>
<text text-anchor="middle" x="753.5" y="-7.5" font-family="Helvetica,sans-Serif" font-size="10.00">vector</text>
</a>
</g>
</g>
<!-- Node7&#45;&gt;Node10 -->
<g id="edge10" class="edge">
<title>Node7&#45;&gt;Node10</title>
<path fill="none" stroke="midnightblue" d="M489.02,-56.48C562.29,-46.33 679.22,-29.53 722.5,-20 722.6,-19.98 722.7,-19.96 722.8,-19.93"/>
<polygon fill="midnightblue" stroke="midnightblue" points="723.4,-23.39 732.25,-17.57 721.7,-16.6 723.4,-23.39"/>
</g>
<!-- Node11 -->
<g id="node11" class="node">
<title>Node11</title>
<g id="a_node11"><a xlink:title=" ">
<polygon fill="white" stroke="#bfbfbf" points="341.5,-0.5 341.5,-19.5 393.5,-19.5 393.5,-0.5 341.5,-0.5"/>
<text text-anchor="middle" x="367.5" y="-7.5" font-family="Helvetica,sans-Serif" font-size="10.00">memory</text>
</a>
</g>
</g>
<!-- Node7&#45;&gt;Node11 -->
<g id="edge11" class="edge">
<title>Node7&#45;&gt;Node11</title>
<path fill="none" stroke="midnightblue" d="M417.02,-56.32C408.3,-48.34 395.16,-36.31 384.6,-26.65"/>
<polygon fill="midnightblue" stroke="midnightblue" points="386.89,-24 377.15,-19.83 382.17,-29.17 386.89,-24"/>
</g>
<!-- Node12&#45;&gt;Node2 -->
<g id="edge13" class="edge">
<title>Node12&#45;&gt;Node2</title>
<path fill="none" stroke="midnightblue" d="M122.7,-168.44C187,-158.83 291.28,-143.23 359.37,-133.04"/>
<polygon fill="midnightblue" stroke="midnightblue" points="360.19,-136.46 369.57,-131.52 359.16,-129.53 360.19,-136.46"/>
</g>
<!-- Node13&#45;&gt;Node2 -->
<g id="edge15" class="edge">
<title>Node13&#45;&gt;Node2</title>
<path fill="none" stroke="midnightblue" d="M798.86,-169.03C727.57,-160.36 610.06,-146.02 499.23,-132.21"/>
<polygon fill="midnightblue" stroke="midnightblue" points="499.57,-128.73 489.22,-130.96 498.71,-135.67 499.57,-128.73"/>
</g>
<!-- Node14 -->
<g id="node14" class="node">
<title>Node14</title>
<g id="a_node14"><a xlink:title=" ">
<polygon fill="white" stroke="#bfbfbf" points="566,-112.5 566,-131.5 691,-131.5 691,-112.5 566,-112.5"/>
<text text-anchor="middle" x="628.5" y="-119.5" font-family="Helvetica,sans-Serif" font-size="10.00">SFML/Graphics/Text.hpp</text>
</a>
</g>
</g>
<!-- Node13&#45;&gt;Node14 -->
<g id="edge16" class="edge">
<title>Node13&#45;&gt;Node14</title>
<path fill="none" stroke="midnightblue" d="M827.11,-168.44C786.11,-159.06 720.25,-143.99 675.72,-133.8"/>
<polygon fill="midnightblue" stroke="midnightblue" points="676.25,-130.34 665.72,-131.52 674.69,-137.16 676.25,-130.34"/>
</g>
<!-- Node15 -->
<g id="node15" class="node">
<title>Node15</title>
<g id="a_node15"><a xlink:title=" ">
<polygon fill="white" stroke="#bfbfbf" points="709.5,-112.5 709.5,-131.5 841.5,-131.5 841.5,-112.5 709.5,-112.5"/>
<text text-anchor="middle" x="775.5" y="-119.5" font-family="Helvetica,sans-Serif" font-size="10.00">SFML/Graphics/Sprite.hpp</text>
</a>
</g>
</g>
<!-- Node13&#45;&gt;Node15 -->
<g id="edge17" class="edge">
<title>Node13&#45;&gt;Node15</title>
<path fill="none" stroke="midnightblue" d="M850.2,-168.32C836.32,-159.9 815.01,-146.97 798.7,-137.07"/>
<polygon fill="midnightblue" stroke="midnightblue" points="800.13,-133.85 789.76,-131.65 796.5,-139.83 800.13,-133.85"/>
</g>
<!-- Node16 -->
<g id="node16" class="node">
<title>Node16</title>
<g id="a_node16"><a xlink:title=" ">
<polygon fill="white" stroke="#bfbfbf" points="859.5,-112.5 859.5,-131.5 1037.5,-131.5 1037.5,-112.5 859.5,-112.5"/>
<text text-anchor="middle" x="948.5" y="-119.5" font-family="Helvetica,sans-Serif" font-size="10.00">SFML/Graphics/RectangleShape.hpp</text>
</a>
</g>
</g>
<!-- Node13&#45;&gt;Node16 -->
<g id="edge18" class="edge">
<title>Node13&#45;&gt;Node16</title>
<path fill="none" stroke="midnightblue" d="M878,-168.32C891.1,-159.9 911.21,-146.97 926.61,-137.07"/>
<polygon fill="midnightblue" stroke="midnightblue" points="928.52,-140.01 935.04,-131.65 924.73,-134.12 928.52,-140.01"/>
</g>
<!-- Node17 -->
<g id="node17" class="node">
<title>Node17</title>
<g id="a_node17"><a xlink:title=" ">
<polygon fill="white" stroke="#bfbfbf" points="1055.5,-112.5 1055.5,-131.5 1113.5,-131.5 1113.5,-112.5 1055.5,-112.5"/>
<text text-anchor="middle" x="1084.5" y="-119.5" font-family="Helvetica,sans-Serif" font-size="10.00">functional</text>
</a>
</g>
</g>
<!-- Node13&#45;&gt;Node17 -->
<g id="edge19" class="edge">
<title>Node13&#45;&gt;Node17</title>
<path fill="none" stroke="midnightblue" d="M899.36,-168.44C939.21,-158.66 1004.25,-142.7 1045.68,-132.53"/>
<polygon fill="midnightblue" stroke="midnightblue" points="1046.55,-135.92 1055.42,-130.14 1044.88,-129.12 1046.55,-135.92"/>
</g>
<!-- Node18&#45;&gt;Node2 -->
<g id="edge21" class="edge">
<title>Node18&#45;&gt;Node2</title>
<path fill="none" stroke="midnightblue" d="M254.82,-168.44C289.89,-159.16 346,-144.31 384.46,-134.13"/>
<polygon fill="midnightblue" stroke="midnightblue" points="385.56,-137.46 394.33,-131.52 383.76,-130.69 385.56,-137.46"/>
</g>
<!-- Node19&#45;&gt;Node2 -->
<g id="edge23" class="edge">
<title>Node19&#45;&gt;Node2</title>
<path fill="none" stroke="midnightblue" d="M390.6,-168.08C396.74,-160.38 405.77,-149.03 413.24,-139.65"/>
<polygon fill="midnightblue" stroke="midnightblue" points="416.04,-141.75 419.53,-131.75 410.56,-137.39 416.04,-141.75"/>
</g>
<!-- Node20&#45;&gt;Node2 -->
<g id="edge25" class="edge">
<title>Node20&#45;&gt;Node2</title>
<path fill="none" stroke="midnightblue" d="M548.52,-168.44C524.34,-159.44 486.08,-145.19 458.85,-135.05"/>
<polygon fill="midnightblue" stroke="midnightblue" points="459.96,-131.73 449.37,-131.52 457.52,-138.29 459.96,-131.73"/>
</g>
<!-- Node20&#45;&gt;Node14 -->
<g id="edge26" class="edge">
<title>Node20&#45;&gt;Node14</title>
<path fill="none" stroke="midnightblue" d="M580.66,-168.32C589,-160.42 601.53,-148.55 611.68,-138.94"/>
<polygon fill="midnightblue" stroke="midnightblue" points="614.32,-141.25 619.18,-131.83 609.51,-136.17 614.32,-141.25"/>
</g>
<!-- Node21 -->
<g id="node21" class="node">
<title>Node21</title>
<g id="a_node21"><a xlink:title=" ">
<polygon fill="white" stroke="#bfbfbf" points="507,-112.5 507,-131.5 548,-131.5 548,-112.5 507,-112.5"/>
<text text-anchor="middle" x="527.5" y="-119.5" font-family="Helvetica,sans-Serif" font-size="10.00">string</text>
</a>
</g>
</g>
<!-- Node20&#45;&gt;Node21 -->
<g id="edge27" class="edge">
<title>Node20&#45;&gt;Node21</title>
<path fill="none" stroke="midnightblue" d="M564.23,-168.08C557.96,-160.38 548.71,-149.03 541.07,-139.65"/>
<polygon fill="midnightblue" stroke="midnightblue" points="543.66,-137.29 534.63,-131.75 538.23,-141.71 543.66,-137.29"/>
</g>
<!-- Node22&#45;&gt;Node2 -->
<g id="edge29" class="edge">
<title>Node22&#45;&gt;Node2</title>
<path fill="none" stroke="midnightblue" d="M670.55,-168.44C619.43,-158.92 536.85,-143.55 482.12,-133.36"/>
<polygon fill="midnightblue" stroke="midnightblue" points="482.71,-129.91 472.24,-131.52 481.43,-136.79 482.71,-129.91"/>
</g>
<!-- Node22&#45;&gt;Node15 -->
<g id="edge30" class="edge">
<title>Node22&#45;&gt;Node15</title>
<path fill="none" stroke="midnightblue" d="M725.98,-168.32C734.7,-160.34 747.84,-148.31 758.4,-138.65"/>
<polygon fill="midnightblue" stroke="midnightblue" points="760.83,-141.17 765.85,-131.83 756.11,-136 760.83,-141.17"/>
</g>
</g>
</svg>
