<?xml version="1.0" encoding="UTF-8" standalone="no"?>
<!DOCTYPE svg PUBLIC "-//W3C//DTD SVG 1.1//EN"
 "http://www.w3.org/Graphics/SVG/1.1/DTD/svg11.dtd">
<!-- Generated by graphviz version 2.38.0 (20140413.2041)
 -->
<!-- Title: C:/Users/Folaefolc/Documents/Code/Big&#45;Projects/ScriptWizards/SmallGameLibrary/include/Small/GameObjects/Manager.hpp Pages: 1 -->
<svg width="306pt" height="283pt"
 viewBox="0.00 0.00 305.50 283.00" xmlns="http://www.w3.org/2000/svg" xmlns:xlink="http://www.w3.org/1999/xlink">
<g id="graph0" class="graph" transform="scale(1 1) rotate(0) translate(4 279)">
<title>C:/Users/Folaefolc/Documents/Code/Big&#45;Projects/ScriptWizards/SmallGameLibrary/include/Small/GameObjects/Manager.hpp</title>
<polygon fill="white" stroke="none" points="-4,4 -4,-279 301.5,-279 301.5,4 -4,4"/>
<!-- Node1 -->
<g id="node1" class="node"><title>Node1</title>
<polygon fill="#bfbfbf" stroke="black" points="68,-211.5 68,-274.5 235,-274.5 235,-211.5 68,-211.5"/>
<text text-anchor="start" x="76" y="-262.5" font-family="Helvetica,sans-Serif" font-size="10.00">C:/Users/Folaefolc</text>
<text text-anchor="start" x="76" y="-251.5" font-family="Helvetica,sans-Serif" font-size="10.00">/Documents/Code/Big</text>
<text text-anchor="start" x="76" y="-240.5" font-family="Helvetica,sans-Serif" font-size="10.00">&#45;Projects/ScriptWizards</text>
<text text-anchor="start" x="76" y="-229.5" font-family="Helvetica,sans-Serif" font-size="10.00">/SmallGameLibrary/include</text>
<text text-anchor="middle" x="151.5" y="-218.5" font-family="Helvetica,sans-Serif" font-size="10.00">/Small/GameObjects/Manager.hpp</text>
</g>
<!-- Node2 -->
<g id="node2" class="node"><title>Node2</title>
<g id="a_node2"><a xlink:href="../../de/d53/Triggers_2Manager_8hpp.html" target="_top" xlink:title="C:/Users/Folaefolc\l/Documents/Code/Big\l&#45;Projects/ScriptWizards\l/SmallGameLibrary/include\l/Small/GameObjects/Triggers\l/Manager.hpp">
<polygon fill="white" stroke="black" points="0,-100.5 0,-174.5 145,-174.5 145,-100.5 0,-100.5"/>
<text text-anchor="start" x="8" y="-162.5" font-family="Helvetica,sans-Serif" font-size="10.00">C:/Users/Folaefolc</text>
<text text-anchor="start" x="8" y="-151.5" font-family="Helvetica,sans-Serif" font-size="10.00">/Documents/Code/Big</text>
<text text-anchor="start" x="8" y="-140.5" font-family="Helvetica,sans-Serif" font-size="10.00">&#45;Projects/ScriptWizards</text>
<text text-anchor="start" x="8" y="-129.5" font-family="Helvetica,sans-Serif" font-size="10.00">/SmallGameLibrary/include</text>
<text text-anchor="start" x="8" y="-118.5" font-family="Helvetica,sans-Serif" font-size="10.00">/Small/GameObjects/Triggers</text>
<text text-anchor="middle" x="72.5" y="-107.5" font-family="Helvetica,sans-Serif" font-size="10.00">/Manager.hpp</text>
</a>
</g>
</g>
<!-- Node1&#45;&gt;Node2 -->
<g id="edge1" class="edge"><title>Node1&#45;&gt;Node2</title>
<path fill="none" stroke="midnightblue" d="M121.908,-203.23C114.799,-193.917 107.233,-184.005 100.214,-174.808"/>
<polygon fill="midnightblue" stroke="midnightblue" points="119.162,-205.401 128.011,-211.227 124.726,-201.154 119.162,-205.401"/>
</g>
<!-- Node3 -->
<g id="node3" class="node"><title>Node3</title>
<g id="a_node3"><a xlink:href="../../d2/da1/GameObjects_8hpp.html" target="_top" xlink:title="Include all the files from the GameObjects folder. ">
<polygon fill="white" stroke="black" points="163.5,-106 163.5,-169 297.5,-169 297.5,-106 163.5,-106"/>
<text text-anchor="start" x="171.5" y="-157" font-family="Helvetica,sans-Serif" font-size="10.00">C:/Users/Folaefolc</text>
<text text-anchor="start" x="171.5" y="-146" font-family="Helvetica,sans-Serif" font-size="10.00">/Documents/Code/Big</text>
<text text-anchor="start" x="171.5" y="-135" font-family="Helvetica,sans-Serif" font-size="10.00">&#45;Projects/ScriptWizards</text>
<text text-anchor="start" x="171.5" y="-124" font-family="Helvetica,sans-Serif" font-size="10.00">/SmallGameLibrary/include</text>
<text text-anchor="middle" x="230.5" y="-113" font-family="Helvetica,sans-Serif" font-size="10.00">/Small/GameObjects.hpp</text>
</a>
</g>
</g>
<!-- Node1&#45;&gt;Node3 -->
<g id="edge2" class="edge"><title>Node1&#45;&gt;Node3</title>
<path fill="none" stroke="midnightblue" d="M181.072,-203.257C189.622,-192.055 198.836,-179.984 206.965,-169.333"/>
<polygon fill="midnightblue" stroke="midnightblue" points="178.274,-201.154 174.989,-211.227 183.838,-205.401 178.274,-201.154"/>
</g>
<!-- Node4 -->
<g id="node4" class="node"><title>Node4</title>
<g id="a_node4"><a xlink:href="../../da/d41/All_8hpp.html" target="_top" xlink:title="Include the needed files to start a project using the library. ">
<polygon fill="white" stroke="black" points="163.5,-0.5 163.5,-63.5 297.5,-63.5 297.5,-0.5 163.5,-0.5"/>
<text text-anchor="start" x="171.5" y="-51.5" font-family="Helvetica,sans-Serif" font-size="10.00">C:/Users/Folaefolc</text>
<text text-anchor="start" x="171.5" y="-40.5" font-family="Helvetica,sans-Serif" font-size="10.00">/Documents/Code/Big</text>
<text text-anchor="start" x="171.5" y="-29.5" font-family="Helvetica,sans-Serif" font-size="10.00">&#45;Projects/ScriptWizards</text>
<text text-anchor="start" x="171.5" y="-18.5" font-family="Helvetica,sans-Serif" font-size="10.00">/SmallGameLibrary/include</text>
<text text-anchor="middle" x="230.5" y="-7.5" font-family="Helvetica,sans-Serif" font-size="10.00">/Small/All.hpp</text>
</a>
</g>
</g>
<!-- Node3&#45;&gt;Node4 -->
<g id="edge3" class="edge"><title>Node3&#45;&gt;Node4</title>
<path fill="none" stroke="midnightblue" d="M230.5,-95.4614C230.5,-84.9206 230.5,-73.7597 230.5,-63.8333"/>
<polygon fill="midnightblue" stroke="midnightblue" points="227,-95.7268 230.5,-105.727 234,-95.7268 227,-95.7268"/>
</g>
</g>
</svg>
