<?xml version="1.0" encoding="UTF-8" standalone="no"?>
<!DOCTYPE svg PUBLIC "-//W3C//DTD SVG 1.1//EN"
 "http://www.w3.org/Graphics/SVG/1.1/DTD/svg11.dtd">
<!-- Generated by graphviz version 2.38.0 (20140413.2041)
 -->
<!-- Title: C:/Users/Folaefolc/Documents/Code/Big&#45;Projects/ScriptWizards/SmallGameLibrary/include/Small/Core/SceneManager.hpp Pages: 1 -->
<svg width="202pt" height="372pt"
 viewBox="0.00 0.00 202.00 372.00" xmlns="http://www.w3.org/2000/svg" xmlns:xlink="http://www.w3.org/1999/xlink">
<g id="graph0" class="graph" transform="scale(1 1) rotate(0) translate(4 368)">
<title>C:/Users/Folaefolc/Documents/Code/Big&#45;Projects/ScriptWizards/SmallGameLibrary/include/Small/Core/SceneManager.hpp</title>
<polygon fill="white" stroke="none" points="-4,4 -4,-368 198,-368 198,4 -4,4"/>
<!-- Node1 -->
<g id="node1" class="node"><title>Node1</title>
<polygon fill="#bfbfbf" stroke="black" points="39,-300.5 39,-363.5 194,-363.5 194,-300.5 39,-300.5"/>
<text text-anchor="start" x="47" y="-351.5" font-family="Helvetica,sans-Serif" font-size="10.00">C:/Users/Folaefolc</text>
<text text-anchor="start" x="47" y="-340.5" font-family="Helvetica,sans-Serif" font-size="10.00">/Documents/Code/Big</text>
<text text-anchor="start" x="47" y="-329.5" font-family="Helvetica,sans-Serif" font-size="10.00">&#45;Projects/ScriptWizards</text>
<text text-anchor="start" x="47" y="-318.5" font-family="Helvetica,sans-Serif" font-size="10.00">/SmallGameLibrary/include</text>
<text text-anchor="middle" x="116.5" y="-307.5" font-family="Helvetica,sans-Serif" font-size="10.00">/Small/Core/SceneManager.hpp</text>
</g>
<!-- Node2 -->
<g id="node2" class="node"><title>Node2</title>
<g id="a_node2"><a xlink:href="../../df/d3c/Application_8hpp.html" target="_top" xlink:title="Define the application hosting the scenes for the game. ">
<polygon fill="white" stroke="black" points="0,-200.5 0,-263.5 137,-263.5 137,-200.5 0,-200.5"/>
<text text-anchor="start" x="8" y="-251.5" font-family="Helvetica,sans-Serif" font-size="10.00">C:/Users/Folaefolc</text>
<text text-anchor="start" x="8" y="-240.5" font-family="Helvetica,sans-Serif" font-size="10.00">/Documents/Code/Big</text>
<text text-anchor="start" x="8" y="-229.5" font-family="Helvetica,sans-Serif" font-size="10.00">&#45;Projects/ScriptWizards</text>
<text text-anchor="start" x="8" y="-218.5" font-family="Helvetica,sans-Serif" font-size="10.00">/SmallGameLibrary/include</text>
<text text-anchor="middle" x="68.5" y="-207.5" font-family="Helvetica,sans-Serif" font-size="10.00">/Small/Core/Application.hpp</text>
</a>
</g>
</g>
<!-- Node1&#45;&gt;Node2 -->
<g id="edge1" class="edge"><title>Node1&#45;&gt;Node2</title>
<path fill="none" stroke="midnightblue" d="M97.0317,-291.252C92.5205,-282.042 87.7877,-272.379 83.5024,-263.63"/>
<polygon fill="midnightblue" stroke="midnightblue" points="93.9022,-292.82 101.444,-300.261 100.189,-289.741 93.9022,-292.82"/>
</g>
<!-- Node3 -->
<g id="node3" class="node"><title>Node3</title>
<g id="a_node3"><a xlink:href="../../d7/d38/Core_8hpp.html" target="_top" xlink:title="Include all the files from the Core folder. ">
<polygon fill="white" stroke="black" points="49.5,-100.5 49.5,-163.5 183.5,-163.5 183.5,-100.5 49.5,-100.5"/>
<text text-anchor="start" x="57.5" y="-151.5" font-family="Helvetica,sans-Serif" font-size="10.00">C:/Users/Folaefolc</text>
<text text-anchor="start" x="57.5" y="-140.5" font-family="Helvetica,sans-Serif" font-size="10.00">/Documents/Code/Big</text>
<text text-anchor="start" x="57.5" y="-129.5" font-family="Helvetica,sans-Serif" font-size="10.00">&#45;Projects/ScriptWizards</text>
<text text-anchor="start" x="57.5" y="-118.5" font-family="Helvetica,sans-Serif" font-size="10.00">/SmallGameLibrary/include</text>
<text text-anchor="middle" x="116.5" y="-107.5" font-family="Helvetica,sans-Serif" font-size="10.00">/Small/Core.hpp</text>
</a>
</g>
</g>
<!-- Node1&#45;&gt;Node3 -->
<g id="edge4" class="edge"><title>Node1&#45;&gt;Node3</title>
<path fill="none" stroke="midnightblue" d="M137.638,-291.078C141.308,-282.38 144.564,-273.061 146.5,-264 152.443,-236.183 152.443,-227.817 146.5,-200 143.864,-187.661 138.78,-174.846 133.536,-163.768"/>
<polygon fill="midnightblue" stroke="midnightblue" points="134.431,-289.675 133.536,-300.232 140.819,-292.538 134.431,-289.675"/>
</g>
<!-- Node2&#45;&gt;Node3 -->
<g id="edge2" class="edge"><title>Node2&#45;&gt;Node3</title>
<path fill="none" stroke="midnightblue" d="M87.9683,-191.252C92.4795,-182.042 97.2123,-172.379 101.498,-163.63"/>
<polygon fill="midnightblue" stroke="midnightblue" points="84.8113,-189.741 83.5558,-200.261 91.0978,-192.82 84.8113,-189.741"/>
</g>
<!-- Node4 -->
<g id="node4" class="node"><title>Node4</title>
<g id="a_node4"><a xlink:href="../../da/d41/All_8hpp.html" target="_top" xlink:title="Include the needed files to start a project using the library. ">
<polygon fill="white" stroke="black" points="49.5,-0.5 49.5,-63.5 183.5,-63.5 183.5,-0.5 49.5,-0.5"/>
<text text-anchor="start" x="57.5" y="-51.5" font-family="Helvetica,sans-Serif" font-size="10.00">C:/Users/Folaefolc</text>
<text text-anchor="start" x="57.5" y="-40.5" font-family="Helvetica,sans-Serif" font-size="10.00">/Documents/Code/Big</text>
<text text-anchor="start" x="57.5" y="-29.5" font-family="Helvetica,sans-Serif" font-size="10.00">&#45;Projects/ScriptWizards</text>
<text text-anchor="start" x="57.5" y="-18.5" font-family="Helvetica,sans-Serif" font-size="10.00">/SmallGameLibrary/include</text>
<text text-anchor="middle" x="116.5" y="-7.5" font-family="Helvetica,sans-Serif" font-size="10.00">/Small/All.hpp</text>
</a>
</g>
</g>
<!-- Node3&#45;&gt;Node4 -->
<g id="edge3" class="edge"><title>Node3&#45;&gt;Node4</title>
<path fill="none" stroke="midnightblue" d="M116.5,-90.0987C116.5,-81.2383 116.5,-72.0145 116.5,-63.6299"/>
<polygon fill="midnightblue" stroke="midnightblue" points="113,-90.261 116.5,-100.261 120,-90.2611 113,-90.261"/>
</g>
</g>
</svg>
