<?xml version="1.0" encoding="UTF-8" standalone="no"?>
<!DOCTYPE svg PUBLIC "-//W3C//DTD SVG 1.1//EN"
 "http://www.w3.org/Graphics/SVG/1.1/DTD/svg11.dtd">
<!-- Generated by graphviz version 2.38.0 (20140413.2041)
 -->
<!-- Title: sgl::Scene Pages: 1 -->
<!--zoomable 188 -->
<svg id="main" version="1.1" xmlns="http://www.w3.org/2000/svg" xmlns:xlink="http://www.w3.org/1999/xlink" xml:space="preserve" onload="init(evt)">
<style type="text/css"><![CDATA[
.edge:hover path { stroke: red; }
.edge:hover polygon { stroke: red; fill: red; }
]]></style>
<script type="text/javascript"><![CDATA[
var edges = document.getElementsByTagName('g');
if (edges && edges.length) {
  for (var i=0;i<edges.length;i++) {
    if (edges[i].id.substr(0,4)=='edge') {
      edges[i].setAttribute('class','edge');
    }
  }
}
]]></script>
        <defs>
                <circle id="rim" cx="0" cy="0" r="7"/>
                <circle id="rim2" cx="0" cy="0" r="3.5"/>
                <g id="zoomPlus">
                        <use xlink:href="#rim" fill="#404040">
                                <set attributeName="fill" to="#808080" begin="zoomplus.mouseover" end="zoomplus.mouseout"/>
                        </use>
                        <path d="M-4,0h8M0,-4v8" fill="none" stroke="white" stroke-width="1.5" pointer-events="none"/>
                </g>
                <g id="zoomMin">
                        <use xlink:href="#rim" fill="#404040">
                                <set attributeName="fill" to="#808080" begin="zoomminus.mouseover" end="zoomminus.mouseout"/>
                        </use>
                        <path d="M-4,0h8" fill="none" stroke="white" stroke-width="1.5" pointer-events="none"/>
                </g>
                <g id="dirArrow">
                        <path fill="none" stroke="white" stroke-width="1.5" d="M0,-3.0v7 M-2.5,-0.5L0,-3.0L2.5,-0.5"/>
                </g>
               <g id="resetDef">
                       <use xlink:href="#rim2" fill="#404040">
                               <set attributeName="fill" to="#808080" begin="reset.mouseover" end="reset.mouseout"/>
                       </use>
               </g>
        </defs>

<script type="text/javascript">
var viewWidth = 1600;
var viewHeight = 188;
var sectionId = 'dynsection-1';
</script>
<script xlink:href="../../svgpan.js"/>
<svg id="graph" class="graph">
<g id="viewport">
<title>sgl::Scene</title>
<polygon fill="white" stroke="none" points="-4,4 -4,-183.5 1596,-183.5 1596,4 -4,4"/>
<!-- Node1 -->
<g id="node1" class="node"><title>Node1</title>
<polygon fill="#bfbfbf" stroke="black" points="862,-6 862,-25 925,-25 925,-6 862,-6"/>
<text text-anchor="middle" x="893.5" y="-13" font-family="Helvetica,sans-Serif" font-size="10.00">sgl::Scene</text>
</g>
<!-- Node11 -->
<g id="node11" class="node"><title>Node11</title>
<polygon fill="white" stroke="#bfbfbf" points="1067,-88.5 1067,-118.5 1170,-118.5 1170,-88.5 1067,-88.5"/>
<text text-anchor="start" x="1075" y="-106.5" font-family="Helvetica,sans-Serif" font-size="10.00">std::unique_ptr&lt; sgl</text>
<text text-anchor="middle" x="1118.5" y="-95.5" font-family="Helvetica,sans-Serif" font-size="10.00">::Scene &gt;</text>
</g>
<!-- Node1&#45;&gt;Node11 -->
<g id="edge12" class="edge"><title>Node1&#45;&gt;Node11</title>
<path fill="none" stroke="#9a32cd" stroke-dasharray="5,2" d="M928.228,-28.8095C968.755,-44.8023 1036.59,-71.5722 1079.1,-88.3449"/>
<polygon fill="#9a32cd" stroke="#9a32cd" points="929.376,-25.5002 918.789,-25.0851 926.807,-32.0115 929.376,-25.5002"/>
<text text-anchor="middle" x="996" y="-78.5" font-family="Helvetica,sans-Serif" font-size="10.00"> ptr</text>
</g>
<!-- Node2 -->
<g id="node2" class="node"><title>Node2</title>
<g id="a_node2"><a xlink:href="../../dc/dee/classsgl_1_1Graphics_1_1Node.html" target="_top" xlink:title="Abstract base class for a scene graph node. ">
<polygon fill="white" stroke="black" points="640,-6 640,-25 743,-25 743,-6 640,-6"/>
<text text-anchor="middle" x="691.5" y="-13" font-family="Helvetica,sans-Serif" font-size="10.00">sgl::Graphics::Node</text>
</a>
</g>
</g>
<!-- Node2&#45;&gt;Node1 -->
<g id="edge1" class="edge"><title>Node2&#45;&gt;Node1</title>
<path fill="none" stroke="midnightblue" d="M753.577,-15.5C789.378,-15.5 833.066,-15.5 861.776,-15.5"/>
<polygon fill="midnightblue" stroke="midnightblue" points="753.227,-12.0001 743.227,-15.5 753.227,-19.0001 753.227,-12.0001"/>
</g>
<!-- Node3 -->
<g id="node3" class="node"><title>Node3</title>
<polygon fill="white" stroke="#bfbfbf" points="355,-0.5 355,-30.5 501,-30.5 501,-0.5 355,-0.5"/>
<text text-anchor="start" x="363" y="-18.5" font-family="Helvetica,sans-Serif" font-size="10.00">std::vector&lt; std::shared</text>
<text text-anchor="middle" x="428" y="-7.5" font-family="Helvetica,sans-Serif" font-size="10.00">_ptr&lt; sgl::Graphics::Node &gt; &gt;</text>
</g>
<!-- Node3&#45;&gt;Node2 -->
<g id="edge2" class="edge"><title>Node3&#45;&gt;Node2</title>
<path fill="none" stroke="#9a32cd" stroke-dasharray="5,2" d="M511.384,-15.5C553.451,-15.5 603.295,-15.5 639.708,-15.5"/>
<polygon fill="#9a32cd" stroke="#9a32cd" points="511.148,-12.0001 501.148,-15.5 511.148,-19.0001 511.148,-12.0001"/>
<text text-anchor="middle" x="570.5" y="-18.5" font-family="Helvetica,sans-Serif" font-size="10.00"> m_children</text>
</g>
<!-- Node4 -->
<g id="node4" class="node"><title>Node4</title>
<g id="a_node4"><a xlink:title="STL class. ">
<polygon fill="white" stroke="#bfbfbf" points="117,-50 117,-69 202,-69 202,-50 117,-50"/>
<text text-anchor="middle" x="159.5" y="-57" font-family="Helvetica,sans-Serif" font-size="10.00">std::vector&lt; T &gt;</text>
</a>
</g>
</g>
<!-- Node4&#45;&gt;Node3 -->
<g id="edge3" class="edge"><title>Node4&#45;&gt;Node3</title>
<path fill="none" stroke="orange" stroke-dasharray="5,2" d="M182.801,-44.5341C195.711,-36.723 212.607,-27.8983 229,-23.5 269.704,-12.579 316.791,-10.2779 354.831,-10.8479"/>
<polygon fill="orange" stroke="orange" points="180.77,-41.677 174.17,-49.9648 184.498,-47.6019 180.77,-41.677"/>
<text text-anchor="start" x="229" y="-37.5" font-family="Helvetica,sans-Serif" font-size="10.00"> &lt; std::shared_ptr&lt;</text>
<text text-anchor="middle" x="283" y="-26.5" font-family="Helvetica,sans-Serif" font-size="10.00"> sgl::Graphics::Node &gt; &gt;</text>
</g>
<!-- Node10 -->
<g id="node10" class="node"><title>Node10</title>
<polygon fill="white" stroke="#bfbfbf" points="1287,-66.5 1287,-96.5 1406,-96.5 1406,-66.5 1287,-66.5"/>
<text text-anchor="start" x="1295" y="-84.5" font-family="Helvetica,sans-Serif" font-size="10.00">std::vector&lt; std::unique</text>
<text text-anchor="middle" x="1346.5" y="-73.5" font-family="Helvetica,sans-Serif" font-size="10.00">_ptr&lt; sgl::Scene &gt; &gt;</text>
</g>
<!-- Node4&#45;&gt;Node10 -->
<g id="edge15" class="edge"><title>Node4&#45;&gt;Node10</title>
<path fill="none" stroke="orange" stroke-dasharray="5,2" d="M212.337,-59.5C266.039,-59.5 352.394,-59.5 427,-59.5 427,-59.5 427,-59.5 1119.5,-59.5 1176.46,-59.5 1241.13,-66.5094 1286.65,-72.6152"/>
<polygon fill="orange" stroke="orange" points="212.045,-56.0001 202.045,-59.5 212.045,-63.0001 212.045,-56.0001"/>
<text text-anchor="start" x="761" y="-73.5" font-family="Helvetica,sans-Serif" font-size="10.00"> &lt; std::unique_ptr&lt;</text>
<text text-anchor="middle" x="802.5" y="-62.5" font-family="Helvetica,sans-Serif" font-size="10.00"> sgl::Scene &gt; &gt;</text>
</g>
<!-- Node5 -->
<g id="node5" class="node"><title>Node5</title>
<polygon fill="white" stroke="#bfbfbf" points="0,-92 0,-111 29,-111 29,-92 0,-92"/>
<text text-anchor="middle" x="14.5" y="-99" font-family="Helvetica,sans-Serif" font-size="10.00">T</text>
</g>
<!-- Node5&#45;&gt;Node4 -->
<g id="edge4" class="edge"><title>Node5&#45;&gt;Node4</title>
<path fill="none" stroke="#9a32cd" stroke-dasharray="5,2" d="M28.2505,-83.6026C33.3796,-77.7775 39.7938,-71.9331 47,-68.5 68.5651,-58.2262 95.1473,-55.7472 116.947,-55.9445"/>
<polygon fill="#9a32cd" stroke="#9a32cd" points="25.1879,-81.8314 21.7129,-91.8401 30.671,-86.183 25.1879,-81.8314"/>
<text text-anchor="middle" x="68.5" y="-71.5" font-family="Helvetica,sans-Serif" font-size="10.00"> elements</text>
</g>
<!-- Node8 -->
<g id="node8" class="node"><title>Node8</title>
<g id="a_node8"><a xlink:title="STL class. ">
<polygon fill="white" stroke="#bfbfbf" points="108,-132.5 108,-162.5 211,-162.5 211,-132.5 108,-132.5"/>
<text text-anchor="start" x="116" y="-150.5" font-family="Helvetica,sans-Serif" font-size="10.00">std::unordered_map</text>
<text text-anchor="middle" x="159.5" y="-139.5" font-family="Helvetica,sans-Serif" font-size="10.00">&lt; K, T &gt;</text>
</a>
</g>
</g>
<!-- Node5&#45;&gt;Node8 -->
<g id="edge9" class="edge"><title>Node5&#45;&gt;Node8</title>
<path fill="none" stroke="#9a32cd" stroke-dasharray="5,2" d="M38.8246,-110.588C41.5706,-111.598 44.3408,-112.589 47,-113.5 66.7202,-120.254 88.6214,-127.077 107.756,-132.82"/>
<polygon fill="#9a32cd" stroke="#9a32cd" points="39.8177,-107.222 29.2261,-106.961 37.3436,-113.77 39.8177,-107.222"/>
<text text-anchor="middle" x="68.5" y="-130.5" font-family="Helvetica,sans-Serif" font-size="10.00"> elements</text>
</g>
<!-- Node12 -->
<g id="node12" class="node"><title>Node12</title>
<g id="a_node12"><a xlink:title="STL class. ">
<polygon fill="white" stroke="#bfbfbf" points="231,-94 231,-113 335,-113 335,-94 231,-94"/>
<text text-anchor="middle" x="283" y="-101" font-family="Helvetica,sans-Serif" font-size="10.00">std::unique_ptr&lt; T &gt;</text>
</a>
</g>
</g>
<!-- Node5&#45;&gt;Node12 -->
<g id="edge14" class="edge"><title>Node5&#45;&gt;Node12</title>
<path fill="none" stroke="#9a32cd" stroke-dasharray="5,2" d="M39.453,-100.66C42.0006,-100.595 44.5535,-100.539 47,-100.5 66.1087,-100.197 70.8895,-100.351 90,-100.5 137.671,-100.872 191.994,-101.765 230.662,-102.48"/>
<polygon fill="#9a32cd" stroke="#9a32cd" points="39.1874,-97.1665 29.2977,-100.967 39.3989,-104.163 39.1874,-97.1665"/>
<text text-anchor="middle" x="68.5" y="-103.5" font-family="Helvetica,sans-Serif" font-size="10.00"> ptr</text>
</g>
<!-- Node6 -->
<g id="node6" class="node"><title>Node6</title>
<g id="a_node6"><a xlink:href="../../de/dd2/classsgl_1_1SceneManager.html" target="_top" xlink:title="Scene manager, in charge of creating, handling and destroying scenes. ">
<polygon fill="white" stroke="black" points="1491,-72 1491,-91 1592,-91 1592,-72 1491,-72"/>
<text text-anchor="middle" x="1541.5" y="-79" font-family="Helvetica,sans-Serif" font-size="10.00">sgl::SceneManager</text>
</a>
</g>
</g>
<!-- Node6&#45;&gt;Node1 -->
<g id="edge5" class="edge"><title>Node6&#45;&gt;Node1</title>
<path fill="none" stroke="#9a32cd" stroke-dasharray="5,2" d="M1480.65,-70.0505C1457.37,-65.6821 1430.46,-60.737 1406,-56.5 1345.24,-45.9755 1330.33,-40.9608 1269,-34.5 1141.78,-21.0981 989.216,-17.0759 925.17,-15.9301"/>
<polygon fill="#9a32cd" stroke="#9a32cd" points="1480.26,-73.5371 1490.73,-71.9479 1481.55,-66.6579 1480.26,-73.5371"/>
<text text-anchor="middle" x="1228.5" y="-37.5" font-family="Helvetica,sans-Serif" font-size="10.00"> m_sceneManager</text>
</g>
<!-- Node7 -->
<g id="node7" class="node"><title>Node7</title>
<polygon fill="white" stroke="#bfbfbf" points="519,-132.5 519,-162.5 622,-162.5 622,-132.5 519,-132.5"/>
<text text-anchor="start" x="527" y="-150.5" font-family="Helvetica,sans-Serif" font-size="10.00">std::unordered_map</text>
<text text-anchor="middle" x="570.5" y="-139.5" font-family="Helvetica,sans-Serif" font-size="10.00">&lt; std::size_t, int &gt;</text>
</g>
<!-- Node7&#45;&gt;Node6 -->
<g id="edge6" class="edge"><title>Node7&#45;&gt;Node6</title>
<path fill="none" stroke="#9a32cd" stroke-dasharray="5,2" d="M632.384,-147.5C678.745,-147.5 744.145,-147.5 801.5,-147.5 801.5,-147.5 801.5,-147.5 1347.5,-147.5 1416.2,-147.5 1491.61,-109.598 1524.11,-91.2385"/>
<polygon fill="#9a32cd" stroke="#9a32cd" points="632.203,-144 622.203,-147.5 632.203,-151 632.203,-144"/>
<text text-anchor="middle" x="996" y="-150.5" font-family="Helvetica,sans-Serif" font-size="10.00"> m_hashCodeToSceneId</text>
</g>
<!-- Node8&#45;&gt;Node7 -->
<g id="edge7" class="edge"><title>Node8&#45;&gt;Node7</title>
<path fill="none" stroke="orange" stroke-dasharray="5,2" d="M221.079,-147.5C301.828,-147.5 443.29,-147.5 518.733,-147.5"/>
<polygon fill="orange" stroke="orange" points="221.062,-144 211.062,-147.5 221.062,-151 221.062,-144"/>
<text text-anchor="middle" x="283" y="-150.5" font-family="Helvetica,sans-Serif" font-size="10.00"> &lt; std::size_t, int &gt;</text>
</g>
<!-- Node9 -->
<g id="node9" class="node"><title>Node9</title>
<polygon fill="white" stroke="#bfbfbf" points="0,-160 0,-179 29,-179 29,-160 0,-160"/>
<text text-anchor="middle" x="14.5" y="-167" font-family="Helvetica,sans-Serif" font-size="10.00">K</text>
</g>
<!-- Node9&#45;&gt;Node8 -->
<g id="edge8" class="edge"><title>Node9&#45;&gt;Node8</title>
<path fill="none" stroke="#9a32cd" stroke-dasharray="5,2" d="M39.1861,-165.856C57.8466,-162.985 84.5282,-158.88 107.929,-155.28"/>
<polygon fill="#9a32cd" stroke="#9a32cd" points="38.5629,-162.411 29.2114,-167.391 39.6274,-169.329 38.5629,-162.411"/>
<text text-anchor="middle" x="68.5" y="-167.5" font-family="Helvetica,sans-Serif" font-size="10.00"> keys</text>
</g>
<!-- Node10&#45;&gt;Node6 -->
<g id="edge10" class="edge"><title>Node10&#45;&gt;Node6</title>
<path fill="none" stroke="#9a32cd" stroke-dasharray="5,2" d="M1416.21,-81.5C1440.86,-81.5 1468.15,-81.5 1490.87,-81.5"/>
<polygon fill="#9a32cd" stroke="#9a32cd" points="1416.19,-78.0001 1406.19,-81.5 1416.19,-85.0001 1416.19,-78.0001"/>
<text text-anchor="middle" x="1448.5" y="-84.5" font-family="Helvetica,sans-Serif" font-size="10.00"> m_scenes</text>
</g>
<!-- Node11&#45;&gt;Node10 -->
<g id="edge11" class="edge"><title>Node11&#45;&gt;Node10</title>
<path fill="none" stroke="#9a32cd" stroke-dasharray="5,2" d="M1180.24,-97.5876C1213.37,-94.3624 1254.19,-90.389 1286.97,-87.198"/>
<polygon fill="#9a32cd" stroke="#9a32cd" points="1179.83,-94.1103 1170.22,-98.5628 1180.51,-101.077 1179.83,-94.1103"/>
<text text-anchor="middle" x="1228.5" y="-99.5" font-family="Helvetica,sans-Serif" font-size="10.00"> elements</text>
</g>
<!-- Node12&#45;&gt;Node11 -->
<g id="edge13" class="edge"><title>Node12&#45;&gt;Node11</title>
<path fill="none" stroke="orange" stroke-dasharray="5,2" d="M345.121,-104.176C402.929,-104.756 492.113,-105.5 569.5,-105.5 569.5,-105.5 569.5,-105.5 894.5,-105.5 953.543,-105.5 1021.38,-104.79 1066.57,-104.216"/>
<polygon fill="orange" stroke="orange" points="345.092,-100.675 335.057,-104.073 345.021,-107.675 345.092,-100.675"/>
<text text-anchor="middle" x="691.5" y="-108.5" font-family="Helvetica,sans-Serif" font-size="10.00"> &lt; sgl::Scene &gt;</text>
</g>
</g>
</svg>
        <g id="navigator" transform="translate(0 0)" fill="#404254">
                <rect fill="#f2f5e9" fill-opacity="0.5" stroke="#606060" stroke-width=".5" x="0" y="0" width="60" height="60"/>
                <use id="zoomplus" xlink:href="#zoomPlus" x="17" y="9" onmousedown="handleZoom(evt,'in')"/>
                <use id="zoomminus" xlink:href="#zoomMin" x="42" y="9" onmousedown="handleZoom(evt,'out')"/>
                <use id="reset" xlink:href="#resetDef" x="30" y="36" onmousedown="handleReset()"/>
                <g id="arrowUp" xlink:href="#dirArrow" transform="translate(30 24)" onmousedown="handlePan(0,-1)">
                  <use xlink:href="#rim" fill="#404040">
                        <set attributeName="fill" to="#808080" begin="arrowUp.mouseover" end="arrowUp.mouseout"/>
                  </use>
                  <path fill="none" stroke="white" stroke-width="1.5" d="M0,-3.0v7 M-2.5,-0.5L0,-3.0L2.5,-0.5"/>
                </g>
                <g id="arrowRight" xlink:href="#dirArrow" transform="rotate(90) translate(36 -43)" onmousedown="handlePan(1,0)">
                  <use xlink:href="#rim" fill="#404040">
                        <set attributeName="fill" to="#808080" begin="arrowRight.mouseover" end="arrowRight.mouseout"/>
                  </use>
                  <path fill="none" stroke="white" stroke-width="1.5" d="M0,-3.0v7 M-2.5,-0.5L0,-3.0L2.5,-0.5"/>
                </g>
                <g id="arrowDown" xlink:href="#dirArrow" transform="rotate(180) translate(-30 -48)" onmousedown="handlePan(0,1)">
                  <use xlink:href="#rim" fill="#404040">
                        <set attributeName="fill" to="#808080" begin="arrowDown.mouseover" end="arrowDown.mouseout"/>
                  </use>
                  <path fill="none" stroke="white" stroke-width="1.5" d="M0,-3.0v7 M-2.5,-0.5L0,-3.0L2.5,-0.5"/>
                </g>
                <g id="arrowLeft" xlink:href="#dirArrow" transform="rotate(270) translate(-36 17)" onmousedown="handlePan(-1,0)">
                  <use xlink:href="#rim" fill="#404040">
                        <set attributeName="fill" to="#808080" begin="arrowLeft.mouseover" end="arrowLeft.mouseout"/>
                  </use>
                  <path fill="none" stroke="white" stroke-width="1.5" d="M0,-3.0v7 M-2.5,-0.5L0,-3.0L2.5,-0.5"/>
                </g>
        </g>
        <svg viewBox="0 0 15 15" width="100%" height="30px" preserveAspectRatio="xMaxYMin meet">
         <g id="arrow_out" transform="scale(0.3 0.3)">
          <a xlink:href="classsgl_1_1Scene__coll__graph_org.svg" target="_base">
           <rect id="button" ry="5" rx="5" y="6" x="6" height="38" width="38"
                fill="#f2f5e9" fill-opacity="0.5" stroke="#606060" stroke-width="1.0"/>
           <path id="arrow"
             d="M 11.500037,31.436501 C 11.940474,20.09759 22.043105,11.32322 32.158766,21.979434 L 37.068811,17.246167 C 37.068811,17.246167 37.088388,32 37.088388,32 L 22.160133,31.978069 C 22.160133,31.978069 26.997745,27.140456 26.997745,27.140456 C 18.528582,18.264221 13.291696,25.230495 11.500037,31.436501 z"
             style="fill:#404040;"/>
          </a>
         </g>
        </svg>
</svg>
