<?xml version="1.0" encoding="UTF-8" standalone="no"?>
<!DOCTYPE svg PUBLIC "-//W3C//DTD SVG 1.1//EN"
 "http://www.w3.org/Graphics/SVG/1.1/DTD/svg11.dtd">
<!-- Generated by graphviz version 2.49.0 (20210828.1703)
 -->
<!-- Title: sgl::Scene Pages: 1 -->
<svg width="367pt" height="95pt"
 viewBox="0.00 0.00 367.00 95.00" xmlns="http://www.w3.org/2000/svg" xmlns:xlink="http://www.w3.org/1999/xlink">
<g id="graph0" class="graph" transform="scale(1 1) rotate(0) translate(4 91)">
<title>sgl::Scene</title>
<polygon fill="white" stroke="transparent" points="-4,4 -4,-91 363,-91 363,4 -4,4"/>
<!-- Node1 -->
<g id="node1" class="node">
<title>Node1</title>
<g id="a_node1"><a xlink:title="Base class which every user scene must derive from.">
<polygon fill="#bfbfbf" stroke="black" points="140,-0.5 140,-19.5 203,-19.5 203,-0.5 140,-0.5"/>
<text text-anchor="middle" x="171.5" y="-7.5" font-family="Helvetica,sans-Serif" font-size="10.00">sgl::Scene</text>
</a>
</g>
</g>
<!-- Node2 -->
<g id="node2" class="node">
<title>Node2</title>
<g id="a_node2"><a xlink:href="../../dc/dee/classsgl_1_1Graphics_1_1Node.html" target="_top" xlink:title="Abstract base class for a scene graph node.">
<polygon fill="white" stroke="black" points="0,-67.5 0,-86.5 103,-86.5 103,-67.5 0,-67.5"/>
<text text-anchor="middle" x="51.5" y="-74.5" font-family="Helvetica,sans-Serif" font-size="10.00">sgl::Graphics::Node</text>
</a>
</g>
</g>
<!-- Node2&#45;&gt;Node1 -->
<g id="edge1" class="edge">
<title>Node2&#45;&gt;Node1</title>
<path fill="none" stroke="midnightblue" d="M76.5,-62.46C100.29,-49.57 135.37,-30.57 155.57,-19.63"/>
<polygon fill="midnightblue" stroke="midnightblue" points="74.81,-59.39 67.68,-67.23 78.14,-65.55 74.81,-59.39"/>
</g>
<!-- Node3 -->
<g id="node3" class="node">
<title>Node3</title>
<g id="a_node3"><a xlink:href="../../de/dd2/classsgl_1_1SceneManager.html" target="_top" xlink:title="Scene manager, in charge of creating, handling and destroying scenes.">
<polygon fill="white" stroke="black" points="121,-67.5 121,-86.5 222,-86.5 222,-67.5 121,-67.5"/>
<text text-anchor="middle" x="171.5" y="-74.5" font-family="Helvetica,sans-Serif" font-size="10.00">sgl::SceneManager</text>
</a>
</g>
</g>
<!-- Node3&#45;&gt;Node1 -->
<g id="edge2" class="edge">
<title>Node3&#45;&gt;Node1</title>
<path fill="none" stroke="#9a32cd" stroke-dasharray="5,2" d="M171.5,-57.04C171.5,-44.67 171.5,-29.12 171.5,-19.63"/>
<polygon fill="#9a32cd" stroke="#9a32cd" points="168,-57.23 171.5,-67.23 175,-57.23 168,-57.23"/>
<text text-anchor="middle" x="212" y="-41" font-family="Helvetica,sans-Serif" font-size="10.00"> m_sceneManager</text>
</g>
<!-- Node4 -->
<g id="node4" class="node">
<title>Node4</title>
<g id="a_node4"><a xlink:href="../../df/d2e/classsgl_1_1RessourceManager.html" target="_top" xlink:title="Holds and loads ressources automatically.">
<polygon fill="white" stroke="black" points="240,-67.5 240,-86.5 359,-86.5 359,-67.5 240,-67.5"/>
<text text-anchor="middle" x="299.5" y="-74.5" font-family="Helvetica,sans-Serif" font-size="10.00">sgl::RessourceManager</text>
</a>
</g>
</g>
<!-- Node4&#45;&gt;Node1 -->
<g id="edge3" class="edge">
<title>Node4&#45;&gt;Node1</title>
<path fill="none" stroke="#9a32cd" stroke-dasharray="5,2" d="M284.3,-59.74C276.58,-52.25 266.68,-43.77 256.5,-38 239.93,-28.61 219.66,-22.01 203.07,-17.69"/>
<polygon fill="#9a32cd" stroke="#9a32cd" points="282.23,-62.62 291.74,-67.29 287.22,-57.71 282.23,-62.62"/>
<text text-anchor="middle" x="304" y="-41" font-family="Helvetica,sans-Serif" font-size="10.00"> m_ressources</text>
</g>
</g>
</svg>
