<?xml version="1.0" encoding="UTF-8" standalone="no"?>
<!DOCTYPE svg PUBLIC "-//W3C//DTD SVG 1.1//EN"
 "http://www.w3.org/Graphics/SVG/1.1/DTD/svg11.dtd">
<!-- Generated by graphviz version 2.38.0 (20140413.2041)
 -->
<!-- Title: C:/Users/Folaefolc/Documents/Code/Big&#45;Projects/ScriptWizards/SmallGameLibrary/include/Small/Scenes/ArkScene.hpp Pages: 1 -->
<svg width="1032pt" height="240pt"
 viewBox="0.00 0.00 1031.87 240.00" xmlns="http://www.w3.org/2000/svg" xmlns:xlink="http://www.w3.org/1999/xlink">
<g id="graph0" class="graph" transform="scale(1 1) rotate(0) translate(4 236)">
<title>C:/Users/Folaefolc/Documents/Code/Big&#45;Projects/ScriptWizards/SmallGameLibrary/include/Small/Scenes/ArkScene.hpp</title>
<polygon fill="white" stroke="none" points="-4,4 -4,-236 1027.87,-236 1027.87,4 -4,4"/>
<!-- Node1 -->
<g id="node1" class="node"><title>Node1</title>
<polygon fill="#bfbfbf" stroke="black" points="194.374,-168.5 194.374,-231.5 339.374,-231.5 339.374,-168.5 194.374,-168.5"/>
<text text-anchor="start" x="202.374" y="-219.5" font-family="Helvetica,sans-Serif" font-size="10.00">C:/Users/Folaefolc</text>
<text text-anchor="start" x="202.374" y="-208.5" font-family="Helvetica,sans-Serif" font-size="10.00">/Documents/Code/Big</text>
<text text-anchor="start" x="202.374" y="-197.5" font-family="Helvetica,sans-Serif" font-size="10.00">&#45;Projects/ScriptWizards</text>
<text text-anchor="start" x="202.374" y="-186.5" font-family="Helvetica,sans-Serif" font-size="10.00">/SmallGameLibrary/include</text>
<text text-anchor="middle" x="266.874" y="-175.5" font-family="Helvetica,sans-Serif" font-size="10.00">/Small/Scenes/ArkScene.hpp</text>
</g>
<!-- Node2 -->
<g id="node2" class="node"><title>Node2</title>
<g id="a_node2"><a xlink:href="../../db/de8/Scene_8hpp.html" target="_top" xlink:title="The base scene class and the scene states are defined here. ">
<polygon fill="white" stroke="black" points="301.874,-112.5 301.874,-131.5 415.874,-131.5 415.874,-112.5 301.874,-112.5"/>
<text text-anchor="middle" x="358.874" y="-119.5" font-family="Helvetica,sans-Serif" font-size="10.00">Small/Core/Scene.hpp</text>
</a>
</g>
</g>
<!-- Node1&#45;&gt;Node2 -->
<g id="edge1" class="edge"><title>Node1&#45;&gt;Node2</title>
<path fill="none" stroke="midnightblue" d="M304.029,-168.307C316.497,-158.008 329.865,-146.964 340.282,-138.359"/>
<polygon fill="midnightblue" stroke="midnightblue" points="342.773,-140.841 348.253,-131.774 338.315,-135.444 342.773,-140.841"/>
</g>
<!-- Node6 -->
<g id="node6" class="node"><title>Node6</title>
<polygon fill="white" stroke="#bfbfbf" points="58.3744,-0.5 58.3744,-19.5 99.3744,-19.5 99.3744,-0.5 58.3744,-0.5"/>
<text text-anchor="middle" x="78.8744" y="-7.5" font-family="Helvetica,sans-Serif" font-size="10.00">string</text>
</g>
<!-- Node1&#45;&gt;Node6 -->
<g id="edge17" class="edge"><title>Node1&#45;&gt;Node6</title>
<path fill="none" stroke="midnightblue" d="M194.127,-187.03C131.693,-172.497 45.4106,-141.28 3.8744,-76 -10.8717,-52.8245 21.8338,-33.3063 48.6093,-21.8778"/>
<polygon fill="midnightblue" stroke="midnightblue" points="50.1455,-25.0321 58.1068,-18.0416 47.5238,-18.5416 50.1455,-25.0321"/>
</g>
<!-- Node7 -->
<g id="node7" class="node"><title>Node7</title>
<g id="a_node7"><a xlink:href="../../df/db4/Config_8hpp.html" target="_top" xlink:title="Small/Scripting/Config.hpp">
<polygon fill="white" stroke="black" points="13.3744,-56.5 13.3744,-75.5 144.374,-75.5 144.374,-56.5 13.3744,-56.5"/>
<text text-anchor="middle" x="78.8744" y="-63.5" font-family="Helvetica,sans-Serif" font-size="10.00">Small/Scripting/Config.hpp</text>
</a>
</g>
</g>
<!-- Node1&#45;&gt;Node7 -->
<g id="edge16" class="edge"><title>Node1&#45;&gt;Node7</title>
<path fill="none" stroke="midnightblue" d="M223.271,-168.385C184.343,-141.053 129.045,-102.226 99.4499,-81.4466"/>
<polygon fill="midnightblue" stroke="midnightblue" points="101.332,-78.4919 91.1371,-75.61 97.31,-84.2208 101.332,-78.4919"/>
</g>
<!-- Node15 -->
<g id="node15" class="node"><title>Node15</title>
<polygon fill="white" stroke="#bfbfbf" points="433.874,-112.5 433.874,-131.5 501.874,-131.5 501.874,-112.5 433.874,-112.5"/>
<text text-anchor="middle" x="467.874" y="-119.5" font-family="Helvetica,sans-Serif" font-size="10.00">Ark/Ark.hpp</text>
</g>
<!-- Node1&#45;&gt;Node15 -->
<g id="edge15" class="edge"><title>Node1&#45;&gt;Node15</title>
<path fill="none" stroke="midnightblue" d="M339.44,-171.562C372.398,-159.1 409.71,-144.992 435.591,-135.207"/>
<polygon fill="midnightblue" stroke="midnightblue" points="437.141,-138.363 445.257,-131.552 434.665,-131.815 437.141,-138.363"/>
</g>
<!-- Node3 -->
<g id="node3" class="node"><title>Node3</title>
<polygon fill="white" stroke="#bfbfbf" points="306.874,-56.5 306.874,-75.5 410.874,-75.5 410.874,-56.5 306.874,-56.5"/>
<text text-anchor="middle" x="358.874" y="-63.5" font-family="Helvetica,sans-Serif" font-size="10.00">SFML/Graphics.hpp</text>
</g>
<!-- Node2&#45;&gt;Node3 -->
<g id="edge2" class="edge"><title>Node2&#45;&gt;Node3</title>
<path fill="none" stroke="midnightblue" d="M358.874,-112.083C358.874,-105.006 358.874,-94.8611 358.874,-85.9865"/>
<polygon fill="midnightblue" stroke="midnightblue" points="362.374,-85.751 358.874,-75.7511 355.374,-85.7511 362.374,-85.751"/>
</g>
<!-- Node4 -->
<g id="node4" class="node"><title>Node4</title>
<polygon fill="white" stroke="#bfbfbf" points="542.874,-56.5 542.874,-75.5 668.874,-75.5 668.874,-56.5 542.874,-56.5"/>
<text text-anchor="middle" x="605.874" y="-63.5" font-family="Helvetica,sans-Serif" font-size="10.00">SFML/System/Clock.hpp</text>
</g>
<!-- Node2&#45;&gt;Node4 -->
<g id="edge3" class="edge"><title>Node2&#45;&gt;Node4</title>
<path fill="none" stroke="midnightblue" d="M398.012,-112.444C441.101,-103.023 510.434,-87.8656 557.045,-77.6752"/>
<polygon fill="midnightblue" stroke="midnightblue" points="557.898,-81.0715 566.92,-75.5164 556.403,-74.2331 557.898,-81.0715"/>
</g>
<!-- Node5 -->
<g id="node5" class="node"><title>Node5</title>
<polygon fill="white" stroke="#bfbfbf" points="162.874,-56.5 162.874,-75.5 288.874,-75.5 288.874,-56.5 162.874,-56.5"/>
<text text-anchor="middle" x="225.874" y="-63.5" font-family="Helvetica,sans-Serif" font-size="10.00">SFML/Window/Event.hpp</text>
</g>
<!-- Node2&#45;&gt;Node5 -->
<g id="edge4" class="edge"><title>Node2&#45;&gt;Node5</title>
<path fill="none" stroke="midnightblue" d="M337.8,-112.444C315.815,-103.517 281.14,-89.4387 256.21,-79.3168"/>
<polygon fill="midnightblue" stroke="midnightblue" points="257.432,-76.0355 246.85,-75.5164 254.799,-82.5213 257.432,-76.0355"/>
</g>
<!-- Node2&#45;&gt;Node6 -->
<g id="edge5" class="edge"><title>Node2&#45;&gt;Node6</title>
<path fill="none" stroke="midnightblue" d="M377.47,-112.343C401.449,-100.047 438.034,-76.7136 419.874,-56 399.572,-32.8422 190.549,-17.7852 110.149,-12.8114"/>
<polygon fill="midnightblue" stroke="midnightblue" points="109.885,-9.28897 99.6914,-12.1767 109.461,-16.2761 109.885,-9.28897"/>
</g>
<!-- Node2&#45;&gt;Node7 -->
<g id="edge6" class="edge"><title>Node2&#45;&gt;Node7</title>
<path fill="none" stroke="midnightblue" d="M314.508,-112.444C265.253,-102.944 185.746,-87.611 132.903,-77.4198"/>
<polygon fill="midnightblue" stroke="midnightblue" points="133.516,-73.9735 123.034,-75.5164 132.19,-80.8469 133.516,-73.9735"/>
</g>
<!-- Node8 -->
<g id="node8" class="node"><title>Node8</title>
<g id="a_node8"><a xlink:href="../../d7/dc6/Node_8hpp.html" target="_top" xlink:title="A scene graph node. ">
<polygon fill="white" stroke="black" points="686.874,-56.5 686.874,-75.5 814.874,-75.5 814.874,-56.5 686.874,-56.5"/>
<text text-anchor="middle" x="750.874" y="-63.5" font-family="Helvetica,sans-Serif" font-size="10.00">Small/Graphics/Node.hpp</text>
</a>
</g>
</g>
<!-- Node2&#45;&gt;Node8 -->
<g id="edge8" class="edge"><title>Node2&#45;&gt;Node8</title>
<path fill="none" stroke="midnightblue" d="M415.875,-113.148C485.477,-103.56 603.263,-87.3342 679.011,-76.8996"/>
<polygon fill="midnightblue" stroke="midnightblue" points="679.522,-80.3623 688.951,-75.5303 678.567,-73.4278 679.522,-80.3623"/>
</g>
<!-- Node14 -->
<g id="node14" class="node"><title>Node14</title>
<polygon fill="white" stroke="#bfbfbf" points="467.374,-56.5 467.374,-75.5 524.374,-75.5 524.374,-56.5 467.374,-56.5"/>
<text text-anchor="middle" x="495.874" y="-63.5" font-family="Helvetica,sans-Serif" font-size="10.00">Scene.inl</text>
</g>
<!-- Node2&#45;&gt;Node14 -->
<g id="edge14" class="edge"><title>Node2&#45;&gt;Node14</title>
<path fill="none" stroke="midnightblue" d="M380.582,-112.444C403.229,-103.517 438.947,-89.4387 464.626,-79.3168"/>
<polygon fill="midnightblue" stroke="midnightblue" points="466.248,-82.4397 474.268,-75.5164 463.681,-75.9273 466.248,-82.4397"/>
</g>
<!-- Node7&#45;&gt;Node6 -->
<g id="edge7" class="edge"><title>Node7&#45;&gt;Node6</title>
<path fill="none" stroke="midnightblue" d="M78.8744,-56.083C78.8744,-49.0059 78.8744,-38.8611 78.8744,-29.9865"/>
<polygon fill="midnightblue" stroke="midnightblue" points="82.3745,-29.751 78.8744,-19.7511 75.3745,-29.7511 82.3745,-29.751"/>
</g>
<!-- Node9 -->
<g id="node9" class="node"><title>Node9</title>
<polygon fill="white" stroke="#bfbfbf" points="859.874,-0.5 859.874,-19.5 1023.87,-19.5 1023.87,-0.5 859.874,-0.5"/>
<text text-anchor="middle" x="941.874" y="-7.5" font-family="Helvetica,sans-Serif" font-size="10.00">SFML/Graphics/RenderTarget.hpp</text>
</g>
<!-- Node8&#45;&gt;Node9 -->
<g id="edge9" class="edge"><title>Node8&#45;&gt;Node9</title>
<path fill="none" stroke="midnightblue" d="M781.139,-56.4435C813.83,-47.2011 866.056,-32.4356 902.057,-22.2572"/>
<polygon fill="midnightblue" stroke="midnightblue" points="903.081,-25.6051 911.751,-19.5164 901.176,-18.8691 903.081,-25.6051"/>
</g>
<!-- Node10 -->
<g id="node10" class="node"><title>Node10</title>
<polygon fill="white" stroke="#bfbfbf" points="409.374,-0.5 409.374,-19.5 558.374,-19.5 558.374,-0.5 409.374,-0.5"/>
<text text-anchor="middle" x="483.874" y="-7.5" font-family="Helvetica,sans-Serif" font-size="10.00">SFML/Graphics/Transform.hpp</text>
</g>
<!-- Node8&#45;&gt;Node10 -->
<g id="edge10" class="edge"><title>Node8&#45;&gt;Node10</title>
<path fill="none" stroke="midnightblue" d="M708.567,-56.4435C661.795,-46.9839 586.414,-31.7384 536.025,-21.5472"/>
<polygon fill="midnightblue" stroke="midnightblue" points="536.479,-18.0683 525.983,-19.5164 535.091,-24.9294 536.479,-18.0683"/>
</g>
<!-- Node11 -->
<g id="node11" class="node"><title>Node11</title>
<polygon fill="white" stroke="#bfbfbf" points="576.374,-0.5 576.374,-19.5 711.374,-19.5 711.374,-0.5 576.374,-0.5"/>
<text text-anchor="middle" x="643.874" y="-7.5" font-family="Helvetica,sans-Serif" font-size="10.00">SFML/System/Vector2.hpp</text>
</g>
<!-- Node8&#45;&gt;Node11 -->
<g id="edge11" class="edge"><title>Node8&#45;&gt;Node11</title>
<path fill="none" stroke="midnightblue" d="M733.683,-56.324C716.524,-47.6641 689.929,-34.2424 670.127,-24.249"/>
<polygon fill="midnightblue" stroke="midnightblue" points="671.528,-21.0354 661.023,-19.6545 668.374,-27.2847 671.528,-21.0354"/>
</g>
<!-- Node12 -->
<g id="node12" class="node"><title>Node12</title>
<polygon fill="white" stroke="#bfbfbf" points="729.874,-0.5 729.874,-19.5 771.874,-19.5 771.874,-0.5 729.874,-0.5"/>
<text text-anchor="middle" x="750.874" y="-7.5" font-family="Helvetica,sans-Serif" font-size="10.00">vector</text>
</g>
<!-- Node8&#45;&gt;Node12 -->
<g id="edge12" class="edge"><title>Node8&#45;&gt;Node12</title>
<path fill="none" stroke="midnightblue" d="M750.874,-56.083C750.874,-49.0059 750.874,-38.8611 750.874,-29.9865"/>
<polygon fill="midnightblue" stroke="midnightblue" points="754.374,-29.751 750.874,-19.7511 747.374,-29.7511 754.374,-29.751"/>
</g>
<!-- Node13 -->
<g id="node13" class="node"><title>Node13</title>
<polygon fill="white" stroke="#bfbfbf" points="789.874,-0.5 789.874,-19.5 841.874,-19.5 841.874,-0.5 789.874,-0.5"/>
<text text-anchor="middle" x="815.874" y="-7.5" font-family="Helvetica,sans-Serif" font-size="10.00">memory</text>
</g>
<!-- Node8&#45;&gt;Node13 -->
<g id="edge13" class="edge"><title>Node8&#45;&gt;Node13</title>
<path fill="none" stroke="midnightblue" d="M761.318,-56.324C771.021,-48.2631 785.69,-36.0765 797.374,-26.3695"/>
<polygon fill="midnightblue" stroke="midnightblue" points="799.786,-28.9163 805.241,-19.8339 795.312,-23.532 799.786,-28.9163"/>
</g>
</g>
</svg>
