<?xml version="1.0" encoding="UTF-8" standalone="no"?>
<!DOCTYPE svg PUBLIC "-//W3C//DTD SVG 1.1//EN"
 "http://www.w3.org/Graphics/SVG/1.1/DTD/svg11.dtd">
<!-- Generated by graphviz version 2.49.0 (20210828.1703)
 -->
<!-- Title: C:/Users/folae/Documents/Code/Big&#45;Projects/ScriptWizards/SmallGameLibrary/include/Small/Scenes/ArkScene.hpp Pages: 1 -->
<!--zoomable 285 -->
<svg id="main" version="1.1" xmlns="http://www.w3.org/2000/svg" xmlns:xlink="http://www.w3.org/1999/xlink" xml:space="preserve" onload="init(evt)">
<style type="text/css"><![CDATA[
.edge:hover path { stroke: red; }
.edge:hover polygon { stroke: red; fill: red; }
]]></style>
<script type="text/javascript"><![CDATA[
var edges = document.getElementsByTagName('g');
if (edges && edges.length) {
  for (var i=0;i<edges.length;i++) {
    if (edges[i].id.substr(0,4)=='edge') {
      edges[i].setAttribute('class','edge');
    }
  }
}
]]></script>
        <defs>
                <circle id="rim" cx="0" cy="0" r="7"/>
                <circle id="rim2" cx="0" cy="0" r="3.5"/>
                <g id="zoomPlus">
                        <use xlink:href="#rim" fill="#404040">
                                <set attributeName="fill" to="#808080" begin="zoomplus.mouseover" end="zoomplus.mouseout"/>
                        </use>
                        <path d="M-4,0h8M0,-4v8" fill="none" stroke="white" stroke-width="1.5" pointer-events="none"/>
                </g>
                <g id="zoomMin">
                        <use xlink:href="#rim" fill="#404040">
                                <set attributeName="fill" to="#808080" begin="zoomminus.mouseover" end="zoomminus.mouseout"/>
                        </use>
                        <path d="M-4,0h8" fill="none" stroke="white" stroke-width="1.5" pointer-events="none"/>
                </g>
                <g id="dirArrow">
                        <path fill="none" stroke="white" stroke-width="1.5" d="M0,-3.0v7 M-2.5,-0.5L0,-3.0L2.5,-0.5"/>
                </g>
               <g id="resetDef">
                       <use xlink:href="#rim2" fill="#404040">
                               <set attributeName="fill" to="#808080" begin="reset.mouseover" end="reset.mouseout"/>
                       </use>
               </g>
        </defs>

<script type="text/javascript">
var viewWidth = 1248;
var viewHeight = 285;
var sectionId = 'dynsection-0';
</script>
<script xlink:href="../../svgpan.js"/>
<svg id="graph" class="graph">
<g id="viewport">
<title>C:/Users/folae/Documents/Code/Big&#45;Projects/ScriptWizards/SmallGameLibrary/include/Small/Scenes/ArkScene.hpp</title>
<polygon fill="white" stroke="transparent" points="-4,4 -4,-281 1243.5,-281 1243.5,4 -4,4"/>
<!-- Node1 -->
<g id="node1" class="node">
<title>Node1</title>
<g id="a_node1"><a xlink:title="Define a scene scriptable through ArkScript.">
<polygon fill="#bfbfbf" stroke="black" points="1038,-224.5 1038,-276.5 1201,-276.5 1201,-224.5 1038,-224.5"/>
<text text-anchor="start" x="1046" y="-264.5" font-family="Helvetica,sans-Serif" font-size="10.00">C:/Users/folae/Documents</text>
<text text-anchor="start" x="1046" y="-253.5" font-family="Helvetica,sans-Serif" font-size="10.00">/Code/Big&#45;Projects/ScriptWizards</text>
<text text-anchor="start" x="1046" y="-242.5" font-family="Helvetica,sans-Serif" font-size="10.00">/SmallGameLibrary/include/Small</text>
<text text-anchor="middle" x="1119.5" y="-231.5" font-family="Helvetica,sans-Serif" font-size="10.00">/Scenes/ArkScene.hpp</text>
</a>
</g>
</g>
<!-- Node2 -->
<g id="node2" class="node">
<title>Node2</title>
<g id="a_node2"><a xlink:href="../../db/de8/Scene_8hpp.html" target="_top" xlink:title="The base scene class and the scene states are defined here.">
<polygon fill="white" stroke="black" points="614.5,-168.5 614.5,-187.5 728.5,-187.5 728.5,-168.5 614.5,-168.5"/>
<text text-anchor="middle" x="671.5" y="-175.5" font-family="Helvetica,sans-Serif" font-size="10.00">Small/Core/Scene.hpp</text>
</a>
</g>
</g>
<!-- Node1&#45;&gt;Node2 -->
<g id="edge1" class="edge">
<title>Node1&#45;&gt;Node2</title>
<path fill="none" stroke="midnightblue" d="M1037.85,-236.65C950.96,-222.98 815.28,-201.63 735.71,-189.1"/>
<polygon fill="midnightblue" stroke="midnightblue" points="736.24,-185.65 725.82,-187.55 735.15,-192.56 736.24,-185.65"/>
</g>
<!-- Node3 -->
<g id="node3" class="node">
<title>Node3</title>
<g id="a_node3"><a xlink:title=" ">
<polygon fill="white" stroke="#bfbfbf" points="991,-0.5 991,-19.5 1032,-19.5 1032,-0.5 991,-0.5"/>
<text text-anchor="middle" x="1011.5" y="-7.5" font-family="Helvetica,sans-Serif" font-size="10.00">string</text>
</a>
</g>
</g>
<!-- Node1&#45;&gt;Node3 -->
<g id="edge27" class="edge">
<title>Node1&#45;&gt;Node3</title>
<path fill="none" stroke="midnightblue" d="M1126.8,-224.4C1133.7,-195.83 1140.79,-148.41 1124.5,-112 1106.54,-71.86 1063.88,-41.09 1036.42,-24.56"/>
<polygon fill="midnightblue" stroke="midnightblue" points="1038.14,-21.51 1027.74,-19.5 1034.62,-27.56 1038.14,-21.51"/>
</g>
<!-- Node7 -->
<g id="node7" class="node">
<title>Node7</title>
<g id="a_node7"><a xlink:href="../../df/db4/Config_8hpp.html" target="_top" xlink:title=" ">
<polygon fill="white" stroke="black" points="984,-112.5 984,-131.5 1115,-131.5 1115,-112.5 984,-112.5"/>
<text text-anchor="middle" x="1049.5" y="-119.5" font-family="Helvetica,sans-Serif" font-size="10.00">Small/Scripting/Config.hpp</text>
</a>
</g>
</g>
<!-- Node1&#45;&gt;Node7 -->
<g id="edge26" class="edge">
<title>Node1&#45;&gt;Node7</title>
<path fill="none" stroke="midnightblue" d="M1105.5,-224.2C1091.73,-199.32 1071.08,-162 1059.08,-140.31"/>
<polygon fill="midnightblue" stroke="midnightblue" points="1062.14,-138.6 1054.23,-131.55 1056.01,-141.99 1062.14,-138.6"/>
</g>
<!-- Node20 -->
<g id="node20" class="node">
<title>Node20</title>
<g id="a_node20"><a xlink:title=" ">
<polygon fill="white" stroke="#bfbfbf" points="1171.5,-168.5 1171.5,-187.5 1239.5,-187.5 1239.5,-168.5 1171.5,-168.5"/>
<text text-anchor="middle" x="1205.5" y="-175.5" font-family="Helvetica,sans-Serif" font-size="10.00">Ark/Ark.hpp</text>
</a>
</g>
</g>
<!-- Node1&#45;&gt;Node20 -->
<g id="edge25" class="edge">
<title>Node1&#45;&gt;Node20</title>
<path fill="none" stroke="midnightblue" d="M1150.06,-224.45C1162.41,-214.33 1176.24,-202.98 1187.01,-194.16"/>
<polygon fill="midnightblue" stroke="midnightblue" points="1189.38,-196.74 1194.89,-187.7 1184.94,-191.33 1189.38,-196.74"/>
</g>
<!-- Node2&#45;&gt;Node3 -->
<g id="edge2" class="edge">
<title>Node2&#45;&gt;Node3</title>
<path fill="none" stroke="midnightblue" d="M728.6,-176.28C783.26,-173.53 866.75,-163.84 931.5,-132 964.53,-115.76 973.07,-107.25 992.5,-76 1001.33,-61.8 1006.21,-43.32 1008.81,-29.7"/>
<polygon fill="midnightblue" stroke="midnightblue" points="1012.3,-30.04 1010.49,-19.6 1005.39,-28.89 1012.3,-30.04"/>
</g>
<!-- Node4 -->
<g id="node4" class="node">
<title>Node4</title>
<g id="a_node4"><a xlink:title=" ">
<polygon fill="white" stroke="#bfbfbf" points="196.5,-112.5 196.5,-131.5 300.5,-131.5 300.5,-112.5 196.5,-112.5"/>
<text text-anchor="middle" x="248.5" y="-119.5" font-family="Helvetica,sans-Serif" font-size="10.00">SFML/Graphics.hpp</text>
</a>
</g>
</g>
<!-- Node2&#45;&gt;Node4 -->
<g id="edge3" class="edge">
<title>Node2&#45;&gt;Node4</title>
<path fill="none" stroke="midnightblue" d="M614.39,-170.31C545.03,-162.09 424.21,-147.48 310.64,-132.13"/>
<polygon fill="midnightblue" stroke="midnightblue" points="311.11,-128.66 300.73,-130.79 310.17,-135.6 311.11,-128.66"/>
</g>
<!-- Node5 -->
<g id="node5" class="node">
<title>Node5</title>
<g id="a_node5"><a xlink:title=" ">
<polygon fill="white" stroke="#bfbfbf" points="464.5,-112.5 464.5,-131.5 590.5,-131.5 590.5,-112.5 464.5,-112.5"/>
<text text-anchor="middle" x="527.5" y="-119.5" font-family="Helvetica,sans-Serif" font-size="10.00">SFML/System/Clock.hpp</text>
</a>
</g>
</g>
<!-- Node2&#45;&gt;Node5 -->
<g id="edge4" class="edge">
<title>Node2&#45;&gt;Node5</title>
<path fill="none" stroke="midnightblue" d="M648.68,-168.44C624.67,-159.44 586.67,-145.19 559.63,-135.05"/>
<polygon fill="midnightblue" stroke="midnightblue" points="560.8,-131.75 550.21,-131.52 558.34,-138.3 560.8,-131.75"/>
</g>
<!-- Node6 -->
<g id="node6" class="node">
<title>Node6</title>
<g id="a_node6"><a xlink:title=" ">
<polygon fill="white" stroke="#bfbfbf" points="608.5,-112.5 608.5,-131.5 734.5,-131.5 734.5,-112.5 608.5,-112.5"/>
<text text-anchor="middle" x="671.5" y="-119.5" font-family="Helvetica,sans-Serif" font-size="10.00">SFML/Window/Event.hpp</text>
</a>
</g>
</g>
<!-- Node2&#45;&gt;Node6 -->
<g id="edge5" class="edge">
<title>Node2&#45;&gt;Node6</title>
<path fill="none" stroke="midnightblue" d="M671.5,-168.08C671.5,-161.01 671.5,-150.86 671.5,-141.99"/>
<polygon fill="midnightblue" stroke="midnightblue" points="675,-141.75 671.5,-131.75 668,-141.75 675,-141.75"/>
</g>
<!-- Node2&#45;&gt;Node7 -->
<g id="edge6" class="edge">
<title>Node2&#45;&gt;Node7</title>
<path fill="none" stroke="midnightblue" d="M728.91,-168.8C796.27,-159.18 907.91,-143.23 980.08,-132.92"/>
<polygon fill="midnightblue" stroke="midnightblue" points="980.58,-136.38 989.99,-131.5 979.59,-129.45 980.58,-136.38"/>
</g>
<!-- Node8 -->
<g id="node8" class="node">
<title>Node8</title>
<g id="a_node8"><a xlink:href="../../d7/dc6/Node_8hpp.html" target="_top" xlink:title="A scene graph node.">
<polygon fill="white" stroke="black" points="318.5,-112.5 318.5,-131.5 446.5,-131.5 446.5,-112.5 318.5,-112.5"/>
<text text-anchor="middle" x="382.5" y="-119.5" font-family="Helvetica,sans-Serif" font-size="10.00">Small/Graphics/Node.hpp</text>
</a>
</g>
</g>
<!-- Node2&#45;&gt;Node8 -->
<g id="edge8" class="edge">
<title>Node2&#45;&gt;Node8</title>
<path fill="none" stroke="midnightblue" d="M625.71,-168.44C574.76,-158.92 492.47,-143.55 437.93,-133.36"/>
<polygon fill="midnightblue" stroke="midnightblue" points="438.55,-129.91 428.08,-131.52 437.27,-136.79 438.55,-129.91"/>
</g>
<!-- Node14 -->
<g id="node14" class="node">
<title>Node14</title>
<g id="a_node14"><a xlink:href="../../dc/d6f/RessourceManager_8hpp.html" target="_top" xlink:title=" ">
<polygon fill="white" stroke="black" points="752.5,-112.5 752.5,-131.5 922.5,-131.5 922.5,-112.5 752.5,-112.5"/>
<text text-anchor="middle" x="837.5" y="-119.5" font-family="Helvetica,sans-Serif" font-size="10.00">Small/Core/RessourceManager.hpp</text>
</a>
</g>
</g>
<!-- Node2&#45;&gt;Node14 -->
<g id="edge14" class="edge">
<title>Node2&#45;&gt;Node14</title>
<path fill="none" stroke="midnightblue" d="M697.8,-168.44C725.85,-159.32 770.44,-144.81 801.68,-134.65"/>
<polygon fill="midnightblue" stroke="midnightblue" points="802.89,-137.94 811.32,-131.52 800.73,-131.28 802.89,-137.94"/>
</g>
<!-- Node19 -->
<g id="node19" class="node">
<title>Node19</title>
<g id="a_node19"><a xlink:title=" ">
<polygon fill="white" stroke="#bfbfbf" points="121,-112.5 121,-131.5 178,-131.5 178,-112.5 121,-112.5"/>
<text text-anchor="middle" x="149.5" y="-119.5" font-family="Helvetica,sans-Serif" font-size="10.00">Scene.inl</text>
</a>
</g>
</g>
<!-- Node2&#45;&gt;Node19 -->
<g id="edge24" class="edge">
<title>Node2&#45;&gt;Node19</title>
<path fill="none" stroke="midnightblue" d="M614.17,-174.27C525.09,-169.46 347.98,-157.61 188.07,-131.85"/>
<polygon fill="midnightblue" stroke="midnightblue" points="188.48,-128.37 178.05,-130.21 187.35,-135.28 188.48,-128.37"/>
</g>
<!-- Node7&#45;&gt;Node3 -->
<g id="edge7" class="edge">
<title>Node7&#45;&gt;Node3</title>
<path fill="none" stroke="midnightblue" d="M1046.52,-112.37C1040.36,-94.54 1026.11,-53.3 1017.81,-29.27"/>
<polygon fill="midnightblue" stroke="midnightblue" points="1021.04,-27.9 1014.47,-19.59 1014.43,-30.19 1021.04,-27.9"/>
</g>
<!-- Node9 -->
<g id="node9" class="node">
<title>Node9</title>
<g id="a_node9"><a xlink:title=" ">
<polygon fill="white" stroke="#bfbfbf" points="213.5,-56.5 213.5,-75.5 377.5,-75.5 377.5,-56.5 213.5,-56.5"/>
<text text-anchor="middle" x="295.5" y="-63.5" font-family="Helvetica,sans-Serif" font-size="10.00">SFML/Graphics/RenderTarget.hpp</text>
</a>
</g>
</g>
<!-- Node8&#45;&gt;Node9 -->
<g id="edge9" class="edge">
<title>Node8&#45;&gt;Node9</title>
<path fill="none" stroke="midnightblue" d="M368.52,-112.32C354.95,-103.9 334.12,-90.97 318.18,-81.07"/>
<polygon fill="midnightblue" stroke="midnightblue" points="319.79,-77.95 309.44,-75.65 316.09,-83.9 319.79,-77.95"/>
</g>
<!-- Node10 -->
<g id="node10" class="node">
<title>Node10</title>
<g id="a_node10"><a xlink:title=" ">
<polygon fill="white" stroke="#bfbfbf" points="396,-56.5 396,-75.5 545,-75.5 545,-56.5 396,-56.5"/>
<text text-anchor="middle" x="470.5" y="-63.5" font-family="Helvetica,sans-Serif" font-size="10.00">SFML/Graphics/Transform.hpp</text>
</a>
</g>
</g>
<!-- Node8&#45;&gt;Node10 -->
<g id="edge10" class="edge">
<title>Node8&#45;&gt;Node10</title>
<path fill="none" stroke="midnightblue" d="M396.64,-112.32C410.37,-103.9 431.44,-90.97 447.56,-81.07"/>
<polygon fill="midnightblue" stroke="midnightblue" points="449.7,-83.87 456.4,-75.65 446.04,-77.9 449.7,-83.87"/>
</g>
<!-- Node11 -->
<g id="node11" class="node">
<title>Node11</title>
<g id="a_node11"><a xlink:title=" ">
<polygon fill="white" stroke="#bfbfbf" points="0,-56.5 0,-75.5 135,-75.5 135,-56.5 0,-56.5"/>
<text text-anchor="middle" x="67.5" y="-63.5" font-family="Helvetica,sans-Serif" font-size="10.00">SFML/System/Vector2.hpp</text>
</a>
</g>
</g>
<!-- Node8&#45;&gt;Node11 -->
<g id="edge11" class="edge">
<title>Node8&#45;&gt;Node11</title>
<path fill="none" stroke="midnightblue" d="M332.59,-112.44C276.83,-102.89 186.61,-87.42 127.17,-77.23"/>
<polygon fill="midnightblue" stroke="midnightblue" points="127.63,-73.76 117.18,-75.52 126.44,-80.66 127.63,-73.76"/>
</g>
<!-- Node12 -->
<g id="node12" class="node">
<title>Node12</title>
<g id="a_node12"><a xlink:title=" ">
<polygon fill="white" stroke="#bfbfbf" points="153.5,-56.5 153.5,-75.5 195.5,-75.5 195.5,-56.5 153.5,-56.5"/>
<text text-anchor="middle" x="174.5" y="-63.5" font-family="Helvetica,sans-Serif" font-size="10.00">vector</text>
</a>
</g>
</g>
<!-- Node8&#45;&gt;Node12 -->
<g id="edge12" class="edge">
<title>Node8&#45;&gt;Node12</title>
<path fill="none" stroke="midnightblue" d="M346.92,-112.49C312.94,-104.26 260.07,-91.17 205.6,-76.22"/>
<polygon fill="midnightblue" stroke="midnightblue" points="206.34,-72.79 195.77,-73.51 204.48,-79.54 206.34,-72.79"/>
</g>
<!-- Node13 -->
<g id="node13" class="node">
<title>Node13</title>
<g id="a_node13"><a xlink:title=" ">
<polygon fill="white" stroke="#bfbfbf" points="563.5,-56.5 563.5,-75.5 615.5,-75.5 615.5,-56.5 563.5,-56.5"/>
<text text-anchor="middle" x="589.5" y="-63.5" font-family="Helvetica,sans-Serif" font-size="10.00">memory</text>
</a>
</g>
</g>
<!-- Node8&#45;&gt;Node13 -->
<g id="edge13" class="edge">
<title>Node8&#45;&gt;Node13</title>
<path fill="none" stroke="midnightblue" d="M415.3,-112.44C452.97,-102.62 514.59,-86.54 553.54,-76.38"/>
<polygon fill="midnightblue" stroke="midnightblue" points="554.62,-79.72 563.41,-73.81 552.85,-72.94 554.62,-79.72"/>
</g>
<!-- Node14&#45;&gt;Node3 -->
<g id="edge15" class="edge">
<title>Node14&#45;&gt;Node3</title>
<path fill="none" stroke="midnightblue" d="M842.69,-112.18C851.23,-98.38 869.5,-71.64 891.5,-56 918.75,-36.62 955.37,-24.49 980.96,-17.77"/>
<polygon fill="midnightblue" stroke="midnightblue" points="982,-21.12 990.85,-15.3 980.3,-14.32 982,-21.12"/>
</g>
<!-- Node14&#45;&gt;Node13 -->
<g id="edge16" class="edge">
<title>Node14&#45;&gt;Node13</title>
<path fill="none" stroke="midnightblue" d="M797.6,-112.47C755.72,-103.49 687.95,-88.9 629.5,-76 628.25,-75.72 626.98,-75.44 625.69,-75.16"/>
<polygon fill="midnightblue" stroke="midnightblue" points="626.27,-71.7 615.74,-72.94 624.74,-78.53 626.27,-71.7"/>
</g>
<!-- Node15 -->
<g id="node15" class="node">
<title>Node15</title>
<g id="a_node15"><a xlink:title=" ">
<polygon fill="white" stroke="#bfbfbf" points="900,-56.5 900,-75.5 983,-75.5 983,-56.5 900,-56.5"/>
<text text-anchor="middle" x="941.5" y="-63.5" font-family="Helvetica,sans-Serif" font-size="10.00">unordered_map</text>
</a>
</g>
</g>
<!-- Node14&#45;&gt;Node15 -->
<g id="edge17" class="edge">
<title>Node14&#45;&gt;Node15</title>
<path fill="none" stroke="midnightblue" d="M854.21,-112.32C870.81,-103.7 896.5,-90.36 915.72,-80.39"/>
<polygon fill="midnightblue" stroke="midnightblue" points="917.57,-83.37 924.83,-75.65 914.34,-77.16 917.57,-83.37"/>
</g>
<!-- Node16 -->
<g id="node16" class="node">
<title>Node16</title>
<g id="a_node16"><a xlink:title=" ">
<polygon fill="white" stroke="#bfbfbf" points="745,-0.5 745,-19.5 884,-19.5 884,-0.5 745,-0.5"/>
<text text-anchor="middle" x="814.5" y="-7.5" font-family="Helvetica,sans-Serif" font-size="10.00">SFML/Graphics/Texture.hpp</text>
</a>
</g>
</g>
<!-- Node14&#45;&gt;Node16 -->
<g id="edge18" class="edge">
<title>Node14&#45;&gt;Node16</title>
<path fill="none" stroke="midnightblue" d="M835.7,-112.37C831.98,-94.62 823.42,-53.67 818.39,-29.6"/>
<polygon fill="midnightblue" stroke="midnightblue" points="821.77,-28.66 816.3,-19.59 814.92,-30.1 821.77,-28.66"/>
</g>
<!-- Node17 -->
<g id="node17" class="node">
<title>Node17</title>
<g id="a_node17"><a xlink:title=" ">
<polygon fill="white" stroke="#bfbfbf" points="590.5,-0.5 590.5,-19.5 716.5,-19.5 716.5,-0.5 590.5,-0.5"/>
<text text-anchor="middle" x="653.5" y="-7.5" font-family="Helvetica,sans-Serif" font-size="10.00">SFML/Graphics/Font.hpp</text>
</a>
</g>
</g>
<!-- Node14&#45;&gt;Node17 -->
<g id="edge19" class="edge">
<title>Node14&#45;&gt;Node17</title>
<path fill="none" stroke="midnightblue" d="M775.41,-112.45C731.4,-105.07 677.59,-92.91 662.5,-76 651.49,-63.66 650.07,-44.41 650.91,-30.05"/>
<polygon fill="midnightblue" stroke="midnightblue" points="654.42,-30.12 651.92,-19.82 647.46,-29.43 654.42,-30.12"/>
</g>
<!-- Node18 -->
<g id="node18" class="node">
<title>Node18</title>
<g id="a_node18"><a xlink:href="../../db/d73/Ressource_8hpp.html" target="_top" xlink:title=" ">
<polygon fill="white" stroke="black" points="672,-56.5 672,-75.5 805,-75.5 805,-56.5 672,-56.5"/>
<text text-anchor="middle" x="738.5" y="-63.5" font-family="Helvetica,sans-Serif" font-size="10.00">Small/Core/Ressource.hpp</text>
</a>
</g>
</g>
<!-- Node14&#45;&gt;Node18 -->
<g id="edge20" class="edge">
<title>Node14&#45;&gt;Node18</title>
<path fill="none" stroke="midnightblue" d="M821.59,-112.32C805.86,-103.74 781.56,-90.49 763.29,-80.52"/>
<polygon fill="midnightblue" stroke="midnightblue" points="764.82,-77.37 754.37,-75.65 761.47,-83.52 764.82,-77.37"/>
</g>
<!-- Node18&#45;&gt;Node3 -->
<g id="edge21" class="edge">
<title>Node18&#45;&gt;Node3</title>
<path fill="none" stroke="midnightblue" d="M781.76,-56.44C837.37,-45.44 932.52,-26.62 981.07,-17.02"/>
<polygon fill="midnightblue" stroke="midnightblue" points="981.84,-20.44 990.97,-15.06 980.48,-13.57 981.84,-20.44"/>
</g>
<!-- Node18&#45;&gt;Node16 -->
<g id="edge22" class="edge">
<title>Node18&#45;&gt;Node16</title>
<path fill="none" stroke="midnightblue" d="M750.71,-56.32C762.28,-48.11 779.88,-35.6 793.66,-25.81"/>
<polygon fill="midnightblue" stroke="midnightblue" points="795.94,-28.48 802.07,-19.83 791.89,-22.77 795.94,-28.48"/>
</g>
<!-- Node18&#45;&gt;Node17 -->
<g id="edge23" class="edge">
<title>Node18&#45;&gt;Node17</title>
<path fill="none" stroke="midnightblue" d="M724.84,-56.32C711.58,-47.9 691.23,-34.97 675.65,-25.07"/>
<polygon fill="midnightblue" stroke="midnightblue" points="677.44,-22.06 667.12,-19.65 673.69,-27.97 677.44,-22.06"/>
</g>
</g>
</svg>
        <g id="navigator" transform="translate(0 0)" fill="#404254">
                <rect fill="#f2f5e9" fill-opacity="0.5" stroke="#606060" stroke-width=".5" x="0" y="0" width="60" height="60"/>
                <use id="zoomplus" xlink:href="#zoomPlus" x="17" y="9" onmousedown="handleZoom(evt,'in')"/>
                <use id="zoomminus" xlink:href="#zoomMin" x="42" y="9" onmousedown="handleZoom(evt,'out')"/>
                <use id="reset" xlink:href="#resetDef" x="30" y="36" onmousedown="handleReset()"/>
                <g id="arrowUp" xlink:href="#dirArrow" transform="translate(30 24)" onmousedown="handlePan(0,-1)">
                  <use xlink:href="#rim" fill="#404040">
                        <set attributeName="fill" to="#808080" begin="arrowUp.mouseover" end="arrowUp.mouseout"/>
                  </use>
                  <path fill="none" stroke="white" stroke-width="1.5" d="M0,-3.0v7 M-2.5,-0.5L0,-3.0L2.5,-0.5"/>
                </g>
                <g id="arrowRight" xlink:href="#dirArrow" transform="rotate(90) translate(36 -43)" onmousedown="handlePan(1,0)">
                  <use xlink:href="#rim" fill="#404040">
                        <set attributeName="fill" to="#808080" begin="arrowRight.mouseover" end="arrowRight.mouseout"/>
                  </use>
                  <path fill="none" stroke="white" stroke-width="1.5" d="M0,-3.0v7 M-2.5,-0.5L0,-3.0L2.5,-0.5"/>
                </g>
                <g id="arrowDown" xlink:href="#dirArrow" transform="rotate(180) translate(-30 -48)" onmousedown="handlePan(0,1)">
                  <use xlink:href="#rim" fill="#404040">
                        <set attributeName="fill" to="#808080" begin="arrowDown.mouseover" end="arrowDown.mouseout"/>
                  </use>
                  <path fill="none" stroke="white" stroke-width="1.5" d="M0,-3.0v7 M-2.5,-0.5L0,-3.0L2.5,-0.5"/>
                </g>
                <g id="arrowLeft" xlink:href="#dirArrow" transform="rotate(270) translate(-36 17)" onmousedown="handlePan(-1,0)">
                  <use xlink:href="#rim" fill="#404040">
                        <set attributeName="fill" to="#808080" begin="arrowLeft.mouseover" end="arrowLeft.mouseout"/>
                  </use>
                  <path fill="none" stroke="white" stroke-width="1.5" d="M0,-3.0v7 M-2.5,-0.5L0,-3.0L2.5,-0.5"/>
                </g>
        </g>
        <svg viewBox="0 0 15 15" width="100%" height="30px" preserveAspectRatio="xMaxYMin meet">
         <g id="arrow_out" transform="scale(0.3 0.3)">
          <a xlink:href="ArkScene_8hpp__incl_org.svg" target="_base">
           <rect id="button" ry="5" rx="5" y="6" x="6" height="38" width="38"
                fill="#f2f5e9" fill-opacity="0.5" stroke="#606060" stroke-width="1.0"/>
           <path id="arrow"
             d="M 11.500037,31.436501 C 11.940474,20.09759 22.043105,11.32322 32.158766,21.979434 L 37.068811,17.246167 C 37.068811,17.246167 37.088388,32 37.088388,32 L 22.160133,31.978069 C 22.160133,31.978069 26.997745,27.140456 26.997745,27.140456 C 18.528582,18.264221 13.291696,25.230495 11.500037,31.436501 z"
             style="fill:#404040;"/>
          </a>
         </g>
        </svg>
</svg>
