<?xml version="1.0" encoding="UTF-8" standalone="no"?>
<!DOCTYPE svg PUBLIC "-//W3C//DTD SVG 1.1//EN"
 "http://www.w3.org/Graphics/SVG/1.1/DTD/svg11.dtd">
<!-- Generated by graphviz version 2.38.0 (20140413.2041)
 -->
<!-- Title: include/Small/Scenes/ArkScene.hpp Pages: 1 -->
<!--zoomable 207 -->
<svg id="main" version="1.1" xmlns="http://www.w3.org/2000/svg" xmlns:xlink="http://www.w3.org/1999/xlink" xml:space="preserve" onload="init(evt)">
<style type="text/css"><![CDATA[
.edge:hover path { stroke: red; }
.edge:hover polygon { stroke: red; fill: red; }
]]></style>
<script type="text/javascript"><![CDATA[
var edges = document.getElementsByTagName('g');
if (edges && edges.length) {
  for (var i=0;i<edges.length;i++) {
    if (edges[i].id.substr(0,4)=='edge') {
      edges[i].setAttribute('class','edge');
    }
  }
}
]]></script>
        <defs>
                <circle id="rim" cx="0" cy="0" r="7"/>
                <circle id="rim2" cx="0" cy="0" r="3.5"/>
                <g id="zoomPlus">
                        <use xlink:href="#rim" fill="#404040">
                                <set attributeName="fill" to="#808080" begin="zoomplus.mouseover" end="zoomplus.mouseout"/>
                        </use>
                        <path d="M-4,0h8M0,-4v8" fill="none" stroke="white" stroke-width="1.5" pointer-events="none"/>
                </g>
                <g id="zoomMin">
                        <use xlink:href="#rim" fill="#404040">
                                <set attributeName="fill" to="#808080" begin="zoomminus.mouseover" end="zoomminus.mouseout"/>
                        </use>
                        <path d="M-4,0h8" fill="none" stroke="white" stroke-width="1.5" pointer-events="none"/>
                </g>
                <g id="dirArrow">
                        <path fill="none" stroke="white" stroke-width="1.5" d="M0,-3.0v7 M-2.5,-0.5L0,-3.0L2.5,-0.5"/>
                </g>
               <g id="resetDef">
                       <use xlink:href="#rim2" fill="#404040">
                               <set attributeName="fill" to="#808080" begin="reset.mouseover" end="reset.mouseout"/>
                       </use>
               </g>
        </defs>

<script type="text/javascript">
var viewWidth = 1032;
var viewHeight = 207;
var sectionId = 'dynsection-0';
</script>
<script xlink:href="../../svgpan.js"/>
<svg id="graph" class="graph">
<g id="viewport">
<title>include/Small/Scenes/ArkScene.hpp</title>
<polygon fill="white" stroke="none" points="-4,4 -4,-203 1028.12,-203 1028.12,4 -4,4"/>
<!-- Node1 -->
<g id="node1" class="node"><title>Node1</title>
<polygon fill="#bfbfbf" stroke="black" points="211.621,-168.5 211.621,-198.5 322.621,-198.5 322.621,-168.5 211.621,-168.5"/>
<text text-anchor="start" x="219.621" y="-186.5" font-family="Helvetica,sans-Serif" font-size="10.00">include/Small/Scenes</text>
<text text-anchor="middle" x="267.121" y="-175.5" font-family="Helvetica,sans-Serif" font-size="10.00">/ArkScene.hpp</text>
</g>
<!-- Node2 -->
<g id="node2" class="node"><title>Node2</title>
<g id="a_node2"><a xlink:href="../../db/de8/Scene_8hpp.html" target="_top" xlink:title="The base scene class and the scene states are defined here. ">
<polygon fill="white" stroke="black" points="302.121,-112.5 302.121,-131.5 416.121,-131.5 416.121,-112.5 302.121,-112.5"/>
<text text-anchor="middle" x="359.121" y="-119.5" font-family="Helvetica,sans-Serif" font-size="10.00">Small/Core/Scene.hpp</text>
</a>
</g>
</g>
<!-- Node1&#45;&gt;Node2 -->
<g id="edge1" class="edge"><title>Node1&#45;&gt;Node2</title>
<path fill="none" stroke="midnightblue" d="M288.924,-168.399C303.533,-158.951 322.694,-146.559 337.306,-137.109"/>
<polygon fill="midnightblue" stroke="midnightblue" points="339.238,-140.027 345.734,-131.658 335.436,-134.15 339.238,-140.027"/>
</g>
<!-- Node6 -->
<g id="node6" class="node"><title>Node6</title>
<polygon fill="white" stroke="#bfbfbf" points="58.621,-0.5 58.621,-19.5 99.621,-19.5 99.621,-0.5 58.621,-0.5"/>
<text text-anchor="middle" x="79.121" y="-7.5" font-family="Helvetica,sans-Serif" font-size="10.00">string</text>
</g>
<!-- Node1&#45;&gt;Node6 -->
<g id="edge17" class="edge"><title>Node1&#45;&gt;Node6</title>
<path fill="none" stroke="midnightblue" d="M211.372,-177.688C148.889,-168.975 50.3033,-144.526 4.12097,-76 -11.2306,-53.2211 21.6235,-33.6055 48.5974,-22.0471"/>
<polygon fill="midnightblue" stroke="midnightblue" points="50.2192,-25.1662 58.1689,-18.1624 47.5867,-18.6801 50.2192,-25.1662"/>
</g>
<!-- Node7 -->
<g id="node7" class="node"><title>Node7</title>
<g id="a_node7"><a xlink:href="../../df/db4/Config_8hpp.html" target="_top" xlink:title="Small/Scripting/Config.hpp">
<polygon fill="white" stroke="black" points="13.621,-56.5 13.621,-75.5 144.621,-75.5 144.621,-56.5 13.621,-56.5"/>
<text text-anchor="middle" x="79.121" y="-63.5" font-family="Helvetica,sans-Serif" font-size="10.00">Small/Scripting/Config.hpp</text>
</a>
</g>
</g>
<!-- Node1&#45;&gt;Node7 -->
<g id="edge16" class="edge"><title>Node1&#45;&gt;Node7</title>
<path fill="none" stroke="midnightblue" d="M244.068,-168.337C207.886,-146.108 138.174,-103.28 102.061,-81.0933"/>
<polygon fill="midnightblue" stroke="midnightblue" points="103.585,-77.922 93.2323,-75.6695 99.9206,-83.8863 103.585,-77.922"/>
</g>
<!-- Node15 -->
<g id="node15" class="node"><title>Node15</title>
<polygon fill="white" stroke="#bfbfbf" points="434.121,-112.5 434.121,-131.5 502.121,-131.5 502.121,-112.5 434.121,-112.5"/>
<text text-anchor="middle" x="468.121" y="-119.5" font-family="Helvetica,sans-Serif" font-size="10.00">Ark/Ark.hpp</text>
</g>
<!-- Node1&#45;&gt;Node15 -->
<g id="edge15" class="edge"><title>Node1&#45;&gt;Node15</title>
<path fill="none" stroke="midnightblue" d="M314.501,-168.475C349.632,-158.075 396.915,-144.078 429.704,-134.372"/>
<polygon fill="midnightblue" stroke="midnightblue" points="430.79,-137.701 439.385,-131.506 428.803,-130.989 430.79,-137.701"/>
</g>
<!-- Node3 -->
<g id="node3" class="node"><title>Node3</title>
<polygon fill="white" stroke="#bfbfbf" points="307.121,-56.5 307.121,-75.5 411.121,-75.5 411.121,-56.5 307.121,-56.5"/>
<text text-anchor="middle" x="359.121" y="-63.5" font-family="Helvetica,sans-Serif" font-size="10.00">SFML/Graphics.hpp</text>
</g>
<!-- Node2&#45;&gt;Node3 -->
<g id="edge2" class="edge"><title>Node2&#45;&gt;Node3</title>
<path fill="none" stroke="midnightblue" d="M359.121,-112.083C359.121,-105.006 359.121,-94.8611 359.121,-85.9865"/>
<polygon fill="midnightblue" stroke="midnightblue" points="362.621,-85.751 359.121,-75.7511 355.621,-85.7511 362.621,-85.751"/>
</g>
<!-- Node4 -->
<g id="node4" class="node"><title>Node4</title>
<polygon fill="white" stroke="#bfbfbf" points="543.121,-56.5 543.121,-75.5 669.121,-75.5 669.121,-56.5 543.121,-56.5"/>
<text text-anchor="middle" x="606.121" y="-63.5" font-family="Helvetica,sans-Serif" font-size="10.00">SFML/System/Clock.hpp</text>
</g>
<!-- Node2&#45;&gt;Node4 -->
<g id="edge3" class="edge"><title>Node2&#45;&gt;Node4</title>
<path fill="none" stroke="midnightblue" d="M398.259,-112.444C441.347,-103.023 510.68,-87.8656 557.292,-77.6752"/>
<polygon fill="midnightblue" stroke="midnightblue" points="558.144,-81.0715 567.166,-75.5164 556.649,-74.2331 558.144,-81.0715"/>
</g>
<!-- Node5 -->
<g id="node5" class="node"><title>Node5</title>
<polygon fill="white" stroke="#bfbfbf" points="163.121,-56.5 163.121,-75.5 289.121,-75.5 289.121,-56.5 163.121,-56.5"/>
<text text-anchor="middle" x="226.121" y="-63.5" font-family="Helvetica,sans-Serif" font-size="10.00">SFML/Window/Event.hpp</text>
</g>
<!-- Node2&#45;&gt;Node5 -->
<g id="edge4" class="edge"><title>Node2&#45;&gt;Node5</title>
<path fill="none" stroke="midnightblue" d="M338.047,-112.444C316.061,-103.517 281.387,-89.4387 256.457,-79.3168"/>
<polygon fill="midnightblue" stroke="midnightblue" points="257.679,-76.0355 247.097,-75.5164 255.045,-82.5213 257.679,-76.0355"/>
</g>
<!-- Node2&#45;&gt;Node6 -->
<g id="edge5" class="edge"><title>Node2&#45;&gt;Node6</title>
<path fill="none" stroke="midnightblue" d="M377.716,-112.343C401.696,-100.047 438.281,-76.7136 420.121,-56 399.818,-32.8422 190.795,-17.7852 110.396,-12.8114"/>
<polygon fill="midnightblue" stroke="midnightblue" points="110.132,-9.28897 99.938,-12.1767 109.708,-16.2761 110.132,-9.28897"/>
</g>
<!-- Node2&#45;&gt;Node7 -->
<g id="edge6" class="edge"><title>Node2&#45;&gt;Node7</title>
<path fill="none" stroke="midnightblue" d="M314.754,-112.444C265.499,-102.944 185.993,-87.611 133.15,-77.4198"/>
<polygon fill="midnightblue" stroke="midnightblue" points="133.762,-73.9735 123.28,-75.5164 132.436,-80.8469 133.762,-73.9735"/>
</g>
<!-- Node8 -->
<g id="node8" class="node"><title>Node8</title>
<g id="a_node8"><a xlink:href="../../d7/dc6/Node_8hpp.html" target="_top" xlink:title="A scene graph node. ">
<polygon fill="white" stroke="black" points="687.121,-56.5 687.121,-75.5 815.121,-75.5 815.121,-56.5 687.121,-56.5"/>
<text text-anchor="middle" x="751.121" y="-63.5" font-family="Helvetica,sans-Serif" font-size="10.00">Small/Graphics/Node.hpp</text>
</a>
</g>
</g>
<!-- Node2&#45;&gt;Node8 -->
<g id="edge8" class="edge"><title>Node2&#45;&gt;Node8</title>
<path fill="none" stroke="midnightblue" d="M416.121,-113.148C485.724,-103.56 603.51,-87.3342 679.257,-76.8996"/>
<polygon fill="midnightblue" stroke="midnightblue" points="679.769,-80.3623 689.198,-75.5303 678.813,-73.4278 679.769,-80.3623"/>
</g>
<!-- Node14 -->
<g id="node14" class="node"><title>Node14</title>
<polygon fill="white" stroke="#bfbfbf" points="467.621,-56.5 467.621,-75.5 524.621,-75.5 524.621,-56.5 467.621,-56.5"/>
<text text-anchor="middle" x="496.121" y="-63.5" font-family="Helvetica,sans-Serif" font-size="10.00">Scene.inl</text>
</g>
<!-- Node2&#45;&gt;Node14 -->
<g id="edge14" class="edge"><title>Node2&#45;&gt;Node14</title>
<path fill="none" stroke="midnightblue" d="M380.829,-112.444C403.476,-103.517 439.193,-89.4387 464.873,-79.3168"/>
<polygon fill="midnightblue" stroke="midnightblue" points="466.495,-82.4397 474.514,-75.5164 463.928,-75.9273 466.495,-82.4397"/>
</g>
<!-- Node7&#45;&gt;Node6 -->
<g id="edge7" class="edge"><title>Node7&#45;&gt;Node6</title>
<path fill="none" stroke="midnightblue" d="M79.121,-56.083C79.121,-49.0059 79.121,-38.8611 79.121,-29.9865"/>
<polygon fill="midnightblue" stroke="midnightblue" points="82.6211,-29.751 79.121,-19.7511 75.6211,-29.7511 82.6211,-29.751"/>
</g>
<!-- Node9 -->
<g id="node9" class="node"><title>Node9</title>
<polygon fill="white" stroke="#bfbfbf" points="860.121,-0.5 860.121,-19.5 1024.12,-19.5 1024.12,-0.5 860.121,-0.5"/>
<text text-anchor="middle" x="942.121" y="-7.5" font-family="Helvetica,sans-Serif" font-size="10.00">SFML/Graphics/RenderTarget.hpp</text>
</g>
<!-- Node8&#45;&gt;Node9 -->
<g id="edge9" class="edge"><title>Node8&#45;&gt;Node9</title>
<path fill="none" stroke="midnightblue" d="M781.385,-56.4435C814.076,-47.2011 866.303,-32.4356 902.304,-22.2572"/>
<polygon fill="midnightblue" stroke="midnightblue" points="903.327,-25.6051 911.998,-19.5164 901.423,-18.8691 903.327,-25.6051"/>
</g>
<!-- Node10 -->
<g id="node10" class="node"><title>Node10</title>
<polygon fill="white" stroke="#bfbfbf" points="409.621,-0.5 409.621,-19.5 558.621,-19.5 558.621,-0.5 409.621,-0.5"/>
<text text-anchor="middle" x="484.121" y="-7.5" font-family="Helvetica,sans-Serif" font-size="10.00">SFML/Graphics/Transform.hpp</text>
</g>
<!-- Node8&#45;&gt;Node10 -->
<g id="edge10" class="edge"><title>Node8&#45;&gt;Node10</title>
<path fill="none" stroke="midnightblue" d="M708.814,-56.4435C662.041,-46.9839 586.661,-31.7384 536.271,-21.5472"/>
<polygon fill="midnightblue" stroke="midnightblue" points="536.725,-18.0683 526.23,-19.5164 535.338,-24.9294 536.725,-18.0683"/>
</g>
<!-- Node11 -->
<g id="node11" class="node"><title>Node11</title>
<polygon fill="white" stroke="#bfbfbf" points="576.621,-0.5 576.621,-19.5 711.621,-19.5 711.621,-0.5 576.621,-0.5"/>
<text text-anchor="middle" x="644.121" y="-7.5" font-family="Helvetica,sans-Serif" font-size="10.00">SFML/System/Vector2.hpp</text>
</g>
<!-- Node8&#45;&gt;Node11 -->
<g id="edge11" class="edge"><title>Node8&#45;&gt;Node11</title>
<path fill="none" stroke="midnightblue" d="M733.93,-56.324C716.77,-47.6641 690.175,-34.2424 670.374,-24.249"/>
<polygon fill="midnightblue" stroke="midnightblue" points="671.774,-21.0354 661.27,-19.6545 668.62,-27.2847 671.774,-21.0354"/>
</g>
<!-- Node12 -->
<g id="node12" class="node"><title>Node12</title>
<polygon fill="white" stroke="#bfbfbf" points="730.121,-0.5 730.121,-19.5 772.121,-19.5 772.121,-0.5 730.121,-0.5"/>
<text text-anchor="middle" x="751.121" y="-7.5" font-family="Helvetica,sans-Serif" font-size="10.00">vector</text>
</g>
<!-- Node8&#45;&gt;Node12 -->
<g id="edge12" class="edge"><title>Node8&#45;&gt;Node12</title>
<path fill="none" stroke="midnightblue" d="M751.121,-56.083C751.121,-49.0059 751.121,-38.8611 751.121,-29.9865"/>
<polygon fill="midnightblue" stroke="midnightblue" points="754.621,-29.751 751.121,-19.7511 747.621,-29.7511 754.621,-29.751"/>
</g>
<!-- Node13 -->
<g id="node13" class="node"><title>Node13</title>
<polygon fill="white" stroke="#bfbfbf" points="790.121,-0.5 790.121,-19.5 842.121,-19.5 842.121,-0.5 790.121,-0.5"/>
<text text-anchor="middle" x="816.121" y="-7.5" font-family="Helvetica,sans-Serif" font-size="10.00">memory</text>
</g>
<!-- Node8&#45;&gt;Node13 -->
<g id="edge13" class="edge"><title>Node8&#45;&gt;Node13</title>
<path fill="none" stroke="midnightblue" d="M761.564,-56.324C771.267,-48.2631 785.936,-36.0765 797.621,-26.3695"/>
<polygon fill="midnightblue" stroke="midnightblue" points="800.032,-28.9163 805.488,-19.8339 795.559,-23.532 800.032,-28.9163"/>
</g>
</g>
</svg>
        <g id="navigator" transform="translate(0 0)" fill="#404254">
                <rect fill="#f2f5e9" fill-opacity="0.5" stroke="#606060" stroke-width=".5" x="0" y="0" width="60" height="60"/>
                <use id="zoomplus" xlink:href="#zoomPlus" x="17" y="9" onmousedown="handleZoom(evt,'in')"/>
                <use id="zoomminus" xlink:href="#zoomMin" x="42" y="9" onmousedown="handleZoom(evt,'out')"/>
                <use id="reset" xlink:href="#resetDef" x="30" y="36" onmousedown="handleReset()"/>
                <g id="arrowUp" xlink:href="#dirArrow" transform="translate(30 24)" onmousedown="handlePan(0,-1)">
                  <use xlink:href="#rim" fill="#404040">
                        <set attributeName="fill" to="#808080" begin="arrowUp.mouseover" end="arrowUp.mouseout"/>
                  </use>
                  <path fill="none" stroke="white" stroke-width="1.5" d="M0,-3.0v7 M-2.5,-0.5L0,-3.0L2.5,-0.5"/>
                </g>
                <g id="arrowRight" xlink:href="#dirArrow" transform="rotate(90) translate(36 -43)" onmousedown="handlePan(1,0)">
                  <use xlink:href="#rim" fill="#404040">
                        <set attributeName="fill" to="#808080" begin="arrowRight.mouseover" end="arrowRight.mouseout"/>
                  </use>
                  <path fill="none" stroke="white" stroke-width="1.5" d="M0,-3.0v7 M-2.5,-0.5L0,-3.0L2.5,-0.5"/>
                </g>
                <g id="arrowDown" xlink:href="#dirArrow" transform="rotate(180) translate(-30 -48)" onmousedown="handlePan(0,1)">
                  <use xlink:href="#rim" fill="#404040">
                        <set attributeName="fill" to="#808080" begin="arrowDown.mouseover" end="arrowDown.mouseout"/>
                  </use>
                  <path fill="none" stroke="white" stroke-width="1.5" d="M0,-3.0v7 M-2.5,-0.5L0,-3.0L2.5,-0.5"/>
                </g>
                <g id="arrowLeft" xlink:href="#dirArrow" transform="rotate(270) translate(-36 17)" onmousedown="handlePan(-1,0)">
                  <use xlink:href="#rim" fill="#404040">
                        <set attributeName="fill" to="#808080" begin="arrowLeft.mouseover" end="arrowLeft.mouseout"/>
                  </use>
                  <path fill="none" stroke="white" stroke-width="1.5" d="M0,-3.0v7 M-2.5,-0.5L0,-3.0L2.5,-0.5"/>
                </g>
        </g>
        <svg viewBox="0 0 15 15" width="100%" height="30px" preserveAspectRatio="xMaxYMin meet">
         <g id="arrow_out" transform="scale(0.3 0.3)">
          <a xlink:href="ArkScene_8hpp__incl_org.svg" target="_base">
           <rect id="button" ry="5" rx="5" y="6" x="6" height="38" width="38"
                fill="#f2f5e9" fill-opacity="0.5" stroke="#606060" stroke-width="1.0"/>
           <path id="arrow"
             d="M 11.500037,31.436501 C 11.940474,20.09759 22.043105,11.32322 32.158766,21.979434 L 37.068811,17.246167 C 37.068811,17.246167 37.088388,32 37.088388,32 L 22.160133,31.978069 C 22.160133,31.978069 26.997745,27.140456 26.997745,27.140456 C 18.528582,18.264221 13.291696,25.230495 11.500037,31.436501 z"
             style="fill:#404040;"/>
          </a>
         </g>
        </svg>
</svg>
