<?xml version="1.0" encoding="UTF-8" standalone="no"?>
<!DOCTYPE svg PUBLIC "-//W3C//DTD SVG 1.1//EN"
 "http://www.w3.org/Graphics/SVG/1.1/DTD/svg11.dtd">
<!-- Generated by graphviz version 2.49.0 (20210828.1703)
 -->
<!-- Title: sgl::Scripting::Config Pages: 1 -->
<svg width="144pt" height="185pt"
 viewBox="0.00 0.00 143.50 185.00" xmlns="http://www.w3.org/2000/svg" xmlns:xlink="http://www.w3.org/1999/xlink">
<g id="graph0" class="graph" transform="scale(1 1) rotate(0) translate(4 181)">
<title>sgl::Scripting::Config</title>
<polygon fill="white" stroke="transparent" points="-4,4 -4,-181 139.5,-181 139.5,4 -4,4"/>
<!-- Node1 -->
<g id="node1" class="node">
<title>Node1</title>
<g id="a_node1"><a xlink:title="Host the scripting engine configuration.">
<polygon fill="#bfbfbf" stroke="black" points="0,-0.5 0,-19.5 107,-19.5 107,-0.5 0,-0.5"/>
<text text-anchor="middle" x="53.5" y="-7.5" font-family="Helvetica,sans-Serif" font-size="10.00">sgl::Scripting::Config</text>
</a>
</g>
</g>
<!-- Node2 -->
<g id="node2" class="node">
<title>Node2</title>
<g id="a_node2"><a xlink:title=" ">
<polygon fill="white" stroke="#bfbfbf" points="23.5,-89.5 23.5,-108.5 83.5,-108.5 83.5,-89.5 23.5,-89.5"/>
<text text-anchor="middle" x="53.5" y="-96.5" font-family="Helvetica,sans-Serif" font-size="10.00">std::string</text>
</a>
</g>
</g>
<!-- Node2&#45;&gt;Node1 -->
<g id="edge1" class="edge">
<title>Node2&#45;&gt;Node1</title>
<path fill="none" stroke="#9a32cd" stroke-dasharray="5,2" d="M53.5,-79.19C53.5,-60.74 53.5,-33.41 53.5,-19.62"/>
<polygon fill="#9a32cd" stroke="#9a32cd" points="50,-79.34 53.5,-89.34 57,-79.34 50,-79.34"/>
<text text-anchor="middle" x="94.5" y="-63" font-family="Helvetica,sans-Serif" font-size="10.00"> arkscriptLibDir</text>
<text text-anchor="middle" x="94.5" y="-52" font-family="Helvetica,sans-Serif" font-size="10.00">compiledScriptsDir</text>
<text text-anchor="middle" x="94.5" y="-41" font-family="Helvetica,sans-Serif" font-size="10.00">scriptsDirectory</text>
</g>
<!-- Node3 -->
<g id="node3" class="node">
<title>Node3</title>
<g id="a_node3"><a xlink:title=" ">
<polygon fill="white" stroke="#bfbfbf" points="6,-146.5 6,-176.5 101,-176.5 101,-146.5 6,-146.5"/>
<text text-anchor="start" x="14" y="-164.5" font-family="Helvetica,sans-Serif" font-size="10.00">std::basic_string&lt;</text>
<text text-anchor="middle" x="53.5" y="-153.5" font-family="Helvetica,sans-Serif" font-size="10.00"> Char &gt;</text>
</a>
</g>
</g>
<!-- Node3&#45;&gt;Node2 -->
<g id="edge2" class="edge">
<title>Node3&#45;&gt;Node2</title>
<path fill="none" stroke="midnightblue" d="M53.5,-136.35C53.5,-126.51 53.5,-115.78 53.5,-108.54"/>
<polygon fill="midnightblue" stroke="midnightblue" points="50,-136.47 53.5,-146.47 57,-136.47 50,-136.47"/>
</g>
</g>
</svg>
