<?xml version="1.0" encoding="UTF-8" standalone="no"?>
<!DOCTYPE svg PUBLIC "-//W3C//DTD SVG 1.1//EN"
 "http://www.w3.org/Graphics/SVG/1.1/DTD/svg11.dtd">
<!-- Generated by graphviz version 2.38.0 (20140413.2041)
 -->
<!-- Title: sgl::Scenes::ArkScene Pages: 1 -->
<svg width="1614pt" height="229pt"
 viewBox="0.00 0.00 1614.00 229.00" xmlns="http://www.w3.org/2000/svg" xmlns:xlink="http://www.w3.org/1999/xlink">
<g id="graph0" class="graph" transform="scale(1 1) rotate(0) translate(4 225)">
<title>sgl::Scenes::ArkScene</title>
<polygon fill="white" stroke="none" points="-4,4 -4,-225 1610,-225 1610,4 -4,4"/>
<!-- Node1 -->
<g id="node1" class="node"><title>Node1</title>
<polygon fill="#bfbfbf" stroke="black" points="1067,-87.5 1067,-106.5 1184,-106.5 1184,-87.5 1067,-87.5"/>
<text text-anchor="middle" x="1125.5" y="-94.5" font-family="Helvetica,sans-Serif" font-size="10.00">sgl::Scenes::ArkScene</text>
</g>
<!-- Node2 -->
<g id="node2" class="node"><title>Node2</title>
<g id="a_node2"><a xlink:href="../../d8/dcf/classsgl_1_1Scene.html" target="_top" xlink:title="Base class which every user scene must derive from. ">
<polygon fill="white" stroke="black" points="862,-144.5 862,-163.5 925,-163.5 925,-144.5 862,-144.5"/>
<text text-anchor="middle" x="893.5" y="-151.5" font-family="Helvetica,sans-Serif" font-size="10.00">sgl::Scene</text>
</a>
</g>
</g>
<!-- Node2&#45;&gt;Node1 -->
<g id="edge1" class="edge"><title>Node2&#45;&gt;Node1</title>
<path fill="none" stroke="midnightblue" d="M934.809,-144.01C977.461,-133.44 1044.27,-116.883 1086.16,-106.501"/>
<polygon fill="midnightblue" stroke="midnightblue" points="933.907,-140.628 925.042,-146.431 935.591,-147.423 933.907,-140.628"/>
</g>
<!-- Node12 -->
<g id="node12" class="node"><title>Node12</title>
<polygon fill="white" stroke="#bfbfbf" points="1074,-126 1074,-156 1177,-156 1177,-126 1074,-126"/>
<text text-anchor="start" x="1082" y="-144" font-family="Helvetica,sans-Serif" font-size="10.00">std::unique_ptr&lt; sgl</text>
<text text-anchor="middle" x="1125.5" y="-133" font-family="Helvetica,sans-Serif" font-size="10.00">::Scene &gt;</text>
</g>
<!-- Node2&#45;&gt;Node12 -->
<g id="edge13" class="edge"><title>Node2&#45;&gt;Node12</title>
<path fill="none" stroke="#9a32cd" stroke-dasharray="5,2" d="M935.417,-151.687C974.144,-149.498 1032.38,-146.207 1073.99,-143.855"/>
<polygon fill="#9a32cd" stroke="#9a32cd" points="934.829,-148.215 925.042,-152.274 935.224,-155.204 934.829,-148.215"/>
<text text-anchor="middle" x="996" y="-155" font-family="Helvetica,sans-Serif" font-size="10.00"> ptr</text>
</g>
<!-- Node3 -->
<g id="node3" class="node"><title>Node3</title>
<g id="a_node3"><a xlink:href="../../dc/dee/classsgl_1_1Graphics_1_1Node.html" target="_top" xlink:title="Abstract base class for a scene graph node. ">
<polygon fill="white" stroke="black" points="640,-138.5 640,-157.5 743,-157.5 743,-138.5 640,-138.5"/>
<text text-anchor="middle" x="691.5" y="-145.5" font-family="Helvetica,sans-Serif" font-size="10.00">sgl::Graphics::Node</text>
</a>
</g>
</g>
<!-- Node3&#45;&gt;Node2 -->
<g id="edge2" class="edge"><title>Node3&#45;&gt;Node2</title>
<path fill="none" stroke="midnightblue" d="M753.577,-149.832C789.378,-150.906 833.066,-152.217 861.776,-153.078"/>
<polygon fill="midnightblue" stroke="midnightblue" points="753.327,-146.323 743.227,-149.522 753.118,-153.32 753.327,-146.323"/>
</g>
<!-- Node4 -->
<g id="node4" class="node"><title>Node4</title>
<polygon fill="white" stroke="#bfbfbf" points="355,-100 355,-130 501,-130 501,-100 355,-100"/>
<text text-anchor="start" x="363" y="-118" font-family="Helvetica,sans-Serif" font-size="10.00">std::vector&lt; std::shared</text>
<text text-anchor="middle" x="428" y="-107" font-family="Helvetica,sans-Serif" font-size="10.00">_ptr&lt; sgl::Graphics::Node &gt; &gt;</text>
</g>
<!-- Node4&#45;&gt;Node3 -->
<g id="edge3" class="edge"><title>Node4&#45;&gt;Node3</title>
<path fill="none" stroke="#9a32cd" stroke-dasharray="5,2" d="M511.117,-125.363C553.241,-130.679 603.218,-136.985 639.708,-141.59"/>
<polygon fill="#9a32cd" stroke="#9a32cd" points="511.508,-121.884 501.148,-124.105 510.631,-128.829 511.508,-121.884"/>
<text text-anchor="middle" x="570.5" y="-143" font-family="Helvetica,sans-Serif" font-size="10.00"> m_children</text>
</g>
<!-- Node5 -->
<g id="node5" class="node"><title>Node5</title>
<g id="a_node5"><a xlink:title="STL class. ">
<polygon fill="white" stroke="#bfbfbf" points="117,-91.5 117,-110.5 202,-110.5 202,-91.5 117,-91.5"/>
<text text-anchor="middle" x="159.5" y="-98.5" font-family="Helvetica,sans-Serif" font-size="10.00">std::vector&lt; T &gt;</text>
</a>
</g>
</g>
<!-- Node5&#45;&gt;Node4 -->
<g id="edge4" class="edge"><title>Node5&#45;&gt;Node4</title>
<path fill="none" stroke="orange" stroke-dasharray="5,2" d="M212.343,-103.723C252.903,-105.854 309.777,-108.842 354.793,-111.207"/>
<polygon fill="orange" stroke="orange" points="212.31,-100.217 202.141,-103.188 211.943,-107.207 212.31,-100.217"/>
<text text-anchor="start" x="229" y="-125" font-family="Helvetica,sans-Serif" font-size="10.00"> &lt; std::shared_ptr&lt;</text>
<text text-anchor="middle" x="283" y="-114" font-family="Helvetica,sans-Serif" font-size="10.00"> sgl::Graphics::Node &gt; &gt;</text>
</g>
<!-- Node11 -->
<g id="node11" class="node"><title>Node11</title>
<polygon fill="white" stroke="#bfbfbf" points="1301,-76 1301,-106 1420,-106 1420,-76 1301,-76"/>
<text text-anchor="start" x="1309" y="-94" font-family="Helvetica,sans-Serif" font-size="10.00">std::vector&lt; std::unique</text>
<text text-anchor="middle" x="1360.5" y="-83" font-family="Helvetica,sans-Serif" font-size="10.00">_ptr&lt; sgl::Scene &gt; &gt;</text>
</g>
<!-- Node5&#45;&gt;Node11 -->
<g id="edge16" class="edge"><title>Node5&#45;&gt;Node11</title>
<path fill="none" stroke="orange" stroke-dasharray="5,2" d="M207.055,-89.1403C259.972,-76.7201 349.116,-59 427,-59 427,-59 427,-59 1126.5,-59 1186.32,-59 1253.98,-69.4796 1300.91,-78.4446"/>
<polygon fill="orange" stroke="orange" points="206.203,-85.7452 197.288,-91.4695 207.827,-92.5543 206.203,-85.7452"/>
<text text-anchor="start" x="761" y="-73" font-family="Helvetica,sans-Serif" font-size="10.00"> &lt; std::unique_ptr&lt;</text>
<text text-anchor="middle" x="802.5" y="-62" font-family="Helvetica,sans-Serif" font-size="10.00"> sgl::Scene &gt; &gt;</text>
</g>
<!-- Node6 -->
<g id="node6" class="node"><title>Node6</title>
<polygon fill="white" stroke="#bfbfbf" points="0,-91.5 0,-110.5 29,-110.5 29,-91.5 0,-91.5"/>
<text text-anchor="middle" x="14.5" y="-98.5" font-family="Helvetica,sans-Serif" font-size="10.00">T</text>
</g>
<!-- Node6&#45;&gt;Node5 -->
<g id="edge5" class="edge"><title>Node6&#45;&gt;Node5</title>
<path fill="none" stroke="#9a32cd" stroke-dasharray="5,2" d="M39.2186,-101C60.3014,-101 91.6043,-101 116.853,-101"/>
<polygon fill="#9a32cd" stroke="#9a32cd" points="39.2115,-97.5001 29.2114,-101 39.2114,-104.5 39.2115,-97.5001"/>
<text text-anchor="middle" x="68.5" y="-104" font-family="Helvetica,sans-Serif" font-size="10.00"> elements</text>
</g>
<!-- Node9 -->
<g id="node9" class="node"><title>Node9</title>
<g id="a_node9"><a xlink:title="STL class. ">
<polygon fill="white" stroke="#bfbfbf" points="108,-13 108,-43 211,-43 211,-13 108,-13"/>
<text text-anchor="start" x="116" y="-31" font-family="Helvetica,sans-Serif" font-size="10.00">std::unordered_map</text>
<text text-anchor="middle" x="159.5" y="-20" font-family="Helvetica,sans-Serif" font-size="10.00">&lt; K, T &gt;</text>
</a>
</g>
</g>
<!-- Node6&#45;&gt;Node9 -->
<g id="edge10" class="edge"><title>Node6&#45;&gt;Node9</title>
<path fill="none" stroke="#9a32cd" stroke-dasharray="5,2" d="M38.1542,-89.4353C62.7273,-76.891 102.047,-56.8185 129.013,-43.053"/>
<polygon fill="#9a32cd" stroke="#9a32cd" points="36.5267,-86.3364 29.2114,-94.0005 39.7094,-92.571 36.5267,-86.3364"/>
<text text-anchor="middle" x="68.5" y="-87" font-family="Helvetica,sans-Serif" font-size="10.00"> elements</text>
</g>
<!-- Node13 -->
<g id="node13" class="node"><title>Node13</title>
<g id="a_node13"><a xlink:title="STL class. ">
<polygon fill="white" stroke="#bfbfbf" points="231,-165.5 231,-184.5 335,-184.5 335,-165.5 231,-165.5"/>
<text text-anchor="middle" x="283" y="-172.5" font-family="Helvetica,sans-Serif" font-size="10.00">std::unique_ptr&lt; T &gt;</text>
</a>
</g>
</g>
<!-- Node6&#45;&gt;Node13 -->
<g id="edge15" class="edge"><title>Node6&#45;&gt;Node13</title>
<path fill="none" stroke="#9a32cd" stroke-dasharray="5,2" d="M38.3824,-112.54C41.2485,-113.793 44.1679,-114.982 47,-116 109.344,-138.419 183.926,-155.584 232.09,-165.475"/>
<polygon fill="#9a32cd" stroke="#9a32cd" points="39.589,-109.24 29.0477,-108.177 36.625,-115.582 39.589,-109.24"/>
<text text-anchor="middle" x="68.5" y="-133" font-family="Helvetica,sans-Serif" font-size="10.00"> ptr</text>
</g>
<!-- Node7 -->
<g id="node7" class="node"><title>Node7</title>
<g id="a_node7"><a xlink:href="../../de/dd2/classsgl_1_1SceneManager.html" target="_top" xlink:title="Scene manager, in charge of creating, handling and destroying scenes. ">
<polygon fill="white" stroke="black" points="1505,-81.5 1505,-100.5 1606,-100.5 1606,-81.5 1505,-81.5"/>
<text text-anchor="middle" x="1555.5" y="-88.5" font-family="Helvetica,sans-Serif" font-size="10.00">sgl::SceneManager</text>
</a>
</g>
</g>
<!-- Node7&#45;&gt;Node2 -->
<g id="edge6" class="edge"><title>Node7&#45;&gt;Node2</title>
<path fill="none" stroke="#9a32cd" stroke-dasharray="5,2" d="M1502.44,-102.712C1497.23,-103.842 1492.01,-104.955 1487,-106 1352.69,-133.995 1320.46,-150.817 1184,-165 1124.31,-171.203 1109,-166.556 1049,-167 1001.89,-167.349 989.708,-173.151 943,-167 937.123,-166.226 930.946,-164.946 925.043,-163.483"/>
<polygon fill="#9a32cd" stroke="#9a32cd" points="1503.39,-106.089 1512.41,-100.533 1501.89,-99.2502 1503.39,-106.089"/>
<text text-anchor="middle" x="1242.5" y="-167" font-family="Helvetica,sans-Serif" font-size="10.00"> m_sceneManager</text>
</g>
<!-- Node8 -->
<g id="node8" class="node"><title>Node8</title>
<polygon fill="white" stroke="#bfbfbf" points="519,-0.5 519,-41.5 622,-41.5 622,-0.5 519,-0.5"/>
<text text-anchor="start" x="527" y="-29.5" font-family="Helvetica,sans-Serif" font-size="10.00">std::unordered_map</text>
<text text-anchor="start" x="527" y="-18.5" font-family="Helvetica,sans-Serif" font-size="10.00">&lt; std::size_t, std::</text>
<text text-anchor="middle" x="570.5" y="-7.5" font-family="Helvetica,sans-Serif" font-size="10.00">size_t &gt;</text>
</g>
<!-- Node8&#45;&gt;Node7 -->
<g id="edge7" class="edge"><title>Node8&#45;&gt;Node7</title>
<path fill="none" stroke="#9a32cd" stroke-dasharray="5,2" d="M632.384,-21C678.745,-21 744.145,-21 801.5,-21 801.5,-21 801.5,-21 1361.5,-21 1431.36,-21 1507.38,-62.0327 1539.18,-81.2668"/>
<polygon fill="#9a32cd" stroke="#9a32cd" points="632.203,-17.5001 622.203,-21 632.203,-24.5001 632.203,-17.5001"/>
<text text-anchor="middle" x="996" y="-24" font-family="Helvetica,sans-Serif" font-size="10.00"> m_hashCodeToSceneId</text>
</g>
<!-- Node9&#45;&gt;Node8 -->
<g id="edge8" class="edge"><title>Node9&#45;&gt;Node8</title>
<path fill="none" stroke="orange" stroke-dasharray="5,2" d="M221.367,-23.3446C223.945,-23.2146 226.498,-23.0986 229,-23 331.929,-18.9457 452.493,-19.484 518.997,-20.2413"/>
<polygon fill="orange" stroke="orange" points="221.14,-19.8517 211.352,-23.9076 221.533,-26.8407 221.14,-19.8517"/>
<text text-anchor="start" x="244" y="-37" font-family="Helvetica,sans-Serif" font-size="10.00"> &lt; std::size_t, std</text>
<text text-anchor="middle" x="283" y="-26" font-family="Helvetica,sans-Serif" font-size="10.00">::size_t &gt;</text>
</g>
<!-- Node10 -->
<g id="node10" class="node"><title>Node10</title>
<polygon fill="white" stroke="#bfbfbf" points="0,-18.5 0,-37.5 29,-37.5 29,-18.5 0,-18.5"/>
<text text-anchor="middle" x="14.5" y="-25.5" font-family="Helvetica,sans-Serif" font-size="10.00">K</text>
</g>
<!-- Node10&#45;&gt;Node9 -->
<g id="edge9" class="edge"><title>Node10&#45;&gt;Node9</title>
<path fill="none" stroke="#9a32cd" stroke-dasharray="5,2" d="M39.4483,-28C58.0959,-28 84.6375,-28 107.929,-28"/>
<polygon fill="#9a32cd" stroke="#9a32cd" points="39.2115,-24.5001 29.2114,-28 39.2114,-31.5001 39.2115,-24.5001"/>
<text text-anchor="middle" x="68.5" y="-31" font-family="Helvetica,sans-Serif" font-size="10.00"> keys</text>
</g>
<!-- Node11&#45;&gt;Node7 -->
<g id="edge11" class="edge"><title>Node11&#45;&gt;Node7</title>
<path fill="none" stroke="#9a32cd" stroke-dasharray="5,2" d="M1430.21,-91C1454.86,-91 1482.15,-91 1504.87,-91"/>
<polygon fill="#9a32cd" stroke="#9a32cd" points="1430.19,-87.5001 1420.19,-91 1430.19,-94.5001 1430.19,-87.5001"/>
<text text-anchor="middle" x="1462.5" y="-94" font-family="Helvetica,sans-Serif" font-size="10.00"> m_scenes</text>
</g>
<!-- Node12&#45;&gt;Node11 -->
<g id="edge12" class="edge"><title>Node12&#45;&gt;Node11</title>
<path fill="none" stroke="#9a32cd" stroke-dasharray="5,2" d="M1187.16,-127.982C1222.22,-120.46 1266.1,-111.042 1300.82,-103.593"/>
<polygon fill="#9a32cd" stroke="#9a32cd" points="1186.1,-124.63 1177.06,-130.151 1187.57,-131.475 1186.1,-124.63"/>
<text text-anchor="middle" x="1242.5" y="-127" font-family="Helvetica,sans-Serif" font-size="10.00"> elements</text>
</g>
<!-- Node13&#45;&gt;Node12 -->
<g id="edge14" class="edge"><title>Node13&#45;&gt;Node12</title>
<path fill="none" stroke="orange" stroke-dasharray="5,2" d="M342.011,-186.321C399.516,-196.546 490.24,-210 569.5,-210 569.5,-210 569.5,-210 894.5,-210 968.914,-210 1051.38,-176.454 1094.49,-156.142"/>
<polygon fill="orange" stroke="orange" points="342.485,-182.85 332.022,-184.518 341.241,-189.739 342.485,-182.85"/>
<text text-anchor="middle" x="691.5" y="-213" font-family="Helvetica,sans-Serif" font-size="10.00"> &lt; sgl::Scene &gt;</text>
</g>
<!-- Node14 -->
<g id="node14" class="node"><title>Node14</title>
<g id="a_node14"><a xlink:title="STL class. ">
<polygon fill="white" stroke="#bfbfbf" points="863.5,-90.5 863.5,-109.5 923.5,-109.5 923.5,-90.5 863.5,-90.5"/>
<text text-anchor="middle" x="893.5" y="-97.5" font-family="Helvetica,sans-Serif" font-size="10.00">std::string</text>
</a>
</g>
</g>
<!-- Node14&#45;&gt;Node1 -->
<g id="edge17" class="edge"><title>Node14&#45;&gt;Node1</title>
<path fill="none" stroke="#9a32cd" stroke-dasharray="5,2" d="M934.012,-97.3529C937.052,-97.2113 940.075,-97.0904 943,-97 984.416,-95.7203 1031.17,-95.7553 1066.86,-96.092"/>
<polygon fill="#9a32cd" stroke="#9a32cd" points="933.524,-93.8738 923.724,-97.8994 933.895,-100.864 933.524,-93.8738"/>
<text text-anchor="middle" x="996" y="-100" font-family="Helvetica,sans-Serif" font-size="10.00"> m_scriptName</text>
</g>
<!-- Node15 -->
<g id="node15" class="node"><title>Node15</title>
<g id="a_node15"><a xlink:title="STL class. ">
<polygon fill="white" stroke="#bfbfbf" points="644,-88 644,-118 739,-118 739,-88 644,-88"/>
<text text-anchor="start" x="652" y="-106" font-family="Helvetica,sans-Serif" font-size="10.00">std::basic_string&lt;</text>
<text text-anchor="middle" x="691.5" y="-95" font-family="Helvetica,sans-Serif" font-size="10.00"> char &gt;</text>
</a>
</g>
</g>
<!-- Node15&#45;&gt;Node14 -->
<g id="edge18" class="edge"><title>Node15&#45;&gt;Node14</title>
<path fill="none" stroke="midnightblue" d="M749.355,-102.147C786.586,-101.589 833.687,-100.882 863.466,-100.436"/>
<polygon fill="midnightblue" stroke="midnightblue" points="749.085,-98.6507 739.139,-102.3 749.19,-105.65 749.085,-98.6507"/>
</g>
</g>
</svg>
