<?xml version="1.0" encoding="UTF-8" standalone="no"?>
<!DOCTYPE svg PUBLIC "-//W3C//DTD SVG 1.1//EN"
 "http://www.w3.org/Graphics/SVG/1.1/DTD/svg11.dtd">
<!-- Generated by graphviz version 2.38.0 (20140413.2041)
 -->
<!-- Title: sgl::Scenes::ArkScene Pages: 1 -->
<svg width="1614pt" height="224pt"
 viewBox="0.00 0.00 1614.00 223.50" xmlns="http://www.w3.org/2000/svg" xmlns:xlink="http://www.w3.org/1999/xlink">
<g id="graph0" class="graph" transform="scale(1 1) rotate(0) translate(4 219.5)">
<title>sgl::Scenes::ArkScene</title>
<polygon fill="white" stroke="none" points="-4,4 -4,-219.5 1610,-219.5 1610,4 -4,4"/>
<!-- Node1 -->
<g id="node1" class="node"><title>Node1</title>
<polygon fill="#bfbfbf" stroke="black" points="1067,-82 1067,-101 1184,-101 1184,-82 1067,-82"/>
<text text-anchor="middle" x="1125.5" y="-89" font-family="Helvetica,sans-Serif" font-size="10.00">sgl::Scenes::ArkScene</text>
</g>
<!-- Node2 -->
<g id="node2" class="node"><title>Node2</title>
<g id="a_node2"><a xlink:href="../../d8/dcf/classsgl_1_1Scene.html" target="_top" xlink:title="Base class which every user scene must derive from. ">
<polygon fill="white" stroke="black" points="862,-139 862,-158 925,-158 925,-139 862,-139"/>
<text text-anchor="middle" x="893.5" y="-146" font-family="Helvetica,sans-Serif" font-size="10.00">sgl::Scene</text>
</a>
</g>
</g>
<!-- Node2&#45;&gt;Node1 -->
<g id="edge1" class="edge"><title>Node2&#45;&gt;Node1</title>
<path fill="none" stroke="midnightblue" d="M934.809,-138.51C977.461,-127.94 1044.27,-111.383 1086.16,-101.001"/>
<polygon fill="midnightblue" stroke="midnightblue" points="933.907,-135.128 925.042,-140.931 935.591,-141.923 933.907,-135.128"/>
</g>
<!-- Node12 -->
<g id="node12" class="node"><title>Node12</title>
<polygon fill="white" stroke="#bfbfbf" points="1074,-120.5 1074,-150.5 1177,-150.5 1177,-120.5 1074,-120.5"/>
<text text-anchor="start" x="1082" y="-138.5" font-family="Helvetica,sans-Serif" font-size="10.00">std::unique_ptr&lt; sgl</text>
<text text-anchor="middle" x="1125.5" y="-127.5" font-family="Helvetica,sans-Serif" font-size="10.00">::Scene &gt;</text>
</g>
<!-- Node2&#45;&gt;Node12 -->
<g id="edge13" class="edge"><title>Node2&#45;&gt;Node12</title>
<path fill="none" stroke="#9a32cd" stroke-dasharray="5,2" d="M935.417,-146.187C974.144,-143.998 1032.38,-140.707 1073.99,-138.355"/>
<polygon fill="#9a32cd" stroke="#9a32cd" points="934.829,-142.715 925.042,-146.774 935.224,-149.704 934.829,-142.715"/>
<text text-anchor="middle" x="996" y="-149.5" font-family="Helvetica,sans-Serif" font-size="10.00"> ptr</text>
</g>
<!-- Node3 -->
<g id="node3" class="node"><title>Node3</title>
<g id="a_node3"><a xlink:href="../../dc/dee/classsgl_1_1Graphics_1_1Node.html" target="_top" xlink:title="Abstract base class for a scene graph node. ">
<polygon fill="white" stroke="black" points="640,-133 640,-152 743,-152 743,-133 640,-133"/>
<text text-anchor="middle" x="691.5" y="-140" font-family="Helvetica,sans-Serif" font-size="10.00">sgl::Graphics::Node</text>
</a>
</g>
</g>
<!-- Node3&#45;&gt;Node2 -->
<g id="edge2" class="edge"><title>Node3&#45;&gt;Node2</title>
<path fill="none" stroke="midnightblue" d="M753.577,-144.332C789.378,-145.406 833.066,-146.717 861.776,-147.578"/>
<polygon fill="midnightblue" stroke="midnightblue" points="753.327,-140.823 743.227,-144.022 753.118,-147.82 753.327,-140.823"/>
</g>
<!-- Node4 -->
<g id="node4" class="node"><title>Node4</title>
<polygon fill="white" stroke="#bfbfbf" points="355,-94.5 355,-124.5 501,-124.5 501,-94.5 355,-94.5"/>
<text text-anchor="start" x="363" y="-112.5" font-family="Helvetica,sans-Serif" font-size="10.00">std::vector&lt; std::shared</text>
<text text-anchor="middle" x="428" y="-101.5" font-family="Helvetica,sans-Serif" font-size="10.00">_ptr&lt; sgl::Graphics::Node &gt; &gt;</text>
</g>
<!-- Node4&#45;&gt;Node3 -->
<g id="edge3" class="edge"><title>Node4&#45;&gt;Node3</title>
<path fill="none" stroke="#9a32cd" stroke-dasharray="5,2" d="M511.117,-119.863C553.241,-125.179 603.218,-131.485 639.708,-136.09"/>
<polygon fill="#9a32cd" stroke="#9a32cd" points="511.508,-116.384 501.148,-118.605 510.631,-123.329 511.508,-116.384"/>
<text text-anchor="middle" x="570.5" y="-137.5" font-family="Helvetica,sans-Serif" font-size="10.00"> m_children</text>
</g>
<!-- Node5 -->
<g id="node5" class="node"><title>Node5</title>
<g id="a_node5"><a xlink:title="STL class. ">
<polygon fill="white" stroke="#bfbfbf" points="117,-86 117,-105 202,-105 202,-86 117,-86"/>
<text text-anchor="middle" x="159.5" y="-93" font-family="Helvetica,sans-Serif" font-size="10.00">std::vector&lt; T &gt;</text>
</a>
</g>
</g>
<!-- Node5&#45;&gt;Node4 -->
<g id="edge4" class="edge"><title>Node5&#45;&gt;Node4</title>
<path fill="none" stroke="orange" stroke-dasharray="5,2" d="M212.343,-98.2235C252.903,-100.354 309.777,-103.342 354.793,-105.707"/>
<polygon fill="orange" stroke="orange" points="212.31,-94.717 202.141,-97.6875 211.943,-101.707 212.31,-94.717"/>
<text text-anchor="start" x="229" y="-119.5" font-family="Helvetica,sans-Serif" font-size="10.00"> &lt; std::shared_ptr&lt;</text>
<text text-anchor="middle" x="283" y="-108.5" font-family="Helvetica,sans-Serif" font-size="10.00"> sgl::Graphics::Node &gt; &gt;</text>
</g>
<!-- Node11 -->
<g id="node11" class="node"><title>Node11</title>
<polygon fill="white" stroke="#bfbfbf" points="1301,-70.5 1301,-100.5 1420,-100.5 1420,-70.5 1301,-70.5"/>
<text text-anchor="start" x="1309" y="-88.5" font-family="Helvetica,sans-Serif" font-size="10.00">std::vector&lt; std::unique</text>
<text text-anchor="middle" x="1360.5" y="-77.5" font-family="Helvetica,sans-Serif" font-size="10.00">_ptr&lt; sgl::Scene &gt; &gt;</text>
</g>
<!-- Node5&#45;&gt;Node11 -->
<g id="edge16" class="edge"><title>Node5&#45;&gt;Node11</title>
<path fill="none" stroke="orange" stroke-dasharray="5,2" d="M207.055,-83.6403C259.972,-71.2201 349.116,-53.5 427,-53.5 427,-53.5 427,-53.5 1126.5,-53.5 1186.32,-53.5 1253.98,-63.9796 1300.91,-72.9446"/>
<polygon fill="orange" stroke="orange" points="206.203,-80.2452 197.288,-85.9695 207.827,-87.0543 206.203,-80.2452"/>
<text text-anchor="start" x="761" y="-67.5" font-family="Helvetica,sans-Serif" font-size="10.00"> &lt; std::unique_ptr&lt;</text>
<text text-anchor="middle" x="802.5" y="-56.5" font-family="Helvetica,sans-Serif" font-size="10.00"> sgl::Scene &gt; &gt;</text>
</g>
<!-- Node6 -->
<g id="node6" class="node"><title>Node6</title>
<polygon fill="white" stroke="#bfbfbf" points="0,-86 0,-105 29,-105 29,-86 0,-86"/>
<text text-anchor="middle" x="14.5" y="-93" font-family="Helvetica,sans-Serif" font-size="10.00">T</text>
</g>
<!-- Node6&#45;&gt;Node5 -->
<g id="edge5" class="edge"><title>Node6&#45;&gt;Node5</title>
<path fill="none" stroke="#9a32cd" stroke-dasharray="5,2" d="M39.2186,-95.5C60.3014,-95.5 91.6043,-95.5 116.853,-95.5"/>
<polygon fill="#9a32cd" stroke="#9a32cd" points="39.2115,-92.0001 29.2114,-95.5 39.2114,-99.0001 39.2115,-92.0001"/>
<text text-anchor="middle" x="68.5" y="-98.5" font-family="Helvetica,sans-Serif" font-size="10.00"> elements</text>
</g>
<!-- Node9 -->
<g id="node9" class="node"><title>Node9</title>
<g id="a_node9"><a xlink:title="STL class. ">
<polygon fill="white" stroke="#bfbfbf" points="108,-7.5 108,-37.5 211,-37.5 211,-7.5 108,-7.5"/>
<text text-anchor="start" x="116" y="-25.5" font-family="Helvetica,sans-Serif" font-size="10.00">std::unordered_map</text>
<text text-anchor="middle" x="159.5" y="-14.5" font-family="Helvetica,sans-Serif" font-size="10.00">&lt; K, T &gt;</text>
</a>
</g>
</g>
<!-- Node6&#45;&gt;Node9 -->
<g id="edge10" class="edge"><title>Node6&#45;&gt;Node9</title>
<path fill="none" stroke="#9a32cd" stroke-dasharray="5,2" d="M38.1542,-83.9353C62.7273,-71.391 102.047,-51.3185 129.013,-37.553"/>
<polygon fill="#9a32cd" stroke="#9a32cd" points="36.5267,-80.8364 29.2114,-88.5005 39.7094,-87.071 36.5267,-80.8364"/>
<text text-anchor="middle" x="68.5" y="-81.5" font-family="Helvetica,sans-Serif" font-size="10.00"> elements</text>
</g>
<!-- Node13 -->
<g id="node13" class="node"><title>Node13</title>
<g id="a_node13"><a xlink:title="STL class. ">
<polygon fill="white" stroke="#bfbfbf" points="231,-160 231,-179 335,-179 335,-160 231,-160"/>
<text text-anchor="middle" x="283" y="-167" font-family="Helvetica,sans-Serif" font-size="10.00">std::unique_ptr&lt; T &gt;</text>
</a>
</g>
</g>
<!-- Node6&#45;&gt;Node13 -->
<g id="edge15" class="edge"><title>Node6&#45;&gt;Node13</title>
<path fill="none" stroke="#9a32cd" stroke-dasharray="5,2" d="M38.3824,-107.04C41.2485,-108.293 44.1679,-109.482 47,-110.5 109.344,-132.919 183.926,-150.084 232.09,-159.975"/>
<polygon fill="#9a32cd" stroke="#9a32cd" points="39.589,-103.74 29.0477,-102.677 36.625,-110.082 39.589,-103.74"/>
<text text-anchor="middle" x="68.5" y="-127.5" font-family="Helvetica,sans-Serif" font-size="10.00"> ptr</text>
</g>
<!-- Node7 -->
<g id="node7" class="node"><title>Node7</title>
<g id="a_node7"><a xlink:href="../../de/dd2/classsgl_1_1SceneManager.html" target="_top" xlink:title="Scene manager, in charge of creating, handling and destroying scenes. ">
<polygon fill="white" stroke="black" points="1505,-76 1505,-95 1606,-95 1606,-76 1505,-76"/>
<text text-anchor="middle" x="1555.5" y="-83" font-family="Helvetica,sans-Serif" font-size="10.00">sgl::SceneManager</text>
</a>
</g>
</g>
<!-- Node7&#45;&gt;Node2 -->
<g id="edge6" class="edge"><title>Node7&#45;&gt;Node2</title>
<path fill="none" stroke="#9a32cd" stroke-dasharray="5,2" d="M1502.44,-97.2124C1497.23,-98.342 1492.01,-99.4551 1487,-100.5 1352.69,-128.495 1320.46,-145.317 1184,-159.5 1124.31,-165.703 1109,-161.056 1049,-161.5 1001.89,-161.849 989.708,-167.651 943,-161.5 937.123,-160.726 930.946,-159.446 925.043,-157.983"/>
<polygon fill="#9a32cd" stroke="#9a32cd" points="1503.39,-100.589 1512.41,-95.0333 1501.89,-93.7502 1503.39,-100.589"/>
<text text-anchor="middle" x="1242.5" y="-161.5" font-family="Helvetica,sans-Serif" font-size="10.00"> m_sceneManager</text>
</g>
<!-- Node8 -->
<g id="node8" class="node"><title>Node8</title>
<polygon fill="white" stroke="#bfbfbf" points="519,-0.5 519,-30.5 622,-30.5 622,-0.5 519,-0.5"/>
<text text-anchor="start" x="527" y="-18.5" font-family="Helvetica,sans-Serif" font-size="10.00">std::unordered_map</text>
<text text-anchor="middle" x="570.5" y="-7.5" font-family="Helvetica,sans-Serif" font-size="10.00">&lt; std::size_t, int &gt;</text>
</g>
<!-- Node8&#45;&gt;Node7 -->
<g id="edge7" class="edge"><title>Node8&#45;&gt;Node7</title>
<path fill="none" stroke="#9a32cd" stroke-dasharray="5,2" d="M632.384,-15.5C678.745,-15.5 744.145,-15.5 801.5,-15.5 801.5,-15.5 801.5,-15.5 1361.5,-15.5 1431.36,-15.5 1507.38,-56.5327 1539.18,-75.7668"/>
<polygon fill="#9a32cd" stroke="#9a32cd" points="632.203,-12.0001 622.203,-15.5 632.203,-19.0001 632.203,-12.0001"/>
<text text-anchor="middle" x="996" y="-18.5" font-family="Helvetica,sans-Serif" font-size="10.00"> m_hashCodeToSceneId</text>
</g>
<!-- Node9&#45;&gt;Node8 -->
<g id="edge8" class="edge"><title>Node9&#45;&gt;Node8</title>
<path fill="none" stroke="orange" stroke-dasharray="5,2" d="M221.079,-21.4632C301.828,-20.0812 443.29,-17.6601 518.733,-16.3689"/>
<polygon fill="orange" stroke="orange" points="221,-17.9639 211.062,-21.6346 221.12,-24.9629 221,-17.9639"/>
<text text-anchor="middle" x="283" y="-24.5" font-family="Helvetica,sans-Serif" font-size="10.00"> &lt; std::size_t, int &gt;</text>
</g>
<!-- Node10 -->
<g id="node10" class="node"><title>Node10</title>
<polygon fill="white" stroke="#bfbfbf" points="0,-13 0,-32 29,-32 29,-13 0,-13"/>
<text text-anchor="middle" x="14.5" y="-20" font-family="Helvetica,sans-Serif" font-size="10.00">K</text>
</g>
<!-- Node10&#45;&gt;Node9 -->
<g id="edge9" class="edge"><title>Node10&#45;&gt;Node9</title>
<path fill="none" stroke="#9a32cd" stroke-dasharray="5,2" d="M39.4483,-22.5C58.0959,-22.5 84.6375,-22.5 107.929,-22.5"/>
<polygon fill="#9a32cd" stroke="#9a32cd" points="39.2115,-19.0001 29.2114,-22.5 39.2114,-26.0001 39.2115,-19.0001"/>
<text text-anchor="middle" x="68.5" y="-25.5" font-family="Helvetica,sans-Serif" font-size="10.00"> keys</text>
</g>
<!-- Node11&#45;&gt;Node7 -->
<g id="edge11" class="edge"><title>Node11&#45;&gt;Node7</title>
<path fill="none" stroke="#9a32cd" stroke-dasharray="5,2" d="M1430.21,-85.5C1454.86,-85.5 1482.15,-85.5 1504.87,-85.5"/>
<polygon fill="#9a32cd" stroke="#9a32cd" points="1430.19,-82.0001 1420.19,-85.5 1430.19,-89.0001 1430.19,-82.0001"/>
<text text-anchor="middle" x="1462.5" y="-88.5" font-family="Helvetica,sans-Serif" font-size="10.00"> m_scenes</text>
</g>
<!-- Node12&#45;&gt;Node11 -->
<g id="edge12" class="edge"><title>Node12&#45;&gt;Node11</title>
<path fill="none" stroke="#9a32cd" stroke-dasharray="5,2" d="M1187.16,-122.482C1222.22,-114.96 1266.1,-105.542 1300.82,-98.0929"/>
<polygon fill="#9a32cd" stroke="#9a32cd" points="1186.1,-119.13 1177.06,-124.651 1187.57,-125.975 1186.1,-119.13"/>
<text text-anchor="middle" x="1242.5" y="-121.5" font-family="Helvetica,sans-Serif" font-size="10.00"> elements</text>
</g>
<!-- Node13&#45;&gt;Node12 -->
<g id="edge14" class="edge"><title>Node13&#45;&gt;Node12</title>
<path fill="none" stroke="orange" stroke-dasharray="5,2" d="M342.011,-180.821C399.516,-191.046 490.24,-204.5 569.5,-204.5 569.5,-204.5 569.5,-204.5 894.5,-204.5 968.914,-204.5 1051.38,-170.954 1094.49,-150.642"/>
<polygon fill="orange" stroke="orange" points="342.485,-177.35 332.022,-179.018 341.241,-184.239 342.485,-177.35"/>
<text text-anchor="middle" x="691.5" y="-207.5" font-family="Helvetica,sans-Serif" font-size="10.00"> &lt; sgl::Scene &gt;</text>
</g>
<!-- Node14 -->
<g id="node14" class="node"><title>Node14</title>
<g id="a_node14"><a xlink:title="STL class. ">
<polygon fill="white" stroke="#bfbfbf" points="863.5,-85 863.5,-104 923.5,-104 923.5,-85 863.5,-85"/>
<text text-anchor="middle" x="893.5" y="-92" font-family="Helvetica,sans-Serif" font-size="10.00">std::string</text>
</a>
</g>
</g>
<!-- Node14&#45;&gt;Node1 -->
<g id="edge17" class="edge"><title>Node14&#45;&gt;Node1</title>
<path fill="none" stroke="#9a32cd" stroke-dasharray="5,2" d="M934.012,-91.8529C937.052,-91.7113 940.075,-91.5904 943,-91.5 984.416,-90.2203 1031.17,-90.2553 1066.86,-90.592"/>
<polygon fill="#9a32cd" stroke="#9a32cd" points="933.524,-88.3738 923.724,-92.3994 933.895,-95.364 933.524,-88.3738"/>
<text text-anchor="middle" x="996" y="-94.5" font-family="Helvetica,sans-Serif" font-size="10.00"> m_scriptName</text>
</g>
<!-- Node15 -->
<g id="node15" class="node"><title>Node15</title>
<g id="a_node15"><a xlink:title="STL class. ">
<polygon fill="white" stroke="#bfbfbf" points="644,-82.5 644,-112.5 739,-112.5 739,-82.5 644,-82.5"/>
<text text-anchor="start" x="652" y="-100.5" font-family="Helvetica,sans-Serif" font-size="10.00">std::basic_string&lt;</text>
<text text-anchor="middle" x="691.5" y="-89.5" font-family="Helvetica,sans-Serif" font-size="10.00"> char &gt;</text>
</a>
</g>
</g>
<!-- Node15&#45;&gt;Node14 -->
<g id="edge18" class="edge"><title>Node15&#45;&gt;Node14</title>
<path fill="none" stroke="midnightblue" d="M749.355,-96.6472C786.586,-96.0887 833.687,-95.3822 863.466,-94.9355"/>
<polygon fill="midnightblue" stroke="midnightblue" points="749.085,-93.1507 739.139,-96.8004 749.19,-100.15 749.085,-93.1507"/>
</g>
</g>
</svg>
