<?xml version="1.0" encoding="UTF-8" standalone="no"?>
<!DOCTYPE svg PUBLIC "-//W3C//DTD SVG 1.1//EN"
 "http://www.w3.org/Graphics/SVG/1.1/DTD/svg11.dtd">
<!-- Generated by graphviz version 2.38.0 (20140413.2041)
 -->
<!-- Title: sgl::Scenes::ArkScene Pages: 1 -->
<svg width="1505pt" height="186pt"
 viewBox="0.00 0.00 1505.00 186.00" xmlns="http://www.w3.org/2000/svg" xmlns:xlink="http://www.w3.org/1999/xlink">
<g id="graph0" class="graph" transform="scale(1 1) rotate(0) translate(4 182)">
<title>sgl::Scenes::ArkScene</title>
<polygon fill="white" stroke="none" points="-4,4 -4,-182 1501,-182 1501,4 -4,4"/>
<!-- Node1 -->
<g id="node1" class="node"><title>Node1</title>
<polygon fill="#bfbfbf" stroke="black" points="958,-108.5 958,-127.5 1075,-127.5 1075,-108.5 958,-108.5"/>
<text text-anchor="middle" x="1016.5" y="-115.5" font-family="Helvetica,sans-Serif" font-size="10.00">sgl::Scenes::ArkScene</text>
</g>
<!-- Node2 -->
<g id="node2" class="node"><title>Node2</title>
<g id="a_node2"><a xlink:href="../../d8/dcf/classsgl_1_1Scene.html" target="_top" xlink:title="Base class which every user scene must derive from. ">
<polygon fill="white" stroke="black" points="792,-53.5 792,-72.5 855,-72.5 855,-53.5 792,-53.5"/>
<text text-anchor="middle" x="823.5" y="-60.5" font-family="Helvetica,sans-Serif" font-size="10.00">sgl::Scene</text>
</a>
</g>
</g>
<!-- Node2&#45;&gt;Node1 -->
<g id="edge1" class="edge"><title>Node2&#45;&gt;Node1</title>
<path fill="none" stroke="midnightblue" d="M865.063,-74.6803C899.978,-84.7346 949.741,-99.0641 982.322,-108.446"/>
<polygon fill="midnightblue" stroke="midnightblue" points="865.766,-71.2406 855.187,-71.8367 863.828,-77.9672 865.766,-71.2406"/>
</g>
<!-- Node9 -->
<g id="node9" class="node"><title>Node9</title>
<polygon fill="white" stroke="#bfbfbf" points="965,-59 965,-89 1068,-89 1068,-59 965,-59"/>
<text text-anchor="start" x="973" y="-77" font-family="Helvetica,sans-Serif" font-size="10.00">std::unique_ptr&lt; sgl</text>
<text text-anchor="middle" x="1016.5" y="-66" font-family="Helvetica,sans-Serif" font-size="10.00">::Scene &gt;</text>
</g>
<!-- Node2&#45;&gt;Node9 -->
<g id="edge9" class="edge"><title>Node2&#45;&gt;Node9</title>
<path fill="none" stroke="#9a32cd" stroke-dasharray="5,2" d="M865.468,-62.1307C887.57,-61.9701 915.306,-62.2643 940,-64 948.046,-64.5655 956.544,-65.4293 964.822,-66.4171"/>
<polygon fill="#9a32cd" stroke="#9a32cd" points="865.387,-58.6313 855.425,-62.2373 865.462,-65.6309 865.387,-58.6313"/>
<text text-anchor="middle" x="906.5" y="-67" font-family="Helvetica,sans-Serif" font-size="10.00"> ptr</text>
</g>
<!-- Node3 -->
<g id="node3" class="node"><title>Node3</title>
<g id="a_node3"><a xlink:href="../../dc/dee/classsgl_1_1Graphics_1_1Node.html" target="_top" xlink:title="Abstract base class for a scene graph node. ">
<polygon fill="white" stroke="black" points="570,-53.5 570,-72.5 673,-72.5 673,-53.5 570,-53.5"/>
<text text-anchor="middle" x="621.5" y="-60.5" font-family="Helvetica,sans-Serif" font-size="10.00">sgl::Graphics::Node</text>
</a>
</g>
</g>
<!-- Node3&#45;&gt;Node2 -->
<g id="edge2" class="edge"><title>Node3&#45;&gt;Node2</title>
<path fill="none" stroke="midnightblue" d="M683.577,-63C719.378,-63 763.066,-63 791.776,-63"/>
<polygon fill="midnightblue" stroke="midnightblue" points="683.227,-59.5001 673.227,-63 683.227,-66.5001 683.227,-59.5001"/>
</g>
<!-- Node4 -->
<g id="node4" class="node"><title>Node4</title>
<polygon fill="white" stroke="#bfbfbf" points="337,-48 337,-78 483,-78 483,-48 337,-48"/>
<text text-anchor="start" x="345" y="-66" font-family="Helvetica,sans-Serif" font-size="10.00">std::vector&lt; std::shared</text>
<text text-anchor="middle" x="410" y="-55" font-family="Helvetica,sans-Serif" font-size="10.00">_ptr&lt; sgl::Graphics::Node &gt; &gt;</text>
</g>
<!-- Node4&#45;&gt;Node3 -->
<g id="edge3" class="edge"><title>Node4&#45;&gt;Node3</title>
<path fill="none" stroke="#9a32cd" stroke-dasharray="5,2" d="M493.259,-63C519.066,-63 546.785,-63 569.742,-63"/>
<polygon fill="#9a32cd" stroke="#9a32cd" points="493.098,-59.5001 483.098,-63 493.098,-66.5001 493.098,-59.5001"/>
<text text-anchor="middle" x="526.5" y="-66" font-family="Helvetica,sans-Serif" font-size="10.00"> m_children</text>
</g>
<!-- Node5 -->
<g id="node5" class="node"><title>Node5</title>
<g id="a_node5"><a xlink:title="STL class. ">
<polygon fill="white" stroke="#bfbfbf" points="108,-53.5 108,-72.5 193,-72.5 193,-53.5 108,-53.5"/>
<text text-anchor="middle" x="150.5" y="-60.5" font-family="Helvetica,sans-Serif" font-size="10.00">std::vector&lt; T &gt;</text>
</a>
</g>
</g>
<!-- Node5&#45;&gt;Node4 -->
<g id="edge4" class="edge"><title>Node5&#45;&gt;Node4</title>
<path fill="none" stroke="orange" stroke-dasharray="5,2" d="M203.577,-63C241.934,-63 294.571,-63 336.96,-63"/>
<polygon fill="orange" stroke="orange" points="203.158,-59.5001 193.158,-63 203.158,-66.5001 203.158,-59.5001"/>
<text text-anchor="start" x="211" y="-77" font-family="Helvetica,sans-Serif" font-size="10.00"> &lt; std::shared_ptr&lt;</text>
<text text-anchor="middle" x="265" y="-66" font-family="Helvetica,sans-Serif" font-size="10.00"> sgl::Graphics::Node &gt; &gt;</text>
</g>
<!-- Node8 -->
<g id="node8" class="node"><title>Node8</title>
<polygon fill="white" stroke="#bfbfbf" points="1192,-59 1192,-89 1311,-89 1311,-59 1192,-59"/>
<text text-anchor="start" x="1200" y="-77" font-family="Helvetica,sans-Serif" font-size="10.00">std::vector&lt; std::unique</text>
<text text-anchor="middle" x="1251.5" y="-66" font-family="Helvetica,sans-Serif" font-size="10.00">_ptr&lt; sgl::Scene &gt; &gt;</text>
</g>
<!-- Node5&#45;&gt;Node8 -->
<g id="edge12" class="edge"><title>Node5&#45;&gt;Node8</title>
<path fill="none" stroke="orange" stroke-dasharray="5,2" d="M175.046,-77.7827C219.16,-104.021 318.032,-156 409,-156 409,-156 409,-156 1017.5,-156 1097.26,-156 1184.12,-112.713 1225.66,-89.0401"/>
<polygon fill="orange" stroke="orange" points="176.853,-74.7856 166.486,-72.6024 173.229,-80.7743 176.853,-74.7856"/>
<text text-anchor="start" x="691" y="-170" font-family="Helvetica,sans-Serif" font-size="10.00"> &lt; std::unique_ptr&lt;</text>
<text text-anchor="middle" x="732.5" y="-159" font-family="Helvetica,sans-Serif" font-size="10.00"> sgl::Scene &gt; &gt;</text>
</g>
<!-- Node6 -->
<g id="node6" class="node"><title>Node6</title>
<polygon fill="white" stroke="#bfbfbf" points="0,-29.5 0,-48.5 29,-48.5 29,-29.5 0,-29.5"/>
<text text-anchor="middle" x="14.5" y="-36.5" font-family="Helvetica,sans-Serif" font-size="10.00">T</text>
</g>
<!-- Node6&#45;&gt;Node5 -->
<g id="edge5" class="edge"><title>Node6&#45;&gt;Node5</title>
<path fill="none" stroke="#9a32cd" stroke-dasharray="5,2" d="M39.2308,-43.2503C58.2268,-46.6526 85.332,-51.5072 107.915,-55.5519"/>
<polygon fill="#9a32cd" stroke="#9a32cd" points="39.7961,-39.7959 29.3356,-41.478 38.5619,-46.6863 39.7961,-39.7959"/>
<text text-anchor="middle" x="68.5" y="-55" font-family="Helvetica,sans-Serif" font-size="10.00"> elements</text>
</g>
<!-- Node10 -->
<g id="node10" class="node"><title>Node10</title>
<g id="a_node10"><a xlink:title="STL class. ">
<polygon fill="white" stroke="#bfbfbf" points="213,-0.5 213,-19.5 317,-19.5 317,-0.5 213,-0.5"/>
<text text-anchor="middle" x="265" y="-7.5" font-family="Helvetica,sans-Serif" font-size="10.00">std::unique_ptr&lt; T &gt;</text>
</a>
</g>
</g>
<!-- Node6&#45;&gt;Node10 -->
<g id="edge11" class="edge"><title>Node6&#45;&gt;Node10</title>
<path fill="none" stroke="#9a32cd" stroke-dasharray="5,2" d="M39.0584,-31.7555C41.7205,-31.0904 44.4074,-30.4854 47,-30 103.152,-19.4857 168.56,-14.4167 212.769,-12.0273"/>
<polygon fill="#9a32cd" stroke="#9a32cd" points="37.8706,-28.4526 29.1671,-34.4941 39.7385,-35.1988 37.8706,-28.4526"/>
<text text-anchor="middle" x="68.5" y="-33" font-family="Helvetica,sans-Serif" font-size="10.00"> ptr</text>
</g>
<!-- Node7 -->
<g id="node7" class="node"><title>Node7</title>
<g id="a_node7"><a xlink:href="../../de/dd2/classsgl_1_1SceneManager.html" target="_top" xlink:title="Scene manager, in charge of creating, handling and destroying scenes. ">
<polygon fill="white" stroke="black" points="1396,-39.5 1396,-58.5 1497,-58.5 1497,-39.5 1396,-39.5"/>
<text text-anchor="middle" x="1446.5" y="-46.5" font-family="Helvetica,sans-Serif" font-size="10.00">sgl::SceneManager</text>
</a>
</g>
</g>
<!-- Node7&#45;&gt;Node2 -->
<g id="edge6" class="edge"><title>Node7&#45;&gt;Node2</title>
<path fill="none" stroke="#9a32cd" stroke-dasharray="5,2" d="M1385.75,-46.9935C1293.78,-44.3582 1112.02,-40.9462 958,-49 922.626,-50.8497 882.195,-55.4385 855.182,-58.8615"/>
<polygon fill="#9a32cd" stroke="#9a32cd" points="1385.88,-50.4987 1395.98,-47.294 1386.08,-43.5017 1385.88,-50.4987"/>
<text text-anchor="middle" x="1133.5" y="-48" font-family="Helvetica,sans-Serif" font-size="10.00"> m_sceneManager</text>
</g>
<!-- Node8&#45;&gt;Node7 -->
<g id="edge7" class="edge"><title>Node8&#45;&gt;Node7</title>
<path fill="none" stroke="#9a32cd" stroke-dasharray="5,2" d="M1321.21,-65.0996C1345.86,-61.9067 1373.15,-58.3713 1395.87,-55.4287"/>
<polygon fill="#9a32cd" stroke="#9a32cd" points="1320.66,-61.6417 1311.19,-66.3974 1321.56,-68.5837 1320.66,-61.6417"/>
<text text-anchor="middle" x="1353.5" y="-67" font-family="Helvetica,sans-Serif" font-size="10.00"> m_scenes</text>
</g>
<!-- Node9&#45;&gt;Node8 -->
<g id="edge8" class="edge"><title>Node9&#45;&gt;Node8</title>
<path fill="none" stroke="#9a32cd" stroke-dasharray="5,2" d="M1078.16,-74C1113.22,-74 1157.1,-74 1191.82,-74"/>
<polygon fill="#9a32cd" stroke="#9a32cd" points="1078.06,-70.5001 1068.06,-74 1078.06,-77.5001 1078.06,-70.5001"/>
<text text-anchor="middle" x="1133.5" y="-77" font-family="Helvetica,sans-Serif" font-size="10.00"> elements</text>
</g>
<!-- Node10&#45;&gt;Node9 -->
<g id="edge10" class="edge"><title>Node10&#45;&gt;Node9</title>
<path fill="none" stroke="orange" stroke-dasharray="5,2" d="M327.371,-8.1515C379.95,-6.72736 457.698,-5 525.5,-5 525.5,-5 525.5,-5 824.5,-5 887.434,-5 955.465,-38.5464 990.888,-58.8577"/>
<polygon fill="orange" stroke="orange" points="327.101,-4.65752 317.202,-8.43169 327.294,-11.6549 327.101,-4.65752"/>
<text text-anchor="middle" x="621.5" y="-8" font-family="Helvetica,sans-Serif" font-size="10.00"> &lt; sgl::Scene &gt;</text>
</g>
<!-- Node11 -->
<g id="node11" class="node"><title>Node11</title>
<g id="a_node11"><a xlink:title="STL class. ">
<polygon fill="white" stroke="#bfbfbf" points="793.5,-105.5 793.5,-124.5 853.5,-124.5 853.5,-105.5 793.5,-105.5"/>
<text text-anchor="middle" x="823.5" y="-112.5" font-family="Helvetica,sans-Serif" font-size="10.00">std::string</text>
</a>
</g>
</g>
<!-- Node11&#45;&gt;Node1 -->
<g id="edge13" class="edge"><title>Node11&#45;&gt;Node1</title>
<path fill="none" stroke="#9a32cd" stroke-dasharray="5,2" d="M863.762,-115.617C890.845,-116.042 927.301,-116.615 957.692,-117.092"/>
<polygon fill="#9a32cd" stroke="#9a32cd" points="863.563,-112.113 853.509,-115.456 863.453,-119.112 863.563,-112.113"/>
<text text-anchor="middle" x="906.5" y="-120" font-family="Helvetica,sans-Serif" font-size="10.00"> m_scriptName</text>
</g>
<!-- Node12 -->
<g id="node12" class="node"><title>Node12</title>
<g id="a_node12"><a xlink:title="STL class. ">
<polygon fill="white" stroke="#bfbfbf" points="574,-97 574,-127 669,-127 669,-97 574,-97"/>
<text text-anchor="start" x="582" y="-115" font-family="Helvetica,sans-Serif" font-size="10.00">std::basic_string&lt;</text>
<text text-anchor="middle" x="621.5" y="-104" font-family="Helvetica,sans-Serif" font-size="10.00"> char &gt;</text>
</a>
</g>
</g>
<!-- Node12&#45;&gt;Node11 -->
<g id="edge14" class="edge"><title>Node12&#45;&gt;Node11</title>
<path fill="none" stroke="midnightblue" d="M679.355,-112.853C716.586,-113.411 763.687,-114.118 793.466,-114.564"/>
<polygon fill="midnightblue" stroke="midnightblue" points="679.19,-109.35 669.139,-112.7 679.085,-116.349 679.19,-109.35"/>
</g>
</g>
</svg>
