<?xml version="1.0" encoding="UTF-8" standalone="no"?>
<!DOCTYPE svg PUBLIC "-//W3C//DTD SVG 1.1//EN"
 "http://www.w3.org/Graphics/SVG/1.1/DTD/svg11.dtd">
<!-- Generated by graphviz version 2.49.0 (20210828.1703)
 -->
<!-- Title: C:/Users/folae/Documents/Code/Big&#45;Projects/ScriptWizards/SmallGameLibrary/source/Core/Application.cpp Pages: 1 -->
<svg width="1806pt" height="397pt"
 viewBox="0.00 0.00 1806.00 397.00" xmlns="http://www.w3.org/2000/svg" xmlns:xlink="http://www.w3.org/1999/xlink">
<g id="graph0" class="graph" transform="scale(1 1) rotate(0) translate(4 393)">
<title>C:/Users/folae/Documents/Code/Big&#45;Projects/ScriptWizards/SmallGameLibrary/source/Core/Application.cpp</title>
<polygon fill="white" stroke="transparent" points="-4,4 -4,-393 1802,-393 1802,4 -4,4"/>
<!-- Node1 -->
<g id="node1" class="node">
<title>Node1</title>
<g id="a_node1"><a xlink:title=" ">
<polygon fill="#bfbfbf" stroke="black" points="749.5,-336.5 749.5,-388.5 912.5,-388.5 912.5,-336.5 749.5,-336.5"/>
<text text-anchor="start" x="757.5" y="-376.5" font-family="Helvetica,sans-Serif" font-size="10.00">C:/Users/folae/Documents</text>
<text text-anchor="start" x="757.5" y="-365.5" font-family="Helvetica,sans-Serif" font-size="10.00">/Code/Big&#45;Projects/ScriptWizards</text>
<text text-anchor="start" x="757.5" y="-354.5" font-family="Helvetica,sans-Serif" font-size="10.00">/SmallGameLibrary/source/Core</text>
<text text-anchor="middle" x="831" y="-343.5" font-family="Helvetica,sans-Serif" font-size="10.00">/Application.cpp</text>
</a>
</g>
</g>
<!-- Node2 -->
<g id="node2" class="node">
<title>Node2</title>
<g id="a_node2"><a xlink:title=" ">
<polygon fill="white" stroke="#bfbfbf" points="52.5,-280.5 52.5,-299.5 95.5,-299.5 95.5,-280.5 52.5,-280.5"/>
<text text-anchor="middle" x="74" y="-287.5" font-family="Helvetica,sans-Serif" font-size="10.00">glad.h</text>
</a>
</g>
</g>
<!-- Node1&#45;&gt;Node2 -->
<g id="edge1" class="edge">
<title>Node1&#45;&gt;Node2</title>
<path fill="none" stroke="midnightblue" d="M749.38,-358.79C615.18,-353.38 339.87,-338.29 110,-300 108.53,-299.76 107.03,-299.48 105.52,-299.19"/>
<polygon fill="midnightblue" stroke="midnightblue" points="106.1,-295.73 95.58,-296.99 104.59,-302.56 106.1,-295.73"/>
</g>
<!-- Node3 -->
<g id="node3" class="node">
<title>Node3</title>
<g id="a_node3"><a xlink:href="../../df/d3c/Application_8hpp.html" target="_top" xlink:title="Define the application hosting the scenes for the game.">
<polygon fill="white" stroke="black" points="764,-280.5 764,-299.5 898,-299.5 898,-280.5 764,-280.5"/>
<text text-anchor="middle" x="831" y="-287.5" font-family="Helvetica,sans-Serif" font-size="10.00">Small/Core/Application.hpp</text>
</a>
</g>
</g>
<!-- Node1&#45;&gt;Node3 -->
<g id="edge2" class="edge">
<title>Node1&#45;&gt;Node3</title>
<path fill="none" stroke="midnightblue" d="M831,-336.45C831,-327.73 831,-318.1 831,-309.96"/>
<polygon fill="midnightblue" stroke="midnightblue" points="834.5,-309.7 831,-299.7 827.5,-309.7 834.5,-309.7"/>
</g>
<!-- Node29 -->
<g id="node29" class="node">
<title>Node29</title>
<g id="a_node29"><a xlink:title=" ">
<polygon fill="white" stroke="#bfbfbf" points="1354.5,-168.5 1354.5,-187.5 1439.5,-187.5 1439.5,-168.5 1354.5,-168.5"/>
<text text-anchor="middle" x="1397" y="-175.5" font-family="Helvetica,sans-Serif" font-size="10.00">spdlog/spdlog.h</text>
</a>
</g>
</g>
<!-- Node1&#45;&gt;Node29 -->
<g id="edge68" class="edge">
<title>Node1&#45;&gt;Node29</title>
<path fill="none" stroke="midnightblue" d="M912.75,-341.99C997.58,-320.92 1133.6,-284.85 1248,-244 1291.7,-228.39 1340.73,-206.02 1370.21,-192.01"/>
<polygon fill="midnightblue" stroke="midnightblue" points="1371.92,-195.08 1379.43,-187.6 1368.9,-188.76 1371.92,-195.08"/>
</g>
<!-- Node40 -->
<g id="node40" class="node">
<title>Node40</title>
<g id="a_node40"><a xlink:href="../../d3/d48/Engine_8hpp.html" target="_top" xlink:title="Easing the use of ArkScript (compiling scripts ahead of time, loading them)">
<polygon fill="white" stroke="black" points="0,-224.5 0,-243.5 134,-243.5 134,-224.5 0,-224.5"/>
<text text-anchor="middle" x="67" y="-231.5" font-family="Helvetica,sans-Serif" font-size="10.00">Small/Scripting/Engine.hpp</text>
</a>
</g>
</g>
<!-- Node1&#45;&gt;Node40 -->
<g id="edge60" class="edge">
<title>Node1&#45;&gt;Node40</title>
<path fill="none" stroke="midnightblue" d="M749.37,-360.03C592.55,-356.24 255.19,-343.19 148,-300 121.23,-289.21 96.26,-266.5 81.31,-250.99"/>
<polygon fill="midnightblue" stroke="midnightblue" points="83.84,-248.56 74.45,-243.64 78.72,-253.34 83.84,-248.56"/>
</g>
<!-- Node41 -->
<g id="node41" class="node">
<title>Node41</title>
<g id="a_node41"><a xlink:href="../../d2/d12/Bindings_8hpp.html" target="_top" xlink:title="Binding the small game library in ArkScript.">
<polygon fill="white" stroke="black" points="1460,-280.5 1460,-299.5 1602,-299.5 1602,-280.5 1460,-280.5"/>
<text text-anchor="middle" x="1531" y="-287.5" font-family="Helvetica,sans-Serif" font-size="10.00">Small/Scripting/Bindings.hpp</text>
</a>
</g>
</g>
<!-- Node1&#45;&gt;Node41 -->
<g id="edge63" class="edge">
<title>Node1&#45;&gt;Node41</title>
<path fill="none" stroke="midnightblue" d="M912.59,-353.49C1030.39,-341.9 1254.94,-319.67 1446,-300 1447.11,-299.89 1448.22,-299.77 1449.34,-299.66"/>
<polygon fill="midnightblue" stroke="midnightblue" points="1450,-303.11 1459.58,-298.59 1449.27,-296.14 1450,-303.11"/>
</g>
<!-- Node43 -->
<g id="node43" class="node">
<title>Node43</title>
<g id="a_node43"><a xlink:href="../../d2/dbb/FileSystem_8hpp.html" target="_top" xlink:title="Useful functionalities related to the filesystem.">
<polygon fill="white" stroke="black" points="227.5,-112.5 227.5,-131.5 376.5,-131.5 376.5,-112.5 227.5,-112.5"/>
<text text-anchor="middle" x="302" y="-119.5" font-family="Helvetica,sans-Serif" font-size="10.00">Small/System/FileSystem.hpp</text>
</a>
</g>
</g>
<!-- Node1&#45;&gt;Node43 -->
<g id="edge65" class="edge">
<title>Node1&#45;&gt;Node43</title>
<path fill="none" stroke="midnightblue" d="M749.37,-354.77C578.72,-338.74 194.15,-291.61 124,-188 96.98,-148.08 159.2,-132.57 217.36,-126.59"/>
<polygon fill="midnightblue" stroke="midnightblue" points="217.76,-130.07 227.39,-125.65 217.11,-123.1 217.76,-130.07"/>
</g>
<!-- Node44 -->
<g id="node44" class="node">
<title>Node44</title>
<g id="a_node44"><a xlink:title=" ">
<polygon fill="white" stroke="#bfbfbf" points="1620.5,-280.5 1620.5,-299.5 1721.5,-299.5 1721.5,-280.5 1620.5,-280.5"/>
<text text-anchor="middle" x="1671" y="-287.5" font-family="Helvetica,sans-Serif" font-size="10.00">spdlog/stopwatch.h</text>
</a>
</g>
</g>
<!-- Node1&#45;&gt;Node44 -->
<g id="edge69" class="edge">
<title>Node1&#45;&gt;Node44</title>
<path fill="none" stroke="midnightblue" d="M912.59,-356.96C1052.94,-348.73 1349.29,-329.53 1610.25,-300.01"/>
<polygon fill="midnightblue" stroke="midnightblue" points="1610.75,-303.47 1620.29,-298.86 1609.96,-296.52 1610.75,-303.47"/>
</g>
<!-- Node4 -->
<g id="node4" class="node">
<title>Node4</title>
<g id="a_node4"><a xlink:title=" ">
<polygon fill="white" stroke="#bfbfbf" points="1223.5,-0.5 1223.5,-19.5 1264.5,-19.5 1264.5,-0.5 1223.5,-0.5"/>
<text text-anchor="middle" x="1244" y="-7.5" font-family="Helvetica,sans-Serif" font-size="10.00">string</text>
</a>
</g>
</g>
<!-- Node3&#45;&gt;Node4 -->
<g id="edge3" class="edge">
<title>Node3&#45;&gt;Node4</title>
<path fill="none" stroke="midnightblue" d="M898.45,-287.8C1025.51,-284.84 1295.42,-275.01 1383,-244 1424.6,-229.27 1444.39,-227.03 1465,-188 1498.53,-124.5 1396.18,-156.46 1358,-132 1313.63,-103.57 1274.56,-54.15 1255.8,-28.13"/>
<polygon fill="midnightblue" stroke="midnightblue" points="1258.47,-25.84 1249.84,-19.69 1252.75,-29.88 1258.47,-25.84"/>
</g>
<!-- Node5 -->
<g id="node5" class="node">
<title>Node5</title>
<g id="a_node5"><a xlink:title=" ">
<polygon fill="white" stroke="#bfbfbf" points="605,-224.5 605,-243.5 655,-243.5 655,-224.5 605,-224.5"/>
<text text-anchor="middle" x="630" y="-231.5" font-family="Helvetica,sans-Serif" font-size="10.00">optional</text>
</a>
</g>
</g>
<!-- Node3&#45;&gt;Node5 -->
<g id="edge4" class="edge">
<title>Node3&#45;&gt;Node5</title>
<path fill="none" stroke="midnightblue" d="M799.15,-280.44C762.62,-270.63 702.92,-254.59 665.09,-244.43"/>
<polygon fill="midnightblue" stroke="midnightblue" points="665.6,-240.94 655.03,-241.73 663.78,-247.7 665.6,-240.94"/>
</g>
<!-- Node6 -->
<g id="node6" class="node">
<title>Node6</title>
<g id="a_node6"><a xlink:title=" ">
<polygon fill="white" stroke="#bfbfbf" points="721,-112.5 721,-131.5 825,-131.5 825,-112.5 721,-112.5"/>
<text text-anchor="middle" x="773" y="-119.5" font-family="Helvetica,sans-Serif" font-size="10.00">SFML/Graphics.hpp</text>
</a>
</g>
</g>
<!-- Node3&#45;&gt;Node6 -->
<g id="edge5" class="edge">
<title>Node3&#45;&gt;Node6</title>
<path fill="none" stroke="midnightblue" d="M875.67,-280.44C916.44,-270.63 967.09,-252.19 944,-224 892.59,-161.22 816.41,-250.78 765,-188 754.33,-174.98 758.68,-155.27 764.24,-140.98"/>
<polygon fill="midnightblue" stroke="midnightblue" points="767.5,-142.26 768.31,-131.69 761.09,-139.45 767.5,-142.26"/>
</g>
<!-- Node7 -->
<g id="node7" class="node">
<title>Node7</title>
<g id="a_node7"><a xlink:title=" ">
<polygon fill="white" stroke="#bfbfbf" points="395,-112.5 395,-131.5 521,-131.5 521,-112.5 395,-112.5"/>
<text text-anchor="middle" x="458" y="-119.5" font-family="Helvetica,sans-Serif" font-size="10.00">SFML/Window/Event.hpp</text>
</a>
</g>
</g>
<!-- Node3&#45;&gt;Node7 -->
<g id="edge6" class="edge">
<title>Node3&#45;&gt;Node7</title>
<path fill="none" stroke="midnightblue" d="M763.96,-287.2C712.29,-283.43 640.37,-272.82 584,-244 557.96,-230.68 499.64,-168.75 472.46,-139.02"/>
<polygon fill="midnightblue" stroke="midnightblue" points="474.99,-136.6 465.67,-131.55 469.81,-141.31 474.99,-136.6"/>
</g>
<!-- Node8 -->
<g id="node8" class="node">
<title>Node8</title>
<g id="a_node8"><a xlink:title=" ">
<polygon fill="white" stroke="#bfbfbf" points="577,-112.5 577,-131.5 703,-131.5 703,-112.5 577,-112.5"/>
<text text-anchor="middle" x="640" y="-119.5" font-family="Helvetica,sans-Serif" font-size="10.00">SFML/System/Clock.hpp</text>
</a>
</g>
</g>
<!-- Node3&#45;&gt;Node8 -->
<g id="edge7" class="edge">
<title>Node3&#45;&gt;Node8</title>
<path fill="none" stroke="midnightblue" d="M763.83,-285.43C702.06,-280.58 616.98,-269.37 596,-244 569.9,-212.42 603.72,-164.04 625.05,-139.1"/>
<polygon fill="midnightblue" stroke="midnightblue" points="627.68,-141.4 631.69,-131.6 622.44,-136.76 627.68,-141.4"/>
</g>
<!-- Node9 -->
<g id="node9" class="node">
<title>Node9</title>
<g id="a_node9"><a xlink:title=" ">
<polygon fill="white" stroke="#bfbfbf" points="673,-224.5 673,-243.5 721,-243.5 721,-224.5 673,-224.5"/>
<text text-anchor="middle" x="697" y="-231.5" font-family="Helvetica,sans-Serif" font-size="10.00">imgui.h</text>
</a>
</g>
</g>
<!-- Node3&#45;&gt;Node9 -->
<g id="edge8" class="edge">
<title>Node3&#45;&gt;Node9</title>
<path fill="none" stroke="midnightblue" d="M809.77,-280.44C787.62,-271.52 752.68,-257.44 727.56,-247.32"/>
<polygon fill="midnightblue" stroke="midnightblue" points="728.72,-244.01 718.13,-243.52 726.1,-250.5 728.72,-244.01"/>
</g>
<!-- Node10 -->
<g id="node10" class="node">
<title>Node10</title>
<g id="a_node10"><a xlink:title=" ">
<polygon fill="white" stroke="#bfbfbf" points="739.5,-224.5 739.5,-243.5 816.5,-243.5 816.5,-224.5 739.5,-224.5"/>
<text text-anchor="middle" x="778" y="-231.5" font-family="Helvetica,sans-Serif" font-size="10.00">imgui&#45;SFML.h</text>
</a>
</g>
</g>
<!-- Node3&#45;&gt;Node10 -->
<g id="edge9" class="edge">
<title>Node3&#45;&gt;Node10</title>
<path fill="none" stroke="midnightblue" d="M822.25,-280.08C814.53,-272.22 803.1,-260.57 793.78,-251.08"/>
<polygon fill="midnightblue" stroke="midnightblue" points="796.09,-248.44 786.59,-243.75 791.1,-253.34 796.09,-248.44"/>
</g>
<!-- Node11 -->
<g id="node11" class="node">
<title>Node11</title>
<g id="a_node11"><a xlink:title=" ">
<polygon fill="white" stroke="#bfbfbf" points="834.5,-224.5 834.5,-243.5 935.5,-243.5 935.5,-224.5 834.5,-224.5"/>
<text text-anchor="middle" x="885" y="-231.5" font-family="Helvetica,sans-Serif" font-size="10.00">SFML/OpenGL.hpp</text>
</a>
</g>
</g>
<!-- Node3&#45;&gt;Node11 -->
<g id="edge10" class="edge">
<title>Node3&#45;&gt;Node11</title>
<path fill="none" stroke="midnightblue" d="M839.92,-280.08C847.78,-272.22 859.43,-260.57 868.92,-251.08"/>
<polygon fill="midnightblue" stroke="midnightblue" points="871.65,-253.3 876.25,-243.75 866.7,-248.35 871.65,-253.3"/>
</g>
<!-- Node12 -->
<g id="node12" class="node">
<title>Node12</title>
<g id="a_node12"><a xlink:href="../../df/d74/SceneManager_8hpp.html" target="_top" xlink:title="Define the scene manager (creating, handling and destroying them)">
<polygon fill="white" stroke="black" points="992,-224.5 992,-243.5 1144,-243.5 1144,-224.5 992,-224.5"/>
<text text-anchor="middle" x="1068" y="-231.5" font-family="Helvetica,sans-Serif" font-size="10.00">Small/Core/SceneManager.hpp</text>
</a>
</g>
</g>
<!-- Node3&#45;&gt;Node12 -->
<g id="edge11" class="edge">
<title>Node3&#45;&gt;Node12</title>
<path fill="none" stroke="midnightblue" d="M868.55,-280.44C909.81,-271.04 976.14,-255.93 1020.87,-245.74"/>
<polygon fill="midnightblue" stroke="midnightblue" points="1021.65,-249.15 1030.62,-243.52 1020.09,-242.33 1021.65,-249.15"/>
</g>
<!-- Node20 -->
<g id="node20" class="node">
<title>Node20</title>
<g id="a_node20"><a xlink:href="../../df/db4/Config_8hpp.html" target="_top" xlink:title=" ">
<polygon fill="white" stroke="black" points="1179.5,-112.5 1179.5,-131.5 1310.5,-131.5 1310.5,-112.5 1179.5,-112.5"/>
<text text-anchor="middle" x="1245" y="-119.5" font-family="Helvetica,sans-Serif" font-size="10.00">Small/Scripting/Config.hpp</text>
</a>
</g>
</g>
<!-- Node3&#45;&gt;Node20 -->
<g id="edge53" class="edge">
<title>Node3&#45;&gt;Node20</title>
<path fill="none" stroke="midnightblue" d="M898.06,-289.02C1043.99,-287.43 1382.53,-274.32 1448,-188 1453.37,-180.92 1453.56,-174.93 1448,-168 1439.18,-157.01 1365.62,-142.69 1309.56,-133.19"/>
<polygon fill="midnightblue" stroke="midnightblue" points="1310.11,-129.73 1299.67,-131.53 1308.95,-136.63 1310.11,-129.73"/>
</g>
<!-- Node31 -->
<g id="node31" class="node">
<title>Node31</title>
<g id="a_node31"><a xlink:href="../../dc/dbc/Profiler_8hpp.html" target="_top" xlink:title="Profiler from https://github.com/bwrsandman/imgui&#45;flame&#45;graph/ (example/main.cpp),...">
<polygon fill="white" stroke="black" points="1534,-224.5 1534,-243.5 1658,-243.5 1658,-224.5 1534,-224.5"/>
<text text-anchor="middle" x="1596" y="-231.5" font-family="Helvetica,sans-Serif" font-size="10.00">Small/Debug/Profiler.hpp</text>
</a>
</g>
</g>
<!-- Node3&#45;&gt;Node31 -->
<g id="edge48" class="edge">
<title>Node3&#45;&gt;Node31</title>
<path fill="none" stroke="midnightblue" d="M898.09,-285.79C1021.39,-279.64 1292.3,-264.9 1520,-244 1521.27,-243.88 1522.54,-243.76 1523.83,-243.64"/>
<polygon fill="midnightblue" stroke="midnightblue" points="1524.22,-247.12 1533.81,-242.63 1523.51,-240.15 1524.22,-247.12"/>
</g>
<!-- Node35 -->
<g id="node35" class="node">
<title>Node35</title>
<g id="a_node35"><a xlink:title=" ">
<polygon fill="white" stroke="#bfbfbf" points="133,-168.5 133,-187.5 201,-187.5 201,-168.5 133,-168.5"/>
<text text-anchor="middle" x="167" y="-175.5" font-family="Helvetica,sans-Serif" font-size="10.00">Ark/Ark.hpp</text>
</a>
</g>
</g>
<!-- Node3&#45;&gt;Node35 -->
<g id="edge52" class="edge">
<title>Node3&#45;&gt;Node35</title>
<path fill="none" stroke="midnightblue" d="M763.79,-289.34C666.04,-288.43 479.53,-281.32 326,-244 276.84,-232.05 223.01,-207.39 192.29,-192.12"/>
<polygon fill="midnightblue" stroke="midnightblue" points="193.67,-188.9 183.16,-187.52 190.52,-195.15 193.67,-188.9"/>
</g>
<!-- Node36 -->
<g id="node36" class="node">
<title>Node36</title>
<g id="a_node36"><a xlink:href="../../d8/d82/SFMLtoArk_8hpp.html" target="_top" xlink:title="Convert SFML values to ArkScript values.">
<polygon fill="white" stroke="black" points="335,-224.5 335,-243.5 489,-243.5 489,-224.5 335,-224.5"/>
<text text-anchor="middle" x="412" y="-231.5" font-family="Helvetica,sans-Serif" font-size="10.00">Small/Scripting/SFMLtoArk.hpp</text>
</a>
</g>
</g>
<!-- Node3&#45;&gt;Node36 -->
<g id="edge54" class="edge">
<title>Node3&#45;&gt;Node36</title>
<path fill="none" stroke="midnightblue" d="M764.61,-280.44C689.52,-270.77 567.46,-255.04 488.45,-244.85"/>
<polygon fill="midnightblue" stroke="midnightblue" points="488.45,-241.32 478.08,-243.52 487.55,-248.27 488.45,-241.32"/>
</g>
<!-- Node39 -->
<g id="node39" class="node">
<title>Node39</title>
<g id="a_node39"><a xlink:title=" ">
<polygon fill="white" stroke="#bfbfbf" points="1162.5,-224.5 1162.5,-243.5 1239.5,-243.5 1239.5,-224.5 1162.5,-224.5"/>
<text text-anchor="middle" x="1201" y="-231.5" font-family="Helvetica,sans-Serif" font-size="10.00">Application.inl</text>
</a>
</g>
</g>
<!-- Node3&#45;&gt;Node39 -->
<g id="edge59" class="edge">
<title>Node3&#45;&gt;Node39</title>
<path fill="none" stroke="midnightblue" d="M898.05,-280.55C961.05,-272.41 1058.2,-259.3 1152.28,-244.05"/>
<polygon fill="midnightblue" stroke="midnightblue" points="1152.95,-247.49 1162.25,-242.42 1151.82,-240.58 1152.95,-247.49"/>
</g>
<!-- Node12&#45;&gt;Node6 -->
<g id="edge17" class="edge">
<title>Node12&#45;&gt;Node6</title>
<path fill="none" stroke="midnightblue" d="M1032.59,-224.42C1001.58,-216.45 955.59,-203.49 917,-188 898.92,-180.74 895.63,-176.29 878,-168 853.21,-156.35 824.6,-144.17 803.51,-135.42"/>
<polygon fill="midnightblue" stroke="midnightblue" points="804.69,-132.12 794.11,-131.54 802.02,-138.59 804.69,-132.12"/>
</g>
<!-- Node12&#45;&gt;Node7 -->
<g id="edge19" class="edge">
<title>Node12&#45;&gt;Node7</title>
<path fill="none" stroke="midnightblue" d="M991.68,-225.56C921.31,-218.11 814.13,-205.28 722,-188 641.54,-172.91 548.93,-148.43 497.56,-134.21"/>
<polygon fill="midnightblue" stroke="midnightblue" points="498.42,-130.82 487.85,-131.51 496.55,-137.56 498.42,-130.82"/>
</g>
<!-- Node12&#45;&gt;Node8 -->
<g id="edge18" class="edge">
<title>Node12&#45;&gt;Node8</title>
<path fill="none" stroke="midnightblue" d="M991.7,-228.69C929.44,-223.52 839.87,-212.27 765,-188 754.68,-184.65 698.59,-154.71 665.15,-136.65"/>
<polygon fill="midnightblue" stroke="midnightblue" points="666.44,-133.37 655.98,-131.69 663.11,-139.52 666.44,-133.37"/>
</g>
<!-- Node13 -->
<g id="node13" class="node">
<title>Node13</title>
<g id="a_node13"><a xlink:title=" ">
<polygon fill="white" stroke="#bfbfbf" points="528,-56.5 528,-75.5 570,-75.5 570,-56.5 528,-56.5"/>
<text text-anchor="middle" x="549" y="-63.5" font-family="Helvetica,sans-Serif" font-size="10.00">vector</text>
</a>
</g>
</g>
<!-- Node12&#45;&gt;Node13 -->
<g id="edge12" class="edge">
<title>Node12&#45;&gt;Node13</title>
<path fill="none" stroke="midnightblue" d="M991.98,-228.02C921.07,-222.23 812.76,-210.45 721,-188 650.66,-170.79 617.47,-184.88 568,-132 556.34,-119.54 551.79,-100.3 550.04,-85.99"/>
<polygon fill="midnightblue" stroke="midnightblue" points="553.51,-85.44 549.16,-75.78 546.53,-86.05 553.51,-85.44"/>
</g>
<!-- Node14 -->
<g id="node14" class="node">
<title>Node14</title>
<g id="a_node14"><a xlink:title=" ">
<polygon fill="white" stroke="#bfbfbf" points="1141,-56.5 1141,-75.5 1193,-75.5 1193,-56.5 1141,-56.5"/>
<text text-anchor="middle" x="1167" y="-63.5" font-family="Helvetica,sans-Serif" font-size="10.00">memory</text>
</a>
</g>
</g>
<!-- Node12&#45;&gt;Node14 -->
<g id="edge13" class="edge">
<title>Node12&#45;&gt;Node14</title>
<path fill="none" stroke="midnightblue" d="M1073.32,-224.08C1089.11,-197.61 1135.86,-119.21 1156.74,-84.21"/>
<polygon fill="midnightblue" stroke="midnightblue" points="1159.77,-85.95 1161.89,-75.57 1153.76,-82.36 1159.77,-85.95"/>
</g>
<!-- Node15 -->
<g id="node15" class="node">
<title>Node15</title>
<g id="a_node15"><a xlink:title=" ">
<polygon fill="white" stroke="#bfbfbf" points="1134,-168.5 1134,-187.5 1184,-187.5 1184,-168.5 1134,-168.5"/>
<text text-anchor="middle" x="1159" y="-175.5" font-family="Helvetica,sans-Serif" font-size="10.00">typeinfo</text>
</a>
</g>
</g>
<!-- Node12&#45;&gt;Node15 -->
<g id="edge14" class="edge">
<title>Node12&#45;&gt;Node15</title>
<path fill="none" stroke="midnightblue" d="M1082.62,-224.32C1096.95,-215.82 1119.01,-202.73 1135.75,-192.8"/>
<polygon fill="midnightblue" stroke="midnightblue" points="1137.6,-195.77 1144.42,-187.65 1134.03,-189.75 1137.6,-195.77"/>
</g>
<!-- Node16 -->
<g id="node16" class="node">
<title>Node16</title>
<g id="a_node16"><a xlink:title=" ">
<polygon fill="white" stroke="#bfbfbf" points="1202,-168.5 1202,-187.5 1260,-187.5 1260,-168.5 1202,-168.5"/>
<text text-anchor="middle" x="1231" y="-175.5" font-family="Helvetica,sans-Serif" font-size="10.00">functional</text>
</a>
</g>
</g>
<!-- Node12&#45;&gt;Node16 -->
<g id="edge15" class="edge">
<title>Node12&#45;&gt;Node16</title>
<path fill="none" stroke="midnightblue" d="M1093.83,-224.44C1121.25,-215.36 1164.78,-200.94 1195.43,-190.78"/>
<polygon fill="midnightblue" stroke="midnightblue" points="1196.9,-193.98 1205.29,-187.52 1194.7,-187.34 1196.9,-193.98"/>
</g>
<!-- Node17 -->
<g id="node17" class="node">
<title>Node17</title>
<g id="a_node17"><a xlink:title=" ">
<polygon fill="white" stroke="#bfbfbf" points="1576.5,-56.5 1576.5,-75.5 1659.5,-75.5 1659.5,-56.5 1576.5,-56.5"/>
<text text-anchor="middle" x="1618" y="-63.5" font-family="Helvetica,sans-Serif" font-size="10.00">unordered_map</text>
</a>
</g>
</g>
<!-- Node12&#45;&gt;Node17 -->
<g id="edge16" class="edge">
<title>Node12&#45;&gt;Node17</title>
<path fill="none" stroke="midnightblue" d="M1118.2,-224.46C1162.65,-216.46 1229.13,-203.45 1286,-188 1312.72,-180.74 1318.19,-174.9 1345,-168 1432.89,-145.37 1464.51,-171.95 1546,-132 1569.51,-120.47 1591.02,-98.97 1604.29,-83.86"/>
<polygon fill="midnightblue" stroke="midnightblue" points="1607.3,-85.72 1611.1,-75.83 1601.97,-81.19 1607.3,-85.72"/>
</g>
<!-- Node18 -->
<g id="node18" class="node">
<title>Node18</title>
<g id="a_node18"><a xlink:title=" ">
<polygon fill="white" stroke="#bfbfbf" points="935.5,-56.5 935.5,-75.5 1084.5,-75.5 1084.5,-56.5 935.5,-56.5"/>
<text text-anchor="middle" x="1010" y="-63.5" font-family="Helvetica,sans-Serif" font-size="10.00">SFML/Graphics/Transform.hpp</text>
</a>
</g>
</g>
<!-- Node12&#45;&gt;Node18 -->
<g id="edge20" class="edge">
<title>Node12&#45;&gt;Node18</title>
<path fill="none" stroke="midnightblue" d="M1069.09,-224.25C1071.26,-203.55 1074.46,-150.44 1056,-112 1050.37,-100.28 1040.36,-89.92 1031.1,-82.1"/>
<polygon fill="midnightblue" stroke="midnightblue" points="1032.98,-79.12 1022.97,-75.67 1028.64,-84.61 1032.98,-79.12"/>
</g>
<!-- Node19 -->
<g id="node19" class="node">
<title>Node19</title>
<g id="a_node19"><a xlink:href="../../db/de8/Scene_8hpp.html" target="_top" xlink:title="The base scene class and the scene states are defined here.">
<polygon fill="white" stroke="black" points="926,-168.5 926,-187.5 1040,-187.5 1040,-168.5 926,-168.5"/>
<text text-anchor="middle" x="983" y="-175.5" font-family="Helvetica,sans-Serif" font-size="10.00">Small/Core/Scene.hpp</text>
</a>
</g>
</g>
<!-- Node12&#45;&gt;Node19 -->
<g id="edge21" class="edge">
<title>Node12&#45;&gt;Node19</title>
<path fill="none" stroke="midnightblue" d="M1054.34,-224.32C1041.08,-215.9 1020.73,-202.97 1005.15,-193.07"/>
<polygon fill="midnightblue" stroke="midnightblue" points="1006.94,-190.06 996.62,-187.65 1003.19,-195.97 1006.94,-190.06"/>
</g>
<!-- Node12&#45;&gt;Node20 -->
<g id="edge45" class="edge">
<title>Node12&#45;&gt;Node20</title>
<path fill="none" stroke="midnightblue" d="M1121.88,-224.48C1178.21,-215.02 1259.74,-199.57 1269,-188 1280.33,-173.85 1270,-153.83 1259.59,-139.76"/>
<polygon fill="midnightblue" stroke="midnightblue" points="1262.26,-137.5 1253.29,-131.87 1256.79,-141.87 1262.26,-137.5"/>
</g>
<!-- Node12&#45;&gt;Node29 -->
<g id="edge46" class="edge">
<title>Node12&#45;&gt;Node29</title>
<path fill="none" stroke="midnightblue" d="M1120.13,-224.44C1181.49,-214.37 1282.81,-197.74 1344.38,-187.64"/>
<polygon fill="midnightblue" stroke="midnightblue" points="1344.98,-191.09 1354.28,-186.01 1343.84,-184.18 1344.98,-191.09"/>
</g>
<!-- Node30 -->
<g id="node30" class="node">
<title>Node30</title>
<g id="a_node30"><a xlink:title=" ">
<polygon fill="white" stroke="#bfbfbf" points="774.5,-168.5 774.5,-187.5 869.5,-187.5 869.5,-168.5 774.5,-168.5"/>
<text text-anchor="middle" x="822" y="-175.5" font-family="Helvetica,sans-Serif" font-size="10.00">SceneManager.inl</text>
</a>
</g>
</g>
<!-- Node12&#45;&gt;Node30 -->
<g id="edge47" class="edge">
<title>Node12&#45;&gt;Node30</title>
<path fill="none" stroke="midnightblue" d="M1029.02,-224.44C986.11,-215.02 917.05,-199.87 870.63,-189.68"/>
<polygon fill="midnightblue" stroke="midnightblue" points="871.31,-186.24 860.8,-187.52 869.81,-193.08 871.31,-186.24"/>
</g>
<!-- Node19&#45;&gt;Node4 -->
<g id="edge22" class="edge">
<title>Node19&#45;&gt;Node4</title>
<path fill="none" stroke="midnightblue" d="M999.37,-168.36C1014.66,-159.96 1037.78,-146.4 1056,-132 1093.47,-102.38 1092.14,-82.33 1132,-56 1157.44,-39.2 1190.13,-26.96 1213.62,-19.53"/>
<polygon fill="midnightblue" stroke="midnightblue" points="1214.85,-22.81 1223.39,-16.54 1212.8,-16.12 1214.85,-22.81"/>
</g>
<!-- Node19&#45;&gt;Node6 -->
<g id="edge23" class="edge">
<title>Node19&#45;&gt;Node6</title>
<path fill="none" stroke="midnightblue" d="M949.72,-168.44C913.55,-159.14 855.62,-144.25 816.02,-134.06"/>
<polygon fill="midnightblue" stroke="midnightblue" points="816.68,-130.62 806.12,-131.52 814.93,-137.4 816.68,-130.62"/>
</g>
<!-- Node19&#45;&gt;Node7 -->
<g id="edge25" class="edge">
<title>Node19&#45;&gt;Node7</title>
<path fill="none" stroke="midnightblue" d="M925.82,-171.12C830.01,-161.26 637.2,-141.43 531.48,-130.56"/>
<polygon fill="midnightblue" stroke="midnightblue" points="531.52,-127.04 521.21,-129.5 530.8,-134.01 531.52,-127.04"/>
</g>
<!-- Node19&#45;&gt;Node8 -->
<g id="edge24" class="edge">
<title>Node19&#45;&gt;Node8</title>
<path fill="none" stroke="midnightblue" d="M928.65,-168.44C867.69,-158.85 768.89,-143.29 704.18,-133.1"/>
<polygon fill="midnightblue" stroke="midnightblue" points="704.52,-129.61 694.1,-131.52 703.43,-136.53 704.52,-129.61"/>
</g>
<!-- Node19&#45;&gt;Node20 -->
<g id="edge26" class="edge">
<title>Node19&#45;&gt;Node20</title>
<path fill="none" stroke="midnightblue" d="M1024.51,-168.44C1070.41,-158.98 1144.38,-143.74 1193.83,-133.55"/>
<polygon fill="midnightblue" stroke="midnightblue" points="1194.59,-136.96 1203.68,-131.52 1193.18,-130.11 1194.59,-136.96"/>
</g>
<!-- Node21 -->
<g id="node21" class="node">
<title>Node21</title>
<g id="a_node21"><a xlink:href="../../d7/dc6/Node_8hpp.html" target="_top" xlink:title="A scene graph node.">
<polygon fill="white" stroke="black" points="919,-112.5 919,-131.5 1047,-131.5 1047,-112.5 919,-112.5"/>
<text text-anchor="middle" x="983" y="-119.5" font-family="Helvetica,sans-Serif" font-size="10.00">Small/Graphics/Node.hpp</text>
</a>
</g>
</g>
<!-- Node19&#45;&gt;Node21 -->
<g id="edge28" class="edge">
<title>Node19&#45;&gt;Node21</title>
<path fill="none" stroke="midnightblue" d="M983,-168.08C983,-161.01 983,-150.86 983,-141.99"/>
<polygon fill="midnightblue" stroke="midnightblue" points="986.5,-141.75 983,-131.75 979.5,-141.75 986.5,-141.75"/>
</g>
<!-- Node24 -->
<g id="node24" class="node">
<title>Node24</title>
<g id="a_node24"><a xlink:href="../../dc/d6f/RessourceManager_8hpp.html" target="_top" xlink:title=" ">
<polygon fill="white" stroke="black" points="1367,-112.5 1367,-131.5 1537,-131.5 1537,-112.5 1367,-112.5"/>
<text text-anchor="middle" x="1452" y="-119.5" font-family="Helvetica,sans-Serif" font-size="10.00">Small/Core/RessourceManager.hpp</text>
</a>
</g>
</g>
<!-- Node19&#45;&gt;Node24 -->
<g id="edge34" class="edge">
<title>Node19&#45;&gt;Node24</title>
<path fill="none" stroke="midnightblue" d="M1040.04,-170.43C1121.89,-161.01 1273.2,-143.59 1367.9,-132.68"/>
<polygon fill="midnightblue" stroke="midnightblue" points="1368.49,-136.14 1378.02,-131.52 1367.69,-129.18 1368.49,-136.14"/>
</g>
<!-- Node28 -->
<g id="node28" class="node">
<title>Node28</title>
<g id="a_node28"><a xlink:title=" ">
<polygon fill="white" stroke="#bfbfbf" points="843.5,-112.5 843.5,-131.5 900.5,-131.5 900.5,-112.5 843.5,-112.5"/>
<text text-anchor="middle" x="872" y="-119.5" font-family="Helvetica,sans-Serif" font-size="10.00">Scene.inl</text>
</a>
</g>
</g>
<!-- Node19&#45;&gt;Node28 -->
<g id="edge44" class="edge">
<title>Node19&#45;&gt;Node28</title>
<path fill="none" stroke="midnightblue" d="M965.17,-168.32C947.28,-159.62 919.52,-146.12 898.95,-136.11"/>
<polygon fill="midnightblue" stroke="midnightblue" points="900.31,-132.88 889.79,-131.65 897.25,-139.18 900.31,-132.88"/>
</g>
<!-- Node20&#45;&gt;Node4 -->
<g id="edge27" class="edge">
<title>Node20&#45;&gt;Node4</title>
<path fill="none" stroke="midnightblue" d="M1244.92,-112.37C1244.76,-94.62 1244.39,-53.67 1244.17,-29.6"/>
<polygon fill="midnightblue" stroke="midnightblue" points="1247.67,-29.56 1244.08,-19.59 1240.67,-29.62 1247.67,-29.56"/>
</g>
<!-- Node21&#45;&gt;Node13 -->
<g id="edge32" class="edge">
<title>Node21&#45;&gt;Node13</title>
<path fill="none" stroke="midnightblue" d="M918.83,-113.16C915.5,-112.77 912.21,-112.38 909,-112 767.73,-95.41 731.38,-98.93 591,-76 587.51,-75.43 583.87,-74.76 580.26,-74.05"/>
<polygon fill="midnightblue" stroke="midnightblue" points="580.79,-70.59 570.29,-71.99 579.37,-77.44 580.79,-70.59"/>
</g>
<!-- Node21&#45;&gt;Node14 -->
<g id="edge33" class="edge">
<title>Node21&#45;&gt;Node14</title>
<path fill="none" stroke="midnightblue" d="M1012.16,-112.44C1044.44,-102.97 1096.49,-87.69 1131.21,-77.5"/>
<polygon fill="midnightblue" stroke="midnightblue" points="1132.35,-80.82 1140.96,-74.64 1130.38,-74.1 1132.35,-80.82"/>
</g>
<!-- Node21&#45;&gt;Node18 -->
<g id="edge30" class="edge">
<title>Node21&#45;&gt;Node18</title>
<path fill="none" stroke="midnightblue" d="M987.46,-112.08C991.15,-104.69 996.52,-93.95 1001.09,-84.81"/>
<polygon fill="midnightblue" stroke="midnightblue" points="1004.28,-86.26 1005.62,-75.75 998.02,-83.13 1004.28,-86.26"/>
</g>
<!-- Node22 -->
<g id="node22" class="node">
<title>Node22</title>
<g id="a_node22"><a xlink:title=" ">
<polygon fill="white" stroke="#bfbfbf" points="600,-56.5 600,-75.5 764,-75.5 764,-56.5 600,-56.5"/>
<text text-anchor="middle" x="682" y="-63.5" font-family="Helvetica,sans-Serif" font-size="10.00">SFML/Graphics/RenderTarget.hpp</text>
</a>
</g>
</g>
<!-- Node21&#45;&gt;Node22 -->
<g id="edge29" class="edge">
<title>Node21&#45;&gt;Node22</title>
<path fill="none" stroke="midnightblue" d="M935.31,-112.44C882.14,-102.9 796.18,-87.48 739.37,-77.29"/>
<polygon fill="midnightblue" stroke="midnightblue" points="739.93,-73.84 729.47,-75.52 738.7,-80.73 739.93,-73.84"/>
</g>
<!-- Node23 -->
<g id="node23" class="node">
<title>Node23</title>
<g id="a_node23"><a xlink:title=" ">
<polygon fill="white" stroke="#bfbfbf" points="782.5,-56.5 782.5,-75.5 917.5,-75.5 917.5,-56.5 782.5,-56.5"/>
<text text-anchor="middle" x="850" y="-63.5" font-family="Helvetica,sans-Serif" font-size="10.00">SFML/System/Vector2.hpp</text>
</a>
</g>
</g>
<!-- Node21&#45;&gt;Node23 -->
<g id="edge31" class="edge">
<title>Node21&#45;&gt;Node23</title>
<path fill="none" stroke="midnightblue" d="M961.93,-112.44C939.94,-103.52 905.27,-89.44 880.34,-79.32"/>
<polygon fill="midnightblue" stroke="midnightblue" points="881.56,-76.04 870.98,-75.52 878.92,-82.52 881.56,-76.04"/>
</g>
<!-- Node24&#45;&gt;Node4 -->
<g id="edge35" class="edge">
<title>Node24&#45;&gt;Node4</title>
<path fill="none" stroke="midnightblue" d="M1435.49,-112.41C1418.17,-103.38 1390.14,-88.75 1366,-76 1332.46,-58.29 1293.84,-37.68 1269.19,-24.49"/>
<polygon fill="midnightblue" stroke="midnightblue" points="1270.63,-21.29 1260.16,-19.66 1267.33,-27.46 1270.63,-21.29"/>
</g>
<!-- Node24&#45;&gt;Node14 -->
<g id="edge36" class="edge">
<title>Node24&#45;&gt;Node14</title>
<path fill="none" stroke="midnightblue" d="M1406.84,-112.44C1350.45,-101.76 1255.12,-83.7 1203.25,-73.87"/>
<polygon fill="midnightblue" stroke="midnightblue" points="1203.65,-70.38 1193.17,-71.96 1202.35,-77.26 1203.65,-70.38"/>
</g>
<!-- Node24&#45;&gt;Node17 -->
<g id="edge37" class="edge">
<title>Node24&#45;&gt;Node17</title>
<path fill="none" stroke="midnightblue" d="M1478.3,-112.44C1506.35,-103.32 1550.94,-88.81 1582.18,-78.65"/>
<polygon fill="midnightblue" stroke="midnightblue" points="1583.39,-81.94 1591.82,-75.52 1581.23,-75.28 1583.39,-81.94"/>
</g>
<!-- Node25 -->
<g id="node25" class="node">
<title>Node25</title>
<g id="a_node25"><a xlink:title=" ">
<polygon fill="white" stroke="#bfbfbf" points="1468.5,-0.5 1468.5,-19.5 1607.5,-19.5 1607.5,-0.5 1468.5,-0.5"/>
<text text-anchor="middle" x="1538" y="-7.5" font-family="Helvetica,sans-Serif" font-size="10.00">SFML/Graphics/Texture.hpp</text>
</a>
</g>
</g>
<!-- Node24&#45;&gt;Node25 -->
<g id="edge38" class="edge">
<title>Node24&#45;&gt;Node25</title>
<path fill="none" stroke="midnightblue" d="M1477.63,-112.46C1494.68,-105.41 1516.06,-93.66 1528,-76 1537.09,-62.55 1539.17,-43.99 1539.22,-30.14"/>
<polygon fill="midnightblue" stroke="midnightblue" points="1542.71,-29.72 1538.89,-19.84 1535.71,-29.94 1542.71,-29.72"/>
</g>
<!-- Node26 -->
<g id="node26" class="node">
<title>Node26</title>
<g id="a_node26"><a xlink:title=" ">
<polygon fill="white" stroke="#bfbfbf" points="1305,-0.5 1305,-19.5 1431,-19.5 1431,-0.5 1305,-0.5"/>
<text text-anchor="middle" x="1368" y="-7.5" font-family="Helvetica,sans-Serif" font-size="10.00">SFML/Graphics/Font.hpp</text>
</a>
</g>
</g>
<!-- Node24&#45;&gt;Node26 -->
<g id="edge39" class="edge">
<title>Node24&#45;&gt;Node26</title>
<path fill="none" stroke="midnightblue" d="M1426.61,-112.43C1409.75,-105.36 1388.64,-93.61 1377,-76 1368.07,-62.49 1366.28,-43.93 1366.46,-30.11"/>
<polygon fill="midnightblue" stroke="midnightblue" points="1369.97,-29.97 1366.96,-19.82 1362.98,-29.64 1369.97,-29.97"/>
</g>
<!-- Node27 -->
<g id="node27" class="node">
<title>Node27</title>
<g id="a_node27"><a xlink:href="../../db/d73/Ressource_8hpp.html" target="_top" xlink:title=" ">
<polygon fill="white" stroke="black" points="1386.5,-56.5 1386.5,-75.5 1519.5,-75.5 1519.5,-56.5 1386.5,-56.5"/>
<text text-anchor="middle" x="1453" y="-63.5" font-family="Helvetica,sans-Serif" font-size="10.00">Small/Core/Ressource.hpp</text>
</a>
</g>
</g>
<!-- Node24&#45;&gt;Node27 -->
<g id="edge40" class="edge">
<title>Node24&#45;&gt;Node27</title>
<path fill="none" stroke="midnightblue" d="M1452.17,-112.08C1452.3,-105.01 1452.48,-94.86 1452.65,-85.99"/>
<polygon fill="midnightblue" stroke="midnightblue" points="1456.15,-85.81 1452.84,-75.75 1449.15,-85.68 1456.15,-85.81"/>
</g>
<!-- Node27&#45;&gt;Node4 -->
<g id="edge41" class="edge">
<title>Node27&#45;&gt;Node4</title>
<path fill="none" stroke="midnightblue" d="M1419.88,-56.44C1380.01,-46.14 1313.57,-28.98 1274.77,-18.95"/>
<polygon fill="midnightblue" stroke="midnightblue" points="1275.17,-15.44 1264.61,-16.32 1273.41,-22.21 1275.17,-15.44"/>
</g>
<!-- Node27&#45;&gt;Node25 -->
<g id="edge42" class="edge">
<title>Node27&#45;&gt;Node25</title>
<path fill="none" stroke="midnightblue" d="M1466.66,-56.32C1479.92,-47.9 1500.27,-34.97 1515.85,-25.07"/>
<polygon fill="midnightblue" stroke="midnightblue" points="1517.81,-27.97 1524.38,-19.65 1514.06,-22.06 1517.81,-27.97"/>
</g>
<!-- Node27&#45;&gt;Node26 -->
<g id="edge43" class="edge">
<title>Node27&#45;&gt;Node26</title>
<path fill="none" stroke="midnightblue" d="M1439.34,-56.32C1426.08,-47.9 1405.73,-34.97 1390.15,-25.07"/>
<polygon fill="midnightblue" stroke="midnightblue" points="1391.94,-22.06 1381.62,-19.65 1388.19,-27.97 1391.94,-22.06"/>
</g>
<!-- Node32 -->
<g id="node32" class="node">
<title>Node32</title>
<g id="a_node32"><a xlink:title=" ">
<polygon fill="white" stroke="#bfbfbf" points="1534,-168.5 1534,-187.5 1572,-187.5 1572,-168.5 1534,-168.5"/>
<text text-anchor="middle" x="1553" y="-175.5" font-family="Helvetica,sans-Serif" font-size="10.00">array</text>
</a>
</g>
</g>
<!-- Node31&#45;&gt;Node32 -->
<g id="edge49" class="edge">
<title>Node31&#45;&gt;Node32</title>
<path fill="none" stroke="midnightblue" d="M1588.9,-224.08C1582.76,-216.38 1573.73,-205.03 1566.26,-195.65"/>
<polygon fill="midnightblue" stroke="midnightblue" points="1568.94,-193.39 1559.97,-187.75 1563.46,-197.75 1568.94,-193.39"/>
</g>
<!-- Node33 -->
<g id="node33" class="node">
<title>Node33</title>
<g id="a_node33"><a xlink:title=" ">
<polygon fill="white" stroke="#bfbfbf" points="1590,-168.5 1590,-187.5 1636,-187.5 1636,-168.5 1590,-168.5"/>
<text text-anchor="middle" x="1613" y="-175.5" font-family="Helvetica,sans-Serif" font-size="10.00">chrono</text>
</a>
</g>
</g>
<!-- Node31&#45;&gt;Node33 -->
<g id="edge50" class="edge">
<title>Node31&#45;&gt;Node33</title>
<path fill="none" stroke="midnightblue" d="M1598.81,-224.08C1601.08,-216.85 1604.37,-206.41 1607.21,-197.4"/>
<polygon fill="midnightblue" stroke="midnightblue" points="1610.58,-198.34 1610.25,-187.75 1603.9,-196.24 1610.58,-198.34"/>
</g>
<!-- Node34 -->
<g id="node34" class="node">
<title>Node34</title>
<g id="a_node34"><a xlink:title=" ">
<polygon fill="white" stroke="#bfbfbf" points="1654,-168.5 1654,-187.5 1798,-187.5 1798,-168.5 1654,-168.5"/>
<text text-anchor="middle" x="1726" y="-175.5" font-family="Helvetica,sans-Serif" font-size="10.00">imgui_widget_flamegraph.hpp</text>
</a>
</g>
</g>
<!-- Node31&#45;&gt;Node34 -->
<g id="edge51" class="edge">
<title>Node31&#45;&gt;Node34</title>
<path fill="none" stroke="midnightblue" d="M1616.6,-224.44C1637.99,-215.56 1671.68,-201.56 1696.02,-191.45"/>
<polygon fill="midnightblue" stroke="midnightblue" points="1697.61,-194.58 1705.5,-187.52 1694.92,-188.12 1697.61,-194.58"/>
</g>
<!-- Node36&#45;&gt;Node7 -->
<g id="edge56" class="edge">
<title>Node36&#45;&gt;Node7</title>
<path fill="none" stroke="midnightblue" d="M436.47,-224.44C452.57,-217.38 472.38,-205.63 482,-188 490.43,-172.56 481.4,-153.55 472.1,-140.08"/>
<polygon fill="midnightblue" stroke="midnightblue" points="474.64,-137.64 465.83,-131.76 469.05,-141.85 474.64,-137.64"/>
</g>
<!-- Node36&#45;&gt;Node35 -->
<g id="edge55" class="edge">
<title>Node36&#45;&gt;Node35</title>
<path fill="none" stroke="midnightblue" d="M373.18,-224.44C329.15,-214.74 257.49,-198.95 211.31,-188.77"/>
<polygon fill="midnightblue" stroke="midnightblue" points="211.81,-185.29 201.29,-186.56 210.3,-192.13 211.81,-185.29"/>
</g>
<!-- Node37 -->
<g id="node37" class="node">
<title>Node37</title>
<g id="a_node37"><a xlink:title=" ">
<polygon fill="white" stroke="#bfbfbf" points="351,-168.5 351,-187.5 473,-187.5 473,-168.5 351,-168.5"/>
<text text-anchor="middle" x="412" y="-175.5" font-family="Helvetica,sans-Serif" font-size="10.00">SFML/System/Time.hpp</text>
</a>
</g>
</g>
<!-- Node36&#45;&gt;Node37 -->
<g id="edge57" class="edge">
<title>Node36&#45;&gt;Node37</title>
<path fill="none" stroke="midnightblue" d="M412,-224.08C412,-217.01 412,-206.86 412,-197.99"/>
<polygon fill="midnightblue" stroke="midnightblue" points="415.5,-197.75 412,-187.75 408.5,-197.75 415.5,-197.75"/>
</g>
<!-- Node38 -->
<g id="node38" class="node">
<title>Node38</title>
<g id="a_node38"><a xlink:title=" ">
<polygon fill="white" stroke="#bfbfbf" points="219.5,-168.5 219.5,-187.5 332.5,-187.5 332.5,-168.5 219.5,-168.5"/>
<text text-anchor="middle" x="276" y="-175.5" font-family="Helvetica,sans-Serif" font-size="10.00">SFML/System/Utf.hpp</text>
</a>
</g>
</g>
<!-- Node36&#45;&gt;Node38 -->
<g id="edge58" class="edge">
<title>Node36&#45;&gt;Node38</title>
<path fill="none" stroke="midnightblue" d="M390.45,-224.44C367.97,-215.52 332.51,-201.44 307.02,-191.32"/>
<polygon fill="midnightblue" stroke="midnightblue" points="308.03,-187.95 297.45,-187.52 305.45,-194.46 308.03,-187.95"/>
</g>
<!-- Node40&#45;&gt;Node4 -->
<g id="edge62" class="edge">
<title>Node40&#45;&gt;Node4</title>
<path fill="none" stroke="midnightblue" d="M71.49,-224.47C78.88,-211.08 94.73,-184.88 114,-168 153.49,-133.41 169.1,-131.09 218,-112 311.59,-75.47 337.71,-71.31 437,-56 736.66,-9.78 1105.4,-9.53 1213.11,-10.57"/>
<polygon fill="midnightblue" stroke="midnightblue" points="1213.23,-14.07 1223.27,-10.68 1213.31,-7.07 1213.23,-14.07"/>
</g>
<!-- Node40&#45;&gt;Node35 -->
<g id="edge61" class="edge">
<title>Node40&#45;&gt;Node35</title>
<path fill="none" stroke="midnightblue" d="M83.07,-224.32C98.96,-215.74 123.51,-202.49 141.96,-192.52"/>
<polygon fill="midnightblue" stroke="midnightblue" points="143.84,-195.49 150.97,-187.65 140.51,-189.33 143.84,-195.49"/>
</g>
<!-- Node42 -->
<g id="node42" class="node">
<title>Node42</title>
<g id="a_node42"><a xlink:title=" ">
<polygon fill="white" stroke="#bfbfbf" points="1676.5,-224.5 1676.5,-243.5 1771.5,-243.5 1771.5,-224.5 1676.5,-224.5"/>
<text text-anchor="middle" x="1724" y="-231.5" font-family="Helvetica,sans-Serif" font-size="10.00">Ark/VM/State.hpp</text>
</a>
</g>
</g>
<!-- Node41&#45;&gt;Node42 -->
<g id="edge64" class="edge">
<title>Node41&#45;&gt;Node42</title>
<path fill="none" stroke="midnightblue" d="M1561.58,-280.44C1594.61,-271.2 1647.39,-256.44 1683.77,-246.26"/>
<polygon fill="midnightblue" stroke="midnightblue" points="1684.87,-249.58 1693.56,-243.52 1682.99,-242.84 1684.87,-249.58"/>
</g>
<!-- Node43&#45;&gt;Node4 -->
<g id="edge66" class="edge">
<title>Node43&#45;&gt;Node4</title>
<path fill="none" stroke="midnightblue" d="M324.39,-112.43C363.3,-97.95 446.21,-68.98 519,-56 784.63,-8.62 1112.66,-9 1213.25,-10.41"/>
<polygon fill="midnightblue" stroke="midnightblue" points="1213.27,-13.91 1223.32,-10.56 1213.38,-6.91 1213.27,-13.91"/>
</g>
<!-- Node43&#45;&gt;Node13 -->
<g id="edge67" class="edge">
<title>Node43&#45;&gt;Node13</title>
<path fill="none" stroke="midnightblue" d="M341.14,-112.44C390.13,-101.73 473.04,-83.61 517.91,-73.8"/>
<polygon fill="midnightblue" stroke="midnightblue" points="518.92,-77.16 527.94,-71.6 517.42,-70.32 518.92,-77.16"/>
</g>
</g>
</svg>
