<?xml version="1.0" encoding="UTF-8" standalone="no"?>
<!DOCTYPE svg PUBLIC "-//W3C//DTD SVG 1.1//EN"
 "http://www.w3.org/Graphics/SVG/1.1/DTD/svg11.dtd">
<!-- Generated by graphviz version 2.49.0 (20210828.1703)
 -->
<!-- Title: C:/Users/folae/Documents/Code/Big&#45;Projects/ScriptWizards/SmallGameLibrary/source/Scenes/Zone.cpp Pages: 1 -->
<svg width="1578pt" height="330pt"
 viewBox="0.00 0.00 1577.50 330.00" xmlns="http://www.w3.org/2000/svg" xmlns:xlink="http://www.w3.org/1999/xlink">
<g id="graph0" class="graph" transform="scale(1 1) rotate(0) translate(4 326)">
<title>C:/Users/folae/Documents/Code/Big&#45;Projects/ScriptWizards/SmallGameLibrary/source/Scenes/Zone.cpp</title>
<polygon fill="white" stroke="transparent" points="-4,4 -4,-326 1573.5,-326 1573.5,4 -4,4"/>
<!-- Node1 -->
<g id="node1" class="node">
<title>Node1</title>
<g id="a_node1"><a xlink:title=" ">
<polygon fill="#bfbfbf" stroke="black" points="705.5,-280.5 705.5,-321.5 916.5,-321.5 916.5,-280.5 705.5,-280.5"/>
<text text-anchor="start" x="713.5" y="-309.5" font-family="Helvetica,sans-Serif" font-size="10.00">C:/Users/folae/Documents</text>
<text text-anchor="start" x="713.5" y="-298.5" font-family="Helvetica,sans-Serif" font-size="10.00">/Code/Big&#45;Projects/ScriptWizards</text>
<text text-anchor="middle" x="811" y="-287.5" font-family="Helvetica,sans-Serif" font-size="10.00">/SmallGameLibrary/source/Scenes/Zone.cpp</text>
</a>
</g>
</g>
<!-- Node2 -->
<g id="node2" class="node">
<title>Node2</title>
<g id="a_node2"><a xlink:href="../../d2/d50/Zone_8hpp.html" target="_top" xlink:title="A specialized scene to handle zones and transitions on a tilemap.">
<polygon fill="white" stroke="black" points="701,-224.5 701,-243.5 821,-243.5 821,-224.5 701,-224.5"/>
<text text-anchor="middle" x="761" y="-231.5" font-family="Helvetica,sans-Serif" font-size="10.00">Small/Scenes/Zone.hpp</text>
</a>
</g>
</g>
<!-- Node1&#45;&gt;Node2 -->
<g id="edge1" class="edge">
<title>Node1&#45;&gt;Node2</title>
<path fill="none" stroke="midnightblue" d="M796,-280.5C788.92,-271.3 780.57,-260.44 773.79,-251.63"/>
<polygon fill="midnightblue" stroke="midnightblue" points="776.53,-249.44 767.66,-243.65 770.98,-253.71 776.53,-249.44"/>
</g>
<!-- Node23 -->
<g id="node23" class="node">
<title>Node23</title>
<g id="a_node23"><a xlink:title=" ">
<polygon fill="white" stroke="#bfbfbf" points="839,-224.5 839,-243.5 883,-243.5 883,-224.5 839,-224.5"/>
<text text-anchor="middle" x="861" y="-231.5" font-family="Helvetica,sans-Serif" font-size="10.00">cmath</text>
</a>
</g>
</g>
<!-- Node1&#45;&gt;Node23 -->
<g id="edge29" class="edge">
<title>Node1&#45;&gt;Node23</title>
<path fill="none" stroke="midnightblue" d="M826,-280.5C833.08,-271.3 841.43,-260.44 848.21,-251.63"/>
<polygon fill="midnightblue" stroke="midnightblue" points="851.02,-253.71 854.34,-243.65 845.47,-249.44 851.02,-253.71"/>
</g>
<!-- Node3 -->
<g id="node3" class="node">
<title>Node3</title>
<g id="a_node3"><a xlink:href="../../db/de8/Scene_8hpp.html" target="_top" xlink:title="The base scene class and the scene states are defined here.">
<polygon fill="white" stroke="black" points="439,-168.5 439,-187.5 553,-187.5 553,-168.5 439,-168.5"/>
<text text-anchor="middle" x="496" y="-175.5" font-family="Helvetica,sans-Serif" font-size="10.00">Small/Core/Scene.hpp</text>
</a>
</g>
</g>
<!-- Node2&#45;&gt;Node3 -->
<g id="edge2" class="edge">
<title>Node2&#45;&gt;Node3</title>
<path fill="none" stroke="midnightblue" d="M719.01,-224.44C672.59,-214.98 597.77,-199.74 547.76,-189.55"/>
<polygon fill="midnightblue" stroke="midnightblue" points="548.29,-186.08 537.79,-187.52 546.89,-192.94 548.29,-186.08"/>
</g>
<!-- Node21 -->
<g id="node21" class="node">
<title>Node21</title>
<g id="a_node21"><a xlink:href="../../d8/d67/TileView_8hpp.html" target="_top" xlink:title="Utility to build and manipulate views based on tiles.">
<polygon fill="white" stroke="black" points="955.5,-168.5 955.5,-187.5 1096.5,-187.5 1096.5,-168.5 955.5,-168.5"/>
<text text-anchor="middle" x="1026" y="-175.5" font-family="Helvetica,sans-Serif" font-size="10.00">Small/Graphics/TileView.hpp</text>
</a>
</g>
</g>
<!-- Node2&#45;&gt;Node21 -->
<g id="edge26" class="edge">
<title>Node2&#45;&gt;Node21</title>
<path fill="none" stroke="midnightblue" d="M802.99,-224.44C849.41,-214.98 924.23,-199.74 974.24,-189.55"/>
<polygon fill="midnightblue" stroke="midnightblue" points="975.11,-192.94 984.21,-187.52 973.71,-186.08 975.11,-192.94"/>
</g>
<!-- Node4 -->
<g id="node4" class="node">
<title>Node4</title>
<g id="a_node4"><a xlink:title=" ">
<polygon fill="white" stroke="#bfbfbf" points="852.5,-0.5 852.5,-19.5 893.5,-19.5 893.5,-0.5 852.5,-0.5"/>
<text text-anchor="middle" x="873" y="-7.5" font-family="Helvetica,sans-Serif" font-size="10.00">string</text>
</a>
</g>
</g>
<!-- Node3&#45;&gt;Node4 -->
<g id="edge3" class="edge">
<title>Node3&#45;&gt;Node4</title>
<path fill="none" stroke="midnightblue" d="M497.27,-168.2C501.05,-145.44 514.49,-84.38 553,-56 598.53,-22.44 770.88,-13.83 842.01,-11.69"/>
<polygon fill="midnightblue" stroke="midnightblue" points="842.23,-15.18 852.13,-11.4 842.04,-8.18 842.23,-15.18"/>
</g>
<!-- Node5 -->
<g id="node5" class="node">
<title>Node5</title>
<g id="a_node5"><a xlink:title=" ">
<polygon fill="white" stroke="#bfbfbf" points="0,-112.5 0,-131.5 104,-131.5 104,-112.5 0,-112.5"/>
<text text-anchor="middle" x="52" y="-119.5" font-family="Helvetica,sans-Serif" font-size="10.00">SFML/Graphics.hpp</text>
</a>
</g>
</g>
<!-- Node3&#45;&gt;Node5 -->
<g id="edge4" class="edge">
<title>Node3&#45;&gt;Node5</title>
<path fill="none" stroke="midnightblue" d="M438.83,-170.82C365.97,-162.82 235.85,-148.13 114.45,-132.16"/>
<polygon fill="midnightblue" stroke="midnightblue" points="114.6,-128.65 104.23,-130.81 113.68,-135.59 114.6,-128.65"/>
</g>
<!-- Node6 -->
<g id="node6" class="node">
<title>Node6</title>
<g id="a_node6"><a xlink:title=" ">
<polygon fill="white" stroke="#bfbfbf" points="122,-112.5 122,-131.5 248,-131.5 248,-112.5 122,-112.5"/>
<text text-anchor="middle" x="185" y="-119.5" font-family="Helvetica,sans-Serif" font-size="10.00">SFML/System/Clock.hpp</text>
</a>
</g>
</g>
<!-- Node3&#45;&gt;Node6 -->
<g id="edge5" class="edge">
<title>Node3&#45;&gt;Node6</title>
<path fill="none" stroke="midnightblue" d="M446.72,-168.44C391.67,-158.89 302.6,-143.42 243.92,-133.23"/>
<polygon fill="midnightblue" stroke="midnightblue" points="244.5,-129.78 234.05,-131.52 243.3,-136.68 244.5,-129.78"/>
</g>
<!-- Node7 -->
<g id="node7" class="node">
<title>Node7</title>
<g id="a_node7"><a xlink:title=" ">
<polygon fill="white" stroke="#bfbfbf" points="266,-112.5 266,-131.5 392,-131.5 392,-112.5 266,-112.5"/>
<text text-anchor="middle" x="329" y="-119.5" font-family="Helvetica,sans-Serif" font-size="10.00">SFML/Window/Event.hpp</text>
</a>
</g>
</g>
<!-- Node3&#45;&gt;Node7 -->
<g id="edge6" class="edge">
<title>Node3&#45;&gt;Node7</title>
<path fill="none" stroke="midnightblue" d="M469.54,-168.44C441.32,-159.32 396.46,-144.81 365.03,-134.65"/>
<polygon fill="midnightblue" stroke="midnightblue" points="365.93,-131.26 355.34,-131.52 363.78,-137.92 365.93,-131.26"/>
</g>
<!-- Node8 -->
<g id="node8" class="node">
<title>Node8</title>
<g id="a_node8"><a xlink:href="../../df/db4/Config_8hpp.html" target="_top" xlink:title=" ">
<polygon fill="white" stroke="black" points="374.5,-56.5 374.5,-75.5 505.5,-75.5 505.5,-56.5 374.5,-56.5"/>
<text text-anchor="middle" x="440" y="-63.5" font-family="Helvetica,sans-Serif" font-size="10.00">Small/Scripting/Config.hpp</text>
</a>
</g>
</g>
<!-- Node3&#45;&gt;Node8 -->
<g id="edge7" class="edge">
<title>Node3&#45;&gt;Node8</title>
<path fill="none" stroke="midnightblue" d="M494.39,-168.18C491.79,-155.29 485.94,-130.79 476,-112 470.51,-101.63 462.5,-91.32 455.42,-83.19"/>
<polygon fill="midnightblue" stroke="midnightblue" points="457.85,-80.65 448.54,-75.59 452.66,-85.35 457.85,-80.65"/>
</g>
<!-- Node9 -->
<g id="node9" class="node">
<title>Node9</title>
<g id="a_node9"><a xlink:href="../../d7/dc6/Node_8hpp.html" target="_top" xlink:title="A scene graph node.">
<polygon fill="white" stroke="black" points="730,-112.5 730,-131.5 858,-131.5 858,-112.5 730,-112.5"/>
<text text-anchor="middle" x="794" y="-119.5" font-family="Helvetica,sans-Serif" font-size="10.00">Small/Graphics/Node.hpp</text>
</a>
</g>
</g>
<!-- Node3&#45;&gt;Node9 -->
<g id="edge9" class="edge">
<title>Node3&#45;&gt;Node9</title>
<path fill="none" stroke="midnightblue" d="M543.22,-168.44C595.75,-158.92 680.61,-143.55 736.85,-133.36"/>
<polygon fill="midnightblue" stroke="midnightblue" points="737.79,-136.74 747,-131.52 736.54,-129.86 737.79,-136.74"/>
</g>
<!-- Node15 -->
<g id="node15" class="node">
<title>Node15</title>
<g id="a_node15"><a xlink:href="../../dc/d6f/RessourceManager_8hpp.html" target="_top" xlink:title=" ">
<polygon fill="white" stroke="black" points="1140,-112.5 1140,-131.5 1310,-131.5 1310,-112.5 1140,-112.5"/>
<text text-anchor="middle" x="1225" y="-119.5" font-family="Helvetica,sans-Serif" font-size="10.00">Small/Core/RessourceManager.hpp</text>
</a>
</g>
</g>
<!-- Node3&#45;&gt;Node15 -->
<g id="edge15" class="edge">
<title>Node3&#45;&gt;Node15</title>
<path fill="none" stroke="midnightblue" d="M553.2,-172.76C677.97,-163.52 975.66,-141.47 1129.43,-130.08"/>
<polygon fill="midnightblue" stroke="midnightblue" points="1130.08,-133.54 1139.8,-129.31 1129.57,-126.56 1130.08,-133.54"/>
</g>
<!-- Node20 -->
<g id="node20" class="node">
<title>Node20</title>
<g id="a_node20"><a xlink:title=" ">
<polygon fill="white" stroke="#bfbfbf" points="410.5,-112.5 410.5,-131.5 467.5,-131.5 467.5,-112.5 410.5,-112.5"/>
<text text-anchor="middle" x="439" y="-119.5" font-family="Helvetica,sans-Serif" font-size="10.00">Scene.inl</text>
</a>
</g>
</g>
<!-- Node3&#45;&gt;Node20 -->
<g id="edge25" class="edge">
<title>Node3&#45;&gt;Node20</title>
<path fill="none" stroke="midnightblue" d="M486.84,-168.32C478.5,-160.42 465.97,-148.55 455.82,-138.94"/>
<polygon fill="midnightblue" stroke="midnightblue" points="457.99,-136.17 448.32,-131.83 453.18,-141.25 457.99,-136.17"/>
</g>
<!-- Node8&#45;&gt;Node4 -->
<g id="edge8" class="edge">
<title>Node8&#45;&gt;Node4</title>
<path fill="none" stroke="midnightblue" d="M505.76,-56.8C600.53,-44.98 771.8,-23.62 841.85,-14.88"/>
<polygon fill="midnightblue" stroke="midnightblue" points="842.71,-18.3 852.2,-13.59 841.85,-11.36 842.71,-18.3"/>
</g>
<!-- Node10 -->
<g id="node10" class="node">
<title>Node10</title>
<g id="a_node10"><a xlink:title=" ">
<polygon fill="white" stroke="#bfbfbf" points="944,-56.5 944,-75.5 1108,-75.5 1108,-56.5 944,-56.5"/>
<text text-anchor="middle" x="1026" y="-63.5" font-family="Helvetica,sans-Serif" font-size="10.00">SFML/Graphics/RenderTarget.hpp</text>
</a>
</g>
</g>
<!-- Node9&#45;&gt;Node10 -->
<g id="edge10" class="edge">
<title>Node9&#45;&gt;Node10</title>
<path fill="none" stroke="midnightblue" d="M830.76,-112.44C871.06,-103.06 935.81,-87.99 979.58,-77.8"/>
<polygon fill="midnightblue" stroke="midnightblue" points="980.46,-81.19 989.41,-75.52 978.88,-74.37 980.46,-81.19"/>
</g>
<!-- Node11 -->
<g id="node11" class="node">
<title>Node11</title>
<g id="a_node11"><a xlink:title=" ">
<polygon fill="white" stroke="#bfbfbf" points="776.5,-56.5 776.5,-75.5 925.5,-75.5 925.5,-56.5 776.5,-56.5"/>
<text text-anchor="middle" x="851" y="-63.5" font-family="Helvetica,sans-Serif" font-size="10.00">SFML/Graphics/Transform.hpp</text>
</a>
</g>
</g>
<!-- Node9&#45;&gt;Node11 -->
<g id="edge11" class="edge">
<title>Node9&#45;&gt;Node11</title>
<path fill="none" stroke="midnightblue" d="M803.16,-112.32C811.5,-104.42 824.03,-92.55 834.18,-82.94"/>
<polygon fill="midnightblue" stroke="midnightblue" points="836.82,-85.25 841.68,-75.83 832.01,-80.17 836.82,-85.25"/>
</g>
<!-- Node12 -->
<g id="node12" class="node">
<title>Node12</title>
<g id="a_node12"><a xlink:title=" ">
<polygon fill="white" stroke="#bfbfbf" points="562.5,-56.5 562.5,-75.5 697.5,-75.5 697.5,-56.5 562.5,-56.5"/>
<text text-anchor="middle" x="630" y="-63.5" font-family="Helvetica,sans-Serif" font-size="10.00">SFML/System/Vector2.hpp</text>
</a>
</g>
</g>
<!-- Node9&#45;&gt;Node12 -->
<g id="edge12" class="edge">
<title>Node9&#45;&gt;Node12</title>
<path fill="none" stroke="midnightblue" d="M768.01,-112.44C740.3,-103.32 696.25,-88.81 665.38,-78.65"/>
<polygon fill="midnightblue" stroke="midnightblue" points="666.46,-75.32 655.86,-75.52 664.27,-81.97 666.46,-75.32"/>
</g>
<!-- Node13 -->
<g id="node13" class="node">
<title>Node13</title>
<g id="a_node13"><a xlink:title=" ">
<polygon fill="white" stroke="#bfbfbf" points="716,-56.5 716,-75.5 758,-75.5 758,-56.5 716,-56.5"/>
<text text-anchor="middle" x="737" y="-63.5" font-family="Helvetica,sans-Serif" font-size="10.00">vector</text>
</a>
</g>
</g>
<!-- Node9&#45;&gt;Node13 -->
<g id="edge13" class="edge">
<title>Node9&#45;&gt;Node13</title>
<path fill="none" stroke="midnightblue" d="M784.84,-112.32C776.5,-104.42 763.97,-92.55 753.82,-82.94"/>
<polygon fill="midnightblue" stroke="midnightblue" points="755.99,-80.17 746.32,-75.83 751.18,-85.25 755.99,-80.17"/>
</g>
<!-- Node14 -->
<g id="node14" class="node">
<title>Node14</title>
<g id="a_node14"><a xlink:title=" ">
<polygon fill="white" stroke="#bfbfbf" points="1126,-56.5 1126,-75.5 1178,-75.5 1178,-56.5 1126,-56.5"/>
<text text-anchor="middle" x="1152" y="-63.5" font-family="Helvetica,sans-Serif" font-size="10.00">memory</text>
</a>
</g>
</g>
<!-- Node9&#45;&gt;Node14 -->
<g id="edge14" class="edge">
<title>Node9&#45;&gt;Node14</title>
<path fill="none" stroke="midnightblue" d="M858.09,-114.24C921.29,-107.08 1020.77,-94.51 1115.65,-76.08"/>
<polygon fill="midnightblue" stroke="midnightblue" points="1116.56,-79.47 1125.7,-74.1 1115.21,-72.6 1116.56,-79.47"/>
</g>
<!-- Node15&#45;&gt;Node4 -->
<g id="edge16" class="edge">
<title>Node15&#45;&gt;Node4</title>
<path fill="none" stroke="midnightblue" d="M1222.56,-112.12C1218.09,-97.73 1207.18,-69.57 1187,-56 1141.13,-25.15 974.09,-15.01 904.14,-12.07"/>
<polygon fill="midnightblue" stroke="midnightblue" points="903.92,-8.56 893.78,-11.66 903.64,-15.56 903.92,-8.56"/>
</g>
<!-- Node15&#45;&gt;Node14 -->
<g id="edge17" class="edge">
<title>Node15&#45;&gt;Node14</title>
<path fill="none" stroke="midnightblue" d="M1213.27,-112.32C1202.16,-104.11 1185.26,-91.6 1172.02,-81.81"/>
<polygon fill="midnightblue" stroke="midnightblue" points="1174.06,-78.97 1163.94,-75.83 1169.9,-84.59 1174.06,-78.97"/>
</g>
<!-- Node16 -->
<g id="node16" class="node">
<title>Node16</title>
<g id="a_node16"><a xlink:title=" ">
<polygon fill="white" stroke="#bfbfbf" points="1423.5,-56.5 1423.5,-75.5 1506.5,-75.5 1506.5,-56.5 1423.5,-56.5"/>
<text text-anchor="middle" x="1465" y="-63.5" font-family="Helvetica,sans-Serif" font-size="10.00">unordered_map</text>
</a>
</g>
</g>
<!-- Node15&#45;&gt;Node16 -->
<g id="edge18" class="edge">
<title>Node15&#45;&gt;Node16</title>
<path fill="none" stroke="midnightblue" d="M1263.03,-112.44C1304.81,-103.04 1371.98,-87.93 1417.27,-77.74"/>
<polygon fill="midnightblue" stroke="midnightblue" points="1418.16,-81.13 1427.15,-75.52 1416.62,-74.3 1418.16,-81.13"/>
</g>
<!-- Node17 -->
<g id="node17" class="node">
<title>Node17</title>
<g id="a_node17"><a xlink:title=" ">
<polygon fill="white" stroke="#bfbfbf" points="1430.5,-0.5 1430.5,-19.5 1569.5,-19.5 1569.5,-0.5 1430.5,-0.5"/>
<text text-anchor="middle" x="1500" y="-7.5" font-family="Helvetica,sans-Serif" font-size="10.00">SFML/Graphics/Texture.hpp</text>
</a>
</g>
</g>
<!-- Node15&#45;&gt;Node17 -->
<g id="edge19" class="edge">
<title>Node15&#45;&gt;Node17</title>
<path fill="none" stroke="midnightblue" d="M1295.03,-112.48C1378.82,-101.94 1508.82,-84.38 1516,-76 1527.31,-62.81 1519.95,-42.86 1511.87,-28.54"/>
<polygon fill="midnightblue" stroke="midnightblue" points="1514.63,-26.34 1506.39,-19.68 1508.68,-30.02 1514.63,-26.34"/>
</g>
<!-- Node18 -->
<g id="node18" class="node">
<title>Node18</title>
<g id="a_node18"><a xlink:title=" ">
<polygon fill="white" stroke="#bfbfbf" points="1216,-0.5 1216,-19.5 1342,-19.5 1342,-0.5 1216,-0.5"/>
<text text-anchor="middle" x="1279" y="-7.5" font-family="Helvetica,sans-Serif" font-size="10.00">SFML/Graphics/Font.hpp</text>
</a>
</g>
</g>
<!-- Node15&#45;&gt;Node18 -->
<g id="edge20" class="edge">
<title>Node15&#45;&gt;Node18</title>
<path fill="none" stroke="midnightblue" d="M1229.24,-112.37C1238.07,-94.38 1258.6,-52.55 1270.35,-28.63"/>
<polygon fill="midnightblue" stroke="midnightblue" points="1273.52,-30.11 1274.78,-19.59 1267.23,-27.03 1273.52,-30.11"/>
</g>
<!-- Node19 -->
<g id="node19" class="node">
<title>Node19</title>
<g id="a_node19"><a xlink:href="../../db/d73/Ressource_8hpp.html" target="_top" xlink:title=" ">
<polygon fill="white" stroke="black" points="1272.5,-56.5 1272.5,-75.5 1405.5,-75.5 1405.5,-56.5 1272.5,-56.5"/>
<text text-anchor="middle" x="1339" y="-63.5" font-family="Helvetica,sans-Serif" font-size="10.00">Small/Core/Ressource.hpp</text>
</a>
</g>
</g>
<!-- Node15&#45;&gt;Node19 -->
<g id="edge21" class="edge">
<title>Node15&#45;&gt;Node19</title>
<path fill="none" stroke="midnightblue" d="M1243.06,-112.44C1261.57,-103.68 1290.58,-89.94 1311.86,-79.86"/>
<polygon fill="midnightblue" stroke="midnightblue" points="1313.48,-82.96 1321.02,-75.52 1310.49,-76.63 1313.48,-82.96"/>
</g>
<!-- Node19&#45;&gt;Node4 -->
<g id="edge22" class="edge">
<title>Node19&#45;&gt;Node4</title>
<path fill="none" stroke="midnightblue" d="M1272.23,-57.26C1170.05,-45.42 978.86,-23.27 904.09,-14.6"/>
<polygon fill="midnightblue" stroke="midnightblue" points="904.27,-11.1 893.93,-13.43 903.46,-18.05 904.27,-11.1"/>
</g>
<!-- Node19&#45;&gt;Node17 -->
<g id="edge23" class="edge">
<title>Node19&#45;&gt;Node17</title>
<path fill="none" stroke="midnightblue" d="M1364.51,-56.44C1391.6,-47.36 1434.59,-32.94 1464.87,-22.78"/>
<polygon fill="midnightblue" stroke="midnightblue" points="1466.24,-26.01 1474.61,-19.52 1464.01,-19.38 1466.24,-26.01"/>
</g>
<!-- Node19&#45;&gt;Node18 -->
<g id="edge24" class="edge">
<title>Node19&#45;&gt;Node18</title>
<path fill="none" stroke="midnightblue" d="M1329.36,-56.32C1320.49,-48.34 1307.13,-36.31 1296.39,-26.65"/>
<polygon fill="midnightblue" stroke="midnightblue" points="1298.59,-23.92 1288.82,-19.83 1293.91,-29.13 1298.59,-23.92"/>
</g>
<!-- Node21&#45;&gt;Node10 -->
<g id="edge28" class="edge">
<title>Node21&#45;&gt;Node10</title>
<path fill="none" stroke="midnightblue" d="M1026,-168.37C1026,-150.62 1026,-109.67 1026,-85.6"/>
<polygon fill="midnightblue" stroke="midnightblue" points="1029.5,-85.59 1026,-75.59 1022.5,-85.59 1029.5,-85.59"/>
</g>
<!-- Node22 -->
<g id="node22" class="node">
<title>Node22</title>
<g id="a_node22"><a xlink:title=" ">
<polygon fill="white" stroke="#bfbfbf" points="1328,-112.5 1328,-131.5 1456,-131.5 1456,-112.5 1328,-112.5"/>
<text text-anchor="middle" x="1392" y="-119.5" font-family="Helvetica,sans-Serif" font-size="10.00">SFML/Graphics/View.hpp</text>
</a>
</g>
</g>
<!-- Node21&#45;&gt;Node22 -->
<g id="edge27" class="edge">
<title>Node21&#45;&gt;Node22</title>
<path fill="none" stroke="midnightblue" d="M1083.99,-168.44C1149.31,-158.81 1255.34,-143.16 1324.37,-132.98"/>
<polygon fill="midnightblue" stroke="midnightblue" points="1324.9,-136.44 1334.28,-131.52 1323.87,-129.51 1324.9,-136.44"/>
</g>
</g>
</svg>
