<?xml version="1.0" encoding="UTF-8" standalone="no"?>
<!DOCTYPE svg PUBLIC "-//W3C//DTD SVG 1.1//EN"
 "http://www.w3.org/Graphics/SVG/1.1/DTD/svg11.dtd">
<!-- Generated by graphviz version 2.38.0 (20140413.2041)
 -->
<!-- Title: sgl::GameObjects::Manager&lt; T &gt; Pages: 1 -->
<svg width="286pt" height="262pt"
 viewBox="0.00 0.00 286.00 262.00" xmlns="http://www.w3.org/2000/svg" xmlns:xlink="http://www.w3.org/1999/xlink">
<g id="graph0" class="graph" transform="scale(1 1) rotate(0) translate(4 258)">
<title>sgl::GameObjects::Manager&lt; T &gt;</title>
<polygon fill="white" stroke="none" points="-4,4 -4,-258 282,-258 282,4 -4,4"/>
<!-- Node1 -->
<g id="node1" class="node"><title>Node1</title>
<polygon fill="#bfbfbf" stroke="black" points="32.5,-0.5 32.5,-19.5 194.5,-19.5 194.5,-0.5 32.5,-0.5"/>
<text text-anchor="middle" x="113.5" y="-7.5" font-family="Helvetica,sans-Serif" font-size="10.00">sgl::GameObjects::Manager&lt; T &gt;</text>
</g>
<!-- Node2 -->
<g id="node2" class="node"><title>Node2</title>
<polygon fill="white" stroke="#bfbfbf" points="62,-67.5 62,-97.5 165,-97.5 165,-67.5 62,-67.5"/>
<text text-anchor="start" x="70" y="-85.5" font-family="Helvetica,sans-Serif" font-size="10.00">std::unordered_map</text>
<text text-anchor="middle" x="113.5" y="-74.5" font-family="Helvetica,sans-Serif" font-size="10.00">&lt; std::string, T &gt;</text>
</g>
<!-- Node2&#45;&gt;Node1 -->
<g id="edge1" class="edge"><title>Node2&#45;&gt;Node1</title>
<path fill="none" stroke="#9a32cd" stroke-dasharray="5,2" d="M113.5,-57.0913C113.5,-44.2136 113.5,-29.1974 113.5,-19.8932"/>
<polygon fill="#9a32cd" stroke="#9a32cd" points="110,-57.2332 113.5,-67.2333 117,-57.2333 110,-57.2332"/>
<text text-anchor="middle" x="142" y="-41" font-family="Helvetica,sans-Serif" font-size="10.00"> m_container</text>
</g>
<!-- Node3 -->
<g id="node3" class="node"><title>Node3</title>
<g id="a_node3"><a xlink:title="STL class. ">
<polygon fill="white" stroke="#bfbfbf" points="17.5,-151 17.5,-170 77.5,-170 77.5,-151 17.5,-151"/>
<text text-anchor="middle" x="47.5" y="-158" font-family="Helvetica,sans-Serif" font-size="10.00">std::string</text>
</a>
</g>
</g>
<!-- Node3&#45;&gt;Node2 -->
<g id="edge2" class="edge"><title>Node3&#45;&gt;Node2</title>
<path fill="none" stroke="#9a32cd" stroke-dasharray="5,2" d="M56.594,-142.079C61.3565,-133.754 67.6247,-123.906 74.5,-116 80.2835,-109.349 87.4996,-102.935 94.1466,-97.5881"/>
<polygon fill="#9a32cd" stroke="#9a32cd" points="53.4729,-140.492 51.7486,-150.946 59.6155,-143.849 53.4729,-140.492"/>
<text text-anchor="middle" x="87" y="-119" font-family="Helvetica,sans-Serif" font-size="10.00"> keys</text>
</g>
<!-- Node4 -->
<g id="node4" class="node"><title>Node4</title>
<g id="a_node4"><a xlink:title="STL class. ">
<polygon fill="white" stroke="#bfbfbf" points="0,-223.5 0,-253.5 95,-253.5 95,-223.5 0,-223.5"/>
<text text-anchor="start" x="8" y="-241.5" font-family="Helvetica,sans-Serif" font-size="10.00">std::basic_string&lt;</text>
<text text-anchor="middle" x="47.5" y="-230.5" font-family="Helvetica,sans-Serif" font-size="10.00"> char &gt;</text>
</a>
</g>
</g>
<!-- Node4&#45;&gt;Node3 -->
<g id="edge3" class="edge"><title>Node4&#45;&gt;Node3</title>
<path fill="none" stroke="midnightblue" d="M47.5,-213.165C47.5,-198.396 47.5,-180.448 47.5,-170.064"/>
<polygon fill="midnightblue" stroke="midnightblue" points="44.0001,-213.205 47.5,-223.205 51.0001,-213.205 44.0001,-213.205"/>
</g>
<!-- Node5 -->
<g id="node5" class="node"><title>Node5</title>
<polygon fill="white" stroke="#bfbfbf" points="126,-229 126,-248 155,-248 155,-229 126,-229"/>
<text text-anchor="middle" x="140.5" y="-236" font-family="Helvetica,sans-Serif" font-size="10.00">T</text>
</g>
<!-- Node5&#45;&gt;Node2 -->
<g id="edge4" class="edge"><title>Node5&#45;&gt;Node2</title>
<path fill="none" stroke="#9a32cd" stroke-dasharray="5,2" d="M134.125,-219.086C130.181,-206.982 125.344,-190.719 122.5,-176 117.205,-148.594 114.956,-115.986 114.055,-97.7225"/>
<polygon fill="#9a32cd" stroke="#9a32cd" points="130.91,-220.505 137.413,-228.868 137.545,-218.274 130.91,-220.505"/>
<text text-anchor="middle" x="144" y="-158" font-family="Helvetica,sans-Serif" font-size="10.00"> elements</text>
</g>
<!-- Node6 -->
<g id="node6" class="node"><title>Node6</title>
<g id="a_node6"><a xlink:title="STL class. ">
<polygon fill="white" stroke="#bfbfbf" points="175,-145.5 175,-175.5 278,-175.5 278,-145.5 175,-145.5"/>
<text text-anchor="start" x="183" y="-163.5" font-family="Helvetica,sans-Serif" font-size="10.00">std::unordered_map</text>
<text text-anchor="middle" x="226.5" y="-152.5" font-family="Helvetica,sans-Serif" font-size="10.00">&lt; K, T &gt;</text>
</a>
</g>
</g>
<!-- Node5&#45;&gt;Node6 -->
<g id="edge7" class="edge"><title>Node5&#45;&gt;Node6</title>
<path fill="none" stroke="#9a32cd" stroke-dasharray="5,2" d="M153.563,-221.156C160.772,-212.613 170.141,-202.249 179.5,-194 186.942,-187.44 195.742,-181.046 203.703,-175.689"/>
<polygon fill="#9a32cd" stroke="#9a32cd" points="150.806,-218.999 147.155,-228.945 156.211,-223.446 150.806,-218.999"/>
<text text-anchor="middle" x="201" y="-197" font-family="Helvetica,sans-Serif" font-size="10.00"> elements</text>
</g>
<!-- Node6&#45;&gt;Node2 -->
<g id="edge5" class="edge"><title>Node6&#45;&gt;Node2</title>
<path fill="none" stroke="orange" stroke-dasharray="5,2" d="M197.193,-139.789C177.502,-126.546 152.024,-109.41 134.377,-97.5413"/>
<polygon fill="orange" stroke="orange" points="195.259,-142.706 205.51,-145.383 199.166,-136.898 195.259,-142.706"/>
<text text-anchor="middle" x="215.5" y="-119" font-family="Helvetica,sans-Serif" font-size="10.00"> &lt; std::string, T &gt;</text>
</g>
<!-- Node7 -->
<g id="node7" class="node"><title>Node7</title>
<polygon fill="white" stroke="#bfbfbf" points="212,-229 212,-248 241,-248 241,-229 212,-229"/>
<text text-anchor="middle" x="226.5" y="-236" font-family="Helvetica,sans-Serif" font-size="10.00">K</text>
</g>
<!-- Node7&#45;&gt;Node6 -->
<g id="edge6" class="edge"><title>Node7&#45;&gt;Node6</title>
<path fill="none" stroke="#9a32cd" stroke-dasharray="5,2" d="M226.5,-218.782C226.5,-205.404 226.5,-187.688 226.5,-175.52"/>
<polygon fill="#9a32cd" stroke="#9a32cd" points="223,-218.782 226.5,-228.782 230,-218.782 223,-218.782"/>
<text text-anchor="middle" x="239" y="-197" font-family="Helvetica,sans-Serif" font-size="10.00"> keys</text>
</g>
</g>
</svg>
