<?xml version="1.0" encoding="UTF-8" standalone="no"?>
<!DOCTYPE svg PUBLIC "-//W3C//DTD SVG 1.1//EN"
 "http://www.w3.org/Graphics/SVG/1.1/DTD/svg11.dtd">
<!-- Generated by graphviz version 2.38.0 (20140413.2041)
 -->
<!-- Title: sgl::internal::Profiler Pages: 1 -->
<svg width="351pt" height="429pt"
 viewBox="0.00 0.00 350.50 429.00" xmlns="http://www.w3.org/2000/svg" xmlns:xlink="http://www.w3.org/1999/xlink">
<g id="graph0" class="graph" transform="scale(1 1) rotate(0) translate(4 425)">
<title>sgl::internal::Profiler</title>
<polygon fill="white" stroke="none" points="-4,4 -4,-425 346.5,-425 346.5,4 -4,4"/>
<!-- Node1 -->
<g id="node1" class="node"><title>Node1</title>
<polygon fill="#bfbfbf" stroke="black" points="150,-0.5 150,-19.5 253,-19.5 253,-0.5 150,-0.5"/>
<text text-anchor="middle" x="201.5" y="-7.5" font-family="Helvetica,sans-Serif" font-size="10.00">sgl::internal::Profiler</text>
</g>
<!-- Node2 -->
<g id="node2" class="node"><title>Node2</title>
<polygon fill="white" stroke="#bfbfbf" points="129,-67.5 129,-97.5 274,-97.5 274,-67.5 129,-67.5"/>
<text text-anchor="start" x="137" y="-85.5" font-family="Helvetica,sans-Serif" font-size="10.00">std::array&lt; sgl::internal</text>
<text text-anchor="middle" x="201.5" y="-74.5" font-family="Helvetica,sans-Serif" font-size="10.00">::Profiler::Entry, _bufferSize &gt;</text>
</g>
<!-- Node2&#45;&gt;Node1 -->
<g id="edge1" class="edge"><title>Node2&#45;&gt;Node1</title>
<path fill="none" stroke="#9a32cd" stroke-dasharray="5,2" d="M201.5,-57.0913C201.5,-44.2136 201.5,-29.1974 201.5,-19.8932"/>
<polygon fill="#9a32cd" stroke="#9a32cd" points="198,-57.2332 201.5,-67.2333 205,-57.2333 198,-57.2332"/>
<text text-anchor="middle" x="220.5" y="-41" font-family="Helvetica,sans-Serif" font-size="10.00"> _entries</text>
</g>
<!-- Node3 -->
<g id="node3" class="node"><title>Node3</title>
<g id="a_node3"><a xlink:href="../../de/d66/structsgl_1_1internal_1_1Profiler_1_1Entry.html" target="_top" xlink:title="sgl::internal::Profiler\l::Entry">
<polygon fill="white" stroke="black" points="97,-145.5 97,-175.5 200,-175.5 200,-145.5 97,-145.5"/>
<text text-anchor="start" x="105" y="-163.5" font-family="Helvetica,sans-Serif" font-size="10.00">sgl::internal::Profiler</text>
<text text-anchor="middle" x="148.5" y="-152.5" font-family="Helvetica,sans-Serif" font-size="10.00">::Entry</text>
</a>
</g>
</g>
<!-- Node3&#45;&gt;Node2 -->
<g id="edge2" class="edge"><title>Node3&#45;&gt;Node2</title>
<path fill="none" stroke="#9a32cd" stroke-dasharray="5,2" d="M164.232,-136.941C173.093,-124.235 183.889,-108.754 191.576,-97.7309"/>
<polygon fill="#9a32cd" stroke="#9a32cd" points="161.318,-135 158.469,-145.205 167.06,-139.005 161.318,-135"/>
<text text-anchor="middle" x="200" y="-119" font-family="Helvetica,sans-Serif" font-size="10.00"> elements</text>
</g>
<!-- Node4 -->
<g id="node4" class="node"><title>Node4</title>
<polygon fill="white" stroke="#bfbfbf" points="38.5,-234.5 38.5,-264.5 196.5,-264.5 196.5,-234.5 38.5,-234.5"/>
<text text-anchor="start" x="46.5" y="-252.5" font-family="Helvetica,sans-Serif" font-size="10.00">std::array&lt; sgl::internal</text>
<text text-anchor="middle" x="117.5" y="-241.5" font-family="Helvetica,sans-Serif" font-size="10.00">::Profiler::Scope, _StageCount &gt;</text>
</g>
<!-- Node4&#45;&gt;Node3 -->
<g id="edge3" class="edge"><title>Node4&#45;&gt;Node3</title>
<path fill="none" stroke="#9a32cd" stroke-dasharray="5,2" d="M126.037,-224.54C131.638,-208.823 138.769,-188.81 143.476,-175.599"/>
<polygon fill="#9a32cd" stroke="#9a32cd" points="122.679,-223.539 122.619,-234.134 129.273,-225.889 122.679,-223.539"/>
<text text-anchor="middle" x="156.5" y="-202.5" font-family="Helvetica,sans-Serif" font-size="10.00"> _stages</text>
</g>
<!-- Node5 -->
<g id="node5" class="node"><title>Node5</title>
<g id="a_node5"><a xlink:href="../../d2/d0d/structsgl_1_1internal_1_1Profiler_1_1Scope.html" target="_top" xlink:title="sgl::internal::Profiler\l::Scope">
<polygon fill="white" stroke="black" points="0,-323.5 0,-353.5 103,-353.5 103,-323.5 0,-323.5"/>
<text text-anchor="start" x="8" y="-341.5" font-family="Helvetica,sans-Serif" font-size="10.00">sgl::internal::Profiler</text>
<text text-anchor="middle" x="51.5" y="-330.5" font-family="Helvetica,sans-Serif" font-size="10.00">::Scope</text>
</a>
</g>
</g>
<!-- Node5&#45;&gt;Node4 -->
<g id="edge4" class="edge"><title>Node5&#45;&gt;Node4</title>
<path fill="none" stroke="#9a32cd" stroke-dasharray="5,2" d="M46.6886,-313.174C45.9779,-303.137 46.9384,-291.817 52.5,-283 57.4137,-275.21 64.8105,-269.22 72.8747,-264.637"/>
<polygon fill="#9a32cd" stroke="#9a32cd" points="43.2523,-313.899 47.9771,-323.381 50.1972,-313.022 43.2523,-313.899"/>
<text text-anchor="middle" x="74" y="-291.5" font-family="Helvetica,sans-Serif" font-size="10.00"> elements</text>
</g>
<!-- Node6 -->
<g id="node6" class="node"><title>Node6</title>
<g id="a_node6"><a xlink:title="STL class. ">
<polygon fill="white" stroke="#bfbfbf" points="159,-329 159,-348 240,-348 240,-329 159,-329"/>
<text text-anchor="middle" x="199.5" y="-336" font-family="Helvetica,sans-Serif" font-size="10.00">std::array&lt; T &gt;</text>
</a>
</g>
</g>
<!-- Node6&#45;&gt;Node2 -->
<g id="edge7" class="edge"><title>Node6&#45;&gt;Node2</title>
<path fill="none" stroke="orange" stroke-dasharray="5,2" d="M215.454,-321.037C219.141,-316.236 222.552,-310.729 224.5,-305 251.549,-225.474 249.96,-196.049 224.5,-116 222.405,-109.413 218.437,-103.013 214.379,-97.6587"/>
<polygon fill="orange" stroke="orange" points="212.636,-318.947 208.775,-328.813 217.946,-323.508 212.636,-318.947"/>
<text text-anchor="start" x="243.5" y="-208" font-family="Helvetica,sans-Serif" font-size="10.00"> &lt; sgl::internal::Profiler</text>
<text text-anchor="middle" x="293" y="-197" font-family="Helvetica,sans-Serif" font-size="10.00">::Entry, _bufferSize &gt;</text>
</g>
<!-- Node6&#45;&gt;Node4 -->
<g id="edge5" class="edge"><title>Node6&#45;&gt;Node4</title>
<path fill="none" stroke="orange" stroke-dasharray="5,2" d="M149.24,-327.598C137.257,-322.784 125.831,-315.629 118.5,-305 110.441,-293.315 111.482,-276.612 113.727,-264.784"/>
<polygon fill="orange" stroke="orange" points="148.306,-330.98 158.901,-330.98 150.619,-324.373 148.306,-330.98"/>
<text text-anchor="start" x="118.5" y="-297" font-family="Helvetica,sans-Serif" font-size="10.00"> &lt; sgl::internal::Profiler</text>
<text text-anchor="middle" x="171.5" y="-286" font-family="Helvetica,sans-Serif" font-size="10.00">::Scope, _StageCount &gt;</text>
</g>
<!-- Node7 -->
<g id="node7" class="node"><title>Node7</title>
<polygon fill="white" stroke="#bfbfbf" points="185,-401.5 185,-420.5 214,-420.5 214,-401.5 185,-401.5"/>
<text text-anchor="middle" x="199.5" y="-408.5" font-family="Helvetica,sans-Serif" font-size="10.00">T</text>
</g>
<!-- Node7&#45;&gt;Node6 -->
<g id="edge6" class="edge"><title>Node7&#45;&gt;Node6</title>
<path fill="none" stroke="#9a32cd" stroke-dasharray="5,2" d="M199.5,-390.942C199.5,-377.03 199.5,-358.82 199.5,-348.215"/>
<polygon fill="#9a32cd" stroke="#9a32cd" points="196,-391.355 199.5,-401.355 203,-391.355 196,-391.355"/>
<text text-anchor="middle" x="221" y="-375" font-family="Helvetica,sans-Serif" font-size="10.00"> elements</text>
</g>
</g>
</svg>
