<?xml version="1.0" encoding="UTF-8" standalone="no"?>
<!DOCTYPE svg PUBLIC "-//W3C//DTD SVG 1.1//EN"
 "http://www.w3.org/Graphics/SVG/1.1/DTD/svg11.dtd">
<!-- Generated by graphviz version 2.49.0 (20210828.1703)
 -->
<!-- Title: sgl::Widgets::Label Pages: 1 -->
<svg width="172pt" height="142pt"
 viewBox="0.00 0.00 171.50 142.00" xmlns="http://www.w3.org/2000/svg" xmlns:xlink="http://www.w3.org/1999/xlink">
<g id="graph0" class="graph" transform="scale(1 1) rotate(0) translate(4 138)">
<title>sgl::Widgets::Label</title>
<polygon fill="white" stroke="transparent" points="-4,4 -4,-138 167.5,-138 167.5,4 -4,4"/>
<!-- Node1 -->
<g id="node1" class="node">
<title>Node1</title>
<g id="a_node1"><a xlink:title="Basic label widget, doesn&#39;t listen to events by default.">
<polygon fill="#bfbfbf" stroke="black" points="1,-0.5 1,-19.5 102,-19.5 102,-0.5 1,-0.5"/>
<text text-anchor="middle" x="51.5" y="-7.5" font-family="Helvetica,sans-Serif" font-size="10.00">sgl::Widgets::Label</text>
</a>
</g>
</g>
<!-- Node2 -->
<g id="node2" class="node">
<title>Node2</title>
<g id="a_node2"><a xlink:href="../../d3/dd0/classsgl_1_1Widgets_1_1Base.html" target="_top" xlink:title="Base class for all widgets.">
<polygon fill="white" stroke="black" points="1.5,-57.5 1.5,-76.5 101.5,-76.5 101.5,-57.5 1.5,-57.5"/>
<text text-anchor="middle" x="51.5" y="-64.5" font-family="Helvetica,sans-Serif" font-size="10.00">sgl::Widgets::Base</text>
</a>
</g>
</g>
<!-- Node2&#45;&gt;Node1 -->
<g id="edge1" class="edge">
<title>Node2&#45;&gt;Node1</title>
<path fill="none" stroke="midnightblue" d="M51.5,-47.12C51.5,-37.82 51.5,-27.06 51.5,-19.71"/>
<polygon fill="midnightblue" stroke="midnightblue" points="48,-47.41 51.5,-57.41 55,-47.41 48,-47.41"/>
</g>
<!-- Node2&#45;&gt;Node2 -->
<g id="edge3" class="edge">
<title>Node2&#45;&gt;Node2</title>
<path fill="none" stroke="#9a32cd" stroke-dasharray="5,2" d="M111.85,-70.98C116.58,-70.1 119.5,-68.78 119.5,-67 119.5,-64.16 112.02,-62.47 101.61,-61.93"/>
<polygon fill="#9a32cd" stroke="#9a32cd" points="111.19,-67.53 101.61,-72.07 111.93,-74.49 111.19,-67.53"/>
<text text-anchor="middle" x="141.5" y="-64.5" font-family="Helvetica,sans-Serif" font-size="10.00"> m_parent</text>
</g>
<!-- Node3 -->
<g id="node3" class="node">
<title>Node3</title>
<g id="a_node3"><a xlink:href="../../dc/dee/classsgl_1_1Graphics_1_1Node.html" target="_top" xlink:title="Abstract base class for a scene graph node.">
<polygon fill="white" stroke="black" points="0,-114.5 0,-133.5 103,-133.5 103,-114.5 0,-114.5"/>
<text text-anchor="middle" x="51.5" y="-121.5" font-family="Helvetica,sans-Serif" font-size="10.00">sgl::Graphics::Node</text>
</a>
</g>
</g>
<!-- Node3&#45;&gt;Node2 -->
<g id="edge2" class="edge">
<title>Node3&#45;&gt;Node2</title>
<path fill="none" stroke="midnightblue" d="M51.5,-104.12C51.5,-94.82 51.5,-84.06 51.5,-76.71"/>
<polygon fill="midnightblue" stroke="midnightblue" points="48,-104.41 51.5,-114.41 55,-104.41 48,-104.41"/>
</g>
</g>
</svg>
