<?xml version="1.0" encoding="UTF-8" standalone="no"?>
<!DOCTYPE svg PUBLIC "-//W3C//DTD SVG 1.1//EN"
 "http://www.w3.org/Graphics/SVG/1.1/DTD/svg11.dtd">
<!-- Generated by graphviz version 2.38.0 (20140413.2041)
 -->
<!-- Title: sgl::Widgets::Label Pages: 1 -->
<svg width="193pt" height="365pt"
 viewBox="0.00 0.00 193.00 365.00" xmlns="http://www.w3.org/2000/svg" xmlns:xlink="http://www.w3.org/1999/xlink">
<g id="graph0" class="graph" transform="scale(1 1) rotate(0) translate(4 361)">
<title>sgl::Widgets::Label</title>
<polygon fill="white" stroke="none" points="-4,4 -4,-361 189,-361 189,4 -4,4"/>
<!-- Node1 -->
<g id="node1" class="node"><title>Node1</title>
<polygon fill="#bfbfbf" stroke="black" points="22.5,-0.5 22.5,-19.5 123.5,-19.5 123.5,-0.5 22.5,-0.5"/>
<text text-anchor="middle" x="73" y="-7.5" font-family="Helvetica,sans-Serif" font-size="10.00">sgl::Widgets::Label</text>
</g>
<!-- Node2 -->
<g id="node2" class="node"><title>Node2</title>
<g id="a_node2"><a xlink:href="../../d3/dd0/classsgl_1_1Widgets_1_1Base.html" target="_top" xlink:title="Base class for all widgets. ">
<polygon fill="white" stroke="black" points="23,-57.5 23,-76.5 123,-76.5 123,-57.5 23,-57.5"/>
<text text-anchor="middle" x="73" y="-64.5" font-family="Helvetica,sans-Serif" font-size="10.00">sgl::Widgets::Base</text>
</a>
</g>
</g>
<!-- Node2&#45;&gt;Node1 -->
<g id="edge1" class="edge"><title>Node2&#45;&gt;Node1</title>
<path fill="none" stroke="midnightblue" d="M73,-47.1166C73,-37.8173 73,-27.0557 73,-19.7149"/>
<polygon fill="midnightblue" stroke="midnightblue" points="69.5001,-47.4062 73,-57.4063 76.5001,-47.4063 69.5001,-47.4062"/>
</g>
<!-- Node2&#45;&gt;Node2 -->
<g id="edge6" class="edge"><title>Node2&#45;&gt;Node2</title>
<path fill="none" stroke="#9a32cd" stroke-dasharray="5,2" d="M133.345,-70.9782C138.077,-70.1034 141,-68.7773 141,-67 141,-64.1563 133.518,-62.4678 123.114,-61.9346"/>
<polygon fill="#9a32cd" stroke="#9a32cd" points="132.688,-67.5283 123.114,-72.0654 133.428,-74.4891 132.688,-67.5283"/>
<text text-anchor="middle" x="163" y="-64.5" font-family="Helvetica,sans-Serif" font-size="10.00"> m_parent</text>
</g>
<!-- Node3 -->
<g id="node3" class="node"><title>Node3</title>
<g id="a_node3"><a xlink:href="../../dc/dee/classsgl_1_1Graphics_1_1Node.html" target="_top" xlink:title="Abstract base class for a scene graph node. ">
<polygon fill="white" stroke="black" points="21.5,-114.5 21.5,-133.5 124.5,-133.5 124.5,-114.5 21.5,-114.5"/>
<text text-anchor="middle" x="73" y="-121.5" font-family="Helvetica,sans-Serif" font-size="10.00">sgl::Graphics::Node</text>
</a>
</g>
</g>
<!-- Node3&#45;&gt;Node2 -->
<g id="edge2" class="edge"><title>Node3&#45;&gt;Node2</title>
<path fill="none" stroke="midnightblue" d="M73,-104.117C73,-94.8173 73,-84.0557 73,-76.7149"/>
<polygon fill="midnightblue" stroke="midnightblue" points="69.5001,-104.406 73,-114.406 76.5001,-104.406 69.5001,-104.406"/>
</g>
<!-- Node4 -->
<g id="node4" class="node"><title>Node4</title>
<polygon fill="white" stroke="#bfbfbf" points="0,-181.5 0,-211.5 146,-211.5 146,-181.5 0,-181.5"/>
<text text-anchor="start" x="8" y="-199.5" font-family="Helvetica,sans-Serif" font-size="10.00">std::vector&lt; std::shared</text>
<text text-anchor="middle" x="73" y="-188.5" font-family="Helvetica,sans-Serif" font-size="10.00">_ptr&lt; sgl::Graphics::Node &gt; &gt;</text>
</g>
<!-- Node4&#45;&gt;Node3 -->
<g id="edge3" class="edge"><title>Node4&#45;&gt;Node3</title>
<path fill="none" stroke="#9a32cd" stroke-dasharray="5,2" d="M73,-171.091C73,-158.214 73,-143.197 73,-133.893"/>
<polygon fill="#9a32cd" stroke="#9a32cd" points="69.5001,-171.233 73,-181.233 76.5001,-171.233 69.5001,-171.233"/>
<text text-anchor="middle" x="98.5" y="-155" font-family="Helvetica,sans-Serif" font-size="10.00"> m_children</text>
</g>
<!-- Node5 -->
<g id="node5" class="node"><title>Node5</title>
<g id="a_node5"><a xlink:title="STL class. ">
<polygon fill="white" stroke="#bfbfbf" points="30.5,-270.5 30.5,-289.5 115.5,-289.5 115.5,-270.5 30.5,-270.5"/>
<text text-anchor="middle" x="73" y="-277.5" font-family="Helvetica,sans-Serif" font-size="10.00">std::vector&lt; T &gt;</text>
</a>
</g>
</g>
<!-- Node5&#45;&gt;Node4 -->
<g id="edge4" class="edge"><title>Node5&#45;&gt;Node4</title>
<path fill="none" stroke="orange" stroke-dasharray="5,2" d="M73,-260.229C73,-245.408 73,-225.051 73,-211.597"/>
<polygon fill="orange" stroke="orange" points="69.5001,-260.278 73,-270.278 76.5001,-260.278 69.5001,-260.278"/>
<text text-anchor="start" x="73" y="-244" font-family="Helvetica,sans-Serif" font-size="10.00"> &lt; std::shared_ptr&lt;</text>
<text text-anchor="middle" x="127" y="-233" font-family="Helvetica,sans-Serif" font-size="10.00"> sgl::Graphics::Node &gt; &gt;</text>
</g>
<!-- Node6 -->
<g id="node6" class="node"><title>Node6</title>
<polygon fill="white" stroke="#bfbfbf" points="58.5,-337.5 58.5,-356.5 87.5,-356.5 87.5,-337.5 58.5,-337.5"/>
<text text-anchor="middle" x="73" y="-344.5" font-family="Helvetica,sans-Serif" font-size="10.00">T</text>
</g>
<!-- Node6&#45;&gt;Node5 -->
<g id="edge5" class="edge"><title>Node6&#45;&gt;Node5</title>
<path fill="none" stroke="#9a32cd" stroke-dasharray="5,2" d="M73,-327.037C73,-314.67 73,-299.12 73,-289.627"/>
<polygon fill="#9a32cd" stroke="#9a32cd" points="69.5001,-327.234 73,-337.234 76.5001,-327.234 69.5001,-327.234"/>
<text text-anchor="middle" x="94.5" y="-311" font-family="Helvetica,sans-Serif" font-size="10.00"> elements</text>
</g>
</g>
</svg>
