<?xml version="1.0" encoding="UTF-8" standalone="no"?>
<!DOCTYPE svg PUBLIC "-//W3C//DTD SVG 1.1//EN"
 "http://www.w3.org/Graphics/SVG/1.1/DTD/svg11.dtd">
<!-- Generated by graphviz version 2.49.0 (20210828.1703)
 -->
<!-- Title: C:/Users/folae/Documents/Code/Big&#45;Projects/ScriptWizards/SmallGameLibrary/source/System/SharedLibrary.cpp Pages: 1 -->
<svg width="511pt" height="173pt"
 viewBox="0.00 0.00 511.00 173.00" xmlns="http://www.w3.org/2000/svg" xmlns:xlink="http://www.w3.org/1999/xlink">
<g id="graph0" class="graph" transform="scale(1 1) rotate(0) translate(4 169)">
<title>C:/Users/folae/Documents/Code/Big&#45;Projects/ScriptWizards/SmallGameLibrary/source/System/SharedLibrary.cpp</title>
<polygon fill="white" stroke="transparent" points="-4,4 -4,-169 507,-169 507,4 -4,4"/>
<!-- Node1 -->
<g id="node1" class="node">
<title>Node1</title>
<g id="a_node1"><a xlink:title=" ">
<polygon fill="#bfbfbf" stroke="black" points="286.5,-112.5 286.5,-164.5 455.5,-164.5 455.5,-112.5 286.5,-112.5"/>
<text text-anchor="start" x="294.5" y="-152.5" font-family="Helvetica,sans-Serif" font-size="10.00">C:/Users/folae/Documents</text>
<text text-anchor="start" x="294.5" y="-141.5" font-family="Helvetica,sans-Serif" font-size="10.00">/Code/Big&#45;Projects/ScriptWizards</text>
<text text-anchor="start" x="294.5" y="-130.5" font-family="Helvetica,sans-Serif" font-size="10.00">/SmallGameLibrary/source/System</text>
<text text-anchor="middle" x="371" y="-119.5" font-family="Helvetica,sans-Serif" font-size="10.00">/SharedLibrary.cpp</text>
</a>
</g>
</g>
<!-- Node2 -->
<g id="node2" class="node">
<title>Node2</title>
<g id="a_node2"><a xlink:href="../../d4/da5/SharedLibrary_8hpp.html" target="_top" xlink:title="Utility to easily load shared libraries and retrieve their functions.">
<polygon fill="white" stroke="black" points="133,-56.5 133,-75.5 293,-75.5 293,-56.5 133,-56.5"/>
<text text-anchor="middle" x="213" y="-63.5" font-family="Helvetica,sans-Serif" font-size="10.00">Small/System/SharedLibrary.hpp</text>
</a>
</g>
</g>
<!-- Node1&#45;&gt;Node2 -->
<g id="edge1" class="edge">
<title>Node1&#45;&gt;Node2</title>
<path fill="none" stroke="midnightblue" d="M314.85,-112.45C290,-101.36 261.85,-88.8 241.45,-79.7"/>
<polygon fill="midnightblue" stroke="midnightblue" points="242.67,-76.41 232.11,-75.53 239.82,-82.8 242.67,-76.41"/>
</g>
<!-- Node7 -->
<g id="node7" class="node">
<title>Node7</title>
<g id="a_node7"><a xlink:title=" ">
<polygon fill="white" stroke="#bfbfbf" points="311,-56.5 311,-75.5 363,-75.5 363,-56.5 311,-56.5"/>
<text text-anchor="middle" x="337" y="-63.5" font-family="Helvetica,sans-Serif" font-size="10.00">sstream</text>
</a>
</g>
</g>
<!-- Node1&#45;&gt;Node7 -->
<g id="edge6" class="edge">
<title>Node1&#45;&gt;Node7</title>
<path fill="none" stroke="midnightblue" d="M358.92,-112.45C354.52,-103.33 349.64,-93.22 345.61,-84.85"/>
<polygon fill="midnightblue" stroke="midnightblue" points="348.69,-83.18 341.19,-75.7 342.39,-86.22 348.69,-83.18"/>
</g>
<!-- Node8 -->
<g id="node8" class="node">
<title>Node8</title>
<g id="a_node8"><a xlink:title=" ">
<polygon fill="white" stroke="#bfbfbf" points="381,-56.5 381,-75.5 431,-75.5 431,-56.5 381,-56.5"/>
<text text-anchor="middle" x="406" y="-63.5" font-family="Helvetica,sans-Serif" font-size="10.00">iomanip</text>
</a>
</g>
</g>
<!-- Node1&#45;&gt;Node8 -->
<g id="edge7" class="edge">
<title>Node1&#45;&gt;Node8</title>
<path fill="none" stroke="midnightblue" d="M383.44,-112.45C387.96,-103.33 392.98,-93.22 397.14,-84.85"/>
<polygon fill="midnightblue" stroke="midnightblue" points="400.37,-86.21 401.68,-75.7 394.1,-83.1 400.37,-86.21"/>
</g>
<!-- Node9 -->
<g id="node9" class="node">
<title>Node9</title>
<g id="a_node9"><a xlink:title=" ">
<polygon fill="white" stroke="#bfbfbf" points="449,-56.5 449,-75.5 503,-75.5 503,-56.5 449,-56.5"/>
<text text-anchor="middle" x="476" y="-63.5" font-family="Helvetica,sans-Serif" font-size="10.00">iostream</text>
</a>
</g>
</g>
<!-- Node1&#45;&gt;Node9 -->
<g id="edge8" class="edge">
<title>Node1&#45;&gt;Node9</title>
<path fill="none" stroke="midnightblue" d="M408.31,-112.45C423.83,-102.03 441.29,-90.31 454.58,-81.38"/>
<polygon fill="midnightblue" stroke="midnightblue" points="456.7,-84.18 463.05,-75.7 452.8,-78.36 456.7,-84.18"/>
</g>
<!-- Node3 -->
<g id="node3" class="node">
<title>Node3</title>
<g id="a_node3"><a xlink:href="../../d5/d40/Platform_8hpp.html" target="_top" xlink:title="Defines to identify the running operating system.">
<polygon fill="white" stroke="black" points="0,-0.5 0,-19.5 136,-19.5 136,-0.5 0,-0.5"/>
<text text-anchor="middle" x="68" y="-7.5" font-family="Helvetica,sans-Serif" font-size="10.00">Small/System/Platform.hpp</text>
</a>
</g>
</g>
<!-- Node2&#45;&gt;Node3 -->
<g id="edge2" class="edge">
<title>Node2&#45;&gt;Node3</title>
<path fill="none" stroke="midnightblue" d="M190.02,-56.44C165.84,-47.44 127.58,-33.19 100.35,-23.05"/>
<polygon fill="midnightblue" stroke="midnightblue" points="101.46,-19.73 90.87,-19.52 99.02,-26.29 101.46,-19.73"/>
</g>
<!-- Node4 -->
<g id="node4" class="node">
<title>Node4</title>
<g id="a_node4"><a xlink:title=" ">
<polygon fill="white" stroke="#bfbfbf" points="154.5,-0.5 154.5,-19.5 195.5,-19.5 195.5,-0.5 154.5,-0.5"/>
<text text-anchor="middle" x="175" y="-7.5" font-family="Helvetica,sans-Serif" font-size="10.00">string</text>
</a>
</g>
</g>
<!-- Node2&#45;&gt;Node4 -->
<g id="edge3" class="edge">
<title>Node2&#45;&gt;Node4</title>
<path fill="none" stroke="midnightblue" d="M206.73,-56.08C201.36,-48.46 193.48,-37.26 186.92,-27.94"/>
<polygon fill="midnightblue" stroke="midnightblue" points="189.78,-25.91 181.16,-19.75 184.05,-29.94 189.78,-25.91"/>
</g>
<!-- Node5 -->
<g id="node5" class="node">
<title>Node5</title>
<g id="a_node5"><a xlink:title=" ">
<polygon fill="white" stroke="#bfbfbf" points="214,-0.5 214,-19.5 288,-19.5 288,-0.5 214,-0.5"/>
<text text-anchor="middle" x="251" y="-7.5" font-family="Helvetica,sans-Serif" font-size="10.00">system_error</text>
</a>
</g>
</g>
<!-- Node2&#45;&gt;Node5 -->
<g id="edge4" class="edge">
<title>Node2&#45;&gt;Node5</title>
<path fill="none" stroke="midnightblue" d="M219.27,-56.08C224.64,-48.46 232.52,-37.26 239.08,-27.94"/>
<polygon fill="midnightblue" stroke="midnightblue" points="241.95,-29.94 244.84,-19.75 236.22,-25.91 241.95,-29.94"/>
</g>
<!-- Node6 -->
<g id="node6" class="node">
<title>Node6</title>
<g id="a_node6"><a xlink:title=" ">
<polygon fill="white" stroke="#bfbfbf" points="306.5,-0.5 306.5,-19.5 365.5,-19.5 365.5,-0.5 306.5,-0.5"/>
<text text-anchor="middle" x="336" y="-7.5" font-family="Helvetica,sans-Serif" font-size="10.00">exception</text>
</a>
</g>
</g>
<!-- Node2&#45;&gt;Node6 -->
<g id="edge5" class="edge">
<title>Node2&#45;&gt;Node6</title>
<path fill="none" stroke="midnightblue" d="M232.49,-56.44C252.64,-47.6 284.32,-33.69 307.33,-23.59"/>
<polygon fill="midnightblue" stroke="midnightblue" points="308.85,-26.74 316.6,-19.52 306.04,-20.33 308.85,-26.74"/>
</g>
</g>
</svg>
