<?xml version="1.0" encoding="UTF-8" standalone="no"?>
<!DOCTYPE svg PUBLIC "-//W3C//DTD SVG 1.1//EN"
 "http://www.w3.org/Graphics/SVG/1.1/DTD/svg11.dtd">
<!-- Generated by graphviz version 2.38.0 (20140413.2041)
 -->
<!-- Title: include/Small/Core/Application.hpp Pages: 1 -->
<!--zoomable 263 -->
<svg id="main" version="1.1" xmlns="http://www.w3.org/2000/svg" xmlns:xlink="http://www.w3.org/1999/xlink" xml:space="preserve" onload="init(evt)">
<style type="text/css"><![CDATA[
.edge:hover path { stroke: red; }
.edge:hover polygon { stroke: red; fill: red; }
]]></style>
<script type="text/javascript"><![CDATA[
var edges = document.getElementsByTagName('g');
if (edges && edges.length) {
  for (var i=0;i<edges.length;i++) {
    if (edges[i].id.substr(0,4)=='edge') {
      edges[i].setAttribute('class','edge');
    }
  }
}
]]></script>
        <defs>
                <circle id="rim" cx="0" cy="0" r="7"/>
                <circle id="rim2" cx="0" cy="0" r="3.5"/>
                <g id="zoomPlus">
                        <use xlink:href="#rim" fill="#404040">
                                <set attributeName="fill" to="#808080" begin="zoomplus.mouseover" end="zoomplus.mouseout"/>
                        </use>
                        <path d="M-4,0h8M0,-4v8" fill="none" stroke="white" stroke-width="1.5" pointer-events="none"/>
                </g>
                <g id="zoomMin">
                        <use xlink:href="#rim" fill="#404040">
                                <set attributeName="fill" to="#808080" begin="zoomminus.mouseover" end="zoomminus.mouseout"/>
                        </use>
                        <path d="M-4,0h8" fill="none" stroke="white" stroke-width="1.5" pointer-events="none"/>
                </g>
                <g id="dirArrow">
                        <path fill="none" stroke="white" stroke-width="1.5" d="M0,-3.0v7 M-2.5,-0.5L0,-3.0L2.5,-0.5"/>
                </g>
               <g id="resetDef">
                       <use xlink:href="#rim2" fill="#404040">
                               <set attributeName="fill" to="#808080" begin="reset.mouseover" end="reset.mouseout"/>
                       </use>
               </g>
        </defs>

<script type="text/javascript">
var viewWidth = 1613;
var viewHeight = 263;
var sectionId = 'dynsection-0';
</script>
<script xlink:href="../../svgpan.js"/>
<svg id="graph" class="graph">
<g id="viewport">
<title>include/Small/Core/Application.hpp</title>
<polygon fill="white" stroke="none" points="-4,4 -4,-259 1608.82,-259 1608.82,4 -4,4"/>
<!-- Node1 -->
<g id="node1" class="node"><title>Node1</title>
<polygon fill="#bfbfbf" stroke="black" points="827.819,-224.5 827.819,-254.5 925.819,-254.5 925.819,-224.5 827.819,-224.5"/>
<text text-anchor="start" x="835.819" y="-242.5" font-family="Helvetica,sans-Serif" font-size="10.00">include/Small/Core</text>
<text text-anchor="middle" x="876.819" y="-231.5" font-family="Helvetica,sans-Serif" font-size="10.00">/Application.hpp</text>
</g>
<!-- Node2 -->
<g id="node2" class="node"><title>Node2</title>
<polygon fill="white" stroke="#bfbfbf" points="156.819,-56.5 156.819,-75.5 260.819,-75.5 260.819,-56.5 156.819,-56.5"/>
<text text-anchor="middle" x="208.819" y="-63.5" font-family="Helvetica,sans-Serif" font-size="10.00">SFML/Graphics.hpp</text>
</g>
<!-- Node1&#45;&gt;Node2 -->
<g id="edge1" class="edge"><title>Node1&#45;&gt;Node2</title>
<path fill="none" stroke="midnightblue" d="M827.69,-236.781C712.948,-232.298 430.306,-218.43 340.819,-188 296.573,-172.954 285.24,-164.667 251.819,-132 237.648,-118.149 225.618,-98.8726 217.918,-84.9116"/>
<polygon fill="midnightblue" stroke="midnightblue" points="220.884,-83.034 213.107,-75.8389 214.699,-86.3133 220.884,-83.034"/>
</g>
<!-- Node3 -->
<g id="node3" class="node"><title>Node3</title>
<polygon fill="white" stroke="#bfbfbf" points="278.819,-56.5 278.819,-75.5 404.819,-75.5 404.819,-56.5 278.819,-56.5"/>
<text text-anchor="middle" x="341.819" y="-63.5" font-family="Helvetica,sans-Serif" font-size="10.00">SFML/Window/Event.hpp</text>
</g>
<!-- Node1&#45;&gt;Node3 -->
<g id="edge2" class="edge"><title>Node1&#45;&gt;Node3</title>
<path fill="none" stroke="midnightblue" d="M827.479,-237.614C697.75,-234.113 352.487,-216.847 285.819,-132 271.486,-113.758 295.322,-93.6533 316.188,-80.7045"/>
<polygon fill="midnightblue" stroke="midnightblue" points="317.986,-83.7077 324.829,-75.6194 314.435,-77.6748 317.986,-83.7077"/>
</g>
<!-- Node4 -->
<g id="node4" class="node"><title>Node4</title>
<polygon fill="white" stroke="#bfbfbf" points="12.8194,-56.5 12.8194,-75.5 138.819,-75.5 138.819,-56.5 12.8194,-56.5"/>
<text text-anchor="middle" x="75.8194" y="-63.5" font-family="Helvetica,sans-Serif" font-size="10.00">SFML/System/Clock.hpp</text>
</g>
<!-- Node1&#45;&gt;Node4 -->
<g id="edge3" class="edge"><title>Node1&#45;&gt;Node4</title>
<path fill="none" stroke="midnightblue" d="M827.474,-236.715C705.402,-231.905 391.929,-217.029 291.819,-188 212.66,-165.046 130.901,-108.593 94.8485,-81.7018"/>
<polygon fill="midnightblue" stroke="midnightblue" points="96.7847,-78.778 86.6966,-75.5404 92.5639,-84.3623 96.7847,-78.778"/>
</g>
<!-- Node5 -->
<g id="node5" class="node"><title>Node5</title>
<polygon fill="white" stroke="#bfbfbf" points="398.319,-0.5 398.319,-19.5 439.319,-19.5 439.319,-0.5 398.319,-0.5"/>
<text text-anchor="middle" x="418.819" y="-7.5" font-family="Helvetica,sans-Serif" font-size="10.00">string</text>
</g>
<!-- Node1&#45;&gt;Node5 -->
<g id="edge4" class="edge"><title>Node1&#45;&gt;Node5</title>
<path fill="none" stroke="midnightblue" d="M827.384,-236.914C697.64,-232.38 349.764,-217.736 238.819,-188 127.064,-158.047 65.5737,-173.841 3.81939,-76 -38.1449,-9.51336 284.985,-8.91375 387.968,-10.3788"/>
<polygon fill="midnightblue" stroke="midnightblue" points="387.994,-13.8796 398.048,-10.5393 388.105,-6.88048 387.994,-13.8796"/>
</g>
<!-- Node6 -->
<g id="node6" class="node"><title>Node6</title>
<polygon fill="white" stroke="#bfbfbf" points="1076.82,-168.5 1076.82,-187.5 1124.82,-187.5 1124.82,-168.5 1076.82,-168.5"/>
<text text-anchor="middle" x="1100.82" y="-175.5" font-family="Helvetica,sans-Serif" font-size="10.00">imgui.h</text>
</g>
<!-- Node1&#45;&gt;Node6 -->
<g id="edge5" class="edge"><title>Node1&#45;&gt;Node6</title>
<path fill="none" stroke="midnightblue" d="M925.917,-225.631C962.326,-216.062 1013.43,-202.577 1067,-188.206"/>
<polygon fill="midnightblue" stroke="midnightblue" points="1067.92,-191.582 1076.67,-185.608 1066.11,-184.821 1067.92,-191.582"/>
</g>
<!-- Node7 -->
<g id="node7" class="node"><title>Node7</title>
<polygon fill="white" stroke="#bfbfbf" points="1143.32,-168.5 1143.32,-187.5 1220.32,-187.5 1220.32,-168.5 1143.32,-168.5"/>
<text text-anchor="middle" x="1181.82" y="-175.5" font-family="Helvetica,sans-Serif" font-size="10.00">imgui&#45;SFML.h</text>
</g>
<!-- Node1&#45;&gt;Node7 -->
<g id="edge6" class="edge"><title>Node1&#45;&gt;Node7</title>
<path fill="none" stroke="midnightblue" d="M925.823,-228.94C982.851,-217.815 1076.44,-199.557 1133.27,-188.47"/>
<polygon fill="midnightblue" stroke="midnightblue" points="1133.95,-191.904 1143.1,-186.554 1132.61,-185.034 1133.95,-191.904"/>
</g>
<!-- Node8 -->
<g id="node8" class="node"><title>Node8</title>
<polygon fill="white" stroke="#bfbfbf" points="1238.32,-168.5 1238.32,-187.5 1339.32,-187.5 1339.32,-168.5 1238.32,-168.5"/>
<text text-anchor="middle" x="1288.82" y="-175.5" font-family="Helvetica,sans-Serif" font-size="10.00">SFML/OpenGL.hpp</text>
</g>
<!-- Node1&#45;&gt;Node8 -->
<g id="edge7" class="edge"><title>Node1&#45;&gt;Node8</title>
<path fill="none" stroke="midnightblue" d="M926.094,-231.532C992.25,-222.155 1113.73,-204.857 1228.1,-188.097"/>
<polygon fill="midnightblue" stroke="midnightblue" points="1228.7,-191.548 1238.08,-186.634 1227.68,-184.622 1228.7,-191.548"/>
</g>
<!-- Node9 -->
<g id="node9" class="node"><title>Node9</title>
<g id="a_node9"><a xlink:href="../../df/d74/SceneManager_8hpp.html" target="_top" xlink:title="Define the scene manager (creating, handling and destroying them) ">
<polygon fill="white" stroke="black" points="524.819,-168.5 524.819,-187.5 676.819,-187.5 676.819,-168.5 524.819,-168.5"/>
<text text-anchor="middle" x="600.819" y="-175.5" font-family="Helvetica,sans-Serif" font-size="10.00">Small/Core/SceneManager.hpp</text>
</a>
</g>
</g>
<!-- Node1&#45;&gt;Node9 -->
<g id="edge8" class="edge"><title>Node1&#45;&gt;Node9</title>
<path fill="none" stroke="midnightblue" d="M827.794,-227.931C777.796,-217.153 700.636,-200.518 650.428,-189.695"/>
<polygon fill="midnightblue" stroke="midnightblue" points="650.965,-186.23 640.452,-187.544 649.49,-193.073 650.965,-186.23"/>
</g>
<!-- Node13 -->
<g id="node13" class="node"><title>Node13</title>
<g id="a_node13"><a xlink:href="../../df/db4/Config_8hpp.html" target="_top" xlink:title="Small/Scripting/Config.hpp">
<polygon fill="white" stroke="black" points="536.319,-56.5 536.319,-75.5 667.319,-75.5 667.319,-56.5 536.319,-56.5"/>
<text text-anchor="middle" x="601.819" y="-63.5" font-family="Helvetica,sans-Serif" font-size="10.00">Small/Scripting/Config.hpp</text>
</a>
</g>
</g>
<!-- Node1&#45;&gt;Node13 -->
<g id="edge38" class="edge"><title>Node1&#45;&gt;Node13</title>
<path fill="none" stroke="midnightblue" d="M868.053,-224.342C851.067,-198.11 811.064,-141.908 762.819,-112 735.449,-95.0327 701.56,-84.32 671.944,-77.6274"/>
<polygon fill="midnightblue" stroke="midnightblue" points="672.592,-74.1868 662.08,-75.5086 671.122,-81.0307 672.592,-74.1868"/>
</g>
<!-- Node22 -->
<g id="node22" class="node"><title>Node22</title>
<g id="a_node22"><a xlink:href="../../dc/dbc/Profiler_8hpp.html" target="_top" xlink:title="Profiler from https://github.com/bwrsandman/imgui&#45;flame&#45;graph/ (example/main.cpp), updated for the project needs. ">
<polygon fill="white" stroke="black" points="1357.82,-168.5 1357.82,-187.5 1481.82,-187.5 1481.82,-168.5 1357.82,-168.5"/>
<text text-anchor="middle" x="1419.82" y="-175.5" font-family="Helvetica,sans-Serif" font-size="10.00">Small/Debug/Profiler.hpp</text>
</a>
</g>
</g>
<!-- Node1&#45;&gt;Node22 -->
<g id="edge33" class="edge"><title>Node1&#45;&gt;Node22</title>
<path fill="none" stroke="midnightblue" d="M926.011,-233.513C1011.73,-224.758 1194.04,-205.854 1347.82,-188 1347.92,-187.988 1348.02,-187.976 1348.12,-187.965"/>
<polygon fill="midnightblue" stroke="midnightblue" points="1348.25,-191.474 1357.77,-186.826 1347.43,-184.522 1348.25,-191.474"/>
</g>
<!-- Node26 -->
<g id="node26" class="node"><title>Node26</title>
<polygon fill="white" stroke="#bfbfbf" points="945.819,-112.5 945.819,-131.5 1013.82,-131.5 1013.82,-112.5 945.819,-112.5"/>
<text text-anchor="middle" x="979.819" y="-119.5" font-family="Helvetica,sans-Serif" font-size="10.00">Ark/Ark.hpp</text>
</g>
<!-- Node1&#45;&gt;Node26 -->
<g id="edge37" class="edge"><title>Node1&#45;&gt;Node26</title>
<path fill="none" stroke="midnightblue" d="M877.384,-224.318C878.679,-208.932 882.813,-184.38 895.819,-168 907.602,-153.162 925.653,-142.594 942.006,-135.445"/>
<polygon fill="midnightblue" stroke="midnightblue" points="943.44,-138.641 951.379,-131.625 940.797,-132.159 943.44,-138.641"/>
</g>
<!-- Node27 -->
<g id="node27" class="node"><title>Node27</title>
<g id="a_node27"><a xlink:href="../../d8/d82/SFMLtoArk_8hpp.html" target="_top" xlink:title="Convert SFML values to ArkScript values. ">
<polygon fill="white" stroke="black" points="904.819,-168.5 904.819,-187.5 1058.82,-187.5 1058.82,-168.5 904.819,-168.5"/>
<text text-anchor="middle" x="981.819" y="-175.5" font-family="Helvetica,sans-Serif" font-size="10.00">Small/Scripting/SFMLtoArk.hpp</text>
</a>
</g>
</g>
<!-- Node1&#45;&gt;Node27 -->
<g id="edge39" class="edge"><title>Node1&#45;&gt;Node27</title>
<path fill="none" stroke="midnightblue" d="M901.703,-224.399C918.534,-214.862 940.658,-202.325 957.392,-192.842"/>
<polygon fill="midnightblue" stroke="midnightblue" points="959.566,-195.633 966.541,-187.658 956.115,-189.543 959.566,-195.633"/>
</g>
<!-- Node30 -->
<g id="node30" class="node"><title>Node30</title>
<polygon fill="white" stroke="#bfbfbf" points="1500.32,-168.5 1500.32,-187.5 1577.32,-187.5 1577.32,-168.5 1500.32,-168.5"/>
<text text-anchor="middle" x="1538.82" y="-175.5" font-family="Helvetica,sans-Serif" font-size="10.00">Application.inl</text>
</g>
<!-- Node1&#45;&gt;Node30 -->
<g id="edge44" class="edge"><title>Node1&#45;&gt;Node30</title>
<path fill="none" stroke="midnightblue" d="M925.953,-236.185C1028.75,-230.97 1274.15,-216.569 1490.16,-187.945"/>
<polygon fill="midnightblue" stroke="midnightblue" points="1490.65,-191.41 1500.1,-186.615 1489.73,-184.472 1490.65,-191.41"/>
</g>
<!-- Node9&#45;&gt;Node2 -->
<g id="edge11" class="edge"><title>Node9&#45;&gt;Node2</title>
<path fill="none" stroke="midnightblue" d="M524.751,-170.988C445.523,-163.869 327.28,-150.589 285.819,-132 260.767,-120.767 237.493,-98.8789 223.232,-83.6207"/>
<polygon fill="midnightblue" stroke="midnightblue" points="225.586,-81.0053 216.282,-75.9359 220.394,-85.7005 225.586,-81.0053"/>
</g>
<!-- Node9&#45;&gt;Node3 -->
<g id="edge13" class="edge"><title>Node9&#45;&gt;Node3</title>
<path fill="none" stroke="midnightblue" d="M524.506,-176.769C443.458,-174.708 323.052,-165.83 293.819,-132 279.488,-115.415 300.534,-94.86 319.11,-81.3603"/>
<polygon fill="midnightblue" stroke="midnightblue" points="321.343,-84.0719 327.599,-75.5211 317.376,-78.3045 321.343,-84.0719"/>
</g>
<!-- Node9&#45;&gt;Node4 -->
<g id="edge12" class="edge"><title>Node9&#45;&gt;Node4</title>
<path fill="none" stroke="midnightblue" d="M524.686,-172.15C453.37,-166.444 344.22,-154.711 251.819,-132 198.127,-118.803 138.259,-94.5297 104.01,-79.6705"/>
<polygon fill="midnightblue" stroke="midnightblue" points="105.212,-76.3755 94.6477,-75.565 102.4,-82.7863 105.212,-76.3755"/>
</g>
<!-- Node10 -->
<g id="node10" class="node"><title>Node10</title>
<polygon fill="white" stroke="#bfbfbf" points="793.819,-0.5 793.819,-19.5 835.819,-19.5 835.819,-0.5 793.819,-0.5"/>
<text text-anchor="middle" x="814.819" y="-7.5" font-family="Helvetica,sans-Serif" font-size="10.00">vector</text>
</g>
<!-- Node9&#45;&gt;Node10 -->
<g id="edge9" class="edge"><title>Node9&#45;&gt;Node10</title>
<path fill="none" stroke="midnightblue" d="M656.242,-168.436C688.778,-161.783 729.846,-150.484 762.819,-132 794.638,-114.163 808.282,-109.455 822.819,-76 829.255,-61.1892 826.087,-42.8049 821.991,-29.3712"/>
<polygon fill="midnightblue" stroke="midnightblue" points="825.261,-28.1189 818.673,-19.8219 818.649,-30.4167 825.261,-28.1189"/>
</g>
<!-- Node11 -->
<g id="node11" class="node"><title>Node11</title>
<polygon fill="white" stroke="#bfbfbf" points="853.819,-0.5 853.819,-19.5 905.819,-19.5 905.819,-0.5 853.819,-0.5"/>
<text text-anchor="middle" x="879.819" y="-7.5" font-family="Helvetica,sans-Serif" font-size="10.00">memory</text>
</g>
<!-- Node9&#45;&gt;Node11 -->
<g id="edge10" class="edge"><title>Node9&#45;&gt;Node11</title>
<path fill="none" stroke="midnightblue" d="M677.234,-170.933C714.651,-165.15 759.017,-153.891 793.819,-132 833.493,-107.045 860.199,-56.4827 872.341,-29.2889"/>
<polygon fill="midnightblue" stroke="midnightblue" points="875.681,-30.3796 876.402,-19.8093 869.247,-27.6229 875.681,-30.3796"/>
</g>
<!-- Node12 -->
<g id="node12" class="node"><title>Node12</title>
<g id="a_node12"><a xlink:href="../../db/de8/Scene_8hpp.html" target="_top" xlink:title="The base scene class and the scene states are defined here. ">
<polygon fill="white" stroke="black" points="623.819,-112.5 623.819,-131.5 737.819,-131.5 737.819,-112.5 623.819,-112.5"/>
<text text-anchor="middle" x="680.819" y="-119.5" font-family="Helvetica,sans-Serif" font-size="10.00">Small/Core/Scene.hpp</text>
</a>
</g>
</g>
<!-- Node9&#45;&gt;Node12 -->
<g id="edge14" class="edge"><title>Node9&#45;&gt;Node12</title>
<path fill="none" stroke="midnightblue" d="M613.673,-168.324C626.036,-159.979 644.949,-147.212 659.557,-137.352"/>
<polygon fill="midnightblue" stroke="midnightblue" points="661.668,-140.15 667.998,-131.655 657.751,-134.348 661.668,-140.15"/>
</g>
<!-- Node9&#45;&gt;Node13 -->
<g id="edge28" class="edge"><title>Node9&#45;&gt;Node13</title>
<path fill="none" stroke="midnightblue" d="M677.165,-171.632C703.53,-165.669 730.515,-154.086 746.819,-132 752.099,-124.849 752.092,-119.157 746.819,-112 736.102,-97.452 695.271,-85.5791 659.658,-77.6889"/>
<polygon fill="midnightblue" stroke="midnightblue" points="660.293,-74.2455 649.781,-75.5702 658.825,-81.0898 660.293,-74.2455"/>
</g>
<!-- Node16 -->
<g id="node16" class="node"><title>Node16</title>
<polygon fill="white" stroke="#bfbfbf" points="924.319,-0.5 924.319,-19.5 1073.32,-19.5 1073.32,-0.5 924.319,-0.5"/>
<text text-anchor="middle" x="998.819" y="-7.5" font-family="Helvetica,sans-Serif" font-size="10.00">SFML/Graphics/Transform.hpp</text>
</g>
<!-- Node9&#45;&gt;Node16 -->
<g id="edge29" class="edge"><title>Node9&#45;&gt;Node16</title>
<path fill="none" stroke="midnightblue" d="M676.849,-168.978C720.275,-162.566 775.025,-151.329 820.819,-132 885.642,-104.64 951.406,-52.066 981.657,-26.1717"/>
<polygon fill="midnightblue" stroke="midnightblue" points="983.953,-28.8133 989.217,-19.6188 979.368,-23.5237 983.953,-28.8133"/>
</g>
<!-- Node19 -->
<g id="node19" class="node"><title>Node19</title>
<polygon fill="white" stroke="#bfbfbf" points="302.819,-112.5 302.819,-131.5 352.819,-131.5 352.819,-112.5 302.819,-112.5"/>
<text text-anchor="middle" x="327.819" y="-119.5" font-family="Helvetica,sans-Serif" font-size="10.00">typeinfo</text>
</g>
<!-- Node9&#45;&gt;Node19 -->
<g id="edge30" class="edge"><title>Node9&#45;&gt;Node19</title>
<path fill="none" stroke="midnightblue" d="M549.779,-168.497C503.419,-160.524 432.951,-147.786 362.899,-132.119"/>
<polygon fill="midnightblue" stroke="midnightblue" points="363.545,-128.677 353.02,-129.889 362.004,-135.505 363.545,-128.677"/>
</g>
<!-- Node20 -->
<g id="node20" class="node"><title>Node20</title>
<polygon fill="white" stroke="#bfbfbf" points="371.319,-112.5 371.319,-131.5 454.319,-131.5 454.319,-112.5 371.319,-112.5"/>
<text text-anchor="middle" x="412.819" y="-119.5" font-family="Helvetica,sans-Serif" font-size="10.00">unordered_map</text>
</g>
<!-- Node9&#45;&gt;Node20 -->
<g id="edge31" class="edge"><title>Node9&#45;&gt;Node20</title>
<path fill="none" stroke="midnightblue" d="M571.03,-168.444C538.99,-159.241 487.886,-144.562 452.466,-134.388"/>
<polygon fill="midnightblue" stroke="midnightblue" points="453.047,-130.913 442.469,-131.516 451.114,-137.641 453.047,-130.913"/>
</g>
<!-- Node21 -->
<g id="node21" class="node"><title>Node21</title>
<polygon fill="white" stroke="#bfbfbf" points="472.319,-112.5 472.319,-131.5 567.319,-131.5 567.319,-112.5 472.319,-112.5"/>
<text text-anchor="middle" x="519.819" y="-119.5" font-family="Helvetica,sans-Serif" font-size="10.00">SceneManager.inl</text>
</g>
<!-- Node9&#45;&gt;Node21 -->
<g id="edge32" class="edge"><title>Node9&#45;&gt;Node21</title>
<path fill="none" stroke="midnightblue" d="M587.805,-168.324C575.288,-159.979 556.138,-147.212 541.348,-137.352"/>
<polygon fill="midnightblue" stroke="midnightblue" points="543.063,-134.289 532.801,-131.655 539.18,-140.114 543.063,-134.289"/>
</g>
<!-- Node12&#45;&gt;Node2 -->
<g id="edge15" class="edge"><title>Node12&#45;&gt;Node2</title>
<path fill="none" stroke="midnightblue" d="M623.559,-115.414C546.089,-107.705 403.319,-92.9621 271.337,-76.1544"/>
<polygon fill="midnightblue" stroke="midnightblue" points="271.409,-72.6351 261.045,-74.8367 270.52,-79.5784 271.409,-72.6351"/>
</g>
<!-- Node12&#45;&gt;Node3 -->
<g id="edge17" class="edge"><title>Node12&#45;&gt;Node3</title>
<path fill="none" stroke="midnightblue" d="M627.104,-112.444C566.85,-102.846 469.205,-87.2916 405.248,-77.1037"/>
<polygon fill="midnightblue" stroke="midnightblue" points="405.71,-73.6332 395.284,-75.5164 404.609,-80.546 405.71,-73.6332"/>
</g>
<!-- Node12&#45;&gt;Node4 -->
<g id="edge16" class="edge"><title>Node12&#45;&gt;Node4</title>
<path fill="none" stroke="midnightblue" d="M623.601,-116.079C608.097,-114.75 591.315,-113.316 575.819,-112 388.861,-96.1247 339.359,-95.8477 149.073,-76.0948"/>
<polygon fill="midnightblue" stroke="midnightblue" points="149.328,-72.6025 139.019,-75.0467 148.602,-79.5647 149.328,-72.6025"/>
</g>
<!-- Node12&#45;&gt;Node5 -->
<g id="edge18" class="edge"><title>Node12&#45;&gt;Node5</title>
<path fill="none" stroke="midnightblue" d="M623.901,-112.475C560.617,-102.582 465.453,-86.3109 451.819,-76 436.712,-64.5739 427.989,-44.29 423.35,-29.4115"/>
<polygon fill="midnightblue" stroke="midnightblue" points="426.711,-28.4343 420.661,-19.737 419.967,-30.3091 426.711,-28.4343"/>
</g>
<!-- Node12&#45;&gt;Node13 -->
<g id="edge19" class="edge"><title>Node12&#45;&gt;Node13</title>
<path fill="none" stroke="midnightblue" d="M668.127,-112.324C655.918,-103.979 637.241,-91.2122 622.816,-81.3524"/>
<polygon fill="midnightblue" stroke="midnightblue" points="624.711,-78.4082 614.481,-75.6545 620.761,-84.1871 624.711,-78.4082"/>
</g>
<!-- Node14 -->
<g id="node14" class="node"><title>Node14</title>
<g id="a_node14"><a xlink:href="../../d7/dc6/Node_8hpp.html" target="_top" xlink:title="A scene graph node. ">
<polygon fill="white" stroke="black" points="685.819,-56.5 685.819,-75.5 813.819,-75.5 813.819,-56.5 685.819,-56.5"/>
<text text-anchor="middle" x="749.819" y="-63.5" font-family="Helvetica,sans-Serif" font-size="10.00">Small/Graphics/Node.hpp</text>
</a>
</g>
</g>
<!-- Node12&#45;&gt;Node14 -->
<g id="edge21" class="edge"><title>Node12&#45;&gt;Node14</title>
<path fill="none" stroke="midnightblue" d="M691.905,-112.324C702.305,-104.185 718.08,-91.8395 730.541,-82.0874"/>
<polygon fill="midnightblue" stroke="midnightblue" points="732.814,-84.7533 738.532,-75.8339 728.499,-79.2407 732.814,-84.7533"/>
</g>
<!-- Node18 -->
<g id="node18" class="node"><title>Node18</title>
<polygon fill="white" stroke="#bfbfbf" points="461.319,-56.5 461.319,-75.5 518.319,-75.5 518.319,-56.5 461.319,-56.5"/>
<text text-anchor="middle" x="489.819" y="-63.5" font-family="Helvetica,sans-Serif" font-size="10.00">Scene.inl</text>
</g>
<!-- Node12&#45;&gt;Node18 -->
<g id="edge27" class="edge"><title>Node12&#45;&gt;Node18</title>
<path fill="none" stroke="midnightblue" d="M650.555,-112.444C617.383,-103.065 564.097,-88.0001 528.059,-77.8112"/>
<polygon fill="midnightblue" stroke="midnightblue" points="528.958,-74.4281 518.383,-75.0755 527.053,-81.1641 528.958,-74.4281"/>
</g>
<!-- Node13&#45;&gt;Node5 -->
<g id="edge20" class="edge"><title>Node13&#45;&gt;Node5</title>
<path fill="none" stroke="midnightblue" d="M572.474,-56.4202C543.59,-47.9639 497.973,-34.5791 449.253,-20.1173"/>
<polygon fill="midnightblue" stroke="midnightblue" points="450.054,-16.7042 439.472,-17.2117 448.061,-23.4144 450.054,-16.7042"/>
</g>
<!-- Node14&#45;&gt;Node10 -->
<g id="edge25" class="edge"><title>Node14&#45;&gt;Node10</title>
<path fill="none" stroke="midnightblue" d="M760.263,-56.324C769.966,-48.2631 784.635,-36.0765 796.319,-26.3695"/>
<polygon fill="midnightblue" stroke="midnightblue" points="798.731,-28.9163 804.186,-19.8339 794.257,-23.532 798.731,-28.9163"/>
</g>
<!-- Node14&#45;&gt;Node11 -->
<g id="edge26" class="edge"><title>Node14&#45;&gt;Node11</title>
<path fill="none" stroke="midnightblue" d="M770.418,-56.4435C791.813,-47.5566 825.501,-33.5632 849.844,-23.4514"/>
<polygon fill="midnightblue" stroke="midnightblue" points="851.425,-26.5848 859.317,-19.5164 848.739,-20.1203 851.425,-26.5848"/>
</g>
<!-- Node15 -->
<g id="node15" class="node"><title>Node15</title>
<polygon fill="white" stroke="#bfbfbf" points="457.819,-0.5 457.819,-19.5 621.819,-19.5 621.819,-0.5 457.819,-0.5"/>
<text text-anchor="middle" x="539.819" y="-7.5" font-family="Helvetica,sans-Serif" font-size="10.00">SFML/Graphics/RenderTarget.hpp</text>
</g>
<!-- Node14&#45;&gt;Node15 -->
<g id="edge22" class="edge"><title>Node14&#45;&gt;Node15</title>
<path fill="none" stroke="midnightblue" d="M716.544,-56.4435C680.371,-47.1419 622.443,-32.246 582.838,-22.062"/>
<polygon fill="midnightblue" stroke="midnightblue" points="583.495,-18.6172 572.939,-19.5164 581.752,-25.3966 583.495,-18.6172"/>
</g>
<!-- Node14&#45;&gt;Node16 -->
<g id="edge23" class="edge"><title>Node14&#45;&gt;Node16</title>
<path fill="none" stroke="midnightblue" d="M789.274,-56.4435C832.712,-47.0234 902.606,-31.8656 949.595,-21.6752"/>
<polygon fill="midnightblue" stroke="midnightblue" points="950.518,-25.0564 959.549,-19.5164 949.035,-18.2154 950.518,-25.0564"/>
</g>
<!-- Node17 -->
<g id="node17" class="node"><title>Node17</title>
<polygon fill="white" stroke="#bfbfbf" points="640.319,-0.5 640.319,-19.5 775.319,-19.5 775.319,-0.5 640.319,-0.5"/>
<text text-anchor="middle" x="707.819" y="-7.5" font-family="Helvetica,sans-Serif" font-size="10.00">SFML/System/Vector2.hpp</text>
</g>
<!-- Node14&#45;&gt;Node17 -->
<g id="edge24" class="edge"><title>Node14&#45;&gt;Node17</title>
<path fill="none" stroke="midnightblue" d="M742.884,-56.083C736.89,-48.3768 728.068,-37.0333 720.772,-27.6531"/>
<polygon fill="midnightblue" stroke="midnightblue" points="723.528,-25.4958 714.626,-19.7511 718.002,-29.7934 723.528,-25.4958"/>
</g>
<!-- Node23 -->
<g id="node23" class="node"><title>Node23</title>
<polygon fill="white" stroke="#bfbfbf" points="1340.82,-112.5 1340.82,-131.5 1378.82,-131.5 1378.82,-112.5 1340.82,-112.5"/>
<text text-anchor="middle" x="1359.82" y="-119.5" font-family="Helvetica,sans-Serif" font-size="10.00">array</text>
</g>
<!-- Node22&#45;&gt;Node23 -->
<g id="edge34" class="edge"><title>Node22&#45;&gt;Node23</title>
<path fill="none" stroke="midnightblue" d="M1410.18,-168.324C1401.31,-160.341 1387.94,-148.313 1377.21,-138.653"/>
<polygon fill="midnightblue" stroke="midnightblue" points="1379.41,-135.922 1369.63,-131.834 1374.73,-141.125 1379.41,-135.922"/>
</g>
<!-- Node24 -->
<g id="node24" class="node"><title>Node24</title>
<polygon fill="white" stroke="#bfbfbf" points="1396.82,-112.5 1396.82,-131.5 1442.82,-131.5 1442.82,-112.5 1396.82,-112.5"/>
<text text-anchor="middle" x="1419.82" y="-119.5" font-family="Helvetica,sans-Serif" font-size="10.00">chrono</text>
</g>
<!-- Node22&#45;&gt;Node24 -->
<g id="edge35" class="edge"><title>Node22&#45;&gt;Node24</title>
<path fill="none" stroke="midnightblue" d="M1419.82,-168.083C1419.82,-161.006 1419.82,-150.861 1419.82,-141.986"/>
<polygon fill="midnightblue" stroke="midnightblue" points="1423.32,-141.751 1419.82,-131.751 1416.32,-141.751 1423.32,-141.751"/>
</g>
<!-- Node25 -->
<g id="node25" class="node"><title>Node25</title>
<polygon fill="white" stroke="#bfbfbf" points="1460.82,-112.5 1460.82,-131.5 1604.82,-131.5 1604.82,-112.5 1460.82,-112.5"/>
<text text-anchor="middle" x="1532.82" y="-119.5" font-family="Helvetica,sans-Serif" font-size="10.00">imgui_widget_flamegraph.hpp</text>
</g>
<!-- Node22&#45;&gt;Node25 -->
<g id="edge36" class="edge"><title>Node22&#45;&gt;Node25</title>
<path fill="none" stroke="midnightblue" d="M1437.72,-168.444C1456.07,-159.675 1484.82,-145.935 1505.91,-135.858"/>
<polygon fill="midnightblue" stroke="midnightblue" points="1507.48,-138.986 1515,-131.516 1504.47,-132.67 1507.48,-138.986"/>
</g>
<!-- Node27&#45;&gt;Node3 -->
<g id="edge41" class="edge"><title>Node27&#45;&gt;Node3</title>
<path fill="none" stroke="midnightblue" d="M904.633,-175.37C829.22,-171.968 711.929,-161.819 614.819,-132 596.198,-126.282 594.236,-118.348 575.819,-112 523.44,-93.9464 461.824,-82.4665 414.971,-75.6233"/>
<polygon fill="midnightblue" stroke="midnightblue" points="415.299,-72.1347 404.905,-74.191 414.312,-79.0649 415.299,-72.1347"/>
</g>
<!-- Node27&#45;&gt;Node26 -->
<g id="edge40" class="edge"><title>Node27&#45;&gt;Node26</title>
<path fill="none" stroke="midnightblue" d="M981.489,-168.083C981.227,-161.006 980.851,-150.861 980.523,-141.986"/>
<polygon fill="midnightblue" stroke="midnightblue" points="984.011,-141.615 980.144,-131.751 977.016,-141.874 984.011,-141.615"/>
</g>
<!-- Node28 -->
<g id="node28" class="node"><title>Node28</title>
<polygon fill="white" stroke="#bfbfbf" points="1163.82,-112.5 1163.82,-131.5 1285.82,-131.5 1285.82,-112.5 1163.82,-112.5"/>
<text text-anchor="middle" x="1224.82" y="-119.5" font-family="Helvetica,sans-Serif" font-size="10.00">SFML/System/Time.hpp</text>
</g>
<!-- Node27&#45;&gt;Node28 -->
<g id="edge42" class="edge"><title>Node27&#45;&gt;Node28</title>
<path fill="none" stroke="midnightblue" d="M1020.32,-168.444C1062.63,-159.043 1130.64,-143.929 1176.49,-133.739"/>
<polygon fill="midnightblue" stroke="midnightblue" points="1177.49,-137.102 1186.5,-131.516 1175.97,-130.269 1177.49,-137.102"/>
</g>
<!-- Node29 -->
<g id="node29" class="node"><title>Node29</title>
<polygon fill="white" stroke="#bfbfbf" points="1032.32,-112.5 1032.32,-131.5 1145.32,-131.5 1145.32,-112.5 1032.32,-112.5"/>
<text text-anchor="middle" x="1088.82" y="-119.5" font-family="Helvetica,sans-Serif" font-size="10.00">SFML/System/Utf.hpp</text>
</g>
<!-- Node27&#45;&gt;Node29 -->
<g id="edge43" class="edge"><title>Node27&#45;&gt;Node29</title>
<path fill="none" stroke="midnightblue" d="M999.011,-168.324C1016.17,-159.664 1042.77,-146.242 1062.57,-136.249"/>
<polygon fill="midnightblue" stroke="midnightblue" points="1064.32,-139.285 1071.67,-131.655 1061.17,-133.035 1064.32,-139.285"/>
</g>
</g>
</svg>
        <g id="navigator" transform="translate(0 0)" fill="#404254">
                <rect fill="#f2f5e9" fill-opacity="0.5" stroke="#606060" stroke-width=".5" x="0" y="0" width="60" height="60"/>
                <use id="zoomplus" xlink:href="#zoomPlus" x="17" y="9" onmousedown="handleZoom(evt,'in')"/>
                <use id="zoomminus" xlink:href="#zoomMin" x="42" y="9" onmousedown="handleZoom(evt,'out')"/>
                <use id="reset" xlink:href="#resetDef" x="30" y="36" onmousedown="handleReset()"/>
                <g id="arrowUp" xlink:href="#dirArrow" transform="translate(30 24)" onmousedown="handlePan(0,-1)">
                  <use xlink:href="#rim" fill="#404040">
                        <set attributeName="fill" to="#808080" begin="arrowUp.mouseover" end="arrowUp.mouseout"/>
                  </use>
                  <path fill="none" stroke="white" stroke-width="1.5" d="M0,-3.0v7 M-2.5,-0.5L0,-3.0L2.5,-0.5"/>
                </g>
                <g id="arrowRight" xlink:href="#dirArrow" transform="rotate(90) translate(36 -43)" onmousedown="handlePan(1,0)">
                  <use xlink:href="#rim" fill="#404040">
                        <set attributeName="fill" to="#808080" begin="arrowRight.mouseover" end="arrowRight.mouseout"/>
                  </use>
                  <path fill="none" stroke="white" stroke-width="1.5" d="M0,-3.0v7 M-2.5,-0.5L0,-3.0L2.5,-0.5"/>
                </g>
                <g id="arrowDown" xlink:href="#dirArrow" transform="rotate(180) translate(-30 -48)" onmousedown="handlePan(0,1)">
                  <use xlink:href="#rim" fill="#404040">
                        <set attributeName="fill" to="#808080" begin="arrowDown.mouseover" end="arrowDown.mouseout"/>
                  </use>
                  <path fill="none" stroke="white" stroke-width="1.5" d="M0,-3.0v7 M-2.5,-0.5L0,-3.0L2.5,-0.5"/>
                </g>
                <g id="arrowLeft" xlink:href="#dirArrow" transform="rotate(270) translate(-36 17)" onmousedown="handlePan(-1,0)">
                  <use xlink:href="#rim" fill="#404040">
                        <set attributeName="fill" to="#808080" begin="arrowLeft.mouseover" end="arrowLeft.mouseout"/>
                  </use>
                  <path fill="none" stroke="white" stroke-width="1.5" d="M0,-3.0v7 M-2.5,-0.5L0,-3.0L2.5,-0.5"/>
                </g>
        </g>
        <svg viewBox="0 0 15 15" width="100%" height="30px" preserveAspectRatio="xMaxYMin meet">
         <g id="arrow_out" transform="scale(0.3 0.3)">
          <a xlink:href="Application_8hpp__incl_org.svg" target="_base">
           <rect id="button" ry="5" rx="5" y="6" x="6" height="38" width="38"
                fill="#f2f5e9" fill-opacity="0.5" stroke="#606060" stroke-width="1.0"/>
           <path id="arrow"
             d="M 11.500037,31.436501 C 11.940474,20.09759 22.043105,11.32322 32.158766,21.979434 L 37.068811,17.246167 C 37.068811,17.246167 37.088388,32 37.088388,32 L 22.160133,31.978069 C 22.160133,31.978069 26.997745,27.140456 26.997745,27.140456 C 18.528582,18.264221 13.291696,25.230495 11.500037,31.436501 z"
             style="fill:#404040;"/>
          </a>
         </g>
        </svg>
</svg>
