<?xml version="1.0" encoding="UTF-8" standalone="no"?>
<!DOCTYPE svg PUBLIC "-//W3C//DTD SVG 1.1//EN"
 "http://www.w3.org/Graphics/SVG/1.1/DTD/svg11.dtd">
<!-- Generated by graphviz version 2.38.0 (20140413.2041)
 -->
<!-- Title: include/Small/Core/Application.hpp Pages: 1 -->
<svg width="1617pt" height="263pt"
 viewBox="0.00 0.00 1617.13 263.00" xmlns="http://www.w3.org/2000/svg" xmlns:xlink="http://www.w3.org/1999/xlink">
<g id="graph0" class="graph" transform="scale(1 1) rotate(0) translate(4 259)">
<title>include/Small/Core/Application.hpp</title>
<polygon fill="white" stroke="none" points="-4,4 -4,-259 1613.13,-259 1613.13,4 -4,4"/>
<!-- Node1 -->
<g id="node1" class="node"><title>Node1</title>
<polygon fill="#bfbfbf" stroke="black" points="832.126,-224.5 832.126,-254.5 930.126,-254.5 930.126,-224.5 832.126,-224.5"/>
<text text-anchor="start" x="840.126" y="-242.5" font-family="Helvetica,sans-Serif" font-size="10.00">include/Small/Core</text>
<text text-anchor="middle" x="881.126" y="-231.5" font-family="Helvetica,sans-Serif" font-size="10.00">/Application.hpp</text>
</g>
<!-- Node2 -->
<g id="node2" class="node"><title>Node2</title>
<polygon fill="white" stroke="#bfbfbf" points="569.126,-56.5 569.126,-75.5 673.126,-75.5 673.126,-56.5 569.126,-56.5"/>
<text text-anchor="middle" x="621.126" y="-63.5" font-family="Helvetica,sans-Serif" font-size="10.00">SFML/Graphics.hpp</text>
</g>
<!-- Node1&#45;&gt;Node2 -->
<g id="edge1" class="edge"><title>Node1&#45;&gt;Node2</title>
<path fill="none" stroke="midnightblue" d="M831.936,-238.386C749.577,-237.033 589.321,-229.047 554.126,-188 541.884,-173.721 551.279,-137.728 567.126,-112 574.702,-99.7019 586.815,-89.1564 597.651,-81.3718"/>
<polygon fill="midnightblue" stroke="midnightblue" points="599.644,-84.2491 605.957,-75.7399 595.716,-78.4556 599.644,-84.2491"/>
</g>
<!-- Node3 -->
<g id="node3" class="node"><title>Node3</title>
<polygon fill="white" stroke="#bfbfbf" points="805.126,-56.5 805.126,-75.5 931.126,-75.5 931.126,-56.5 805.126,-56.5"/>
<text text-anchor="middle" x="868.126" y="-63.5" font-family="Helvetica,sans-Serif" font-size="10.00">SFML/Window/Event.hpp</text>
</g>
<!-- Node1&#45;&gt;Node3 -->
<g id="edge2" class="edge"><title>Node1&#45;&gt;Node3</title>
<path fill="none" stroke="midnightblue" d="M879.83,-224.382C877.982,-203.996 874.545,-165.126 872.126,-132 870.993,-116.476 869.922,-98.8505 869.174,-85.8735"/>
<polygon fill="midnightblue" stroke="midnightblue" points="872.665,-85.622 868.606,-75.8357 865.676,-86.0174 872.665,-85.622"/>
</g>
<!-- Node4 -->
<g id="node4" class="node"><title>Node4</title>
<polygon fill="white" stroke="#bfbfbf" points="16.1264,-56.5 16.1264,-75.5 142.126,-75.5 142.126,-56.5 16.1264,-56.5"/>
<text text-anchor="middle" x="79.1264" y="-63.5" font-family="Helvetica,sans-Serif" font-size="10.00">SFML/System/Clock.hpp</text>
</g>
<!-- Node1&#45;&gt;Node4 -->
<g id="edge3" class="edge"><title>Node1&#45;&gt;Node4</title>
<path fill="none" stroke="midnightblue" d="M831.785,-238.165C740.763,-236.536 540.862,-228.221 378.126,-188 272.627,-161.925 155.257,-105.85 104.638,-80.2425"/>
<polygon fill="midnightblue" stroke="midnightblue" points="105.926,-76.9706 95.4275,-75.5451 102.746,-83.2064 105.926,-76.9706"/>
</g>
<!-- Node5 -->
<g id="node5" class="node"><title>Node5</title>
<polygon fill="white" stroke="#bfbfbf" points="177.626,-0.5 177.626,-19.5 218.626,-19.5 218.626,-0.5 177.626,-0.5"/>
<text text-anchor="middle" x="198.126" y="-7.5" font-family="Helvetica,sans-Serif" font-size="10.00">string</text>
</g>
<!-- Node1&#45;&gt;Node5 -->
<g id="edge4" class="edge"><title>Node1&#45;&gt;Node5</title>
<path fill="none" stroke="midnightblue" d="M831.933,-237.887C661.644,-234.56 102.463,-213.197 7.12639,-76 -32.4586,-19.0342 103.51,-11.3063 167.103,-10.7269"/>
<polygon fill="midnightblue" stroke="midnightblue" points="167.378,-14.226 177.366,-10.69 167.353,-7.22605 167.378,-14.226"/>
</g>
<!-- Node6 -->
<g id="node6" class="node"><title>Node6</title>
<polygon fill="white" stroke="#bfbfbf" points="1081.13,-168.5 1081.13,-187.5 1129.13,-187.5 1129.13,-168.5 1081.13,-168.5"/>
<text text-anchor="middle" x="1105.13" y="-175.5" font-family="Helvetica,sans-Serif" font-size="10.00">imgui.h</text>
</g>
<!-- Node1&#45;&gt;Node6 -->
<g id="edge5" class="edge"><title>Node1&#45;&gt;Node6</title>
<path fill="none" stroke="midnightblue" d="M930.224,-225.631C966.633,-216.062 1017.74,-202.577 1071.31,-188.206"/>
<polygon fill="midnightblue" stroke="midnightblue" points="1072.23,-191.582 1080.98,-185.608 1070.42,-184.821 1072.23,-191.582"/>
</g>
<!-- Node7 -->
<g id="node7" class="node"><title>Node7</title>
<polygon fill="white" stroke="#bfbfbf" points="1147.63,-168.5 1147.63,-187.5 1224.63,-187.5 1224.63,-168.5 1147.63,-168.5"/>
<text text-anchor="middle" x="1186.13" y="-175.5" font-family="Helvetica,sans-Serif" font-size="10.00">imgui&#45;SFML.h</text>
</g>
<!-- Node1&#45;&gt;Node7 -->
<g id="edge6" class="edge"><title>Node1&#45;&gt;Node7</title>
<path fill="none" stroke="midnightblue" d="M930.13,-228.94C987.158,-217.815 1080.75,-199.557 1137.58,-188.47"/>
<polygon fill="midnightblue" stroke="midnightblue" points="1138.26,-191.904 1147.4,-186.554 1136.92,-185.034 1138.26,-191.904"/>
</g>
<!-- Node8 -->
<g id="node8" class="node"><title>Node8</title>
<polygon fill="white" stroke="#bfbfbf" points="1242.63,-168.5 1242.63,-187.5 1343.63,-187.5 1343.63,-168.5 1242.63,-168.5"/>
<text text-anchor="middle" x="1293.13" y="-175.5" font-family="Helvetica,sans-Serif" font-size="10.00">SFML/OpenGL.hpp</text>
</g>
<!-- Node1&#45;&gt;Node8 -->
<g id="edge7" class="edge"><title>Node1&#45;&gt;Node8</title>
<path fill="none" stroke="midnightblue" d="M930.401,-231.532C996.557,-222.155 1118.03,-204.857 1232.41,-188.097"/>
<polygon fill="midnightblue" stroke="midnightblue" points="1233,-191.548 1242.39,-186.634 1231.99,-184.622 1233,-191.548"/>
</g>
<!-- Node9 -->
<g id="node9" class="node"><title>Node9</title>
<g id="a_node9"><a xlink:href="../../df/d74/SceneManager_8hpp.html" target="_top" xlink:title="Define the scene manager (creating, handling and destroying them) ">
<polygon fill="white" stroke="black" points="563.126,-168.5 563.126,-187.5 715.126,-187.5 715.126,-168.5 563.126,-168.5"/>
<text text-anchor="middle" x="639.126" y="-175.5" font-family="Helvetica,sans-Serif" font-size="10.00">Small/Core/SceneManager.hpp</text>
</a>
</g>
</g>
<!-- Node1&#45;&gt;Node9 -->
<g id="edge8" class="edge"><title>Node1&#45;&gt;Node9</title>
<path fill="none" stroke="midnightblue" d="M831.862,-226.388C788.454,-215.715 725.769,-200.303 683.795,-189.983"/>
<polygon fill="midnightblue" stroke="midnightblue" points="684.404,-186.528 673.857,-187.539 682.733,-193.326 684.404,-186.528"/>
</g>
<!-- Node13 -->
<g id="node13" class="node"><title>Node13</title>
<g id="a_node13"><a xlink:href="../../df/db4/Config_8hpp.html" target="_top" xlink:title="Small/Scripting/Config.hpp">
<polygon fill="white" stroke="black" points="160.626,-56.5 160.626,-75.5 291.626,-75.5 291.626,-56.5 160.626,-56.5"/>
<text text-anchor="middle" x="226.126" y="-63.5" font-family="Helvetica,sans-Serif" font-size="10.00">Small/Scripting/Config.hpp</text>
</a>
</g>
</g>
<!-- Node1&#45;&gt;Node13 -->
<g id="edge36" class="edge"><title>Node1&#45;&gt;Node13</title>
<path fill="none" stroke="midnightblue" d="M831.834,-239.13C727.157,-238.485 477.511,-226.299 297.126,-132 274.099,-119.962 252.852,-98.5691 239.718,-83.6256"/>
<polygon fill="midnightblue" stroke="midnightblue" points="242.115,-81.0416 232.97,-75.6919 236.783,-85.5769 242.115,-81.0416"/>
</g>
<!-- Node20 -->
<g id="node20" class="node"><title>Node20</title>
<g id="a_node20"><a xlink:href="../../dc/dbc/Profiler_8hpp.html" target="_top" xlink:title="Profiler from https://github.com/bwrsandman/imgui&#45;flame&#45;graph/ (example/main.cpp), updated for the project needs. ">
<polygon fill="white" stroke="black" points="1362.13,-168.5 1362.13,-187.5 1486.13,-187.5 1486.13,-168.5 1362.13,-168.5"/>
<text text-anchor="middle" x="1424.13" y="-175.5" font-family="Helvetica,sans-Serif" font-size="10.00">Small/Debug/Profiler.hpp</text>
</a>
</g>
</g>
<!-- Node1&#45;&gt;Node20 -->
<g id="edge31" class="edge"><title>Node1&#45;&gt;Node20</title>
<path fill="none" stroke="midnightblue" d="M930.318,-233.513C1016.04,-224.758 1198.34,-205.854 1352.13,-188 1352.23,-187.988 1352.33,-187.976 1352.43,-187.965"/>
<polygon fill="midnightblue" stroke="midnightblue" points="1352.56,-191.474 1362.08,-186.826 1351.74,-184.522 1352.56,-191.474"/>
</g>
<!-- Node24 -->
<g id="node24" class="node"><title>Node24</title>
<polygon fill="white" stroke="#bfbfbf" points="881.126,-112.5 881.126,-131.5 949.126,-131.5 949.126,-112.5 881.126,-112.5"/>
<text text-anchor="middle" x="915.126" y="-119.5" font-family="Helvetica,sans-Serif" font-size="10.00">Ark/Ark.hpp</text>
</g>
<!-- Node1&#45;&gt;Node24 -->
<g id="edge35" class="edge"><title>Node1&#45;&gt;Node24</title>
<path fill="none" stroke="midnightblue" d="M884.671,-224.386C888.318,-210.105 894.278,-187.421 900.126,-168 902.801,-159.118 906.026,-149.34 908.799,-141.174"/>
<polygon fill="midnightblue" stroke="midnightblue" points="912.157,-142.174 912.1,-131.579 905.537,-139.896 912.157,-142.174"/>
</g>
<!-- Node25 -->
<g id="node25" class="node"><title>Node25</title>
<g id="a_node25"><a xlink:href="../../d8/d82/SFMLtoArk_8hpp.html" target="_top" xlink:title="Convert SFML values to ArkScript values. ">
<polygon fill="white" stroke="black" points="909.126,-168.5 909.126,-187.5 1063.13,-187.5 1063.13,-168.5 909.126,-168.5"/>
<text text-anchor="middle" x="986.126" y="-175.5" font-family="Helvetica,sans-Serif" font-size="10.00">Small/Scripting/SFMLtoArk.hpp</text>
</a>
</g>
</g>
<!-- Node1&#45;&gt;Node25 -->
<g id="edge37" class="edge"><title>Node1&#45;&gt;Node25</title>
<path fill="none" stroke="midnightblue" d="M906.01,-224.399C922.841,-214.862 944.965,-202.325 961.699,-192.842"/>
<polygon fill="midnightblue" stroke="midnightblue" points="963.873,-195.633 970.848,-187.658 960.422,-189.543 963.873,-195.633"/>
</g>
<!-- Node28 -->
<g id="node28" class="node"><title>Node28</title>
<polygon fill="white" stroke="#bfbfbf" points="1504.63,-168.5 1504.63,-187.5 1581.63,-187.5 1581.63,-168.5 1504.63,-168.5"/>
<text text-anchor="middle" x="1543.13" y="-175.5" font-family="Helvetica,sans-Serif" font-size="10.00">Application.inl</text>
</g>
<!-- Node1&#45;&gt;Node28 -->
<g id="edge42" class="edge"><title>Node1&#45;&gt;Node28</title>
<path fill="none" stroke="midnightblue" d="M930.26,-236.185C1033.06,-230.97 1278.46,-216.569 1494.47,-187.945"/>
<polygon fill="midnightblue" stroke="midnightblue" points="1494.96,-191.41 1504.41,-186.615 1494.03,-184.472 1494.96,-191.41"/>
</g>
<!-- Node9&#45;&gt;Node2 -->
<g id="edge11" class="edge"><title>Node9&#45;&gt;Node2</title>
<path fill="none" stroke="midnightblue" d="M616.668,-168.382C601.357,-161.184 582.263,-149.288 573.126,-132 563.302,-113.412 581.433,-94.3096 598.154,-81.6664"/>
<polygon fill="midnightblue" stroke="midnightblue" points="600.472,-84.3138 606.614,-75.6806 596.429,-78.5995 600.472,-84.3138"/>
</g>
<!-- Node9&#45;&gt;Node3 -->
<g id="edge13" class="edge"><title>Node9&#45;&gt;Node3</title>
<path fill="none" stroke="midnightblue" d="M685.61,-168.468C716.74,-161.522 757.939,-149.893 791.126,-132 815.033,-119.111 838.262,-97.9496 852.844,-83.2895"/>
<polygon fill="midnightblue" stroke="midnightblue" points="855.554,-85.5225 860.004,-75.9076 850.529,-80.6487 855.554,-85.5225"/>
</g>
<!-- Node9&#45;&gt;Node4 -->
<g id="edge12" class="edge"><title>Node9&#45;&gt;Node4</title>
<path fill="none" stroke="midnightblue" d="M563.035,-170.419C493.541,-163.591 388.215,-151.189 298.126,-132 231.511,-117.811 155.718,-93.408 113.039,-78.8799"/>
<polygon fill="midnightblue" stroke="midnightblue" points="114.029,-75.5194 103.434,-75.5866 111.758,-82.141 114.029,-75.5194"/>
</g>
<!-- Node10 -->
<g id="node10" class="node"><title>Node10</title>
<polygon fill="white" stroke="#bfbfbf" points="573.126,-0.5 573.126,-19.5 615.126,-19.5 615.126,-0.5 573.126,-0.5"/>
<text text-anchor="middle" x="594.126" y="-7.5" font-family="Helvetica,sans-Serif" font-size="10.00">vector</text>
</g>
<!-- Node9&#45;&gt;Node10 -->
<g id="edge9" class="edge"><title>Node9&#45;&gt;Node10</title>
<path fill="none" stroke="midnightblue" d="M628.907,-168.305C615.208,-155.564 593.945,-131.25 606.126,-112 626.113,-80.4172 662.14,-107.583 682.126,-76 686.88,-68.4888 686.765,-63.5824 682.126,-56 675.544,-45.2416 647.505,-32.0008 624.822,-22.6758"/>
<polygon fill="midnightblue" stroke="midnightblue" points="626.09,-19.4137 615.506,-18.9378 623.483,-25.9102 626.09,-19.4137"/>
</g>
<!-- Node11 -->
<g id="node11" class="node"><title>Node11</title>
<polygon fill="white" stroke="#bfbfbf" points="633.126,-0.5 633.126,-19.5 685.126,-19.5 685.126,-0.5 633.126,-0.5"/>
<text text-anchor="middle" x="659.126" y="-7.5" font-family="Helvetica,sans-Serif" font-size="10.00">memory</text>
</g>
<!-- Node9&#45;&gt;Node11 -->
<g id="edge10" class="edge"><title>Node9&#45;&gt;Node11</title>
<path fill="none" stroke="midnightblue" d="M669.374,-168.488C687.252,-161.726 708.427,-150.295 719.126,-132 726.289,-119.753 729.266,-82.9891 715.126,-56 708.367,-43.0982 696.121,-32.603 684.801,-25.0036"/>
<polygon fill="midnightblue" stroke="midnightblue" points="686.38,-21.8635 676.043,-19.5392 682.675,-27.8023 686.38,-21.8635"/>
</g>
<!-- Node12 -->
<g id="node12" class="node"><title>Node12</title>
<g id="a_node12"><a xlink:href="../../db/de8/Scene_8hpp.html" target="_top" xlink:title="The base scene class and the scene states are defined here. ">
<polygon fill="white" stroke="black" points="353.126,-112.5 353.126,-131.5 467.126,-131.5 467.126,-112.5 353.126,-112.5"/>
<text text-anchor="middle" x="410.126" y="-119.5" font-family="Helvetica,sans-Serif" font-size="10.00">Small/Core/Scene.hpp</text>
</a>
</g>
</g>
<!-- Node9&#45;&gt;Node12 -->
<g id="edge14" class="edge"><title>Node9&#45;&gt;Node12</title>
<path fill="none" stroke="midnightblue" d="M602.841,-168.444C563.143,-159.083 499.42,-144.056 456.215,-133.868"/>
<polygon fill="midnightblue" stroke="midnightblue" points="456.779,-130.405 446.242,-131.516 455.172,-137.218 456.779,-130.405"/>
</g>
<!-- Node9&#45;&gt;Node13 -->
<g id="edge28" class="edge"><title>Node9&#45;&gt;Node13</title>
<path fill="none" stroke="midnightblue" d="M562.826,-172.742C502.214,-167.619 415.992,-156.41 344.126,-132 307.728,-119.637 269.429,-96.3566 246.672,-81.2729"/>
<polygon fill="midnightblue" stroke="midnightblue" points="248.444,-78.2463 238.197,-75.5551 244.529,-84.0492 248.444,-78.2463"/>
</g>
<!-- Node16 -->
<g id="node16" class="node"><title>Node16</title>
<polygon fill="white" stroke="#bfbfbf" points="703.626,-0.5 703.626,-19.5 852.626,-19.5 852.626,-0.5 703.626,-0.5"/>
<text text-anchor="middle" x="778.126" y="-7.5" font-family="Helvetica,sans-Serif" font-size="10.00">SFML/Graphics/Transform.hpp</text>
</g>
<!-- Node9&#45;&gt;Node16 -->
<g id="edge29" class="edge"><title>Node9&#45;&gt;Node16</title>
<path fill="none" stroke="midnightblue" d="M673.316,-168.5C694.03,-161.743 719.565,-150.312 736.126,-132 762.632,-102.694 772.577,-55.7698 776.182,-29.8082"/>
<polygon fill="midnightblue" stroke="midnightblue" points="779.668,-30.1337 777.398,-19.7848 772.719,-29.2902 779.668,-30.1337"/>
</g>
<!-- Node19 -->
<g id="node19" class="node"><title>Node19</title>
<polygon fill="white" stroke="#bfbfbf" points="615.626,-112.5 615.626,-131.5 710.626,-131.5 710.626,-112.5 615.626,-112.5"/>
<text text-anchor="middle" x="663.126" y="-119.5" font-family="Helvetica,sans-Serif" font-size="10.00">SceneManager.inl</text>
</g>
<!-- Node9&#45;&gt;Node19 -->
<g id="edge30" class="edge"><title>Node9&#45;&gt;Node19</title>
<path fill="none" stroke="midnightblue" d="M643.089,-168.083C646.34,-160.77 651.046,-150.181 655.08,-141.103"/>
<polygon fill="midnightblue" stroke="midnightblue" points="658.374,-142.311 659.237,-131.751 651.977,-139.468 658.374,-142.311"/>
</g>
<!-- Node12&#45;&gt;Node2 -->
<g id="edge15" class="edge"><title>Node12&#45;&gt;Node2</title>
<path fill="none" stroke="midnightblue" d="M443.56,-112.444C479.983,-103.122 538.357,-88.1828 578.156,-77.9972"/>
<polygon fill="midnightblue" stroke="midnightblue" points="579.029,-81.3866 587.849,-75.5164 577.294,-74.6051 579.029,-81.3866"/>
</g>
<!-- Node12&#45;&gt;Node3 -->
<g id="edge17" class="edge"><title>Node12&#45;&gt;Node3</title>
<path fill="none" stroke="midnightblue" d="M467.206,-114.27C550.067,-104.5 703.695,-86.3871 794.829,-75.6421"/>
<polygon fill="midnightblue" stroke="midnightblue" points="795.286,-79.1125 804.807,-74.4656 794.466,-72.1607 795.286,-79.1125"/>
</g>
<!-- Node12&#45;&gt;Node4 -->
<g id="edge16" class="edge"><title>Node12&#45;&gt;Node4</title>
<path fill="none" stroke="midnightblue" d="M357.678,-112.444C298.968,-102.865 203.898,-87.3556 141.444,-77.1667"/>
<polygon fill="midnightblue" stroke="midnightblue" points="141.762,-73.6723 131.329,-75.5164 140.635,-80.581 141.762,-73.6723"/>
</g>
<!-- Node12&#45;&gt;Node5 -->
<g id="edge18" class="edge"><title>Node12&#45;&gt;Node5</title>
<path fill="none" stroke="midnightblue" d="M407.936,-112.35C403.914,-98.2909 393.981,-70.5881 375.126,-56 324.317,-16.6874 295.673,-35.7478 228.486,-19.8252"/>
<polygon fill="midnightblue" stroke="midnightblue" points="229.298,-16.4204 218.743,-17.3366 227.566,-23.2027 229.298,-16.4204"/>
</g>
<!-- Node12&#45;&gt;Node13 -->
<g id="edge19" class="edge"><title>Node12&#45;&gt;Node13</title>
<path fill="none" stroke="midnightblue" d="M380.971,-112.444C349.613,-103.241 299.596,-88.5617 264.93,-78.3879"/>
<polygon fill="midnightblue" stroke="midnightblue" points="265.726,-74.9742 255.145,-75.5164 263.755,-81.6909 265.726,-74.9742"/>
</g>
<!-- Node14 -->
<g id="node14" class="node"><title>Node14</title>
<g id="a_node14"><a xlink:href="../../d7/dc6/Node_8hpp.html" target="_top" xlink:title="A scene graph node. ">
<polygon fill="white" stroke="black" points="423.126,-56.5 423.126,-75.5 551.126,-75.5 551.126,-56.5 423.126,-56.5"/>
<text text-anchor="middle" x="487.126" y="-63.5" font-family="Helvetica,sans-Serif" font-size="10.00">Small/Graphics/Node.hpp</text>
</a>
</g>
</g>
<!-- Node12&#45;&gt;Node14 -->
<g id="edge21" class="edge"><title>Node12&#45;&gt;Node14</title>
<path fill="none" stroke="midnightblue" d="M422.498,-112.324C434.285,-104.058 452.259,-91.4527 466.262,-81.6322"/>
<polygon fill="midnightblue" stroke="midnightblue" points="468.608,-84.2619 474.786,-75.6545 464.589,-78.5307 468.608,-84.2619"/>
</g>
<!-- Node18 -->
<g id="node18" class="node"><title>Node18</title>
<polygon fill="white" stroke="#bfbfbf" points="309.626,-56.5 309.626,-75.5 366.626,-75.5 366.626,-56.5 309.626,-56.5"/>
<text text-anchor="middle" x="338.126" y="-63.5" font-family="Helvetica,sans-Serif" font-size="10.00">Scene.inl</text>
</g>
<!-- Node12&#45;&gt;Node18 -->
<g id="edge27" class="edge"><title>Node12&#45;&gt;Node18</title>
<path fill="none" stroke="midnightblue" d="M398.558,-112.324C387.706,-104.185 371.246,-91.8395 358.243,-82.0874"/>
<polygon fill="midnightblue" stroke="midnightblue" points="360.005,-79.0339 349.905,-75.8339 355.805,-84.6339 360.005,-79.0339"/>
</g>
<!-- Node13&#45;&gt;Node5 -->
<g id="edge20" class="edge"><title>Node13&#45;&gt;Node5</title>
<path fill="none" stroke="midnightblue" d="M221.503,-56.083C217.67,-48.6913 212.102,-37.9533 207.362,-28.8111"/>
<polygon fill="midnightblue" stroke="midnightblue" points="210.374,-27.0175 202.664,-19.7511 204.16,-30.2398 210.374,-27.0175"/>
</g>
<!-- Node14&#45;&gt;Node10 -->
<g id="edge25" class="edge"><title>Node14&#45;&gt;Node10</title>
<path fill="none" stroke="midnightblue" d="M504.318,-56.324C521.477,-47.6641 548.072,-34.2424 567.874,-24.249"/>
<polygon fill="midnightblue" stroke="midnightblue" points="569.627,-27.2847 576.978,-19.6545 566.473,-21.0354 569.627,-27.2847"/>
</g>
<!-- Node14&#45;&gt;Node11 -->
<g id="edge26" class="edge"><title>Node14&#45;&gt;Node11</title>
<path fill="none" stroke="midnightblue" d="M514.38,-56.4435C543.911,-47.1723 591.144,-32.3435 623.573,-22.1622"/>
<polygon fill="midnightblue" stroke="midnightblue" points="624.633,-25.4977 633.126,-19.1629 622.537,-18.8191 624.633,-25.4977"/>
</g>
<!-- Node15 -->
<g id="node15" class="node"><title>Node15</title>
<polygon fill="white" stroke="#bfbfbf" points="237.126,-0.5 237.126,-19.5 401.126,-19.5 401.126,-0.5 237.126,-0.5"/>
<text text-anchor="middle" x="319.126" y="-7.5" font-family="Helvetica,sans-Serif" font-size="10.00">SFML/Graphics/RenderTarget.hpp</text>
</g>
<!-- Node14&#45;&gt;Node15 -->
<g id="edge22" class="edge"><title>Node14&#45;&gt;Node15</title>
<path fill="none" stroke="midnightblue" d="M460.506,-56.4435C432.121,-47.3196 386.99,-32.8133 355.374,-22.6509"/>
<polygon fill="midnightblue" stroke="midnightblue" points="356.213,-19.2445 345.622,-19.5164 354.071,-25.9087 356.213,-19.2445"/>
</g>
<!-- Node14&#45;&gt;Node16 -->
<g id="edge23" class="edge"><title>Node14&#45;&gt;Node16</title>
<path fill="none" stroke="midnightblue" d="M533.236,-56.4435C584.533,-46.9246 667.4,-31.5472 722.317,-21.3563"/>
<polygon fill="midnightblue" stroke="midnightblue" points="723.039,-24.7823 732.232,-19.5164 721.762,-17.8998 723.039,-24.7823"/>
</g>
<!-- Node17 -->
<g id="node17" class="node"><title>Node17</title>
<polygon fill="white" stroke="#bfbfbf" points="419.626,-0.5 419.626,-19.5 554.626,-19.5 554.626,-0.5 419.626,-0.5"/>
<text text-anchor="middle" x="487.126" y="-7.5" font-family="Helvetica,sans-Serif" font-size="10.00">SFML/System/Vector2.hpp</text>
</g>
<!-- Node14&#45;&gt;Node17 -->
<g id="edge24" class="edge"><title>Node14&#45;&gt;Node17</title>
<path fill="none" stroke="midnightblue" d="M487.126,-56.083C487.126,-49.0059 487.126,-38.8611 487.126,-29.9865"/>
<polygon fill="midnightblue" stroke="midnightblue" points="490.626,-29.751 487.126,-19.7511 483.626,-29.7511 490.626,-29.751"/>
</g>
<!-- Node21 -->
<g id="node21" class="node"><title>Node21</title>
<polygon fill="white" stroke="#bfbfbf" points="1345.13,-112.5 1345.13,-131.5 1383.13,-131.5 1383.13,-112.5 1345.13,-112.5"/>
<text text-anchor="middle" x="1364.13" y="-119.5" font-family="Helvetica,sans-Serif" font-size="10.00">array</text>
</g>
<!-- Node20&#45;&gt;Node21 -->
<g id="edge32" class="edge"><title>Node20&#45;&gt;Node21</title>
<path fill="none" stroke="midnightblue" d="M1414.49,-168.324C1405.62,-160.341 1392.25,-148.313 1381.52,-138.653"/>
<polygon fill="midnightblue" stroke="midnightblue" points="1383.72,-135.922 1373.94,-131.834 1379.03,-141.125 1383.72,-135.922"/>
</g>
<!-- Node22 -->
<g id="node22" class="node"><title>Node22</title>
<polygon fill="white" stroke="#bfbfbf" points="1401.13,-112.5 1401.13,-131.5 1447.13,-131.5 1447.13,-112.5 1401.13,-112.5"/>
<text text-anchor="middle" x="1424.13" y="-119.5" font-family="Helvetica,sans-Serif" font-size="10.00">chrono</text>
</g>
<!-- Node20&#45;&gt;Node22 -->
<g id="edge33" class="edge"><title>Node20&#45;&gt;Node22</title>
<path fill="none" stroke="midnightblue" d="M1424.13,-168.083C1424.13,-161.006 1424.13,-150.861 1424.13,-141.986"/>
<polygon fill="midnightblue" stroke="midnightblue" points="1427.63,-141.751 1424.13,-131.751 1420.63,-141.751 1427.63,-141.751"/>
</g>
<!-- Node23 -->
<g id="node23" class="node"><title>Node23</title>
<polygon fill="white" stroke="#bfbfbf" points="1465.13,-112.5 1465.13,-131.5 1609.13,-131.5 1609.13,-112.5 1465.13,-112.5"/>
<text text-anchor="middle" x="1537.13" y="-119.5" font-family="Helvetica,sans-Serif" font-size="10.00">imgui_widget_flamegraph.hpp</text>
</g>
<!-- Node20&#45;&gt;Node23 -->
<g id="edge34" class="edge"><title>Node20&#45;&gt;Node23</title>
<path fill="none" stroke="midnightblue" d="M1442.03,-168.444C1460.38,-159.675 1489.13,-145.935 1510.22,-135.858"/>
<polygon fill="midnightblue" stroke="midnightblue" points="1511.79,-138.986 1519.3,-131.516 1508.77,-132.67 1511.79,-138.986"/>
</g>
<!-- Node25&#45;&gt;Node3 -->
<g id="edge39" class="edge"><title>Node25&#45;&gt;Node3</title>
<path fill="none" stroke="midnightblue" d="M984.412,-168.367C981.324,-154.824 973.652,-128.435 958.126,-112 944.057,-97.1064 923.989,-86.4145 906.372,-79.2003"/>
<polygon fill="midnightblue" stroke="midnightblue" points="907.481,-75.8765 896.891,-75.5456 904.963,-82.4081 907.481,-75.8765"/>
</g>
<!-- Node25&#45;&gt;Node24 -->
<g id="edge38" class="edge"><title>Node25&#45;&gt;Node24</title>
<path fill="none" stroke="midnightblue" d="M974.719,-168.324C964.018,-160.185 947.786,-147.839 934.964,-138.087"/>
<polygon fill="midnightblue" stroke="midnightblue" points="936.82,-135.102 926.741,-131.834 932.582,-140.673 936.82,-135.102"/>
</g>
<!-- Node26 -->
<g id="node26" class="node"><title>Node26</title>
<polygon fill="white" stroke="#bfbfbf" points="1005.13,-112.5 1005.13,-131.5 1127.13,-131.5 1127.13,-112.5 1005.13,-112.5"/>
<text text-anchor="middle" x="1066.13" y="-119.5" font-family="Helvetica,sans-Serif" font-size="10.00">SFML/System/Time.hpp</text>
</g>
<!-- Node25&#45;&gt;Node26 -->
<g id="edge40" class="edge"><title>Node25&#45;&gt;Node26</title>
<path fill="none" stroke="midnightblue" d="M998.98,-168.324C1011.34,-159.979 1030.26,-147.212 1044.86,-137.352"/>
<polygon fill="midnightblue" stroke="midnightblue" points="1046.97,-140.15 1053.3,-131.655 1043.06,-134.348 1046.97,-140.15"/>
</g>
<!-- Node27 -->
<g id="node27" class="node"><title>Node27</title>
<polygon fill="white" stroke="#bfbfbf" points="1145.63,-112.5 1145.63,-131.5 1258.63,-131.5 1258.63,-112.5 1145.63,-112.5"/>
<text text-anchor="middle" x="1202.13" y="-119.5" font-family="Helvetica,sans-Serif" font-size="10.00">SFML/System/Utf.hpp</text>
</g>
<!-- Node25&#45;&gt;Node27 -->
<g id="edge41" class="edge"><title>Node25&#45;&gt;Node27</title>
<path fill="none" stroke="midnightblue" d="M1020.35,-168.444C1057.64,-159.122 1117.4,-144.183 1158.14,-133.997"/>
<polygon fill="midnightblue" stroke="midnightblue" points="1159.21,-137.337 1168.06,-131.516 1157.51,-130.546 1159.21,-137.337"/>
</g>
</g>
</svg>
