<?xml version="1.0" encoding="UTF-8" standalone="no"?>
<!DOCTYPE svg PUBLIC "-//W3C//DTD SVG 1.1//EN"
 "http://www.w3.org/Graphics/SVG/1.1/DTD/svg11.dtd">
<!-- Generated by graphviz version 2.38.0 (20140413.2041)
 -->
<!-- Title: sgl::GameObjects::TriggerManager Pages: 1 -->
<svg width="170pt" height="174pt"
 viewBox="0.00 0.00 170.00 174.00" xmlns="http://www.w3.org/2000/svg" xmlns:xlink="http://www.w3.org/1999/xlink">
<g id="graph0" class="graph" transform="scale(1 1) rotate(0) translate(4 170)">
<title>sgl::GameObjects::TriggerManager</title>
<polygon fill="white" stroke="none" points="-4,4 -4,-170 166,-170 166,4 -4,4"/>
<!-- Node1 -->
<g id="node1" class="node"><title>Node1</title>
<polygon fill="#bfbfbf" stroke="black" points="15.5,-0.5 15.5,-30.5 146.5,-30.5 146.5,-0.5 15.5,-0.5"/>
<text text-anchor="start" x="23.5" y="-18.5" font-family="Helvetica,sans-Serif" font-size="10.00">sgl::GameObjects::Trigger</text>
<text text-anchor="middle" x="81" y="-7.5" font-family="Helvetica,sans-Serif" font-size="10.00">Manager</text>
</g>
<!-- Node2 -->
<g id="node2" class="node"><title>Node2</title>
<g id="a_node2"><a xlink:href="../../de/dbb/classsgl_1_1GameObjects_1_1Manager.html" target="_top" xlink:title="sgl::GameObjects::Manager\l\&lt; Trigger \&gt;">
<polygon fill="white" stroke="black" points="11.5,-68.5 11.5,-98.5 150.5,-98.5 150.5,-68.5 11.5,-68.5"/>
<text text-anchor="start" x="19.5" y="-86.5" font-family="Helvetica,sans-Serif" font-size="10.00">sgl::GameObjects::Manager</text>
<text text-anchor="middle" x="81" y="-75.5" font-family="Helvetica,sans-Serif" font-size="10.00">&lt; Trigger &gt;</text>
</a>
</g>
</g>
<!-- Node2&#45;&gt;Node1 -->
<g id="edge1" class="edge"><title>Node2&#45;&gt;Node1</title>
<path fill="none" stroke="midnightblue" d="M81,-58.0322C81,-48.8606 81,-38.7449 81,-30.7931"/>
<polygon fill="midnightblue" stroke="midnightblue" points="77.5001,-58.1789 81,-68.179 84.5001,-58.179 77.5001,-58.1789"/>
</g>
<!-- Node3 -->
<g id="node3" class="node"><title>Node3</title>
<g id="a_node3"><a xlink:href="../../de/dbb/classsgl_1_1GameObjects_1_1Manager.html" target="_top" xlink:title="Templated singleton to hold ressources throughout the lifetime of the program. ">
<polygon fill="white" stroke="black" points="0,-146.5 0,-165.5 162,-165.5 162,-146.5 0,-146.5"/>
<text text-anchor="middle" x="81" y="-153.5" font-family="Helvetica,sans-Serif" font-size="10.00">sgl::GameObjects::Manager&lt; T &gt;</text>
</a>
</g>
</g>
<!-- Node3&#45;&gt;Node2 -->
<g id="edge2" class="edge"><title>Node3&#45;&gt;Node2</title>
<path fill="none" stroke="orange" stroke-dasharray="5,2" d="M81,-136.236C81,-124.408 81,-109.383 81,-98.5762"/>
<polygon fill="orange" stroke="orange" points="77.5001,-136.355 81,-146.355 84.5001,-136.355 77.5001,-136.355"/>
<text text-anchor="middle" x="106.5" y="-120" font-family="Helvetica,sans-Serif" font-size="10.00"> &lt; Trigger &gt;</text>
</g>
</g>
</svg>
