<?xml version="1.0" encoding="UTF-8" standalone="no"?>
<!DOCTYPE svg PUBLIC "-//W3C//DTD SVG 1.1//EN"
 "http://www.w3.org/Graphics/SVG/1.1/DTD/svg11.dtd">
<!-- Generated by graphviz version 2.38.0 (20140413.2041)
 -->
<!-- Title: sgl::Graphics::Node Pages: 1 -->
<svg width="425pt" height="218pt"
 viewBox="0.00 0.00 425.00 218.00" xmlns="http://www.w3.org/2000/svg" xmlns:xlink="http://www.w3.org/1999/xlink">
<g id="graph0" class="graph" transform="scale(1 1) rotate(0) translate(4 214)">
<title>sgl::Graphics::Node</title>
<polygon fill="white" stroke="none" points="-4,4 -4,-214 421,-214 421,4 -4,4"/>
<!-- Node1 -->
<g id="node1" class="node"><title>Node1</title>
<polygon fill="#bfbfbf" stroke="black" points="0,-152.5 0,-171.5 103,-171.5 103,-152.5 0,-152.5"/>
<text text-anchor="middle" x="51.5" y="-159.5" font-family="Helvetica,sans-Serif" font-size="10.00">sgl::Graphics::Node</text>
</g>
<!-- Node2 -->
<g id="node2" class="node"><title>Node2</title>
<g id="a_node2"><a xlink:href="../../d0/d68/classsgl_1_1GameObjects_1_1Actor.html" target="_top" xlink:title="A class to represent updatable, renderable and event receiving entities. ">
<polygon fill="white" stroke="black" points="139,-190.5 139,-209.5 264,-209.5 264,-190.5 139,-190.5"/>
<text text-anchor="middle" x="201.5" y="-197.5" font-family="Helvetica,sans-Serif" font-size="10.00">sgl::GameObjects::Actor</text>
</a>
</g>
</g>
<!-- Node1&#45;&gt;Node2 -->
<g id="edge1" class="edge"><title>Node1&#45;&gt;Node2</title>
<path fill="none" stroke="midnightblue" d="M99.6735,-174.112C120.286,-179.404 144.109,-185.521 163.422,-190.48"/>
<polygon fill="midnightblue" stroke="midnightblue" points="100.403,-170.686 89.8466,-171.589 98.662,-177.466 100.403,-170.686"/>
</g>
<!-- Node3 -->
<g id="node3" class="node"><title>Node3</title>
<g id="a_node3"><a xlink:href="../../d8/dcf/classsgl_1_1Scene.html" target="_top" xlink:title="Base class which every user scene must derive from. ">
<polygon fill="white" stroke="black" points="170,-152.5 170,-171.5 233,-171.5 233,-152.5 170,-152.5"/>
<text text-anchor="middle" x="201.5" y="-159.5" font-family="Helvetica,sans-Serif" font-size="10.00">sgl::Scene</text>
</a>
</g>
</g>
<!-- Node1&#45;&gt;Node3 -->
<g id="edge2" class="edge"><title>Node1&#45;&gt;Node3</title>
<path fill="none" stroke="midnightblue" d="M113.04,-162C132.484,-162 153.21,-162 169.604,-162"/>
<polygon fill="midnightblue" stroke="midnightblue" points="113.019,-158.5 103.019,-162 113.019,-165.5 113.019,-158.5"/>
</g>
<!-- Node6 -->
<g id="node6" class="node"><title>Node6</title>
<g id="a_node6"><a xlink:href="../../d3/dd0/classsgl_1_1Widgets_1_1Base.html" target="_top" xlink:title="Base class for all widgets. ">
<polygon fill="white" stroke="black" points="151.5,-76.5 151.5,-95.5 251.5,-95.5 251.5,-76.5 151.5,-76.5"/>
<text text-anchor="middle" x="201.5" y="-83.5" font-family="Helvetica,sans-Serif" font-size="10.00">sgl::Widgets::Base</text>
</a>
</g>
</g>
<!-- Node1&#45;&gt;Node6 -->
<g id="edge5" class="edge"><title>Node1&#45;&gt;Node6</title>
<path fill="none" stroke="midnightblue" d="M80.2626,-147.744C109.981,-132.483 156.301,-108.697 181.908,-95.5473"/>
<polygon fill="midnightblue" stroke="midnightblue" points="78.5411,-144.693 71.2443,-152.375 81.7388,-150.92 78.5411,-144.693"/>
</g>
<!-- Node4 -->
<g id="node4" class="node"><title>Node4</title>
<g id="a_node4"><a xlink:href="../../dc/d24/classsgl_1_1Scenes_1_1ArkScene.html" target="_top" xlink:title="Define a scene scriptable through ArkScript. ">
<polygon fill="white" stroke="black" points="300,-190.5 300,-209.5 417,-209.5 417,-190.5 300,-190.5"/>
<text text-anchor="middle" x="358.5" y="-197.5" font-family="Helvetica,sans-Serif" font-size="10.00">sgl::Scenes::ArkScene</text>
</a>
</g>
</g>
<!-- Node3&#45;&gt;Node4 -->
<g id="edge3" class="edge"><title>Node3&#45;&gt;Node4</title>
<path fill="none" stroke="midnightblue" d="M243.069,-171.946C266.425,-177.672 295.622,-184.83 318.678,-190.482"/>
<polygon fill="midnightblue" stroke="midnightblue" points="243.669,-168.489 233.123,-169.508 242.002,-175.288 243.669,-168.489"/>
</g>
<!-- Node5 -->
<g id="node5" class="node"><title>Node5</title>
<g id="a_node5"><a xlink:href="../../d7/d29/classsgl_1_1Scenes_1_1Zone.html" target="_top" xlink:title="A scene handling zones and transitions on a tilemap. ">
<polygon fill="white" stroke="black" points="311,-152.5 311,-171.5 406,-171.5 406,-152.5 311,-152.5"/>
<text text-anchor="middle" x="358.5" y="-159.5" font-family="Helvetica,sans-Serif" font-size="10.00">sgl::Scenes::Zone</text>
</a>
</g>
</g>
<!-- Node3&#45;&gt;Node5 -->
<g id="edge4" class="edge"><title>Node3&#45;&gt;Node5</title>
<path fill="none" stroke="midnightblue" d="M243.197,-162C263.925,-162 289.228,-162 310.753,-162"/>
<polygon fill="midnightblue" stroke="midnightblue" points="243.123,-158.5 233.123,-162 243.123,-165.5 243.123,-158.5"/>
</g>
<!-- Node7 -->
<g id="node7" class="node"><title>Node7</title>
<g id="a_node7"><a xlink:href="../../dd/dcd/classsgl_1_1Widgets_1_1Button.html" target="_top" xlink:title="Basic button widget. ">
<polygon fill="white" stroke="black" points="305.5,-114.5 305.5,-133.5 411.5,-133.5 411.5,-114.5 305.5,-114.5"/>
<text text-anchor="middle" x="358.5" y="-121.5" font-family="Helvetica,sans-Serif" font-size="10.00">sgl::Widgets::Button</text>
</a>
</g>
</g>
<!-- Node6&#45;&gt;Node7 -->
<g id="edge6" class="edge"><title>Node6&#45;&gt;Node7</title>
<path fill="none" stroke="midnightblue" d="M251.611,-98.04C273.265,-103.349 298.35,-109.499 318.668,-114.48"/>
<polygon fill="midnightblue" stroke="midnightblue" points="252.159,-94.5708 241.613,-95.589 250.492,-101.37 252.159,-94.5708"/>
</g>
<!-- Node8 -->
<g id="node8" class="node"><title>Node8</title>
<g id="a_node8"><a xlink:href="../../d5/dd4/classsgl_1_1Widgets_1_1Image.html" target="_top" xlink:title="Basic image widget. ">
<polygon fill="white" stroke="black" points="306.5,-76.5 306.5,-95.5 410.5,-95.5 410.5,-76.5 306.5,-76.5"/>
<text text-anchor="middle" x="358.5" y="-83.5" font-family="Helvetica,sans-Serif" font-size="10.00">sgl::Widgets::Image</text>
</a>
</g>
</g>
<!-- Node6&#45;&gt;Node8 -->
<g id="edge7" class="edge"><title>Node6&#45;&gt;Node8</title>
<path fill="none" stroke="midnightblue" d="M261.579,-86C276.335,-86 292.036,-86 306.371,-86"/>
<polygon fill="midnightblue" stroke="midnightblue" points="261.543,-82.5001 251.543,-86 261.543,-89.5001 261.543,-82.5001"/>
</g>
<!-- Node9 -->
<g id="node9" class="node"><title>Node9</title>
<g id="a_node9"><a xlink:href="../../d0/d0f/classsgl_1_1Widgets_1_1Label.html" target="_top" xlink:title="Basic label widget, doesn&#39;t listen to events by default. ">
<polygon fill="white" stroke="black" points="308,-38.5 308,-57.5 409,-57.5 409,-38.5 308,-38.5"/>
<text text-anchor="middle" x="358.5" y="-45.5" font-family="Helvetica,sans-Serif" font-size="10.00">sgl::Widgets::Label</text>
</a>
</g>
</g>
<!-- Node6&#45;&gt;Node9 -->
<g id="edge8" class="edge"><title>Node6&#45;&gt;Node9</title>
<path fill="none" stroke="midnightblue" d="M251.611,-73.96C273.265,-68.6512 298.35,-62.5012 318.668,-57.5201"/>
<polygon fill="midnightblue" stroke="midnightblue" points="250.492,-70.6305 241.613,-76.411 252.159,-77.4292 250.492,-70.6305"/>
</g>
<!-- Node10 -->
<g id="node10" class="node"><title>Node10</title>
<g id="a_node10"><a xlink:href="../../df/de0/classsgl_1_1Widgets_1_1Layout.html" target="_top" xlink:title="A collection of widgets working together, graphically united. ">
<polygon fill="white" stroke="black" points="305,-0.5 305,-19.5 412,-19.5 412,-0.5 305,-0.5"/>
<text text-anchor="middle" x="358.5" y="-7.5" font-family="Helvetica,sans-Serif" font-size="10.00">sgl::Widgets::Layout</text>
</a>
</g>
</g>
<!-- Node6&#45;&gt;Node10 -->
<g id="edge9" class="edge"><title>Node6&#45;&gt;Node10</title>
<path fill="none" stroke="midnightblue" d="M225.27,-70.8379C244.578,-58.4396 273.311,-41.0497 300,-29 307.762,-25.4958 316.368,-22.307 324.508,-19.5847"/>
<polygon fill="midnightblue" stroke="midnightblue" points="223.327,-67.9264 216.852,-76.3118 227.143,-73.795 223.327,-67.9264"/>
</g>
</g>
</svg>
