<?xml version="1.0" encoding="UTF-8" standalone="no"?>
<!DOCTYPE svg PUBLIC "-//W3C//DTD SVG 1.1//EN"
 "http://www.w3.org/Graphics/SVG/1.1/DTD/svg11.dtd">
<!-- Generated by graphviz version 2.49.0 (20210828.1703)
 -->
<!-- Title: sgl::Graphics::Node Pages: 1 -->
<svg width="425pt" height="256pt"
 viewBox="0.00 0.00 425.00 256.00" xmlns="http://www.w3.org/2000/svg" xmlns:xlink="http://www.w3.org/1999/xlink">
<g id="graph0" class="graph" transform="scale(1 1) rotate(0) translate(4 252)">
<title>sgl::Graphics::Node</title>
<polygon fill="white" stroke="transparent" points="-4,4 -4,-252 421,-252 421,4 -4,4"/>
<!-- Node1 -->
<g id="node1" class="node">
<title>Node1</title>
<g id="a_node1"><a xlink:title="Abstract base class for a scene graph node.">
<polygon fill="#bfbfbf" stroke="black" points="0,-171.5 0,-190.5 103,-190.5 103,-171.5 0,-171.5"/>
<text text-anchor="middle" x="51.5" y="-178.5" font-family="Helvetica,sans-Serif" font-size="10.00">sgl::Graphics::Node</text>
</a>
</g>
</g>
<!-- Node2 -->
<g id="node2" class="node">
<title>Node2</title>
<g id="a_node2"><a xlink:href="../../d0/d68/classsgl_1_1GameObjects_1_1Actor.html" target="_top" xlink:title="A class to represent updatable, renderable and event receiving entities.">
<polygon fill="white" stroke="black" points="139,-228.5 139,-247.5 264,-247.5 264,-228.5 139,-228.5"/>
<text text-anchor="middle" x="201.5" y="-235.5" font-family="Helvetica,sans-Serif" font-size="10.00">sgl::GameObjects::Actor</text>
</a>
</g>
</g>
<!-- Node1&#45;&gt;Node2 -->
<g id="edge1" class="edge">
<title>Node1&#45;&gt;Node2</title>
<path fill="none" stroke="midnightblue" d="M81.69,-194.82C98.3,-202.43 119.6,-211.77 139,-219 148.01,-222.36 157.9,-225.6 167.07,-228.43"/>
<polygon fill="midnightblue" stroke="midnightblue" points="83.05,-191.59 72.51,-190.57 80.11,-197.94 83.05,-191.59"/>
</g>
<!-- Node3 -->
<g id="node3" class="node">
<title>Node3</title>
<g id="a_node3"><a xlink:href="../../d1/dbf/classsgl_1_1Graphics_1_1Sprite.html" target="_top" xlink:title=" ">
<polygon fill="white" stroke="black" points="148.5,-190.5 148.5,-209.5 254.5,-209.5 254.5,-190.5 148.5,-190.5"/>
<text text-anchor="middle" x="201.5" y="-197.5" font-family="Helvetica,sans-Serif" font-size="10.00">sgl::Graphics::Sprite</text>
</a>
</g>
</g>
<!-- Node1&#45;&gt;Node3 -->
<g id="edge2" class="edge">
<title>Node1&#45;&gt;Node3</title>
<path fill="none" stroke="#8b1a1a" d="M113.16,-188.79C124.87,-190.29 137.04,-191.85 148.45,-193.32"/>
<polygon fill="#8b1a1a" stroke="#8b1a1a" points="113.38,-185.29 103.02,-187.49 112.49,-192.23 113.38,-185.29"/>
</g>
<!-- Node4 -->
<g id="node4" class="node">
<title>Node4</title>
<g id="a_node4"><a xlink:href="../../d8/dcf/classsgl_1_1Scene.html" target="_top" xlink:title="Base class which every user scene must derive from.">
<polygon fill="white" stroke="black" points="170,-152.5 170,-171.5 233,-171.5 233,-152.5 170,-152.5"/>
<text text-anchor="middle" x="201.5" y="-159.5" font-family="Helvetica,sans-Serif" font-size="10.00">sgl::Scene</text>
</a>
</g>
</g>
<!-- Node1&#45;&gt;Node4 -->
<g id="edge3" class="edge">
<title>Node1&#45;&gt;Node4</title>
<path fill="none" stroke="midnightblue" d="M113.04,-173.23C132.48,-170.73 153.21,-168.07 169.6,-165.97"/>
<polygon fill="midnightblue" stroke="midnightblue" points="112.49,-169.77 103.02,-174.51 113.38,-176.71 112.49,-169.77"/>
</g>
<!-- Node7 -->
<g id="node7" class="node">
<title>Node7</title>
<g id="a_node7"><a xlink:href="../../d3/dd0/classsgl_1_1Widgets_1_1Base.html" target="_top" xlink:title="Base class for all widgets.">
<polygon fill="white" stroke="black" points="151.5,-76.5 151.5,-95.5 251.5,-95.5 251.5,-76.5 151.5,-76.5"/>
<text text-anchor="middle" x="201.5" y="-83.5" font-family="Helvetica,sans-Serif" font-size="10.00">sgl::Widgets::Base</text>
</a>
</g>
</g>
<!-- Node1&#45;&gt;Node7 -->
<g id="edge6" class="edge">
<title>Node1&#45;&gt;Node7</title>
<path fill="none" stroke="midnightblue" d="M76.29,-165.73C107.06,-145.98 159.72,-112.18 185.45,-95.66"/>
<polygon fill="midnightblue" stroke="midnightblue" points="74.03,-163.02 67.51,-171.37 77.81,-168.91 74.03,-163.02"/>
</g>
<!-- Node5 -->
<g id="node5" class="node">
<title>Node5</title>
<g id="a_node5"><a xlink:href="../../dc/d24/classsgl_1_1Scenes_1_1ArkScene.html" target="_top" xlink:title="Define a scene scriptable through ArkScript.">
<polygon fill="white" stroke="black" points="300,-190.5 300,-209.5 417,-209.5 417,-190.5 300,-190.5"/>
<text text-anchor="middle" x="358.5" y="-197.5" font-family="Helvetica,sans-Serif" font-size="10.00">sgl::Scenes::ArkScene</text>
</a>
</g>
</g>
<!-- Node4&#45;&gt;Node5 -->
<g id="edge4" class="edge">
<title>Node4&#45;&gt;Node5</title>
<path fill="none" stroke="midnightblue" d="M243.07,-171.95C266.43,-177.67 295.62,-184.83 318.68,-190.48"/>
<polygon fill="midnightblue" stroke="midnightblue" points="243.67,-168.49 233.12,-169.51 242,-175.29 243.67,-168.49"/>
</g>
<!-- Node6 -->
<g id="node6" class="node">
<title>Node6</title>
<g id="a_node6"><a xlink:href="../../d7/d29/classsgl_1_1Scenes_1_1Zone.html" target="_top" xlink:title="A scene handling zones and transitions on a tilemap.">
<polygon fill="white" stroke="black" points="311,-152.5 311,-171.5 406,-171.5 406,-152.5 311,-152.5"/>
<text text-anchor="middle" x="358.5" y="-159.5" font-family="Helvetica,sans-Serif" font-size="10.00">sgl::Scenes::Zone</text>
</a>
</g>
</g>
<!-- Node4&#45;&gt;Node6 -->
<g id="edge5" class="edge">
<title>Node4&#45;&gt;Node6</title>
<path fill="none" stroke="midnightblue" d="M243.2,-162C263.93,-162 289.23,-162 310.75,-162"/>
<polygon fill="midnightblue" stroke="midnightblue" points="243.12,-158.5 233.12,-162 243.12,-165.5 243.12,-158.5"/>
</g>
<!-- Node8 -->
<g id="node8" class="node">
<title>Node8</title>
<g id="a_node8"><a xlink:href="../../dd/dcd/classsgl_1_1Widgets_1_1Button.html" target="_top" xlink:title="Basic button widget.">
<polygon fill="white" stroke="black" points="305.5,-114.5 305.5,-133.5 411.5,-133.5 411.5,-114.5 305.5,-114.5"/>
<text text-anchor="middle" x="358.5" y="-121.5" font-family="Helvetica,sans-Serif" font-size="10.00">sgl::Widgets::Button</text>
</a>
</g>
</g>
<!-- Node7&#45;&gt;Node8 -->
<g id="edge7" class="edge">
<title>Node7&#45;&gt;Node8</title>
<path fill="none" stroke="midnightblue" d="M251.61,-98.04C273.26,-103.35 298.35,-109.5 318.67,-114.48"/>
<polygon fill="midnightblue" stroke="midnightblue" points="252.16,-94.57 241.61,-95.59 250.49,-101.37 252.16,-94.57"/>
</g>
<!-- Node9 -->
<g id="node9" class="node">
<title>Node9</title>
<g id="a_node9"><a xlink:href="../../d5/dd4/classsgl_1_1Widgets_1_1Image.html" target="_top" xlink:title="Basic image widget.">
<polygon fill="white" stroke="black" points="306.5,-76.5 306.5,-95.5 410.5,-95.5 410.5,-76.5 306.5,-76.5"/>
<text text-anchor="middle" x="358.5" y="-83.5" font-family="Helvetica,sans-Serif" font-size="10.00">sgl::Widgets::Image</text>
</a>
</g>
</g>
<!-- Node7&#45;&gt;Node9 -->
<g id="edge8" class="edge">
<title>Node7&#45;&gt;Node9</title>
<path fill="none" stroke="midnightblue" d="M261.58,-86C276.33,-86 292.04,-86 306.37,-86"/>
<polygon fill="midnightblue" stroke="midnightblue" points="261.54,-82.5 251.54,-86 261.54,-89.5 261.54,-82.5"/>
</g>
<!-- Node10 -->
<g id="node10" class="node">
<title>Node10</title>
<g id="a_node10"><a xlink:href="../../d0/d0f/classsgl_1_1Widgets_1_1Label.html" target="_top" xlink:title="Basic label widget, doesn&#39;t listen to events by default.">
<polygon fill="white" stroke="black" points="308,-38.5 308,-57.5 409,-57.5 409,-38.5 308,-38.5"/>
<text text-anchor="middle" x="358.5" y="-45.5" font-family="Helvetica,sans-Serif" font-size="10.00">sgl::Widgets::Label</text>
</a>
</g>
</g>
<!-- Node7&#45;&gt;Node10 -->
<g id="edge9" class="edge">
<title>Node7&#45;&gt;Node10</title>
<path fill="none" stroke="midnightblue" d="M251.61,-73.96C273.26,-68.65 298.35,-62.5 318.67,-57.52"/>
<polygon fill="midnightblue" stroke="midnightblue" points="250.49,-70.63 241.61,-76.41 252.16,-77.43 250.49,-70.63"/>
</g>
<!-- Node11 -->
<g id="node11" class="node">
<title>Node11</title>
<g id="a_node11"><a xlink:href="../../df/de0/classsgl_1_1Widgets_1_1Layout.html" target="_top" xlink:title="A collection of widgets working together, graphically united.">
<polygon fill="white" stroke="black" points="305,-0.5 305,-19.5 412,-19.5 412,-0.5 305,-0.5"/>
<text text-anchor="middle" x="358.5" y="-7.5" font-family="Helvetica,sans-Serif" font-size="10.00">sgl::Widgets::Layout</text>
</a>
</g>
</g>
<!-- Node7&#45;&gt;Node11 -->
<g id="edge10" class="edge">
<title>Node7&#45;&gt;Node11</title>
<path fill="none" stroke="midnightblue" d="M225.27,-70.84C244.58,-58.44 273.31,-41.05 300,-29 307.76,-25.5 316.37,-22.31 324.51,-19.58"/>
<polygon fill="midnightblue" stroke="midnightblue" points="223.33,-67.93 216.85,-76.31 227.14,-73.79 223.33,-67.93"/>
</g>
</g>
</svg>
