<?xml version="1.0" encoding="UTF-8" standalone="no"?>
<!DOCTYPE svg PUBLIC "-//W3C//DTD SVG 1.1//EN"
 "http://www.w3.org/Graphics/SVG/1.1/DTD/svg11.dtd">
<!-- Generated by graphviz version 2.49.0 (20210828.1703)
 -->
<!-- Title: sgl::Widgets::Base Pages: 1 -->
<svg width="172pt" height="85pt"
 viewBox="0.00 0.00 171.50 85.00" xmlns="http://www.w3.org/2000/svg" xmlns:xlink="http://www.w3.org/1999/xlink">
<g id="graph0" class="graph" transform="scale(1 1) rotate(0) translate(4 81)">
<title>sgl::Widgets::Base</title>
<polygon fill="white" stroke="transparent" points="-4,4 -4,-81 167.5,-81 167.5,4 -4,4"/>
<!-- Node1 -->
<g id="node1" class="node">
<title>Node1</title>
<g id="a_node1"><a xlink:title="Base class for all widgets.">
<polygon fill="#bfbfbf" stroke="black" points="1.5,-0.5 1.5,-19.5 101.5,-19.5 101.5,-0.5 1.5,-0.5"/>
<text text-anchor="middle" x="51.5" y="-7.5" font-family="Helvetica,sans-Serif" font-size="10.00">sgl::Widgets::Base</text>
</a>
</g>
</g>
<!-- Node1&#45;&gt;Node1 -->
<g id="edge2" class="edge">
<title>Node1&#45;&gt;Node1</title>
<path fill="none" stroke="#9a32cd" stroke-dasharray="5,2" d="M111.85,-13.98C116.58,-13.1 119.5,-11.78 119.5,-10 119.5,-7.16 112.02,-5.47 101.61,-4.93"/>
<polygon fill="#9a32cd" stroke="#9a32cd" points="111.19,-10.53 101.61,-15.07 111.93,-17.49 111.19,-10.53"/>
<text text-anchor="middle" x="141.5" y="-7.5" font-family="Helvetica,sans-Serif" font-size="10.00"> m_parent</text>
</g>
<!-- Node2 -->
<g id="node2" class="node">
<title>Node2</title>
<g id="a_node2"><a xlink:href="../../dc/dee/classsgl_1_1Graphics_1_1Node.html" target="_top" xlink:title="Abstract base class for a scene graph node.">
<polygon fill="white" stroke="black" points="0,-57.5 0,-76.5 103,-76.5 103,-57.5 0,-57.5"/>
<text text-anchor="middle" x="51.5" y="-64.5" font-family="Helvetica,sans-Serif" font-size="10.00">sgl::Graphics::Node</text>
</a>
</g>
</g>
<!-- Node2&#45;&gt;Node1 -->
<g id="edge1" class="edge">
<title>Node2&#45;&gt;Node1</title>
<path fill="none" stroke="midnightblue" d="M51.5,-47.12C51.5,-37.82 51.5,-27.06 51.5,-19.71"/>
<polygon fill="midnightblue" stroke="midnightblue" points="48,-47.41 51.5,-57.41 55,-47.41 48,-47.41"/>
</g>
</g>
</svg>
