<?xml version="1.0" encoding="UTF-8" standalone="no"?>
<!DOCTYPE svg PUBLIC "-//W3C//DTD SVG 1.1//EN"
 "http://www.w3.org/Graphics/SVG/1.1/DTD/svg11.dtd">
<!-- Generated by graphviz version 2.38.0 (20140413.2041)
 -->
<!-- Title: sgl::Widgets::Base Pages: 1 -->
<svg width="193pt" height="308pt"
 viewBox="0.00 0.00 193.00 308.00" xmlns="http://www.w3.org/2000/svg" xmlns:xlink="http://www.w3.org/1999/xlink">
<g id="graph0" class="graph" transform="scale(1 1) rotate(0) translate(4 304)">
<title>sgl::Widgets::Base</title>
<polygon fill="white" stroke="none" points="-4,4 -4,-304 189,-304 189,4 -4,4"/>
<!-- Node1 -->
<g id="node1" class="node"><title>Node1</title>
<polygon fill="#bfbfbf" stroke="black" points="23,-0.5 23,-19.5 123,-19.5 123,-0.5 23,-0.5"/>
<text text-anchor="middle" x="73" y="-7.5" font-family="Helvetica,sans-Serif" font-size="10.00">sgl::Widgets::Base</text>
</g>
<!-- Node1&#45;&gt;Node1 -->
<g id="edge5" class="edge"><title>Node1&#45;&gt;Node1</title>
<path fill="none" stroke="#9a32cd" stroke-dasharray="5,2" d="M133.345,-13.9782C138.077,-13.1034 141,-11.7773 141,-10 141,-7.15625 133.518,-5.46777 123.114,-4.93457"/>
<polygon fill="#9a32cd" stroke="#9a32cd" points="132.688,-10.5283 123.114,-15.0654 133.428,-17.4891 132.688,-10.5283"/>
<text text-anchor="middle" x="163" y="-7.5" font-family="Helvetica,sans-Serif" font-size="10.00"> m_parent</text>
</g>
<!-- Node2 -->
<g id="node2" class="node"><title>Node2</title>
<g id="a_node2"><a xlink:href="../../dc/dee/classsgl_1_1Graphics_1_1Node.html" target="_top" xlink:title="Abstract base class for a scene graph node. ">
<polygon fill="white" stroke="black" points="21.5,-57.5 21.5,-76.5 124.5,-76.5 124.5,-57.5 21.5,-57.5"/>
<text text-anchor="middle" x="73" y="-64.5" font-family="Helvetica,sans-Serif" font-size="10.00">sgl::Graphics::Node</text>
</a>
</g>
</g>
<!-- Node2&#45;&gt;Node1 -->
<g id="edge1" class="edge"><title>Node2&#45;&gt;Node1</title>
<path fill="none" stroke="midnightblue" d="M73,-47.1166C73,-37.8173 73,-27.0557 73,-19.7149"/>
<polygon fill="midnightblue" stroke="midnightblue" points="69.5001,-47.4062 73,-57.4063 76.5001,-47.4063 69.5001,-47.4062"/>
</g>
<!-- Node3 -->
<g id="node3" class="node"><title>Node3</title>
<polygon fill="white" stroke="#bfbfbf" points="0,-124.5 0,-154.5 146,-154.5 146,-124.5 0,-124.5"/>
<text text-anchor="start" x="8" y="-142.5" font-family="Helvetica,sans-Serif" font-size="10.00">std::vector&lt; std::shared</text>
<text text-anchor="middle" x="73" y="-131.5" font-family="Helvetica,sans-Serif" font-size="10.00">_ptr&lt; sgl::Graphics::Node &gt; &gt;</text>
</g>
<!-- Node3&#45;&gt;Node2 -->
<g id="edge2" class="edge"><title>Node3&#45;&gt;Node2</title>
<path fill="none" stroke="#9a32cd" stroke-dasharray="5,2" d="M73,-114.091C73,-101.214 73,-86.1974 73,-76.8932"/>
<polygon fill="#9a32cd" stroke="#9a32cd" points="69.5001,-114.233 73,-124.233 76.5001,-114.233 69.5001,-114.233"/>
<text text-anchor="middle" x="98.5" y="-98" font-family="Helvetica,sans-Serif" font-size="10.00"> m_children</text>
</g>
<!-- Node4 -->
<g id="node4" class="node"><title>Node4</title>
<g id="a_node4"><a xlink:title="STL class. ">
<polygon fill="white" stroke="#bfbfbf" points="30.5,-213.5 30.5,-232.5 115.5,-232.5 115.5,-213.5 30.5,-213.5"/>
<text text-anchor="middle" x="73" y="-220.5" font-family="Helvetica,sans-Serif" font-size="10.00">std::vector&lt; T &gt;</text>
</a>
</g>
</g>
<!-- Node4&#45;&gt;Node3 -->
<g id="edge3" class="edge"><title>Node4&#45;&gt;Node3</title>
<path fill="none" stroke="orange" stroke-dasharray="5,2" d="M73,-203.229C73,-188.408 73,-168.051 73,-154.597"/>
<polygon fill="orange" stroke="orange" points="69.5001,-203.278 73,-213.278 76.5001,-203.278 69.5001,-203.278"/>
<text text-anchor="start" x="73" y="-187" font-family="Helvetica,sans-Serif" font-size="10.00"> &lt; std::shared_ptr&lt;</text>
<text text-anchor="middle" x="127" y="-176" font-family="Helvetica,sans-Serif" font-size="10.00"> sgl::Graphics::Node &gt; &gt;</text>
</g>
<!-- Node5 -->
<g id="node5" class="node"><title>Node5</title>
<polygon fill="white" stroke="#bfbfbf" points="58.5,-280.5 58.5,-299.5 87.5,-299.5 87.5,-280.5 58.5,-280.5"/>
<text text-anchor="middle" x="73" y="-287.5" font-family="Helvetica,sans-Serif" font-size="10.00">T</text>
</g>
<!-- Node5&#45;&gt;Node4 -->
<g id="edge4" class="edge"><title>Node5&#45;&gt;Node4</title>
<path fill="none" stroke="#9a32cd" stroke-dasharray="5,2" d="M73,-270.037C73,-257.67 73,-242.12 73,-232.627"/>
<polygon fill="#9a32cd" stroke="#9a32cd" points="69.5001,-270.234 73,-280.234 76.5001,-270.234 69.5001,-270.234"/>
<text text-anchor="middle" x="94.5" y="-254" font-family="Helvetica,sans-Serif" font-size="10.00"> elements</text>
</g>
</g>
</svg>
