<?xml version="1.0" encoding="UTF-8" standalone="no"?>
<!DOCTYPE svg PUBLIC "-//W3C//DTD SVG 1.1//EN"
 "http://www.w3.org/Graphics/SVG/1.1/DTD/svg11.dtd">
<!-- Generated by graphviz version 2.38.0 (20140413.2041)
 -->
<!-- Title: include/Small/System/SharedLibrary.hpp Pages: 1 -->
<svg width="374pt" height="95pt"
 viewBox="0.00 0.00 373.50 95.00" xmlns="http://www.w3.org/2000/svg" xmlns:xlink="http://www.w3.org/1999/xlink">
<g id="graph0" class="graph" transform="scale(1 1) rotate(0) translate(4 91)">
<title>include/Small/System/SharedLibrary.hpp</title>
<polygon fill="white" stroke="none" points="-4,4 -4,-91 369.5,-91 369.5,4 -4,4"/>
<!-- Node1 -->
<g id="node1" class="node"><title>Node1</title>
<polygon fill="#bfbfbf" stroke="black" points="157,-56.5 157,-86.5 269,-86.5 269,-56.5 157,-56.5"/>
<text text-anchor="start" x="165" y="-74.5" font-family="Helvetica,sans-Serif" font-size="10.00">include/Small/System</text>
<text text-anchor="middle" x="213" y="-63.5" font-family="Helvetica,sans-Serif" font-size="10.00">/SharedLibrary.hpp</text>
</g>
<!-- Node2 -->
<g id="node2" class="node"><title>Node2</title>
<g id="a_node2"><a xlink:href="../../d5/d40/Platform_8hpp.html" target="_top" xlink:title="Defines to identify the running operating system. ">
<polygon fill="white" stroke="black" points="0,-0.5 0,-19.5 136,-19.5 136,-0.5 0,-0.5"/>
<text text-anchor="middle" x="68" y="-7.5" font-family="Helvetica,sans-Serif" font-size="10.00">Small/System/Platform.hpp</text>
</a>
</g>
</g>
<!-- Node1&#45;&gt;Node2 -->
<g id="edge1" class="edge"><title>Node1&#45;&gt;Node2</title>
<path fill="none" stroke="midnightblue" d="M178.637,-56.3993C154.309,-46.4163 121.971,-33.1465 98.5439,-23.5335"/>
<polygon fill="midnightblue" stroke="midnightblue" points="99.6789,-20.2161 89.0988,-19.6578 97.0215,-26.6921 99.6789,-20.2161"/>
</g>
<!-- Node3 -->
<g id="node3" class="node"><title>Node3</title>
<polygon fill="white" stroke="#bfbfbf" points="154.5,-0.5 154.5,-19.5 195.5,-19.5 195.5,-0.5 154.5,-0.5"/>
<text text-anchor="middle" x="175" y="-7.5" font-family="Helvetica,sans-Serif" font-size="10.00">string</text>
</g>
<!-- Node1&#45;&gt;Node3 -->
<g id="edge2" class="edge"><title>Node1&#45;&gt;Node3</title>
<path fill="none" stroke="midnightblue" d="M203.995,-56.3993C198.587,-47.9315 191.668,-37.0991 185.946,-28.1393"/>
<polygon fill="midnightblue" stroke="midnightblue" points="188.862,-26.2018 180.529,-19.6578 182.962,-29.9695 188.862,-26.2018"/>
</g>
<!-- Node4 -->
<g id="node4" class="node"><title>Node4</title>
<polygon fill="white" stroke="#bfbfbf" points="214,-0.5 214,-19.5 288,-19.5 288,-0.5 214,-0.5"/>
<text text-anchor="middle" x="251" y="-7.5" font-family="Helvetica,sans-Serif" font-size="10.00">system_error</text>
</g>
<!-- Node1&#45;&gt;Node4 -->
<g id="edge3" class="edge"><title>Node1&#45;&gt;Node4</title>
<path fill="none" stroke="midnightblue" d="M222.005,-56.3993C227.413,-47.9315 234.332,-37.0991 240.054,-28.1393"/>
<polygon fill="midnightblue" stroke="midnightblue" points="243.038,-29.9695 245.471,-19.6578 237.138,-26.2018 243.038,-29.9695"/>
</g>
<!-- Node5 -->
<g id="node5" class="node"><title>Node5</title>
<polygon fill="white" stroke="#bfbfbf" points="306.5,-0.5 306.5,-19.5 365.5,-19.5 365.5,-0.5 306.5,-0.5"/>
<text text-anchor="middle" x="336" y="-7.5" font-family="Helvetica,sans-Serif" font-size="10.00">exception</text>
</g>
<!-- Node1&#45;&gt;Node5 -->
<g id="edge4" class="edge"><title>Node1&#45;&gt;Node5</title>
<path fill="none" stroke="midnightblue" d="M242.149,-56.3993C262.418,-46.5945 289.241,-33.6194 309.019,-24.052"/>
<polygon fill="midnightblue" stroke="midnightblue" points="310.624,-27.1632 318.102,-19.6578 307.576,-20.8618 310.624,-27.1632"/>
</g>
</g>
</svg>
