<?xml version="1.0" encoding="UTF-8" standalone="no"?>
<!DOCTYPE svg PUBLIC "-//W3C//DTD SVG 1.1//EN"
 "http://www.w3.org/Graphics/SVG/1.1/DTD/svg11.dtd">
<!-- Generated by graphviz version 2.49.0 (20210828.1703)
 -->
<!-- Title: C:/Users/folae/Documents/Code/Big&#45;Projects/ScriptWizards/SmallGameLibrary/include/Small/Scripting/SFMLtoArk.hpp Pages: 1 -->
<svg width="492pt" height="117pt"
 viewBox="0.00 0.00 491.50 117.00" xmlns="http://www.w3.org/2000/svg" xmlns:xlink="http://www.w3.org/1999/xlink">
<g id="graph0" class="graph" transform="scale(1 1) rotate(0) translate(4 113)">
<title>C:/Users/folae/Documents/Code/Big&#45;Projects/ScriptWizards/SmallGameLibrary/include/Small/Scripting/SFMLtoArk.hpp</title>
<polygon fill="white" stroke="transparent" points="-4,4 -4,-113 487.5,-113 487.5,4 -4,4"/>
<!-- Node1 -->
<g id="node1" class="node">
<title>Node1</title>
<g id="a_node1"><a xlink:title="Convert SFML values to ArkScript values.">
<polygon fill="#bfbfbf" stroke="black" points="138.5,-56.5 138.5,-108.5 301.5,-108.5 301.5,-56.5 138.5,-56.5"/>
<text text-anchor="start" x="146.5" y="-96.5" font-family="Helvetica,sans-Serif" font-size="10.00">C:/Users/folae/Documents</text>
<text text-anchor="start" x="146.5" y="-85.5" font-family="Helvetica,sans-Serif" font-size="10.00">/Code/Big&#45;Projects/ScriptWizards</text>
<text text-anchor="start" x="146.5" y="-74.5" font-family="Helvetica,sans-Serif" font-size="10.00">/SmallGameLibrary/include/Small</text>
<text text-anchor="middle" x="220" y="-63.5" font-family="Helvetica,sans-Serif" font-size="10.00">/Scripting/SFMLtoArk.hpp</text>
</a>
</g>
</g>
<!-- Node2 -->
<g id="node2" class="node">
<title>Node2</title>
<g id="a_node2"><a xlink:title=" ">
<polygon fill="white" stroke="#bfbfbf" points="0,-0.5 0,-19.5 68,-19.5 68,-0.5 0,-0.5"/>
<text text-anchor="middle" x="34" y="-7.5" font-family="Helvetica,sans-Serif" font-size="10.00">Ark/Ark.hpp</text>
</a>
</g>
</g>
<!-- Node1&#45;&gt;Node2 -->
<g id="edge1" class="edge">
<title>Node1&#45;&gt;Node2</title>
<path fill="none" stroke="midnightblue" d="M153.9,-56.45C123.98,-45.11 90,-32.23 65.87,-23.08"/>
<polygon fill="midnightblue" stroke="midnightblue" points="67.09,-19.8 56.5,-19.53 64.61,-26.34 67.09,-19.8"/>
</g>
<!-- Node3 -->
<g id="node3" class="node">
<title>Node3</title>
<g id="a_node3"><a xlink:title=" ">
<polygon fill="white" stroke="#bfbfbf" points="86,-0.5 86,-19.5 212,-19.5 212,-0.5 86,-0.5"/>
<text text-anchor="middle" x="149" y="-7.5" font-family="Helvetica,sans-Serif" font-size="10.00">SFML/Window/Event.hpp</text>
</a>
</g>
</g>
<!-- Node1&#45;&gt;Node3 -->
<g id="edge2" class="edge">
<title>Node1&#45;&gt;Node3</title>
<path fill="none" stroke="midnightblue" d="M194.77,-56.45C184.88,-46.63 173.83,-35.66 165.07,-26.95"/>
<polygon fill="midnightblue" stroke="midnightblue" points="167.32,-24.26 157.76,-19.7 162.39,-29.23 167.32,-24.26"/>
</g>
<!-- Node4 -->
<g id="node4" class="node">
<title>Node4</title>
<g id="a_node4"><a xlink:title=" ">
<polygon fill="white" stroke="#bfbfbf" points="230,-0.5 230,-19.5 352,-19.5 352,-0.5 230,-0.5"/>
<text text-anchor="middle" x="291" y="-7.5" font-family="Helvetica,sans-Serif" font-size="10.00">SFML/System/Time.hpp</text>
</a>
</g>
</g>
<!-- Node1&#45;&gt;Node4 -->
<g id="edge3" class="edge">
<title>Node1&#45;&gt;Node4</title>
<path fill="none" stroke="midnightblue" d="M245.23,-56.45C255.12,-46.63 266.17,-35.66 274.93,-26.95"/>
<polygon fill="midnightblue" stroke="midnightblue" points="277.61,-29.23 282.24,-19.7 272.68,-24.26 277.61,-29.23"/>
</g>
<!-- Node5 -->
<g id="node5" class="node">
<title>Node5</title>
<g id="a_node5"><a xlink:title=" ">
<polygon fill="white" stroke="#bfbfbf" points="370.5,-0.5 370.5,-19.5 483.5,-19.5 483.5,-0.5 370.5,-0.5"/>
<text text-anchor="middle" x="427" y="-7.5" font-family="Helvetica,sans-Serif" font-size="10.00">SFML/System/Utf.hpp</text>
</a>
</g>
</g>
<!-- Node1&#45;&gt;Node5 -->
<g id="edge4" class="edge">
<title>Node1&#45;&gt;Node5</title>
<path fill="none" stroke="midnightblue" d="M293.56,-56.45C327.16,-45.01 365.35,-32 392.24,-22.84"/>
<polygon fill="midnightblue" stroke="midnightblue" points="393.63,-26.06 401.96,-19.53 391.37,-19.44 393.63,-26.06"/>
</g>
</g>
</svg>
