<?xml version="1.0" encoding="UTF-8" standalone="no"?>
<!DOCTYPE svg PUBLIC "-//W3C//DTD SVG 1.1//EN"
 "http://www.w3.org/Graphics/SVG/1.1/DTD/svg11.dtd">
<!-- Generated by graphviz version 2.38.0 (20140413.2041)
 -->
<!-- Title: include/Small/Graphics/Tilemap.hpp Pages: 1 -->
<svg width="937pt" height="95pt"
 viewBox="0.00 0.00 936.50 95.00" xmlns="http://www.w3.org/2000/svg" xmlns:xlink="http://www.w3.org/1999/xlink">
<g id="graph0" class="graph" transform="scale(1 1) rotate(0) translate(4 91)">
<title>include/Small/Graphics/Tilemap.hpp</title>
<polygon fill="white" stroke="none" points="-4,4 -4,-91 932.5,-91 932.5,4 -4,4"/>
<!-- Node1 -->
<g id="node1" class="node"><title>Node1</title>
<polygon fill="#bfbfbf" stroke="black" points="445.5,-56.5 445.5,-86.5 562.5,-86.5 562.5,-56.5 445.5,-56.5"/>
<text text-anchor="start" x="453.5" y="-74.5" font-family="Helvetica,sans-Serif" font-size="10.00">include/Small/Graphics</text>
<text text-anchor="middle" x="504" y="-63.5" font-family="Helvetica,sans-Serif" font-size="10.00">/Tilemap.hpp</text>
</g>
<!-- Node2 -->
<g id="node2" class="node"><title>Node2</title>
<polygon fill="white" stroke="#bfbfbf" points="0,-0.5 0,-19.5 146,-19.5 146,-0.5 0,-0.5"/>
<text text-anchor="middle" x="73" y="-7.5" font-family="Helvetica,sans-Serif" font-size="10.00">SFML/Graphics/Drawable.hpp</text>
</g>
<!-- Node1&#45;&gt;Node2 -->
<g id="edge1" class="edge"><title>Node1&#45;&gt;Node2</title>
<path fill="none" stroke="midnightblue" d="M445.425,-62.4136C367.241,-51.6202 228.867,-32.5176 144.586,-20.8825"/>
<polygon fill="midnightblue" stroke="midnightblue" points="144.968,-17.4021 134.583,-19.5016 144.011,-24.3364 144.968,-17.4021"/>
</g>
<!-- Node3 -->
<g id="node3" class="node"><title>Node3</title>
<polygon fill="white" stroke="#bfbfbf" points="164.5,-0.5 164.5,-19.5 331.5,-19.5 331.5,-0.5 164.5,-0.5"/>
<text text-anchor="middle" x="248" y="-7.5" font-family="Helvetica,sans-Serif" font-size="10.00">SFML/Graphics/Transformable.hpp</text>
</g>
<!-- Node1&#45;&gt;Node3 -->
<g id="edge2" class="edge"><title>Node1&#45;&gt;Node3</title>
<path fill="none" stroke="midnightblue" d="M445.268,-56.8495C399.487,-46.2089 336.788,-31.6362 294.464,-21.7992"/>
<polygon fill="midnightblue" stroke="midnightblue" points="295.229,-18.3839 284.697,-19.5291 293.645,-25.2022 295.229,-18.3839"/>
</g>
<!-- Node4 -->
<g id="node4" class="node"><title>Node4</title>
<polygon fill="white" stroke="#bfbfbf" points="349.5,-0.5 349.5,-19.5 488.5,-19.5 488.5,-0.5 349.5,-0.5"/>
<text text-anchor="middle" x="419" y="-7.5" font-family="Helvetica,sans-Serif" font-size="10.00">SFML/Graphics/Texture.hpp</text>
</g>
<!-- Node1&#45;&gt;Node4 -->
<g id="edge3" class="edge"><title>Node1&#45;&gt;Node4</title>
<path fill="none" stroke="midnightblue" d="M483.856,-56.3993C470.613,-47.1293 453.322,-35.0254 439.924,-25.6469"/>
<polygon fill="midnightblue" stroke="midnightblue" points="441.568,-22.5251 431.368,-19.6578 437.553,-28.2598 441.568,-22.5251"/>
</g>
<!-- Node5 -->
<g id="node5" class="node"><title>Node5</title>
<polygon fill="white" stroke="#bfbfbf" points="507,-0.5 507,-19.5 671,-19.5 671,-0.5 507,-0.5"/>
<text text-anchor="middle" x="589" y="-7.5" font-family="Helvetica,sans-Serif" font-size="10.00">SFML/Graphics/RenderTarget.hpp</text>
</g>
<!-- Node1&#45;&gt;Node5 -->
<g id="edge4" class="edge"><title>Node1&#45;&gt;Node5</title>
<path fill="none" stroke="midnightblue" d="M524.144,-56.3993C537.387,-47.1293 554.678,-35.0254 568.076,-25.6469"/>
<polygon fill="midnightblue" stroke="midnightblue" points="570.447,-28.2598 576.632,-19.6578 566.432,-22.5251 570.447,-28.2598"/>
</g>
<!-- Node6 -->
<g id="node6" class="node"><title>Node6</title>
<polygon fill="white" stroke="#bfbfbf" points="689,-0.5 689,-19.5 847,-19.5 847,-0.5 689,-0.5"/>
<text text-anchor="middle" x="768" y="-7.5" font-family="Helvetica,sans-Serif" font-size="10.00">SFML/Graphics/VertexArray.hpp</text>
</g>
<!-- Node1&#45;&gt;Node6 -->
<g id="edge5" class="edge"><title>Node1&#45;&gt;Node6</title>
<path fill="none" stroke="midnightblue" d="M562.59,-57.295C609.943,-46.6228 675.775,-31.7855 720.034,-21.8106"/>
<polygon fill="midnightblue" stroke="midnightblue" points="720.979,-25.1855 729.964,-19.5724 719.44,-18.3568 720.979,-25.1855"/>
</g>
<!-- Node7 -->
<g id="node7" class="node"><title>Node7</title>
<polygon fill="white" stroke="#bfbfbf" points="865.5,-0.5 865.5,-19.5 928.5,-19.5 928.5,-0.5 865.5,-0.5"/>
<text text-anchor="middle" x="897" y="-7.5" font-family="Helvetica,sans-Serif" font-size="10.00">Tilemap.inl</text>
</g>
<!-- Node1&#45;&gt;Node7 -->
<g id="edge6" class="edge"><title>Node1&#45;&gt;Node7</title>
<path fill="none" stroke="midnightblue" d="M562.759,-63.4136C630.765,-54.9112 746.319,-39.5402 855.404,-19.99"/>
<polygon fill="midnightblue" stroke="midnightblue" points="856.044,-23.4312 865.262,-18.2085 854.799,-16.5427 856.044,-23.4312"/>
</g>
</g>
</svg>
