<?xml version="1.0" encoding="UTF-8" standalone="no"?>
<!DOCTYPE svg PUBLIC "-//W3C//DTD SVG 1.1//EN"
 "http://www.w3.org/Graphics/SVG/1.1/DTD/svg11.dtd">
<!-- Generated by graphviz version 2.38.0 (20140413.2041)
 -->
<!-- Title: C:/Users/Folaefolc/Documents/Code/Big&#45;Projects/ScriptWizards/SmallGameLibrary/include/Small/Graphics.hpp Pages: 1 -->
<svg width="2053pt" height="184pt"
 viewBox="0.00 0.00 2053.00 184.00" xmlns="http://www.w3.org/2000/svg" xmlns:xlink="http://www.w3.org/1999/xlink">
<g id="graph0" class="graph" transform="scale(1 1) rotate(0) translate(4 180)">
<title>C:/Users/Folaefolc/Documents/Code/Big&#45;Projects/ScriptWizards/SmallGameLibrary/include/Small/Graphics.hpp</title>
<polygon fill="white" stroke="none" points="-4,4 -4,-180 2049,-180 2049,4 -4,4"/>
<!-- Node1 -->
<g id="node1" class="node"><title>Node1</title>
<polygon fill="#bfbfbf" stroke="black" points="1017,-112.5 1017,-175.5 1151,-175.5 1151,-112.5 1017,-112.5"/>
<text text-anchor="start" x="1025" y="-163.5" font-family="Helvetica,sans-Serif" font-size="10.00">C:/Users/Folaefolc</text>
<text text-anchor="start" x="1025" y="-152.5" font-family="Helvetica,sans-Serif" font-size="10.00">/Documents/Code/Big</text>
<text text-anchor="start" x="1025" y="-141.5" font-family="Helvetica,sans-Serif" font-size="10.00">&#45;Projects/ScriptWizards</text>
<text text-anchor="start" x="1025" y="-130.5" font-family="Helvetica,sans-Serif" font-size="10.00">/SmallGameLibrary/include</text>
<text text-anchor="middle" x="1084" y="-119.5" font-family="Helvetica,sans-Serif" font-size="10.00">/Small/Graphics.hpp</text>
</g>
<!-- Node2 -->
<g id="node2" class="node"><title>Node2</title>
<g id="a_node2"><a xlink:href="../../de/d4d/Tilemap_8hpp.html" target="_top" xlink:title="A tilemap wrapper, to render a lot of sprites in a single draw call. ">
<polygon fill="white" stroke="black" points="564.5,-56.5 564.5,-75.5 703.5,-75.5 703.5,-56.5 564.5,-56.5"/>
<text text-anchor="middle" x="634" y="-63.5" font-family="Helvetica,sans-Serif" font-size="10.00">Small/Graphics/Tilemap.hpp</text>
</a>
</g>
</g>
<!-- Node1&#45;&gt;Node2 -->
<g id="edge1" class="edge"><title>Node1&#45;&gt;Node2</title>
<path fill="none" stroke="midnightblue" d="M1016.63,-131.622C929.22,-116.859 778.024,-91.324 694.25,-77.1756"/>
<polygon fill="midnightblue" stroke="midnightblue" points="694.82,-73.7224 684.377,-75.5081 693.655,-80.6246 694.82,-73.7224"/>
</g>
<!-- Node9 -->
<g id="node9" class="node"><title>Node9</title>
<g id="a_node9"><a xlink:href="../../d8/d67/TileView_8hpp.html" target="_top" xlink:title="Utility to build and manipulate views based on tiles. ">
<polygon fill="white" stroke="black" points="922.5,-56.5 922.5,-75.5 1063.5,-75.5 1063.5,-56.5 922.5,-56.5"/>
<text text-anchor="middle" x="993" y="-63.5" font-family="Helvetica,sans-Serif" font-size="10.00">Small/Graphics/TileView.hpp</text>
</a>
</g>
</g>
<!-- Node1&#45;&gt;Node9 -->
<g id="edge8" class="edge"><title>Node1&#45;&gt;Node9</title>
<path fill="none" stroke="midnightblue" d="M1047.25,-112.307C1034.92,-102.008 1021.69,-90.9643 1011.39,-82.359"/>
<polygon fill="midnightblue" stroke="midnightblue" points="1013.42,-79.4976 1003.51,-75.7738 1008.94,-84.8704 1013.42,-79.4976"/>
</g>
<!-- Node11 -->
<g id="node11" class="node"><title>Node11</title>
<g id="a_node11"><a xlink:href="../../d0/d36/Animation_8hpp.html" target="_top" xlink:title="Handling animated sprites. ">
<polygon fill="white" stroke="black" points="1100.5,-56.5 1100.5,-75.5 1249.5,-75.5 1249.5,-56.5 1100.5,-56.5"/>
<text text-anchor="middle" x="1175" y="-63.5" font-family="Helvetica,sans-Serif" font-size="10.00">Small/Graphics/Animation.hpp</text>
</a>
</g>
</g>
<!-- Node1&#45;&gt;Node11 -->
<g id="edge11" class="edge"><title>Node1&#45;&gt;Node11</title>
<path fill="none" stroke="midnightblue" d="M1120.75,-112.307C1133.08,-102.008 1146.31,-90.9643 1156.61,-82.359"/>
<polygon fill="midnightblue" stroke="midnightblue" points="1159.06,-84.8704 1164.49,-75.7738 1154.58,-79.4976 1159.06,-84.8704"/>
</g>
<!-- Node19 -->
<g id="node19" class="node"><title>Node19</title>
<g id="a_node19"><a xlink:href="../../d7/dc6/Node_8hpp.html" target="_top" xlink:title="A scene graph node. ">
<polygon fill="white" stroke="black" points="1668,-56.5 1668,-75.5 1796,-75.5 1796,-56.5 1668,-56.5"/>
<text text-anchor="middle" x="1732" y="-63.5" font-family="Helvetica,sans-Serif" font-size="10.00">Small/Graphics/Node.hpp</text>
</a>
</g>
</g>
<!-- Node1&#45;&gt;Node19 -->
<g id="edge23" class="edge"><title>Node1&#45;&gt;Node19</title>
<path fill="none" stroke="midnightblue" d="M1151.21,-135.117C1273.36,-120.791 1530.85,-90.5911 1657.9,-75.6905"/>
<polygon fill="midnightblue" stroke="midnightblue" points="1658.41,-79.1553 1667.93,-74.5142 1657.59,-72.203 1658.41,-79.1553"/>
</g>
<!-- Node3 -->
<g id="node3" class="node"><title>Node3</title>
<polygon fill="white" stroke="#bfbfbf" points="561,-0.5 561,-19.5 707,-19.5 707,-0.5 561,-0.5"/>
<text text-anchor="middle" x="634" y="-7.5" font-family="Helvetica,sans-Serif" font-size="10.00">SFML/Graphics/Drawable.hpp</text>
</g>
<!-- Node2&#45;&gt;Node3 -->
<g id="edge2" class="edge"><title>Node2&#45;&gt;Node3</title>
<path fill="none" stroke="midnightblue" d="M634,-56.083C634,-49.0059 634,-38.8611 634,-29.9865"/>
<polygon fill="midnightblue" stroke="midnightblue" points="637.5,-29.751 634,-19.7511 630.5,-29.7511 637.5,-29.751"/>
</g>
<!-- Node4 -->
<g id="node4" class="node"><title>Node4</title>
<polygon fill="white" stroke="#bfbfbf" points="725.5,-0.5 725.5,-19.5 892.5,-19.5 892.5,-0.5 725.5,-0.5"/>
<text text-anchor="middle" x="809" y="-7.5" font-family="Helvetica,sans-Serif" font-size="10.00">SFML/Graphics/Transformable.hpp</text>
</g>
<!-- Node2&#45;&gt;Node4 -->
<g id="edge3" class="edge"><title>Node2&#45;&gt;Node4</title>
<path fill="none" stroke="midnightblue" d="M661.729,-56.4435C691.426,-47.2801 738.716,-32.6876 771.669,-22.5192"/>
<polygon fill="midnightblue" stroke="midnightblue" points="772.877,-25.8094 781.4,-19.5164 770.813,-19.1206 772.877,-25.8094"/>
</g>
<!-- Node5 -->
<g id="node5" class="node"><title>Node5</title>
<polygon fill="white" stroke="#bfbfbf" points="257.5,-0.5 257.5,-19.5 396.5,-19.5 396.5,-0.5 257.5,-0.5"/>
<text text-anchor="middle" x="327" y="-7.5" font-family="Helvetica,sans-Serif" font-size="10.00">SFML/Graphics/Texture.hpp</text>
</g>
<!-- Node2&#45;&gt;Node5 -->
<g id="edge4" class="edge"><title>Node2&#45;&gt;Node5</title>
<path fill="none" stroke="midnightblue" d="M585.355,-56.4435C531.126,-46.9049 443.452,-31.4834 385.518,-21.293"/>
<polygon fill="midnightblue" stroke="midnightblue" points="385.873,-17.8018 375.417,-19.5164 384.66,-24.696 385.873,-17.8018"/>
</g>
<!-- Node6 -->
<g id="node6" class="node"><title>Node6</title>
<polygon fill="white" stroke="#bfbfbf" points="911,-0.5 911,-19.5 1075,-19.5 1075,-0.5 911,-0.5"/>
<text text-anchor="middle" x="993" y="-7.5" font-family="Helvetica,sans-Serif" font-size="10.00">SFML/Graphics/RenderTarget.hpp</text>
</g>
<!-- Node2&#45;&gt;Node6 -->
<g id="edge5" class="edge"><title>Node2&#45;&gt;Node6</title>
<path fill="none" stroke="midnightblue" d="M690.885,-56.4435C754.824,-46.8259 858.524,-31.2275 926.247,-21.0409"/>
<polygon fill="midnightblue" stroke="midnightblue" points="927.013,-24.465 936.382,-19.5164 925.972,-17.5429 927.013,-24.465"/>
</g>
<!-- Node7 -->
<g id="node7" class="node"><title>Node7</title>
<polygon fill="white" stroke="#bfbfbf" points="0,-0.5 0,-19.5 158,-19.5 158,-0.5 0,-0.5"/>
<text text-anchor="middle" x="79" y="-7.5" font-family="Helvetica,sans-Serif" font-size="10.00">SFML/Graphics/VertexArray.hpp</text>
</g>
<!-- Node2&#45;&gt;Node7 -->
<g id="edge6" class="edge"><title>Node2&#45;&gt;Node7</title>
<path fill="none" stroke="midnightblue" d="M564.362,-58.418C475.141,-49.9563 315.41,-34.7109 168.273,-20.1217"/>
<polygon fill="midnightblue" stroke="midnightblue" points="168.449,-16.622 158.152,-19.1172 167.757,-23.5878 168.449,-16.622"/>
</g>
<!-- Node8 -->
<g id="node8" class="node"><title>Node8</title>
<polygon fill="white" stroke="#bfbfbf" points="176.5,-0.5 176.5,-19.5 239.5,-19.5 239.5,-0.5 176.5,-0.5"/>
<text text-anchor="middle" x="208" y="-7.5" font-family="Helvetica,sans-Serif" font-size="10.00">Tilemap.inl</text>
</g>
<!-- Node2&#45;&gt;Node8 -->
<g id="edge7" class="edge"><title>Node2&#45;&gt;Node8</title>
<path fill="none" stroke="midnightblue" d="M564.305,-59.101C488.958,-52.2217 365.165,-39.4663 249.874,-20.1791"/>
<polygon fill="midnightblue" stroke="midnightblue" points="250.261,-16.6948 239.817,-18.4761 249.092,-23.5966 250.261,-16.6948"/>
</g>
<!-- Node9&#45;&gt;Node6 -->
<g id="edge10" class="edge"><title>Node9&#45;&gt;Node6</title>
<path fill="none" stroke="midnightblue" d="M993,-56.083C993,-49.0059 993,-38.8611 993,-29.9865"/>
<polygon fill="midnightblue" stroke="midnightblue" points="996.5,-29.751 993,-19.7511 989.5,-29.7511 996.5,-29.751"/>
</g>
<!-- Node10 -->
<g id="node10" class="node"><title>Node10</title>
<polygon fill="white" stroke="#bfbfbf" points="415,-0.5 415,-19.5 543,-19.5 543,-0.5 415,-0.5"/>
<text text-anchor="middle" x="479" y="-7.5" font-family="Helvetica,sans-Serif" font-size="10.00">SFML/Graphics/View.hpp</text>
</g>
<!-- Node9&#45;&gt;Node10 -->
<g id="edge9" class="edge"><title>Node9&#45;&gt;Node10</title>
<path fill="none" stroke="midnightblue" d="M922.301,-58.2468C837.289,-50.0227 689.994,-35.4441 553.325,-20.1291"/>
<polygon fill="midnightblue" stroke="midnightblue" points="553.414,-16.6172 543.085,-18.978 552.632,-23.5733 553.414,-16.6172"/>
</g>
<!-- Node11&#45;&gt;Node3 -->
<g id="edge16" class="edge"><title>Node11&#45;&gt;Node3</title>
<path fill="none" stroke="midnightblue" d="M1100.24,-57.9391C1011.5,-49.4974 858.758,-34.7764 717.465,-20.1425"/>
<polygon fill="midnightblue" stroke="midnightblue" points="717.621,-16.64 707.313,-19.0891 716.898,-23.6026 717.621,-16.64"/>
</g>
<!-- Node11&#45;&gt;Node4 -->
<g id="edge17" class="edge"><title>Node11&#45;&gt;Node4</title>
<path fill="none" stroke="midnightblue" d="M1117.01,-56.4435C1051.69,-46.8061 945.663,-31.1635 876.63,-20.9782"/>
<polygon fill="midnightblue" stroke="midnightblue" points="877.126,-17.5136 866.722,-19.5164 876.104,-24.4386 877.126,-17.5136"/>
</g>
<!-- Node11&#45;&gt;Node5 -->
<g id="edge13" class="edge"><title>Node11&#45;&gt;Node5</title>
<path fill="none" stroke="midnightblue" d="M1100.48,-58.1942C1090.9,-57.4058 1081.22,-56.6519 1072,-56 779.627,-35.3301 703.104,-44.574 406.942,-20.0251"/>
<polygon fill="midnightblue" stroke="midnightblue" points="407.021,-16.5197 396.765,-19.1755 406.439,-23.4954 407.021,-16.5197"/>
</g>
<!-- Node11&#45;&gt;Node6 -->
<g id="edge14" class="edge"><title>Node11&#45;&gt;Node6</title>
<path fill="none" stroke="midnightblue" d="M1146.16,-56.4435C1115.14,-47.2406 1065.67,-32.5617 1031.38,-22.3879"/>
<polygon fill="midnightblue" stroke="midnightblue" points="1032.29,-19.0055 1021.7,-19.5164 1030.29,-25.7164 1032.29,-19.0055"/>
</g>
<!-- Node12 -->
<g id="node12" class="node"><title>Node12</title>
<polygon fill="white" stroke="#bfbfbf" points="1253.5,-0.5 1253.5,-19.5 1380.5,-19.5 1380.5,-0.5 1253.5,-0.5"/>
<text text-anchor="middle" x="1317" y="-7.5" font-family="Helvetica,sans-Serif" font-size="10.00">SFML/Graphics/Rect.hpp</text>
</g>
<!-- Node11&#45;&gt;Node12 -->
<g id="edge12" class="edge"><title>Node11&#45;&gt;Node12</title>
<path fill="none" stroke="midnightblue" d="M1197.5,-56.4435C1221.08,-47.4776 1258.32,-33.314 1284.96,-23.1827"/>
<polygon fill="midnightblue" stroke="midnightblue" points="1286.5,-26.3424 1294.6,-19.5164 1284.01,-19.7995 1286.5,-26.3424"/>
</g>
<!-- Node13 -->
<g id="node13" class="node"><title>Node13</title>
<polygon fill="white" stroke="#bfbfbf" points="1399,-0.5 1399,-19.5 1521,-19.5 1521,-0.5 1399,-0.5"/>
<text text-anchor="middle" x="1460" y="-7.5" font-family="Helvetica,sans-Serif" font-size="10.00">SFML/System/Time.hpp</text>
</g>
<!-- Node11&#45;&gt;Node13 -->
<g id="edge15" class="edge"><title>Node11&#45;&gt;Node13</title>
<path fill="none" stroke="midnightblue" d="M1220.16,-56.4435C1270.29,-46.9444 1351.22,-31.611 1405.01,-21.4198"/>
<polygon fill="midnightblue" stroke="midnightblue" points="1405.88,-24.8169 1415.05,-19.5164 1404.58,-17.9393 1405.88,-24.8169"/>
</g>
<!-- Node14 -->
<g id="node14" class="node"><title>Node14</title>
<polygon fill="white" stroke="#bfbfbf" points="1611.5,-0.5 1611.5,-19.5 1746.5,-19.5 1746.5,-0.5 1611.5,-0.5"/>
<text text-anchor="middle" x="1679" y="-7.5" font-family="Helvetica,sans-Serif" font-size="10.00">SFML/System/Vector2.hpp</text>
</g>
<!-- Node11&#45;&gt;Node14 -->
<g id="edge18" class="edge"><title>Node11&#45;&gt;Node14</title>
<path fill="none" stroke="midnightblue" d="M1249.85,-57.3719C1332.96,-48.8428 1471.4,-34.4617 1601.27,-20.0701"/>
<polygon fill="midnightblue" stroke="midnightblue" points="1601.85,-23.5274 1611.4,-18.9454 1601.07,-16.5702 1601.85,-23.5274"/>
</g>
<!-- Node15 -->
<g id="node15" class="node"><title>Node15</title>
<polygon fill="white" stroke="#bfbfbf" points="1765,-0.5 1765,-19.5 1807,-19.5 1807,-0.5 1765,-0.5"/>
<text text-anchor="middle" x="1786" y="-7.5" font-family="Helvetica,sans-Serif" font-size="10.00">vector</text>
</g>
<!-- Node11&#45;&gt;Node15 -->
<g id="edge19" class="edge"><title>Node11&#45;&gt;Node15</title>
<path fill="none" stroke="midnightblue" d="M1249.95,-64.3025C1359.32,-62.1569 1568.95,-53.7809 1754.88,-19.8102"/>
<polygon fill="midnightblue" stroke="midnightblue" points="1755.64,-23.2284 1764.83,-17.9621 1754.36,-16.3459 1755.64,-23.2284"/>
</g>
<!-- Node16 -->
<g id="node16" class="node"><title>Node16</title>
<polygon fill="white" stroke="#bfbfbf" points="1539,-0.5 1539,-19.5 1593,-19.5 1593,-0.5 1539,-0.5"/>
<text text-anchor="middle" x="1566" y="-7.5" font-family="Helvetica,sans-Serif" font-size="10.00">toml.hpp</text>
</g>
<!-- Node11&#45;&gt;Node16 -->
<g id="edge20" class="edge"><title>Node11&#45;&gt;Node16</title>
<path fill="none" stroke="midnightblue" d="M1249.51,-58.1572C1319.37,-51.1491 1426.86,-38.849 1529.08,-19.976"/>
<polygon fill="midnightblue" stroke="midnightblue" points="1529.76,-23.4081 1538.95,-18.1291 1528.48,-16.5275 1529.76,-23.4081"/>
</g>
<!-- Node17 -->
<g id="node17" class="node"><title>Node17</title>
<polygon fill="white" stroke="#bfbfbf" points="1093.5,-0.5 1093.5,-19.5 1134.5,-19.5 1134.5,-0.5 1093.5,-0.5"/>
<text text-anchor="middle" x="1114" y="-7.5" font-family="Helvetica,sans-Serif" font-size="10.00">string</text>
</g>
<!-- Node11&#45;&gt;Node17 -->
<g id="edge21" class="edge"><title>Node11&#45;&gt;Node17</title>
<path fill="none" stroke="midnightblue" d="M1165.2,-56.324C1156.18,-48.3414 1142.59,-36.3128 1131.68,-26.6529"/>
<polygon fill="midnightblue" stroke="midnightblue" points="1133.79,-23.8416 1123.98,-19.8339 1129.15,-29.083 1133.79,-23.8416"/>
</g>
<!-- Node18 -->
<g id="node18" class="node"><title>Node18</title>
<polygon fill="white" stroke="#bfbfbf" points="1152.5,-0.5 1152.5,-19.5 1235.5,-19.5 1235.5,-0.5 1152.5,-0.5"/>
<text text-anchor="middle" x="1194" y="-7.5" font-family="Helvetica,sans-Serif" font-size="10.00">unordered_map</text>
</g>
<!-- Node11&#45;&gt;Node18 -->
<g id="edge22" class="edge"><title>Node11&#45;&gt;Node18</title>
<path fill="none" stroke="midnightblue" d="M1178.14,-56.083C1180.68,-48.8486 1184.36,-38.4087 1187.53,-29.3968"/>
<polygon fill="midnightblue" stroke="midnightblue" points="1190.9,-30.3459 1190.92,-19.7511 1184.3,-28.0225 1190.9,-30.3459"/>
</g>
<!-- Node19&#45;&gt;Node6 -->
<g id="edge24" class="edge"><title>Node19&#45;&gt;Node6</title>
<path fill="none" stroke="midnightblue" d="M1667.57,-61.152C1552.8,-54.16 1305.15,-38.4527 1085.44,-20.0995"/>
<polygon fill="midnightblue" stroke="midnightblue" points="1085.59,-16.5997 1075.33,-19.2514 1085,-23.5752 1085.59,-16.5997"/>
</g>
<!-- Node19&#45;&gt;Node14 -->
<g id="edge26" class="edge"><title>Node19&#45;&gt;Node14</title>
<path fill="none" stroke="midnightblue" d="M1723.25,-56.083C1715.53,-48.2195 1704.1,-36.5688 1694.78,-27.0813"/>
<polygon fill="midnightblue" stroke="midnightblue" points="1697.09,-24.4363 1687.59,-19.7511 1692.1,-29.3396 1697.09,-24.4363"/>
</g>
<!-- Node19&#45;&gt;Node15 -->
<g id="edge27" class="edge"><title>Node19&#45;&gt;Node15</title>
<path fill="none" stroke="midnightblue" d="M1740.92,-56.083C1748.78,-48.2195 1760.43,-36.5688 1769.92,-27.0813"/>
<polygon fill="midnightblue" stroke="midnightblue" points="1772.65,-29.2971 1777.25,-19.7511 1767.7,-24.3473 1772.65,-29.2971"/>
</g>
<!-- Node20 -->
<g id="node20" class="node"><title>Node20</title>
<polygon fill="white" stroke="#bfbfbf" points="1825.5,-0.5 1825.5,-19.5 1974.5,-19.5 1974.5,-0.5 1825.5,-0.5"/>
<text text-anchor="middle" x="1900" y="-7.5" font-family="Helvetica,sans-Serif" font-size="10.00">SFML/Graphics/Transform.hpp</text>
</g>
<!-- Node19&#45;&gt;Node20 -->
<g id="edge25" class="edge"><title>Node19&#45;&gt;Node20</title>
<path fill="none" stroke="midnightblue" d="M1758.62,-56.4435C1787.01,-47.3196 1832.14,-32.8133 1863.75,-22.6509"/>
<polygon fill="midnightblue" stroke="midnightblue" points="1865.06,-25.9087 1873.5,-19.5164 1862.91,-19.2445 1865.06,-25.9087"/>
</g>
<!-- Node21 -->
<g id="node21" class="node"><title>Node21</title>
<polygon fill="white" stroke="#bfbfbf" points="1993,-0.5 1993,-19.5 2045,-19.5 2045,-0.5 1993,-0.5"/>
<text text-anchor="middle" x="2019" y="-7.5" font-family="Helvetica,sans-Serif" font-size="10.00">memory</text>
</g>
<!-- Node19&#45;&gt;Node21 -->
<g id="edge28" class="edge"><title>Node19&#45;&gt;Node21</title>
<path fill="none" stroke="midnightblue" d="M1786.8,-56.4313C1835.8,-48.4935 1909.78,-35.8359 1982.84,-20.1282"/>
<polygon fill="midnightblue" stroke="midnightblue" points="1983.65,-23.5355 1992.68,-17.9942 1982.16,-16.6947 1983.65,-23.5355"/>
</g>
</g>
</svg>
