<?xml version="1.0" encoding="UTF-8" standalone="no"?>
<!DOCTYPE svg PUBLIC "-//W3C//DTD SVG 1.1//EN"
 "http://www.w3.org/Graphics/SVG/1.1/DTD/svg11.dtd">
<!-- Generated by graphviz version 2.49.0 (20210828.1703)
 -->
<!-- Title: C:/Users/folae/Documents/Code/Big&#45;Projects/ScriptWizards/SmallGameLibrary/include/Small/Graphics.hpp Pages: 1 -->
<!--zoomable 229 -->
<svg id="main" version="1.1" xmlns="http://www.w3.org/2000/svg" xmlns:xlink="http://www.w3.org/1999/xlink" xml:space="preserve" onload="init(evt)">
<style type="text/css"><![CDATA[
.edge:hover path { stroke: red; }
.edge:hover polygon { stroke: red; fill: red; }
]]></style>
<script type="text/javascript"><![CDATA[
var edges = document.getElementsByTagName('g');
if (edges && edges.length) {
  for (var i=0;i<edges.length;i++) {
    if (edges[i].id.substr(0,4)=='edge') {
      edges[i].setAttribute('class','edge');
    }
  }
}
]]></script>
        <defs>
                <circle id="rim" cx="0" cy="0" r="7"/>
                <circle id="rim2" cx="0" cy="0" r="3.5"/>
                <g id="zoomPlus">
                        <use xlink:href="#rim" fill="#404040">
                                <set attributeName="fill" to="#808080" begin="zoomplus.mouseover" end="zoomplus.mouseout"/>
                        </use>
                        <path d="M-4,0h8M0,-4v8" fill="none" stroke="white" stroke-width="1.5" pointer-events="none"/>
                </g>
                <g id="zoomMin">
                        <use xlink:href="#rim" fill="#404040">
                                <set attributeName="fill" to="#808080" begin="zoomminus.mouseover" end="zoomminus.mouseout"/>
                        </use>
                        <path d="M-4,0h8" fill="none" stroke="white" stroke-width="1.5" pointer-events="none"/>
                </g>
                <g id="dirArrow">
                        <path fill="none" stroke="white" stroke-width="1.5" d="M0,-3.0v7 M-2.5,-0.5L0,-3.0L2.5,-0.5"/>
                </g>
               <g id="resetDef">
                       <use xlink:href="#rim2" fill="#404040">
                               <set attributeName="fill" to="#808080" begin="reset.mouseover" end="reset.mouseout"/>
                       </use>
               </g>
        </defs>

<script type="text/javascript">
var viewWidth = 2051;
var viewHeight = 229;
var sectionId = 'dynsection-0';
</script>
<script xlink:href="../../svgpan.js"/>
<svg id="graph" class="graph">
<g id="viewport">
<title>C:/Users/folae/Documents/Code/Big&#45;Projects/ScriptWizards/SmallGameLibrary/include/Small/Graphics.hpp</title>
<polygon fill="white" stroke="transparent" points="-4,4 -4,-225 2047,-225 2047,4 -4,4"/>
<!-- Node1 -->
<g id="node1" class="node">
<title>Node1</title>
<g id="a_node1"><a xlink:title="Include all the files from the Graphics folder.">
<polygon fill="#bfbfbf" stroke="black" points="937,-168.5 937,-220.5 1100,-220.5 1100,-168.5 937,-168.5"/>
<text text-anchor="start" x="945" y="-208.5" font-family="Helvetica,sans-Serif" font-size="10.00">C:/Users/folae/Documents</text>
<text text-anchor="start" x="945" y="-197.5" font-family="Helvetica,sans-Serif" font-size="10.00">/Code/Big&#45;Projects/ScriptWizards</text>
<text text-anchor="start" x="945" y="-186.5" font-family="Helvetica,sans-Serif" font-size="10.00">/SmallGameLibrary/include/Small</text>
<text text-anchor="middle" x="1018.5" y="-175.5" font-family="Helvetica,sans-Serif" font-size="10.00">/Graphics.hpp</text>
</a>
</g>
</g>
<!-- Node2 -->
<g id="node2" class="node">
<title>Node2</title>
<g id="a_node2"><a xlink:href="../../d0/d36/Animation_8hpp.html" target="_top" xlink:title="Handling animated sprites.">
<polygon fill="white" stroke="black" points="944,-56.5 944,-75.5 1093,-75.5 1093,-56.5 944,-56.5"/>
<text text-anchor="middle" x="1018.5" y="-63.5" font-family="Helvetica,sans-Serif" font-size="10.00">Small/Graphics/Animation.hpp</text>
</a>
</g>
</g>
<!-- Node1&#45;&gt;Node2 -->
<g id="edge1" class="edge">
<title>Node1&#45;&gt;Node2</title>
<path fill="none" stroke="midnightblue" d="M1018.5,-168.2C1018.5,-143.88 1018.5,-107.67 1018.5,-85.8"/>
<polygon fill="midnightblue" stroke="midnightblue" points="1022,-85.55 1018.5,-75.55 1015,-85.55 1022,-85.55"/>
</g>
<!-- Node14 -->
<g id="node14" class="node">
<title>Node14</title>
<g id="a_node14"><a xlink:href="../../d7/dc6/Node_8hpp.html" target="_top" xlink:title="A scene graph node.">
<polygon fill="white" stroke="black" points="503.5,-56.5 503.5,-75.5 631.5,-75.5 631.5,-56.5 503.5,-56.5"/>
<text text-anchor="middle" x="567.5" y="-63.5" font-family="Helvetica,sans-Serif" font-size="10.00">Small/Graphics/Node.hpp</text>
</a>
</g>
</g>
<!-- Node1&#45;&gt;Node14 -->
<g id="edge13" class="edge">
<title>Node1&#45;&gt;Node14</title>
<path fill="none" stroke="midnightblue" d="M936.83,-170.59C839.73,-143.36 681.58,-99 607.79,-78.3"/>
<polygon fill="midnightblue" stroke="midnightblue" points="608.53,-74.87 597.95,-75.54 606.64,-81.61 608.53,-74.87"/>
</g>
<!-- Node17 -->
<g id="node17" class="node">
<title>Node17</title>
<g id="a_node17"><a xlink:href="../../da/da5/Sprite_8hpp.html" target="_top" xlink:title=" ">
<polygon fill="white" stroke="black" points="548,-112.5 548,-131.5 679,-131.5 679,-112.5 548,-112.5"/>
<text text-anchor="middle" x="613.5" y="-119.5" font-family="Helvetica,sans-Serif" font-size="10.00">Small/Graphics/Sprite.hpp</text>
</a>
</g>
</g>
<!-- Node1&#45;&gt;Node17 -->
<g id="edge19" class="edge">
<title>Node1&#45;&gt;Node17</title>
<path fill="none" stroke="midnightblue" d="M936.54,-179.23C858.22,-165.6 742.09,-145.38 672.48,-133.27"/>
<polygon fill="midnightblue" stroke="midnightblue" points="673.02,-129.81 662.56,-131.54 671.82,-136.7 673.02,-129.81"/>
</g>
<!-- Node22 -->
<g id="node22" class="node">
<title>Node22</title>
<g id="a_node22"><a xlink:href="../../de/d4d/Tilemap_8hpp.html" target="_top" xlink:title="A tilemap wrapper, to render a lot of sprites in a single draw call.">
<polygon fill="white" stroke="black" points="1457,-56.5 1457,-75.5 1596,-75.5 1596,-56.5 1457,-56.5"/>
<text text-anchor="middle" x="1526.5" y="-63.5" font-family="Helvetica,sans-Serif" font-size="10.00">Small/Graphics/Tilemap.hpp</text>
</a>
</g>
</g>
<!-- Node1&#45;&gt;Node22 -->
<g id="edge30" class="edge">
<title>Node1&#45;&gt;Node22</title>
<path fill="none" stroke="midnightblue" d="M1100.21,-180.39C1163.75,-169.49 1253.86,-152.48 1331.5,-132 1389.78,-116.63 1456.04,-93.24 1494.38,-79.11"/>
<polygon fill="midnightblue" stroke="midnightblue" points="1495.81,-82.32 1503.97,-75.56 1493.38,-75.75 1495.81,-82.32"/>
</g>
<!-- Node25 -->
<g id="node25" class="node">
<title>Node25</title>
<g id="a_node25"><a xlink:href="../../d8/d67/TileView_8hpp.html" target="_top" xlink:title="Utility to build and manipulate views based on tiles.">
<polygon fill="white" stroke="black" points="1181,-112.5 1181,-131.5 1322,-131.5 1322,-112.5 1181,-112.5"/>
<text text-anchor="middle" x="1251.5" y="-119.5" font-family="Helvetica,sans-Serif" font-size="10.00">Small/Graphics/TileView.hpp</text>
</a>
</g>
</g>
<!-- Node1&#45;&gt;Node25 -->
<g id="edge37" class="edge">
<title>Node1&#45;&gt;Node25</title>
<path fill="none" stroke="midnightblue" d="M1100.32,-168.74C1138.84,-157.09 1182.93,-143.75 1213.52,-134.49"/>
<polygon fill="midnightblue" stroke="midnightblue" points="1214.79,-137.77 1223.34,-131.52 1212.76,-131.07 1214.79,-137.77"/>
</g>
<!-- Node3 -->
<g id="node3" class="node">
<title>Node3</title>
<g id="a_node3"><a xlink:title=" ">
<polygon fill="white" stroke="#bfbfbf" points="596,-0.5 596,-19.5 723,-19.5 723,-0.5 596,-0.5"/>
<text text-anchor="middle" x="659.5" y="-7.5" font-family="Helvetica,sans-Serif" font-size="10.00">SFML/Graphics/Rect.hpp</text>
</a>
</g>
</g>
<!-- Node2&#45;&gt;Node3 -->
<g id="edge2" class="edge">
<title>Node2&#45;&gt;Node3</title>
<path fill="none" stroke="midnightblue" d="M961.62,-56.44C897.68,-46.83 793.98,-31.23 726.25,-21.04"/>
<polygon fill="midnightblue" stroke="midnightblue" points="726.53,-17.54 716.12,-19.52 725.49,-24.47 726.53,-17.54"/>
</g>
<!-- Node4 -->
<g id="node4" class="node">
<title>Node4</title>
<g id="a_node4"><a xlink:title=" ">
<polygon fill="white" stroke="#bfbfbf" points="800,-0.5 800,-19.5 939,-19.5 939,-0.5 800,-0.5"/>
<text text-anchor="middle" x="869.5" y="-7.5" font-family="Helvetica,sans-Serif" font-size="10.00">SFML/Graphics/Texture.hpp</text>
</a>
</g>
</g>
<!-- Node2&#45;&gt;Node4 -->
<g id="edge3" class="edge">
<title>Node2&#45;&gt;Node4</title>
<path fill="none" stroke="midnightblue" d="M994.89,-56.44C970.04,-47.44 930.73,-33.19 902.75,-23.05"/>
<polygon fill="midnightblue" stroke="midnightblue" points="903.59,-19.63 893,-19.52 901.21,-26.21 903.59,-19.63"/>
</g>
<!-- Node5 -->
<g id="node5" class="node">
<title>Node5</title>
<g id="a_node5"><a xlink:title=" ">
<polygon fill="white" stroke="#bfbfbf" points="1271.5,-0.5 1271.5,-19.5 1435.5,-19.5 1435.5,-0.5 1271.5,-0.5"/>
<text text-anchor="middle" x="1353.5" y="-7.5" font-family="Helvetica,sans-Serif" font-size="10.00">SFML/Graphics/RenderTarget.hpp</text>
</a>
</g>
</g>
<!-- Node2&#45;&gt;Node5 -->
<g id="edge4" class="edge">
<title>Node2&#45;&gt;Node5</title>
<path fill="none" stroke="midnightblue" d="M1071.58,-56.44C1131,-46.87 1227.22,-31.36 1290.43,-21.17"/>
<polygon fill="midnightblue" stroke="midnightblue" points="1291.35,-24.56 1300.67,-19.52 1290.24,-17.65 1291.35,-24.56"/>
</g>
<!-- Node6 -->
<g id="node6" class="node">
<title>Node6</title>
<g id="a_node6"><a xlink:title=" ">
<polygon fill="white" stroke="#bfbfbf" points="957.5,-0.5 957.5,-19.5 1079.5,-19.5 1079.5,-0.5 957.5,-0.5"/>
<text text-anchor="middle" x="1018.5" y="-7.5" font-family="Helvetica,sans-Serif" font-size="10.00">SFML/System/Time.hpp</text>
</a>
</g>
</g>
<!-- Node2&#45;&gt;Node6 -->
<g id="edge5" class="edge">
<title>Node2&#45;&gt;Node6</title>
<path fill="none" stroke="midnightblue" d="M1018.5,-56.08C1018.5,-49.01 1018.5,-38.86 1018.5,-29.99"/>
<polygon fill="midnightblue" stroke="midnightblue" points="1022,-29.75 1018.5,-19.75 1015,-29.75 1022,-29.75"/>
</g>
<!-- Node7 -->
<g id="node7" class="node">
<title>Node7</title>
<g id="a_node7"><a xlink:title=" ">
<polygon fill="white" stroke="#bfbfbf" points="1453.5,-0.5 1453.5,-19.5 1599.5,-19.5 1599.5,-0.5 1453.5,-0.5"/>
<text text-anchor="middle" x="1526.5" y="-7.5" font-family="Helvetica,sans-Serif" font-size="10.00">SFML/Graphics/Drawable.hpp</text>
</a>
</g>
</g>
<!-- Node2&#45;&gt;Node7 -->
<g id="edge6" class="edge">
<title>Node2&#45;&gt;Node7</title>
<path fill="none" stroke="midnightblue" d="M1093.16,-57.21C1176.06,-48.53 1314.15,-34.02 1443.12,-20.14"/>
<polygon fill="midnightblue" stroke="midnightblue" points="1443.62,-23.61 1453.18,-19.06 1442.87,-16.65 1443.62,-23.61"/>
</g>
<!-- Node8 -->
<g id="node8" class="node">
<title>Node8</title>
<g id="a_node8"><a xlink:title=" ">
<polygon fill="white" stroke="#bfbfbf" points="1618,-0.5 1618,-19.5 1785,-19.5 1785,-0.5 1618,-0.5"/>
<text text-anchor="middle" x="1701.5" y="-7.5" font-family="Helvetica,sans-Serif" font-size="10.00">SFML/Graphics/Transformable.hpp</text>
</a>
</g>
</g>
<!-- Node2&#45;&gt;Node8 -->
<g id="edge7" class="edge">
<title>Node2&#45;&gt;Node8</title>
<path fill="none" stroke="midnightblue" d="M1093.05,-59.8C1203.11,-52.02 1415.83,-36.57 1607.86,-20.04"/>
<polygon fill="midnightblue" stroke="midnightblue" points="1608.19,-23.52 1617.86,-19.18 1607.59,-16.55 1608.19,-23.52"/>
</g>
<!-- Node9 -->
<g id="node9" class="node">
<title>Node9</title>
<g id="a_node9"><a xlink:title=" ">
<polygon fill="white" stroke="#bfbfbf" points="298,-0.5 298,-19.5 433,-19.5 433,-0.5 298,-0.5"/>
<text text-anchor="middle" x="365.5" y="-7.5" font-family="Helvetica,sans-Serif" font-size="10.00">SFML/System/Vector2.hpp</text>
</a>
</g>
</g>
<!-- Node2&#45;&gt;Node9 -->
<g id="edge8" class="edge">
<title>Node2&#45;&gt;Node9</title>
<path fill="none" stroke="midnightblue" d="M943.86,-60.09C835.89,-52.78 629.61,-38.04 443.08,-20.02"/>
<polygon fill="midnightblue" stroke="midnightblue" points="443.38,-16.53 433.09,-19.05 442.71,-23.5 443.38,-16.53"/>
</g>
<!-- Node10 -->
<g id="node10" class="node">
<title>Node10</title>
<g id="a_node10"><a xlink:title=" ">
<polygon fill="white" stroke="#bfbfbf" points="237.5,-0.5 237.5,-19.5 279.5,-19.5 279.5,-0.5 237.5,-0.5"/>
<text text-anchor="middle" x="258.5" y="-7.5" font-family="Helvetica,sans-Serif" font-size="10.00">vector</text>
</a>
</g>
</g>
<!-- Node2&#45;&gt;Node10 -->
<g id="edge9" class="edge">
<title>Node2&#45;&gt;Node10</title>
<path fill="none" stroke="midnightblue" d="M943.83,-61.37C777.44,-53.16 384.06,-32.94 289.65,-19.6"/>
<polygon fill="midnightblue" stroke="midnightblue" points="290.09,-16.12 279.66,-18 288.98,-23.03 290.09,-16.12"/>
</g>
<!-- Node11 -->
<g id="node11" class="node">
<title>Node11</title>
<g id="a_node11"><a xlink:title=" ">
<polygon fill="white" stroke="#bfbfbf" points="1097.5,-0.5 1097.5,-19.5 1151.5,-19.5 1151.5,-0.5 1097.5,-0.5"/>
<text text-anchor="middle" x="1124.5" y="-7.5" font-family="Helvetica,sans-Serif" font-size="10.00">toml.hpp</text>
</a>
</g>
</g>
<!-- Node2&#45;&gt;Node11 -->
<g id="edge10" class="edge">
<title>Node2&#45;&gt;Node11</title>
<path fill="none" stroke="midnightblue" d="M1035.53,-56.32C1052.53,-47.66 1078.88,-34.24 1098.49,-24.25"/>
<polygon fill="midnightblue" stroke="midnightblue" points="1100.19,-27.31 1107.51,-19.65 1097.01,-21.08 1100.19,-27.31"/>
</g>
<!-- Node12 -->
<g id="node12" class="node">
<title>Node12</title>
<g id="a_node12"><a xlink:title=" ">
<polygon fill="white" stroke="#bfbfbf" points="741,-0.5 741,-19.5 782,-19.5 782,-0.5 741,-0.5"/>
<text text-anchor="middle" x="761.5" y="-7.5" font-family="Helvetica,sans-Serif" font-size="10.00">string</text>
</a>
</g>
</g>
<!-- Node2&#45;&gt;Node12 -->
<g id="edge11" class="edge">
<title>Node2&#45;&gt;Node12</title>
<path fill="none" stroke="midnightblue" d="M966.99,-56.44C922.82,-48.74 857.32,-36.47 792.06,-20.2"/>
<polygon fill="midnightblue" stroke="midnightblue" points="792.57,-16.72 782.02,-17.66 790.86,-23.51 792.57,-16.72"/>
</g>
<!-- Node13 -->
<g id="node13" class="node">
<title>Node13</title>
<g id="a_node13"><a xlink:title=" ">
<polygon fill="white" stroke="#bfbfbf" points="1170,-0.5 1170,-19.5 1253,-19.5 1253,-0.5 1170,-0.5"/>
<text text-anchor="middle" x="1211.5" y="-7.5" font-family="Helvetica,sans-Serif" font-size="10.00">unordered_map</text>
</a>
</g>
</g>
<!-- Node2&#45;&gt;Node13 -->
<g id="edge12" class="edge">
<title>Node2&#45;&gt;Node13</title>
<path fill="none" stroke="midnightblue" d="M1049.08,-56.44C1082.11,-47.2 1134.89,-32.44 1171.27,-22.26"/>
<polygon fill="midnightblue" stroke="midnightblue" points="1172.37,-25.58 1181.06,-19.52 1170.49,-18.84 1172.37,-25.58"/>
</g>
<!-- Node14&#45;&gt;Node5 -->
<g id="edge14" class="edge">
<title>Node14&#45;&gt;Node5</title>
<path fill="none" stroke="midnightblue" d="M631.66,-59.8C648.22,-58.5 666.02,-57.16 682.5,-56 936.87,-38.15 1003.38,-40.65 1261.13,-20.08"/>
<polygon fill="midnightblue" stroke="midnightblue" points="1261.48,-23.57 1271.17,-19.28 1260.92,-16.59 1261.48,-23.57"/>
</g>
<!-- Node14&#45;&gt;Node9 -->
<g id="edge16" class="edge">
<title>Node14&#45;&gt;Node9</title>
<path fill="none" stroke="midnightblue" d="M535.49,-56.44C500.77,-47.16 445.21,-32.31 407.12,-22.13"/>
<polygon fill="midnightblue" stroke="midnightblue" points="407.92,-18.72 397.36,-19.52 406.11,-25.48 407.92,-18.72"/>
</g>
<!-- Node14&#45;&gt;Node10 -->
<g id="edge17" class="edge">
<title>Node14&#45;&gt;Node10</title>
<path fill="none" stroke="midnightblue" d="M503.32,-57.09C448.8,-49.82 368.35,-37.78 289.78,-20.05"/>
<polygon fill="midnightblue" stroke="midnightblue" points="290.24,-16.56 279.71,-17.74 288.68,-23.39 290.24,-16.56"/>
</g>
<!-- Node15 -->
<g id="node15" class="node">
<title>Node15</title>
<g id="a_node15"><a xlink:title=" ">
<polygon fill="white" stroke="#bfbfbf" points="0,-0.5 0,-19.5 149,-19.5 149,-0.5 0,-0.5"/>
<text text-anchor="middle" x="74.5" y="-7.5" font-family="Helvetica,sans-Serif" font-size="10.00">SFML/Graphics/Transform.hpp</text>
</a>
</g>
</g>
<!-- Node14&#45;&gt;Node15 -->
<g id="edge15" class="edge">
<title>Node14&#45;&gt;Node15</title>
<path fill="none" stroke="midnightblue" d="M503.41,-57.04C500.4,-56.68 497.42,-56.34 494.5,-56 493.46,-55.88 281.88,-33.21 159.46,-20.1"/>
<polygon fill="midnightblue" stroke="midnightblue" points="159.67,-16.6 149.36,-19.02 158.93,-23.56 159.67,-16.6"/>
</g>
<!-- Node16 -->
<g id="node16" class="node">
<title>Node16</title>
<g id="a_node16"><a xlink:title=" ">
<polygon fill="white" stroke="#bfbfbf" points="167.5,-0.5 167.5,-19.5 219.5,-19.5 219.5,-0.5 167.5,-0.5"/>
<text text-anchor="middle" x="193.5" y="-7.5" font-family="Helvetica,sans-Serif" font-size="10.00">memory</text>
</a>
</g>
</g>
<!-- Node14&#45;&gt;Node16 -->
<g id="edge18" class="edge">
<title>Node14&#45;&gt;Node16</title>
<path fill="none" stroke="midnightblue" d="M503.3,-56.9C419.45,-46.26 278.44,-28.15 229.85,-19.94"/>
<polygon fill="midnightblue" stroke="midnightblue" points="230.26,-16.46 219.8,-18.12 229.01,-23.35 230.26,-16.46"/>
</g>
<!-- Node17&#45;&gt;Node3 -->
<g id="edge24" class="edge">
<title>Node17&#45;&gt;Node3</title>
<path fill="none" stroke="midnightblue" d="M619.58,-112.4C625.57,-103.59 634.66,-89.36 640.5,-76 647.13,-60.85 652.21,-42.73 655.44,-29.48"/>
<polygon fill="midnightblue" stroke="midnightblue" points="658.87,-30.19 657.71,-19.66 652.05,-28.61 658.87,-30.19"/>
</g>
<!-- Node17&#45;&gt;Node5 -->
<g id="edge22" class="edge">
<title>Node17&#45;&gt;Node5</title>
<path fill="none" stroke="midnightblue" d="M679.06,-118.3C773.15,-113.67 951.67,-102.06 1101.5,-76 1179.01,-62.52 1267.65,-37.31 1316.44,-22.56"/>
<polygon fill="midnightblue" stroke="midnightblue" points="1317.67,-25.84 1326.22,-19.58 1315.64,-19.14 1317.67,-25.84"/>
</g>
<!-- Node17&#45;&gt;Node14 -->
<g id="edge25" class="edge">
<title>Node17&#45;&gt;Node14</title>
<path fill="none" stroke="midnightblue" d="M605.9,-112.08C599.27,-104.3 589.48,-92.8 581.44,-83.37"/>
<polygon fill="midnightblue" stroke="midnightblue" points="584.1,-81.09 574.95,-75.75 578.77,-85.63 584.1,-81.09"/>
</g>
<!-- Node17&#45;&gt;Node15 -->
<g id="edge23" class="edge">
<title>Node17&#45;&gt;Node15</title>
<path fill="none" stroke="midnightblue" d="M547.97,-115.74C479.61,-109.45 369.63,-97.02 276.5,-76 215.01,-62.12 145.48,-37.76 106.12,-23.12"/>
<polygon fill="midnightblue" stroke="midnightblue" points="107.15,-19.77 96.56,-19.54 104.69,-26.33 107.15,-19.77"/>
</g>
<!-- Node18 -->
<g id="node18" class="node">
<title>Node18</title>
<g id="a_node18"><a xlink:title=" ">
<polygon fill="white" stroke="#bfbfbf" points="285.5,-56.5 285.5,-75.5 335.5,-75.5 335.5,-56.5 285.5,-56.5"/>
<text text-anchor="middle" x="310.5" y="-63.5" font-family="Helvetica,sans-Serif" font-size="10.00">optional</text>
</a>
</g>
</g>
<!-- Node17&#45;&gt;Node18 -->
<g id="edge20" class="edge">
<title>Node17&#45;&gt;Node18</title>
<path fill="none" stroke="midnightblue" d="M552.83,-112.5C500.36,-104.77 422.28,-92.38 345.53,-76.06"/>
<polygon fill="midnightblue" stroke="midnightblue" points="346.2,-72.63 335.69,-73.95 344.73,-79.47 346.2,-72.63"/>
</g>
<!-- Node19 -->
<g id="node19" class="node">
<title>Node19</title>
<g id="a_node19"><a xlink:title=" ">
<polygon fill="white" stroke="#bfbfbf" points="353.5,-56.5 353.5,-75.5 485.5,-75.5 485.5,-56.5 353.5,-56.5"/>
<text text-anchor="middle" x="419.5" y="-63.5" font-family="Helvetica,sans-Serif" font-size="10.00">SFML/Graphics/Sprite.hpp</text>
</a>
</g>
</g>
<!-- Node17&#45;&gt;Node19 -->
<g id="edge21" class="edge">
<title>Node17&#45;&gt;Node19</title>
<path fill="none" stroke="midnightblue" d="M582.76,-112.44C549.56,-103.2 496.51,-88.44 459.94,-78.26"/>
<polygon fill="midnightblue" stroke="midnightblue" points="460.67,-74.83 450.1,-75.52 458.79,-81.57 460.67,-74.83"/>
</g>
<!-- Node20 -->
<g id="node20" class="node">
<title>Node20</title>
<g id="a_node20"><a xlink:href="../../db/d73/Ressource_8hpp.html" target="_top" xlink:title=" ">
<polygon fill="white" stroke="black" points="692,-56.5 692,-75.5 825,-75.5 825,-56.5 692,-56.5"/>
<text text-anchor="middle" x="758.5" y="-63.5" font-family="Helvetica,sans-Serif" font-size="10.00">Small/Core/Ressource.hpp</text>
</a>
</g>
</g>
<!-- Node17&#45;&gt;Node20 -->
<g id="edge26" class="edge">
<title>Node17&#45;&gt;Node20</title>
<path fill="none" stroke="midnightblue" d="M636.48,-112.44C660.66,-103.44 698.92,-89.19 726.15,-79.05"/>
<polygon fill="midnightblue" stroke="midnightblue" points="727.48,-82.29 735.63,-75.52 725.04,-75.73 727.48,-82.29"/>
</g>
<!-- Node20&#45;&gt;Node4 -->
<g id="edge28" class="edge">
<title>Node20&#45;&gt;Node4</title>
<path fill="none" stroke="midnightblue" d="M776.33,-56.32C794.22,-47.62 821.98,-34.12 842.55,-24.11"/>
<polygon fill="midnightblue" stroke="midnightblue" points="844.25,-27.18 851.71,-19.65 841.19,-20.88 844.25,-27.18"/>
</g>
<!-- Node20&#45;&gt;Node12 -->
<g id="edge27" class="edge">
<title>Node20&#45;&gt;Node12</title>
<path fill="none" stroke="midnightblue" d="M759,-56.08C759.39,-49.01 759.95,-38.86 760.45,-29.99"/>
<polygon fill="midnightblue" stroke="midnightblue" points="763.95,-29.93 761.01,-19.75 756.96,-29.54 763.95,-29.93"/>
</g>
<!-- Node21 -->
<g id="node21" class="node">
<title>Node21</title>
<g id="a_node21"><a xlink:title=" ">
<polygon fill="white" stroke="#bfbfbf" points="451.5,-0.5 451.5,-19.5 577.5,-19.5 577.5,-0.5 451.5,-0.5"/>
<text text-anchor="middle" x="514.5" y="-7.5" font-family="Helvetica,sans-Serif" font-size="10.00">SFML/Graphics/Font.hpp</text>
</a>
</g>
</g>
<!-- Node20&#45;&gt;Node21 -->
<g id="edge29" class="edge">
<title>Node20&#45;&gt;Node21</title>
<path fill="none" stroke="midnightblue" d="M719.84,-56.44C677.36,-47.04 609.07,-31.93 563.03,-21.74"/>
<polygon fill="midnightblue" stroke="midnightblue" points="563.5,-18.26 552.98,-19.52 561.99,-25.09 563.5,-18.26"/>
</g>
<!-- Node22&#45;&gt;Node4 -->
<g id="edge33" class="edge">
<title>Node22&#45;&gt;Node4</title>
<path fill="none" stroke="midnightblue" d="M1456.97,-59.26C1443.54,-58.17 1429.58,-57.04 1416.5,-56 1211.79,-39.75 1157.85,-39.8 949.32,-20.05"/>
<polygon fill="midnightblue" stroke="midnightblue" points="949.56,-16.55 939.27,-19.09 948.9,-23.52 949.56,-16.55"/>
</g>
<!-- Node22&#45;&gt;Node5 -->
<g id="edge34" class="edge">
<title>Node22&#45;&gt;Node5</title>
<path fill="none" stroke="midnightblue" d="M1499.09,-56.44C1469.73,-47.28 1422.98,-32.69 1390.4,-22.52"/>
<polygon fill="midnightblue" stroke="midnightblue" points="1391.37,-19.16 1380.78,-19.52 1389.29,-25.84 1391.37,-19.16"/>
</g>
<!-- Node22&#45;&gt;Node7 -->
<g id="edge31" class="edge">
<title>Node22&#45;&gt;Node7</title>
<path fill="none" stroke="midnightblue" d="M1526.5,-56.08C1526.5,-49.01 1526.5,-38.86 1526.5,-29.99"/>
<polygon fill="midnightblue" stroke="midnightblue" points="1530,-29.75 1526.5,-19.75 1523,-29.75 1530,-29.75"/>
</g>
<!-- Node22&#45;&gt;Node8 -->
<g id="edge32" class="edge">
<title>Node22&#45;&gt;Node8</title>
<path fill="none" stroke="midnightblue" d="M1554.23,-56.44C1583.93,-47.28 1631.22,-32.69 1664.17,-22.52"/>
<polygon fill="midnightblue" stroke="midnightblue" points="1665.38,-25.81 1673.9,-19.52 1663.31,-19.12 1665.38,-25.81"/>
</g>
<!-- Node23 -->
<g id="node23" class="node">
<title>Node23</title>
<g id="a_node23"><a xlink:title=" ">
<polygon fill="white" stroke="#bfbfbf" points="1803.5,-0.5 1803.5,-19.5 1961.5,-19.5 1961.5,-0.5 1803.5,-0.5"/>
<text text-anchor="middle" x="1882.5" y="-7.5" font-family="Helvetica,sans-Serif" font-size="10.00">SFML/Graphics/VertexArray.hpp</text>
</a>
</g>
</g>
<!-- Node22&#45;&gt;Node23 -->
<g id="edge35" class="edge">
<title>Node22&#45;&gt;Node23</title>
<path fill="none" stroke="midnightblue" d="M1582.91,-56.44C1646.31,-46.83 1749.15,-31.23 1816.3,-21.04"/>
<polygon fill="midnightblue" stroke="midnightblue" points="1816.99,-24.48 1826.35,-19.52 1815.94,-17.56 1816.99,-24.48"/>
</g>
<!-- Node24 -->
<g id="node24" class="node">
<title>Node24</title>
<g id="a_node24"><a xlink:title=" ">
<polygon fill="white" stroke="#bfbfbf" points="1980,-0.5 1980,-19.5 2043,-19.5 2043,-0.5 1980,-0.5"/>
<text text-anchor="middle" x="2011.5" y="-7.5" font-family="Helvetica,sans-Serif" font-size="10.00">Tilemap.inl</text>
</a>
</g>
</g>
<!-- Node22&#45;&gt;Node24 -->
<g id="edge36" class="edge">
<title>Node22&#45;&gt;Node24</title>
<path fill="none" stroke="midnightblue" d="M1596.04,-60.44C1681.66,-54.27 1831.67,-41.65 1969.86,-19.92"/>
<polygon fill="midnightblue" stroke="midnightblue" points="1970.46,-23.37 1979.78,-18.34 1969.36,-16.46 1970.46,-23.37"/>
</g>
<!-- Node25&#45;&gt;Node5 -->
<g id="edge39" class="edge">
<title>Node25&#45;&gt;Node5</title>
<path fill="none" stroke="midnightblue" d="M1251.94,-112.46C1253.04,-99.05 1256.91,-72.83 1270.5,-56 1282.38,-41.29 1300.4,-30.7 1316.63,-23.5"/>
<polygon fill="midnightblue" stroke="midnightblue" points="1318.01,-26.71 1325.91,-19.65 1315.33,-20.25 1318.01,-26.71"/>
</g>
<!-- Node26 -->
<g id="node26" class="node">
<title>Node26</title>
<g id="a_node26"><a xlink:title=" ">
<polygon fill="white" stroke="#bfbfbf" points="1279.5,-56.5 1279.5,-75.5 1407.5,-75.5 1407.5,-56.5 1279.5,-56.5"/>
<text text-anchor="middle" x="1343.5" y="-63.5" font-family="Helvetica,sans-Serif" font-size="10.00">SFML/Graphics/View.hpp</text>
</a>
</g>
</g>
<!-- Node25&#45;&gt;Node26 -->
<g id="edge38" class="edge">
<title>Node25&#45;&gt;Node26</title>
<path fill="none" stroke="midnightblue" d="M1266.28,-112.32C1280.77,-103.82 1303.07,-90.73 1319.99,-80.8"/>
<polygon fill="midnightblue" stroke="midnightblue" points="1321.9,-83.74 1328.76,-75.65 1318.36,-77.7 1321.9,-83.74"/>
</g>
</g>
</svg>
        <g id="navigator" transform="translate(0 0)" fill="#404254">
                <rect fill="#f2f5e9" fill-opacity="0.5" stroke="#606060" stroke-width=".5" x="0" y="0" width="60" height="60"/>
                <use id="zoomplus" xlink:href="#zoomPlus" x="17" y="9" onmousedown="handleZoom(evt,'in')"/>
                <use id="zoomminus" xlink:href="#zoomMin" x="42" y="9" onmousedown="handleZoom(evt,'out')"/>
                <use id="reset" xlink:href="#resetDef" x="30" y="36" onmousedown="handleReset()"/>
                <g id="arrowUp" xlink:href="#dirArrow" transform="translate(30 24)" onmousedown="handlePan(0,-1)">
                  <use xlink:href="#rim" fill="#404040">
                        <set attributeName="fill" to="#808080" begin="arrowUp.mouseover" end="arrowUp.mouseout"/>
                  </use>
                  <path fill="none" stroke="white" stroke-width="1.5" d="M0,-3.0v7 M-2.5,-0.5L0,-3.0L2.5,-0.5"/>
                </g>
                <g id="arrowRight" xlink:href="#dirArrow" transform="rotate(90) translate(36 -43)" onmousedown="handlePan(1,0)">
                  <use xlink:href="#rim" fill="#404040">
                        <set attributeName="fill" to="#808080" begin="arrowRight.mouseover" end="arrowRight.mouseout"/>
                  </use>
                  <path fill="none" stroke="white" stroke-width="1.5" d="M0,-3.0v7 M-2.5,-0.5L0,-3.0L2.5,-0.5"/>
                </g>
                <g id="arrowDown" xlink:href="#dirArrow" transform="rotate(180) translate(-30 -48)" onmousedown="handlePan(0,1)">
                  <use xlink:href="#rim" fill="#404040">
                        <set attributeName="fill" to="#808080" begin="arrowDown.mouseover" end="arrowDown.mouseout"/>
                  </use>
                  <path fill="none" stroke="white" stroke-width="1.5" d="M0,-3.0v7 M-2.5,-0.5L0,-3.0L2.5,-0.5"/>
                </g>
                <g id="arrowLeft" xlink:href="#dirArrow" transform="rotate(270) translate(-36 17)" onmousedown="handlePan(-1,0)">
                  <use xlink:href="#rim" fill="#404040">
                        <set attributeName="fill" to="#808080" begin="arrowLeft.mouseover" end="arrowLeft.mouseout"/>
                  </use>
                  <path fill="none" stroke="white" stroke-width="1.5" d="M0,-3.0v7 M-2.5,-0.5L0,-3.0L2.5,-0.5"/>
                </g>
        </g>
        <svg viewBox="0 0 15 15" width="100%" height="30px" preserveAspectRatio="xMaxYMin meet">
         <g id="arrow_out" transform="scale(0.3 0.3)">
          <a xlink:href="Graphics_8hpp__incl_org.svg" target="_base">
           <rect id="button" ry="5" rx="5" y="6" x="6" height="38" width="38"
                fill="#f2f5e9" fill-opacity="0.5" stroke="#606060" stroke-width="1.0"/>
           <path id="arrow"
             d="M 11.500037,31.436501 C 11.940474,20.09759 22.043105,11.32322 32.158766,21.979434 L 37.068811,17.246167 C 37.068811,17.246167 37.088388,32 37.088388,32 L 22.160133,31.978069 C 22.160133,31.978069 26.997745,27.140456 26.997745,27.140456 C 18.528582,18.264221 13.291696,25.230495 11.500037,31.436501 z"
             style="fill:#404040;"/>
          </a>
         </g>
        </svg>
</svg>
