<?xml version="1.0" encoding="UTF-8" standalone="no"?>
<!DOCTYPE svg PUBLIC "-//W3C//DTD SVG 1.1//EN"
 "http://www.w3.org/Graphics/SVG/1.1/DTD/svg11.dtd">
<!-- Generated by graphviz version 2.38.0 (20140413.2041)
 -->
<!-- Title: sgl::Graphics::AnimatedSprite Pages: 1 -->
<svg width="188pt" height="84pt"
 viewBox="0.00 0.00 187.50 84.00" xmlns="http://www.w3.org/2000/svg" xmlns:xlink="http://www.w3.org/1999/xlink">
<g id="graph0" class="graph" transform="scale(1 1) rotate(0) translate(4 80)">
<title>sgl::Graphics::AnimatedSprite</title>
<polygon fill="white" stroke="none" points="-4,4 -4,-80 183.5,-80 183.5,4 -4,4"/>
<!-- Node1 -->
<g id="node1" class="node"><title>Node1</title>
<polygon fill="#bfbfbf" stroke="black" points="10.5,-0.5 10.5,-19.5 157.5,-19.5 157.5,-0.5 10.5,-0.5"/>
<text text-anchor="middle" x="84" y="-7.5" font-family="Helvetica,sans-Serif" font-size="10.00">sgl::Graphics::AnimatedSprite</text>
</g>
<!-- Node2 -->
<g id="node2" class="node"><title>Node2</title>
<polygon fill="white" stroke="#bfbfbf" points="0,-56.5 0,-75.5 70,-75.5 70,-56.5 0,-56.5"/>
<text text-anchor="middle" x="35" y="-63.5" font-family="Helvetica,sans-Serif" font-size="10.00">sf::Drawable</text>
</g>
<!-- Node2&#45;&gt;Node1 -->
<g id="edge1" class="edge"><title>Node2&#45;&gt;Node1</title>
<path fill="none" stroke="midnightblue" d="M50.0345,-48.4314C58.6222,-38.9673 69.0435,-27.4827 76.0592,-19.7511"/>
<polygon fill="midnightblue" stroke="midnightblue" points="47.2193,-46.3254 43.0914,-56.083 52.4033,-51.0293 47.2193,-46.3254"/>
</g>
<!-- Node3 -->
<g id="node3" class="node"><title>Node3</title>
<polygon fill="white" stroke="#bfbfbf" points="88.5,-56.5 88.5,-75.5 179.5,-75.5 179.5,-56.5 88.5,-56.5"/>
<text text-anchor="middle" x="134" y="-63.5" font-family="Helvetica,sans-Serif" font-size="10.00">sf::Transformable</text>
</g>
<!-- Node3&#45;&gt;Node1 -->
<g id="edge2" class="edge"><title>Node3&#45;&gt;Node1</title>
<path fill="none" stroke="midnightblue" d="M118.924,-48.7175C110.111,-39.1997 99.3341,-27.5608 92.1028,-19.7511"/>
<polygon fill="midnightblue" stroke="midnightblue" points="116.381,-51.1233 125.744,-56.083 121.518,-46.3674 116.381,-51.1233"/>
</g>
</g>
</svg>
