<?xml version="1.0" encoding="UTF-8" standalone="no"?>
<!DOCTYPE svg PUBLIC "-//W3C//DTD SVG 1.1//EN"
 "http://www.w3.org/Graphics/SVG/1.1/DTD/svg11.dtd">
<!-- Generated by graphviz version 2.38.0 (20140413.2041)
 -->
<!-- Title: include/Small/Scripting/SFMLtoArk.hpp Pages: 1 -->
<svg width="492pt" height="95pt"
 viewBox="0.00 0.00 491.50 95.00" xmlns="http://www.w3.org/2000/svg" xmlns:xlink="http://www.w3.org/1999/xlink">
<g id="graph0" class="graph" transform="scale(1 1) rotate(0) translate(4 91)">
<title>include/Small/Scripting/SFMLtoArk.hpp</title>
<polygon fill="white" stroke="none" points="-4,4 -4,-91 487.5,-91 487.5,4 -4,4"/>
<!-- Node1 -->
<g id="node1" class="node"><title>Node1</title>
<polygon fill="#bfbfbf" stroke="black" points="162,-56.5 162,-86.5 278,-86.5 278,-56.5 162,-56.5"/>
<text text-anchor="start" x="170" y="-74.5" font-family="Helvetica,sans-Serif" font-size="10.00">include/Small/Scripting</text>
<text text-anchor="middle" x="220" y="-63.5" font-family="Helvetica,sans-Serif" font-size="10.00">/SFMLtoArk.hpp</text>
</g>
<!-- Node2 -->
<g id="node2" class="node"><title>Node2</title>
<polygon fill="white" stroke="#bfbfbf" points="0,-0.5 0,-19.5 68,-19.5 68,-0.5 0,-0.5"/>
<text text-anchor="middle" x="34" y="-7.5" font-family="Helvetica,sans-Serif" font-size="10.00">Ark/Ark.hpp</text>
</g>
<!-- Node1&#45;&gt;Node2 -->
<g id="edge1" class="edge"><title>Node1&#45;&gt;Node2</title>
<path fill="none" stroke="midnightblue" d="M175.921,-56.3993C143.781,-46.118 100.743,-32.3506 70.518,-22.6818"/>
<polygon fill="midnightblue" stroke="midnightblue" points="71.3841,-19.2842 60.7931,-19.5709 69.2513,-25.9514 71.3841,-19.2842"/>
</g>
<!-- Node3 -->
<g id="node3" class="node"><title>Node3</title>
<polygon fill="white" stroke="#bfbfbf" points="86,-0.5 86,-19.5 212,-19.5 212,-0.5 86,-0.5"/>
<text text-anchor="middle" x="149" y="-7.5" font-family="Helvetica,sans-Serif" font-size="10.00">SFML/Window/Event.hpp</text>
</g>
<!-- Node1&#45;&gt;Node3 -->
<g id="edge2" class="edge"><title>Node1&#45;&gt;Node3</title>
<path fill="none" stroke="midnightblue" d="M203.174,-56.3993C192.325,-47.3076 178.223,-35.4899 167.127,-26.1909"/>
<polygon fill="midnightblue" stroke="midnightblue" points="169.244,-23.3983 159.331,-19.6578 164.748,-28.7634 169.244,-23.3983"/>
</g>
<!-- Node4 -->
<g id="node4" class="node"><title>Node4</title>
<polygon fill="white" stroke="#bfbfbf" points="230,-0.5 230,-19.5 352,-19.5 352,-0.5 230,-0.5"/>
<text text-anchor="middle" x="291" y="-7.5" font-family="Helvetica,sans-Serif" font-size="10.00">SFML/System/Time.hpp</text>
</g>
<!-- Node1&#45;&gt;Node4 -->
<g id="edge3" class="edge"><title>Node1&#45;&gt;Node4</title>
<path fill="none" stroke="midnightblue" d="M236.826,-56.3993C247.675,-47.3076 261.777,-35.4899 272.873,-26.1909"/>
<polygon fill="midnightblue" stroke="midnightblue" points="275.252,-28.7634 280.669,-19.6578 270.756,-23.3983 275.252,-28.7634"/>
</g>
<!-- Node5 -->
<g id="node5" class="node"><title>Node5</title>
<polygon fill="white" stroke="#bfbfbf" points="370.5,-0.5 370.5,-19.5 483.5,-19.5 483.5,-0.5 370.5,-0.5"/>
<text text-anchor="middle" x="427" y="-7.5" font-family="Helvetica,sans-Serif" font-size="10.00">SFML/System/Utf.hpp</text>
</g>
<!-- Node1&#45;&gt;Node5 -->
<g id="edge4" class="edge"><title>Node1&#45;&gt;Node5</title>
<path fill="none" stroke="midnightblue" d="M268.794,-56.4747C304.974,-46.0752 353.669,-32.0783 387.436,-22.3722"/>
<polygon fill="midnightblue" stroke="midnightblue" points="388.762,-25.6328 397.406,-19.5064 386.829,-18.9052 388.762,-25.6328"/>
</g>
</g>
</svg>
