<?xml version="1.0" encoding="UTF-8" standalone="no"?>
<!DOCTYPE svg PUBLIC "-//W3C//DTD SVG 1.1//EN"
 "http://www.w3.org/Graphics/SVG/1.1/DTD/svg11.dtd">
<!-- Generated by graphviz version 2.49.0 (20210828.1703)
 -->
<!-- Title: C:/Users/folae/Documents/Code/Big&#45;Projects/ScriptWizards/SmallGameLibrary/include/Small/Core/RessourceManager.hpp Pages: 1 -->
<svg width="447pt" height="173pt"
 viewBox="0.00 0.00 447.00 173.00" xmlns="http://www.w3.org/2000/svg" xmlns:xlink="http://www.w3.org/1999/xlink">
<g id="graph0" class="graph" transform="scale(1 1) rotate(0) translate(4 169)">
<title>C:/Users/folae/Documents/Code/Big&#45;Projects/ScriptWizards/SmallGameLibrary/include/Small/Core/RessourceManager.hpp</title>
<polygon fill="white" stroke="transparent" points="-4,4 -4,-169 443,-169 443,4 -4,4"/>
<!-- Node1 -->
<g id="node1" class="node">
<title>Node1</title>
<g id="a_node1"><a xlink:title=" ">
<polygon fill="#bfbfbf" stroke="black" points="157,-112.5 157,-164.5 320,-164.5 320,-112.5 157,-112.5"/>
<text text-anchor="start" x="165" y="-152.5" font-family="Helvetica,sans-Serif" font-size="10.00">C:/Users/folae/Documents</text>
<text text-anchor="start" x="165" y="-141.5" font-family="Helvetica,sans-Serif" font-size="10.00">/Code/Big&#45;Projects/ScriptWizards</text>
<text text-anchor="start" x="165" y="-130.5" font-family="Helvetica,sans-Serif" font-size="10.00">/SmallGameLibrary/include/Small</text>
<text text-anchor="middle" x="238.5" y="-119.5" font-family="Helvetica,sans-Serif" font-size="10.00">/Core/RessourceManager.hpp</text>
</a>
</g>
</g>
<!-- Node2 -->
<g id="node2" class="node">
<title>Node2</title>
<g id="a_node2"><a xlink:title=" ">
<polygon fill="white" stroke="#bfbfbf" points="0,-0.5 0,-19.5 41,-19.5 41,-0.5 0,-0.5"/>
<text text-anchor="middle" x="20.5" y="-7.5" font-family="Helvetica,sans-Serif" font-size="10.00">string</text>
</a>
</g>
</g>
<!-- Node1&#45;&gt;Node2 -->
<g id="edge1" class="edge">
<title>Node1&#45;&gt;Node2</title>
<path fill="none" stroke="midnightblue" d="M156.86,-126.73C120.04,-118.24 78.24,-103.08 48.5,-76 35.18,-63.87 27.93,-44.31 24.17,-29.81"/>
<polygon fill="midnightblue" stroke="midnightblue" points="27.55,-28.9 21.93,-19.92 20.73,-30.45 27.55,-28.9"/>
</g>
<!-- Node3 -->
<g id="node3" class="node">
<title>Node3</title>
<g id="a_node3"><a xlink:title=" ">
<polygon fill="white" stroke="#bfbfbf" points="285.5,-56.5 285.5,-75.5 337.5,-75.5 337.5,-56.5 285.5,-56.5"/>
<text text-anchor="middle" x="311.5" y="-63.5" font-family="Helvetica,sans-Serif" font-size="10.00">memory</text>
</a>
</g>
</g>
<!-- Node1&#45;&gt;Node3 -->
<g id="edge2" class="edge">
<title>Node1&#45;&gt;Node3</title>
<path fill="none" stroke="midnightblue" d="M264.44,-112.45C274.71,-102.53 286.2,-91.43 295.26,-82.69"/>
<polygon fill="midnightblue" stroke="midnightblue" points="297.73,-85.16 302.5,-75.7 292.87,-80.12 297.73,-85.16"/>
</g>
<!-- Node4 -->
<g id="node4" class="node">
<title>Node4</title>
<g id="a_node4"><a xlink:title=" ">
<polygon fill="white" stroke="#bfbfbf" points="356,-56.5 356,-75.5 439,-75.5 439,-56.5 356,-56.5"/>
<text text-anchor="middle" x="397.5" y="-63.5" font-family="Helvetica,sans-Serif" font-size="10.00">unordered_map</text>
</a>
</g>
</g>
<!-- Node1&#45;&gt;Node4 -->
<g id="edge3" class="edge">
<title>Node1&#45;&gt;Node4</title>
<path fill="none" stroke="midnightblue" d="M295.01,-112.45C320.01,-101.36 348.34,-88.8 368.87,-79.7"/>
<polygon fill="midnightblue" stroke="midnightblue" points="370.55,-82.78 378.27,-75.53 367.71,-76.38 370.55,-82.78"/>
</g>
<!-- Node5 -->
<g id="node5" class="node">
<title>Node5</title>
<g id="a_node5"><a xlink:title=" ">
<polygon fill="white" stroke="#bfbfbf" points="59,-0.5 59,-19.5 198,-19.5 198,-0.5 59,-0.5"/>
<text text-anchor="middle" x="128.5" y="-7.5" font-family="Helvetica,sans-Serif" font-size="10.00">SFML/Graphics/Texture.hpp</text>
</a>
</g>
</g>
<!-- Node1&#45;&gt;Node5 -->
<g id="edge4" class="edge">
<title>Node1&#45;&gt;Node5</title>
<path fill="none" stroke="midnightblue" d="M230.95,-112.17C224.85,-94.88 214.88,-72.25 200.5,-56 188.64,-42.6 171.84,-31.78 157.45,-24.12"/>
<polygon fill="midnightblue" stroke="midnightblue" points="158.92,-20.94 148.41,-19.54 155.75,-27.19 158.92,-20.94"/>
</g>
<!-- Node6 -->
<g id="node6" class="node">
<title>Node6</title>
<g id="a_node6"><a xlink:title=" ">
<polygon fill="white" stroke="#bfbfbf" points="216.5,-0.5 216.5,-19.5 342.5,-19.5 342.5,-0.5 216.5,-0.5"/>
<text text-anchor="middle" x="279.5" y="-7.5" font-family="Helvetica,sans-Serif" font-size="10.00">SFML/Graphics/Font.hpp</text>
</a>
</g>
</g>
<!-- Node1&#45;&gt;Node6 -->
<g id="edge5" class="edge">
<title>Node1&#45;&gt;Node6</title>
<path fill="none" stroke="midnightblue" d="M246.7,-112.2C254.65,-87.66 266.53,-51 273.6,-29.2"/>
<polygon fill="midnightblue" stroke="midnightblue" points="276.98,-30.14 276.73,-19.55 270.32,-27.98 276.98,-30.14"/>
</g>
<!-- Node7 -->
<g id="node7" class="node">
<title>Node7</title>
<g id="a_node7"><a xlink:href="../../db/d73/Ressource_8hpp.html" target="_top" xlink:title=" ">
<polygon fill="white" stroke="black" points="58,-56.5 58,-75.5 191,-75.5 191,-56.5 58,-56.5"/>
<text text-anchor="middle" x="124.5" y="-63.5" font-family="Helvetica,sans-Serif" font-size="10.00">Small/Core/Ressource.hpp</text>
</a>
</g>
</g>
<!-- Node1&#45;&gt;Node7 -->
<g id="edge6" class="edge">
<title>Node1&#45;&gt;Node7</title>
<path fill="none" stroke="midnightblue" d="M197.99,-112.45C180.87,-101.86 161.59,-89.94 147.07,-80.96"/>
<polygon fill="midnightblue" stroke="midnightblue" points="148.63,-77.81 138.29,-75.53 144.95,-83.76 148.63,-77.81"/>
</g>
<!-- Node7&#45;&gt;Node2 -->
<g id="edge7" class="edge">
<title>Node7&#45;&gt;Node2</title>
<path fill="none" stroke="midnightblue" d="M107.79,-56.32C91.19,-47.7 65.5,-34.36 46.28,-24.39"/>
<polygon fill="midnightblue" stroke="midnightblue" points="47.66,-21.16 37.17,-19.65 44.43,-27.37 47.66,-21.16"/>
</g>
<!-- Node7&#45;&gt;Node5 -->
<g id="edge8" class="edge">
<title>Node7&#45;&gt;Node5</title>
<path fill="none" stroke="midnightblue" d="M125.16,-56.08C125.68,-49.01 126.44,-38.86 127.09,-29.99"/>
<polygon fill="midnightblue" stroke="midnightblue" points="130.6,-29.98 127.85,-19.75 123.62,-29.47 130.6,-29.98"/>
</g>
<!-- Node7&#45;&gt;Node6 -->
<g id="edge9" class="edge">
<title>Node7&#45;&gt;Node6</title>
<path fill="none" stroke="midnightblue" d="M149.06,-56.44C175.02,-47.4 216.17,-33.06 245.3,-22.92"/>
<polygon fill="midnightblue" stroke="midnightblue" points="246.76,-26.11 255.05,-19.52 244.46,-19.5 246.76,-26.11"/>
</g>
</g>
</svg>
