<?xml version="1.0" encoding="UTF-8" standalone="no"?>
<!DOCTYPE svg PUBLIC "-//W3C//DTD SVG 1.1//EN"
 "http://www.w3.org/Graphics/SVG/1.1/DTD/svg11.dtd">
<!-- Generated by graphviz version 2.49.0 (20210828.1703)
 -->
<!-- Title: C:/Users/folae/Documents/Code/Big&#45;Projects/ScriptWizards/SmallGameLibrary/include/Small/System/FileSystem.hpp Pages: 1 -->
<svg width="746pt" height="228pt"
 viewBox="0.00 0.00 745.50 228.00" xmlns="http://www.w3.org/2000/svg" xmlns:xlink="http://www.w3.org/1999/xlink">
<g id="graph0" class="graph" transform="scale(1 1) rotate(0) translate(4 224)">
<title>C:/Users/folae/Documents/Code/Big&#45;Projects/ScriptWizards/SmallGameLibrary/include/Small/System/FileSystem.hpp</title>
<polygon fill="white" stroke="transparent" points="-4,4 -4,-224 741.5,-224 741.5,4 -4,4"/>
<!-- Node1 -->
<g id="node1" class="node">
<title>Node1</title>
<g id="a_node1"><a xlink:title="Useful functionalities related to the filesystem.">
<polygon fill="#bfbfbf" stroke="black" points="289.5,-167.5 289.5,-219.5 452.5,-219.5 452.5,-167.5 289.5,-167.5"/>
<text text-anchor="start" x="297.5" y="-207.5" font-family="Helvetica,sans-Serif" font-size="10.00">C:/Users/folae/Documents</text>
<text text-anchor="start" x="297.5" y="-196.5" font-family="Helvetica,sans-Serif" font-size="10.00">/Code/Big&#45;Projects/ScriptWizards</text>
<text text-anchor="start" x="297.5" y="-185.5" font-family="Helvetica,sans-Serif" font-size="10.00">/SmallGameLibrary/include/Small</text>
<text text-anchor="middle" x="371" y="-174.5" font-family="Helvetica,sans-Serif" font-size="10.00">/System/FileSystem.hpp</text>
</a>
</g>
</g>
<!-- Node2 -->
<g id="node2" class="node">
<title>Node2</title>
<g id="a_node2"><a xlink:href="../../d4/d25/System_8hpp.html" target="_top" xlink:title="Include all the files from the System folder.">
<polygon fill="white" stroke="black" points="15.5,-78.5 15.5,-130.5 178.5,-130.5 178.5,-78.5 15.5,-78.5"/>
<text text-anchor="start" x="23.5" y="-118.5" font-family="Helvetica,sans-Serif" font-size="10.00">C:/Users/folae/Documents</text>
<text text-anchor="start" x="23.5" y="-107.5" font-family="Helvetica,sans-Serif" font-size="10.00">/Code/Big&#45;Projects/ScriptWizards</text>
<text text-anchor="start" x="23.5" y="-96.5" font-family="Helvetica,sans-Serif" font-size="10.00">/SmallGameLibrary/include/Small</text>
<text text-anchor="middle" x="97" y="-85.5" font-family="Helvetica,sans-Serif" font-size="10.00">/System.hpp</text>
</a>
</g>
</g>
<!-- Node1&#45;&gt;Node2 -->
<g id="edge1" class="edge">
<title>Node1&#45;&gt;Node2</title>
<path fill="none" stroke="midnightblue" d="M282.56,-164.42C248.21,-153.51 209.17,-141.12 175.8,-130.52"/>
<polygon fill="midnightblue" stroke="midnightblue" points="281.53,-167.76 292.12,-167.45 283.64,-161.09 281.53,-167.76"/>
</g>
<!-- Node4 -->
<g id="node4" class="node">
<title>Node4</title>
<g id="a_node4"><a xlink:href="../../d2/db6/Application_8cpp.html" target="_top" xlink:title=" ">
<polygon fill="white" stroke="black" points="196.5,-78.5 196.5,-130.5 359.5,-130.5 359.5,-78.5 196.5,-78.5"/>
<text text-anchor="start" x="204.5" y="-118.5" font-family="Helvetica,sans-Serif" font-size="10.00">C:/Users/folae/Documents</text>
<text text-anchor="start" x="204.5" y="-107.5" font-family="Helvetica,sans-Serif" font-size="10.00">/Code/Big&#45;Projects/ScriptWizards</text>
<text text-anchor="start" x="204.5" y="-96.5" font-family="Helvetica,sans-Serif" font-size="10.00">/SmallGameLibrary/source/Core</text>
<text text-anchor="middle" x="278" y="-85.5" font-family="Helvetica,sans-Serif" font-size="10.00">/Application.cpp</text>
</a>
</g>
</g>
<!-- Node1&#45;&gt;Node4 -->
<g id="edge3" class="edge">
<title>Node1&#45;&gt;Node4</title>
<path fill="none" stroke="midnightblue" d="M336.65,-160.36C326.15,-150.54 314.76,-139.89 304.84,-130.61"/>
<polygon fill="midnightblue" stroke="midnightblue" points="334.41,-163.06 344.1,-167.34 339.19,-157.95 334.41,-163.06"/>
</g>
<!-- Node5 -->
<g id="node5" class="node">
<title>Node5</title>
<g id="a_node5"><a xlink:href="../../d6/d0c/Engine_8cpp.html" target="_top" xlink:title=" ">
<polygon fill="white" stroke="black" points="377.5,-78.5 377.5,-130.5 550.5,-130.5 550.5,-78.5 377.5,-78.5"/>
<text text-anchor="start" x="385.5" y="-118.5" font-family="Helvetica,sans-Serif" font-size="10.00">C:/Users/folae/Documents</text>
<text text-anchor="start" x="385.5" y="-107.5" font-family="Helvetica,sans-Serif" font-size="10.00">/Code/Big&#45;Projects/ScriptWizards</text>
<text text-anchor="start" x="385.5" y="-96.5" font-family="Helvetica,sans-Serif" font-size="10.00">/SmallGameLibrary/source/Scripting</text>
<text text-anchor="middle" x="464" y="-85.5" font-family="Helvetica,sans-Serif" font-size="10.00">/Engine.cpp</text>
</a>
</g>
</g>
<!-- Node1&#45;&gt;Node5 -->
<g id="edge4" class="edge">
<title>Node1&#45;&gt;Node5</title>
<path fill="none" stroke="midnightblue" d="M405.35,-160.36C415.85,-150.54 427.24,-139.89 437.16,-130.61"/>
<polygon fill="midnightblue" stroke="midnightblue" points="402.81,-157.95 397.9,-167.34 407.59,-163.06 402.81,-157.95"/>
</g>
<!-- Node6 -->
<g id="node6" class="node">
<title>Node6</title>
<g id="a_node6"><a xlink:href="../../d3/d50/FileSystem_8cpp.html" target="_top" xlink:title=" ">
<polygon fill="white" stroke="black" points="568.5,-78.5 568.5,-130.5 737.5,-130.5 737.5,-78.5 568.5,-78.5"/>
<text text-anchor="start" x="576.5" y="-118.5" font-family="Helvetica,sans-Serif" font-size="10.00">C:/Users/folae/Documents</text>
<text text-anchor="start" x="576.5" y="-107.5" font-family="Helvetica,sans-Serif" font-size="10.00">/Code/Big&#45;Projects/ScriptWizards</text>
<text text-anchor="start" x="576.5" y="-96.5" font-family="Helvetica,sans-Serif" font-size="10.00">/SmallGameLibrary/source/System</text>
<text text-anchor="middle" x="653" y="-85.5" font-family="Helvetica,sans-Serif" font-size="10.00">/FileSystem.cpp</text>
</a>
</g>
</g>
<!-- Node1&#45;&gt;Node6 -->
<g id="edge5" class="edge">
<title>Node1&#45;&gt;Node6</title>
<path fill="none" stroke="midnightblue" d="M462.02,-164.42C497.38,-153.51 537.55,-141.12 571.9,-130.52"/>
<polygon fill="midnightblue" stroke="midnightblue" points="460.71,-161.16 452.19,-167.45 462.78,-167.85 460.71,-161.16"/>
</g>
<!-- Node3 -->
<g id="node3" class="node">
<title>Node3</title>
<g id="a_node3"><a xlink:href="../../da/d41/All_8hpp.html" target="_top" xlink:title="Include the needed files to start a project using the library.">
<polygon fill="white" stroke="black" points="0,-0.5 0,-41.5 194,-41.5 194,-0.5 0,-0.5"/>
<text text-anchor="start" x="8" y="-29.5" font-family="Helvetica,sans-Serif" font-size="10.00">C:/Users/folae/Documents</text>
<text text-anchor="start" x="8" y="-18.5" font-family="Helvetica,sans-Serif" font-size="10.00">/Code/Big&#45;Projects/ScriptWizards</text>
<text text-anchor="middle" x="97" y="-7.5" font-family="Helvetica,sans-Serif" font-size="10.00">/SmallGameLibrary/include/Small/All.hpp</text>
</a>
</g>
</g>
<!-- Node2&#45;&gt;Node3 -->
<g id="edge2" class="edge">
<title>Node2&#45;&gt;Node3</title>
<path fill="none" stroke="midnightblue" d="M97,-68.15C97,-59.05 97,-49.6 97,-41.63"/>
<polygon fill="midnightblue" stroke="midnightblue" points="93.5,-68.16 97,-78.16 100.5,-68.16 93.5,-68.16"/>
</g>
</g>
</svg>
