<?xml version="1.0" encoding="UTF-8" standalone="no"?>
<!DOCTYPE svg PUBLIC "-//W3C//DTD SVG 1.1//EN"
 "http://www.w3.org/Graphics/SVG/1.1/DTD/svg11.dtd">
<!-- Generated by graphviz version 2.38.0 (20140413.2041)
 -->
<!-- Title: sgl::Graphics::Tilemap Pages: 1 -->
<svg width="160pt" height="84pt"
 viewBox="0.00 0.00 159.50 84.00" xmlns="http://www.w3.org/2000/svg" xmlns:xlink="http://www.w3.org/1999/xlink">
<g id="graph0" class="graph" transform="scale(1 1) rotate(0) translate(4 80)">
<title>sgl::Graphics::Tilemap</title>
<polygon fill="white" stroke="none" points="-4,4 -4,-80 155.5,-80 155.5,4 -4,4"/>
<!-- Node1 -->
<g id="node1" class="node"><title>Node1</title>
<polygon fill="#bfbfbf" stroke="black" points="13,-0.5 13,-19.5 127,-19.5 127,-0.5 13,-0.5"/>
<text text-anchor="middle" x="70" y="-7.5" font-family="Helvetica,sans-Serif" font-size="10.00">sgl::Graphics::Tilemap</text>
</g>
<!-- Node2 -->
<g id="node2" class="node"><title>Node2</title>
<polygon fill="white" stroke="#bfbfbf" points="0,-56.5 0,-75.5 56,-75.5 56,-56.5 0,-56.5"/>
<text text-anchor="middle" x="28" y="-63.5" font-family="Helvetica,sans-Serif" font-size="10.00">Drawable</text>
</g>
<!-- Node2&#45;&gt;Node1 -->
<g id="edge1" class="edge"><title>Node2&#45;&gt;Node1</title>
<path fill="none" stroke="midnightblue" d="M41.1102,-48.144C48.4278,-38.7357 57.2409,-27.4046 63.1936,-19.7511"/>
<polygon fill="midnightblue" stroke="midnightblue" points="38.3122,-46.0406 34.9354,-56.083 43.8376,-50.3383 38.3122,-46.0406"/>
</g>
<!-- Node3 -->
<g id="node3" class="node"><title>Node3</title>
<polygon fill="white" stroke="#bfbfbf" points="74.5,-56.5 74.5,-75.5 151.5,-75.5 151.5,-56.5 74.5,-56.5"/>
<text text-anchor="middle" x="113" y="-63.5" font-family="Helvetica,sans-Serif" font-size="10.00">Transformable</text>
</g>
<!-- Node3&#45;&gt;Node1 -->
<g id="edge2" class="edge"><title>Node3&#45;&gt;Node1</title>
<path fill="none" stroke="midnightblue" d="M99.5776,-48.144C92.0858,-38.7357 83.0629,-27.4046 76.9685,-19.7511"/>
<polygon fill="midnightblue" stroke="midnightblue" points="96.9321,-50.4404 105.899,-56.083 102.408,-46.0799 96.9321,-50.4404"/>
</g>
</g>
</svg>
