<?xml version="1.0" encoding="UTF-8" standalone="no"?>
<!DOCTYPE svg PUBLIC "-//W3C//DTD SVG 1.1//EN"
 "http://www.w3.org/Graphics/SVG/1.1/DTD/svg11.dtd">
<!-- Generated by graphviz version 2.38.0 (20140413.2041)
 -->
<!-- Title: include/Small/Graphics/TileView.hpp Pages: 1 -->
<svg width="292pt" height="218pt"
 viewBox="0.00 0.00 292.00 218.00" xmlns="http://www.w3.org/2000/svg" xmlns:xlink="http://www.w3.org/1999/xlink">
<g id="graph0" class="graph" transform="scale(1 1) rotate(0) translate(4 214)">
<title>include/Small/Graphics/TileView.hpp</title>
<polygon fill="white" stroke="none" points="-4,4 -4,-214 288,-214 288,4 -4,4"/>
<!-- Node1 -->
<g id="node1" class="node"><title>Node1</title>
<polygon fill="#bfbfbf" stroke="black" points="84.5,-179.5 84.5,-209.5 201.5,-209.5 201.5,-179.5 84.5,-179.5"/>
<text text-anchor="start" x="92.5" y="-197.5" font-family="Helvetica,sans-Serif" font-size="10.00">include/Small/Graphics</text>
<text text-anchor="middle" x="143" y="-186.5" font-family="Helvetica,sans-Serif" font-size="10.00">/TileView.hpp</text>
</g>
<!-- Node2 -->
<g id="node2" class="node"><title>Node2</title>
<g id="a_node2"><a xlink:href="../../dc/da8/Graphics_8hpp.html" target="_top" xlink:title="Include all the files from the Graphics folder. ">
<polygon fill="white" stroke="black" points="0,-56.5 0,-75.5 136,-75.5 136,-56.5 0,-56.5"/>
<text text-anchor="middle" x="68" y="-63.5" font-family="Helvetica,sans-Serif" font-size="10.00">include/Small/Graphics.hpp</text>
</a>
</g>
</g>
<!-- Node1&#45;&gt;Node2 -->
<g id="edge1" class="edge"><title>Node1&#45;&gt;Node2</title>
<path fill="none" stroke="midnightblue" d="M129.443,-170.633C112.611,-142.244 84.7178,-95.1974 73.2106,-75.7885"/>
<polygon fill="midnightblue" stroke="midnightblue" points="126.577,-172.662 134.687,-179.479 132.598,-169.092 126.577,-172.662"/>
</g>
<!-- Node4 -->
<g id="node4" class="node"><title>Node4</title>
<g id="a_node4"><a xlink:href="../../d2/d50/Zone_8hpp.html" target="_top" xlink:title="A specialized scene to handle zones and transitions on a tilemap. ">
<polygon fill="white" stroke="black" points="146.5,-112.5 146.5,-142.5 257.5,-142.5 257.5,-112.5 146.5,-112.5"/>
<text text-anchor="start" x="154.5" y="-130.5" font-family="Helvetica,sans-Serif" font-size="10.00">include/Small/Scenes</text>
<text text-anchor="middle" x="202" y="-119.5" font-family="Helvetica,sans-Serif" font-size="10.00">/Zone.hpp</text>
</a>
</g>
</g>
<!-- Node1&#45;&gt;Node4 -->
<g id="edge3" class="edge"><title>Node1&#45;&gt;Node4</title>
<path fill="none" stroke="midnightblue" d="M162.755,-171.736C171.484,-162.119 181.496,-151.089 189.223,-142.577"/>
<polygon fill="midnightblue" stroke="midnightblue" points="159.932,-169.639 155.802,-179.396 165.115,-174.344 159.932,-169.639"/>
</g>
<!-- Node3 -->
<g id="node3" class="node"><title>Node3</title>
<g id="a_node3"><a xlink:href="../../da/d41/All_8hpp.html" target="_top" xlink:title="Include the needed files to start a project using the library. ">
<polygon fill="white" stroke="black" points="89,-0.5 89,-19.5 197,-19.5 197,-0.5 89,-0.5"/>
<text text-anchor="middle" x="143" y="-7.5" font-family="Helvetica,sans-Serif" font-size="10.00">include/Small/All.hpp</text>
</a>
</g>
</g>
<!-- Node2&#45;&gt;Node3 -->
<g id="edge2" class="edge"><title>Node2&#45;&gt;Node3</title>
<path fill="none" stroke="midnightblue" d="M88.3051,-50.3804C101.861,-40.6204 119.242,-28.1057 130.731,-19.8339"/>
<polygon fill="midnightblue" stroke="midnightblue" points="86.1203,-47.6405 80.05,-56.324 90.2105,-53.3213 86.1203,-47.6405"/>
</g>
<!-- Node5 -->
<g id="node5" class="node"><title>Node5</title>
<g id="a_node5"><a xlink:href="../../d0/d00/Scenes_8hpp.html" target="_top" xlink:title="Include all the files from the Scenes folder. ">
<polygon fill="white" stroke="black" points="154,-56.5 154,-75.5 284,-75.5 284,-56.5 154,-56.5"/>
<text text-anchor="middle" x="219" y="-63.5" font-family="Helvetica,sans-Serif" font-size="10.00">include/Small/Scenes.hpp</text>
</a>
</g>
</g>
<!-- Node4&#45;&gt;Node5 -->
<g id="edge4" class="edge"><title>Node4&#45;&gt;Node5</title>
<path fill="none" stroke="midnightblue" d="M208.831,-102.593C211.549,-93.0768 214.506,-82.73 216.526,-75.6578"/>
<polygon fill="midnightblue" stroke="midnightblue" points="205.411,-101.823 206.029,-112.399 212.141,-103.746 205.411,-101.823"/>
</g>
<!-- Node5&#45;&gt;Node3 -->
<g id="edge5" class="edge"><title>Node5&#45;&gt;Node3</title>
<path fill="none" stroke="midnightblue" d="M198.424,-50.3804C184.688,-40.6204 167.075,-28.1057 155.433,-19.8339"/>
<polygon fill="midnightblue" stroke="midnightblue" points="196.61,-53.385 206.789,-56.324 200.665,-47.6787 196.61,-53.385"/>
</g>
</g>
</svg>
