<?xml version="1.0" encoding="UTF-8" standalone="no"?>
<!DOCTYPE svg PUBLIC "-//W3C//DTD SVG 1.1//EN"
 "http://www.w3.org/Graphics/SVG/1.1/DTD/svg11.dtd">
<!-- Generated by graphviz version 2.49.0 (20210828.1703)
 -->
<!-- Title: C:/Users/folae/Documents/Code/Big&#45;Projects/ScriptWizards/SmallGameLibrary/include/Small/Graphics/TileView.hpp Pages: 1 -->
<svg width="581pt" height="317pt"
 viewBox="0.00 0.00 581.00 317.00" xmlns="http://www.w3.org/2000/svg" xmlns:xlink="http://www.w3.org/1999/xlink">
<g id="graph0" class="graph" transform="scale(1 1) rotate(0) translate(4 313)">
<title>C:/Users/folae/Documents/Code/Big&#45;Projects/ScriptWizards/SmallGameLibrary/include/Small/Graphics/TileView.hpp</title>
<polygon fill="white" stroke="transparent" points="-4,4 -4,-313 577,-313 577,4 -4,4"/>
<!-- Node1 -->
<g id="node1" class="node">
<title>Node1</title>
<g id="a_node1"><a xlink:title="Utility to build and manipulate views based on tiles.">
<polygon fill="#bfbfbf" stroke="black" points="181,-256.5 181,-308.5 344,-308.5 344,-256.5 181,-256.5"/>
<text text-anchor="start" x="189" y="-296.5" font-family="Helvetica,sans-Serif" font-size="10.00">C:/Users/folae/Documents</text>
<text text-anchor="start" x="189" y="-285.5" font-family="Helvetica,sans-Serif" font-size="10.00">/Code/Big&#45;Projects/ScriptWizards</text>
<text text-anchor="start" x="189" y="-274.5" font-family="Helvetica,sans-Serif" font-size="10.00">/SmallGameLibrary/include/Small</text>
<text text-anchor="middle" x="262.5" y="-263.5" font-family="Helvetica,sans-Serif" font-size="10.00">/Graphics/TileView.hpp</text>
</a>
</g>
</g>
<!-- Node2 -->
<g id="node2" class="node">
<title>Node2</title>
<g id="a_node2"><a xlink:href="../../dc/da8/Graphics_8hpp.html" target="_top" xlink:title="Include all the files from the Graphics folder.">
<polygon fill="white" stroke="black" points="0,-78.5 0,-130.5 163,-130.5 163,-78.5 0,-78.5"/>
<text text-anchor="start" x="8" y="-118.5" font-family="Helvetica,sans-Serif" font-size="10.00">C:/Users/folae/Documents</text>
<text text-anchor="start" x="8" y="-107.5" font-family="Helvetica,sans-Serif" font-size="10.00">/Code/Big&#45;Projects/ScriptWizards</text>
<text text-anchor="start" x="8" y="-96.5" font-family="Helvetica,sans-Serif" font-size="10.00">/SmallGameLibrary/include/Small</text>
<text text-anchor="middle" x="81.5" y="-85.5" font-family="Helvetica,sans-Serif" font-size="10.00">/Graphics.hpp</text>
</a>
</g>
</g>
<!-- Node1&#45;&gt;Node2 -->
<g id="edge1" class="edge">
<title>Node1&#45;&gt;Node2</title>
<path fill="none" stroke="midnightblue" d="M211.35,-250.98C197.75,-241.81 183.52,-231.19 171.5,-220 142.07,-192.61 114.48,-155.08 97.8,-130.56"/>
<polygon fill="midnightblue" stroke="midnightblue" points="209.43,-253.91 219.71,-256.49 213.29,-248.06 209.43,-253.91"/>
</g>
<!-- Node4 -->
<g id="node4" class="node">
<title>Node4</title>
<g id="a_node4"><a xlink:href="../../d2/d50/Zone_8hpp.html" target="_top" xlink:title="A specialized scene to handle zones and transitions on a tilemap.">
<polygon fill="white" stroke="black" points="181,-167.5 181,-219.5 344,-219.5 344,-167.5 181,-167.5"/>
<text text-anchor="start" x="189" y="-207.5" font-family="Helvetica,sans-Serif" font-size="10.00">C:/Users/folae/Documents</text>
<text text-anchor="start" x="189" y="-196.5" font-family="Helvetica,sans-Serif" font-size="10.00">/Code/Big&#45;Projects/ScriptWizards</text>
<text text-anchor="start" x="189" y="-185.5" font-family="Helvetica,sans-Serif" font-size="10.00">/SmallGameLibrary/include/Small</text>
<text text-anchor="middle" x="262.5" y="-174.5" font-family="Helvetica,sans-Serif" font-size="10.00">/Scenes/Zone.hpp</text>
</a>
</g>
</g>
<!-- Node1&#45;&gt;Node4 -->
<g id="edge3" class="edge">
<title>Node1&#45;&gt;Node4</title>
<path fill="none" stroke="midnightblue" d="M262.5,-246.19C262.5,-237.28 262.5,-227.9 262.5,-219.61"/>
<polygon fill="midnightblue" stroke="midnightblue" points="259,-246.34 262.5,-256.34 266,-246.34 259,-246.34"/>
</g>
<!-- Node7 -->
<g id="node7" class="node">
<title>Node7</title>
<g id="a_node7"><a xlink:href="../../d2/d8a/TileView_8cpp.html" target="_top" xlink:title=" ">
<polygon fill="white" stroke="black" points="362.5,-167.5 362.5,-219.5 536.5,-219.5 536.5,-167.5 362.5,-167.5"/>
<text text-anchor="start" x="370.5" y="-207.5" font-family="Helvetica,sans-Serif" font-size="10.00">C:/Users/folae/Documents</text>
<text text-anchor="start" x="370.5" y="-196.5" font-family="Helvetica,sans-Serif" font-size="10.00">/Code/Big&#45;Projects/ScriptWizards</text>
<text text-anchor="start" x="370.5" y="-185.5" font-family="Helvetica,sans-Serif" font-size="10.00">/SmallGameLibrary/source/Graphics</text>
<text text-anchor="middle" x="449.5" y="-174.5" font-family="Helvetica,sans-Serif" font-size="10.00">/TileView.cpp</text>
</a>
</g>
</g>
<!-- Node1&#45;&gt;Node7 -->
<g id="edge7" class="edge">
<title>Node1&#45;&gt;Node7</title>
<path fill="none" stroke="midnightblue" d="M325.58,-252.15C348.35,-241.56 373.82,-229.71 395.72,-219.52"/>
<polygon fill="midnightblue" stroke="midnightblue" points="323.93,-249.06 316.34,-256.45 326.88,-255.41 323.93,-249.06"/>
</g>
<!-- Node3 -->
<g id="node3" class="node">
<title>Node3</title>
<g id="a_node3"><a xlink:href="../../da/d41/All_8hpp.html" target="_top" xlink:title="Include the needed files to start a project using the library.">
<polygon fill="white" stroke="black" points="74.5,-0.5 74.5,-41.5 268.5,-41.5 268.5,-0.5 74.5,-0.5"/>
<text text-anchor="start" x="82.5" y="-29.5" font-family="Helvetica,sans-Serif" font-size="10.00">C:/Users/folae/Documents</text>
<text text-anchor="start" x="82.5" y="-18.5" font-family="Helvetica,sans-Serif" font-size="10.00">/Code/Big&#45;Projects/ScriptWizards</text>
<text text-anchor="middle" x="171.5" y="-7.5" font-family="Helvetica,sans-Serif" font-size="10.00">/SmallGameLibrary/include/Small/All.hpp</text>
</a>
</g>
</g>
<!-- Node2&#45;&gt;Node3 -->
<g id="edge2" class="edge">
<title>Node2&#45;&gt;Node3</title>
<path fill="none" stroke="midnightblue" d="M117,-71.36C128.09,-61.31 139.98,-50.54 149.82,-41.63"/>
<polygon fill="midnightblue" stroke="midnightblue" points="114.55,-68.85 109.48,-78.16 119.25,-74.04 114.55,-68.85"/>
</g>
<!-- Node5 -->
<g id="node5" class="node">
<title>Node5</title>
<g id="a_node5"><a xlink:href="../../d0/d00/Scenes_8hpp.html" target="_top" xlink:title="Include all the files from the Scenes folder.">
<polygon fill="white" stroke="black" points="181,-78.5 181,-130.5 344,-130.5 344,-78.5 181,-78.5"/>
<text text-anchor="start" x="189" y="-118.5" font-family="Helvetica,sans-Serif" font-size="10.00">C:/Users/folae/Documents</text>
<text text-anchor="start" x="189" y="-107.5" font-family="Helvetica,sans-Serif" font-size="10.00">/Code/Big&#45;Projects/ScriptWizards</text>
<text text-anchor="start" x="189" y="-96.5" font-family="Helvetica,sans-Serif" font-size="10.00">/SmallGameLibrary/include/Small</text>
<text text-anchor="middle" x="262.5" y="-85.5" font-family="Helvetica,sans-Serif" font-size="10.00">/Scenes.hpp</text>
</a>
</g>
</g>
<!-- Node4&#45;&gt;Node5 -->
<g id="edge4" class="edge">
<title>Node4&#45;&gt;Node5</title>
<path fill="none" stroke="midnightblue" d="M262.5,-157.19C262.5,-148.28 262.5,-138.9 262.5,-130.61"/>
<polygon fill="midnightblue" stroke="midnightblue" points="259,-157.34 262.5,-167.34 266,-157.34 259,-157.34"/>
</g>
<!-- Node6 -->
<g id="node6" class="node">
<title>Node6</title>
<g id="a_node6"><a xlink:href="../../db/d53/Zone_8cpp.html" target="_top" xlink:title=" ">
<polygon fill="white" stroke="black" points="362,-84 362,-125 573,-125 573,-84 362,-84"/>
<text text-anchor="start" x="370" y="-113" font-family="Helvetica,sans-Serif" font-size="10.00">C:/Users/folae/Documents</text>
<text text-anchor="start" x="370" y="-102" font-family="Helvetica,sans-Serif" font-size="10.00">/Code/Big&#45;Projects/ScriptWizards</text>
<text text-anchor="middle" x="467.5" y="-91" font-family="Helvetica,sans-Serif" font-size="10.00">/SmallGameLibrary/source/Scenes/Zone.cpp</text>
</a>
</g>
</g>
<!-- Node4&#45;&gt;Node6 -->
<g id="edge6" class="edge">
<title>Node4&#45;&gt;Node6</title>
<path fill="none" stroke="midnightblue" d="M330.99,-163.43C360.66,-150.84 394.61,-136.43 421.24,-125.13"/>
<polygon fill="midnightblue" stroke="midnightblue" points="329.36,-160.32 321.52,-167.45 332.09,-166.77 329.36,-160.32"/>
</g>
<!-- Node5&#45;&gt;Node3 -->
<g id="edge5" class="edge">
<title>Node5&#45;&gt;Node3</title>
<path fill="none" stroke="midnightblue" d="M226.61,-71.36C215.4,-61.31 203.37,-50.54 193.42,-41.63"/>
<polygon fill="midnightblue" stroke="midnightblue" points="224.42,-74.1 234.21,-78.16 229.09,-68.88 224.42,-74.1"/>
</g>
</g>
</svg>
