<?xml version="1.0" encoding="UTF-8" standalone="no"?>
<!DOCTYPE svg PUBLIC "-//W3C//DTD SVG 1.1//EN"
 "http://www.w3.org/Graphics/SVG/1.1/DTD/svg11.dtd">
<!-- Generated by graphviz version 2.49.0 (20210828.1703)
 -->
<!-- Title: C:/Users/folae/Documents/Code/Big&#45;Projects/ScriptWizards/SmallGameLibrary/source/Widgets/Base.cpp Pages: 1 -->
<svg width="739pt" height="218pt"
 viewBox="0.00 0.00 738.50 218.00" xmlns="http://www.w3.org/2000/svg" xmlns:xlink="http://www.w3.org/1999/xlink">
<g id="graph0" class="graph" transform="scale(1 1) rotate(0) translate(4 214)">
<title>C:/Users/folae/Documents/Code/Big&#45;Projects/ScriptWizards/SmallGameLibrary/source/Widgets/Base.cpp</title>
<polygon fill="white" stroke="transparent" points="-4,4 -4,-214 734.5,-214 734.5,4 -4,4"/>
<!-- Node1 -->
<g id="node1" class="node">
<title>Node1</title>
<g id="a_node1"><a xlink:title=" ">
<polygon fill="#bfbfbf" stroke="black" points="149,-168.5 149,-209.5 364,-209.5 364,-168.5 149,-168.5"/>
<text text-anchor="start" x="157" y="-197.5" font-family="Helvetica,sans-Serif" font-size="10.00">C:/Users/folae/Documents</text>
<text text-anchor="start" x="157" y="-186.5" font-family="Helvetica,sans-Serif" font-size="10.00">/Code/Big&#45;Projects/ScriptWizards</text>
<text text-anchor="middle" x="256.5" y="-175.5" font-family="Helvetica,sans-Serif" font-size="10.00">/SmallGameLibrary/source/Widgets/Base.cpp</text>
</a>
</g>
</g>
<!-- Node2 -->
<g id="node2" class="node">
<title>Node2</title>
<g id="a_node2"><a xlink:href="../../d3/db2/Base_8hpp.html" target="_top" xlink:title="Contain base classes to create interoperable SFML widgets.">
<polygon fill="white" stroke="black" points="194,-112.5 194,-131.5 319,-131.5 319,-112.5 194,-112.5"/>
<text text-anchor="middle" x="256.5" y="-119.5" font-family="Helvetica,sans-Serif" font-size="10.00">Small/Widgets/Base.hpp</text>
</a>
</g>
</g>
<!-- Node1&#45;&gt;Node2 -->
<g id="edge1" class="edge">
<title>Node1&#45;&gt;Node2</title>
<path fill="none" stroke="midnightblue" d="M256.5,-168.5C256.5,-160.07 256.5,-150.24 256.5,-141.87"/>
<polygon fill="midnightblue" stroke="midnightblue" points="260,-141.65 256.5,-131.65 253,-141.65 260,-141.65"/>
</g>
<!-- Node3 -->
<g id="node3" class="node">
<title>Node3</title>
<g id="a_node3"><a xlink:title=" ">
<polygon fill="white" stroke="#bfbfbf" points="0,-56.5 0,-75.5 139,-75.5 139,-56.5 0,-56.5"/>
<text text-anchor="middle" x="69.5" y="-63.5" font-family="Helvetica,sans-Serif" font-size="10.00">SFML/Graphics/Texture.hpp</text>
</a>
</g>
</g>
<!-- Node2&#45;&gt;Node3 -->
<g id="edge2" class="edge">
<title>Node2&#45;&gt;Node3</title>
<path fill="none" stroke="midnightblue" d="M226.87,-112.44C195,-103.24 144.17,-88.56 108.94,-78.39"/>
<polygon fill="midnightblue" stroke="midnightblue" points="109.57,-74.93 98.99,-75.52 107.63,-81.65 109.57,-74.93"/>
</g>
<!-- Node4 -->
<g id="node4" class="node">
<title>Node4</title>
<g id="a_node4"><a xlink:title=" ">
<polygon fill="white" stroke="#bfbfbf" points="105.5,-0.5 105.5,-19.5 269.5,-19.5 269.5,-0.5 105.5,-0.5"/>
<text text-anchor="middle" x="187.5" y="-7.5" font-family="Helvetica,sans-Serif" font-size="10.00">SFML/Graphics/RenderTarget.hpp</text>
</a>
</g>
</g>
<!-- Node2&#45;&gt;Node4 -->
<g id="edge3" class="edge">
<title>Node2&#45;&gt;Node4</title>
<path fill="none" stroke="midnightblue" d="M232.03,-112.44C215.93,-105.38 196.12,-93.63 186.5,-76 178.81,-61.92 179.97,-43.42 182.52,-29.77"/>
<polygon fill="midnightblue" stroke="midnightblue" points="186.02,-30.16 184.83,-19.63 179.2,-28.61 186.02,-30.16"/>
</g>
<!-- Node5 -->
<g id="node5" class="node">
<title>Node5</title>
<g id="a_node5"><a xlink:title=" ">
<polygon fill="white" stroke="#bfbfbf" points="195.5,-56.5 195.5,-75.5 317.5,-75.5 317.5,-56.5 195.5,-56.5"/>
<text text-anchor="middle" x="256.5" y="-63.5" font-family="Helvetica,sans-Serif" font-size="10.00">SFML/System/Time.hpp</text>
</a>
</g>
</g>
<!-- Node2&#45;&gt;Node5 -->
<g id="edge4" class="edge">
<title>Node2&#45;&gt;Node5</title>
<path fill="none" stroke="midnightblue" d="M256.5,-112.08C256.5,-105.01 256.5,-94.86 256.5,-85.99"/>
<polygon fill="midnightblue" stroke="midnightblue" points="260,-85.75 256.5,-75.75 253,-85.75 260,-85.75"/>
</g>
<!-- Node6 -->
<g id="node6" class="node">
<title>Node6</title>
<g id="a_node6"><a xlink:title=" ">
<polygon fill="white" stroke="#bfbfbf" points="335.5,-56.5 335.5,-75.5 461.5,-75.5 461.5,-56.5 335.5,-56.5"/>
<text text-anchor="middle" x="398.5" y="-63.5" font-family="Helvetica,sans-Serif" font-size="10.00">SFML/Window/Event.hpp</text>
</a>
</g>
</g>
<!-- Node2&#45;&gt;Node6 -->
<g id="edge5" class="edge">
<title>Node2&#45;&gt;Node6</title>
<path fill="none" stroke="midnightblue" d="M279,-112.44C302.58,-103.48 339.82,-89.31 366.46,-79.18"/>
<polygon fill="midnightblue" stroke="midnightblue" points="368,-82.34 376.1,-75.52 365.51,-75.8 368,-82.34"/>
</g>
<!-- Node7 -->
<g id="node7" class="node">
<title>Node7</title>
<g id="a_node7"><a xlink:href="../../d7/dc6/Node_8hpp.html" target="_top" xlink:title="A scene graph node.">
<polygon fill="white" stroke="black" points="479.5,-56.5 479.5,-75.5 607.5,-75.5 607.5,-56.5 479.5,-56.5"/>
<text text-anchor="middle" x="543.5" y="-63.5" font-family="Helvetica,sans-Serif" font-size="10.00">Small/Graphics/Node.hpp</text>
</a>
</g>
</g>
<!-- Node2&#45;&gt;Node7 -->
<g id="edge6" class="edge">
<title>Node2&#45;&gt;Node7</title>
<path fill="none" stroke="midnightblue" d="M301.98,-112.44C352.46,-102.94 433.96,-87.61 488.12,-77.42"/>
<polygon fill="midnightblue" stroke="midnightblue" points="489.06,-80.81 498.24,-75.52 487.76,-73.93 489.06,-80.81"/>
</g>
<!-- Node7&#45;&gt;Node4 -->
<g id="edge7" class="edge">
<title>Node7&#45;&gt;Node4</title>
<path fill="none" stroke="midnightblue" d="M487.09,-56.44C423.69,-46.83 320.85,-31.23 253.7,-21.04"/>
<polygon fill="midnightblue" stroke="midnightblue" points="254.06,-17.56 243.65,-19.52 253.01,-24.48 254.06,-17.56"/>
</g>
<!-- Node8 -->
<g id="node8" class="node">
<title>Node8</title>
<g id="a_node8"><a xlink:title=" ">
<polygon fill="white" stroke="#bfbfbf" points="298,-0.5 298,-19.5 447,-19.5 447,-0.5 298,-0.5"/>
<text text-anchor="middle" x="372.5" y="-7.5" font-family="Helvetica,sans-Serif" font-size="10.00">SFML/Graphics/Transform.hpp</text>
</a>
</g>
</g>
<!-- Node7&#45;&gt;Node8 -->
<g id="edge8" class="edge">
<title>Node7&#45;&gt;Node8</title>
<path fill="none" stroke="midnightblue" d="M516.4,-56.44C487.51,-47.32 441.58,-32.81 409.39,-22.65"/>
<polygon fill="midnightblue" stroke="midnightblue" points="410.06,-19.19 399.47,-19.52 407.95,-25.87 410.06,-19.19"/>
</g>
<!-- Node9 -->
<g id="node9" class="node">
<title>Node9</title>
<g id="a_node9"><a xlink:title=" ">
<polygon fill="white" stroke="#bfbfbf" points="465,-0.5 465,-19.5 600,-19.5 600,-0.5 465,-0.5"/>
<text text-anchor="middle" x="532.5" y="-7.5" font-family="Helvetica,sans-Serif" font-size="10.00">SFML/System/Vector2.hpp</text>
</a>
</g>
</g>
<!-- Node7&#45;&gt;Node9 -->
<g id="edge9" class="edge">
<title>Node7&#45;&gt;Node9</title>
<path fill="none" stroke="midnightblue" d="M541.68,-56.08C540.23,-48.93 538.13,-38.64 536.31,-29.69"/>
<polygon fill="midnightblue" stroke="midnightblue" points="539.71,-28.85 534.28,-19.75 532.85,-30.25 539.71,-28.85"/>
</g>
<!-- Node10 -->
<g id="node10" class="node">
<title>Node10</title>
<g id="a_node10"><a xlink:title=" ">
<polygon fill="white" stroke="#bfbfbf" points="618.5,-0.5 618.5,-19.5 660.5,-19.5 660.5,-0.5 618.5,-0.5"/>
<text text-anchor="middle" x="639.5" y="-7.5" font-family="Helvetica,sans-Serif" font-size="10.00">vector</text>
</a>
</g>
</g>
<!-- Node7&#45;&gt;Node10 -->
<g id="edge10" class="edge">
<title>Node7&#45;&gt;Node10</title>
<path fill="none" stroke="midnightblue" d="M558.92,-56.32C574.04,-47.82 597.32,-34.73 614.97,-24.8"/>
<polygon fill="midnightblue" stroke="midnightblue" points="617.11,-27.61 624.11,-19.65 613.68,-21.51 617.11,-27.61"/>
</g>
<!-- Node11 -->
<g id="node11" class="node">
<title>Node11</title>
<g id="a_node11"><a xlink:title=" ">
<polygon fill="white" stroke="#bfbfbf" points="678.5,-0.5 678.5,-19.5 730.5,-19.5 730.5,-0.5 678.5,-0.5"/>
<text text-anchor="middle" x="704.5" y="-7.5" font-family="Helvetica,sans-Serif" font-size="10.00">memory</text>
</a>
</g>
</g>
<!-- Node7&#45;&gt;Node11 -->
<g id="edge11" class="edge">
<title>Node7&#45;&gt;Node11</title>
<path fill="none" stroke="midnightblue" d="M569.01,-56.44C596.1,-47.36 639.09,-32.94 669.37,-22.78"/>
<polygon fill="midnightblue" stroke="midnightblue" points="670.74,-26.01 679.11,-19.52 668.51,-19.38 670.74,-26.01"/>
</g>
</g>
</svg>
